<svg width="224" height="36" viewBox="0 0 224 36" fill="none" xmlns="http://www.w3.org/2000/svg">
<path d="M22.9942 27.4082L11.4365 27.4082L9.23927 34H2.23L14.1392 2.00781L20.2476 2.00781L32.2227 34H25.2134L22.9942 27.4082ZM13.2163 22.0688L21.2144 22.0688L17.1934 10.0938L13.2163 22.0688Z" stroke="#FF572B" stroke-width="2"/>
<path d="M47.0542 22.2886H41.8027L41.8027 34H35.211L35.211 2.00781L47.0982 2.00781C50.8775 2.00781 53.7925 2.8501 55.8433 4.53467C57.8941 6.21924 58.9194 8.59961 58.9194 11.6758C58.9194 13.8584 58.4434 15.6821 57.4912 17.147C56.5537 18.5972 55.1255 19.7544 53.2066 20.6187L60.1279 33.6924V34H53.0527L47.0542 22.2886ZM41.8027 16.9492H47.1201C48.7754 16.9492 50.0571 16.5317 50.9653 15.6968C51.8736 14.8472 52.3277 13.6826 52.3277 12.2031C52.3277 10.6943 51.8955 9.50781 51.0313 8.64355C50.1817 7.7793 48.8706 7.34717 47.0982 7.34717L41.8027 7.34717V16.9492Z" stroke="#FF572B" stroke-width="2"/>
<path d="M72.5645 2.00781L80.7822 25.2109L88.9561 2.00781L97.6133 2.00781V34H90.9995V25.2549L91.6587 10.1597L83.0235 34H78.4971L69.8838 10.1816L70.543 25.2549V34L63.9512 34L63.9512 2.00781L72.5645 2.00781Z" stroke="#FF572B" stroke-width="2"/>
<path d="M110.379 34H103.788V2.00781L110.379 2.00781V34Z" stroke="#FF572B" stroke-width="2"/>
<path d="M139.933 7.34717L130.133 7.34717V34H123.541V7.34717L113.873 7.34717V2.00781L139.933 2.00781V7.34717Z" stroke="#FF572B" stroke-width="2"/>
<path d="M159.137 27.4082H147.579L145.382 34H138.373L150.282 2.00781L156.39 2.00781L168.365 34H161.356L159.137 27.4082ZM149.359 22.0688H157.357L153.336 10.0938L149.359 22.0688Z" stroke="#FF572B" stroke-width="2"/>
<path d="M196.183 29.957C194.996 31.3779 193.319 32.4839 191.151 33.2749C188.983 34.0513 186.581 34.4395 183.944 34.4395C181.175 34.4395 178.744 33.8389 176.649 32.6377C174.569 31.4219 172.958 29.6641 171.815 27.3643C170.687 25.0645 170.108 22.3618 170.079 19.2563V17.0811C170.079 13.8877 170.614 11.1265 171.683 8.79736C172.767 6.45361 174.32 4.6665 176.341 3.43604C178.377 2.19092 180.758 1.56836 183.482 1.56836C187.276 1.56836 190.243 2.47656 192.381 4.29297C194.52 6.09473 195.787 8.72412 196.183 12.1812L189.767 12.1812C189.474 10.3501 188.822 9.00977 187.811 8.16016C186.815 7.31055 185.438 6.88574 183.68 6.88574C181.439 6.88574 179.732 7.72803 178.561 9.4126C177.389 11.0972 176.795 13.6021 176.781 16.9272V18.9707C176.781 22.3252 177.418 24.8594 178.692 26.5732C179.967 28.2871 181.834 29.144 184.295 29.144C186.771 29.144 188.536 28.6167 189.591 27.562V22.0469H183.592V17.1909L196.183 17.1909V29.957Z" stroke="#FF572B" stroke-width="2"/>
<path d="M220.792 20.1353L208.136 20.1353V28.7046L222.989 28.7046V34H201.544V2.00781L222.945 2.00781V7.34717L208.136 7.34717V14.9717L220.792 14.9717V20.1353Z" stroke="#FF572B" stroke-width="2"/>
</svg>
