<svg width="183" height="154" viewBox="0 0 183 154" fill="none" xmlns="http://www.w3.org/2000/svg">
<path d="M99.7858 146.635C99.7858 146.635 86.4784 101.215 104.975 77.3268C104.975 77.3268 133.598 43.3455 93.0903 8.35488C92.8392 8.10254 92.5881 7.93432 92.2533 7.7661C87.9012 5.32684 49.4853 -11.5797 21.1965 17.2708C21.1128 17.3549 21.0291 17.439 20.9454 17.5231C20.2759 18.5325 16.0911 24.5044 15.5053 29.7194L11.0695 41.9156C11.0695 41.9156 9.06078 45.7848 12.7433 53.8596C12.827 54.1119 12.827 54.3642 12.6597 54.6166L1.86304 70.9343C1.86304 70.9343 -2.40539 76.6539 8.97709 80.6072C8.97709 80.6072 10.3162 80.439 8.22384 84.4764C8.05645 84.7287 7.97275 85.0652 8.05645 85.4016C8.14014 86.3268 8.64231 88.3455 10.5673 89.2708C10.651 89.2708 10.651 89.3549 10.5673 89.439C10.0651 90.0278 7.97275 92.8035 12.576 97.2614C12.6597 97.3455 12.6597 97.4296 12.576 97.5138C11.9901 98.6072 7.97275 107.775 18.4346 113.327C18.4346 113.327 23.2889 115.177 32.7464 114.168C32.7464 114.168 39.9441 114.504 38.5213 120.56L36.1779 151.346C36.0942 152.018 36.68 152.691 37.3496 152.691H101.292C101.795 152.691 102.046 152.187 101.878 151.766L99.7858 146.635Z" fill="#FF572B" stroke="#145B2C" stroke-miterlimit="10"/>
<path d="M83.0469 146.635C83.0469 146.635 96.3544 101.215 77.8578 77.3268C77.8578 77.3268 49.2342 43.3455 89.7425 8.35488C89.9936 8.10254 90.2447 7.93432 90.5794 7.7661C94.9316 5.32684 133.347 -11.5797 161.636 17.2708C161.72 17.3549 161.804 17.439 161.887 17.5231C162.557 18.5325 166.742 24.5044 167.327 29.7194L171.763 41.9156C171.763 41.9156 173.772 45.7848 170.089 53.8596C170.006 54.1119 170.006 54.3642 170.173 54.6166L181.137 71.0184C181.137 71.0184 185.406 76.7381 174.023 80.6913C174.023 80.6913 172.684 80.5231 174.776 84.5605C174.944 84.8128 175.027 85.1493 174.944 85.4857C174.86 86.4109 174.358 88.4296 172.433 89.3549C172.349 89.3549 172.349 89.439 172.433 89.5231C172.935 90.1119 175.027 92.8876 170.424 97.3455C170.341 97.4296 170.341 97.5138 170.424 97.5979C171.01 98.6913 175.027 107.86 164.566 113.411C164.566 113.411 159.711 115.261 150.254 114.252C150.254 114.252 143.056 114.589 144.479 120.645L146.822 151.43C146.906 152.103 146.32 152.775 145.651 152.775H81.7078C81.2056 152.775 80.9545 152.271 81.1219 151.85L83.0469 146.635Z" fill="#68FFBB" stroke="#145B2C" stroke-miterlimit="10"/>
<path d="M101.795 151.177L99.4511 146.215C99.4511 146.215 85.8925 100.878 104.808 76.9904C104.808 76.9904 134.017 43.0933 92.6718 8.10261C92.4207 7.85027 92.0859 7.68205 91.8349 7.51382C91.5838 7.42971 91.3327 7.26149 90.9142 7.09326C90.4957 7.26149 90.2447 7.42971 89.9936 7.51382C89.6588 7.68205 89.4077 7.85027 89.1566 8.10261C47.8114 43.0933 77.0209 76.9904 77.0209 76.9904C95.9359 100.878 82.3774 146.215 82.3774 146.215L80.0339 151.177C79.8665 151.598 80.1176 152.103 80.6198 152.103H101.209C101.711 152.103 102.046 151.598 101.795 151.177Z" fill="white"/>
</svg>
