<svg width="195" height="112" viewBox="0 0 195 112" fill="none" xmlns="http://www.w3.org/2000/svg">
<path d="M15.1496 15.6858L32.7894 5.23633H165.795L182.209 15.6858H194V81.6772H190.227C190.227 81.6772 191.736 105.4 153.532 110.013C115.329 114.626 104.669 84.4073 104.669 84.4073H92.2176C92.2176 84.4073 87.501 113.402 47.0333 110.484C47.0333 110.484 17.9795 114.343 6.47119 81.9597H1.47168V16.0623L15.1496 15.6858Z" fill="#FF572B" stroke="#145B2C" stroke-miterlimit="10"/>
<path d="M14.3006 15.3092L31.2801 5.23633H159.569L175.417 15.3092H186.737V78.9472H183.058C183.058 78.9472 184.473 101.823 147.684 106.342C110.895 110.766 100.519 81.6772 100.519 81.6772H88.4443C88.4443 81.6772 83.9164 109.637 44.8636 106.812C44.8636 106.812 16.8475 110.484 5.81085 79.2296H1V15.6858L14.3006 15.3092Z" fill="#68FFBB" stroke="#145B2C" stroke-miterlimit="10"/>
<path d="M21.0924 16.9097H48.6369L84.6711 37.9027V64.3557L82.8789 66.6151V76.4055L79.7659 78.9473H47.0333V87.4198H42.1281L21.0924 61.155H39.6755V37.1496H21.0924V16.9097Z" stroke="#145B2C" stroke-miterlimit="10"/>
<path d="M165.89 57.3893V89.3024V57.3893ZM165.89 57.3893V13.5205H126.742V23.1227L102.877 38.2791V65.6735L118.536 89.3024H135.044L165.89 57.3893Z" stroke="#145B2C" stroke-miterlimit="10"/>
<path d="M135.044 89.3022H165.89" stroke="#145B2C" stroke-miterlimit="10"/>
<path d="M116.838 5.23623L123.535 13.5205L112.499 22.8402H80.2376L65.4277 13.5205L72.5968 5.14209" stroke="#145B2C" stroke-miterlimit="10"/>
<path d="M70.0499 13.5205H119.385" stroke="#145B2C" stroke-miterlimit="10"/>
<path d="M26.7522 7.87207V13.5204H40.1471V11.1669H56.5606V13.5204H65.4276" stroke="#145B2C" stroke-miterlimit="10"/>
<path d="M84.6711 37.9023H88.0669V64.2613L84.6711 64.3554" fill="#145B2C"/>
<path d="M84.6711 37.9023H88.0669V64.2613L84.6711 64.3554" stroke="#145B2C" stroke-miterlimit="10"/>
<path d="M108.725 44.1157L104.952 48.1637L115.234 61.8139" stroke="#145B2C" stroke-miterlimit="10"/>
<path d="M128.44 55.5063L135.044 64.3554" stroke="#145B2C" stroke-miterlimit="10"/>
<path d="M150.419 36.208L154.57 41.3857L148.061 46.5633L150.419 49.3875" stroke="#145B2C" stroke-miterlimit="10"/>
<path d="M143.722 66.2385L147.589 62.7554L149.948 64.8264L153.155 61.814" stroke="#145B2C" stroke-miterlimit="10"/>
<path d="M141.741 76.4053L144.477 79.606" stroke="#145B2C" stroke-miterlimit="10"/>
<path d="M143.911 73.8638L146.835 77.1586" stroke="#145B2C" stroke-miterlimit="10"/>
<path d="M159.192 60.1191L161.456 62.4726" stroke="#145B2C" stroke-miterlimit="10"/>
<path d="M137.968 89.3025L165.89 59.9312H173.342" stroke="#145B2C" stroke-miterlimit="10"/>
<path d="M151.268 89.3022V80.4531H165.889" stroke="#145B2C" stroke-miterlimit="10"/>
<path d="M86.0861 79.7943V78.7587H88.067V76.876H89.482V75.4639H99.3866V77.1584H100.707V78.3822L103.443 78.4763V79.2294" stroke="#145B2C" stroke-miterlimit="10"/>
<path d="M21.0924 37.1494H19.6774V44.7747H21.0924V50.7054H19.6774V59.9311H25.9032V58.6131H32.0347V59.9311H35.2419V61.1549V78.853" stroke="#145B2C" stroke-miterlimit="10"/>
<path d="M23.1677 63.791H19.6774V84.125H23.1677V87.4199H42.1281" stroke="#145B2C" stroke-miterlimit="10"/>
<path d="M49.5801 78.9473V87.4198H63.1637V78.9473" fill="#145B2C"/>
<path d="M49.5801 78.9473V87.4198H63.1637V78.9473" stroke="#145B2C" stroke-miterlimit="10"/>
<path d="M126.837 14.4619H124.667V22.8403H126.837V14.4619Z" fill="#145B2C" stroke="#145B2C" stroke-miterlimit="10"/>
<path d="M165.89 61.814H172.398" stroke="#145B2C" stroke-miterlimit="10"/>
<path d="M165.89 64.3555H169.097V88.1726H165.89" fill="#145B2C"/>
<path d="M165.89 64.3555H169.097V88.1726H165.89" stroke="#145B2C" stroke-miterlimit="10"/>
<path d="M151.268 82.3359H165.889" stroke="#145B2C" stroke-miterlimit="10"/>
<path d="M125.705 72.3579H127.403V88.7381H124.667V72.3579H125.705Z" fill="#145B2C" stroke="#145B2C" stroke-miterlimit="10"/>
<path d="M138.817 66.2383V73.8635" stroke="#145B2C" stroke-miterlimit="10"/>
<path d="M151.457 54.6597H158.249" stroke="#145B2C" stroke-miterlimit="10"/>
<path d="M140.703 20.5811H142.213H161.173V23.2169H140.703V20.5811Z" stroke="#145B2C" stroke-miterlimit="10"/>
<path d="M142.213 22.8404V20.5811H145.137V23.2169H148.438V20.5811H151.834V23.2169H154.57V20.5811H157.966V23.2169" stroke="#145B2C" stroke-miterlimit="10"/>
<path d="M111.555 45.6219C113.795 45.6219 115.611 43.7253 115.611 41.3857C115.611 39.0461 113.795 37.1494 111.555 37.1494C109.315 37.1494 107.499 39.0461 107.499 41.3857C107.499 43.7253 109.315 45.6219 111.555 45.6219Z" fill="#145B2C" stroke="#145B2C" stroke-miterlimit="10"/>
<path d="M154.853 61.814C158.604 61.814 161.645 58.6108 161.645 54.6594C161.645 50.7081 158.604 47.5049 154.853 47.5049C151.102 47.5049 148.061 50.7081 148.061 54.6594C148.061 58.6108 151.102 61.814 154.853 61.814Z" fill="#145B2C" stroke="#145B2C" stroke-miterlimit="10"/>
<path d="M138.817 76.782C142.307 76.782 145.137 73.8317 145.137 70.1923C145.137 66.5529 142.307 63.6025 138.817 63.6025C135.326 63.6025 132.497 66.5529 132.497 70.1923C132.497 73.8317 135.326 76.782 138.817 76.782Z" fill="#145B2C" stroke="#145B2C" stroke-miterlimit="10"/>
<path d="M181.265 34.7959H192.396" stroke="#145B2C" stroke-miterlimit="10"/>
<path d="M181.265 41.3853H192.396" stroke="#145B2C" stroke-miterlimit="10"/>
<path d="M6.65983 22.5577L1 15.6855" stroke="#145B2C" stroke-miterlimit="10"/>
<path d="M112.404 4.29487V1H156.268V5.04798H112.404V4.29487Z" fill="#68FFBB" stroke="#145B2C" stroke-miterlimit="10"/>
<path d="M35.2419 4.29487V1H79.1056V5.04798H35.2419V4.29487Z" fill="#68FFBB" stroke="#145B2C" stroke-miterlimit="10"/>
<path d="M94.4814 5.23633V81.6772" stroke="#145B2C" stroke-miterlimit="10"/>
<path d="M9.77277 15.874V87.4197" stroke="#145B2C" stroke-miterlimit="10"/>
<path d="M11.9424 15.4033V91.8442" stroke="#145B2C" stroke-miterlimit="10"/>
<path d="M177.587 15.874V93.1622" stroke="#145B2C" stroke-miterlimit="10"/>
<path d="M179.096 15.3091V90.7144" stroke="#145B2C" stroke-miterlimit="10"/>
<path d="M33.0724 87.4194V96.3626V105.682" stroke="#145B2C" stroke-miterlimit="10"/>
<path d="M33.0724 96.3627H46.373H70.0499V79.606" stroke="#145B2C" stroke-miterlimit="10"/>
<path d="M46.3729 102.576V96.3628L59.4849 96.5511V102.576H46.3729Z" fill="#145B2C" stroke="#145B2C" stroke-miterlimit="10"/>
<path d="M115.234 99.6575H158.532V89.3022" stroke="#145B2C" stroke-miterlimit="10"/>
<path d="M50.0518 20.6748H42.5997V24.7228H50.0518V20.6748Z" fill="#FF572B" stroke="#FF572B" stroke-miterlimit="10"/>
<path d="M42.5997 29.4297H46.3729V47.0337H51.5611V29.4297H54.4854V47.0337H59.4849V29.4297H62.3148V47.0337H66.654V29.4297H70.4272V70.1919H66.8426V50.8934L62.3148 50.7993V71.0392H59.1075V50.7993H54.4854L54.5797 71.0392H51.5611V50.7993H46.3729V71.0392H42.5997V29.4297Z" fill="#FF572B" stroke="#FF572B" stroke-miterlimit="10"/>
<path d="M75.804 45.1514L80.4261 48.9169L75.804 54.0004V45.1514Z" fill="#FF572B" stroke="#FF572B" stroke-miterlimit="10"/>
<path d="M56.5607 88.6436H49.0142V91.8443H56.5607V88.6436Z" fill="#FF572B" stroke="#FF572B" stroke-miterlimit="10"/>
<path d="M22.4129 80.3589V84.9717" stroke="#FF572B" stroke-miterlimit="10"/>
<path d="M25.6202 80.3589V84.9717" stroke="#FF572B" stroke-miterlimit="10"/>
<path d="M29.1104 80.3589V84.9717" stroke="#FF572B" stroke-miterlimit="10"/>
<path d="M79.4829 70.6631H76.7473V81.4891H79.4829V70.6631Z" fill="#FF572B" stroke="#FF572B" stroke-miterlimit="10"/>
<path d="M82.5958 32.3484L85.52 26.606" stroke="#FF572B" stroke-miterlimit="10"/>
<path d="M78.9169 31.407L81.9355 25.6646" stroke="#FF572B" stroke-miterlimit="10"/>
<path d="M96.8397 21.9932H93.9155V49.4818H96.8397V21.9932Z" fill="#FF572B" stroke="#FF572B" stroke-miterlimit="10"/>
<path d="M93.9155 55.6948H96.7454V63.3201H99.5753V66.6149H96.7454V72.5457H93.9155V55.6948Z" fill="#FF572B" stroke="#FF572B" stroke-miterlimit="10"/>
<path d="M90.7082 77.8174H98.349" stroke="#FF572B" stroke-miterlimit="10"/>
<path d="M103.348 31.3125L112.027 25.7583" stroke="#FF572B" stroke-miterlimit="10"/>
<path d="M106.839 32.2544L115.611 26.7002" stroke="#FF572B" stroke-miterlimit="10"/>
<path d="M136.364 15.874V26.2293" stroke="#FF572B" stroke-width="2" stroke-miterlimit="10"/>
<path d="M112.121 64.3555L155.985 26.4175L158.154 29.3358L114.196 67.368L112.121 64.3555Z" fill="#FF572B" stroke="#FF572B" stroke-miterlimit="10"/>
<path d="M125.327 37.4318L128.44 34.7959L145.042 56.3537L141.93 58.9896L125.327 37.4318Z" fill="#FF572B" stroke="#FF572B" stroke-miterlimit="10"/>
<path d="M133.723 90.7144V98.3396" stroke="#FF572B" stroke-width="2" stroke-miterlimit="10"/>
<path d="M136.647 90.7144V98.3396" stroke="#FF572B" stroke-width="2" stroke-miterlimit="10"/>
</svg>
