<svg width="112" height="36" viewBox="0 0 112 36" fill="none" xmlns="http://www.w3.org/2000/svg">
<path d="M27.2515 23.3433C27.0024 26.7856 25.728 29.4956 23.4282 31.4731C21.1431 33.4507 18.1255 34.4395 14.3755 34.4395C10.2739 34.4395 7.04395 33.0625 4.68555 30.3086C2.3418 27.54 1.16992 23.7461 1.16992 18.9268L1.16992 16.9712C1.16992 13.895 1.71191 11.1851 2.7959 8.84131C3.87988 6.49756 5.42529 4.70313 7.43213 3.45801C9.45361 2.19824 11.7974 1.56836 14.4634 1.56836C18.1548 1.56836 21.1284 2.55713 23.3843 4.53467C25.6401 6.51221 26.9438 9.28809 27.2954 12.8623H20.7036C20.5425 10.7969 19.9639 9.30273 18.9678 8.37988C17.9863 7.44238 16.4849 6.97363 14.4634 6.97363C12.2661 6.97363 10.6182 7.76465 9.51953 9.34668C8.43555 10.9141 7.87891 13.353 7.84961 16.6636V19.0806C7.84961 22.5376 8.36963 25.0645 9.40967 26.6611C10.4644 28.2578 12.1196 29.0562 14.3755 29.0562C16.4116 29.0562 17.9277 28.5947 18.9238 27.6719C19.9346 26.7344 20.5132 25.2915 20.6597 23.3433H27.2515Z" stroke="#FF572B" stroke-width="2"/>
<path d="M49.6416 27.4082H38.084L35.8867 34H28.8774L40.7866 2.00781L46.895 2.00781L58.8701 34H51.8608L49.6416 27.4082ZM39.8638 22.0688H47.8618L43.8408 10.0938L39.8638 22.0688Z" stroke="#FF572B" stroke-width="2"/>
<path d="M78.4478 25.6064C78.4478 24.3613 78.0083 23.4092 77.1294 22.75C76.2505 22.0762 74.6685 21.373 72.3833 20.6406C70.0981 19.8936 68.2891 19.1611 66.9561 18.4434C63.3232 16.4805 61.5068 13.8364 61.5068 10.5112C61.5068 8.78271 61.9902 7.24463 62.957 5.89697C63.9385 4.53467 65.3374 3.47266 67.1538 2.71094C68.9849 1.94922 71.0356 1.56836 73.3062 1.56836C75.5913 1.56836 77.6274 1.98584 79.4146 2.8208C81.2017 3.64111 82.5859 4.80566 83.5674 6.31445C84.5635 7.82324 85.0615 9.53711 85.0615 11.4561L78.4697 11.4561C78.4697 9.99121 78.0083 8.85596 77.0854 8.05029C76.1626 7.22998 74.8662 6.81982 73.1963 6.81982C71.585 6.81982 70.3325 7.16406 69.439 7.85254C68.5454 8.52637 68.0986 9.41992 68.0986 10.5332C68.0986 11.5732 68.6187 12.4448 69.6587 13.1479C70.7134 13.8511 72.2588 14.5103 74.2949 15.1255C78.0449 16.2534 80.7769 17.6523 82.4907 19.3223C84.2046 20.9922 85.0615 23.0723 85.0615 25.5625C85.0615 28.3311 84.0142 30.5063 81.9194 32.0884C79.8247 33.6558 77.0049 34.4395 73.46 34.4395C70.999 34.4395 68.7578 33.9927 66.7363 33.0991C64.7148 32.1909 63.1694 30.9531 62.1001 29.3857C61.0454 27.8184 60.5181 26.002 60.5181 23.9365H67.1318C67.1318 27.4668 69.2412 29.2319 73.46 29.2319C75.0273 29.2319 76.2505 28.917 77.1294 28.2871C78.0083 27.6426 78.4478 26.749 78.4478 25.6064Z" stroke="#FF572B" stroke-width="2"/>
<path d="M108.792 20.1353L96.1357 20.1353V28.7046L110.989 28.7046V34H89.5439V2.00781L110.945 2.00781V7.34717L96.1357 7.34717V14.9717L108.792 14.9717V20.1353Z" stroke="#FF572B" stroke-width="2"/>
</svg>
