<svg width="1437" height="206" viewBox="0 0 1437 206" fill="none" xmlns="http://www.w3.org/2000/svg">
<path d="M317.4 205.099V141.299L349.3 110.699V77.8994" stroke="#145B2C" stroke-width="0.75" stroke-miterlimit="10"/>
<path d="M301.4 160.299L283.3 141.499L333.3 92.1992V48.1992" stroke="#145B2C" stroke-width="0.75" stroke-miterlimit="10"/>
<path d="M288.5 120.199L303.6 104.199V92.5994L319.1 77.8994" stroke="#145B2C" stroke-width="0.75" stroke-miterlimit="10"/>
<path d="M283.3 55.8994V96.8994" stroke="#145B2C" stroke-width="0.75" stroke-miterlimit="10"/>
<path d="M333.3 160.3V141.5L349.3 150.9V176.7L333.3 193.5V205.1" stroke="#145B2C" stroke-width="0.75" stroke-miterlimit="10"/>
<path d="M349.3 19.2998V42.9998L367 60.6998V115" stroke="#145B2C" stroke-width="0.75" stroke-miterlimit="10"/>
<path d="M367 171.5V205.1" stroke="#145B2C" stroke-width="0.75" stroke-miterlimit="10"/>
<path d="M401.9 204.6L391.1 195.5V171.8" stroke="#145B2C" stroke-width="0.75" stroke-miterlimit="10"/>
<path d="M378.6 149.999V96.8994L396.5 80.0994V21.3994" stroke="#145B2C" stroke-width="0.75" stroke-miterlimit="10"/>
<path d="M429.1 101.2L417.9 90L395 115V147.8" stroke="#145B2C" stroke-width="0.75" stroke-miterlimit="10"/>
<path d="M414 131.399V183.199L426.5 193.499" stroke="#145B2C" stroke-width="0.75" stroke-miterlimit="10"/>
<path d="M434.3 205.099L451.9 186.199V143.099L463.2 131.799V24.3994" stroke="#145B2C" stroke-width="0.75" stroke-miterlimit="10"/>
<path d="M444.6 41.6992V67.0992" stroke="#145B2C" stroke-width="0.75" stroke-miterlimit="10"/>
<path d="M484.7 205.099L475.7 186.199V54.3994" stroke="#145B2C" stroke-width="0.75" stroke-miterlimit="10"/>
<path d="M502 173.3V205.1" stroke="#145B2C" stroke-width="0.75" stroke-miterlimit="10"/>
<path d="M536 205.1L521.8 190.9V145.2H502V3.2998" stroke="#145B2C" stroke-width="0.75" stroke-miterlimit="10"/>
<path d="M532.6 67.0996L519 83.4996V115" stroke="#145B2C" stroke-width="0.75" stroke-miterlimit="10"/>
<path d="M539.1 104.199V193.499L553.7 205.099" stroke="#145B2C" stroke-width="0.75" stroke-miterlimit="10"/>
<path d="M552 54.3994L553.7 127.499L569.3 141.499V183.999L588.7 205.099" stroke="#145B2C" stroke-width="0.75" stroke-miterlimit="10"/>
<path d="M585.6 74.8994L573.1 87.7994V110.299L588.7 126.199V180.599" stroke="#145B2C" stroke-width="0.75" stroke-miterlimit="10"/>
<path d="M591.3 101.7L603.3 90L627.9 118.9V147.8" stroke="#145B2C" stroke-width="0.75" stroke-miterlimit="10"/>
<path d="M605.5 129.8V205.1" stroke="#145B2C" stroke-width="0.75" stroke-miterlimit="10"/>
<path d="M624 67.0996V95.5996L643 118.9V165.1" stroke="#145B2C" stroke-width="0.75" stroke-miterlimit="10"/>
<path d="M625.8 170.199L618 183.999V205.099" stroke="#145B2C" stroke-width="0.75" stroke-miterlimit="10"/>
<path d="M666.7 118.899L654.7 127.699V191.399L666.7 205.099" stroke="#145B2C" stroke-width="0.75" stroke-miterlimit="10"/>
<path d="M654.7 94.2992V58.0992L670.8 41.8992V10.1992" stroke="#145B2C" stroke-width="0.75" stroke-miterlimit="10"/>
<path d="M670.8 74.8994V105.999L702 137.099V187.699" stroke="#145B2C" stroke-width="0.75" stroke-miterlimit="10"/>
<path d="M684.4 205.1V189.2L670.8 173.3V129.8L686.4 142.2V165.1" stroke="#145B2C" stroke-width="0.75" stroke-miterlimit="10"/>
<path d="M720.2 204V166.1" stroke="#145B2C" stroke-width="0.75" stroke-miterlimit="10"/>
<path d="M745 205.099L758.5 193.099V104.199" stroke="#145B2C" stroke-width="0.75" stroke-miterlimit="10"/>
<path d="M736.9 115V82.0996L751.7 68.5996" stroke="#145B2C" stroke-width="0.75" stroke-miterlimit="10"/>
<path d="M710.7 12.5V98.6" stroke="#145B2C" stroke-width="0.75" stroke-miterlimit="10"/>
<path d="M795.5 205.099L777.6 189.399V139.599L789.9 127.299V54.3994" stroke="#145B2C" stroke-width="0.75" stroke-miterlimit="10"/>
<path d="M807.2 102.6L818.7 91.0996L842.6 115V143.6" stroke="#145B2C" stroke-width="0.75" stroke-miterlimit="10"/>
<path d="M818 127.699L807.2 143.599V178.599L818 187.699V205.099" stroke="#145B2C" stroke-width="0.75" stroke-miterlimit="10"/>
<path d="M853.7 170.199L839.5 183.999V205.099" stroke="#145B2C" stroke-width="0.75" stroke-miterlimit="10"/>
<path d="M840.9 70.2998L859.4 86.4998V127.7" stroke="#145B2C" stroke-width="0.75" stroke-miterlimit="10"/>
<path d="M872.5 125.5V189.7L887 205.1" stroke="#145B2C" stroke-width="0.75" stroke-miterlimit="10"/>
<path d="M887 12.5V42.1L872.5 58.2V91.8" stroke="#145B2C" stroke-width="0.75" stroke-miterlimit="10"/>
<path d="M887 78.0996V176.6L904.1 193.1V205.1" stroke="#145B2C" stroke-width="0.75" stroke-miterlimit="10"/>
<path d="M900.1 135.6L914.2 147.8V185.7" stroke="#145B2C" stroke-width="0.75" stroke-miterlimit="10"/>
<path d="M904.1 33V91.8L938.5 126.3V153.1" stroke="#145B2C" stroke-width="0.75" stroke-miterlimit="10"/>
<path d="M930 170.199V205.099" stroke="#145B2C" stroke-width="0.75" stroke-miterlimit="10"/>
<path d="M921.3 75.6992L952.4 106.799V192.399L944.8 205.099" stroke="#145B2C" stroke-width="0.75" stroke-miterlimit="10"/>
<path d="M963.5 58.1992V91.0992" stroke="#145B2C" stroke-width="0.75" stroke-miterlimit="10"/>
<path d="M969.9 204V148.6L991.2 127.3V66.0996" stroke="#145B2C" stroke-width="0.75" stroke-miterlimit="10"/>
<path d="M994.6 179.699V147.199L1014.3 127.699V205.099" stroke="#145B2C" stroke-width="0.75" stroke-miterlimit="10"/>
<path d="M1008.4 41.1992V92.9992L1029.5 114.099V173.799" stroke="#145B2C" stroke-width="0.75" stroke-miterlimit="10"/>
<path d="M1040 205.099V166.399" stroke="#145B2C" stroke-width="0.75" stroke-miterlimit="10"/>
<path d="M1058.4 153.099V101.799L1075.8 84.2992V24.6992" stroke="#145B2C" stroke-width="0.75" stroke-miterlimit="10"/>
<path d="M1029.5 22.5V44.9L1047.4 65.1V105.4" stroke="#145B2C" stroke-width="0.75" stroke-miterlimit="10"/>
<path d="M1062 185.699L1079.9 197.999V205.099" stroke="#145B2C" stroke-width="0.75" stroke-miterlimit="10"/>
<path d="M1096 205.1V134" stroke="#145B2C" stroke-width="0.75" stroke-miterlimit="10"/>
<path d="M1075.8 160.6V114.6L1098.7 92.9996V74.5996" stroke="#145B2C" stroke-width="0.75" stroke-miterlimit="10"/>
<path d="M1124.4 46.2998V81.5998" stroke="#145B2C" stroke-width="0.75" stroke-miterlimit="10"/>
<path d="M1114.3 205.099L1129.9 191.199V133.999L1142.3 110.499V24.6992" stroke="#145B2C" stroke-width="0.75" stroke-miterlimit="10"/>
<path d="M1148.2 205.1L1159.7 192.1V155" stroke="#145B2C" stroke-width="0.75" stroke-miterlimit="10"/>
<path d="M283.3 100.2C285.123 100.2 286.6 98.7221 286.6 96.8996C286.6 95.0771 285.123 93.5996 283.3 93.5996C281.477 93.5996 280 95.0771 280 96.8996C280 98.7221 281.477 100.2 283.3 100.2Z" fill="white" stroke="#145B2C" stroke-miterlimit="10"/>
<path d="M288.5 123.5C290.323 123.5 291.8 122.023 291.8 120.2C291.8 118.378 290.323 116.9 288.5 116.9C286.677 116.9 285.2 118.378 285.2 120.2C285.2 122.023 286.677 123.5 288.5 123.5Z" fill="white" stroke="#145B2C" stroke-miterlimit="10"/>
<path d="M319.1 81.1996C320.923 81.1996 322.4 79.7221 322.4 77.8996C322.4 76.0771 320.923 74.5996 319.1 74.5996C317.277 74.5996 315.8 76.0771 315.8 77.8996C315.8 79.7221 317.277 81.1996 319.1 81.1996Z" fill="white" stroke="#145B2C" stroke-miterlimit="10"/>
<path d="M349.3 22.6C351.123 22.6 352.6 21.1226 352.6 19.3C352.6 17.4775 351.123 16 349.3 16C347.477 16 346 17.4775 346 19.3C346 21.1226 347.477 22.6 349.3 22.6Z" fill="white" stroke="#145B2C" stroke-miterlimit="10"/>
<path d="M367 118.1C368.823 118.1 370.3 116.623 370.3 114.8C370.3 112.977 368.823 111.5 367 111.5C365.177 111.5 363.7 112.977 363.7 114.8C363.7 116.623 365.177 118.1 367 118.1Z" fill="white" stroke="#145B2C" stroke-miterlimit="10"/>
<path d="M367 174.8C368.823 174.8 370.3 173.323 370.3 171.5C370.3 169.678 368.823 168.2 367 168.2C365.177 168.2 363.7 169.678 363.7 171.5C363.7 173.323 365.177 174.8 367 174.8Z" fill="white" stroke="#145B2C" stroke-miterlimit="10"/>
<path d="M396.5 25.8002C398.323 25.8002 399.8 24.3227 399.8 22.5002C399.8 20.6776 398.323 19.2002 396.5 19.2002C394.677 19.2002 393.2 20.6776 393.2 22.5002C393.2 24.3227 394.677 25.8002 396.5 25.8002Z" fill="white" stroke="#145B2C" stroke-miterlimit="10"/>
<path d="M395 151.1C396.823 151.1 398.3 149.623 398.3 147.8C398.3 145.977 396.823 144.5 395 144.5C393.177 144.5 391.7 145.977 391.7 147.8C391.7 149.623 393.177 151.1 395 151.1Z" fill="white" stroke="#145B2C" stroke-miterlimit="10"/>
<path d="M425.8 196.8C427.623 196.8 429.1 195.323 429.1 193.5C429.1 191.678 427.623 190.2 425.8 190.2C423.978 190.2 422.5 191.678 422.5 193.5C422.5 195.323 423.978 196.8 425.8 196.8Z" fill="white" stroke="#145B2C" stroke-miterlimit="10"/>
<path d="M463.2 29.1C465.023 29.1 466.5 27.6226 466.5 25.8C466.5 23.9775 465.023 22.5 463.2 22.5C461.377 22.5 459.9 23.9775 459.9 25.8C459.9 27.6226 461.377 29.1 463.2 29.1Z" fill="white" stroke="#145B2C" stroke-miterlimit="10"/>
<path d="M502 176.8C503.823 176.8 505.3 175.323 505.3 173.5C505.3 171.678 503.823 170.2 502 170.2C500.177 170.2 498.7 171.678 498.7 173.5C498.7 175.323 500.177 176.8 502 176.8Z" fill="white" stroke="#145B2C" stroke-miterlimit="10"/>
<path d="M532.6 70.3998C534.423 70.3998 535.9 68.9223 535.9 67.0998C535.9 65.2773 534.423 63.7998 532.6 63.7998C530.777 63.7998 529.3 65.2773 529.3 67.0998C529.3 68.9223 530.777 70.3998 532.6 70.3998Z" fill="white" stroke="#145B2C" stroke-miterlimit="10"/>
<path d="M539.1 107.5C540.923 107.5 542.4 106.023 542.4 104.2C542.4 102.378 540.923 100.9 539.1 100.9C537.277 100.9 535.8 102.378 535.8 104.2C535.8 106.023 537.277 107.5 539.1 107.5Z" fill="white" stroke="#145B2C" stroke-miterlimit="10"/>
<path d="M584.2 80.3998C586.022 80.3998 587.5 78.9223 587.5 77.0998C587.5 75.2773 586.022 73.7998 584.2 73.7998C582.377 73.7998 580.9 75.2773 580.9 77.0998C580.9 78.9223 582.377 80.3998 584.2 80.3998Z" fill="white" stroke="#145B2C" stroke-miterlimit="10"/>
<path d="M588.7 183.3C590.522 183.3 592 181.823 592 180C592 178.178 590.522 176.7 588.7 176.7C586.877 176.7 585.4 178.178 585.4 180C585.4 181.823 586.877 183.3 588.7 183.3Z" fill="white" stroke="#145B2C" stroke-miterlimit="10"/>
<path d="M591.3 104.3C593.123 104.3 594.6 102.823 594.6 101C594.6 99.1776 593.123 97.7002 591.3 97.7002C589.478 97.7002 588 99.1776 588 101C588 102.823 589.478 104.3 591.3 104.3Z" fill="white" stroke="#145B2C" stroke-miterlimit="10"/>
<path d="M605.5 134.3C607.323 134.3 608.8 132.823 608.8 131C608.8 129.178 607.323 127.7 605.5 127.7C603.677 127.7 602.2 129.178 602.2 131C602.2 132.823 603.677 134.3 605.5 134.3Z" fill="white" stroke="#145B2C" stroke-miterlimit="10"/>
<path d="M643 167.5C644.823 167.5 646.3 166.023 646.3 164.2C646.3 162.378 644.823 160.9 643 160.9C641.177 160.9 639.7 162.378 639.7 164.2C639.7 166.023 641.177 167.5 643 167.5Z" fill="white" stroke="#145B2C" stroke-miterlimit="10"/>
<path d="M666.7 122.2C668.522 122.2 670 120.722 670 118.9C670 117.077 668.522 115.6 666.7 115.6C664.877 115.6 663.4 117.077 663.4 118.9C663.4 120.722 664.877 122.2 666.7 122.2Z" fill="white" stroke="#145B2C" stroke-miterlimit="10"/>
<path d="M670.8 78.1996C672.623 78.1996 674.1 76.7221 674.1 74.8996C674.1 73.0771 672.623 71.5996 670.8 71.5996C668.978 71.5996 667.5 73.0771 667.5 74.8996C667.5 76.7221 668.978 78.1996 670.8 78.1996Z" fill="white" stroke="#145B2C" stroke-miterlimit="10"/>
<path d="M702 191C703.823 191 705.3 189.523 705.3 187.7C705.3 185.878 703.823 184.4 702 184.4C700.177 184.4 698.7 185.878 698.7 187.7C698.7 189.523 700.177 191 702 191Z" fill="white" stroke="#145B2C" stroke-miterlimit="10"/>
<path d="M736.9 118.3C738.723 118.3 740.2 116.823 740.2 115C740.2 113.178 738.723 111.7 736.9 111.7C735.078 111.7 733.6 113.178 733.6 115C733.6 116.823 735.078 118.3 736.9 118.3Z" fill="white" stroke="#145B2C" stroke-miterlimit="10"/>
<path d="M751.7 71.8998C753.522 71.8998 755 70.4223 755 68.5998C755 66.7773 753.522 65.2998 751.7 65.2998C749.877 65.2998 748.4 66.7773 748.4 68.5998C748.4 70.4223 749.877 71.8998 751.7 71.8998Z" fill="white" stroke="#145B2C" stroke-miterlimit="10"/>
<path d="M807.2 105.6C809.022 105.6 810.5 104.123 810.5 102.3C810.5 100.477 809.022 99 807.2 99C805.377 99 803.9 100.477 803.9 102.3C803.9 104.123 805.377 105.6 807.2 105.6Z" fill="white" stroke="#145B2C" stroke-miterlimit="10"/>
<path d="M859.4 131C861.223 131 862.7 129.523 862.7 127.7C862.7 125.878 861.223 124.4 859.4 124.4C857.577 124.4 856.1 125.878 856.1 127.7C856.1 129.523 857.577 131 859.4 131Z" fill="white" stroke="#145B2C" stroke-miterlimit="10"/>
<path d="M872.5 94.3998C874.323 94.3998 875.8 92.9223 875.8 91.0998C875.8 89.2773 874.323 87.7998 872.5 87.7998C870.677 87.7998 869.2 89.2773 869.2 91.0998C869.2 92.9223 870.677 94.3998 872.5 94.3998Z" fill="white" stroke="#145B2C" stroke-miterlimit="10"/>
<path d="M872.5 129.8C874.323 129.8 875.8 128.323 875.8 126.5C875.8 124.678 874.323 123.2 872.5 123.2C870.677 123.2 869.2 124.678 869.2 126.5C869.2 128.323 870.677 129.8 872.5 129.8Z" fill="white" stroke="#145B2C" stroke-miterlimit="10"/>
<path d="M887 82.3002C888.823 82.3002 890.3 80.8227 890.3 79.0002C890.3 77.1776 888.823 75.7002 887 75.7002C885.177 75.7002 883.7 77.1776 883.7 79.0002C883.7 80.8227 885.177 82.3002 887 82.3002Z" fill="white" stroke="#145B2C" stroke-miterlimit="10"/>
<path d="M904.1 36.3002C905.923 36.3002 907.4 34.8227 907.4 33.0002C907.4 31.1776 905.923 29.7002 904.1 29.7002C902.277 29.7002 900.8 31.1776 900.8 33.0002C900.8 34.8227 902.277 36.3002 904.1 36.3002Z" fill="white" stroke="#145B2C" stroke-miterlimit="10"/>
<path d="M938.5 156.4C940.323 156.4 941.8 154.922 941.8 153.1C941.8 151.277 940.323 149.8 938.5 149.8C936.677 149.8 935.2 151.277 935.2 153.1C935.2 154.922 936.677 156.4 938.5 156.4Z" fill="white" stroke="#145B2C" stroke-miterlimit="10"/>
<path d="M930 173.5C931.823 173.5 933.3 172.023 933.3 170.2C933.3 168.378 931.823 166.9 930 166.9C928.177 166.9 926.7 168.378 926.7 170.2C926.7 172.023 928.177 173.5 930 173.5Z" fill="white" stroke="#145B2C" stroke-miterlimit="10"/>
<path d="M963.5 61.5004C965.323 61.5004 966.8 60.0229 966.8 58.2004C966.8 56.3779 965.323 54.9004 963.5 54.9004C961.677 54.9004 960.2 56.3779 960.2 58.2004C960.2 60.0229 961.677 61.5004 963.5 61.5004Z" fill="white" stroke="#145B2C" stroke-miterlimit="10"/>
<path d="M991.4 69.3998C993.223 69.3998 994.7 67.9223 994.7 66.0998C994.7 64.2773 993.223 62.7998 991.4 62.7998C989.577 62.7998 988.1 64.2773 988.1 66.0998C988.1 67.9223 989.577 69.3998 991.4 69.3998Z" fill="white" stroke="#145B2C" stroke-miterlimit="10"/>
<path d="M1029.5 177.1C1031.32 177.1 1032.8 175.623 1032.8 173.8C1032.8 171.977 1031.32 170.5 1029.5 170.5C1027.68 170.5 1026.2 171.977 1026.2 173.8C1026.2 175.623 1027.68 177.1 1029.5 177.1Z" fill="white" stroke="#145B2C" stroke-miterlimit="10"/>
<path d="M1040 170.5C1041.82 170.5 1043.3 169.023 1043.3 167.2C1043.3 165.378 1041.82 163.9 1040 163.9C1038.18 163.9 1036.7 165.378 1036.7 167.2C1036.7 169.023 1038.18 170.5 1040 170.5Z" fill="white" stroke="#145B2C" stroke-miterlimit="10"/>
<path d="M1075.8 29.3998C1077.62 29.3998 1079.1 27.9223 1079.1 26.0998C1079.1 24.2773 1077.62 22.7998 1075.8 22.7998C1073.98 22.7998 1072.5 24.2773 1072.5 26.0998C1072.5 27.9223 1073.98 29.3998 1075.8 29.3998Z" fill="white" stroke="#145B2C" stroke-miterlimit="10"/>
<path d="M1058.4 156.4C1060.22 156.4 1061.7 154.922 1061.7 153.1C1061.7 151.277 1060.22 149.8 1058.4 149.8C1056.58 149.8 1055.1 151.277 1055.1 153.1C1055.1 154.922 1056.58 156.4 1058.4 156.4Z" fill="white" stroke="#145B2C" stroke-miterlimit="10"/>
<path d="M1096 137.3C1097.82 137.3 1099.3 135.823 1099.3 134C1099.3 132.178 1097.82 130.7 1096 130.7C1094.18 130.7 1092.7 132.178 1092.7 134C1092.7 135.823 1094.18 137.3 1096 137.3Z" fill="white" stroke="#145B2C" stroke-miterlimit="10"/>
<path d="M853.7 173.5C855.522 173.5 857 172.023 857 170.2C857 168.378 855.522 166.9 853.7 166.9C851.877 166.9 850.4 168.378 850.4 170.2C850.4 172.023 851.877 173.5 853.7 173.5Z" fill="white" stroke="#145B2C" stroke-miterlimit="10"/>
<path d="M670.8 13.5004C672.623 13.5004 674.1 12.0229 674.1 10.2004C674.1 8.37785 672.623 6.90039 670.8 6.90039C668.978 6.90039 667.5 8.37785 667.5 10.2004C667.5 12.0229 668.978 13.5004 670.8 13.5004Z" fill="white" stroke="#145B2C" stroke-miterlimit="10"/>
<path d="M283.3 59.1996C285.123 59.1996 286.6 57.7221 286.6 55.8996C286.6 54.0771 285.123 52.5996 283.3 52.5996C281.477 52.5996 280 54.0771 280 55.8996C280 57.7221 281.477 59.1996 283.3 59.1996Z" fill="#145B2C"/>
<path d="M301.4 163.6C303.223 163.6 304.7 162.123 304.7 160.3C304.7 158.477 303.223 157 301.4 157C299.577 157 298.1 158.477 298.1 160.3C298.1 162.123 299.577 163.6 301.4 163.6Z" fill="#145B2C"/>
<path d="M349.3 83.0004C351.123 83.0004 352.6 81.5229 352.6 79.7004C352.6 77.8779 351.123 76.4004 349.3 76.4004C347.477 76.4004 346 77.8779 346 79.7004C346 81.5229 347.477 83.0004 349.3 83.0004Z" fill="#145B2C"/>
<path d="M333.3 163.6C335.123 163.6 336.6 162.123 336.6 160.3C336.6 158.477 335.123 157 333.3 157C331.477 157 330 158.477 330 160.3C330 162.123 331.477 163.6 333.3 163.6Z" fill="#145B2C"/>
<path d="M391.1 175.1C392.923 175.1 394.4 173.623 394.4 171.8C394.4 169.977 392.923 168.5 391.1 168.5C389.277 168.5 387.8 169.977 387.8 171.8C387.8 173.623 389.277 175.1 391.1 175.1Z" fill="#145B2C"/>
<path d="M378.6 153.3C380.423 153.3 381.9 151.823 381.9 150C381.9 148.178 380.423 146.7 378.6 146.7C376.777 146.7 375.3 148.178 375.3 150C375.3 151.823 376.777 153.3 378.6 153.3Z" fill="#145B2C"/>
<path d="M429.1 104.3C430.923 104.3 432.4 102.823 432.4 101C432.4 99.1776 430.923 97.7002 429.1 97.7002C427.277 97.7002 425.8 99.1776 425.8 101C425.8 102.823 427.277 104.3 429.1 104.3Z" fill="#145B2C"/>
<path d="M414 136.3C415.823 136.3 417.3 134.823 417.3 133C417.3 131.178 415.823 129.7 414 129.7C412.177 129.7 410.7 131.178 410.7 133C410.7 134.823 412.177 136.3 414 136.3Z" fill="#145B2C"/>
<path d="M444.6 45.0004C446.423 45.0004 447.9 43.5229 447.9 41.7004C447.9 39.8779 446.423 38.4004 444.6 38.4004C442.777 38.4004 441.3 39.8779 441.3 41.7004C441.3 43.5229 442.777 45.0004 444.6 45.0004Z" fill="#145B2C"/>
<path d="M444.6 69.6996C446.423 69.6996 447.9 68.2221 447.9 66.3996C447.9 64.5771 446.423 63.0996 444.6 63.0996C442.777 63.0996 441.3 64.5771 441.3 66.3996C441.3 68.2221 442.777 69.6996 444.6 69.6996Z" fill="#145B2C"/>
<path d="M475.7 58.8002C477.523 58.8002 479 57.3227 479 55.5002C479 53.6776 477.523 52.2002 475.7 52.2002C473.877 52.2002 472.4 53.6776 472.4 55.5002C472.4 57.3227 473.877 58.8002 475.7 58.8002Z" fill="#145B2C"/>
<path d="M502 6.60001C503.823 6.60001 505.3 5.12254 505.3 3.3C505.3 1.47746 503.823 0 502 0C500.177 0 498.7 1.47746 498.7 3.3C498.7 5.12254 500.177 6.60001 502 6.60001Z" fill="#145B2C"/>
<path d="M519 118.1C520.823 118.1 522.3 116.623 522.3 114.8C522.3 112.977 520.823 111.5 519 111.5C517.177 111.5 515.7 112.977 515.7 114.8C515.7 116.623 517.177 118.1 519 118.1Z" fill="#145B2C"/>
<path d="M552 58.8002C553.823 58.8002 555.3 57.3227 555.3 55.5002C555.3 53.6776 553.823 52.2002 552 52.2002C550.177 52.2002 548.7 53.6776 548.7 55.5002C548.7 57.3227 550.177 58.8002 552 58.8002Z" fill="#145B2C"/>
<path d="M627.9 151.1C629.723 151.1 631.2 149.623 631.2 147.8C631.2 145.977 629.723 144.5 627.9 144.5C626.078 144.5 624.6 145.977 624.6 147.8C624.6 149.623 626.078 151.1 627.9 151.1Z" fill="#145B2C"/>
<path d="M625.8 173.5C627.623 173.5 629.1 172.023 629.1 170.2C629.1 168.378 627.623 166.9 625.8 166.9C623.978 166.9 622.5 168.378 622.5 170.2C622.5 172.023 623.978 173.5 625.8 173.5Z" fill="#145B2C"/>
<path d="M654.7 97.6C656.522 97.6 658 96.1226 658 94.3C658 92.4775 656.522 91 654.7 91C652.877 91 651.4 92.4775 651.4 94.3C651.4 96.1226 652.877 97.6 654.7 97.6Z" fill="#145B2C"/>
<path d="M710.7 102.3C712.522 102.3 714 100.823 714 99.0002C714 97.1776 712.522 95.7002 710.7 95.7002C708.877 95.7002 707.4 97.1776 707.4 99.0002C707.4 100.823 708.877 102.3 710.7 102.3Z" fill="#145B2C"/>
<path d="M720.2 169.6C722.022 169.6 723.5 168.123 723.5 166.3C723.5 164.477 722.022 163 720.2 163C718.377 163 716.9 164.477 716.9 166.3C716.9 168.123 718.377 169.6 720.2 169.6Z" fill="#145B2C"/>
<path d="M758.5 107.5C760.323 107.5 761.8 106.023 761.8 104.2C761.8 102.378 760.323 100.9 758.5 100.9C756.677 100.9 755.2 102.378 755.2 104.2C755.2 106.023 756.677 107.5 758.5 107.5Z" fill="#145B2C"/>
<path d="M789.8 58.8002C791.623 58.8002 793.1 57.3227 793.1 55.5002C793.1 53.6776 791.623 52.2002 789.8 52.2002C787.978 52.2002 786.5 53.6776 786.5 55.5002C786.5 57.3227 787.978 58.8002 789.8 58.8002Z" fill="#145B2C"/>
<path d="M842.6 146.9C844.423 146.9 845.9 145.422 845.9 143.6C845.9 141.777 844.423 140.3 842.6 140.3C840.777 140.3 839.3 141.777 839.3 143.6C839.3 145.422 840.777 146.9 842.6 146.9Z" fill="#145B2C"/>
<path d="M818 131C819.823 131 821.3 129.523 821.3 127.7C821.3 125.878 819.823 124.4 818 124.4C816.177 124.4 814.7 125.878 814.7 127.7C814.7 129.523 816.177 131 818 131Z" fill="#145B2C"/>
<path d="M840.9 73.6C842.723 73.6 844.2 72.1226 844.2 70.3C844.2 68.4775 842.723 67 840.9 67C839.077 67 837.6 68.4775 837.6 70.3C837.6 72.1226 839.077 73.6 840.9 73.6Z" fill="#145B2C"/>
<path d="M887 15.8002C888.823 15.8002 890.3 14.3227 890.3 12.5002C890.3 10.6776 888.823 9.2002 887 9.2002C885.177 9.2002 883.7 10.6776 883.7 12.5002C883.7 14.3227 885.177 15.8002 887 15.8002Z" fill="#145B2C"/>
<path d="M900.1 138.9C901.923 138.9 903.4 137.422 903.4 135.6C903.4 133.777 901.923 132.3 900.1 132.3C898.277 132.3 896.8 133.777 896.8 135.6C896.8 137.422 898.277 138.9 900.1 138.9Z" fill="#145B2C"/>
<path d="M921.3 79.0004C923.123 79.0004 924.6 77.5229 924.6 75.7004C924.6 73.8779 923.123 72.4004 921.3 72.4004C919.478 72.4004 918 73.8779 918 75.7004C918 77.5229 919.478 79.0004 921.3 79.0004Z" fill="#145B2C"/>
<path d="M963.5 94.3998C965.323 94.3998 966.8 92.9223 966.8 91.0998C966.8 89.2773 965.323 87.7998 963.5 87.7998C961.677 87.7998 960.2 89.2773 960.2 91.0998C960.2 92.9223 961.677 94.3998 963.5 94.3998Z" fill="#145B2C"/>
<path d="M994.6 183.3C996.423 183.3 997.9 181.823 997.9 180C997.9 178.178 996.423 176.7 994.6 176.7C992.777 176.7 991.3 178.178 991.3 180C991.3 181.823 992.777 183.3 994.6 183.3Z" fill="#145B2C"/>
<path d="M1008.4 44.5004C1010.22 44.5004 1011.7 43.0229 1011.7 41.2004C1011.7 39.3779 1010.22 37.9004 1008.4 37.9004C1006.58 37.9004 1005.1 39.3779 1005.1 41.2004C1005.1 43.0229 1006.58 44.5004 1008.4 44.5004Z" fill="#145B2C"/>
<path d="M1029.5 25.8002C1031.32 25.8002 1032.8 24.3227 1032.8 22.5002C1032.8 20.6776 1031.32 19.2002 1029.5 19.2002C1027.68 19.2002 1026.2 20.6776 1026.2 22.5002C1026.2 24.3227 1027.68 25.8002 1029.5 25.8002Z" fill="#145B2C"/>
<path d="M1047.4 108.7C1049.22 108.7 1050.7 107.222 1050.7 105.4C1050.7 103.577 1049.22 102.1 1047.4 102.1C1045.58 102.1 1044.1 103.577 1044.1 105.4C1044.1 107.222 1045.58 108.7 1047.4 108.7Z" fill="#145B2C"/>
<path d="M1098.7 79.0004C1100.52 79.0004 1102 77.5229 1102 75.7004C1102 73.8779 1100.52 72.4004 1098.7 72.4004C1096.88 72.4004 1095.4 73.8779 1095.4 75.7004C1095.4 77.5229 1096.88 79.0004 1098.7 79.0004Z" fill="#145B2C"/>
<path d="M1075.8 163.9C1077.62 163.9 1079.1 162.422 1079.1 160.6C1079.1 158.777 1077.62 157.3 1075.8 157.3C1073.98 157.3 1072.5 158.777 1072.5 160.6C1072.5 162.422 1073.98 163.9 1075.8 163.9Z" fill="#145B2C"/>
<path d="M1124.4 49.6C1126.22 49.6 1127.7 48.1226 1127.7 46.3C1127.7 44.4775 1126.22 43 1124.4 43C1122.58 43 1121.1 44.4775 1121.1 46.3C1121.1 48.1226 1122.58 49.6 1124.4 49.6Z" fill="#145B2C"/>
<path d="M1124.4 84.8998C1126.22 84.8998 1127.7 83.4223 1127.7 81.5998C1127.7 79.7773 1126.22 78.2998 1124.4 78.2998C1122.58 78.2998 1121.1 79.7773 1121.1 81.5998C1121.1 83.4223 1122.58 84.8998 1124.4 84.8998Z" fill="#145B2C"/>
<path d="M1142.3 29.0004C1144.12 29.0004 1145.6 27.5229 1145.6 25.7004C1145.6 23.8779 1144.12 22.4004 1142.3 22.4004C1140.48 22.4004 1139 23.8779 1139 25.7004C1139 27.5229 1140.48 29.0004 1142.3 29.0004Z" fill="#145B2C"/>
<path d="M1159.7 158.3C1161.52 158.3 1163 156.823 1163 155C1163 153.178 1161.52 151.7 1159.7 151.7C1157.88 151.7 1156.4 153.178 1156.4 155C1156.4 156.823 1157.88 158.3 1159.7 158.3Z" fill="#145B2C"/>
<path d="M1062 189.1C1063.82 189.1 1065.3 187.623 1065.3 185.8C1065.3 183.977 1063.82 182.5 1062 182.5C1060.18 182.5 1058.7 183.977 1058.7 185.8C1058.7 187.623 1060.18 189.1 1062 189.1Z" fill="#145B2C"/>
<path d="M914.2 189C916.022 189 917.5 187.523 917.5 185.7C917.5 183.878 916.022 182.4 914.2 182.4C912.377 182.4 910.9 183.878 910.9 185.7C910.9 187.523 912.377 189 914.2 189Z" fill="#145B2C"/>
<path d="M686.4 167.5C688.223 167.5 689.7 166.023 689.7 164.2C689.7 162.378 688.223 160.9 686.4 160.9C684.578 160.9 683.1 162.378 683.1 164.2C683.1 166.023 684.578 167.5 686.4 167.5Z" fill="#145B2C"/>
<path d="M710.7 15.8002C712.522 15.8002 714 14.3227 714 12.5002C714 10.6776 712.522 9.2002 710.7 9.2002C708.877 9.2002 707.4 10.6776 707.4 12.5002C707.4 14.3227 708.877 15.8002 710.7 15.8002Z" fill="#145B2C"/>
<path d="M624 70.8998C625.823 70.8998 627.3 69.4223 627.3 67.5998C627.3 65.7773 625.823 64.2998 624 64.2998C622.177 64.2998 620.7 65.7773 620.7 67.5998C620.7 69.4223 622.177 70.8998 624 70.8998Z" fill="#145B2C"/>
<path d="M333.3 51.5004C335.123 51.5004 336.6 50.0229 336.6 48.2004C336.6 46.3779 335.123 44.9004 333.3 44.9004C331.477 44.9004 330 46.3779 330 48.2004C330 50.0229 331.477 51.5004 333.3 51.5004Z" fill="#145B2C"/>
<path d="M4.00006 78.0996V176.6L21.1001 193.1V205.1" stroke="#145B2C" stroke-width="0.75" stroke-miterlimit="10"/>
<path d="M17.1 135.6L31.2 147.8V185.7" stroke="#145B2C" stroke-width="0.75" stroke-miterlimit="10"/>
<path d="M21.1 33V91.8L55.5 126.3V153.1" stroke="#145B2C" stroke-width="0.75" stroke-miterlimit="10"/>
<path d="M47.0001 170.199V205.099" stroke="#145B2C" stroke-width="0.75" stroke-miterlimit="10"/>
<path d="M38.3 75.6992L69.4 106.799V192.399L61.8 205.099" stroke="#145B2C" stroke-width="0.75" stroke-miterlimit="10"/>
<path d="M80.5001 58.1992V91.0992" stroke="#145B2C" stroke-width="0.75" stroke-miterlimit="10"/>
<path d="M86.9 204V148.6L108.2 127.3V66.0996" stroke="#145B2C" stroke-width="0.75" stroke-miterlimit="10"/>
<path d="M111.6 179.699V147.199L131.3 127.699V205.099" stroke="#145B2C" stroke-width="0.75" stroke-miterlimit="10"/>
<path d="M125.4 41.1992V92.9992L146.5 114.099V173.799" stroke="#145B2C" stroke-width="0.75" stroke-miterlimit="10"/>
<path d="M157 205.099V166.399" stroke="#145B2C" stroke-width="0.75" stroke-miterlimit="10"/>
<path d="M175.4 153.099V101.799L192.8 84.2992V24.6992" stroke="#145B2C" stroke-width="0.75" stroke-miterlimit="10"/>
<path d="M146.5 22.5V44.9L164.4 65.1V105.4" stroke="#145B2C" stroke-width="0.75" stroke-miterlimit="10"/>
<path d="M179 185.699L196.9 197.999V205.099" stroke="#145B2C" stroke-width="0.75" stroke-miterlimit="10"/>
<path d="M213 205.1V134" stroke="#145B2C" stroke-width="0.75" stroke-miterlimit="10"/>
<path d="M192.8 160.6V114.6L215.7 92.9996V74.5996" stroke="#145B2C" stroke-width="0.75" stroke-miterlimit="10"/>
<path d="M241.4 46.2998V81.5998" stroke="#145B2C" stroke-width="0.75" stroke-miterlimit="10"/>
<path d="M231.3 205.099L246.9 191.199V133.999L259.3 110.499V24.6992" stroke="#145B2C" stroke-width="0.75" stroke-miterlimit="10"/>
<path d="M265.2 205.1L276.7 192.1V155" stroke="#145B2C" stroke-width="0.75" stroke-miterlimit="10"/>
<path d="M4 82.3002C5.82254 82.3002 7.29999 80.8227 7.29999 79.0002C7.29999 77.1776 5.82254 75.7002 4 75.7002C2.17746 75.7002 0.700012 77.1776 0.700012 79.0002C0.700012 80.8227 2.17746 82.3002 4 82.3002Z" fill="white" stroke="#145B2C" stroke-miterlimit="10"/>
<path d="M21.1 36.3002C22.9226 36.3002 24.4 34.8227 24.4 33.0002C24.4 31.1776 22.9226 29.7002 21.1 29.7002C19.2775 29.7002 17.8 31.1776 17.8 33.0002C17.8 34.8227 19.2775 36.3002 21.1 36.3002Z" fill="white" stroke="#145B2C" stroke-miterlimit="10"/>
<path d="M55.5 156.4C57.3225 156.4 58.8 154.922 58.8 153.1C58.8 151.277 57.3225 149.8 55.5 149.8C53.6775 149.8 52.2 151.277 52.2 153.1C52.2 154.922 53.6775 156.4 55.5 156.4Z" fill="white" stroke="#145B2C" stroke-miterlimit="10"/>
<path d="M47 173.5C48.8225 173.5 50.3 172.023 50.3 170.2C50.3 168.378 48.8225 166.9 47 166.9C45.1775 166.9 43.7 168.378 43.7 170.2C43.7 172.023 45.1775 173.5 47 173.5Z" fill="white" stroke="#145B2C" stroke-miterlimit="10"/>
<path d="M80.5 61.5004C82.3225 61.5004 83.8 60.0229 83.8 58.2004C83.8 56.3779 82.3225 54.9004 80.5 54.9004C78.6775 54.9004 77.2 56.3779 77.2 58.2004C77.2 60.0229 78.6775 61.5004 80.5 61.5004Z" fill="white" stroke="#145B2C" stroke-miterlimit="10"/>
<path d="M108.4 69.3998C110.223 69.3998 111.7 67.9223 111.7 66.0998C111.7 64.2773 110.223 62.7998 108.4 62.7998C106.577 62.7998 105.1 64.2773 105.1 66.0998C105.1 67.9223 106.577 69.3998 108.4 69.3998Z" fill="white" stroke="#145B2C" stroke-miterlimit="10"/>
<path d="M146.5 177.1C148.323 177.1 149.8 175.623 149.8 173.8C149.8 171.977 148.323 170.5 146.5 170.5C144.677 170.5 143.2 171.977 143.2 173.8C143.2 175.623 144.677 177.1 146.5 177.1Z" fill="white" stroke="#145B2C" stroke-miterlimit="10"/>
<path d="M157 170.5C158.823 170.5 160.3 169.023 160.3 167.2C160.3 165.378 158.823 163.9 157 163.9C155.177 163.9 153.7 165.378 153.7 167.2C153.7 169.023 155.177 170.5 157 170.5Z" fill="white" stroke="#145B2C" stroke-miterlimit="10"/>
<path d="M192.8 29.3998C194.623 29.3998 196.1 27.9223 196.1 26.0998C196.1 24.2773 194.623 22.7998 192.8 22.7998C190.978 22.7998 189.5 24.2773 189.5 26.0998C189.5 27.9223 190.978 29.3998 192.8 29.3998Z" fill="white" stroke="#145B2C" stroke-miterlimit="10"/>
<path d="M175.4 156.4C177.223 156.4 178.7 154.922 178.7 153.1C178.7 151.277 177.223 149.8 175.4 149.8C173.577 149.8 172.1 151.277 172.1 153.1C172.1 154.922 173.577 156.4 175.4 156.4Z" fill="white" stroke="#145B2C" stroke-miterlimit="10"/>
<path d="M213 137.3C214.823 137.3 216.3 135.823 216.3 134C216.3 132.178 214.823 130.7 213 130.7C211.177 130.7 209.7 132.178 209.7 134C209.7 135.823 211.177 137.3 213 137.3Z" fill="white" stroke="#145B2C" stroke-miterlimit="10"/>
<path d="M17.1 138.9C18.9226 138.9 20.4 137.422 20.4 135.6C20.4 133.777 18.9226 132.3 17.1 132.3C15.2775 132.3 13.8 133.777 13.8 135.6C13.8 137.422 15.2775 138.9 17.1 138.9Z" fill="#145B2C"/>
<path d="M38.3 79.0004C40.1226 79.0004 41.6001 77.5229 41.6001 75.7004C41.6001 73.8779 40.1226 72.4004 38.3 72.4004C36.4775 72.4004 35.0001 73.8779 35.0001 75.7004C35.0001 77.5229 36.4775 79.0004 38.3 79.0004Z" fill="#145B2C"/>
<path d="M80.5 94.3998C82.3225 94.3998 83.8 92.9223 83.8 91.0998C83.8 89.2773 82.3225 87.7998 80.5 87.7998C78.6775 87.7998 77.2 89.2773 77.2 91.0998C77.2 92.9223 78.6775 94.3998 80.5 94.3998Z" fill="#145B2C"/>
<path d="M111.6 183.3C113.423 183.3 114.9 181.823 114.9 180C114.9 178.178 113.423 176.7 111.6 176.7C109.777 176.7 108.3 178.178 108.3 180C108.3 181.823 109.777 183.3 111.6 183.3Z" fill="#145B2C"/>
<path d="M125.4 44.5004C127.223 44.5004 128.7 43.0229 128.7 41.2004C128.7 39.3779 127.223 37.9004 125.4 37.9004C123.577 37.9004 122.1 39.3779 122.1 41.2004C122.1 43.0229 123.577 44.5004 125.4 44.5004Z" fill="#145B2C"/>
<path d="M146.5 25.8002C148.323 25.8002 149.8 24.3227 149.8 22.5002C149.8 20.6776 148.323 19.2002 146.5 19.2002C144.677 19.2002 143.2 20.6776 143.2 22.5002C143.2 24.3227 144.677 25.8002 146.5 25.8002Z" fill="#145B2C"/>
<path d="M164.4 108.7C166.223 108.7 167.7 107.222 167.7 105.4C167.7 103.577 166.223 102.1 164.4 102.1C162.577 102.1 161.1 103.577 161.1 105.4C161.1 107.222 162.577 108.7 164.4 108.7Z" fill="#145B2C"/>
<path d="M215.7 79.0004C217.522 79.0004 219 77.5229 219 75.7004C219 73.8779 217.522 72.4004 215.7 72.4004C213.877 72.4004 212.4 73.8779 212.4 75.7004C212.4 77.5229 213.877 79.0004 215.7 79.0004Z" fill="#145B2C"/>
<path d="M192.8 163.9C194.623 163.9 196.1 162.422 196.1 160.6C196.1 158.777 194.623 157.3 192.8 157.3C190.978 157.3 189.5 158.777 189.5 160.6C189.5 162.422 190.978 163.9 192.8 163.9Z" fill="#145B2C"/>
<path d="M241.4 49.6C243.223 49.6 244.7 48.1226 244.7 46.3C244.7 44.4775 243.223 43 241.4 43C239.577 43 238.1 44.4775 238.1 46.3C238.1 48.1226 239.577 49.6 241.4 49.6Z" fill="#145B2C"/>
<path d="M241.4 84.8998C243.223 84.8998 244.7 83.4223 244.7 81.5998C244.7 79.7773 243.223 78.2998 241.4 78.2998C239.577 78.2998 238.1 79.7773 238.1 81.5998C238.1 83.4223 239.577 84.8998 241.4 84.8998Z" fill="#145B2C"/>
<path d="M259.3 29.0004C261.123 29.0004 262.6 27.5229 262.6 25.7004C262.6 23.8779 261.123 22.4004 259.3 22.4004C257.478 22.4004 256 23.8779 256 25.7004C256 27.5229 257.478 29.0004 259.3 29.0004Z" fill="#145B2C"/>
<path d="M276.7 158.3C278.522 158.3 280 156.823 280 155C280 153.178 278.522 151.7 276.7 151.7C274.877 151.7 273.4 153.178 273.4 155C273.4 156.823 274.877 158.3 276.7 158.3Z" fill="#145B2C"/>
<path d="M179 189.1C180.823 189.1 182.3 187.623 182.3 185.8C182.3 183.977 180.823 182.5 179 182.5C177.177 182.5 175.7 183.977 175.7 185.8C175.7 187.623 177.177 189.1 179 189.1Z" fill="#145B2C"/>
<path d="M31.2 189C33.0225 189 34.4999 187.523 34.4999 185.7C34.4999 183.878 33.0225 182.4 31.2 182.4C29.3774 182.4 27.9 183.878 27.9 185.7C27.9 187.523 29.3774 189 31.2 189Z" fill="#145B2C"/>
<path d="M1198.4 205.099V141.299L1230.3 110.699V77.8994" stroke="#145B2C" stroke-width="0.75" stroke-miterlimit="10"/>
<path d="M1182.4 160.299L1164.3 141.499L1214.3 92.1992V48.1992" stroke="#145B2C" stroke-width="0.75" stroke-miterlimit="10"/>
<path d="M1169.5 120.199L1184.6 104.199V92.5994L1200.1 77.8994" stroke="#145B2C" stroke-width="0.75" stroke-miterlimit="10"/>
<path d="M1164.3 55.8994V96.8994" stroke="#145B2C" stroke-width="0.75" stroke-miterlimit="10"/>
<path d="M1214.3 160.3V141.5L1230.3 150.9V176.7L1214.3 193.5V205.1" stroke="#145B2C" stroke-width="0.75" stroke-miterlimit="10"/>
<path d="M1230.3 19.2998V42.9998L1248 60.6998V115" stroke="#145B2C" stroke-width="0.75" stroke-miterlimit="10"/>
<path d="M1248 171.5V205.1" stroke="#145B2C" stroke-width="0.75" stroke-miterlimit="10"/>
<path d="M1282.9 204.6L1272.1 195.5V171.8" stroke="#145B2C" stroke-width="0.75" stroke-miterlimit="10"/>
<path d="M1259.6 149.999V96.8994L1277.5 80.0994V21.3994" stroke="#145B2C" stroke-width="0.75" stroke-miterlimit="10"/>
<path d="M1310.1 101.2L1298.9 90L1276 115V147.8" stroke="#145B2C" stroke-width="0.75" stroke-miterlimit="10"/>
<path d="M1295 131.399V183.199L1307.5 193.499" stroke="#145B2C" stroke-width="0.75" stroke-miterlimit="10"/>
<path d="M1315.3 205.099L1332.9 186.199V143.099L1344.2 131.799V24.3994" stroke="#145B2C" stroke-width="0.75" stroke-miterlimit="10"/>
<path d="M1325.6 41.6992V67.0992" stroke="#145B2C" stroke-width="0.75" stroke-miterlimit="10"/>
<path d="M1365.7 205.099L1356.7 186.199V54.3994" stroke="#145B2C" stroke-width="0.75" stroke-miterlimit="10"/>
<path d="M1383 173.3V205.1" stroke="#145B2C" stroke-width="0.75" stroke-miterlimit="10"/>
<path d="M1417 205.1L1402.8 190.9V145.2H1383V3.2998" stroke="#145B2C" stroke-width="0.75" stroke-miterlimit="10"/>
<path d="M1413.6 67.0996L1400 83.4996V115" stroke="#145B2C" stroke-width="0.75" stroke-miterlimit="10"/>
<path d="M1420.1 104.199V193.499L1434.7 205.099" stroke="#145B2C" stroke-width="0.75" stroke-miterlimit="10"/>
<path d="M1164.3 100.2C1166.12 100.2 1167.6 98.7221 1167.6 96.8996C1167.6 95.0771 1166.12 93.5996 1164.3 93.5996C1162.48 93.5996 1161 95.0771 1161 96.8996C1161 98.7221 1162.48 100.2 1164.3 100.2Z" fill="white" stroke="#145B2C" stroke-miterlimit="10"/>
<path d="M1169.5 123.5C1171.32 123.5 1172.8 122.023 1172.8 120.2C1172.8 118.378 1171.32 116.9 1169.5 116.9C1167.68 116.9 1166.2 118.378 1166.2 120.2C1166.2 122.023 1167.68 123.5 1169.5 123.5Z" fill="white" stroke="#145B2C" stroke-miterlimit="10"/>
<path d="M1200.1 81.1996C1201.92 81.1996 1203.4 79.7221 1203.4 77.8996C1203.4 76.0771 1201.92 74.5996 1200.1 74.5996C1198.28 74.5996 1196.8 76.0771 1196.8 77.8996C1196.8 79.7221 1198.28 81.1996 1200.1 81.1996Z" fill="white" stroke="#145B2C" stroke-miterlimit="10"/>
<path d="M1230.3 22.6C1232.12 22.6 1233.6 21.1226 1233.6 19.3C1233.6 17.4775 1232.12 16 1230.3 16C1228.48 16 1227 17.4775 1227 19.3C1227 21.1226 1228.48 22.6 1230.3 22.6Z" fill="white" stroke="#145B2C" stroke-miterlimit="10"/>
<path d="M1248 118.1C1249.82 118.1 1251.3 116.623 1251.3 114.8C1251.3 112.977 1249.82 111.5 1248 111.5C1246.18 111.5 1244.7 112.977 1244.7 114.8C1244.7 116.623 1246.18 118.1 1248 118.1Z" fill="white" stroke="#145B2C" stroke-miterlimit="10"/>
<path d="M1248 174.8C1249.82 174.8 1251.3 173.323 1251.3 171.5C1251.3 169.678 1249.82 168.2 1248 168.2C1246.18 168.2 1244.7 169.678 1244.7 171.5C1244.7 173.323 1246.18 174.8 1248 174.8Z" fill="white" stroke="#145B2C" stroke-miterlimit="10"/>
<path d="M1277.5 25.8002C1279.32 25.8002 1280.8 24.3227 1280.8 22.5002C1280.8 20.6776 1279.32 19.2002 1277.5 19.2002C1275.68 19.2002 1274.2 20.6776 1274.2 22.5002C1274.2 24.3227 1275.68 25.8002 1277.5 25.8002Z" fill="white" stroke="#145B2C" stroke-miterlimit="10"/>
<path d="M1276 151.1C1277.82 151.1 1279.3 149.623 1279.3 147.8C1279.3 145.977 1277.82 144.5 1276 144.5C1274.18 144.5 1272.7 145.977 1272.7 147.8C1272.7 149.623 1274.18 151.1 1276 151.1Z" fill="white" stroke="#145B2C" stroke-miterlimit="10"/>
<path d="M1306.8 196.8C1308.62 196.8 1310.1 195.323 1310.1 193.5C1310.1 191.678 1308.62 190.2 1306.8 190.2C1304.98 190.2 1303.5 191.678 1303.5 193.5C1303.5 195.323 1304.98 196.8 1306.8 196.8Z" fill="white" stroke="#145B2C" stroke-miterlimit="10"/>
<path d="M1344.2 29.1C1346.02 29.1 1347.5 27.6226 1347.5 25.8C1347.5 23.9775 1346.02 22.5 1344.2 22.5C1342.38 22.5 1340.9 23.9775 1340.9 25.8C1340.9 27.6226 1342.38 29.1 1344.2 29.1Z" fill="white" stroke="#145B2C" stroke-miterlimit="10"/>
<path d="M1383 176.8C1384.82 176.8 1386.3 175.323 1386.3 173.5C1386.3 171.678 1384.82 170.2 1383 170.2C1381.18 170.2 1379.7 171.678 1379.7 173.5C1379.7 175.323 1381.18 176.8 1383 176.8Z" fill="white" stroke="#145B2C" stroke-miterlimit="10"/>
<path d="M1413.6 70.3998C1415.42 70.3998 1416.9 68.9223 1416.9 67.0998C1416.9 65.2773 1415.42 63.7998 1413.6 63.7998C1411.78 63.7998 1410.3 65.2773 1410.3 67.0998C1410.3 68.9223 1411.78 70.3998 1413.6 70.3998Z" fill="white" stroke="#145B2C" stroke-miterlimit="10"/>
<path d="M1420.1 107.5C1421.92 107.5 1423.4 106.023 1423.4 104.2C1423.4 102.378 1421.92 100.9 1420.1 100.9C1418.28 100.9 1416.8 102.378 1416.8 104.2C1416.8 106.023 1418.28 107.5 1420.1 107.5Z" fill="white" stroke="#145B2C" stroke-miterlimit="10"/>
<path d="M1164.3 59.1996C1166.12 59.1996 1167.6 57.7221 1167.6 55.8996C1167.6 54.0771 1166.12 52.5996 1164.3 52.5996C1162.48 52.5996 1161 54.0771 1161 55.8996C1161 57.7221 1162.48 59.1996 1164.3 59.1996Z" fill="#145B2C"/>
<path d="M1182.4 163.6C1184.22 163.6 1185.7 162.123 1185.7 160.3C1185.7 158.477 1184.22 157 1182.4 157C1180.58 157 1179.1 158.477 1179.1 160.3C1179.1 162.123 1180.58 163.6 1182.4 163.6Z" fill="#145B2C"/>
<path d="M1230.3 83.0004C1232.12 83.0004 1233.6 81.5229 1233.6 79.7004C1233.6 77.8779 1232.12 76.4004 1230.3 76.4004C1228.48 76.4004 1227 77.8779 1227 79.7004C1227 81.5229 1228.48 83.0004 1230.3 83.0004Z" fill="#145B2C"/>
<path d="M1214.3 163.6C1216.12 163.6 1217.6 162.123 1217.6 160.3C1217.6 158.477 1216.12 157 1214.3 157C1212.48 157 1211 158.477 1211 160.3C1211 162.123 1212.48 163.6 1214.3 163.6Z" fill="#145B2C"/>
<path d="M1272.1 175.1C1273.92 175.1 1275.4 173.623 1275.4 171.8C1275.4 169.977 1273.92 168.5 1272.1 168.5C1270.28 168.5 1268.8 169.977 1268.8 171.8C1268.8 173.623 1270.28 175.1 1272.1 175.1Z" fill="#145B2C"/>
<path d="M1259.6 153.3C1261.42 153.3 1262.9 151.823 1262.9 150C1262.9 148.178 1261.42 146.7 1259.6 146.7C1257.78 146.7 1256.3 148.178 1256.3 150C1256.3 151.823 1257.78 153.3 1259.6 153.3Z" fill="#145B2C"/>
<path d="M1310.1 104.3C1311.92 104.3 1313.4 102.823 1313.4 101C1313.4 99.1776 1311.92 97.7002 1310.1 97.7002C1308.28 97.7002 1306.8 99.1776 1306.8 101C1306.8 102.823 1308.28 104.3 1310.1 104.3Z" fill="#145B2C"/>
<path d="M1295 136.3C1296.82 136.3 1298.3 134.823 1298.3 133C1298.3 131.178 1296.82 129.7 1295 129.7C1293.18 129.7 1291.7 131.178 1291.7 133C1291.7 134.823 1293.18 136.3 1295 136.3Z" fill="#145B2C"/>
<path d="M1325.6 45.0004C1327.42 45.0004 1328.9 43.5229 1328.9 41.7004C1328.9 39.8779 1327.42 38.4004 1325.6 38.4004C1323.78 38.4004 1322.3 39.8779 1322.3 41.7004C1322.3 43.5229 1323.78 45.0004 1325.6 45.0004Z" fill="#145B2C"/>
<path d="M1325.6 69.6996C1327.42 69.6996 1328.9 68.2221 1328.9 66.3996C1328.9 64.5771 1327.42 63.0996 1325.6 63.0996C1323.78 63.0996 1322.3 64.5771 1322.3 66.3996C1322.3 68.2221 1323.78 69.6996 1325.6 69.6996Z" fill="#145B2C"/>
<path d="M1356.7 58.8002C1358.52 58.8002 1360 57.3227 1360 55.5002C1360 53.6776 1358.52 52.2002 1356.7 52.2002C1354.88 52.2002 1353.4 53.6776 1353.4 55.5002C1353.4 57.3227 1354.88 58.8002 1356.7 58.8002Z" fill="#145B2C"/>
<path d="M1383 6.60001C1384.82 6.60001 1386.3 5.12254 1386.3 3.3C1386.3 1.47746 1384.82 0 1383 0C1381.18 0 1379.7 1.47746 1379.7 3.3C1379.7 5.12254 1381.18 6.60001 1383 6.60001Z" fill="#145B2C"/>
<path d="M1400 118.1C1401.82 118.1 1403.3 116.623 1403.3 114.8C1403.3 112.977 1401.82 111.5 1400 111.5C1398.18 111.5 1396.7 112.977 1396.7 114.8C1396.7 116.623 1398.18 118.1 1400 118.1Z" fill="#145B2C"/>
<path d="M1433 58.8002C1434.82 58.8002 1436.3 57.3227 1436.3 55.5002C1436.3 53.6776 1434.82 52.2002 1433 52.2002C1431.18 52.2002 1429.7 53.6776 1429.7 55.5002C1429.7 57.3227 1431.18 58.8002 1433 58.8002Z" fill="#145B2C"/>
<path d="M1214.3 51.5004C1216.12 51.5004 1217.6 50.0229 1217.6 48.2004C1217.6 46.3779 1216.12 44.9004 1214.3 44.9004C1212.48 44.9004 1211 46.3779 1211 48.2004C1211 50.0229 1212.48 51.5004 1214.3 51.5004Z" fill="#145B2C"/>
</svg>
