<svg width="133" height="155" viewBox="0 0 133 155" fill="none" xmlns="http://www.w3.org/2000/svg">
<path d="M35.7558 33.3582C35.9317 33.6224 37.5148 36.0002 37.5148 38.6422C37.5148 38.6422 34.3487 38.9945 32.5018 35.2076C32.6777 35.736 35.6679 44.1903 29.0718 55.0225C29.0718 55.0225 26.4333 60.8348 28.1043 70.7862C28.1043 70.7862 26.0815 65.9426 25.9936 63.9171C25.9056 61.8916 24.3226 82.6751 33.6451 86.6381C33.6451 86.6381 30.2151 86.462 25.4659 82.6751C25.4659 82.6751 25.9936 93.6834 30.303 101.433C28.9838 99.5838 27.6646 97.3821 26.961 95.3566C26.7851 94.8282 26.6972 94.476 26.6092 94.2998C26.6972 94.6521 26.7851 95.0044 26.961 95.3566C27.9284 98.3509 30.1271 106.717 30.7428 116.845C30.9187 119.839 30.9187 123.009 30.7428 126.268C30.7428 126.268 26.0815 124.683 23.8828 120.455C23.8828 120.455 24.5864 128.205 23.4431 131.023C23.4431 131.023 17.9903 115.7 11.8339 107.246C11.8339 107.246 10.3388 109.711 9.54725 112.265C9.54725 112.265 6.82085 99.4077 1.71985 92.2743C1.71985 92.2743 -1.44629 80.3854 5.50163 72.1072L9.89904 60.5706C9.89904 60.5706 8.84366 43.2216 18.1662 30.8043C18.1662 30.8043 29.5995 9.2282 45.6061 6.05782C45.6061 6.05782 54.4009 2.18293 58.4465 2.27099C58.4465 2.27099 71.1111 -2.1323 81.7528 6.05782C81.7528 6.05782 112.623 15.7451 115.965 30.1879C115.965 30.1879 122.825 40.7558 123.352 54.406C123.352 54.406 132.147 59.4258 130.828 76.8628C130.828 76.8628 133.554 92.2743 131.971 98.7912C131.971 98.7912 125.199 109.447 126.518 114.203L123.176 107.069C123.176 107.069 122.825 114.555 120.01 119.046C120.01 119.046 120.45 114.291 119.219 112.441C119.219 112.441 116.844 123.185 107.17 126.092C107.17 126.092 108.753 117.021 107.17 113.41L106.202 118.43C106.202 118.43 105.587 117.461 104.883 115.876C103.3 112.265 100.838 105.484 102.772 99.4077C102.772 99.4077 108.401 88.6636 107.434 83.9081L104.795 89.0159C104.795 89.0159 102.157 83.2035 106.466 71.3146C106.466 71.3146 109.105 56.1673 104.004 50.6192C104.004 50.6192 102.597 53.2611 102.509 54.4941C102.509 53.085 102.509 45.071 100.75 43.662L99.7822 46.6562C99.7822 46.6562 99.1666 39.8751 98.1112 39.4348C98.1112 39.4348 95.3848 40.9319 95.3848 42.1648C95.3848 41.02 95.3848 35.736 94.5933 35.4718C93.6258 35.2076 89.4923 40.8438 89.4923 40.8438C89.4923 40.8438 90.1079 34.415 89.0525 34.0628C89.0525 34.0628 86.1502 38.0257 81.6649 40.3155C81.6649 40.3155 81.6649 35.2957 78.8505 33.0941C78.8505 33.0941 77.4433 37.1451 74.9808 39.1706C74.9808 39.1706 74.1013 35.1196 73.4857 34.5031C73.4857 34.5031 72.0785 39.2587 71.0231 39.9632C71.0231 39.9632 64.8667 33.094 62.0524 33.4463C62.0524 33.4463 65.8342 36.4406 65.4824 38.6422L52.3781 30.8924C52.3781 30.8924 56.4237 36.969 56.3357 38.9945C56.2478 40.7558 39.4497 38.378 35.7558 33.3582Z" fill="#145B2C"/>
<path d="M33.6451 105.659C33.4692 105.483 31.9741 103.722 30.391 101.344C25.9936 93.6825 25.5539 82.5862 25.5539 82.5862C30.3031 86.373 33.7331 86.5491 33.7331 86.5491C24.4106 82.5862 25.9936 61.8026 26.0816 63.8281C26.1695 65.8537 28.1923 70.6973 28.1923 70.6973C26.5213 60.7458 29.1598 54.9335 29.1598 54.9335C35.7559 44.1014 32.7656 35.6471 32.5897 35.1187C34.5246 38.9055 37.6028 38.5532 37.6028 38.5532C37.6028 35.8232 36.0197 33.5335 35.8438 33.2693C39.5377 38.289 56.3358 40.6668 56.4237 38.5532C56.5117 36.4397 52.4661 30.4512 52.4661 30.4512L65.5704 38.201C65.8342 35.9993 62.1404 33.0051 62.1404 33.0051C65.0427 32.7409 71.1111 39.522 71.1111 39.522C72.1665 38.8174 73.5737 34.0619 73.5737 34.0619C74.1893 34.6783 75.0688 38.7294 75.0688 38.7294C77.5313 36.7919 78.9385 32.6528 78.9385 32.6528C81.7529 34.8545 81.7529 39.8742 81.7529 39.8742C86.3262 37.5845 89.1405 33.6215 89.1405 33.6215C90.1079 33.8857 89.5803 40.4026 89.5803 40.4026C89.5803 40.4026 93.7138 34.7664 94.6813 35.0306C95.4728 35.2948 95.4728 40.5787 95.4728 41.7236C95.4728 41.7236 95.4728 41.7236 95.4728 41.8117C95.4728 42.0759 95.4728 41.9878 95.4728 41.7236C95.5607 40.4907 98.1992 38.9936 98.1992 38.9936C99.2546 39.522 99.8702 46.215 99.8702 46.215L100.838 43.2207C102.597 44.7178 102.685 52.6438 102.597 54.0528C102.685 52.908 104.092 50.1779 104.092 50.1779C109.281 55.7261 106.554 70.8734 106.554 70.8734C102.245 82.7623 104.883 88.5747 104.883 88.5747L107.522 83.4668C108.489 88.2224 102.86 98.9664 102.86 98.9664C100.926 105.043 103.3 111.824 104.971 115.435L95.7366 122.04C69.7039 137.363 45.2543 125.827 35.492 119.662C35.492 119.574 35.492 119.574 35.492 119.486L31.0946 116.58H31.0067C30.391 106.452 28.1923 98.0858 27.2249 95.0915C28.0164 97.117 29.3357 99.3187 30.5669 101.168C31.2705 103.017 32.3259 104.427 33.6451 105.659ZM82.8962 101.432C72.6942 91.745 67.3293 95.7961 67.3293 95.7961C60.9091 91.9212 50.3553 100.816 50.5312 101.08L50.6192 101.256C61.085 98.35 76.8278 100.464 82.8962 101.432ZM88.8767 66.7343C96.2643 65.7656 101.805 61.8907 101.365 58.1039C100.838 54.317 94.5054 51.9392 87.1177 52.908C79.73 53.8767 74.1893 57.7516 74.629 61.5384C75.1567 65.3253 81.489 67.703 88.8767 66.7343ZM87.0298 50.7063C93.0982 48.1524 100.838 49.6495 100.838 49.6495C96.6161 45.1582 92.5705 44.4536 92.5705 44.4536C89.8441 47.0956 75.1567 50.6183 75.1567 50.6183C82.2805 51.1467 87.0298 50.7063 87.0298 50.7063ZM59.5019 50.8825C59.5019 50.8825 53.0817 51.4109 43.2315 46.1269C43.2315 46.1269 36.8992 43.573 33.4692 48.5047C33.4692 48.5047 40.0654 48.5047 42.8797 50.1779C42.8797 50.266 54.7527 55.2858 59.5019 50.8825ZM57.655 62.243C58.0948 58.4561 52.4661 54.5812 45.0784 53.7006C37.6908 52.8199 31.3585 55.1977 30.9187 58.9845C30.479 62.7713 36.1077 66.6463 43.4953 67.5269C50.883 68.4076 57.2153 66.0298 57.655 62.243Z" fill="#68FFBB"/>
<path d="M101.365 58.1044C101.893 61.8912 96.2643 65.7661 88.8767 66.7348C81.489 67.7036 75.1567 65.3258 74.629 61.5389C74.1014 57.7521 79.73 53.8772 87.1177 52.9085C94.5054 51.9398 100.838 54.3175 101.365 58.1044Z" fill="white"/>
<path d="M97.8473 153.92L35.404 153.04C35.404 153.04 41.4724 144.761 35.404 119.927C45.1663 126.003 69.6159 137.628 95.6486 122.305L94.945 122.833C92.2186 143.793 97.8473 153.92 97.8473 153.92Z" fill="#68FFBB"/>
<path d="M100.838 49.738C100.838 49.738 93.0981 48.1528 87.0297 50.7948C87.0297 50.7948 82.2804 51.147 75.1566 50.7948C75.1566 50.7948 89.844 47.1841 92.5704 44.6302C92.5704 44.5421 96.5281 45.1585 100.838 49.738Z" fill="#145B2C"/>
<path d="M67.3293 95.8843C67.3293 95.8843 72.6942 91.7452 82.8962 101.521C76.7398 100.464 61.085 98.3502 50.6191 101.344L50.5312 101.168C50.4432 100.904 60.9091 92.0094 67.3293 95.8843Z" fill="#68FFBB"/>
<path d="M43.1435 46.2158C52.9937 51.4116 59.4139 50.9713 59.4139 50.9713C54.7526 55.3746 42.7917 50.2668 42.7917 50.2668C39.9773 48.5055 33.3812 48.5935 33.3812 48.5935C36.8991 43.6619 43.1435 46.2158 43.1435 46.2158Z" fill="#145B2C"/>
<path d="M45.0784 53.7007C52.466 54.5814 58.0947 58.3682 57.655 62.2431C57.2152 66.0299 50.883 68.4958 43.4953 67.6151C36.1077 66.7344 30.479 62.9476 30.9187 59.0727C31.3584 55.1978 37.6907 52.82 45.0784 53.7007Z" fill="white"/>
<path d="M35.7559 33.3579C35.9318 33.6221 37.5149 35.9999 37.5149 38.6419C37.5149 38.6419 34.3487 38.9941 32.5018 35.2073" stroke="#145B2C" stroke-miterlimit="10"/>
<path d="M95.2969 41.8999C95.2969 40.755 95.2969 35.4711 94.5053 35.2069C93.5379 34.9427 89.4043 40.5789 89.4043 40.5789C89.4043 40.5789 90.02 34.1501 88.9646 33.7978C88.9646 33.7978 86.0623 37.7608 81.5769 40.0505C81.5769 40.0505 81.5769 35.0307 78.7626 32.8291C78.7626 32.8291 77.3554 36.8801 74.8929 38.9056C74.8929 38.9056 74.0134 34.8546 73.3977 34.2381C73.3977 34.2381 71.9906 38.9937 70.9352 39.6982C70.9352 39.6982 64.7788 32.8291 61.9645 33.1813C61.9645 33.1813 65.7462 36.1756 65.3944 38.3772L52.2901 30.6274C52.2901 30.6274 56.3358 36.704 56.2478 38.7295C56.1599 40.8431 39.3617 38.4653 35.6679 33.4455" stroke="#145B2C" stroke-miterlimit="10"/>
<path d="M95.2969 41.9004C95.2969 42.1646 95.2969 42.0765 95.2969 41.9004V41.9004Z" stroke="#145B2C" stroke-miterlimit="10"/>
<path d="M102.597 54.4937C102.597 54.4056 102.597 54.3176 102.597 54.3176C102.597 52.9085 102.597 44.8945 100.838 43.4855L99.8701 46.4797C99.8701 46.4797 99.2545 39.6986 98.1991 39.2583C98.1991 39.2583 95.4727 40.7554 95.4727 41.9883" stroke="#145B2C" stroke-miterlimit="10"/>
<path d="M26.6092 94.0348C26.6092 94.0348 26.6092 94.1229 26.6092 94.0348C26.6092 94.1229 26.6092 94.1229 26.6092 94.211C26.6972 94.3871 26.7851 94.7394 26.961 95.2677C27.9284 98.262 30.1271 106.628 30.7428 116.756C30.9187 119.75 30.9187 122.92 30.7428 126.179C30.7428 126.179 26.0815 124.594 23.8828 120.367C23.8828 120.367 24.5864 128.116 23.4431 130.934C23.4431 130.934 17.9903 115.611 11.8339 107.157C11.8339 107.157 10.3388 109.622 9.54725 112.176C9.54725 112.176 6.82085 99.3188 1.71985 92.1854C1.71985 92.1854 -1.44629 80.2965 5.50163 72.0184L9.89904 60.4817C9.89904 60.4817 8.84366 43.1328 18.1662 30.7155C18.1662 30.7155 29.5995 9.13933 45.6061 5.96896C45.6061 5.96896 54.4009 2.09406 58.4465 2.18212C58.4465 2.18212 71.1111 -2.22117 81.7528 5.96896C81.7528 5.96896 112.623 15.6562 115.965 30.099C115.965 30.099 122.825 40.6669 123.352 54.3171C123.352 54.3171 132.147 59.3369 130.828 76.7739C130.828 76.7739 133.554 92.1854 131.971 98.7023C131.971 98.7023 125.199 109.358 126.518 114.114L123.176 106.981C123.176 106.981 122.825 114.466 120.01 118.957C120.01 118.957 120.45 114.202 119.219 112.353C119.219 112.353 116.844 123.097 107.17 126.003C107.17 126.003 108.753 116.932 107.17 113.321L106.202 118.341C106.202 118.341 105.587 117.372 104.883 115.787C103.3 112.176 100.838 105.395 102.772 99.3188C102.772 99.3188 108.401 88.5747 107.434 83.8192L104.795 88.927C104.795 88.927 102.157 83.1147 106.466 71.2258C106.466 71.2258 109.105 56.0784 104.004 50.5303C104.004 50.5303 102.597 53.1723 102.509 54.4052" stroke="#145B2C" stroke-miterlimit="10"/>
<path d="M33.6451 105.66C33.4692 105.484 31.974 103.723 30.303 101.345C28.9838 99.4954 27.6646 97.2937 26.961 95.2682C26.7851 94.916 26.6971 94.5637 26.6092 94.2114" stroke="#145B2C" stroke-miterlimit="10"/>
<path d="M32.5017 35.207C32.6776 35.7354 35.6679 44.1897 29.0718 55.0219C29.0718 55.0219 26.4333 60.8342 28.1043 70.7856C28.1043 70.7856 26.0815 65.942 25.9936 63.9165C25.9056 61.891 24.3226 82.6745 33.6451 86.6375C33.6451 86.6375 30.2151 86.4614 25.4659 82.6745C25.4659 82.6745 25.9936 93.6828 30.303 101.433C31.1825 103.018 32.3258 104.515 33.5571 105.748" stroke="#145B2C" stroke-miterlimit="10"/>
<path d="M75.1566 50.7066C75.1566 50.7066 89.844 47.0959 92.5704 44.542C92.5704 44.542 96.616 45.1585 100.838 49.7379C100.838 49.7379 93.0981 48.1527 87.0297 50.7947C87.0297 50.7066 82.2804 51.1469 75.1566 50.7066Z" stroke="#145B2C" stroke-miterlimit="10"/>
<path d="M59.5019 50.8829C59.5019 50.8829 53.0817 51.4113 43.2315 46.1274C43.2315 46.1274 36.8992 43.5735 33.4692 48.5052C33.4692 48.5052 40.0653 48.5052 42.8797 50.1784C42.8797 50.2665 54.7527 55.2862 59.5019 50.8829Z" stroke="#145B2C" stroke-miterlimit="10"/>
<path d="M101.365 58.1044C101.893 61.8912 96.2643 65.7661 88.8767 66.7348C81.489 67.7036 75.1567 65.3258 74.629 61.5389C74.1014 57.7521 79.73 53.8772 87.1177 52.9085C94.5054 51.9398 100.838 54.3175 101.365 58.1044Z" stroke="#145B2C" stroke-miterlimit="10"/>
<path d="M57.655 62.2432C57.2152 66.03 50.883 68.4958 43.4953 67.6152C36.1077 66.7345 30.479 62.9477 30.9187 59.0728C31.3584 55.2859 37.6907 52.9082 45.0784 53.7888C52.466 54.5814 58.0947 58.3683 57.655 62.2432Z" stroke="#145B2C" stroke-miterlimit="10"/>
<path d="M58.3585 77.3906C58.3585 77.3906 55.2803 79.6803 58.3585 82.7626C58.3585 82.7626 58.6224 75.9816 64.427 82.7626" stroke="#145B2C" stroke-miterlimit="10"/>
<path d="M73.3977 82.4983C73.3977 82.4102 73.3977 82.4102 73.3977 82.3222C72.1664 77.0382 67.769 82.4983 67.769 82.4983" stroke="#145B2C" stroke-miterlimit="10"/>
<path d="M75.1567 77.8306C75.1567 77.8306 78.4108 81.6174 73.3098 82.41C72.8701 82.498 72.3424 82.5861 71.7267 82.5861" stroke="#145B2C" stroke-miterlimit="10"/>
<path d="M57.0394 104.25C57.0394 104.25 65.5704 108.39 77.6193 104.25" stroke="#145B2C" stroke-miterlimit="10"/>
<path d="M85.5346 101.961C85.5346 101.961 84.5672 101.785 82.9841 101.521C76.8277 100.464 61.1729 98.3504 50.7071 101.345C50.0914 101.521 49.4758 101.697 48.8601 101.961" stroke="#145B2C" stroke-miterlimit="10"/>
<path d="M50.6191 101.168C50.4432 100.904 60.997 92.0094 67.4172 95.8843C67.4172 95.8843 72.7821 91.7452 82.9841 101.521L83.072 101.609" stroke="#145B2C" stroke-miterlimit="10"/>
<path d="M104.971 115.699L95.6486 122.304L94.9451 122.833C92.1307 143.792 97.7594 153.92 97.7594 153.92L35.3161 153.039C35.3161 153.039 41.3845 144.761 35.3161 119.926C35.3161 119.838 35.3161 119.838 35.3161 119.75L30.9187 116.844" stroke="#145B2C" stroke-miterlimit="10"/>
<path d="M30.9187 116.756C31.2705 117.02 32.8536 118.253 35.4041 119.926C45.1663 126.003 69.616 137.628 95.6487 122.304C95.9125 122.128 96.0884 122.04 96.3522 121.864C99.1666 120.191 101.981 118.165 104.883 115.699" stroke="#145B2C" stroke-miterlimit="10"/>
</svg>
