<svg width="142" height="36" viewBox="0 0 142 36" fill="none" xmlns="http://www.w3.org/2000/svg">
<path d="M10.5371 2.00781L18.7549 25.2109L26.9287 2.00781L35.5859 2.00781L35.5859 34H28.9722V25.2549L29.6313 10.1597L20.9961 34H16.4697L7.85645 10.1816L8.51562 25.2549L8.51562 34H1.92383L1.92383 2.00781L10.5371 2.00781Z" stroke="#FF572B" stroke-width="2"/>
<path d="M67.6221 18.729C67.6221 21.8784 67.0654 24.6396 65.9521 27.0127C64.8389 29.3857 63.2422 31.2168 61.1621 32.5059C59.0967 33.7949 56.7236 34.4395 54.043 34.4395C51.3916 34.4395 49.0259 33.8022 46.9458 32.5278C44.8657 31.2534 43.2544 29.437 42.1118 27.0786C40.9692 24.7056 40.3906 21.981 40.376 18.9048V17.3228C40.376 14.1733 40.9399 11.4048 42.0679 9.01709C43.2104 6.61475 44.8145 4.77637 46.8799 3.50195C48.96 2.21289 51.333 1.56836 53.999 1.56836C56.665 1.56836 59.0308 2.21289 61.0962 3.50195C63.1763 4.77637 64.7803 6.61475 65.9082 9.01709C67.0508 11.4048 67.6221 14.166 67.6221 17.3008V18.729ZM60.9424 17.2788C60.9424 13.9243 60.3418 11.3755 59.1406 9.63232C57.9395 7.88916 56.2256 7.01758 53.999 7.01758C51.7871 7.01758 50.0806 7.88184 48.8794 9.61035C47.6782 11.3242 47.0703 13.8438 47.0557 17.1689V18.729C47.0557 21.9956 47.6562 24.5298 48.8574 26.3315C50.0586 28.1333 51.7871 29.0342 54.043 29.0342C56.2549 29.0342 57.9541 28.1699 59.1406 26.4414C60.3271 24.6982 60.9277 22.1641 60.9424 18.8389V17.2788Z" stroke="#FF572B" stroke-width="2"/>
<path d="M79.0039 28.7046L93.0005 28.7046V34H72.4121V2.00781L79.0039 2.00781V28.7046Z" stroke="#FF572B" stroke-width="2"/>
<path d="M103.394 28.7046H117.39V34L96.8018 34V2.00781L103.394 2.00781V28.7046Z" stroke="#FF572B" stroke-width="2"/>
<path d="M126.069 16.4219L132.727 2.00781L139.934 2.00781L129.431 22.3984V34H122.729V22.3984L112.227 2.00781L119.456 2.00781L126.069 16.4219Z" stroke="#FF572B" stroke-width="2"/>
</svg>
