<svg width="332" height="36" viewBox="0 0 332 36" fill="none" xmlns="http://www.w3.org/2000/svg">
<path d="M80.665 32.1178C83.1007 29.8603 84.2802 26.8072 84.2802 23.0796V1.00781L75.6665 1.00781L76 23.0796C75.9717 24.8804 75.191 26.2642 74.4916 26.988C73.8 27.7039 72.7041 28.144 71.0195 28.144C69.4324 28.144 68.3137 27.7228 67.5359 26.9931C66.8167 26.2913 66.3506 25.0794 66.3506 23.1235V1.00781L57.7588 1.00781L57.7587 23.3213L57.7588 23.334C57.8057 27.0184 59.0114 30.0202 61.4516 32.2164C63.8771 34.3994 67.1046 35.4395 71.0195 35.4395C74.9945 35.4395 78.2511 34.3689 80.665 32.1178ZM80.665 32.1178L80.664 32.1187L79.9843 31.3853L80.6665 32.1165L80.665 32.1178ZM76.6665 23.2993C76.6079 27.1958 74.7256 29.144 71.0195 29.144C69.247 29.144 67.8554 28.668 66.8447 27.7158C65.8486 26.749 65.3506 25.2183 65.3506 23.1235V2.00781L58.7588 2.00781L65.5 2L66 11.5M76.6665 23.2993V3.00781M76.6665 23.2993L75 27.5L71.0195 28.7046M76.6665 23.2993L75.5 27L71.0195 28.7046M66 11.5L65.3519 23.3103L66.8447 26.9931L71.0195 28.7046M66 11.5L66.3524 23.334L66.5 27L71.0195 28.7046M108.045 21.0581L111.806 17.6899C112.886 16.027 113.394 14.0027 113.394 11.6758C113.394 8.35358 112.273 5.66784 109.953 3.76194C107.66 1.87914 104.487 1.00781 100.573 1.00781L87.6855 1.00781V35H96.2773V23.2886H99.9174L105.916 35L114.603 35V33.444L108.045 21.0581ZM108.045 21.0581C109.645 20.1877 110.912 19.0714 111.804 17.692L108.045 21.0581ZM324.476 21.0581L328.235 17.692M324.476 21.0581C326.076 20.1877 327.343 19.0714 328.235 17.692M324.476 21.0581L331.033 33.444V35H322.347L316.348 23.2886H312.708V35H304.116V1.00781L317.003 1.00781C320.918 1.00781 324.091 1.87914 326.383 3.76194C328.703 5.66784 329.825 8.35358 329.825 11.6758C329.825 14.0037 329.316 16.0287 328.235 17.692M28.997 35L20.8437 35L9.57321 16.5118L9.57321 35H0.981415L0.981415 1.00781L9.13488 1.00781L20.4272 19.5388L20.4272 1.00781L28.997 1.00781L28.997 35ZM21.4272 23.1016L21.4272 2.00781L27.997 2.00781L27.997 34L21.4052 34L8.57321 12.9502L8.57321 34H1.98141L1.98141 2.00781L8.57321 2.00781L21.4272 23.1016ZM54.0019 21.1353H41.3457L41.3457 27.7046H56.1992V35H32.7539L32.7539 1.00781L56.1552 1.00781V8.34717L41.3457 8.34717V13.9717L54.0019 13.9717V21.1353ZM40.3457 14.9717L53.0019 14.9717V20.1353H40.3457L40.3457 28.7046H55.1992V34H33.7539L33.7539 2.00781L55.1552 2.00781V7.34717L40.3457 7.34717V14.9717ZM106.527 34L100.529 22.2886L95.2773 22.2886V34H88.6855V2.00781L100.573 2.00781C104.352 2.00781 107.267 2.8501 109.318 4.53467C111.369 6.21924 112.394 8.59961 112.394 11.6758C112.394 13.8584 111.918 15.6821 110.966 17.147C110.181 18.3616 109.051 19.3707 107.577 20.1743C107.292 20.3302 106.993 20.4783 106.681 20.6187L113.603 33.6924V34L106.527 34ZM103.793 9.34462L103.799 9.35066C104.433 9.9854 104.802 10.8936 104.802 12.2031C104.802 13.4609 104.426 14.339 103.76 14.9637C103.092 15.5762 102.084 15.9492 100.595 15.9492H96.2773V8.34717L100.573 8.34717C102.201 8.34717 103.203 8.74492 103.793 9.34462ZM100.595 16.9492C102.25 16.9492 103.532 16.5317 104.44 15.6968C105.348 14.8472 105.802 13.6826 105.802 12.2031C105.802 10.6943 105.37 9.50781 104.506 8.64355C103.656 7.7793 102.345 7.34717 100.573 7.34717L95.2773 7.34717V16.9492L100.595 16.9492ZM116.459 18.9048V17.3228C116.459 14.1733 117.023 11.4048 118.151 9.01709C119.293 6.61475 120.897 4.77637 122.963 3.50195C125.043 2.21289 127.416 1.56836 130.082 1.56836C132.748 1.56836 135.114 2.21289 137.179 3.50195C139.259 4.77637 140.863 6.61475 141.991 9.01709C143.134 11.4048 143.705 14.166 143.705 17.3008V18.729C143.705 21.8784 143.148 24.6396 142.035 27.0127C140.922 29.3857 139.325 31.2168 137.245 32.5059C135.18 33.7949 132.807 34.4395 130.126 34.4395C127.475 34.4395 125.109 33.8022 123.029 32.5278C120.949 31.2534 119.337 29.437 118.195 27.0786C117.052 24.7056 116.474 21.981 116.459 18.9048ZM130.126 35.4395C132.974 35.4395 135.534 34.7523 137.774 33.3543C140.03 31.9559 141.751 29.9719 142.94 27.4374C144.127 24.9074 144.705 21.9961 144.705 18.729V17.3008C144.705 14.0456 144.112 11.1335 142.895 8.58941C141.693 6.0293 139.964 4.03679 137.706 2.65189C135.467 1.25555 132.916 0.568359 130.082 0.568359C127.247 0.568359 124.688 1.25613 122.436 2.65194C120.192 4.03713 118.465 6.02926 117.248 8.58758L117.247 8.58996C116.045 11.1345 115.459 14.0537 115.459 17.3228L115.459 18.9048L115.459 18.9095C115.474 22.1095 116.077 24.9848 117.294 27.5124L117.295 27.5146C118.514 30.0318 120.251 31.9987 122.506 33.3805C124.757 34.7596 127.307 35.4395 130.126 35.4395ZM125.781 10.1843L125.784 10.181C126.787 8.73727 128.178 8.01758 130.082 8.01758C132 8.01758 133.397 8.74365 134.4 10.1997C135.437 11.7044 136.025 14.0179 136.025 17.2788L136.025 18.8345L136.025 18.8379C136.011 22.0678 135.423 24.3705 134.397 25.8786C133.409 27.3161 132.028 28.0342 130.126 28.0342C128.188 28.0342 126.779 27.2868 125.772 25.7768C124.723 24.2032 124.139 21.8922 124.139 18.729L124.139 17.1734L124.139 17.1699C124.153 13.9399 124.748 11.6586 125.781 10.1843ZM130.126 29.0342C132.338 29.0342 134.037 28.1699 135.224 26.4414C136.41 24.6982 137.011 22.1641 137.025 18.8389V17.2788C137.025 13.9243 136.425 11.3755 135.224 9.63232C134.022 7.88916 132.309 7.01758 130.082 7.01758C127.87 7.01758 126.164 7.88184 124.962 9.61035C123.761 11.3242 123.153 13.8438 123.139 17.1689V18.729C123.139 21.9956 123.739 24.5298 124.94 26.3315C126.142 28.1333 127.87 29.0342 130.126 29.0342ZM157.815 1.00781L165.324 22.2084L172.792 1.00781L183.157 1.00781V35H174.543V25.2331L175.543 13L168.269 35H162.339L155.087 13L156.087 25.233V35L147.495 35V1.00781L157.815 1.00781ZM154.428 10.1816L155.087 25.2549V34H148.495V2.00781L157.108 2.00781L165.326 25.2109L173.5 2.00781L182.157 2.00781V34H175.543V25.2549L176.203 10.1597L167.567 34H163.041L154.428 10.1816ZM208.59 34L206.371 27.4082H194.813L192.616 34H185.607L197.516 2.00781L203.624 2.00781L215.6 34H208.59ZM195.534 28.4082H205.653L207.872 35H217.042L204.318 1.00781L196.821 1.00781L184.168 35H193.337L195.534 28.4082ZM204.591 22.0688L200.57 10.0938L196.593 22.0688H204.591ZM203.201 21.0688H197.979L200.576 13.2508L203.201 21.0688ZM245.603 35L237.45 35L226.18 16.5118V35H217.588V1.00781L225.741 1.00781L237.034 19.5388V1.00781L245.603 1.00781V35ZM238.034 23.1016V2.00781L244.603 2.00781V34L238.012 34L225.18 12.9502V34H218.588V2.00781L225.18 2.00781L238.034 23.1016ZM276.472 23.4154L276.55 22.3433H267.956L267.886 23.2683C267.751 25.0698 267.228 26.2329 266.467 26.9387C265.73 27.6216 264.506 28.0562 262.599 28.0562C260.611 28.0562 259.303 27.3736 258.469 26.1119C257.592 24.7625 257.073 22.4771 257.073 19.0806L257.073 16.6724L257.073 16.669C257.102 13.4308 257.652 11.2369 258.565 9.91642C259.448 8.64501 260.764 7.97363 262.687 7.97363C264.575 7.97363 265.779 8.41351 266.501 9.10299L266.506 9.10826L266.512 9.11344C267.247 9.79463 267.779 10.9975 267.93 12.9401L268.002 13.8623L276.622 13.8623L276.514 12.7644C276.143 8.99027 274.75 5.95969 272.267 3.7827C269.789 1.61067 266.563 0.568359 262.687 0.568359C259.858 0.568359 257.327 1.23884 255.129 2.60827C252.94 3.96604 251.27 5.91762 250.112 8.42153C248.957 10.9196 248.394 13.7774 248.394 16.9712V18.9268C248.394 23.9042 249.605 27.9536 252.146 30.9547L252.15 30.9591C254.724 33.9654 258.248 35.4395 262.599 35.4395C266.529 35.4395 269.799 34.3994 272.306 32.2293C274.835 30.0539 276.207 27.0823 276.472 23.4154ZM262.599 29.0562C264.635 29.0562 266.151 28.5947 267.147 27.6719C268.158 26.7344 268.737 25.2915 268.883 23.3433H275.475C275.45 23.6838 275.416 24.0171 275.371 24.3433C274.964 27.3146 273.724 29.6912 271.652 31.4731C269.367 33.4507 266.349 34.4395 262.599 34.4395C258.498 34.4395 255.268 33.0625 252.909 30.3086C250.565 27.54 249.394 23.7461 249.394 18.9268V16.9712C249.394 13.895 249.936 11.1851 251.02 8.84131C252.103 6.49756 253.649 4.70313 255.656 3.45801C257.677 2.19824 260.021 1.56836 262.687 1.56836C266.378 1.56836 269.352 2.55713 271.608 4.53467C273.649 6.32377 274.91 8.76632 275.393 11.8623C275.443 12.1884 275.486 12.5217 275.519 12.8623L268.927 12.8623C268.766 10.7969 268.187 9.30273 267.191 8.37988C266.21 7.44238 264.708 6.97363 262.687 6.97363C260.49 6.97363 258.842 7.76465 257.743 9.34668C256.659 10.9141 256.103 13.353 256.073 16.6636V19.0806C256.073 22.5376 256.593 25.0645 257.633 26.6611C258.688 28.2578 260.343 29.0562 262.599 29.0562ZM300.052 21.1353L287.395 21.1353V27.7046L302.249 27.7046V35L278.804 35V1.00781L302.205 1.00781V8.34717L287.395 8.34717V13.9717L300.052 13.9717V21.1353ZM286.395 14.9717L299.052 14.9717V20.1353H286.395V28.7046L301.249 28.7046V34L279.804 34V2.00781L301.205 2.00781V7.34717L286.395 7.34717V14.9717ZM322.958 34L316.959 22.2886H311.708V34H305.116V2.00781L317.003 2.00781C320.783 2.00781 323.698 2.8501 325.749 4.53467C327.799 6.21924 328.825 8.59961 328.825 11.6758C328.825 13.8584 328.349 15.6821 327.396 17.147C326.611 18.3616 325.482 19.3707 324.008 20.1743C323.722 20.3302 323.423 20.4783 323.112 20.6187L330.033 33.6924V34H322.958ZM320.223 9.34462L320.229 9.35066C320.864 9.9854 321.233 10.8936 321.233 12.2031C321.233 13.4613 320.856 14.3396 320.19 14.9643C319.522 15.5764 318.514 15.9492 317.025 15.9492L312.708 15.9492V8.34717H317.003C318.632 8.34717 319.634 8.74492 320.223 9.34462ZM317.025 16.9492C318.681 16.9492 319.962 16.5317 320.871 15.6968C321.779 14.8472 322.233 13.6826 322.233 12.2031C322.233 10.6943 321.801 9.50781 320.936 8.64355C320.087 7.7793 318.776 7.34717 317.003 7.34717L311.708 7.34717V16.9492H317.025Z" stroke="#FF572B"/>
</svg>
