<svg width="330" height="36" viewBox="0 0 330 36" fill="none" xmlns="http://www.w3.org/2000/svg">
<path d="M26.997 34L20.4052 34L7.57321 12.9502L7.57321 34H0.981415L0.981415 2.00781L7.57321 2.00781L20.4272 23.1016L20.4272 2.00781L26.997 2.00781L26.997 34Z" stroke="#FF572B" stroke-width="1.9"/>
<path d="M52.0019 20.1353H39.3457L39.3457 28.7046H54.1992V34H32.7539V2.00781L54.1552 2.00781V7.34717L39.3457 7.34717V14.9717L52.0019 14.9717V20.1353Z" stroke="#FF572B" stroke-width="1.9"/>
<path d="M82.2802 2.00781V23.0796C82.2802 26.5806 81.1816 29.3491 78.9843 31.3853C76.8017 33.4214 73.8134 34.4395 70.0195 34.4395C66.2841 34.4395 63.3178 33.4507 61.1206 31.4731C58.9233 29.4956 57.8027 26.7783 57.7588 23.3213V2.00781L64.3506 2.00781V23.1235C64.3506 25.2183 64.8486 26.749 65.8447 27.7158C66.8554 28.668 68.247 29.144 70.0195 29.144C73.7256 29.144 75.6079 27.1958 75.6665 23.2993V2.00781L82.2802 2.00781Z" stroke="#FF572B" stroke-width="1.9"/>
<path d="M99.5288 22.2886H94.2773V34H87.6855V2.00781L99.5727 2.00781C103.352 2.00781 106.267 2.8501 108.318 4.53467C110.369 6.21924 111.394 8.59961 111.394 11.6758C111.394 13.8584 110.918 15.6821 109.966 17.147C109.028 18.5972 107.6 19.7544 105.681 20.6187L112.603 33.6924V34L105.527 34L99.5288 22.2886ZM94.2773 16.9492H99.5947C101.25 16.9492 102.532 16.5317 103.44 15.6968C104.348 14.8472 104.802 13.6826 104.802 12.2031C104.802 10.6943 104.37 9.50781 103.506 8.64355C102.656 7.7793 101.345 7.34717 99.5727 7.34717L94.2773 7.34717V16.9492Z" stroke="#FF572B" stroke-width="1.9"/>
<path d="M142.705 18.729C142.705 21.8784 142.148 24.6396 141.035 27.0127C139.922 29.3857 138.325 31.2168 136.245 32.5059C134.18 33.7949 131.807 34.4395 129.126 34.4395C126.475 34.4395 124.109 33.8022 122.029 32.5278C119.949 31.2534 118.337 29.437 117.195 27.0786C116.052 24.7056 115.474 21.981 115.459 18.9048V17.3228C115.459 14.1733 116.023 11.4048 117.151 9.01709C118.293 6.61475 119.897 4.77637 121.963 3.50195C124.043 2.21289 126.416 1.56836 129.082 1.56836C131.748 1.56836 134.114 2.21289 136.179 3.50195C138.259 4.77637 139.863 6.61475 140.991 9.01709C142.134 11.4048 142.705 14.166 142.705 17.3008V18.729ZM136.025 17.2788C136.025 13.9243 135.425 11.3755 134.224 9.63232C133.022 7.88916 131.309 7.01758 129.082 7.01758C126.87 7.01758 125.164 7.88184 123.962 9.61035C122.761 11.3242 122.153 13.8438 122.139 17.1689V18.729C122.139 21.9956 122.739 24.5298 123.94 26.3315C125.142 28.1333 126.87 29.0342 129.126 29.0342C131.338 29.0342 133.037 28.1699 134.224 26.4414C135.41 24.6982 136.011 22.1641 136.025 18.8389V17.2788Z" stroke="#FF572B" stroke-width="1.9"/>
<path d="M156.108 2.00781L164.326 25.2109L172.5 2.00781L181.157 2.00781V34H174.543V25.2549L175.203 10.1597L166.567 34H162.041L153.428 10.1816L154.087 25.2549V34H147.495V2.00781L156.108 2.00781Z" stroke="#FF572B" stroke-width="1.9"/>
<path d="M205.371 27.4082H193.813L191.616 34H184.607L196.516 2.00781L202.624 2.00781L214.6 34H207.59L205.371 27.4082ZM195.593 22.0688H203.591L199.57 10.0938L195.593 22.0688Z" stroke="#FF572B" stroke-width="1.9"/>
<path d="M243.603 34H237.012L224.18 12.9502V34H217.588V2.00781L224.18 2.00781L237.034 23.1016V2.00781L243.603 2.00781V34Z" stroke="#FF572B" stroke-width="1.9"/>
<path d="M274.475 23.3433C274.226 26.7856 272.952 29.4956 270.652 31.4731C268.367 33.4507 265.349 34.4395 261.599 34.4395C257.498 34.4395 254.268 33.0625 251.909 30.3086C249.565 27.54 248.394 23.7461 248.394 18.9268V16.9712C248.394 13.895 248.936 11.1851 250.02 8.84131C251.103 6.49756 252.649 4.70313 254.656 3.45801C256.677 2.19824 259.021 1.56836 261.687 1.56836C265.378 1.56836 268.352 2.55713 270.608 4.53467C272.864 6.51221 274.167 9.28809 274.519 12.8623L267.927 12.8623C267.766 10.7969 267.187 9.30273 266.191 8.37988C265.21 7.44238 263.708 6.97363 261.687 6.97363C259.49 6.97363 257.842 7.76465 256.743 9.34668C255.659 10.9141 255.103 13.353 255.073 16.6636V19.0806C255.073 22.5376 255.593 25.0645 256.633 26.6611C257.688 28.2578 259.343 29.0562 261.599 29.0562C263.635 29.0562 265.151 28.5947 266.147 27.6719C267.158 26.7344 267.737 25.2915 267.883 23.3433H274.475Z" stroke="#FF572B" stroke-width="1.9"/>
<path d="M298.052 20.1353H285.395V28.7046L300.249 28.7046V34L278.804 34V2.00781L300.205 2.00781V7.34717L285.395 7.34717V14.9717L298.052 14.9717V20.1353Z" stroke="#FF572B" stroke-width="1.9"/>
<path d="M315.959 22.2886H310.708V34H304.116V2.00781L316.003 2.00781C319.783 2.00781 322.698 2.8501 324.749 4.53467C326.799 6.21924 327.825 8.59961 327.825 11.6758C327.825 13.8584 327.349 15.6821 326.396 17.147C325.459 18.5972 324.031 19.7544 322.112 20.6187L329.033 33.6924V34H321.958L315.959 22.2886ZM310.708 16.9492H316.025C317.681 16.9492 318.962 16.5317 319.871 15.6968C320.779 14.8472 321.233 13.6826 321.233 12.2031C321.233 10.6943 320.801 9.50781 319.936 8.64355C319.087 7.7793 317.776 7.34717 316.003 7.34717L310.708 7.34717V16.9492Z" stroke="#FF572B" stroke-width="1.9"/>
</svg>
