<svg width="1091" height="129" viewBox="0 0 1091 129" fill="none" xmlns="http://www.w3.org/2000/svg">
<path d="M67.9982 116.622H71.424V2.08813H96.6508V128.628H47.3392L31.6633 13.9904H28.2374V104.824V128.628H3.11444V2.08813H52.3223L67.9982 116.622Z" fill="#145B2C"/>
<path d="M64.8837 114.534H68.3096V0H93.5364V126.54H44.2248L28.5488 11.9023H25.123V102.736V126.54H0V0H49.2078L64.8837 114.534Z" fill="#1DDE47"/>
<path d="M772.711 116.622H776.137V2.08813H801.26V128.628H752.052L736.376 13.9904H732.95V104.824V128.628H707.827V2.08813H757.035L772.711 116.622Z" fill="#145B2C"/>
<path d="M769.596 114.534H773.022V0H798.145V126.54H748.937L733.261 11.9023H729.836V102.736V126.54H704.713V0H753.92L769.596 114.534Z" fill="#1DDE47"/>
<path d="M286.616 3.08813V83.4808C286.616 97.5757 282.775 108.538 275.196 116.473C267.618 124.408 256.302 128.375 241.249 128.375C226.196 128.375 214.88 124.408 207.302 116.473C199.724 108.538 195.883 97.4713 195.883 83.4808V3.08813H219.656V83.4808C219.656 90.7893 221.421 96.4272 224.847 100.499C228.376 104.571 233.775 106.659 241.249 106.659C248.724 106.659 254.122 104.571 257.652 100.499C261.182 96.4272 262.843 90.6849 262.843 83.4808V3.08813H286.616V3.08813Z" fill="#145B2C"/>
<path d="M283.502 1V81.3927C283.502 95.4875 279.66 106.45 272.082 114.385C264.504 122.32 253.188 126.287 238.135 126.287C223.082 126.287 211.766 122.32 204.188 114.385C196.609 106.45 192.768 95.3831 192.768 81.3927V1H216.541V81.3927C216.541 88.7011 218.306 94.3391 221.732 98.4109C225.262 102.483 230.66 104.571 238.135 104.571C245.609 104.571 251.008 102.483 254.537 98.4109C258.067 94.3391 259.728 88.5967 259.728 81.3927V1H283.502V1Z" fill="#1DDE47"/>
<path d="M378.505 128.628H354.836V90.6245C354.836 87.7012 354.109 85.4042 352.552 83.5249C351.098 81.75 348.607 80.8104 345.077 80.8104H317.774V128.524H294.104V2.08813H342.17C348.607 2.08813 354.316 3.0278 359.196 4.8027C364.075 6.5776 368.228 9.08335 371.446 12.3199C374.768 15.5565 377.259 19.2107 379.024 23.387C380.789 27.5632 381.62 32.1571 381.62 36.9598V41.3448C381.62 46.5652 380.27 51.3678 377.467 55.8573C374.664 60.3468 370.511 63.7922 364.698 66.2979V69.5345C368.85 70.0565 372.173 71.6226 374.664 74.4416C377.156 77.2606 378.298 80.706 378.298 84.8822V128.628H378.505ZM317.774 58.1542H340.405C346.115 58.1542 350.475 56.797 353.486 54.0824C356.497 51.3678 357.95 47.5048 357.95 42.5977V40.4052C357.95 36.2289 356.497 32.5747 353.486 29.4425C350.475 26.4148 346.115 24.8487 340.405 24.8487H317.774V58.1542Z" fill="#145B2C"/>
<path d="M375.391 126.54H351.721V88.5364C351.721 85.613 350.994 83.3161 349.437 81.4368C347.984 79.6619 345.492 78.7222 341.963 78.7222H314.66V126.436H290.99V0H339.056C345.492 0 351.202 0.939661 356.081 2.71457C360.961 4.48947 365.113 6.99521 368.331 10.2318C371.653 13.4684 374.145 17.1226 375.91 21.2988C377.675 25.4751 378.505 30.069 378.505 34.8716V39.2567C378.505 44.477 377.156 49.2797 374.353 53.7692C371.55 58.2586 367.397 61.704 361.584 64.2098V67.4464C365.736 67.9684 369.058 69.5345 371.55 72.3534C374.041 75.1724 375.183 78.6178 375.183 82.7941V126.54H375.391ZM314.66 56.0661H337.291C343.001 56.0661 347.361 54.7088 350.372 51.9943C353.382 49.2797 354.836 45.4167 354.836 40.5096V38.3171C354.836 34.1408 353.382 30.4866 350.372 27.3544C347.361 24.3266 343.001 22.7605 337.291 22.7605H314.66V56.0661Z" fill="#1DDE47"/>
<path d="M1087.89 128.628H1064.22V90.6245C1064.22 87.7012 1063.49 85.4042 1061.93 83.5249C1060.48 81.75 1057.99 80.8104 1054.46 80.8104H1027.15V128.524H1003.48V2.08813H1051.55C1057.99 2.08813 1063.7 3.0278 1068.58 4.8027C1073.46 6.5776 1077.61 9.08335 1080.83 12.3199C1084.15 15.5565 1086.64 19.2107 1088.4 23.387C1090.17 27.5632 1091 32.1571 1091 36.9598V41.3448C1091 46.5652 1089.65 51.3678 1086.85 55.8573C1084.04 60.3468 1079.89 63.7922 1074.08 66.2979V69.5345C1078.23 70.0565 1081.55 71.6226 1084.04 74.4416C1086.54 77.2606 1087.68 80.706 1087.68 84.8822V128.628H1087.89ZM1027.15 58.1542H1049.79C1055.5 58.1542 1059.86 56.797 1062.87 54.0824C1065.88 51.3678 1067.33 47.5048 1067.33 42.5977V40.4052C1067.33 36.2289 1065.88 32.5747 1062.87 29.4425C1059.86 26.4148 1055.5 24.8487 1049.79 24.8487H1027.15V58.1542Z" fill="#145B2C"/>
<path d="M1084.77 126.54H1061.1V88.5364C1061.1 85.613 1060.37 83.3161 1058.82 81.4368C1057.36 79.6619 1054.87 78.7222 1051.34 78.7222H1024.04V126.436H1000.37V0H1048.44C1054.87 0 1060.58 0.939661 1065.46 2.71457C1070.34 4.48947 1074.49 6.99521 1077.71 10.2318C1081.03 13.4684 1083.53 17.1226 1085.29 21.2988C1087.06 25.4751 1087.89 30.069 1087.89 34.8716V39.2567C1087.89 44.477 1086.54 49.2797 1083.73 53.7692C1080.93 58.2586 1076.78 61.704 1070.96 64.2098V67.4464C1075.12 67.9684 1078.44 69.5345 1080.93 72.3534C1083.42 75.1724 1084.56 78.6178 1084.56 82.7941V126.54H1084.77ZM1024.04 56.0661H1046.67C1052.38 56.0661 1056.74 54.7088 1059.75 51.9943C1062.76 49.2797 1064.22 45.4167 1064.22 40.5096V38.3171C1064.22 34.1408 1062.76 30.4866 1059.75 27.3544C1056.74 24.3266 1052.38 22.7605 1046.67 22.7605H1024.04V56.0661Z" fill="#1DDE47"/>
<path d="M388.358 51.7854C388.358 36.0201 392.303 23.8046 400.089 15.1389C407.875 6.47319 418.671 2.08813 432.479 2.08813C446.286 2.08813 457.083 6.47319 464.869 15.1389C472.655 23.8046 476.6 36.0201 476.6 51.7854V78.8266C476.6 95.0096 472.655 107.329 464.869 115.786C457.083 124.243 446.286 128.42 432.479 128.42C418.671 128.42 407.875 124.243 400.089 115.786C392.303 107.329 388.358 95.0096 388.358 78.8266V51.7854ZM432.479 107.643C436.631 107.643 439.953 107.016 442.756 105.659C445.455 104.302 447.739 102.422 449.4 100.021C451.061 97.6197 452.307 94.6964 453.034 91.3554C453.761 88.0144 454.072 84.2557 454.072 80.2883V50.4282C454.072 46.5651 453.657 43.0153 452.826 39.6743C451.996 36.3333 450.75 33.41 449.089 31.0086C447.428 28.6073 445.144 26.6236 442.445 25.1619C439.746 23.7002 436.424 22.9694 432.479 22.9694C428.638 22.9694 425.315 23.7002 422.513 25.1619C419.813 26.6236 417.529 28.5029 415.868 31.0086C414.207 33.41 412.858 36.3333 412.131 39.6743C411.301 43.0153 410.885 46.6695 410.885 50.4282V80.2883C410.885 84.3601 411.197 88.0144 411.924 91.3554C412.65 94.6964 413.792 97.6197 415.557 100.021C417.218 102.422 419.502 104.302 422.201 105.659C425.004 107.016 428.43 107.643 432.479 107.643Z" fill="#145B2C"/>
<path d="M385.243 49.6973C385.243 33.932 389.188 21.7165 396.974 13.0508C404.76 4.38506 415.557 0 429.364 0C443.172 0 453.968 4.38506 461.754 13.0508C469.54 21.7165 473.485 33.932 473.485 49.6973V76.7385C473.485 92.9215 469.54 105.241 461.754 113.698C453.968 122.155 443.172 126.331 429.364 126.331C415.557 126.331 404.76 122.155 396.974 113.698C389.188 105.241 385.243 92.9215 385.243 76.7385V49.6973ZM429.364 105.555C433.517 105.555 436.839 104.928 439.642 103.571C442.341 102.214 444.625 100.334 446.286 97.933C447.947 95.5316 449.193 92.6082 449.919 89.2672C450.646 85.9262 450.958 82.1676 450.958 78.2002V48.34C450.958 44.477 450.542 40.9272 449.712 37.5862C448.881 34.2452 447.636 31.3218 445.975 28.9205C444.313 26.5192 442.03 24.5354 439.33 23.0738C436.631 21.6121 433.309 20.8812 429.364 20.8812C425.523 20.8812 422.201 21.6121 419.398 23.0738C416.699 24.5354 414.415 26.4147 412.754 28.9205C411.093 31.3218 409.743 34.2452 409.017 37.5862C408.186 40.9272 407.771 44.5814 407.771 48.34V78.2002C407.771 82.272 408.082 85.9262 408.809 89.2672C409.536 92.6082 410.678 95.5316 412.443 97.933C414.104 100.334 416.388 102.214 419.087 103.571C421.89 104.928 425.316 105.555 429.364 105.555Z" fill="#1DDE47"/>
<path d="M483.603 2.08813H526.997L534.472 97.0977V115.578H538.936V97.0977L546.411 2.08813H589.701V128.628H567.277V44.0594L569.561 15.1389H565.097L555.339 128.628H518.381L508.311 15.1389H503.847L506.131 44.0594V128.628H483.707V2.08813H483.603Z" fill="#145B2C"/>
<path d="M480.489 0H523.883L531.358 95.0096V113.489H535.822V95.0096L543.296 0H586.587V126.54H564.163V41.9713L566.447 13.0508H561.983L552.224 126.54H515.267L505.197 13.0508H500.733L503.016 41.9713V126.54H480.593V0H480.489Z" fill="#1DDE47"/>
<path d="M669.688 100.944H627.332L621.311 128.508H596.707L626.502 0.0881348H670.623L700.417 128.508H675.814L669.688 100.944ZM632.315 77.8707H664.498L650.068 12.1992H646.849L632.315 77.8707Z" fill="#145B2C"/>
<path d="M666.574 98.8563H624.218L618.197 126.42H593.593L623.387 -2H667.508L697.303 126.42H672.699L666.574 98.8563ZM629.201 75.7826H661.383L646.953 10.1111H643.735L629.201 75.7826Z" fill="#1DDE47"/>
<path d="M856.722 106.132C861.498 106.132 865.339 105.401 868.349 104.044C871.36 102.687 873.748 100.807 875.409 98.4061C877.07 96.0048 878.212 93.3946 878.834 90.2625C879.457 87.2347 879.769 83.9981 879.769 80.7615V77.5249H904.476V80.7615C904.476 95.796 900.428 107.385 892.226 115.529C884.025 123.672 872.19 127.744 856.618 127.744C841.669 127.744 829.834 123.359 821.114 114.589C812.394 105.819 808.033 92.977 808.033 76.0632V47.8736C808.033 39.8343 809.175 32.5259 811.355 26.0527C813.639 19.5795 816.858 14.1504 821.114 9.76534C825.37 5.38029 830.457 2.03929 836.478 -0.362056C842.5 -2.7634 849.144 -3.91187 856.618 -3.91187C864.301 -3.91187 871.152 -2.8678 877.173 -0.675269C883.195 1.51726 888.178 4.64944 892.226 8.72128C896.275 12.7931 899.286 17.8046 901.362 23.5469C903.438 29.2893 904.476 35.8669 904.476 43.0709V46.3075H879.769V43.0709C879.769 40.0431 879.353 37.0153 878.627 33.9876C877.9 30.9598 876.654 28.2452 874.89 25.8439C873.125 23.4425 870.737 21.4588 867.83 19.9971C864.82 18.5355 861.082 17.7002 856.618 17.7002C852.466 17.7002 848.936 18.431 845.925 19.9971C842.915 21.4588 840.423 23.5469 838.451 26.1571C836.478 28.7673 835.025 31.795 834.091 35.2404C833.156 38.6858 832.741 42.2356 832.741 45.9943V77.8381C832.741 81.91 833.156 85.6686 834.091 89.114C834.921 92.5594 836.375 95.4828 838.243 98.0929C840.112 100.599 842.603 102.582 845.614 103.94C848.625 105.401 852.362 106.132 856.722 106.132Z" fill="#145B2C"/>
<path d="M853.608 104.044C858.383 104.044 862.224 103.313 865.235 101.956C868.245 100.599 870.633 98.7193 872.294 96.318C873.955 93.9167 875.097 91.3065 875.72 88.1743C876.343 85.1465 876.654 81.91 876.654 78.6734V75.4368H901.362V78.6734C901.362 93.7078 897.313 105.297 889.112 113.441C880.911 121.584 869.076 125.656 853.504 125.656C838.555 125.656 826.72 121.271 817.999 112.501C809.279 103.731 804.919 90.8889 804.919 73.9751V45.7854C804.919 37.7462 806.061 30.4377 808.241 23.9646C810.525 17.4914 813.743 12.0623 817.999 7.67721C822.256 3.29215 827.343 -0.0488497 833.364 -2.45019C839.385 -4.85153 846.029 -6 853.504 -6C861.186 -6 868.038 -4.95593 874.059 -2.7634C880.08 -0.570876 885.063 2.56131 889.112 6.63315C893.161 10.705 896.171 15.7165 898.248 21.4588C900.324 27.2011 901.362 33.7787 901.362 40.9828V44.2193H876.654V40.9828C876.654 37.955 876.239 34.9272 875.512 31.8994C874.786 28.8716 873.54 26.1571 871.775 23.7557C870.01 21.3544 867.622 19.3707 864.716 17.909C861.705 16.4473 857.968 15.6121 853.504 15.6121C849.351 15.6121 845.821 16.3429 842.811 17.909C839.8 19.3707 837.309 21.4588 835.336 24.069C833.364 26.6791 831.91 29.7069 830.976 33.1523C830.042 36.5977 829.627 40.1475 829.627 43.9061V75.75C829.627 79.8218 830.042 83.5805 830.976 87.0259C831.807 90.4713 833.26 93.3946 835.129 96.0048C836.997 98.5105 839.489 100.494 842.499 101.852C845.51 103.313 849.247 104.044 853.608 104.044Z" fill="#1DDE47"/>
<path d="M103.613 2.08813H186.249V24.8487H128.321V53.7692H183.965V76.5297H128.321V105.763H188.533V128.524H103.717V2.08813H103.613Z" fill="#145B2C"/>
<path d="M100.499 0H183.135V22.7605H125.207V51.681H180.851V74.4416H125.207V103.675H185.419V126.436H100.603V0H100.499Z" fill="#1DDE47"/>
<path d="M911.216 2.08813H993.852V24.8487H935.923V53.7692H991.568V76.5297H935.923V105.763H996.136V128.524H911.32V2.08813H911.216Z" fill="#145B2C"/>
<path d="M908.101 0H990.737V22.7605H932.809V51.681H988.453V74.4416H932.809V103.675H993.021V126.436H908.205V0H908.101Z" fill="#1DDE47"/>
<path d="M33.0587 -0.129303V10.4157H44.9179V16.1581H49.6406" stroke="#145B2C" stroke-width="0.75" stroke-miterlimit="10"/>
<path d="M2.41376 18.6638V29.5221H9.8651V36.6217H17.1065" stroke="#145B2C" stroke-width="0.75" stroke-miterlimit="10"/>
<path d="M23.0886 61.0527H6.92657" stroke="#145B2C" stroke-width="0.75" stroke-miterlimit="10"/>
<path d="M23.0886 67.7347H6.92657" stroke="#145B2C" stroke-width="0.75" stroke-miterlimit="10"/>
<path d="M23.0886 75.0431H6.92657" stroke="#145B2C" stroke-width="0.75" stroke-miterlimit="10"/>
<path d="M3.35834 126.5V105.947" stroke="#145B2C" stroke-width="0.75" stroke-miterlimit="10"/>
<path d="M33 43L54.9342 39" stroke="#145B2C" stroke-width="0.75" stroke-miterlimit="10"/>
<path d="M34 44.863L56.0392 41" stroke="#145B2C" stroke-width="0.75" stroke-miterlimit="10"/>
<path d="M43.2642 120.042H79.341V98.7433" stroke="#145B2C" stroke-width="0.75" stroke-miterlimit="10"/>
<path d="M83.434 11.5642V35.5776H92.1447" stroke="#145B2C" stroke-width="0.75" stroke-miterlimit="10"/>
<path d="M83.4339 20.2299H75.3529" stroke="#145B2C" stroke-width="0.75" stroke-miterlimit="10"/>
<path d="M83.4339 28.7912H75.3529" stroke="#145B2C" stroke-width="0.75" stroke-miterlimit="10"/>
<path d="M2.4138 18.977C2.99342 18.977 3.46329 18.5096 3.46329 17.933C3.46329 17.3564 2.99342 16.8889 2.4138 16.8889C1.83419 16.8889 1.36432 17.3564 1.36432 17.933C1.36432 18.5096 1.83419 18.977 2.4138 18.977Z" fill="#145B2C"/>
<path d="M6.92656 62.0968C7.50617 62.0968 7.97604 61.6293 7.97604 61.0527C7.97604 60.4761 7.50617 60.0086 6.92656 60.0086C6.34694 60.0086 5.87708 60.4761 5.87708 61.0527C5.87708 61.6293 6.34694 62.0968 6.92656 62.0968Z" fill="#145B2C"/>
<path d="M6.92656 68.7787C7.50617 68.7787 7.97604 68.3113 7.97604 67.7347C7.97604 67.1581 7.50617 66.6906 6.92656 66.6906C6.34694 66.6906 5.87708 67.1581 5.87708 67.7347C5.87708 68.3113 6.34694 68.7787 6.92656 68.7787Z" fill="#145B2C"/>
<path d="M6.92656 76.0872C7.50617 76.0872 7.97604 75.6197 7.97604 75.0431C7.97604 74.4665 7.50617 73.9991 6.92656 73.9991C6.34694 73.9991 5.87708 74.4665 5.87708 75.0431C5.87708 75.6197 6.34694 76.0872 6.92656 76.0872Z" fill="#145B2C"/>
<path d="M75.353 29.8353C75.9326 29.8353 76.4024 29.3678 76.4024 28.7912C76.4024 28.2146 75.9326 27.7471 75.353 27.7471C74.7733 27.7471 74.3035 28.2146 74.3035 28.7912C74.3035 29.3678 74.7733 29.8353 75.353 29.8353Z" fill="#145B2C"/>
<path d="M107.998 80.3678C108.577 80.3678 109.047 79.9004 109.047 79.3238C109.047 78.7472 108.577 78.2797 107.998 78.2797C107.418 78.2797 106.948 78.7472 106.948 79.3238C106.948 79.9004 107.418 80.3678 107.998 80.3678Z" fill="#145B2C"/>
<path d="M147.662 121.086C148.242 121.086 148.712 120.619 148.712 120.042C148.712 119.466 148.242 118.998 147.662 118.998C147.083 118.998 146.613 119.466 146.613 120.042C146.613 120.619 147.083 121.086 147.662 121.086Z" fill="#145B2C"/>
<path d="M157.737 121.086C158.317 121.086 158.787 120.619 158.787 120.042C158.787 119.466 158.317 118.998 157.737 118.998C157.158 118.998 156.688 119.466 156.688 120.042C156.688 120.619 157.158 121.086 157.737 121.086Z" fill="#145B2C"/>
<path d="M261.599 101.249C262.178 101.249 262.648 100.782 262.648 100.205C262.648 99.6284 262.178 99.1609 261.599 99.1609C261.019 99.1609 260.549 99.6284 260.549 100.205C260.549 100.782 261.019 101.249 261.599 101.249Z" fill="#145B2C"/>
<path d="M274.298 51.2385C274.877 51.2385 275.347 50.7711 275.347 50.1945C275.347 49.6178 274.877 49.1504 274.298 49.1504C273.718 49.1504 273.248 49.6178 273.248 50.1945C273.248 50.7711 273.718 51.2385 274.298 51.2385Z" fill="#145B2C"/>
<path d="M274.298 40.7979C274.877 40.7979 275.347 40.3305 275.347 39.7538C275.347 39.1772 274.877 38.7098 274.298 38.7098C273.718 38.7098 273.248 39.1772 273.248 39.7538C273.248 40.3305 273.718 40.7979 274.298 40.7979Z" fill="#145B2C"/>
<path d="M303.998 11.5201C304.578 11.5201 305.048 11.0527 305.048 10.4761C305.048 9.89945 304.578 9.43201 303.998 9.43201C303.418 9.43201 302.949 9.89945 302.949 10.4761C302.949 11.0527 303.418 11.5201 303.998 11.5201Z" fill="#145B2C"/>
<path d="M330.13 61.0086C330.71 61.0086 331.18 60.5412 331.18 59.9646C331.18 59.388 330.71 58.9205 330.13 58.9205C329.551 58.9205 329.081 59.388 329.081 59.9646C329.081 60.5412 329.551 61.0086 330.13 61.0086Z" fill="#145B2C"/>
<path d="M334.433 61.0086C335.013 61.0086 335.482 60.5412 335.482 59.9646C335.482 59.388 335.013 58.9205 334.433 58.9205C333.853 58.9205 333.384 59.388 333.384 59.9646C333.384 60.5412 333.853 61.0086 334.433 61.0086Z" fill="#145B2C"/>
<path d="M390.735 31.6102C391.314 31.6102 391.784 31.1427 391.784 30.5661C391.784 29.9895 391.314 29.522 390.735 29.522C390.155 29.522 389.685 29.9895 389.685 30.5661C389.685 31.1427 390.155 31.6102 390.735 31.6102Z" fill="#145B2C"/>
<path d="M388.741 44.6609C389.32 44.6609 389.79 44.1935 389.79 43.6169C389.79 43.0403 389.32 42.5728 388.741 42.5728C388.161 42.5728 387.691 43.0403 387.691 43.6169C387.691 44.1935 388.161 44.6609 388.741 44.6609Z" fill="#145B2C"/>
<path d="M401.125 108.557C401.704 108.557 402.174 108.09 402.174 107.513C402.174 106.937 401.704 106.469 401.125 106.469C400.545 106.469 400.075 106.937 400.075 107.513C400.075 108.09 400.545 108.557 401.125 108.557Z" fill="#145B2C"/>
<path d="M447.815 113.778C448.394 113.778 448.864 113.31 448.864 112.734C448.864 112.157 448.394 111.69 447.815 111.69C447.235 111.69 446.765 112.157 446.765 112.734C446.765 113.31 447.235 113.778 447.815 113.778Z" fill="#145B2C"/>
<path d="M465.822 72.433C466.402 72.433 466.872 71.9655 466.872 71.3889C466.872 70.8123 466.402 70.3448 465.822 70.3448C465.243 70.3448 464.773 70.8123 464.773 71.3889C464.773 71.9655 465.243 72.433 465.822 72.433Z" fill="#145B2C"/>
<path d="M465.822 63.8717C466.402 63.8717 466.872 63.4042 466.872 62.8276C466.872 62.251 466.402 61.7835 465.822 61.7835C465.243 61.7835 464.773 62.251 464.773 62.8276C464.773 63.4042 465.243 63.8717 465.822 63.8717Z" fill="#145B2C"/>
<path d="M465.822 54.8927C466.402 54.8927 466.872 54.4253 466.872 53.8487C466.872 53.2721 466.402 52.8046 465.822 52.8046C465.243 52.8046 464.773 53.2721 464.773 53.8487C464.773 54.4253 465.243 54.8927 465.822 54.8927Z" fill="#145B2C"/>
<path d="M514.938 7.17913C515.518 7.17913 515.988 6.71169 515.988 6.13507C515.988 5.55845 515.518 5.091 514.938 5.091C514.359 5.091 513.889 5.55845 513.889 6.13507C513.889 6.71169 514.359 7.17913 514.938 7.17913Z" fill="#145B2C"/>
<path d="M552.14 7.17913C552.719 7.17913 553.189 6.71169 553.189 6.13507C553.189 5.55845 552.719 5.091 552.14 5.091C551.56 5.091 551.09 5.55845 551.09 6.13507C551.09 6.71169 551.56 7.17913 552.14 7.17913Z" fill="#145B2C"/>
<path d="M616.677 54.3707C617.256 54.3707 617.726 53.9033 617.726 53.3266C617.726 52.75 617.256 52.2826 616.677 52.2826C616.097 52.2826 615.627 52.75 615.627 53.3266C615.627 53.9033 616.097 54.3707 616.677 54.3707Z" fill="#145B2C"/>
<path d="M663.694 14.3832C664.273 14.3832 664.743 13.9157 664.743 13.3391C664.743 12.7625 664.273 12.295 663.694 12.295C663.114 12.295 662.644 12.7625 662.644 13.3391C662.644 13.9157 663.114 14.3832 663.694 14.3832Z" fill="#145B2C"/>
<path d="M709.661 23.2577C710.241 23.2577 710.711 22.7902 710.711 22.2136C710.711 21.637 710.241 21.1696 709.661 21.1696C709.081 21.1696 708.612 21.637 708.612 22.2136C708.612 22.7902 709.081 23.2577 709.661 23.2577Z" fill="#145B2C"/>
<path d="M715.223 66.3774C715.803 66.3774 716.273 65.91 716.273 65.3333C716.273 64.7567 715.803 64.2893 715.223 64.2893C714.644 64.2893 714.174 64.7567 714.174 65.3333C714.174 65.91 714.644 66.3774 715.223 66.3774Z" fill="#145B2C"/>
<path d="M747.023 37.4569C747.602 37.4569 748.072 36.9895 748.072 36.4128C748.072 35.8362 747.602 35.3688 747.023 35.3688C746.443 35.3688 745.973 35.8362 745.973 36.4128C745.973 36.9895 746.443 37.4569 747.023 37.4569Z" fill="#145B2C"/>
<path d="M821.536 20.2299C822.116 20.2299 822.586 19.7625 822.586 19.1858C822.586 18.6092 822.116 18.1418 821.536 18.1418C820.956 18.1418 820.487 18.6092 820.487 19.1858C820.487 19.7625 820.956 20.2299 821.536 20.2299Z" fill="#145B2C"/>
<path d="M811.356 70.7625C811.936 70.7625 812.406 70.295 812.406 69.7184C812.406 69.1418 811.936 68.6743 811.356 68.6743C810.776 68.6743 810.307 69.1418 810.307 69.7184C810.307 70.295 810.776 70.7625 811.356 70.7625Z" fill="#145B2C"/>
<path d="M821.536 80.3678C822.116 80.3678 822.586 79.9004 822.586 79.3238C822.586 78.7472 822.116 78.2797 821.536 78.2797C820.956 78.2797 820.487 78.7472 820.487 79.3238C820.487 79.9004 820.956 80.3678 821.536 80.3678Z" fill="#145B2C"/>
<path d="M924.281 15.0096C924.86 15.0096 925.33 14.5421 925.33 13.9655C925.33 13.3889 924.86 12.9214 924.281 12.9214C923.701 12.9214 923.231 13.3889 923.231 13.9655C923.231 14.5421 923.701 15.0096 924.281 15.0096Z" fill="#145B2C"/>
<path d="M918.718 61.2615C919.298 61.2615 919.768 60.7941 919.768 60.2174C919.768 59.6408 919.298 59.1734 918.718 59.1734C918.139 59.1734 917.669 59.6408 917.669 60.2174C917.669 60.7941 918.139 61.2615 918.718 61.2615Z" fill="#145B2C"/>
<path d="M1012.44 34.638C1013.02 34.638 1013.49 34.1705 1013.49 33.5939C1013.49 33.0173 1013.02 32.5498 1012.44 32.5498C1011.86 32.5498 1011.39 33.0173 1011.39 33.5939C1011.39 34.1705 1011.86 34.638 1012.44 34.638Z" fill="#145B2C"/>
<path d="M1012.44 40.9023C1013.02 40.9023 1013.49 40.4349 1013.49 39.8583C1013.49 39.2816 1013.02 38.8142 1012.44 38.8142C1011.86 38.8142 1011.39 39.2816 1011.39 39.8583C1011.39 40.4349 1011.86 40.9023 1012.44 40.9023Z" fill="#145B2C"/>
<path d="M1079.92 118.163C1080.5 118.163 1080.97 117.695 1080.97 117.119C1080.97 116.542 1080.5 116.075 1079.92 116.075C1079.34 116.075 1078.87 116.542 1078.87 117.119C1078.87 117.695 1079.34 118.163 1079.92 118.163Z" fill="#145B2C"/>
<path d="M951.462 119.103C952.042 119.103 952.512 118.635 952.512 118.058C952.512 117.482 952.042 117.014 951.462 117.014C950.883 117.014 950.413 117.482 950.413 118.058C950.413 118.635 950.883 119.103 951.462 119.103Z" fill="#145B2C"/>
<path d="M958.284 119.103C958.863 119.103 959.333 118.635 959.333 118.058C959.333 117.482 958.863 117.014 958.284 117.014C957.704 117.014 957.234 117.482 957.234 118.058C957.234 118.635 957.704 119.103 958.284 119.103Z" fill="#145B2C"/>
<path d="M891.117 28.5824C891.696 28.5824 892.166 28.1149 892.166 27.5383C892.166 26.9617 891.696 26.4943 891.117 26.4943C890.537 26.4943 890.067 26.9617 890.067 27.5383C890.067 28.1149 890.537 28.5824 891.117 28.5824Z" fill="#145B2C"/>
<path d="M715.223 23.2577C715.803 23.2577 716.273 22.7902 716.273 22.2136C716.273 21.637 715.803 21.1696 715.223 21.1696C714.644 21.1696 714.174 21.637 714.174 22.2136C714.174 22.7902 714.644 23.2577 715.223 23.2577Z" fill="#145B2C"/>
<path d="M612.584 62.932C613.163 62.932 613.633 62.4646 613.633 61.8879C613.633 61.3113 613.163 60.8439 612.584 60.8439C612.004 60.8439 611.534 61.3113 611.534 61.8879C611.534 62.4646 612.004 62.932 612.584 62.932Z" fill="#145B2C"/>
<path d="M547.837 71.2845C548.416 71.2845 548.886 70.817 548.886 70.2404C548.886 69.6638 548.416 69.1964 547.837 69.1964C547.257 69.1964 546.787 69.6638 546.787 70.2404C546.787 70.817 547.257 71.2845 547.837 71.2845Z" fill="#145B2C"/>
<path d="M364.868 98.8036C365.448 98.8036 365.918 98.3362 365.918 97.7596C365.918 97.183 365.448 96.7155 364.868 96.7155C364.288 96.7155 363.819 97.183 363.819 97.7596C363.819 98.3362 364.288 98.8036 364.868 98.8036Z" fill="#145B2C"/>
<path d="M205.976 18.455C206.556 18.455 207.026 17.9876 207.026 17.4109C207.026 16.8343 206.556 16.3669 205.976 16.3669C205.397 16.3669 204.927 16.8343 204.927 17.4109C204.927 17.9876 205.397 18.455 205.976 18.455Z" fill="#145B2C"/>
<path d="M138.217 121.086C138.797 121.086 139.266 120.619 139.266 120.042C139.266 119.466 138.797 118.998 138.217 118.998C137.637 118.998 137.167 119.466 137.167 120.042C137.167 120.619 137.637 121.086 138.217 121.086Z" fill="#145B2C"/>
<path d="M107.998 89.5556C108.577 89.5556 109.047 89.0881 109.047 88.5115C109.047 87.9349 108.577 87.4674 107.998 87.4674C107.418 87.4674 106.948 87.9349 106.948 88.5115C106.948 89.0881 107.418 89.5556 107.998 89.5556Z" fill="#145B2C"/>
<path d="M110.511 15.0096C111.09 15.0096 111.56 14.5421 111.56 13.9655C111.56 13.3889 111.09 12.9214 110.511 12.9214C109.931 12.9214 109.461 13.3889 109.461 13.9655C109.461 14.5421 109.931 15.0096 110.511 15.0096Z" fill="#145B2C"/>
<path d="M75.353 21.274C75.9326 21.274 76.4024 20.8065 76.4024 20.2299C76.4024 19.6533 75.9326 19.1859 75.353 19.1859C74.7733 19.1859 74.3035 19.6533 74.3035 20.2299C74.3035 20.8065 74.7733 21.274 75.353 21.274Z" fill="#145B2C"/>
<path d="M79.341 99.4742C79.9206 99.4742 80.3904 99.0067 80.3904 98.4301C80.3904 97.8535 79.9206 97.386 79.341 97.386C78.7613 97.386 78.2915 97.8535 78.2915 98.4301C78.2915 99.0067 78.7613 99.4742 79.341 99.4742Z" fill="#145B2C"/>
<path d="M135 23.5L134.964 13.9655H110.616" stroke="#145B2C" stroke-width="0.75" stroke-miterlimit="10"/>
<path d="M157.737 -0.442505V8.53643H169.282V23" stroke="#145B2C" stroke-width="0.75" stroke-miterlimit="10"/>
<path d="M100.579 47.5843H107.998V79.3238" stroke="#145B2C" stroke-width="0.75" stroke-miterlimit="10"/>
<path d="M130.871 51.6442V61.113H143.779V74.9991" stroke="#145B2C" stroke-width="0.75" stroke-miterlimit="10"/>
<path d="M175.474 60.5307V51.6736" stroke="#145B2C" stroke-width="0.75" stroke-miterlimit="10"/>
<path d="M175.894 60.5307H161.306V75" stroke="#145B2C" stroke-width="0.75" stroke-miterlimit="10"/>
<path d="M100.579 121.713H107.998V88.5115" stroke="#145B2C" stroke-width="0.75" stroke-miterlimit="10"/>
<path d="M138.217 103.337V120.042" stroke="#145B2C" stroke-width="0.75" stroke-miterlimit="10"/>
<path d="M147.662 103.337V120.042" stroke="#145B2C" stroke-width="0.75" stroke-miterlimit="10"/>
<path d="M157.737 103.337V120.042" stroke="#145B2C" stroke-width="0.75" stroke-miterlimit="10"/>
<path d="M178.832 -0.442505V23" stroke="#145B2C" stroke-width="0.75" stroke-miterlimit="10"/>
<path d="M205.976 17.4109H216.576" stroke="#145B2C" stroke-width="0.75" stroke-miterlimit="10"/>
<path d="M192.543 36.7261H201.673V60.5307H192.543" stroke="#145B2C" stroke-width="0.75" stroke-miterlimit="10"/>
<path d="M192.648 83.3956H200.624V73.1638H212.693V56.4588H216.576" stroke="#145B2C" stroke-width="0.75" stroke-miterlimit="10"/>
<path d="M229.38 125.576V113.778H237.88V104.277" stroke="#145B2C" stroke-width="0.75" stroke-miterlimit="10"/>
<path d="M284.373 81.0987H275.137V100.205H261.599" stroke="#145B2C" stroke-width="0.75" stroke-miterlimit="10"/>
<path d="M260.339 50.1945H274.612" stroke="#145B2C" stroke-width="0.75" stroke-miterlimit="10"/>
<path d="M260.339 39.8582H274.612" stroke="#145B2C" stroke-width="0.75" stroke-miterlimit="10"/>
<path d="M260.339 7.17914H284.373" stroke="#145B2C" stroke-width="0.75" stroke-miterlimit="10"/>
<path d="M260.339 10.9377H284.373" stroke="#145B2C" stroke-width="0.75" stroke-miterlimit="10"/>
<path d="M291.089 31.5661H315.018" stroke="#145B2C" stroke-width="0.75" stroke-miterlimit="10"/>
<path d="M291.089 27.4943H315.018" stroke="#145B2C" stroke-width="0.75" stroke-miterlimit="10"/>
<path d="M303.998 10.4761H325.932V23.318" stroke="#145B2C" stroke-width="0.75" stroke-miterlimit="10"/>
<path d="M355.633 39.8142H379.666" stroke="#145B2C" stroke-width="0.75" stroke-miterlimit="10"/>
<path d="M315.018 50.1504H294.343V85.2309H291.089" stroke="#145B2C" stroke-width="0.75" stroke-miterlimit="10"/>
<path d="M330.13 59.9646V79.3841" stroke="#145B2C" stroke-width="0.75" stroke-miterlimit="10"/>
<path d="M334.433 59.9646V79.3841" stroke="#145B2C" stroke-width="0.75" stroke-miterlimit="10"/>
<path d="M364.868 127.098V97.3419" stroke="#145B2C" stroke-width="0.75" stroke-miterlimit="10"/>
<path d="M315.018 108.513H303.998V127.098" stroke="#145B2C" stroke-width="0.75" stroke-miterlimit="10"/>
<path d="M450.815 53.8487H465.822" stroke="#145B2C" stroke-width="0.75" stroke-miterlimit="10"/>
<path d="M450.815 62.8276H465.822" stroke="#145B2C" stroke-width="0.75" stroke-miterlimit="10"/>
<path d="M450.815 71.3889H465.822" stroke="#145B2C" stroke-width="0.75" stroke-miterlimit="10"/>
<path d="M427.875 20.8563V-0.338104" stroke="#145B2C" stroke-width="0.75" stroke-miterlimit="10"/>
<path d="M423.677 21.8563V0.661896" stroke="#145B2C" stroke-width="0.75" stroke-miterlimit="10"/>
<path d="M408.261 55.6236H397.452V30.5661H390.735" stroke="#145B2C" stroke-width="0.75" stroke-miterlimit="10"/>
<path d="M385.487 79.3238H401.125V107.513" stroke="#145B2C" stroke-width="0.75" stroke-miterlimit="10"/>
<path d="M425.986 105.216V112.734H447.815" stroke="#145B2C" stroke-width="0.75" stroke-miterlimit="10"/>
<path d="M397.452 43.6169H388.636" stroke="#145B2C" stroke-width="0.75" stroke-miterlimit="10"/>
<path d="M480.5 6.13507H514.938" stroke="#145B2C" stroke-width="0.75" stroke-miterlimit="10"/>
<path d="M587.087 6.13507H552.14" stroke="#145B2C" stroke-width="0.75" stroke-miterlimit="10"/>
<path d="M480.5 26.9119H491.955V62.8276H503.499" stroke="#145B2C" stroke-width="0.75" stroke-miterlimit="10"/>
<path d="M480.5 100.265H496.572V127.098" stroke="#145B2C" stroke-width="0.75" stroke-miterlimit="10"/>
<path d="M509 59.9234L528.52 57" stroke="#145B2C" stroke-width="0.75" stroke-miterlimit="10"/>
<path d="M509.315 64.3084L528.835 61.3851" stroke="#145B2C" stroke-width="0.75" stroke-miterlimit="10"/>
<path d="M539.54 127.307V105.172H552.553" stroke="#145B2C" stroke-width="0.75" stroke-miterlimit="10"/>
<path d="M564.419 75.4607H587.087" stroke="#145B2C" stroke-width="0.75" stroke-miterlimit="10"/>
<path d="M564.419 81.8295H587.087" stroke="#145B2C" stroke-width="0.75" stroke-miterlimit="10"/>
<path d="M559.381 44.8698H547.837V70.4493" stroke="#145B2C" stroke-width="0.75" stroke-miterlimit="10"/>
<path d="M638.506 31.1925H628.116V-2.42624" stroke="#145B2C" stroke-width="0.75" stroke-miterlimit="10"/>
<path d="M655.613 -2.42624V13.3391H663.694" stroke="#145B2C" stroke-width="0.75" stroke-miterlimit="10"/>
<path d="M633.468 53.3266H616.677" stroke="#145B2C" stroke-width="0.75" stroke-miterlimit="10"/>
<path d="M631.894 61.8879H612.584" stroke="#145B2C" stroke-width="0.75" stroke-miterlimit="10"/>
<path d="M650.155 75.4607V85.5882H670.725V70.2404H684.578" stroke="#145B2C" stroke-width="0.75" stroke-miterlimit="10"/>
<path d="M669.151 113.047L693.394 109.497" stroke="#145B2C" stroke-width="0.75" stroke-miterlimit="10"/>
<path d="M670.201 117.85L694.548 114.3" stroke="#145B2C" stroke-width="0.75" stroke-miterlimit="10"/>
<path d="M600 100L610.842 103.908V115H622" stroke="#145B2C" stroke-width="0.75" stroke-miterlimit="10"/>
<path d="M783.86 -0.442505V14.2788L798.133 14.3832" stroke="#145B2C" stroke-width="0.75" stroke-miterlimit="10"/>
<path d="M772.735 61.8879H783.86V43.6169H798.133" stroke="#145B2C" stroke-width="0.75" stroke-miterlimit="10"/>
<path d="M715.118 65.3333H724.983V38.7098H730.021" stroke="#145B2C" stroke-width="0.75" stroke-miterlimit="10"/>
<path d="M709.661 -0.442505V22.2136" stroke="#145B2C" stroke-width="0.75" stroke-miterlimit="10"/>
<path d="M715.223 -0.442505V22.2136" stroke="#145B2C" stroke-width="0.75" stroke-miterlimit="10"/>
<path d="M703.679 101.98H715.118V126.098" stroke="#145B2C" stroke-width="0.75" stroke-miterlimit="10"/>
<path d="M747.023 36.4128L760.141 126.098" stroke="#145B2C" stroke-width="0.75" stroke-miterlimit="10"/>
<path d="M829.512 45.2874H821.536V19.1859" stroke="#145B2C" stroke-width="0.75" stroke-miterlimit="10"/>
<path d="M829.512 69.7184H811.356" stroke="#145B2C" stroke-width="0.75" stroke-miterlimit="10"/>
<path d="M804.744 79.3238H821.536" stroke="#145B2C" stroke-width="0.75" stroke-miterlimit="10"/>
<path d="M850.922 104.277V114.822H860.577V126.098" stroke="#145B2C" stroke-width="0.75" stroke-miterlimit="10"/>
<path d="M886.499 75.774V118.058" stroke="#145B2C" stroke-width="0.75" stroke-miterlimit="10"/>
<path d="M892.166 75.774V113.465" stroke="#145B2C" stroke-width="0.75" stroke-miterlimit="10"/>
<path d="M853.755 -5.55841V12.1906H895" stroke="#145B2C" stroke-width="0.75" stroke-miterlimit="10"/>
<path d="M882.196 27.5383V12.1906" stroke="#145B2C" stroke-width="0.75" stroke-miterlimit="10"/>
<path d="M891.117 27.5383V12.1906" stroke="#145B2C" stroke-width="0.75" stroke-miterlimit="10"/>
<path d="M924.281 -0.442505V13.9655" stroke="#145B2C" stroke-width="0.75" stroke-miterlimit="10"/>
<path d="M958.284 23V11.0422H970.248V-0.442505" stroke="#145B2C" stroke-width="0.75" stroke-miterlimit="10"/>
<path d="M933.621 37.7701H918.718V60.2175" stroke="#145B2C" stroke-width="0.75" stroke-miterlimit="10"/>
<path d="M964.266 51.6882V60.8439H972.767V74.8343" stroke="#145B2C" stroke-width="0.75" stroke-miterlimit="10"/>
<path d="M908.191 87.7807H922.077V98.8477H934.041" stroke="#145B2C" stroke-width="0.75" stroke-miterlimit="10"/>
<path d="M958.284 103.5V118.058" stroke="#145B2C" stroke-width="0.75" stroke-miterlimit="10"/>
<path d="M951.5 103.5L951.567 118.058" stroke="#145B2C" stroke-width="0.75" stroke-miterlimit="10"/>
<path d="M1020.2 -0.442505V8.84964H1047.28V-0.442505" stroke="#145B2C" stroke-width="0.75" stroke-miterlimit="10"/>
<path d="M1024.82 33.5939H1012.44" stroke="#145B2C" stroke-width="0.75" stroke-miterlimit="10"/>
<path d="M1024.82 39.8582H1012.44" stroke="#145B2C" stroke-width="0.75" stroke-miterlimit="10"/>
<path d="M1000.5 89.3467H1024.82" stroke="#145B2C" stroke-width="0.75" stroke-miterlimit="10"/>
<path d="M1000.5 96.864H1024.82" stroke="#145B2C" stroke-width="0.75" stroke-miterlimit="10"/>
<path d="M1000.5 111.69H1010.13V119.103H1024.82" stroke="#145B2C" stroke-width="0.75" stroke-miterlimit="10"/>
<path d="M1042.77 56V64.2893H1054.63V79.3238" stroke="#145B2C" stroke-width="0.75" stroke-miterlimit="10"/>
<path d="M1063.97 31.0881L1085.8 18.7682" stroke="#145B2C" stroke-width="0.75" stroke-miterlimit="10"/>
<path d="M1065.33 34.9512L1088 22.318" stroke="#145B2C" stroke-width="0.75" stroke-miterlimit="10"/>
<path d="M1061 99.3697H1072.36V117.119H1079.92" stroke="#145B2C" stroke-width="0.75" stroke-miterlimit="10"/>
<path d="M16.9445 37.8793C17.4662 37.8793 17.8891 37.4586 17.8891 36.9397C17.8891 36.4207 17.4662 36 16.9445 36C16.4229 36 16 36.4207 16 36.9397C16 37.4586 16.4229 37.8793 16.9445 37.8793Z" fill="#145B2C"/>
</svg>
