<svg width="681" height="84" viewBox="0 0 681 84" fill="none" xmlns="http://www.w3.org/2000/svg">
<path d="M42.4268 76.5086H44.5643V5.04654H60.3043V84H29.5368L19.756 12.4729H17.6184V69.1474V84H1.94321V5.04654H32.6459L42.4268 76.5086Z" fill="#145B2C"/>
<path d="M40.4836 75.2057H42.6211V3.74365H58.3611V82.6971H27.5936L17.8128 11.17H15.6752V67.8445V82.6971H0V3.74365H30.7027L40.4836 75.2057Z" fill="#1DDE47"/>
<path d="M482.125 76.5086H484.263V5.04654H499.938V84H469.235L459.454 12.4729H457.317V69.1474V84H441.642V5.04654H472.344L482.125 76.5086Z" fill="#145B2C"/>
<path d="M480.182 75.2057H482.319V3.74365H497.995V82.6971H467.292L457.511 11.17H455.374V67.8445V82.6971H439.698V3.74365H470.401L480.182 75.2057Z" fill="#1DDE47"/>
<path d="M178.831 5.67041V55.8306C178.831 64.625 176.435 71.465 171.706 76.4159C166.978 81.3667 159.917 83.8422 150.525 83.8422C141.133 83.8422 134.073 81.3667 129.344 76.4159C124.616 71.465 122.219 64.5598 122.219 55.8306V5.67041H137.052V55.8306C137.052 60.3907 138.153 63.9084 140.291 66.449C142.493 68.9895 145.861 70.2924 150.525 70.2924C155.189 70.2924 158.557 68.9895 160.759 66.449C162.962 63.9084 163.998 60.3255 163.998 55.8306V5.67041H178.831V5.67041Z" fill="#145B2C"/>
<path d="M176.888 4.36758V54.5278C176.888 63.3221 174.491 70.1622 169.763 75.113C165.034 80.0639 157.974 82.5394 148.582 82.5394C139.19 82.5394 132.129 80.0639 127.401 75.113C122.672 70.1622 120.276 63.257 120.276 54.5278V4.36758H135.109V54.5278C135.109 59.0878 136.21 62.6056 138.348 65.1461C140.55 67.6867 143.918 68.9896 148.582 68.9896C153.245 68.9896 156.614 67.6867 158.816 65.1461C161.018 62.6056 162.055 59.0227 162.055 54.5278V4.36758H176.888V4.36758Z" fill="#1DDE47"/>
<path d="M236.164 84H221.396V60.2879C221.396 58.4639 220.943 57.0308 219.971 55.8582C219.064 54.7508 217.51 54.1645 215.307 54.1645H198.272V83.9349H183.503V5.04654H213.494C217.51 5.04654 221.072 5.63283 224.117 6.74026C227.161 7.8477 229.752 9.41113 231.76 11.4306C233.833 13.45 235.387 15.73 236.488 18.3357C237.589 20.9415 238.108 23.8078 238.108 26.8043V29.5404C238.108 32.7975 237.266 35.7941 235.517 38.5953C233.768 41.3964 231.177 43.5461 227.55 45.1096V47.129C230.141 47.4547 232.213 48.4319 233.768 50.1907C235.322 51.9496 236.035 54.0993 236.035 56.705V84H236.164ZM198.272 40.0284H212.393C215.955 40.0284 218.676 39.1815 220.554 37.4878C222.432 35.7941 223.339 33.3838 223.339 30.3221V28.9541C223.339 26.3483 222.432 24.0683 220.554 22.114C218.676 20.2249 215.955 19.2477 212.393 19.2477H198.272V40.0284Z" fill="#145B2C"/>
<path d="M234.221 82.6971H219.453V58.985C219.453 57.161 218.999 55.7279 218.028 54.5553C217.121 53.4479 215.566 52.8616 213.364 52.8616H196.329V82.632H181.56V3.74365H211.55C215.566 3.74365 219.129 4.32994 222.173 5.43738C225.218 6.54481 227.809 8.10824 229.817 10.1277C231.889 12.1471 233.444 14.4271 234.545 17.0329C235.646 19.6386 236.164 22.5049 236.164 25.5015V28.2375C236.164 31.4946 235.322 34.4912 233.574 37.2924C231.825 40.0935 229.234 42.2432 225.606 43.8067V45.8261C228.197 46.1518 230.27 47.129 231.825 48.8878C233.379 50.6467 234.092 52.7964 234.092 55.4022V82.6971H234.221ZM196.329 38.7255H210.449C214.012 38.7255 216.732 37.8787 218.611 36.1849C220.489 34.4912 221.396 32.0809 221.396 29.0192V27.6512C221.396 25.0455 220.489 22.7654 218.611 20.8112C216.732 18.922 214.012 17.9449 210.449 17.9449H196.329V38.7255Z" fill="#1DDE47"/>
<path d="M678.775 84H664.007V60.2879C664.007 58.4639 663.553 57.0308 662.582 55.8582C661.675 54.7508 660.12 54.1645 657.918 54.1645H640.883V83.9349H626.114V5.04654H656.104C660.12 5.04654 663.683 5.63283 666.727 6.74026C669.772 7.8477 672.363 9.41113 674.371 11.4306C676.443 13.45 677.998 15.73 679.099 18.3357C680.2 20.9415 680.718 23.8078 680.718 26.8043V29.5404C680.718 32.7975 679.876 35.7941 678.127 38.5953C676.379 41.3964 673.788 43.5461 670.16 45.1096V47.129C672.751 47.4547 674.824 48.4319 676.379 50.1907C677.933 51.9496 678.646 54.0993 678.646 56.705V84H678.775ZM640.883 40.0284H655.003C658.566 40.0284 661.286 39.1815 663.165 37.4878C665.043 35.7941 665.95 33.3838 665.95 30.3221V28.9541C665.95 26.3483 665.043 24.0683 663.165 22.114C661.286 20.2249 658.566 19.2477 655.003 19.2477H640.883V40.0284Z" fill="#145B2C"/>
<path d="M676.832 82.6971H662.064V58.985C662.064 57.161 661.61 55.7279 660.639 54.5553C659.732 53.4479 658.177 52.8616 655.975 52.8616H638.939V82.632H624.171V3.74365H654.161C658.177 3.74365 661.74 4.32994 664.784 5.43738C667.829 6.54481 670.419 8.10824 672.427 10.1277C674.5 12.1471 676.055 14.4271 677.156 17.0329C678.257 19.6386 678.775 22.5049 678.775 25.5015V28.2375C678.775 31.4946 677.933 34.4912 676.184 37.2924C674.435 40.0935 671.844 42.2432 668.217 43.8067V45.8261C670.808 46.1518 672.881 47.129 674.435 48.8878C675.99 50.6467 676.703 52.7964 676.703 55.4022V82.6971H676.832ZM638.939 38.7255H653.06C656.623 38.7255 659.343 37.8787 661.222 36.1849C663.1 34.4912 664.007 32.0809 664.007 29.0192V27.6512C664.007 25.0455 663.1 22.7654 661.222 20.8112C659.343 18.922 656.623 17.9449 653.06 17.9449H638.939V38.7255Z" fill="#1DDE47"/>
<path d="M242.312 36.0547C242.312 26.2181 244.773 18.5963 249.631 13.1894C254.489 7.78255 261.226 5.04654 269.841 5.04654C278.456 5.04654 285.192 7.78255 290.05 13.1894C294.908 18.5963 297.37 26.2181 297.37 36.0547V52.9267C297.37 63.0239 294.908 70.7108 290.05 75.9874C285.192 81.264 278.456 83.8697 269.841 83.8697C261.226 83.8697 254.489 81.264 249.631 75.9874C244.773 70.7108 242.312 63.0239 242.312 52.9267V36.0547ZM269.841 70.9062C272.432 70.9062 274.504 70.5154 276.253 69.6685C277.937 68.8217 279.362 67.6491 280.399 66.1508C281.435 64.6525 282.212 62.8285 282.666 60.7439C283.119 58.6593 283.314 56.3142 283.314 53.8387V35.2078C283.314 32.7975 283.055 30.5826 282.536 28.4981C282.018 26.4135 281.241 24.5895 280.204 23.0912C279.168 21.5929 277.743 20.3552 276.059 19.4432C274.375 18.5312 272.302 18.0752 269.841 18.0752C267.444 18.0752 265.371 18.5312 263.622 19.4432C261.938 20.3552 260.513 21.5278 259.477 23.0912C258.441 24.5895 257.598 26.4135 257.145 28.4981C256.627 30.5826 256.368 32.8627 256.368 35.2078V53.8387C256.368 56.3793 256.562 58.6593 257.016 60.7439C257.469 62.8285 258.181 64.6525 259.283 66.1508C260.319 67.6491 261.744 68.8217 263.428 69.6685C265.177 70.5154 267.315 70.9062 269.841 70.9062Z" fill="#145B2C"/>
<path d="M240.369 34.7518C240.369 24.9152 242.83 17.2934 247.688 11.8865C252.546 6.47966 259.283 3.74365 267.897 3.74365C276.512 3.74365 283.249 6.47966 288.107 11.8865C292.965 17.2934 295.426 24.9152 295.426 34.7518V51.6239C295.426 61.7211 292.965 69.4079 288.107 74.6845C283.249 79.9611 276.512 82.5669 267.897 82.5669C259.283 82.5669 252.546 79.9611 247.688 74.6845C242.83 69.4079 240.369 61.7211 240.369 51.6239V34.7518ZM267.897 69.6034C270.488 69.6034 272.561 69.2125 274.31 68.3656C275.994 67.5188 277.419 66.3462 278.456 64.8479C279.492 63.3496 280.269 61.5256 280.723 59.441C281.176 57.3565 281.37 55.0113 281.37 52.5359V33.9049C281.37 31.4946 281.111 29.2798 280.593 27.1952C280.075 25.1106 279.298 23.2866 278.261 21.7883C277.225 20.29 275.8 19.0523 274.116 18.1403C272.432 17.2283 270.359 16.7723 267.897 16.7723C265.501 16.7723 263.428 17.2283 261.679 18.1403C259.995 19.0523 258.57 20.2249 257.534 21.7883C256.497 23.2866 255.655 25.1106 255.202 27.1952C254.684 29.2798 254.425 31.5598 254.425 33.9049V52.5359C254.425 55.0764 254.619 57.3565 255.072 59.441C255.526 61.5256 256.238 63.3496 257.339 64.8479C258.376 66.3462 259.801 67.5188 261.485 68.3656C263.234 69.2125 265.371 69.6034 267.897 69.6034Z" fill="#1DDE47"/>
<path d="M301.739 5.04654H328.815L333.478 64.3268V75.8571H336.264V64.3268L340.927 5.04654H367.938V84H353.947V31.2341L355.372 13.1894H352.587L346.498 84H323.439L317.155 13.1894H314.37L315.795 31.2341V84H301.804V5.04654H301.739Z" fill="#145B2C"/>
<path d="M299.796 3.74365H326.872L331.535 63.0239V74.5542H334.321V63.0239L338.984 3.74365H365.995V82.6971H352.004V29.9312L353.429 11.8865H350.643L344.555 82.6971H321.495L315.212 11.8865H312.427L313.852 29.9312V82.6971H299.861V3.74365H299.796Z" fill="#1DDE47"/>
<path d="M417.845 66.7269H391.418L387.661 83.9247H372.309L390.9 3.79865H418.428L437.018 83.9247H421.667L417.845 66.7269ZM394.527 52.3303H414.607L405.603 11.3552H403.595L394.527 52.3303Z" fill="#145B2C"/>
<path d="M415.902 65.424H389.474L385.718 82.6218H370.366L388.956 2.49576H416.485L435.075 82.6218H419.724L415.902 65.424ZM392.584 51.0274H412.663L403.66 10.0524H401.652L392.584 51.0274Z" fill="#1DDE47"/>
<path d="M534.543 69.9637C537.523 69.9637 539.919 69.5077 541.798 68.6609C543.676 67.814 545.166 66.6414 546.202 65.1431C547.239 63.6448 547.951 62.0163 548.34 60.062C548.728 58.1728 548.923 56.1534 548.923 54.134V52.1145H564.339V54.134C564.339 63.5146 561.813 70.7455 556.696 75.8266C551.579 80.9078 544.194 83.4484 534.478 83.4484C525.151 83.4484 517.767 80.7123 512.326 75.2403C506.885 69.7683 504.164 61.7557 504.164 51.2025V33.6139C504.164 28.5978 504.877 24.0378 506.237 19.9989C507.662 15.9601 509.67 12.5726 512.326 9.83661C514.981 7.1006 518.155 5.01602 521.912 3.51772C525.669 2.01943 529.815 1.30286 534.478 1.30286C539.272 1.30286 543.547 1.95429 547.303 3.3223C551.06 4.6903 554.17 6.6446 556.696 9.18518C559.222 11.7258 561.1 14.8526 562.396 18.4355C563.691 22.0184 564.339 26.1224 564.339 30.6173V32.6367H548.923V30.6173C548.923 28.7281 548.664 26.839 548.21 24.9498C547.757 23.0607 546.98 21.3669 545.878 19.8687C544.777 18.3704 543.288 17.1326 541.474 16.2206C539.595 15.3086 537.264 14.7875 534.478 14.7875C531.887 14.7875 529.685 15.2435 527.807 16.2206C525.928 17.1326 524.374 18.4355 523.143 20.0641C521.912 21.6927 521.005 23.5818 520.422 25.7315C519.839 27.8813 519.58 30.0961 519.58 32.4413V52.3099C519.58 54.8505 519.839 57.1957 520.422 59.3454C520.941 61.4951 521.847 63.3191 523.013 64.9477C524.179 66.5111 525.734 67.7489 527.612 68.5957C529.491 69.5077 531.823 69.9637 534.543 69.9637Z" fill="#145B2C"/>
<path d="M532.6 68.6609C535.579 68.6609 537.976 68.2049 539.854 67.358C541.733 66.5112 543.223 65.3386 544.259 63.8403C545.295 62.342 546.008 60.7134 546.397 58.7591C546.785 56.87 546.98 54.8505 546.98 52.8311V50.8117H562.396V52.8311C562.396 62.2117 559.87 69.4426 554.752 74.5238C549.635 79.6049 542.251 82.1455 532.535 82.1455C523.208 82.1455 515.823 79.4095 510.382 73.9375C504.941 68.4654 502.221 60.4528 502.221 49.8997V32.311C502.221 27.295 502.933 22.735 504.294 18.6961C505.719 14.6572 507.727 11.2698 510.382 8.53376C513.038 5.79774 516.212 3.71316 519.969 2.21487C523.726 0.716576 527.871 0 532.535 0C537.328 0 541.603 0.651435 545.36 2.01944C549.117 3.38745 552.226 5.34174 554.752 7.88232C557.279 10.4229 559.157 13.5498 560.453 17.1326C561.748 20.7155 562.396 24.8195 562.396 29.3144V31.3339H546.98V29.3144C546.98 27.4253 546.72 25.5361 546.267 23.647C545.814 21.7578 545.036 20.0641 543.935 18.5658C542.834 17.0675 541.344 15.8298 539.531 14.9178C537.652 14.0058 535.32 13.4846 532.535 13.4846C529.944 13.4846 527.742 13.9406 525.863 14.9178C523.985 15.8298 522.43 17.1326 521.2 18.7612C519.969 20.3898 519.062 22.279 518.479 24.4287C517.896 26.5784 517.637 28.7933 517.637 31.1384V51.0071C517.637 53.5477 517.896 55.8928 518.479 58.0425C518.997 60.1923 519.904 62.0163 521.07 63.6448C522.236 65.2083 523.791 66.446 525.669 67.2929C527.547 68.2049 529.879 68.6609 532.6 68.6609Z" fill="#1DDE47"/>
<path d="M64.6486 5.04654H116.208V19.2477H80.0647V37.2924H114.783V51.4936H80.0647V69.7337H117.633V83.9349H64.7133V5.04654H64.6486Z" fill="#145B2C"/>
<path d="M62.7054 3.74365H114.265V17.9449H78.1215V35.9895H112.84V50.1907H78.1215V68.4308H115.69V82.632H62.7701V3.74365H62.7054Z" fill="#1DDE47"/>
<path d="M568.544 5.04654H620.104V19.2477H583.96V37.2924H618.679V51.4936H583.96V69.7337H621.529V83.9349H568.609V5.04654H568.544Z" fill="#145B2C"/>
<path d="M566.601 3.74365H618.161V17.9449H582.017V35.9895H616.736V50.1907H582.017V68.4308H619.586V82.632H566.666V3.74365H566.601Z" fill="#1DDE47"/>
<path d="M20.6266 3.66299V10.2425H28.0261V13.8253H30.9727" stroke="#145B2C" stroke-width="0.75" stroke-miterlimit="10"/>
<path d="M1.50604 15.3888V22.1636H6.15523V26.5934H10.6735" stroke="#145B2C" stroke-width="0.75" stroke-miterlimit="10"/>
<path d="M14.4059 41.8369H4.32178" stroke="#145B2C" stroke-width="0.75" stroke-miterlimit="10"/>
<path d="M14.4059 46.006H4.32178" stroke="#145B2C" stroke-width="0.75" stroke-miterlimit="10"/>
<path d="M14.4059 50.566H4.32178" stroke="#145B2C" stroke-width="0.75" stroke-miterlimit="10"/>
<path d="M2.0954 82.6721V69.8484" stroke="#145B2C" stroke-width="0.75" stroke-miterlimit="10"/>
<path d="M20.59 30.5731L34.2757 28.0773" stroke="#145B2C" stroke-width="0.75" stroke-miterlimit="10"/>
<path d="M21.214 31.7355L34.9651 29.3252" stroke="#145B2C" stroke-width="0.75" stroke-miterlimit="10"/>
<path d="M26.9942 78.6428H49.504V65.3535" stroke="#145B2C" stroke-width="0.75" stroke-miterlimit="10"/>
<path d="M52.0578 10.959V25.942H57.4927" stroke="#145B2C" stroke-width="0.75" stroke-miterlimit="10"/>
<path d="M52.0578 16.3659H47.0157" stroke="#145B2C" stroke-width="0.75" stroke-miterlimit="10"/>
<path d="M52.0578 21.7076H47.0157" stroke="#145B2C" stroke-width="0.75" stroke-miterlimit="10"/>
<path d="M1.50607 15.5842C1.86772 15.5842 2.16089 15.2925 2.16089 14.9328C2.16089 14.573 1.86772 14.2813 1.50607 14.2813C1.14443 14.2813 0.851257 14.573 0.851257 14.9328C0.851257 15.2925 1.14443 15.5842 1.50607 15.5842Z" fill="#145B2C"/>
<path d="M4.32178 42.4884C4.68342 42.4884 4.97659 42.1967 4.97659 41.8369C4.97659 41.4771 4.68342 41.1855 4.32178 41.1855C3.96013 41.1855 3.66696 41.4771 3.66696 41.8369C3.66696 42.1967 3.96013 42.4884 4.32178 42.4884Z" fill="#145B2C"/>
<path d="M4.32178 46.6574C4.68342 46.6574 4.97659 46.3658 4.97659 46.006C4.97659 45.6462 4.68342 45.3546 4.32178 45.3546C3.96013 45.3546 3.66696 45.6462 3.66696 46.006C3.66696 46.3658 3.96013 46.6574 4.32178 46.6574Z" fill="#145B2C"/>
<path d="M4.32178 51.2175C4.68342 51.2175 4.97659 50.9258 4.97659 50.566C4.97659 50.2063 4.68342 49.9146 4.32178 49.9146C3.96013 49.9146 3.66696 50.2063 3.66696 50.566C3.66696 50.9258 3.96013 51.2175 4.32178 51.2175Z" fill="#145B2C"/>
<path d="M47.0157 22.3591C47.3774 22.3591 47.6705 22.0674 47.6705 21.7076C47.6705 21.3479 47.3774 21.0562 47.0157 21.0562C46.6541 21.0562 46.3609 21.3479 46.3609 21.7076C46.3609 22.0674 46.6541 22.3591 47.0157 22.3591Z" fill="#145B2C"/>
<path d="M67.3842 53.8884C67.7458 53.8884 68.039 53.5967 68.039 53.2369C68.039 52.8772 67.7458 52.5855 67.3842 52.5855C67.0225 52.5855 66.7293 52.8772 66.7293 53.2369C66.7293 53.5967 67.0225 53.8884 67.3842 53.8884Z" fill="#145B2C"/>
<path d="M92.1325 79.2942C92.4941 79.2942 92.7873 79.0025 92.7873 78.6428C92.7873 78.283 92.4941 77.9913 92.1325 77.9913C91.7708 77.9913 91.4776 78.283 91.4776 78.6428C91.4776 79.0025 91.7708 79.2942 92.1325 79.2942Z" fill="#145B2C"/>
<path d="M98.4187 79.2942C98.7803 79.2942 99.0735 79.0025 99.0735 78.6428C99.0735 78.283 98.7803 77.9913 98.4187 77.9913C98.057 77.9913 97.7639 78.283 97.7639 78.6428C97.7639 79.0025 98.057 79.2942 98.4187 79.2942Z" fill="#145B2C"/>
<path d="M163.222 66.917C163.584 66.917 163.877 66.6253 163.877 66.2656C163.877 65.9058 163.584 65.6141 163.222 65.6141C162.86 65.6141 162.567 65.9058 162.567 66.2656C162.567 66.6253 162.86 66.917 163.222 66.917Z" fill="#145B2C"/>
<path d="M171.145 35.7134C171.507 35.7134 171.8 35.4218 171.8 35.062C171.8 34.7022 171.507 34.4106 171.145 34.4106C170.784 34.4106 170.49 34.7022 170.49 35.062C170.49 35.4218 170.784 35.7134 171.145 35.7134Z" fill="#145B2C"/>
<path d="M171.145 29.1991C171.507 29.1991 171.8 28.9074 171.8 28.5477C171.8 28.1879 171.507 27.8962 171.145 27.8962C170.784 27.8962 170.49 28.1879 170.49 28.5477C170.49 28.9074 170.784 29.1991 171.145 29.1991Z" fill="#145B2C"/>
<path d="M189.676 10.9315C190.038 10.9315 190.331 10.6399 190.331 10.2801C190.331 9.92032 190.038 9.62866 189.676 9.62866C189.315 9.62866 189.022 9.92032 189.022 10.2801C189.022 10.6399 189.315 10.9315 189.676 10.9315Z" fill="#145B2C"/>
<path d="M205.981 41.8094C206.343 41.8094 206.636 41.5177 206.636 41.158C206.636 40.7982 206.343 40.5065 205.981 40.5065C205.62 40.5065 205.327 40.7982 205.327 41.158C205.327 41.5177 205.62 41.8094 205.981 41.8094Z" fill="#145B2C"/>
<path d="M208.666 41.8094C209.028 41.8094 209.321 41.5177 209.321 41.158C209.321 40.7982 209.028 40.5065 208.666 40.5065C208.304 40.5065 208.011 40.7982 208.011 41.158C208.011 41.5177 208.304 41.8094 208.666 41.8094Z" fill="#145B2C"/>
<path d="M243.795 23.4665C244.157 23.4665 244.45 23.1749 244.45 22.8151C244.45 22.4553 244.157 22.1637 243.795 22.1637C243.433 22.1637 243.14 22.4553 243.14 22.8151C243.14 23.1749 243.433 23.4665 243.795 23.4665Z" fill="#145B2C"/>
<path d="M242.551 31.6094C242.913 31.6094 243.206 31.3178 243.206 30.958C243.206 30.5982 242.913 30.3065 242.551 30.3065C242.189 30.3065 241.896 30.5982 241.896 30.958C241.896 31.3178 242.189 31.6094 242.551 31.6094Z" fill="#145B2C"/>
<path d="M250.278 71.477C250.639 71.477 250.933 71.1854 250.933 70.8256C250.933 70.4658 250.639 70.1742 250.278 70.1742C249.916 70.1742 249.623 70.4658 249.623 70.8256C249.623 71.1854 249.916 71.477 250.278 71.477Z" fill="#145B2C"/>
<path d="M279.41 74.7342C279.771 74.7342 280.064 74.4425 280.064 74.0828C280.064 73.723 279.771 73.4313 279.41 73.4313C279.048 73.4313 278.755 73.723 278.755 74.0828C278.755 74.4425 279.048 74.7342 279.41 74.7342Z" fill="#145B2C"/>
<path d="M290.645 48.9375C291.007 48.9375 291.3 48.6458 291.3 48.286C291.3 47.9263 291.007 47.6346 290.645 47.6346C290.284 47.6346 289.99 47.9263 289.99 48.286C289.99 48.6458 290.284 48.9375 290.645 48.9375Z" fill="#145B2C"/>
<path d="M290.645 43.5958C291.007 43.5958 291.3 43.3041 291.3 42.9443C291.3 42.5846 291.007 42.2929 290.645 42.2929C290.284 42.2929 289.99 42.5846 289.99 42.9443C289.99 43.3041 290.284 43.5958 290.645 43.5958Z" fill="#145B2C"/>
<path d="M290.645 37.9934C291.007 37.9934 291.3 37.7018 291.3 37.342C291.3 36.9822 291.007 36.6906 290.645 36.6906C290.284 36.6906 289.99 36.9822 289.99 37.342C289.99 37.7018 290.284 37.9934 290.645 37.9934Z" fill="#145B2C"/>
<path d="M321.291 8.22303C321.652 8.22303 321.945 7.93138 321.945 7.5716C321.945 7.21182 321.652 6.92017 321.291 6.92017C320.929 6.92017 320.636 7.21182 320.636 7.5716C320.636 7.93138 320.929 8.22303 321.291 8.22303Z" fill="#145B2C"/>
<path d="M344.502 8.22303C344.863 8.22303 345.157 7.93138 345.157 7.5716C345.157 7.21182 344.863 6.92017 344.502 6.92017C344.14 6.92017 343.847 7.21182 343.847 7.5716C343.847 7.93138 344.14 8.22303 344.502 8.22303Z" fill="#145B2C"/>
<path d="M384.769 37.6677C385.131 37.6677 385.424 37.3761 385.424 37.0163C385.424 36.6565 385.131 36.3649 384.769 36.3649C384.408 36.3649 384.114 36.6565 384.114 37.0163C384.114 37.3761 384.408 37.6677 384.769 37.6677Z" fill="#145B2C"/>
<path d="M414.105 12.7179C414.467 12.7179 414.76 12.4262 414.76 12.0665C414.76 11.7067 414.467 11.415 414.105 11.415C413.743 11.415 413.45 11.7067 413.45 12.0665C413.45 12.4262 413.743 12.7179 414.105 12.7179Z" fill="#145B2C"/>
<path d="M442.786 18.2551C443.147 18.2551 443.441 17.9634 443.441 17.6036C443.441 17.2439 443.147 16.9522 442.786 16.9522C442.424 16.9522 442.131 17.2439 442.131 17.6036C442.131 17.9634 442.424 18.2551 442.786 18.2551Z" fill="#145B2C"/>
<path d="M446.256 45.1592C446.618 45.1592 446.911 44.8675 446.911 44.5078C446.911 44.148 446.618 43.8563 446.256 43.8563C445.895 43.8563 445.602 44.148 445.602 44.5078C445.602 44.8675 445.895 45.1592 446.256 45.1592Z" fill="#145B2C"/>
<path d="M466.097 27.1145C466.459 27.1145 466.752 26.8228 466.752 26.4631C466.752 26.1033 466.459 25.8116 466.097 25.8116C465.736 25.8116 465.442 26.1033 465.442 26.4631C465.442 26.8228 465.736 27.1145 466.097 27.1145Z" fill="#145B2C"/>
<path d="M512.589 16.3659C512.951 16.3659 513.244 16.0743 513.244 15.7145C513.244 15.3547 512.951 15.063 512.589 15.063C512.227 15.063 511.934 15.3547 511.934 15.7145C511.934 16.0743 512.227 16.3659 512.589 16.3659Z" fill="#145B2C"/>
<path d="M506.237 47.8952C506.599 47.8952 506.892 47.6035 506.892 47.2438C506.892 46.884 506.599 46.5923 506.237 46.5923C505.876 46.5923 505.583 46.884 505.583 47.2438C505.583 47.6035 505.876 47.8952 506.237 47.8952Z" fill="#145B2C"/>
<path d="M512.589 53.8884C512.951 53.8884 513.244 53.5967 513.244 53.2369C513.244 52.8772 512.951 52.5855 512.589 52.5855C512.227 52.5855 511.934 52.8772 511.934 53.2369C511.934 53.5967 512.227 53.8884 512.589 53.8884Z" fill="#145B2C"/>
<path d="M576.695 13.1087C577.057 13.1087 577.35 12.8171 577.35 12.4573C577.35 12.0975 577.057 11.8059 576.695 11.8059C576.334 11.8059 576.041 12.0975 576.041 12.4573C576.041 12.8171 576.334 13.1087 576.695 13.1087Z" fill="#145B2C"/>
<path d="M573.225 41.9672C573.587 41.9672 573.88 41.6755 573.88 41.3157C573.88 40.956 573.587 40.6643 573.225 40.6643C572.863 40.6643 572.57 40.956 572.57 41.3157C572.57 41.6755 572.863 41.9672 573.225 41.9672Z" fill="#145B2C"/>
<path d="M631.7 25.3556C632.062 25.3556 632.355 25.064 632.355 24.7042C632.355 24.3444 632.062 24.0528 631.7 24.0528C631.338 24.0528 631.045 24.3444 631.045 24.7042C631.045 25.064 631.338 25.3556 631.7 25.3556Z" fill="#145B2C"/>
<path d="M631.7 29.2643C632.062 29.2643 632.355 28.9726 632.355 28.6128C632.355 28.2531 632.062 27.9614 631.7 27.9614C631.338 27.9614 631.045 28.2531 631.045 28.6128C631.045 28.9726 631.338 29.2643 631.7 29.2643Z" fill="#145B2C"/>
<path d="M673.804 77.4701C674.166 77.4701 674.459 77.1785 674.459 76.8187C674.459 76.459 674.166 76.1673 673.804 76.1673C673.443 76.1673 673.15 76.459 673.15 76.8187C673.15 77.1785 673.443 77.4701 673.804 77.4701Z" fill="#145B2C"/>
<path d="M593.655 78.0565C594.017 78.0565 594.31 77.7648 594.31 77.405C594.31 77.0453 594.017 76.7536 593.655 76.7536C593.294 76.7536 593 77.0453 593 77.405C593 77.7648 593.294 78.0565 593.655 78.0565Z" fill="#145B2C"/>
<path d="M597.911 78.0565C598.273 78.0565 598.566 77.7648 598.566 77.405C598.566 77.0453 598.273 76.7536 597.911 76.7536C597.55 76.7536 597.257 77.0453 597.257 77.405C597.257 77.7648 597.55 78.0565 597.911 78.0565Z" fill="#145B2C"/>
<path d="M556.003 21.5774C556.365 21.5774 556.658 21.2857 556.658 20.9259C556.658 20.5662 556.365 20.2745 556.003 20.2745C555.642 20.2745 555.348 20.5662 555.348 20.9259C555.348 21.2857 555.642 21.5774 556.003 21.5774Z" fill="#145B2C"/>
<path d="M446.256 18.2551C446.618 18.2551 446.911 17.9634 446.911 17.6036C446.911 17.2439 446.618 16.9522 446.256 16.9522C445.895 16.9522 445.602 17.2439 445.602 17.6036C445.602 17.9634 445.895 18.2551 446.256 18.2551Z" fill="#145B2C"/>
<path d="M382.215 43.0095C382.577 43.0095 382.87 42.7178 382.87 42.358C382.87 41.9983 382.577 41.7066 382.215 41.7066C381.854 41.7066 381.561 41.9983 381.561 42.358C381.561 42.7178 381.854 43.0095 382.215 43.0095Z" fill="#145B2C"/>
<path d="M341.817 48.2209C342.179 48.2209 342.472 47.9292 342.472 47.5695C342.472 47.2097 342.179 46.918 341.817 46.918C341.455 46.918 341.162 47.2097 341.162 47.5695C341.162 47.9292 341.455 48.2209 341.817 48.2209Z" fill="#145B2C"/>
<path d="M227.656 65.3912C228.017 65.3912 228.311 65.0995 228.311 64.7397C228.311 64.38 228.017 64.0883 227.656 64.0883C227.294 64.0883 227.001 64.38 227.001 64.7397C227.001 65.0995 227.294 65.3912 227.656 65.3912Z" fill="#145B2C"/>
<path d="M128.517 15.2585C128.878 15.2585 129.172 14.9668 129.172 14.607C129.172 14.2473 128.878 13.9556 128.517 13.9556C128.155 13.9556 127.862 14.2473 127.862 14.607C127.862 14.9668 128.155 15.2585 128.517 15.2585Z" fill="#145B2C"/>
<path d="M86.2391 79.2942C86.6007 79.2942 86.8939 79.0025 86.8939 78.6428C86.8939 78.283 86.6007 77.9913 86.2391 77.9913C85.8774 77.9913 85.5843 78.283 85.5843 78.6428C85.5843 79.0025 85.8774 79.2942 86.2391 79.2942Z" fill="#145B2C"/>
<path d="M67.3842 59.6209C67.7458 59.6209 68.039 59.3293 68.039 58.9695C68.039 58.6097 67.7458 58.3181 67.3842 58.3181C67.0225 58.3181 66.7293 58.6097 66.7293 58.9695C66.7293 59.3293 67.0225 59.6209 67.3842 59.6209Z" fill="#145B2C"/>
<path d="M68.952 13.1087C69.3136 13.1087 69.6068 12.8171 69.6068 12.4573C69.6068 12.0975 69.3136 11.8059 68.952 11.8059C68.5904 11.8059 68.2972 12.0975 68.2972 12.4573C68.2972 12.8171 68.5904 13.1087 68.952 13.1087Z" fill="#145B2C"/>
<path d="M47.0157 17.0173C47.3774 17.0173 47.6705 16.7257 47.6705 16.3659C47.6705 16.0061 47.3774 15.7145 47.0157 15.7145C46.6541 15.7145 46.3609 16.0061 46.3609 16.3659C46.3609 16.7257 46.6541 17.0173 47.0157 17.0173Z" fill="#145B2C"/>
<path d="M49.504 65.8096C49.8656 65.8096 50.1588 65.5179 50.1588 65.1581C50.1588 64.7983 49.8656 64.5067 49.504 64.5067C49.1424 64.5067 48.8492 64.7983 48.8492 65.1581C48.8492 65.5179 49.1424 65.8096 49.504 65.8096Z" fill="#145B2C"/>
<path d="M84.2319 18.4063L84.2092 12.4573H69.0175" stroke="#145B2C" stroke-width="0.75" stroke-miterlimit="10"/>
<path d="M98.4187 3.46759V9.0699H105.622V18.0943" stroke="#145B2C" stroke-width="0.75" stroke-miterlimit="10"/>
<path d="M62.7554 33.4334H67.3842V53.2369" stroke="#145B2C" stroke-width="0.75" stroke-miterlimit="10"/>
<path d="M81.6554 35.9666V41.8745H89.7096V50.5386" stroke="#145B2C" stroke-width="0.75" stroke-miterlimit="10"/>
<path d="M109.485 41.5112V35.9849" stroke="#145B2C" stroke-width="0.75" stroke-miterlimit="10"/>
<path d="M109.747 41.5111H100.645V50.5391" stroke="#145B2C" stroke-width="0.75" stroke-miterlimit="10"/>
<path d="M62.7555 79.685H67.3842V58.9695" stroke="#145B2C" stroke-width="0.75" stroke-miterlimit="10"/>
<path d="M86.2391 68.2198V78.6427" stroke="#145B2C" stroke-width="0.75" stroke-miterlimit="10"/>
<path d="M92.1324 68.2198V78.6427" stroke="#145B2C" stroke-width="0.75" stroke-miterlimit="10"/>
<path d="M98.4187 68.2198V78.6427" stroke="#145B2C" stroke-width="0.75" stroke-miterlimit="10"/>
<path d="M111.58 3.46759V18.0943" stroke="#145B2C" stroke-width="0.75" stroke-miterlimit="10"/>
<path d="M128.517 14.6071H135.13" stroke="#145B2C" stroke-width="0.75" stroke-miterlimit="10"/>
<path d="M120.135 26.6585H125.832V41.5112H120.135" stroke="#145B2C" stroke-width="0.75" stroke-miterlimit="10"/>
<path d="M120.201 55.7775H125.177V49.3935H132.708V38.9706H135.13" stroke="#145B2C" stroke-width="0.75" stroke-miterlimit="10"/>
<path d="M143.119 82.0954V74.7342H148.423V68.8062" stroke="#145B2C" stroke-width="0.75" stroke-miterlimit="10"/>
<path d="M177.431 54.3444H171.669V66.2656H163.222" stroke="#145B2C" stroke-width="0.75" stroke-miterlimit="10"/>
<path d="M162.436 35.062H171.342" stroke="#145B2C" stroke-width="0.75" stroke-miterlimit="10"/>
<path d="M162.436 28.6129H171.342" stroke="#145B2C" stroke-width="0.75" stroke-miterlimit="10"/>
<path d="M162.436 8.22302H177.431" stroke="#145B2C" stroke-width="0.75" stroke-miterlimit="10"/>
<path d="M162.436 10.5682H177.431" stroke="#145B2C" stroke-width="0.75" stroke-miterlimit="10"/>
<path d="M181.622 23.439H196.552" stroke="#145B2C" stroke-width="0.75" stroke-miterlimit="10"/>
<path d="M181.622 20.8984H196.552" stroke="#145B2C" stroke-width="0.75" stroke-miterlimit="10"/>
<path d="M189.676 10.2801H203.362V18.2927" stroke="#145B2C" stroke-width="0.75" stroke-miterlimit="10"/>
<path d="M221.893 28.5853H236.889" stroke="#145B2C" stroke-width="0.75" stroke-miterlimit="10"/>
<path d="M196.552 35.0345H183.652V56.9226H181.622" stroke="#145B2C" stroke-width="0.75" stroke-miterlimit="10"/>
<path d="M205.981 41.158V53.2746" stroke="#145B2C" stroke-width="0.75" stroke-miterlimit="10"/>
<path d="M208.666 41.158V53.2746" stroke="#145B2C" stroke-width="0.75" stroke-miterlimit="10"/>
<path d="M227.656 83.045V64.4792" stroke="#145B2C" stroke-width="0.75" stroke-miterlimit="10"/>
<path d="M196.552 71.4495H189.676V83.045" stroke="#145B2C" stroke-width="0.75" stroke-miterlimit="10"/>
<path d="M281.281 37.342H290.645" stroke="#145B2C" stroke-width="0.75" stroke-miterlimit="10"/>
<path d="M281.281 42.9443H290.645" stroke="#145B2C" stroke-width="0.75" stroke-miterlimit="10"/>
<path d="M281.281 48.2861H290.645" stroke="#145B2C" stroke-width="0.75" stroke-miterlimit="10"/>
<path d="M266.968 16.7567V3.53268" stroke="#145B2C" stroke-width="0.75" stroke-miterlimit="10"/>
<path d="M264.349 17.3807V4.15665" stroke="#145B2C" stroke-width="0.75" stroke-miterlimit="10"/>
<path d="M254.73 38.4494H247.986V22.8151H243.795" stroke="#145B2C" stroke-width="0.75" stroke-miterlimit="10"/>
<path d="M240.521 53.2369H250.278V70.8256" stroke="#145B2C" stroke-width="0.75" stroke-miterlimit="10"/>
<path d="M265.789 69.3925V74.0828H279.41" stroke="#145B2C" stroke-width="0.75" stroke-miterlimit="10"/>
<path d="M247.986 30.958H242.485" stroke="#145B2C" stroke-width="0.75" stroke-miterlimit="10"/>
<path d="M299.803 7.57156H321.291" stroke="#145B2C" stroke-width="0.75" stroke-miterlimit="10"/>
<path d="M366.307 7.57156H344.502" stroke="#145B2C" stroke-width="0.75" stroke-miterlimit="10"/>
<path d="M299.803 20.5351H306.95V42.9443H314.153" stroke="#145B2C" stroke-width="0.75" stroke-miterlimit="10"/>
<path d="M299.803 66.3032H309.831V83.045" stroke="#145B2C" stroke-width="0.75" stroke-miterlimit="10"/>
<path d="M317.585 41.1322L329.765 39.3082" stroke="#145B2C" stroke-width="0.75" stroke-miterlimit="10"/>
<path d="M317.782 43.8683L329.961 42.0443" stroke="#145B2C" stroke-width="0.75" stroke-miterlimit="10"/>
<path d="M336.64 83.1753V69.3649H344.76" stroke="#145B2C" stroke-width="0.75" stroke-miterlimit="10"/>
<path d="M352.163 50.8266H366.307" stroke="#145B2C" stroke-width="0.75" stroke-miterlimit="10"/>
<path d="M352.163 54.8004H366.307" stroke="#145B2C" stroke-width="0.75" stroke-miterlimit="10"/>
<path d="M349.02 31.7397H341.817V47.6998" stroke="#145B2C" stroke-width="0.75" stroke-miterlimit="10"/>
<path d="M398.389 23.2059H391.907V2.22983" stroke="#145B2C" stroke-width="0.75" stroke-miterlimit="10"/>
<path d="M409.063 2.22983V12.0664H414.105" stroke="#145B2C" stroke-width="0.75" stroke-miterlimit="10"/>
<path d="M395.246 37.0163H384.769" stroke="#145B2C" stroke-width="0.75" stroke-miterlimit="10"/>
<path d="M394.264 42.358H382.215" stroke="#145B2C" stroke-width="0.75" stroke-miterlimit="10"/>
<path d="M405.658 50.8266V57.1455H418.492V47.5695H427.136" stroke="#145B2C" stroke-width="0.75" stroke-miterlimit="10"/>
<path d="M417.51 74.2781L432.636 72.0633" stroke="#145B2C" stroke-width="0.75" stroke-miterlimit="10"/>
<path d="M418.165 77.2747L433.356 75.0599" stroke="#145B2C" stroke-width="0.75" stroke-miterlimit="10"/>
<path d="M374.364 66.1377L381.129 68.5763V75.4968H388.091" stroke="#145B2C" stroke-width="0.75" stroke-miterlimit="10"/>
<path d="M489.081 3.46759V12.6528L497.987 12.7179" stroke="#145B2C" stroke-width="0.75" stroke-miterlimit="10"/>
<path d="M482.14 42.358H489.081V30.958H497.987" stroke="#145B2C" stroke-width="0.75" stroke-miterlimit="10"/>
<path d="M446.191 44.5077H452.346V27.8962H455.489" stroke="#145B2C" stroke-width="0.75" stroke-miterlimit="10"/>
<path d="M442.786 3.46759V17.6037" stroke="#145B2C" stroke-width="0.75" stroke-miterlimit="10"/>
<path d="M446.256 3.46759V17.6037" stroke="#145B2C" stroke-width="0.75" stroke-miterlimit="10"/>
<path d="M439.053 67.373H446.191V82.4211" stroke="#145B2C" stroke-width="0.75" stroke-miterlimit="10"/>
<path d="M466.097 26.4631L474.282 82.421" stroke="#145B2C" stroke-width="0.75" stroke-miterlimit="10"/>
<path d="M517.566 32.0003H512.589V15.7145" stroke="#145B2C" stroke-width="0.75" stroke-miterlimit="10"/>
<path d="M517.566 47.2437H506.237" stroke="#145B2C" stroke-width="0.75" stroke-miterlimit="10"/>
<path d="M502.112 53.2369H512.589" stroke="#145B2C" stroke-width="0.75" stroke-miterlimit="10"/>
<path d="M530.924 68.8062V75.3856H536.948V82.4211" stroke="#145B2C" stroke-width="0.75" stroke-miterlimit="10"/>
<path d="M553.122 51.022V77.405" stroke="#145B2C" stroke-width="0.75" stroke-miterlimit="10"/>
<path d="M556.658 51.022V74.5387" stroke="#145B2C" stroke-width="0.75" stroke-miterlimit="10"/>
<path d="M532.692 0.275574V11.3499H558.426" stroke="#145B2C" stroke-width="0.75" stroke-miterlimit="10"/>
<path d="M550.437 20.9259V11.3499" stroke="#145B2C" stroke-width="0.75" stroke-miterlimit="10"/>
<path d="M556.003 20.9259V11.3499" stroke="#145B2C" stroke-width="0.75" stroke-miterlimit="10"/>
<path d="M576.695 3.46759V12.4573" stroke="#145B2C" stroke-width="0.75" stroke-miterlimit="10"/>
<path d="M597.911 18.0943V10.6333H605.376V3.46759" stroke="#145B2C" stroke-width="0.75" stroke-miterlimit="10"/>
<path d="M582.523 27.31H573.225V41.3157" stroke="#145B2C" stroke-width="0.75" stroke-miterlimit="10"/>
<path d="M601.644 35.994V41.7065H606.948V50.4357" stroke="#145B2C" stroke-width="0.75" stroke-miterlimit="10"/>
<path d="M566.657 58.5135H575.32V65.4187H582.785" stroke="#145B2C" stroke-width="0.75" stroke-miterlimit="10"/>
<path d="M597.911 68.3214V77.405" stroke="#145B2C" stroke-width="0.75" stroke-miterlimit="10"/>
<path d="M593.679 68.3214L593.721 77.405" stroke="#145B2C" stroke-width="0.75" stroke-miterlimit="10"/>
<path d="M636.546 3.46759V9.26533H653.44V3.46759" stroke="#145B2C" stroke-width="0.75" stroke-miterlimit="10"/>
<path d="M639.427 24.7042H631.7" stroke="#145B2C" stroke-width="0.75" stroke-miterlimit="10"/>
<path d="M639.427 28.6129H631.7" stroke="#145B2C" stroke-width="0.75" stroke-miterlimit="10"/>
<path d="M624.252 59.4907H639.427" stroke="#145B2C" stroke-width="0.75" stroke-miterlimit="10"/>
<path d="M624.252 64.181H639.427" stroke="#145B2C" stroke-width="0.75" stroke-miterlimit="10"/>
<path d="M624.252 73.4313H630.259V78.0565H639.427" stroke="#145B2C" stroke-width="0.75" stroke-miterlimit="10"/>
<path d="M650.624 38.6843V43.8563H658.024V53.2369" stroke="#145B2C" stroke-width="0.75" stroke-miterlimit="10"/>
<path d="M663.851 23.1408L677.471 15.4539" stroke="#145B2C" stroke-width="0.75" stroke-miterlimit="10"/>
<path d="M664.703 25.5511L678.847 17.6687" stroke="#145B2C" stroke-width="0.75" stroke-miterlimit="10"/>
<path d="M662 65.7444H669.09V76.8188H673.805" stroke="#145B2C" stroke-width="0.75" stroke-miterlimit="10"/>
<path d="M10.5724 27.3781C10.8978 27.3781 11.1617 27.1156 11.1617 26.7918C11.1617 26.468 10.8978 26.2055 10.5724 26.2055C10.2469 26.2055 9.98303 26.468 9.98303 26.7918C9.98303 27.1156 10.2469 27.3781 10.5724 27.3781Z" fill="#145B2C"/>
</svg>
