<svg width="133" height="175" viewBox="0 0 133 175" fill="none" xmlns="http://www.w3.org/2000/svg">
<path d="M102.685 45.5369C104.392 57.188 97.4159 65.3513 96.2285 66.6871C96.1543 66.8355 96.0801 66.9839 96.0059 67.1323C95.7833 68.6165 94.3733 76.4829 88.9559 78.9319C88.7332 79.0061 88.5848 79.3029 88.659 79.5256L95.7833 104.386C95.7833 104.386 104.243 107.132 100.384 115.073V118.709H108.102C108.102 118.709 112.629 120.564 110.625 125.536C110.625 125.536 132.221 133.254 131.998 174.219H9.84688C9.84688 174.219 5.69106 140.453 51.4793 119.451C51.7761 119.303 51.9245 119.006 51.9245 118.709C51.9245 116.631 50.9598 108.394 39.9024 99.7852L61.4978 51.3254L101.943 41.4553C102.314 41.3811 102.685 41.6779 102.685 42.049V45.5369Z" fill="#68FFBB" stroke="#145B2C" stroke-miterlimit="10"/>
<path d="M102.24 45.3881C97.9354 45.3881 63.4272 45.8334 59.1972 66.6867V66.7609V78.9315C59.1972 78.9315 58.6777 94.5158 39.8281 99.6364C39.8281 99.6364 25.8764 103.05 17.8616 100.007C17.4164 99.859 17.0453 99.4138 17.0453 98.8943V92.0669C17.0453 91.8442 16.9711 91.6216 16.8227 91.4732L13.7058 88.5047C13.4832 88.3563 13.409 88.0595 13.409 87.7626V85.7589C13.409 85.4621 13.2606 85.2394 13.1121 85.0168C12.5184 84.4231 11.1826 83.0873 10.8116 81.2321C10.7374 80.9352 10.5147 80.7126 10.2921 80.7126L4.42943 79.5994C4.42943 79.5994 4.42943 79.5994 4.35522 79.5994C3.98417 79.451 -0.913763 77.7441 1.83205 72.4009C1.90626 72.3267 1.90626 72.2525 1.98047 72.1783L13.3348 58.4493C13.5574 58.2266 13.5574 57.8556 13.409 57.6329C11.9248 54.5903 3.90996 36.3344 15.8579 20.6016C15.8579 20.6016 38.3439 -9.45387 75.2268 4.86887C75.2268 4.86887 101.794 13.7742 102.611 44.9428C102.685 45.1655 102.462 45.3881 102.24 45.3881Z" fill="#68FFBB" stroke="#145B2C" stroke-miterlimit="10"/>
<path d="M39.4571 27.355H30.626V42.123" stroke="#145B2C" stroke-miterlimit="10"/>
<path d="M39.457 30.8428H32.8523V36.7054" stroke="#145B2C" stroke-miterlimit="10"/>
<path d="M45.6166 38.4863V42.1227L39.4571 47.3174" stroke="#145B2C" stroke-miterlimit="10"/>
<path d="M48.8077 38.4863V42.1227L42.4997 47.3174" stroke="#145B2C" stroke-miterlimit="10"/>
<path d="M51.8503 38.4863V42.1227" stroke="#145B2C" stroke-miterlimit="10"/>
<path d="M44.3549 23.1995V16.8174" stroke="#145B2C" stroke-miterlimit="10"/>
<path d="M48.8077 23.1995V16.8174" stroke="#145B2C" stroke-miterlimit="10"/>
<path d="M53.4829 23.1995V16.8174" stroke="#145B2C" stroke-miterlimit="10"/>
<path d="M57.4161 27.3544H68.251L73.891 21.7144" stroke="#145B2C" stroke-miterlimit="10"/>
<path d="M57.4161 30.8428H69.4383L71.8873 33.2917L77.0821 38.4865" stroke="#145B2C" stroke-miterlimit="10"/>
<path d="M78.0468 27.355L71.8873 33.2919" stroke="#145B2C" stroke-miterlimit="10"/>
<path d="M64.0209 16.8174V27.3554" stroke="#145B2C" stroke-miterlimit="10"/>
<path d="M57.4161 20.0078H64.0209" stroke="#145B2C" stroke-miterlimit="10"/>
<path d="M57.4161 33.8115H60.7556H64.0209L70.8484 40.2679" stroke="#145B2C" stroke-miterlimit="10"/>
<path d="M60.7556 40.2679V33.8115" stroke="#145B2C" stroke-miterlimit="10"/>
<path d="M54.6703 27.355H42.4997V34.7019H54.6703V27.355Z" stroke="#145B2C" stroke-miterlimit="10"/>
<path d="M57.4162 23.1987H39.4571V38.412H57.4162V23.1987Z" stroke="#145B2C" stroke-miterlimit="10"/>
<path d="M45.6908 28.1714V33.292" stroke="#145B2C" stroke-miterlimit="10"/>
<path d="M48.4366 28.1714V33.292" stroke="#145B2C" stroke-miterlimit="10"/>
<path d="M51.3308 28.1714V33.292" stroke="#145B2C" stroke-miterlimit="10"/>
<path d="M80.6442 68.9126L94.0764 109.729" stroke="#145B2C" stroke-miterlimit="10"/>
<path d="M64.095 91.4736H81.5346" stroke="#145B2C" stroke-miterlimit="10"/>
<path d="M81.5347 95.8516H58.3067" stroke="#145B2C" stroke-miterlimit="10"/>
<path d="M53.4829 101.269H81.5347" stroke="#145B2C" stroke-miterlimit="10"/>
<path d="M81.5347 112.401H53.4829" stroke="#145B2C" stroke-miterlimit="10"/>
<path d="M78.0469 158.041V174.07" stroke="#145B2C" stroke-miterlimit="10"/>
<path d="M114.559 160.638V174.07" stroke="#145B2C" stroke-miterlimit="10"/>
<path d="M97.5644 139.785V146.686V155.888" stroke="#145B2C" stroke-miterlimit="10"/>
<path d="M97.5643 146.686H90.8853V151.287" stroke="#145B2C" stroke-miterlimit="10"/>
<path d="M97.5644 150.471H100.83H104.095V157.15" stroke="#145B2C" stroke-miterlimit="10"/>
<path d="M100.83 150.471V142.531" stroke="#145B2C" stroke-miterlimit="10"/>
<path d="M38.0471 150.471H26.767V160.712H38.0471V150.471Z" stroke="#145B2C" stroke-miterlimit="10"/>
<path d="M34.188 153.81H30.9969V157.15H34.188V153.81Z" stroke="#145B2C" stroke-miterlimit="10"/>
<path d="M28.7707 152.326V154.701V157.15V159.45" stroke="#145B2C" stroke-miterlimit="10"/>
<path d="M36.3402 152.326V159.45" stroke="#145B2C" stroke-miterlimit="10"/>
<path d="M26.767 152.846H19.4943" stroke="#145B2C" stroke-miterlimit="10"/>
<path d="M26.767 157.15H19.4943" stroke="#145B2C" stroke-miterlimit="10"/>
<path d="M29.1417 160.712V165.091H22.0917" stroke="#145B2C" stroke-miterlimit="10"/>
<path d="M22.0917 167.54H30.997V160.712" stroke="#145B2C" stroke-miterlimit="10"/>
<path d="M33.5202 160.712V168.43H37.676" stroke="#145B2C" stroke-miterlimit="10"/>
<path d="M35.5981 160.712V165.091H38.715" stroke="#145B2C" stroke-miterlimit="10"/>
<path d="M31.665 150.471V143.05" stroke="#145B2C" stroke-miterlimit="10"/>
<path d="M34.4107 150.471V143.05" stroke="#145B2C" stroke-miterlimit="10"/>
<path d="M38.0471 151.733H50.5145" stroke="#145B2C" stroke-miterlimit="10"/>
<path d="M38.0471 154.33H50.5145" stroke="#145B2C" stroke-miterlimit="10"/>
<path d="M38.0471 158.708H47.175V161.602H49.1787V169.543H55.1156" stroke="#145B2C" stroke-miterlimit="10"/>
<path d="M41.6091 158.857V156.631H46.5812" stroke="#145B2C" stroke-miterlimit="10"/>
<path d="M81.5347 106.315H53.4829" stroke="#145B2C" stroke-miterlimit="10"/>
<path d="M43.7614 13.6259C43.6129 13.6259 43.5387 13.7001 43.3903 13.7001C41.4608 13.9228 25.8023 16.0749 23.1307 30.3234C23.1307 30.3234 21.7949 37.0024 25.357 46.5756C25.4312 46.7983 25.5796 47.0209 25.7281 47.1693C26.8412 48.2825 31.7392 52.5867 37.4534 53.5515C37.4534 53.5515 45.9135 55.852 50.8114 51.2509C50.8856 51.1767 50.9598 51.1025 51.034 50.9541C51.6277 50.0636 55.4867 44.943 65.5794 45.314C65.6536 45.314 65.6536 45.314 65.7278 45.314C66.9152 45.2398 86.1359 44.0525 88.1396 36.1119C88.1396 35.9635 88.2138 35.8892 88.2138 35.7408V27.0581C88.2138 26.6871 88.0654 26.3902 87.8427 26.0934C86.0617 24.0155 77.8984 14.4422 68.8447 13.0322C68.7705 13.0322 68.6963 13.0322 68.6221 13.0322C67.0636 12.958 48.4367 12.587 43.7614 13.6259Z" stroke="#145B2C" stroke-miterlimit="10"/>
<path d="M79.7536 78.1898C85.3276 78.1898 89.8463 73.6712 89.8463 68.0971C89.8463 62.5231 85.3276 58.0044 79.7536 58.0044C74.1796 58.0044 69.6609 62.5231 69.6609 68.0971C69.6609 73.6712 74.1796 78.1898 79.7536 78.1898Z" stroke="#145B2C" stroke-miterlimit="10"/>
<path d="M79.7537 81.529C87.1721 81.529 93.1859 75.5152 93.1859 68.0968C93.1859 60.6784 87.1721 54.6646 79.7537 54.6646C72.3353 54.6646 66.3215 60.6784 66.3215 68.0968C66.3215 75.5152 72.3353 81.529 79.7537 81.529Z" stroke="#145B2C" stroke-miterlimit="10"/>
<path d="M96.8222 171.472C107.806 171.472 116.711 162.568 116.711 151.584C116.711 140.6 107.806 131.695 96.8222 131.695C85.8381 131.695 76.9337 140.6 76.9337 151.584C76.9337 162.568 85.8381 171.472 96.8222 171.472Z" stroke="#145B2C" stroke-miterlimit="10"/>
<path d="M96.8221 165.907C104.732 165.907 111.145 159.494 111.145 151.584C111.145 143.674 104.732 137.261 96.8221 137.261C88.9119 137.261 82.4994 143.674 82.4994 151.584C82.4994 159.494 88.9119 165.907 96.8221 165.907Z" stroke="#145B2C" stroke-miterlimit="10"/>
<path d="M94.6701 117.818C98.3997 117.818 101.423 114.794 101.423 111.065C101.423 107.335 98.3997 104.312 94.6701 104.312C90.9404 104.312 87.9168 107.335 87.9168 111.065C87.9168 114.794 90.9404 117.818 94.6701 117.818Z" stroke="#145B2C" stroke-miterlimit="10"/>
<path d="M30.6259 42.8651C31.0358 42.8651 31.368 42.5328 31.368 42.123C31.368 41.7131 31.0358 41.3809 30.6259 41.3809C30.2161 41.3809 29.8838 41.7131 29.8838 42.123C29.8838 42.5328 30.2161 42.8651 30.6259 42.8651Z" fill="#145B2C"/>
<path d="M32.8523 37.3729C33.2621 37.3729 33.5944 37.0406 33.5944 36.6308C33.5944 36.2209 33.2621 35.8887 32.8523 35.8887C32.4424 35.8887 32.1102 36.2209 32.1102 36.6308C32.1102 37.0406 32.4424 37.3729 32.8523 37.3729Z" fill="#145B2C"/>
<path d="M44.3549 17.5589C44.7648 17.5589 45.0971 17.2267 45.0971 16.8168C45.0971 16.407 44.7648 16.0747 44.3549 16.0747C43.9451 16.0747 43.6128 16.407 43.6128 16.8168C43.6128 17.2267 43.9451 17.5589 44.3549 17.5589Z" fill="#145B2C"/>
<path d="M53.4829 17.5589C53.8928 17.5589 54.225 17.2267 54.225 16.8168C54.225 16.407 53.8928 16.0747 53.4829 16.0747C53.0731 16.0747 52.7408 16.407 52.7408 16.8168C52.7408 17.2267 53.0731 17.5589 53.4829 17.5589Z" fill="#145B2C"/>
<path d="M64.021 17.5589C64.4309 17.5589 64.7631 17.2267 64.7631 16.8168C64.7631 16.407 64.4309 16.0747 64.021 16.0747C63.6112 16.0747 63.2789 16.407 63.2789 16.8168C63.2789 17.2267 63.6112 17.5589 64.021 17.5589Z" fill="#145B2C"/>
<path d="M78.0468 28.097C78.4567 28.097 78.7889 27.7648 78.7889 27.3549C78.7889 26.945 78.4567 26.6128 78.0468 26.6128C77.6369 26.6128 77.3047 26.945 77.3047 27.3549C77.3047 27.7648 77.6369 28.097 78.0468 28.097Z" fill="#145B2C"/>
<path d="M77.0821 39.2284C77.492 39.2284 77.8242 38.8961 77.8242 38.4863C77.8242 38.0764 77.492 37.7441 77.0821 37.7441C76.6723 37.7441 76.34 38.0764 76.34 38.4863C76.34 38.8961 76.6723 39.2284 77.0821 39.2284Z" fill="#145B2C"/>
<path d="M60.7557 41.0096C61.1655 41.0096 61.4978 40.6774 61.4978 40.2675C61.4978 39.8576 61.1655 39.5254 60.7557 39.5254C60.3458 39.5254 60.0136 39.8576 60.0136 40.2675C60.0136 40.6774 60.3458 41.0096 60.7557 41.0096Z" fill="#145B2C"/>
<path d="M70.8483 41.0096C71.2582 41.0096 71.5904 40.6774 71.5904 40.2675C71.5904 39.8576 71.2582 39.5254 70.8483 39.5254C70.4385 39.5254 70.1062 39.8576 70.1062 40.2675C70.1062 40.6774 70.4385 41.0096 70.8483 41.0096Z" fill="#145B2C"/>
<path d="M70.8483 41.0096C71.2582 41.0096 71.5904 40.6774 71.5904 40.2675C71.5904 39.8576 71.2582 39.5254 70.8483 39.5254C70.4385 39.5254 70.1062 39.8576 70.1062 40.2675C70.1062 40.6774 70.4385 41.0096 70.8483 41.0096Z" fill="#145B2C"/>
<path d="M80.6441 69.6551C81.054 69.6551 81.3862 69.3229 81.3862 68.913C81.3862 68.5032 81.054 68.1709 80.6441 68.1709C80.2342 68.1709 79.902 68.5032 79.902 68.913C79.902 69.3229 80.2342 69.6551 80.6441 69.6551Z" fill="#145B2C"/>
<path d="M94.0764 110.471C94.4862 110.471 94.8185 110.139 94.8185 109.729C94.8185 109.319 94.4862 108.987 94.0764 108.987C93.6665 108.987 93.3343 109.319 93.3343 109.729C93.3343 110.139 93.6665 110.471 94.0764 110.471Z" fill="#145B2C"/>
<path d="M81.5347 92.2157C81.9446 92.2157 82.2769 91.8834 82.2769 91.4736C82.2769 91.0637 81.9446 90.7314 81.5347 90.7314C81.1249 90.7314 80.7926 91.0637 80.7926 91.4736C80.7926 91.8834 81.1249 92.2157 81.5347 92.2157Z" fill="white" stroke="#145B2C" stroke-miterlimit="10"/>
<path d="M81.5347 96.5941C81.9446 96.5941 82.2769 96.2618 82.2769 95.852C82.2769 95.4421 81.9446 95.1099 81.5347 95.1099C81.1249 95.1099 80.7926 95.4421 80.7926 95.852C80.7926 96.2618 81.1249 96.5941 81.5347 96.5941Z" fill="white" stroke="#145B2C" stroke-miterlimit="10"/>
<path d="M81.3863 102.011C81.7962 102.011 82.1284 101.679 82.1284 101.269C82.1284 100.859 81.7962 100.527 81.3863 100.527C80.9764 100.527 80.6442 100.859 80.6442 101.269C80.6442 101.679 80.9764 102.011 81.3863 102.011Z" fill="white" stroke="#145B2C" stroke-miterlimit="10"/>
<path d="M81.3863 107.057C81.7962 107.057 82.1284 106.725 82.1284 106.315C82.1284 105.905 81.7962 105.573 81.3863 105.573C80.9764 105.573 80.6442 105.905 80.6442 106.315C80.6442 106.725 80.9764 107.057 81.3863 107.057Z" fill="white" stroke="#145B2C" stroke-miterlimit="10"/>
<path d="M81.5347 113.143C81.9446 113.143 82.2769 112.811 82.2769 112.401C82.2769 111.991 81.9446 111.659 81.5347 111.659C81.1249 111.659 80.7926 111.991 80.7926 112.401C80.7926 112.811 81.1249 113.143 81.5347 113.143Z" fill="white" stroke="#145B2C" stroke-miterlimit="10"/>
<path d="M64.0951 92.0672C64.5049 92.0672 64.8372 91.735 64.8372 91.3251C64.8372 90.9153 64.5049 90.583 64.0951 90.583C63.6852 90.583 63.3529 90.9153 63.3529 91.3251C63.3529 91.735 63.6852 92.0672 64.0951 92.0672Z" fill="white" stroke="#145B2C" stroke-miterlimit="10"/>
<path d="M58.3066 96.5941C58.7164 96.5941 59.0487 96.2618 59.0487 95.852C59.0487 95.4421 58.7164 95.1099 58.3066 95.1099C57.8967 95.1099 57.5645 95.4421 57.5645 95.852C57.5645 96.2618 57.8967 96.5941 58.3066 96.5941Z" fill="white" stroke="#145B2C" stroke-miterlimit="10"/>
<path d="M53.4829 102.011C53.8928 102.011 54.225 101.679 54.225 101.269C54.225 100.859 53.8928 100.527 53.4829 100.527C53.0731 100.527 52.7408 100.859 52.7408 101.269C52.7408 101.679 53.0731 102.011 53.4829 102.011Z" fill="white" stroke="#145B2C" stroke-miterlimit="10"/>
<path d="M53.4829 107.057C53.8928 107.057 54.225 106.725 54.225 106.315C54.225 105.905 53.8928 105.573 53.4829 105.573C53.0731 105.573 52.7408 105.905 52.7408 106.315C52.7408 106.725 53.0731 107.057 53.4829 107.057Z" fill="white" stroke="#145B2C" stroke-miterlimit="10"/>
<path d="M53.4829 113.143C53.8928 113.143 54.225 112.811 54.225 112.401C54.225 111.991 53.8928 111.659 53.4829 111.659C53.0731 111.659 52.7408 111.991 52.7408 112.401C52.7408 112.811 53.0731 113.143 53.4829 113.143Z" fill="white" stroke="#145B2C" stroke-miterlimit="10"/>
<path d="M90.8853 152.03C91.2952 152.03 91.6274 151.697 91.6274 151.288C91.6274 150.878 91.2952 150.545 90.8853 150.545C90.4755 150.545 90.1432 150.878 90.1432 151.288C90.1432 151.697 90.4755 152.03 90.8853 152.03Z" fill="#145B2C"/>
<path d="M55.1156 170.285C55.5255 170.285 55.8578 169.953 55.8578 169.543C55.8578 169.134 55.5255 168.801 55.1156 168.801C54.7058 168.801 54.3735 169.134 54.3735 169.543C54.3735 169.953 54.7058 170.285 55.1156 170.285Z" fill="#145B2C"/>
<path d="M46.5813 157.373C46.9912 157.373 47.3234 157.041 47.3234 156.631C47.3234 156.221 46.9912 155.889 46.5813 155.889C46.1715 155.889 45.8392 156.221 45.8392 156.631C45.8392 157.041 46.1715 157.373 46.5813 157.373Z" fill="#145B2C"/>
<path d="M34.4107 143.792C34.8206 143.792 35.1528 143.46 35.1528 143.05C35.1528 142.64 34.8206 142.308 34.4107 142.308C34.0009 142.308 33.6686 142.64 33.6686 143.05C33.6686 143.46 34.0009 143.792 34.4107 143.792Z" fill="#145B2C"/>
<path d="M19.4943 153.588C19.9042 153.588 20.2364 153.255 20.2364 152.846C20.2364 152.436 19.9042 152.104 19.4943 152.104C19.0844 152.104 18.7522 152.436 18.7522 152.846C18.7522 153.255 19.0844 153.588 19.4943 153.588Z" fill="#145B2C"/>
<path d="M50.5145 152.474C50.9243 152.474 51.2566 152.142 51.2566 151.732C51.2566 151.322 50.9243 150.99 50.5145 150.99C50.1046 150.99 49.7724 151.322 49.7724 151.732C49.7724 152.142 50.1046 152.474 50.5145 152.474Z" fill="#145B2C"/>
<path d="M50.5145 155.072C50.9243 155.072 51.2566 154.74 51.2566 154.33C51.2566 153.92 50.9243 153.588 50.5145 153.588C50.1046 153.588 49.7724 153.92 49.7724 154.33C49.7724 154.74 50.1046 155.072 50.5145 155.072Z" fill="#145B2C"/>
<path d="M38.7149 165.833C39.1248 165.833 39.457 165.501 39.457 165.091C39.457 164.681 39.1248 164.349 38.7149 164.349C38.3051 164.349 37.9728 164.681 37.9728 165.091C37.9728 165.501 38.3051 165.833 38.7149 165.833Z" fill="#145B2C"/>
<path d="M37.6761 169.172C38.0859 169.172 38.4182 168.839 38.4182 168.43C38.4182 168.02 38.0859 167.688 37.6761 167.688C37.2662 167.688 36.934 168.02 36.934 168.43C36.934 168.839 37.2662 169.172 37.6761 169.172Z" fill="#145B2C"/>
<path d="M22.0917 168.282C22.5016 168.282 22.8338 167.949 22.8338 167.539C22.8338 167.13 22.5016 166.797 22.0917 166.797C21.6819 166.797 21.3496 167.13 21.3496 167.539C21.3496 167.949 21.6819 168.282 22.0917 168.282Z" fill="#145B2C"/>
<path d="M22.0917 165.833C22.5016 165.833 22.8338 165.501 22.8338 165.091C22.8338 164.681 22.5016 164.349 22.0917 164.349C21.6819 164.349 21.3496 164.681 21.3496 165.091C21.3496 165.501 21.6819 165.833 22.0917 165.833Z" fill="#145B2C"/>
<path d="M31.6649 143.792C32.0747 143.792 32.407 143.46 32.407 143.05C32.407 142.64 32.0747 142.308 31.6649 142.308C31.255 142.308 30.9228 142.64 30.9228 143.05C30.9228 143.46 31.255 143.792 31.6649 143.792Z" fill="#145B2C"/>
<path d="M19.4943 157.892C19.9042 157.892 20.2364 157.56 20.2364 157.15C20.2364 156.74 19.9042 156.408 19.4943 156.408C19.0844 156.408 18.7522 156.74 18.7522 157.15C18.7522 157.56 19.0844 157.892 19.4943 157.892Z" fill="#145B2C"/>
<path d="M97.5643 156.631C97.9742 156.631 98.3064 156.298 98.3064 155.889C98.3064 155.479 97.9742 155.146 97.5643 155.146C97.1545 155.146 96.8222 155.479 96.8222 155.889C96.8222 156.298 97.1545 156.631 97.5643 156.631Z" fill="#145B2C"/>
<path d="M97.5643 140.527C97.9742 140.527 98.3064 140.194 98.3064 139.785C98.3064 139.375 97.9742 139.042 97.5643 139.042C97.1545 139.042 96.8222 139.375 96.8222 139.785C96.8222 140.194 97.1545 140.527 97.5643 140.527Z" fill="#145B2C"/>
<path d="M104.095 157.892C104.505 157.892 104.837 157.56 104.837 157.15C104.837 156.74 104.505 156.408 104.095 156.408C103.685 156.408 103.353 156.74 103.353 157.15C103.353 157.56 103.685 157.892 104.095 157.892Z" fill="#145B2C"/>
<path d="M100.83 143.273C101.24 143.273 101.572 142.941 101.572 142.531C101.572 142.121 101.24 141.789 100.83 141.789C100.42 141.789 100.088 142.121 100.088 142.531C100.088 142.941 100.42 143.273 100.83 143.273Z" fill="#145B2C"/>
<path d="M48.8077 17.5589C49.2175 17.5589 49.5498 17.2267 49.5498 16.8168C49.5498 16.407 49.2175 16.0747 48.8077 16.0747C48.3978 16.0747 48.0656 16.407 48.0656 16.8168C48.0656 17.2267 48.3978 17.5589 48.8077 17.5589Z" fill="#145B2C"/>
<path d="M57.6388 20.7498C58.0486 20.7498 58.3809 20.4176 58.3809 20.0077C58.3809 19.5979 58.0486 19.2656 57.6388 19.2656C57.2289 19.2656 56.8967 19.5979 56.8967 20.0077C56.8967 20.4176 57.2289 20.7498 57.6388 20.7498Z" fill="#145B2C"/>
<path d="M73.8909 22.4564C74.3008 22.4564 74.6331 22.1241 74.6331 21.7143C74.6331 21.3044 74.3008 20.9722 73.8909 20.9722C73.4811 20.9722 73.1488 21.3044 73.1488 21.7143C73.1488 22.1241 73.4811 22.4564 73.8909 22.4564Z" fill="#145B2C"/>
<path d="M51.8503 42.8651C52.2602 42.8651 52.5924 42.5328 52.5924 42.123C52.5924 41.7131 52.2602 41.3809 51.8503 41.3809C51.4405 41.3809 51.1082 41.7131 51.1082 42.123C51.1082 42.5328 51.4405 42.8651 51.8503 42.8651Z" fill="#145B2C"/>
<path d="M39.4571 48.0599C39.867 48.0599 40.1992 47.7277 40.1992 47.3178C40.1992 46.9079 39.867 46.5757 39.4571 46.5757C39.0473 46.5757 38.715 46.9079 38.715 47.3178C38.715 47.7277 39.0473 48.0599 39.4571 48.0599Z" fill="#145B2C"/>
<path d="M42.4997 48.0599C42.9096 48.0599 43.2418 47.7277 43.2418 47.3178C43.2418 46.9079 42.9096 46.5757 42.4997 46.5757C42.0899 46.5757 41.7576 46.9079 41.7576 47.3178C41.7576 47.7277 42.0899 48.0599 42.4997 48.0599Z" fill="#145B2C"/>
</svg>
