<svg width="293" height="37" viewBox="0 0 293 37" fill="none" xmlns="http://www.w3.org/2000/svg">
<path d="M18.2617 32.9314H19.1817V2.17221H25.9566V36.156H12.7135L8.50353 5.3687H7.58348V29.763V36.156H0.836426V2.17221H14.0517L18.2617 32.9314Z" fill="#145B2C"/>
<path d="M17.4252 32.3706H18.3453V1.61139H25.1202V35.5951H11.877L7.66711 4.80788H6.74705V29.2022V35.5951H0V1.61139H13.2153L17.4252 32.3706Z" fill="#1DDE47"/>
<path d="M207.52 32.9314H208.44V2.17221H215.187V36.156H201.972L197.762 5.3687H196.842V29.763V36.156H190.095V2.17221H203.31L207.52 32.9314Z" fill="#145B2C"/>
<path d="M206.684 32.3706H207.604V1.61139H214.351V35.5951H201.135L196.925 4.80788H196.005V29.2022V35.5951H189.258V1.61139H202.474L206.684 32.3706Z" fill="#1DDE47"/>
<path d="M76.9739 2.4407V24.031C76.9739 27.8164 75.9423 30.7605 73.907 32.8915C71.8718 35.0225 68.8328 36.088 64.7901 36.088C60.7475 36.088 57.7085 35.0225 55.6733 32.8915C53.638 30.7605 52.6064 27.7883 52.6064 24.031V2.4407H58.991V24.031C58.991 25.9938 59.465 27.5079 60.385 28.6015C61.333 29.695 62.7828 30.2558 64.7901 30.2558C66.7975 30.2558 68.2473 29.695 69.1952 28.6015C70.1432 27.5079 70.5893 25.9658 70.5893 24.031V2.4407H76.9739V2.4407Z" fill="#145B2C"/>
<path d="M76.1374 1.87991V23.4703C76.1374 27.2556 75.1059 30.1997 73.0706 32.3307C71.0353 34.4617 67.9964 35.5272 63.9537 35.5272C59.9111 35.5272 56.8721 34.4617 54.8368 32.3307C52.8016 30.1997 51.77 27.2275 51.77 23.4703V1.87991H58.1546V23.4703C58.1546 25.433 58.6286 26.9471 59.5486 28.0407C60.4965 29.1342 61.9463 29.695 63.9537 29.695C65.9611 29.695 67.4109 29.1342 68.3588 28.0407C69.3067 26.9471 69.7528 25.405 69.7528 23.4703V1.87991H76.1374V1.87991Z" fill="#1DDE47"/>
<path d="M101.652 36.156H95.295V25.9496C95.295 25.1645 95.0998 24.5477 94.6816 24.0429C94.2913 23.5663 93.6222 23.3139 92.6743 23.3139H85.3417V36.1279H78.985V2.17221H91.8936C93.6222 2.17221 95.1556 2.42457 96.466 2.90124C97.7764 3.37791 98.8916 4.05085 99.7559 4.92007C100.648 5.7893 101.317 6.77067 101.791 7.89225C102.265 9.01383 102.488 10.2476 102.488 11.5374V12.715C102.488 14.117 102.126 15.4068 101.373 16.6125C100.62 17.8182 99.5049 18.7435 97.9436 19.4164V20.2857C99.0589 20.4259 99.951 20.8465 100.62 21.6035C101.289 22.3606 101.596 23.2859 101.596 24.4075V36.156H101.652ZM85.3417 17.2294H91.4196C92.9531 17.2294 94.124 16.8649 94.9326 16.1358C95.7411 15.4068 96.1314 14.3694 96.1314 13.0515V12.4627C96.1314 11.3411 95.7411 10.3597 94.9326 9.51854C94.124 8.70539 92.9531 8.2848 91.4196 8.2848H85.3417V17.2294Z" fill="#145B2C"/>
<path d="M100.815 35.5951H94.4586V25.3888C94.4586 24.6037 94.2634 23.9868 93.8452 23.4821C93.4549 23.0055 92.7858 22.7531 91.8378 22.7531H84.5053V35.5671H78.1486V1.61139H91.0572C92.7858 1.61139 94.3192 1.86375 95.6296 2.34042C96.9399 2.81709 98.0552 3.49003 98.9194 4.35925C99.8116 5.22847 100.481 6.20985 100.955 7.33143C101.429 8.453 101.652 9.68674 101.652 10.9766V12.1542C101.652 13.5562 101.289 14.846 100.537 16.0517C99.7837 17.2574 98.6685 18.1827 97.1072 18.8556V19.7248C98.2224 19.865 99.1146 20.2856 99.7837 21.0427C100.453 21.7998 100.76 22.7251 100.76 23.8466V35.5951H100.815ZM84.5053 16.6685H90.5832C92.1166 16.6685 93.2876 16.304 94.0961 15.575C94.9047 14.846 95.295 13.8085 95.295 12.4907V11.9019C95.295 10.7803 94.9047 9.7989 94.0961 8.95771C93.2876 8.14457 92.1166 7.72398 90.5832 7.72398H84.5053V16.6685Z" fill="#1DDE47"/>
<path d="M292.164 36.156H285.807V25.9496C285.807 25.1645 285.612 24.5477 285.194 24.0429C284.803 23.5663 284.134 23.3139 283.186 23.3139H275.854V36.1279H269.497V2.17221H282.405C284.134 2.17221 285.667 2.42457 286.978 2.90124C288.288 3.37791 289.403 4.05085 290.268 4.92007C291.16 5.7893 291.829 6.77067 292.303 7.89225C292.777 9.01383 293 10.2476 293 11.5374V12.715C293 14.117 292.638 15.4068 291.885 16.6125C291.132 17.8182 290.017 18.7435 288.456 19.4164V20.2857C289.571 20.4259 290.463 20.8465 291.132 21.6035C291.801 22.3606 292.108 23.2859 292.108 24.4075V36.156H292.164ZM275.854 17.2294H281.932C283.465 17.2294 284.636 16.8649 285.444 16.1358C286.253 15.4068 286.643 14.3694 286.643 13.0515V12.4627C286.643 11.3411 286.253 10.3597 285.444 9.51854C284.636 8.70539 283.465 8.2848 281.932 8.2848H275.854V17.2294Z" fill="#145B2C"/>
<path d="M291.327 35.5951H284.97V25.3888C284.97 24.6037 284.775 23.9868 284.357 23.4821C283.967 23.0055 283.298 22.7531 282.35 22.7531H275.017V35.5671H268.66V1.61139H281.569C283.298 1.61139 284.831 1.86375 286.141 2.34042C287.452 2.81709 288.567 3.49003 289.431 4.35925C290.323 5.22847 290.993 6.20985 291.467 7.33143C291.941 8.453 292.164 9.68674 292.164 10.9766V12.1542C292.164 13.5562 291.801 14.846 291.048 16.0517C290.296 17.2574 289.18 18.1827 287.619 18.8556V19.7248C288.734 19.865 289.626 20.2856 290.296 21.0427C290.965 21.7998 291.271 22.7251 291.271 23.8466V35.5951H291.327ZM275.017 16.6685H281.095C282.629 16.6685 283.799 16.304 284.608 15.575C285.417 14.846 285.807 13.8085 285.807 12.4907V11.9019C285.807 10.7803 285.417 9.7989 284.608 8.95771C283.799 8.14457 282.629 7.72398 281.095 7.72398H275.017V16.6685Z" fill="#1DDE47"/>
<path d="M104.298 15.519C104.298 11.285 105.357 8.00441 107.448 5.67714C109.539 3.34987 112.439 2.17221 116.147 2.17221C119.855 2.17221 122.755 3.34987 124.846 5.67714C126.937 8.00441 127.996 11.285 127.996 15.519V22.7812C127.996 27.1273 126.937 30.4359 124.846 32.7071C122.755 34.9783 119.855 36.0999 116.147 36.0999C112.439 36.0999 109.539 34.9783 107.448 32.7071C105.357 30.4359 104.298 27.1273 104.298 22.7812V15.519ZM116.147 30.52C117.262 30.52 118.154 30.3518 118.907 29.9873C119.632 29.6228 120.245 29.1181 120.691 28.4732C121.137 27.8283 121.472 27.0432 121.667 26.1459C121.862 25.2486 121.946 24.2392 121.946 23.1737V15.1545C121.946 14.117 121.834 13.1637 121.611 12.2664C121.388 11.3691 121.054 10.584 120.608 9.93912C120.162 9.29422 119.548 8.76147 118.823 8.36892C118.098 7.97637 117.206 7.78009 116.147 7.78009C115.115 7.78009 114.223 7.97637 113.47 8.36892C112.745 8.76147 112.132 9.26618 111.686 9.93912C111.24 10.584 110.877 11.3691 110.682 12.2664C110.459 13.1637 110.348 14.145 110.348 15.1545V23.1737C110.348 24.2673 110.431 25.2486 110.627 26.1459C110.822 27.0432 111.128 27.8283 111.602 28.4732C112.048 29.1181 112.662 29.6228 113.387 29.9873C114.139 30.3518 115.06 30.52 116.147 30.52Z" fill="#145B2C"/>
<path d="M103.461 14.9581C103.461 10.7242 104.521 7.44359 106.612 5.11631C108.703 2.78904 111.602 1.61139 115.31 1.61139C119.019 1.61139 121.918 2.78904 124.009 5.11631C126.1 7.44359 127.16 10.7242 127.16 14.9581V22.2204C127.16 26.5665 126.1 29.8751 124.009 32.1463C121.918 34.4175 119.019 35.5391 115.31 35.5391C111.602 35.5391 108.703 34.4175 106.612 32.1463C104.521 29.8751 103.461 26.5665 103.461 22.2204V14.9581ZM115.31 29.9592C116.426 29.9592 117.318 29.791 118.071 29.4265C118.796 29.062 119.409 28.5573 119.855 27.9124C120.301 27.2674 120.636 26.4823 120.831 25.5851C121.026 24.6878 121.11 23.6784 121.11 22.6129V14.5936C121.11 13.5562 120.998 12.6028 120.775 11.7056C120.552 10.8083 120.217 10.0232 119.771 9.3783C119.325 8.7334 118.712 8.20065 117.987 7.8081C117.262 7.41555 116.37 7.21927 115.31 7.21927C114.279 7.21927 113.387 7.41555 112.634 7.8081C111.909 8.20065 111.296 8.70536 110.85 9.3783C110.404 10.0232 110.041 10.8083 109.846 11.7056C109.623 12.6028 109.511 13.5842 109.511 14.5936V22.6129C109.511 23.7064 109.595 24.6878 109.79 25.5851C109.985 26.4823 110.292 27.2674 110.766 27.9124C111.212 28.5573 111.825 29.062 112.55 29.4265C113.303 29.791 114.223 29.9592 115.31 29.9592Z" fill="#1DDE47"/>
<path d="M129.877 2.17221H141.531L143.538 27.6881V32.651H144.737V27.6881L146.745 2.17221H158.371V36.156H152.349V13.4441L152.962 5.67714H151.763L149.142 36.156H139.217L136.512 5.67714H135.314L135.927 13.4441V36.156H129.905V2.17221H129.877Z" fill="#145B2C"/>
<path d="M129.041 1.61139H140.695L142.702 27.1272V32.0902H143.901V27.1272L145.908 1.61139H157.534V35.5951H151.512V12.8832L152.125 5.11631H150.927L148.306 35.5951H138.38L135.676 5.11631H134.477L135.091 12.8832V35.5951H129.068V1.61139H129.041Z" fill="#1DDE47"/>
<path d="M179.852 28.7211H168.477L166.86 36.1235H160.252L168.254 1.63507H180.103L188.105 36.1235H181.497L179.852 28.7211ZM169.815 22.5244H178.458L174.583 4.88764H173.719L169.815 22.5244Z" fill="#145B2C"/>
<path d="M179.016 28.1603H167.641L166.024 35.5627H159.416L167.418 1.07425H179.267L187.268 35.5627H180.661L179.016 28.1603ZM168.979 21.9636H177.622L173.746 4.32682H172.882L168.979 21.9636Z" fill="#1DDE47"/>
<path d="M230.082 30.1143C231.365 30.1143 232.396 29.9181 233.205 29.5535C234.013 29.189 234.654 28.6843 235.101 28.0394C235.547 27.3945 235.853 26.6935 236.021 25.8523C236.188 25.0392 236.272 24.17 236.272 23.3008V22.4315H242.907V23.3008C242.907 27.3384 241.82 30.4508 239.617 32.6379C237.415 34.825 234.236 35.9185 230.054 35.9185C226.039 35.9185 222.861 34.7408 220.519 32.3855C218.177 30.0302 217.006 26.5814 217.006 22.039V14.4683C217.006 12.3093 217.313 10.3465 217.898 8.6081C218.512 6.86966 219.376 5.41161 220.519 4.23396C221.662 3.0563 223.028 2.15904 224.645 1.51413C226.263 0.869225 228.047 0.560791 230.054 0.560791C232.117 0.560791 233.957 0.841187 235.575 1.43001C237.192 2.01884 238.53 2.86002 239.617 3.95356C240.705 5.0471 241.513 6.39299 242.071 7.93516C242.628 9.47732 242.907 11.2438 242.907 13.1785V14.0477H236.272V13.1785C236.272 12.3654 236.16 11.5522 235.965 10.7391C235.77 9.92596 235.435 9.19693 234.961 8.55202C234.487 7.90712 233.846 7.37437 233.065 6.98182C232.257 6.58926 231.253 6.36495 230.054 6.36495C228.939 6.36495 227.991 6.56123 227.183 6.98182C226.374 7.37437 225.705 7.93516 225.175 8.63614C224.645 9.33713 224.255 10.1503 224.004 11.0756C223.753 12.0009 223.642 12.9542 223.642 13.9636V22.5157C223.642 23.6092 223.753 24.6186 224.004 25.5439C224.227 26.4692 224.618 27.2543 225.119 27.9553C225.621 28.6282 226.29 29.161 227.099 29.5255C227.907 29.9181 228.911 30.1143 230.082 30.1143Z" fill="#145B2C"/>
<path d="M229.246 29.5535C230.528 29.5535 231.56 29.3573 232.368 28.9928C233.177 28.6282 233.818 28.1235 234.264 27.4786C234.71 26.8337 235.017 26.1327 235.184 25.2915C235.351 24.4784 235.435 23.6092 235.435 22.74V21.8707H242.071V22.74C242.071 26.7776 240.983 29.89 238.781 32.0771C236.578 34.2642 233.4 35.3577 229.218 35.3577C225.203 35.3577 222.025 34.18 219.683 31.8247C217.341 29.4694 216.17 26.0206 216.17 21.4782V13.9075C216.17 11.7485 216.476 9.78576 217.062 8.04731C217.675 6.30887 218.54 4.85082 219.683 3.67316C220.826 2.49551 222.192 1.59825 223.809 0.95334C225.426 0.308434 227.21 0 229.218 0C231.281 0 233.121 0.280396 234.738 0.869223C236.355 1.45805 237.693 2.29923 238.781 3.39277C239.868 4.48631 240.677 5.8322 241.234 7.37437C241.792 8.91653 242.071 10.683 242.071 12.6177V13.487H235.435V12.6177C235.435 11.8046 235.324 10.9914 235.128 10.1783C234.933 9.36516 234.599 8.63614 234.125 7.99123C233.651 7.34633 233.01 6.81358 232.229 6.42103C231.42 6.02847 230.417 5.80416 229.218 5.80416C228.103 5.80416 227.155 6.00043 226.346 6.42103C225.538 6.81358 224.868 7.37437 224.339 8.07535C223.809 8.77634 223.419 9.58948 223.168 10.5148C222.917 11.4401 222.805 12.3934 222.805 13.4028V21.9549C222.805 23.0484 222.917 24.0578 223.168 24.9831C223.391 25.9084 223.781 26.6935 224.283 27.3945C224.785 28.0674 225.454 28.6002 226.262 28.9647C227.071 29.3573 228.075 29.5535 229.246 29.5535Z" fill="#1DDE47"/>
<path d="M27.8265 2.17221H50.0193V8.2848H34.4621V16.0517H49.4059V22.1643H34.4621V30.0153H50.6327V36.1279H27.8544V2.17221H27.8265Z" fill="#145B2C"/>
<path d="M26.9901 1.61139H49.1829V7.72398H33.6257V15.4909H48.5696V21.6035H33.6257V29.4545H49.7963V35.5671H27.018V1.61139H26.9901Z" fill="#1DDE47"/>
<path d="M244.717 2.17221H266.91V8.2848H251.353V16.0517H266.296V22.1643H251.353V30.0153H267.523V36.1279H244.745V2.17221H244.717Z" fill="#145B2C"/>
<path d="M243.881 1.61139H266.073V7.72398H250.516V15.4909H265.46V21.6035H250.516V29.4545H266.687V35.5671H243.908V1.61139H243.881Z" fill="#1DDE47"/>
<path d="M8.8783 1.57666V4.40864H12.0632V5.95081H13.3315" stroke="#145B2C" stroke-width="0.75" stroke-miterlimit="10"/>
<path d="M0.648224 6.62375V9.53985H2.64936V11.4465H4.59413" stroke="#145B2C" stroke-width="0.75" stroke-miterlimit="10"/>
<path d="M6.2007 18.0078H1.8602" stroke="#145B2C" stroke-width="0.75" stroke-miterlimit="10"/>
<path d="M6.2007 19.8023H1.8602" stroke="#145B2C" stroke-width="0.75" stroke-miterlimit="10"/>
<path d="M6.2007 21.765H1.8602" stroke="#145B2C" stroke-width="0.75" stroke-miterlimit="10"/>
<path d="M0.901917 35.5843V30.0647" stroke="#145B2C" stroke-width="0.75" stroke-miterlimit="10"/>
<path d="M8.86252 13.1595L14.7532 12.0852" stroke="#145B2C" stroke-width="0.75" stroke-miterlimit="10"/>
<path d="M9.13107 13.6598L15.0499 12.6224" stroke="#145B2C" stroke-width="0.75" stroke-miterlimit="10"/>
<path d="M11.6191 33.85H21.3079V28.13" stroke="#145B2C" stroke-width="0.75" stroke-miterlimit="10"/>
<path d="M22.4071 4.7171V11.1662H24.7465" stroke="#145B2C" stroke-width="0.75" stroke-miterlimit="10"/>
<path d="M22.4071 7.04431H20.2368" stroke="#145B2C" stroke-width="0.75" stroke-miterlimit="10"/>
<path d="M22.4071 9.34357H20.2368" stroke="#145B2C" stroke-width="0.75" stroke-miterlimit="10"/>
<path d="M0.648245 6.70788C0.803906 6.70788 0.930095 6.58235 0.930095 6.42749C0.930095 6.27263 0.803906 6.14709 0.648245 6.14709C0.492583 6.14709 0.366394 6.27263 0.366394 6.42749C0.366394 6.58235 0.492583 6.70788 0.648245 6.70788Z" fill="#145B2C"/>
<path d="M1.86022 18.2881C2.01588 18.2881 2.14207 18.1626 2.14207 18.0078C2.14207 17.8529 2.01588 17.7274 1.86022 17.7274C1.70456 17.7274 1.57837 17.8529 1.57837 18.0078C1.57837 18.1626 1.70456 18.2881 1.86022 18.2881Z" fill="#145B2C"/>
<path d="M1.86022 20.0826C2.01588 20.0826 2.14207 19.9571 2.14207 19.8022C2.14207 19.6474 2.01588 19.5219 1.86022 19.5219C1.70456 19.5219 1.57837 19.6474 1.57837 19.8022C1.57837 19.9571 1.70456 20.0826 1.86022 20.0826Z" fill="#145B2C"/>
<path d="M1.86022 22.0454C2.01588 22.0454 2.14207 21.9199 2.14207 21.765C2.14207 21.6102 2.01588 21.4846 1.86022 21.4846C1.70456 21.4846 1.57837 21.6102 1.57837 21.765C1.57837 21.9199 1.70456 22.0454 1.86022 22.0454Z" fill="#145B2C"/>
<path d="M20.2368 9.62399C20.3925 9.62399 20.5187 9.49845 20.5187 9.3436C20.5187 9.18874 20.3925 9.0632 20.2368 9.0632C20.0812 9.0632 19.955 9.18874 19.955 9.3436C19.955 9.49845 20.0812 9.62399 20.2368 9.62399Z" fill="#145B2C"/>
<path d="M29.004 23.1951C29.1597 23.1951 29.2858 23.0695 29.2858 22.9147C29.2858 22.7598 29.1597 22.6343 29.004 22.6343C28.8483 22.6343 28.7221 22.7598 28.7221 22.9147C28.7221 23.0695 28.8483 23.1951 29.004 23.1951Z" fill="#145B2C"/>
<path d="M39.6564 34.1304C39.812 34.1304 39.9382 34.0049 39.9382 33.85C39.9382 33.6952 39.812 33.5696 39.6564 33.5696C39.5007 33.5696 39.3745 33.6952 39.3745 33.85C39.3745 34.0049 39.5007 34.1304 39.6564 34.1304Z" fill="#145B2C"/>
<path d="M42.3621 34.1304C42.5178 34.1304 42.644 34.0049 42.644 33.85C42.644 33.6952 42.5178 33.5696 42.3621 33.5696C42.2065 33.5696 42.0803 33.6952 42.0803 33.85C42.0803 34.0049 42.2065 34.1304 42.3621 34.1304Z" fill="#145B2C"/>
<path d="M70.2552 28.8029C70.4109 28.8029 70.5371 28.6774 70.5371 28.5226C70.5371 28.3677 70.4109 28.2422 70.2552 28.2422C70.0996 28.2422 69.9734 28.3677 69.9734 28.5226C69.9734 28.6774 70.0996 28.8029 70.2552 28.8029Z" fill="#145B2C"/>
<path d="M73.6656 15.372C73.8213 15.372 73.9475 15.2465 73.9475 15.0916C73.9475 14.9368 73.8213 14.8112 73.6656 14.8112C73.51 14.8112 73.3838 14.9368 73.3838 15.0916C73.3838 15.2465 73.51 15.372 73.6656 15.372Z" fill="#145B2C"/>
<path d="M73.6656 12.5681C73.8213 12.5681 73.9475 12.4425 73.9475 12.2877C73.9475 12.1328 73.8213 12.0073 73.6656 12.0073C73.51 12.0073 73.3838 12.1328 73.3838 12.2877C73.3838 12.4425 73.51 12.5681 73.6656 12.5681Z" fill="#145B2C"/>
<path d="M81.642 4.70526C81.7977 4.70526 81.9239 4.57972 81.9239 4.42486C81.9239 4.27001 81.7977 4.14447 81.642 4.14447C81.4864 4.14447 81.3602 4.27001 81.3602 4.42486C81.3602 4.57972 81.4864 4.70526 81.642 4.70526Z" fill="#145B2C"/>
<path d="M88.6601 17.9959C88.8157 17.9959 88.9419 17.8704 88.9419 17.7155C88.9419 17.5607 88.8157 17.4352 88.6601 17.4352C88.5044 17.4352 88.3782 17.5607 88.3782 17.7155C88.3782 17.8704 88.5044 17.9959 88.6601 17.9959Z" fill="#145B2C"/>
<path d="M89.8157 17.9959C89.9713 17.9959 90.0975 17.8704 90.0975 17.7155C90.0975 17.5607 89.9713 17.4352 89.8157 17.4352C89.66 17.4352 89.5338 17.5607 89.5338 17.7155C89.5338 17.8704 89.66 17.9959 89.8157 17.9959Z" fill="#145B2C"/>
<path d="M104.936 10.1006C105.092 10.1006 105.218 9.97511 105.218 9.82025C105.218 9.66539 105.092 9.53986 104.936 9.53986C104.78 9.53986 104.654 9.66539 104.654 9.82025C104.654 9.97511 104.78 10.1006 104.936 10.1006Z" fill="#145B2C"/>
<path d="M104.401 13.6056C104.556 13.6056 104.682 13.48 104.682 13.3252C104.682 13.1703 104.556 13.0448 104.401 13.0448C104.245 13.0448 104.119 13.1703 104.119 13.3252C104.119 13.48 104.245 13.6056 104.401 13.6056Z" fill="#145B2C"/>
<path d="M107.726 30.7657C107.882 30.7657 108.008 30.6401 108.008 30.4853C108.008 30.3304 107.882 30.2049 107.726 30.2049C107.571 30.2049 107.445 30.3304 107.445 30.4853C107.445 30.6401 107.571 30.7657 107.726 30.7657Z" fill="#145B2C"/>
<path d="M120.266 32.1677C120.421 32.1677 120.547 32.0421 120.547 31.8873C120.547 31.7324 120.421 31.6069 120.266 31.6069C120.11 31.6069 119.984 31.7324 119.984 31.8873C119.984 32.0421 120.11 32.1677 120.266 32.1677Z" fill="#145B2C"/>
<path d="M125.102 21.0641C125.257 21.0641 125.384 20.9385 125.384 20.7837C125.384 20.6288 125.257 20.5033 125.102 20.5033C124.946 20.5033 124.82 20.6288 124.82 20.7837C124.82 20.9385 124.946 21.0641 125.102 21.0641Z" fill="#145B2C"/>
<path d="M125.102 18.7648C125.257 18.7648 125.384 18.6393 125.384 18.4844C125.384 18.3295 125.257 18.204 125.102 18.204C124.946 18.204 124.82 18.3295 124.82 18.4844C124.82 18.6393 124.946 18.7648 125.102 18.7648Z" fill="#145B2C"/>
<path d="M125.102 16.3534C125.257 16.3534 125.384 16.2279 125.384 16.073C125.384 15.9182 125.257 15.7926 125.102 15.7926C124.946 15.7926 124.82 15.9182 124.82 16.073C124.82 16.2279 124.946 16.3534 125.102 16.3534Z" fill="#145B2C"/>
<path d="M138.292 3.5394C138.448 3.5394 138.574 3.41386 138.574 3.259C138.574 3.10414 138.448 2.97861 138.292 2.97861C138.137 2.97861 138.01 3.10414 138.01 3.259C138.01 3.41386 138.137 3.5394 138.292 3.5394Z" fill="#145B2C"/>
<path d="M148.283 3.5394C148.439 3.5394 148.565 3.41386 148.565 3.259C148.565 3.10414 148.439 2.97861 148.283 2.97861C148.127 2.97861 148.001 3.10414 148.001 3.259C148.001 3.41386 148.127 3.5394 148.283 3.5394Z" fill="#145B2C"/>
<path d="M165.615 16.2132C165.771 16.2132 165.897 16.0877 165.897 15.9328C165.897 15.778 165.771 15.6524 165.615 15.6524C165.46 15.6524 165.333 15.778 165.333 15.9328C165.333 16.0877 165.46 16.2132 165.615 16.2132Z" fill="#145B2C"/>
<path d="M178.242 5.47412C178.398 5.47412 178.524 5.34858 178.524 5.19372C178.524 5.03887 178.398 4.91333 178.242 4.91333C178.087 4.91333 177.96 5.03887 177.96 5.19372C177.96 5.34858 178.087 5.47412 178.242 5.47412Z" fill="#145B2C"/>
<path d="M190.587 7.85748C190.743 7.85748 190.869 7.73195 190.869 7.57709C190.869 7.42223 190.743 7.29669 190.587 7.29669C190.432 7.29669 190.305 7.42223 190.305 7.57709C190.305 7.73195 190.432 7.85748 190.587 7.85748Z" fill="#145B2C"/>
<path d="M192.081 19.4378C192.237 19.4378 192.363 19.3122 192.363 19.1574C192.363 19.0025 192.237 18.877 192.081 18.877C191.925 18.877 191.799 19.0025 191.799 19.1574C191.799 19.3122 191.925 19.4378 192.081 19.4378Z" fill="#145B2C"/>
<path d="M200.621 11.6709C200.777 11.6709 200.903 11.5453 200.903 11.3905C200.903 11.2356 200.777 11.1101 200.621 11.1101C200.465 11.1101 200.339 11.2356 200.339 11.3905C200.339 11.5453 200.465 11.6709 200.621 11.6709Z" fill="#145B2C"/>
<path d="M220.632 7.04434C220.788 7.04434 220.914 6.9188 220.914 6.76395C220.914 6.60909 220.788 6.48355 220.632 6.48355C220.477 6.48355 220.351 6.60909 220.351 6.76395C220.351 6.9188 220.477 7.04434 220.632 7.04434Z" fill="#145B2C"/>
<path d="M217.899 20.6154C218.054 20.6154 218.18 20.4899 218.18 20.335C218.18 20.1802 218.054 20.0546 217.899 20.0546C217.743 20.0546 217.617 20.1802 217.617 20.335C217.617 20.4899 217.743 20.6154 217.899 20.6154Z" fill="#145B2C"/>
<path d="M220.632 23.1951C220.788 23.1951 220.914 23.0695 220.914 22.9147C220.914 22.7598 220.788 22.6343 220.632 22.6343C220.477 22.6343 220.351 22.7598 220.351 22.9147C220.351 23.0695 220.477 23.1951 220.632 23.1951Z" fill="#145B2C"/>
<path d="M248.226 5.64236C248.381 5.64236 248.508 5.51683 248.508 5.36197C248.508 5.20711 248.381 5.08157 248.226 5.08157C248.07 5.08157 247.944 5.20711 247.944 5.36197C247.944 5.51683 248.07 5.64236 248.226 5.64236Z" fill="#145B2C"/>
<path d="M246.732 18.0638C246.888 18.0638 247.014 17.9383 247.014 17.7834C247.014 17.6286 246.888 17.503 246.732 17.503C246.576 17.503 246.45 17.6286 246.45 17.7834C246.45 17.9383 246.576 18.0638 246.732 18.0638Z" fill="#145B2C"/>
<path d="M271.901 10.9138C272.057 10.9138 272.183 10.7882 272.183 10.6334C272.183 10.4785 272.057 10.353 271.901 10.353C271.745 10.353 271.619 10.4785 271.619 10.6334C271.619 10.7882 271.745 10.9138 271.901 10.9138Z" fill="#145B2C"/>
<path d="M271.901 12.5962C272.057 12.5962 272.183 12.4706 272.183 12.3158C272.183 12.1609 272.057 12.0354 271.901 12.0354C271.745 12.0354 271.619 12.1609 271.619 12.3158C271.619 12.4706 271.745 12.5962 271.901 12.5962Z" fill="#145B2C"/>
<path d="M290.024 33.3453C290.18 33.3453 290.306 33.2198 290.306 33.0649C290.306 32.9101 290.18 32.7845 290.024 32.7845C289.868 32.7845 289.742 32.9101 289.742 33.0649C289.742 33.2198 289.868 33.3453 290.024 33.3453Z" fill="#145B2C"/>
<path d="M255.526 33.5977C255.681 33.5977 255.807 33.4721 255.807 33.3173C255.807 33.1624 255.681 33.0369 255.526 33.0369C255.37 33.0369 255.244 33.1624 255.244 33.3173C255.244 33.4721 255.37 33.5977 255.526 33.5977Z" fill="#145B2C"/>
<path d="M257.358 33.5977C257.513 33.5977 257.639 33.4721 257.639 33.3173C257.639 33.1624 257.513 33.0369 257.358 33.0369C257.202 33.0369 257.076 33.1624 257.076 33.3173C257.076 33.4721 257.202 33.5977 257.358 33.5977Z" fill="#145B2C"/>
<path d="M239.319 9.28747C239.475 9.28747 239.601 9.16194 239.601 9.00708C239.601 8.85222 239.475 8.72668 239.319 8.72668C239.163 8.72668 239.037 8.85222 239.037 9.00708C239.037 9.16194 239.163 9.28747 239.319 9.28747Z" fill="#145B2C"/>
<path d="M192.081 7.85748C192.237 7.85748 192.363 7.73195 192.363 7.57709C192.363 7.42223 192.237 7.29669 192.081 7.29669C191.925 7.29669 191.799 7.42223 191.799 7.57709C191.799 7.73195 191.925 7.85748 192.081 7.85748Z" fill="#145B2C"/>
<path d="M164.516 18.5124C164.672 18.5124 164.798 18.3869 164.798 18.2321C164.798 18.0772 164.672 17.9517 164.516 17.9517C164.36 17.9517 164.234 18.0772 164.234 18.2321C164.234 18.3869 164.36 18.5124 164.516 18.5124Z" fill="#145B2C"/>
<path d="M147.128 20.7556C147.283 20.7556 147.409 20.6301 147.409 20.4752C147.409 20.3204 147.283 20.1948 147.128 20.1948C146.972 20.1948 146.846 20.3204 146.846 20.4752C146.846 20.6301 146.972 20.7556 147.128 20.7556Z" fill="#145B2C"/>
<path d="M97.9893 28.1462C98.1449 28.1462 98.2711 28.0206 98.2711 27.8658C98.2711 27.7109 98.1449 27.5854 97.9893 27.5854C97.8336 27.5854 97.7074 27.7109 97.7074 27.8658C97.7074 28.0206 97.8336 28.1462 97.9893 28.1462Z" fill="#145B2C"/>
<path d="M55.3172 6.56768C55.4728 6.56768 55.599 6.44215 55.599 6.28729C55.599 6.13243 55.4728 6.0069 55.3172 6.0069C55.1615 6.0069 55.0353 6.13243 55.0353 6.28729C55.0353 6.44215 55.1615 6.56768 55.3172 6.56768Z" fill="#145B2C"/>
<path d="M37.1197 34.1304C37.2753 34.1304 37.4015 34.0049 37.4015 33.85C37.4015 33.6952 37.2753 33.5696 37.1197 33.5696C36.964 33.5696 36.8378 33.6952 36.8378 33.85C36.8378 34.0049 36.964 34.1304 37.1197 34.1304Z" fill="#145B2C"/>
<path d="M29.004 25.6625C29.1597 25.6625 29.2858 25.537 29.2858 25.3821C29.2858 25.2273 29.1597 25.1017 29.004 25.1017C28.8483 25.1017 28.7221 25.2273 28.7221 25.3821C28.7221 25.537 28.8483 25.6625 29.004 25.6625Z" fill="#145B2C"/>
<path d="M29.6789 5.64236C29.8345 5.64236 29.9607 5.51683 29.9607 5.36197C29.9607 5.20711 29.8345 5.08157 29.6789 5.08157C29.5232 5.08157 29.397 5.20711 29.397 5.36197C29.397 5.51683 29.5232 5.64236 29.6789 5.64236Z" fill="#145B2C"/>
<path d="M20.2368 7.32473C20.3925 7.32473 20.5187 7.1992 20.5187 7.04434C20.5187 6.88948 20.3925 6.76395 20.2368 6.76395C20.0812 6.76395 19.955 6.88948 19.955 7.04434C19.955 7.1992 20.0812 7.32473 20.2368 7.32473Z" fill="#145B2C"/>
<path d="M21.3079 28.3263C21.4636 28.3263 21.5898 28.2007 21.5898 28.0459C21.5898 27.891 21.4636 27.7655 21.3079 27.7655C21.1523 27.7655 21.0261 27.891 21.0261 28.0459C21.0261 28.2007 21.1523 28.3263 21.3079 28.3263Z" fill="#145B2C"/>
<path d="M36.2558 7.92256L36.246 5.36197H29.7071" stroke="#145B2C" stroke-width="0.75" stroke-miterlimit="10"/>
<path d="M42.3621 1.49255V3.90394H45.4625V7.78829" stroke="#145B2C" stroke-width="0.75" stroke-miterlimit="10"/>
<path d="M27.0117 14.3907H29.004V22.9146" stroke="#145B2C" stroke-width="0.75" stroke-miterlimit="10"/>
<path d="M35.1467 15.481V18.024H38.6135V21.7532" stroke="#145B2C" stroke-width="0.75" stroke-miterlimit="10"/>
<path d="M47.1254 17.8676V15.4889" stroke="#145B2C" stroke-width="0.75" stroke-miterlimit="10"/>
<path d="M47.2381 17.8676H43.3204V21.7535" stroke="#145B2C" stroke-width="0.75" stroke-miterlimit="10"/>
<path d="M27.0117 34.2986H29.004V25.3821" stroke="#145B2C" stroke-width="0.75" stroke-miterlimit="10"/>
<path d="M37.1197 29.3637V33.85" stroke="#145B2C" stroke-width="0.75" stroke-miterlimit="10"/>
<path d="M39.6564 29.3637V33.85" stroke="#145B2C" stroke-width="0.75" stroke-miterlimit="10"/>
<path d="M42.3621 29.3637V33.85" stroke="#145B2C" stroke-width="0.75" stroke-miterlimit="10"/>
<path d="M48.0273 1.49255V7.78829" stroke="#145B2C" stroke-width="0.75" stroke-miterlimit="10"/>
<path d="M55.3172 6.28726H58.1639" stroke="#145B2C" stroke-width="0.75" stroke-miterlimit="10"/>
<path d="M51.7095 11.4745H54.1616V17.8675H51.7095" stroke="#145B2C" stroke-width="0.75" stroke-miterlimit="10"/>
<path d="M51.7377 24.0082H53.8797V21.2603H57.121V16.774H58.1639" stroke="#145B2C" stroke-width="0.75" stroke-miterlimit="10"/>
<path d="M61.6024 35.3361V32.1677H63.8854V29.6161" stroke="#145B2C" stroke-width="0.75" stroke-miterlimit="10"/>
<path d="M76.3714 23.3913H73.8911V28.5225H70.2552" stroke="#145B2C" stroke-width="0.75" stroke-miterlimit="10"/>
<path d="M69.917 15.0916H73.7502" stroke="#145B2C" stroke-width="0.75" stroke-miterlimit="10"/>
<path d="M69.917 12.3157H73.7502" stroke="#145B2C" stroke-width="0.75" stroke-miterlimit="10"/>
<path d="M69.917 3.53943H76.3714" stroke="#145B2C" stroke-width="0.75" stroke-miterlimit="10"/>
<path d="M69.917 4.54883H76.3714" stroke="#145B2C" stroke-width="0.75" stroke-miterlimit="10"/>
<path d="M78.1753 10.0888H84.6015" stroke="#145B2C" stroke-width="0.75" stroke-miterlimit="10"/>
<path d="M78.1753 8.99524H84.6015" stroke="#145B2C" stroke-width="0.75" stroke-miterlimit="10"/>
<path d="M81.642 4.42487H87.5327V7.87371" stroke="#145B2C" stroke-width="0.75" stroke-miterlimit="10"/>
<path d="M95.509 12.304H101.963" stroke="#145B2C" stroke-width="0.75" stroke-miterlimit="10"/>
<path d="M84.6015 15.0798H79.049V24.5011H78.1753" stroke="#145B2C" stroke-width="0.75" stroke-miterlimit="10"/>
<path d="M88.6601 17.7155V22.9309" stroke="#145B2C" stroke-width="0.75" stroke-miterlimit="10"/>
<path d="M89.8156 17.7155V22.9309" stroke="#145B2C" stroke-width="0.75" stroke-miterlimit="10"/>
<path d="M97.9893 35.7449V27.7536" stroke="#145B2C" stroke-width="0.75" stroke-miterlimit="10"/>
<path d="M84.6014 30.7539H81.642V35.7449" stroke="#145B2C" stroke-width="0.75" stroke-miterlimit="10"/>
<path d="M121.071 16.073H125.102" stroke="#145B2C" stroke-width="0.75" stroke-miterlimit="10"/>
<path d="M121.071 18.4844H125.102" stroke="#145B2C" stroke-width="0.75" stroke-miterlimit="10"/>
<path d="M121.071 20.7837H125.102" stroke="#145B2C" stroke-width="0.75" stroke-miterlimit="10"/>
<path d="M114.91 7.21257V1.52057" stroke="#145B2C" stroke-width="0.75" stroke-miterlimit="10"/>
<path d="M113.783 7.48112V1.78912" stroke="#145B2C" stroke-width="0.75" stroke-miterlimit="10"/>
<path d="M109.643 16.5497H106.74V9.82025H104.936" stroke="#145B2C" stroke-width="0.75" stroke-miterlimit="10"/>
<path d="M103.527 22.9146H107.726V30.4853" stroke="#145B2C" stroke-width="0.75" stroke-miterlimit="10"/>
<path d="M114.403 29.8684V31.8872H120.266" stroke="#145B2C" stroke-width="0.75" stroke-miterlimit="10"/>
<path d="M106.74 13.3252H104.372" stroke="#145B2C" stroke-width="0.75" stroke-miterlimit="10"/>
<path d="M129.044 3.25903H138.292" stroke="#145B2C" stroke-width="0.75" stroke-miterlimit="10"/>
<path d="M157.669 3.25903H148.283" stroke="#145B2C" stroke-width="0.75" stroke-miterlimit="10"/>
<path d="M129.044 8.83887H132.12V18.4844H135.22" stroke="#145B2C" stroke-width="0.75" stroke-miterlimit="10"/>
<path d="M129.044 28.5387H133.36V35.7449" stroke="#145B2C" stroke-width="0.75" stroke-miterlimit="10"/>
<path d="M136.698 17.7045L141.94 16.9194" stroke="#145B2C" stroke-width="0.75" stroke-miterlimit="10"/>
<path d="M136.782 18.8821L142.024 18.097" stroke="#145B2C" stroke-width="0.75" stroke-miterlimit="10"/>
<path d="M144.899 35.801V29.8566H148.394" stroke="#145B2C" stroke-width="0.75" stroke-miterlimit="10"/>
<path d="M151.581 21.8772H157.669" stroke="#145B2C" stroke-width="0.75" stroke-miterlimit="10"/>
<path d="M151.581 23.5876H157.669" stroke="#145B2C" stroke-width="0.75" stroke-miterlimit="10"/>
<path d="M150.228 13.6617H147.128V20.5313" stroke="#145B2C" stroke-width="0.75" stroke-miterlimit="10"/>
<path d="M171.478 9.98847H168.688V0.959778" stroke="#145B2C" stroke-width="0.75" stroke-miterlimit="10"/>
<path d="M176.072 0.959778V5.19373H178.242" stroke="#145B2C" stroke-width="0.75" stroke-miterlimit="10"/>
<path d="M170.125 15.9328H165.615" stroke="#145B2C" stroke-width="0.75" stroke-miterlimit="10"/>
<path d="M169.702 18.2321H164.516" stroke="#145B2C" stroke-width="0.75" stroke-miterlimit="10"/>
<path d="M174.606 21.8772V24.597H180.131V20.4752H183.851" stroke="#145B2C" stroke-width="0.75" stroke-miterlimit="10"/>
<path d="M179.708 31.9714L186.219 31.018" stroke="#145B2C" stroke-width="0.75" stroke-miterlimit="10"/>
<path d="M179.99 33.2612L186.529 32.3078" stroke="#145B2C" stroke-width="0.75" stroke-miterlimit="10"/>
<path d="M161.137 28.4675L164.048 29.5171V32.4959H167.045" stroke="#145B2C" stroke-width="0.75" stroke-miterlimit="10"/>
<path d="M210.514 1.49255V5.44611L214.347 5.47415" stroke="#145B2C" stroke-width="0.75" stroke-miterlimit="10"/>
<path d="M207.526 18.2321H210.514V13.3252H214.347" stroke="#145B2C" stroke-width="0.75" stroke-miterlimit="10"/>
<path d="M192.053 19.1573H194.702V12.0073H196.055" stroke="#145B2C" stroke-width="0.75" stroke-miterlimit="10"/>
<path d="M190.587 1.49255V7.57711" stroke="#145B2C" stroke-width="0.75" stroke-miterlimit="10"/>
<path d="M192.081 1.49255V7.57711" stroke="#145B2C" stroke-width="0.75" stroke-miterlimit="10"/>
<path d="M188.981 28.9992H192.053V35.4763" stroke="#145B2C" stroke-width="0.75" stroke-miterlimit="10"/>
<path d="M200.621 11.3905L204.144 35.4763" stroke="#145B2C" stroke-width="0.75" stroke-miterlimit="10"/>
<path d="M222.775 13.7738H220.632V6.76395" stroke="#145B2C" stroke-width="0.75" stroke-miterlimit="10"/>
<path d="M222.775 20.335H217.899" stroke="#145B2C" stroke-width="0.75" stroke-miterlimit="10"/>
<path d="M216.123 22.9146H220.633" stroke="#145B2C" stroke-width="0.75" stroke-miterlimit="10"/>
<path d="M228.524 29.6161V32.4481H231.117V35.4763" stroke="#145B2C" stroke-width="0.75" stroke-miterlimit="10"/>
<path d="M238.079 21.9613V33.3173" stroke="#145B2C" stroke-width="0.75" stroke-miterlimit="10"/>
<path d="M239.601 21.9613V32.0835" stroke="#145B2C" stroke-width="0.75" stroke-miterlimit="10"/>
<path d="M229.285 0.118591V4.88529H240.362" stroke="#145B2C" stroke-width="0.75" stroke-miterlimit="10"/>
<path d="M236.923 9.00711V4.88531" stroke="#145B2C" stroke-width="0.75" stroke-miterlimit="10"/>
<path d="M239.319 9.00711V4.88531" stroke="#145B2C" stroke-width="0.75" stroke-miterlimit="10"/>
<path d="M248.226 1.49255V5.36199" stroke="#145B2C" stroke-width="0.75" stroke-miterlimit="10"/>
<path d="M257.358 7.78829V4.57689H260.571V1.49255" stroke="#145B2C" stroke-width="0.75" stroke-miterlimit="10"/>
<path d="M250.734 11.7549H246.732V17.7834" stroke="#145B2C" stroke-width="0.75" stroke-miterlimit="10"/>
<path d="M258.964 15.4928V17.9517H261.247V21.7089" stroke="#145B2C" stroke-width="0.75" stroke-miterlimit="10"/>
<path d="M243.905 25.1858H247.634V28.158H250.847" stroke="#145B2C" stroke-width="0.75" stroke-miterlimit="10"/>
<path d="M257.358 29.4074V33.3173" stroke="#145B2C" stroke-width="0.75" stroke-miterlimit="10"/>
<path d="M255.536 29.4074L255.554 33.3173" stroke="#145B2C" stroke-width="0.75" stroke-miterlimit="10"/>
<path d="M273.987 1.49255V3.98806H281.259V1.49255" stroke="#145B2C" stroke-width="0.75" stroke-miterlimit="10"/>
<path d="M275.227 10.6334H271.901" stroke="#145B2C" stroke-width="0.75" stroke-miterlimit="10"/>
<path d="M275.227 12.3157H271.901" stroke="#145B2C" stroke-width="0.75" stroke-miterlimit="10"/>
<path d="M268.695 25.6064H275.227" stroke="#145B2C" stroke-width="0.75" stroke-miterlimit="10"/>
<path d="M268.695 27.6253H275.227" stroke="#145B2C" stroke-width="0.75" stroke-miterlimit="10"/>
<path d="M268.695 31.6069H271.281V33.5977H275.227" stroke="#145B2C" stroke-width="0.75" stroke-miterlimit="10"/>
<path d="M280.047 16.6508V18.877H283.231V22.9146" stroke="#145B2C" stroke-width="0.75" stroke-miterlimit="10"/>
<path d="M285.74 9.96045L291.602 6.65179" stroke="#145B2C" stroke-width="0.75" stroke-miterlimit="10"/>
<path d="M286.106 10.9979L292.194 7.6051" stroke="#145B2C" stroke-width="0.75" stroke-miterlimit="10"/>
<path d="M284.943 28.2982H287.995V33.0649H290.024" stroke="#145B2C" stroke-width="0.75" stroke-miterlimit="10"/>
<path d="M4.55063 11.7843C4.69073 11.7843 4.8043 11.6713 4.8043 11.5319C4.8043 11.3925 4.69073 11.2795 4.55063 11.2795C4.41054 11.2795 4.29697 11.3925 4.29697 11.5319C4.29697 11.6713 4.41054 11.7843 4.55063 11.7843Z" fill="#145B2C"/>
</svg>
