<svg width="278" height="178" viewBox="0 0 278 178" fill="none" xmlns="http://www.w3.org/2000/svg">
<path d="M277 1H1V177H277V1Z" stroke="#17AC38" stroke-miterlimit="10"/>
<path d="M18.5 1V177" stroke="#17AC38" stroke-width="0.25" stroke-miterlimit="10"/>
<path d="M38.5 1V177" stroke="#17AC38" stroke-width="0.25" stroke-miterlimit="10"/>
<path d="M79.5 1V177" stroke="#17AC38" stroke-width="0.25" stroke-miterlimit="10"/>
<path d="M99.5 1V177" stroke="#17AC38" stroke-width="0.25" stroke-miterlimit="10"/>
<path d="M59.5 1V177" stroke="#17AC38" stroke-width="0.25" stroke-miterlimit="10"/>
<path d="M119.5 1V177" stroke="#17AC38" stroke-width="0.25" stroke-miterlimit="10"/>
<path d="M139.5 1V177" stroke="#17AC38" stroke-width="0.25" stroke-miterlimit="10"/>
<path d="M159.5 1V177" stroke="#17AC38" stroke-width="0.25" stroke-miterlimit="10"/>
<path d="M179.5 1V177" stroke="#17AC38" stroke-width="0.25" stroke-miterlimit="10"/>
<path d="M199.5 1V177" stroke="#17AC38" stroke-width="0.25" stroke-miterlimit="10"/>
<path d="M219.5 1V177" stroke="#17AC38" stroke-width="0.25" stroke-miterlimit="10"/>
<path d="M239.5 1V177" stroke="#17AC38" stroke-width="0.25" stroke-miterlimit="10"/>
<path d="M259.5 1V177" stroke="#17AC38" stroke-width="0.25" stroke-miterlimit="10"/>
<path d="M1.5 16.5H276.5" stroke="#17AC38" stroke-width="0.25" stroke-miterlimit="10"/>
<path d="M1.5 32.5H277.5" stroke="#17AC38" stroke-width="0.25" stroke-miterlimit="10"/>
<path d="M1.5 48.5H277.5" stroke="#17AC38" stroke-width="0.25" stroke-miterlimit="10"/>
<path d="M1.5 65.5H277.5" stroke="#17AC38" stroke-width="0.25" stroke-miterlimit="10"/>
<path d="M1.5 81.5H277.5" stroke="#17AC38" stroke-width="0.25" stroke-miterlimit="10"/>
<path d="M1.5 98.5H277.5" stroke="#17AC38" stroke-width="0.25" stroke-miterlimit="10"/>
<path d="M1.5 114.5H277.5" stroke="#17AC38" stroke-width="0.25" stroke-miterlimit="10"/>
<path d="M1.5 130.5H277.5" stroke="#17AC38" stroke-width="0.25" stroke-miterlimit="10"/>
<path d="M1.5 147.5H277.5" stroke="#17AC38" stroke-width="0.25" stroke-miterlimit="10"/>
<path d="M1.5 163.5H277.5" stroke="#17AC38" stroke-width="0.25" stroke-miterlimit="10"/>
<path d="M75.9 37.5C76.7285 37.5 77.4 36.8284 77.4 36C77.4 35.1716 76.7285 34.5 75.9 34.5C75.0716 34.5 74.4 35.1716 74.4 36C74.4 36.8284 75.0716 37.5 75.9 37.5Z" fill="#145B2C"/>
<path d="M123.2 156.7C124.028 156.7 124.7 156.029 124.7 155.2C124.7 154.372 124.028 153.7 123.2 153.7C122.372 153.7 121.7 154.372 121.7 155.2C121.7 156.029 122.372 156.7 123.2 156.7Z" fill="#145B2C"/>
<path d="M226.5 94.1001C227.328 94.1001 228 93.4285 228 92.6001C228 91.7717 227.328 91.1001 226.5 91.1001C225.672 91.1001 225 91.7717 225 92.6001C225 93.4285 225.672 94.1001 226.5 94.1001Z" fill="#145B2C"/>
<path d="M149.7 92.6001H226.5" stroke="#145B2C" stroke-miterlimit="10"/>
<path d="M110.9 120.7V155.2H123.8" stroke="#145B2C" stroke-miterlimit="10"/>
<path d="M107 69.1V36H75.9" stroke="#145B2C" stroke-miterlimit="10"/>
<path d="M159.6 107C159.3 107 159 107 158.7 107C153.2 107 148.7 102.5 148.7 97.0001C148.7 91.5001 153.2 87.0001 158.7 87.0001C161.7 87.0001 164.4 88.3001 166.3 90.5001L166.4 90.3001L195.2 69.8001L160 67.9001L159.4 67.4001C158.1 71.5001 154.3 74.4001 149.8 74.4001C144.3 74.4001 139.8 69.9001 139.8 64.4001C139.8 60.7001 141.8 57.4001 144.8 55.7001L144.2 55.2001L133 24.6001L120.9 55.0001C123.5 56.8001 125.1 59.8001 125.1 63.2001C125.1 68.7001 120.6 73.2001 115.1 73.2001C110.1 73.2001 105.9 69.5001 105.2 64.7001L104.5 65.2001L68.9 63.6001L96.5 86.5001L96.7 87.1001C98.5 85.6001 100.7 84.7001 103.2 84.7001C108.7 84.7001 113.2 89.2001 113.2 94.7001C113.2 100.2 108.7 104.7 103.2 104.7C102.6 104.7 102.1 104.7 101.5 104.6L89.6 137.5L120 118.7L120.9 118.8C120.4 117.6 120.2 116.4 120.2 115.1C120.2 109.6 124.7 105.1 130.2 105.1C135.7 105.1 140.2 109.6 140.2 115.1C140.2 116.9 139.7 118.7 138.8 120.2L139.6 120.3L169.2 140.7L159.3 108L159.6 107ZM131.3 92.1001C127.9 92.1001 125.2 89.4001 125.2 86.0001C125.2 82.6001 127.9 79.9001 131.3 79.9001C134.7 79.9001 137.4 82.6001 137.4 86.0001C137.4 89.4001 134.7 92.1001 131.3 92.1001Z" fill="#68FFBC"/>
<path d="M163.2 106C162.9 106 162.6 106 162.3 106C156.8 106 152.3 101.5 152.3 96.0001C152.3 90.5001 156.8 86.0001 162.3 86.0001C165.3 86.0001 168 87.3001 169.9 89.5001L170 89.3001L198.8 68.8001L163.6 66.9001L163 66.4001C161.7 70.5001 157.9 73.4001 153.4 73.4001C147.9 73.4001 143.4 68.9001 143.4 63.4001C143.4 59.7001 145.4 56.4001 148.4 54.7001L147.8 54.2001L136.6 23.6001L124.5 54.0001C127.1 55.8001 128.7 58.8001 128.7 62.2001C128.7 67.7001 124.2 72.2001 118.7 72.2001C113.7 72.2001 109.5 68.5001 108.8 63.7001L108.1 64.2001L72.5 62.6001L100.1 85.5001L100.3 86.1001C102.1 84.6001 104.3 83.7001 106.8 83.7001C112.3 83.7001 116.8 88.2001 116.8 93.7001C116.8 99.2001 112.3 103.7 106.8 103.7C106.2 103.7 105.7 103.7 105.1 103.6L93.2 136.5L123.6 117.6L124.5 117.7C124 116.5 123.8 115.3 123.8 114C123.8 108.5 128.3 104 133.8 104C139.3 104 143.8 108.5 143.8 114C143.8 115.8 143.3 117.6 142.4 119.1L143.2 119.2L172.8 139.6L162.9 106.9L163.2 106ZM134.9 91.1001C131.5 91.1001 128.8 88.4001 128.8 85.0001C128.8 81.6001 131.5 78.9001 134.9 78.9001C138.3 78.9001 141 81.6001 141 85.0001C141.1 88.4001 138.3 91.1001 134.9 91.1001Z" fill="#FF572B" stroke="#1DDC47" stroke-miterlimit="10"/>
</svg>
