<svg width="275" height="176" viewBox="0 0 275 176" fill="none" xmlns="http://www.w3.org/2000/svg">
<path d="M0.5 1H274.5V175H0.5V1Z" stroke="#17AC38"/>
<path d="M17 0V176" stroke="#17AC38" stroke-width="0.25" stroke-miterlimit="10"/>
<path d="M37 0V176" stroke="#17AC38" stroke-width="0.25" stroke-miterlimit="10"/>
<path d="M78 0V176" stroke="#17AC38" stroke-width="0.25" stroke-miterlimit="10"/>
<path d="M98 0V176" stroke="#17AC38" stroke-width="0.25" stroke-miterlimit="10"/>
<path d="M58 0V176" stroke="#17AC38" stroke-width="0.25" stroke-miterlimit="10"/>
<path d="M118 0V176" stroke="#17AC38" stroke-width="0.25" stroke-miterlimit="10"/>
<path d="M138 0V176" stroke="#17AC38" stroke-width="0.25" stroke-miterlimit="10"/>
<path d="M158 0V176" stroke="#17AC38" stroke-width="0.25" stroke-miterlimit="10"/>
<path d="M178 0V176" stroke="#17AC38" stroke-width="0.25" stroke-miterlimit="10"/>
<path d="M198 0V176" stroke="#17AC38" stroke-width="0.25" stroke-miterlimit="10"/>
<path d="M218 0V176" stroke="#17AC38" stroke-width="0.25" stroke-miterlimit="10"/>
<path d="M238 0V176" stroke="#17AC38" stroke-width="0.25" stroke-miterlimit="10"/>
<path d="M258 0V176" stroke="#17AC38" stroke-width="0.25" stroke-miterlimit="10"/>
<path d="M126.3 74.3999H48.3" stroke="#145B2C" stroke-miterlimit="10"/>
<path d="M165.5 66.6999V36.3999H183.7" stroke="#145B2C" stroke-miterlimit="10"/>
<path d="M0.400024 15.5H273.4" stroke="#17AC38" stroke-width="0.25" stroke-miterlimit="10"/>
<path d="M0.400024 31.5H274.4" stroke="#17AC38" stroke-width="0.25" stroke-miterlimit="10"/>
<path d="M0.400024 47.5H274.4" stroke="#17AC38" stroke-width="0.25" stroke-miterlimit="10"/>
<path d="M0.400024 64.5H274.4" stroke="#17AC38" stroke-width="0.25" stroke-miterlimit="10"/>
<path d="M0.400024 80.5H274.4" stroke="#17AC38" stroke-width="0.25" stroke-miterlimit="10"/>
<path d="M0.400024 97.5H274.4" stroke="#17AC38" stroke-width="0.25" stroke-miterlimit="10"/>
<path d="M0.400024 113.5H274.4" stroke="#17AC38" stroke-width="0.25" stroke-miterlimit="10"/>
<path d="M0.400024 129.5H274.4" stroke="#17AC38" stroke-width="0.25" stroke-miterlimit="10"/>
<path d="M0.400024 146.5H274.4" stroke="#17AC38" stroke-width="0.25" stroke-miterlimit="10"/>
<path d="M0.400024 162.5H274.4" stroke="#17AC38" stroke-width="0.25" stroke-miterlimit="10"/>
<path d="M165.8 133.1H234.3V106.2" stroke="#145B2C" stroke-miterlimit="10"/>
<path d="M183.7 37.8999C184.528 37.8999 185.2 37.2283 185.2 36.3999C185.2 35.5715 184.528 34.8999 183.7 34.8999C182.872 34.8999 182.2 35.5715 182.2 36.3999C182.2 37.2283 182.872 37.8999 183.7 37.8999Z" fill="#145B2C"/>
<path d="M48.3 75.8999C49.1284 75.8999 49.8 75.2283 49.8 74.3999C49.8 73.5715 49.1284 72.8999 48.3 72.8999C47.4716 72.8999 46.8 73.5715 46.8 74.3999C46.8 75.2283 47.4716 75.8999 48.3 75.8999Z" fill="#145B2C"/>
<path d="M234.3 107.7C235.128 107.7 235.8 107.029 235.8 106.2C235.8 105.372 235.128 104.7 234.3 104.7C233.472 104.7 232.8 105.372 232.8 106.2C232.8 107.029 233.472 107.7 234.3 107.7Z" fill="#145B2C"/>
<path d="M139.8 143C135.1 143 93.2999 141.8 57.7 98.9002C61.1 94.9002 96.8999 54.7002 138.3 54.7002C138.9 54.7002 139.5 54.7002 140.1 54.7002C142 54.7002 185.6 55.2002 222.5 98.8002C219.4 102.7 187.9 141.3 140 142.9L139.8 143Z" fill="#FF572B"/>
<path d="M138.4 55.2002C139 55.2002 139.6 55.2002 140.3 55.2002C142.1 55.2002 185.3 55.7002 222 98.9002C220.1 101.3 212.4 110.5 200.2 119.8C187.2 129.7 166.2 141.6 140.2 142.5C140.2 142.5 140.1 142.5 139.9 142.5C135.3 142.5 93.9 141.3 58.5 98.9002C60.7 96.4002 69.3 86.8002 81.9 77.3002C106 59.1002 125.9 55.2002 138.4 55.2002ZM138.4 54.2002C94.2 54.2002 57.1 98.9002 57.1 98.9002C93 142.4 135.6 143.5 139.8 143.5C140 143.5 140.2 143.5 140.2 143.5C191.1 141.8 223.3 98.9002 223.3 98.9002C186 54.5002 141.4 54.3002 140.3 54.3002C139.6 54.3002 139 54.2002 138.4 54.2002Z" fill="#145B2C"/>
<path d="M140.1 136.4C160.811 136.4 177.6 119.611 177.6 98.9004C177.6 78.1897 160.811 61.4004 140.1 61.4004C119.389 61.4004 102.6 78.1897 102.6 98.9004C102.6 119.611 119.389 136.4 140.1 136.4Z" fill="#145B2C"/>
<path d="M140.2 129.5C157.155 129.5 170.9 115.755 170.9 98.8001C170.9 81.845 157.155 68.1001 140.2 68.1001C123.245 68.1001 109.5 81.845 109.5 98.8001C109.5 115.755 123.245 129.5 140.2 129.5Z" fill="#145B2C"/>
<path d="M140.2 97.8003C140.8 97.8003 141.2 98.3003 141.2 98.8003C141.2 99.3003 140.7 99.8003 140.2 99.8003C139.7 99.8003 139.2 99.3003 139.2 98.8003C139.2 98.3003 139.7 97.8003 140.2 97.8003ZM140.2 77.8003C128.6 77.8003 119.2 87.2003 119.2 98.8003C119.2 110.4 128.6 119.8 140.2 119.8C151.8 119.8 161.2 110.4 161.2 98.8003C161.2 87.2003 151.8 77.8003 140.2 77.8003Z" fill="white"/>
<path d="M140.2 70.6001C155.7 70.6001 168.4 83.2001 168.4 98.8001C168.4 114.4 155.8 127 140.2 127C124.6 127 112 114.4 112 98.8001C112 83.2001 124.7 70.6001 140.2 70.6001ZM140.2 69.6001C124.1 69.6001 111 82.7001 111 98.8001C111 114.9 124.1 128 140.2 128C156.3 128 169.4 114.9 169.4 98.8001C169.4 82.7001 156.3 69.6001 140.2 69.6001Z" fill="white"/>
<path d="M140.2 63.3003C159.8 63.3003 175.7 79.2003 175.7 98.8003C175.7 118.4 159.8 134.3 140.2 134.3C120.6 134.3 104.7 118.4 104.7 98.8003C104.7 79.2003 120.7 63.3003 140.2 63.3003ZM140.2 61.3003C119.5 61.3003 102.7 78.1003 102.7 98.8003C102.7 119.5 119.5 136.3 140.2 136.3C160.9 136.3 177.7 119.5 177.7 98.8003C177.7 78.1003 160.9 61.3003 140.2 61.3003Z" fill="white"/>
<path d="M140.2 67.7002C157.3 67.7002 171.3 81.6002 171.3 98.8002C171.3 115.9 157.4 129.9 140.2 129.9C123 129.9 109.1 116 109.1 98.8002C109.1 81.6002 123.1 67.7002 140.2 67.7002ZM140.2 66.7002C122.5 66.7002 108.1 81.1002 108.1 98.8002C108.1 116.5 122.5 130.9 140.2 130.9C157.9 130.9 172.3 116.5 172.3 98.8002C172.3 81.1002 157.9 66.7002 140.2 66.7002Z" fill="white"/>
<path d="M140.2 65.4004C158.6 65.4004 173.6 80.4004 173.6 98.8004C173.6 117.2 158.6 132.2 140.2 132.2C121.8 132.2 106.8 117.2 106.8 98.8004C106.8 80.4004 121.8 65.4004 140.2 65.4004ZM140.2 64.4004C121.2 64.4004 105.8 79.8004 105.8 98.8004C105.8 117.8 121.2 133.2 140.2 133.2C159.2 133.2 174.6 117.8 174.6 98.8004C174.6 79.8004 159.2 64.4004 140.2 64.4004Z" fill="#1DDC47"/>
<path d="M140.2 109.7C146.22 109.7 151.1 104.82 151.1 98.8004C151.1 92.7805 146.22 87.9004 140.2 87.9004C134.18 87.9004 129.3 92.7805 129.3 98.8004C129.3 104.82 134.18 109.7 140.2 109.7Z" fill="#1DDC47"/>
<path d="M140.2 100.7V109.3" stroke="#145B2C" stroke-miterlimit="10"/>
<path d="M140.2 88.9004V97.4004" stroke="#145B2C" stroke-miterlimit="10"/>
<path d="M150.2 99.0005H141.7" stroke="#145B2C" stroke-miterlimit="10"/>
<path d="M147.4 106.4L141.4 100.4" stroke="#145B2C" stroke-miterlimit="10"/>
<path d="M138.9 97.6001L132.9 91.6001" stroke="#145B2C" stroke-miterlimit="10"/>
<path d="M138.5 99.0005H130" stroke="#145B2C" stroke-miterlimit="10"/>
<path d="M138.9 100.4L132.9 106.4" stroke="#145B2C" stroke-miterlimit="10"/>
<path d="M147.4 91.9004L141.4 97.9004" stroke="#145B2C" stroke-miterlimit="10"/>
<path d="M146.5 105.5C147.66 105.5 148.6 104.56 148.6 103.4C148.6 102.24 147.66 101.3 146.5 101.3C145.34 101.3 144.4 102.24 144.4 103.4C144.4 104.56 145.34 105.5 146.5 105.5Z" fill="white"/>
<path d="M132.9 96.5001C135.22 96.5001 137.1 94.6197 137.1 92.3001C137.1 89.9805 135.22 88.1001 132.9 88.1001C130.58 88.1001 128.7 89.9805 128.7 92.3001C128.7 94.6197 130.58 96.5001 132.9 96.5001Z" fill="white"/>
</svg>
