<svg width="278" height="178" viewBox="0 0 278 178" fill="none" xmlns="http://www.w3.org/2000/svg">
<path d="M18.5 1V177" stroke="#17AC38" stroke-width="0.25" stroke-miterlimit="10"/>
<path d="M38.5 1V177" stroke="#17AC38" stroke-width="0.25" stroke-miterlimit="10"/>
<path d="M79.5 1V177" stroke="#17AC38" stroke-width="0.25" stroke-miterlimit="10"/>
<path d="M99.5 1V177" stroke="#17AC38" stroke-width="0.25" stroke-miterlimit="10"/>
<path d="M59.5 1V177" stroke="#17AC38" stroke-width="0.25" stroke-miterlimit="10"/>
<path d="M119.5 1V177" stroke="#17AC38" stroke-width="0.25" stroke-miterlimit="10"/>
<path d="M139.5 1V177" stroke="#17AC38" stroke-width="0.25" stroke-miterlimit="10"/>
<path d="M159.5 1V177" stroke="#17AC38" stroke-width="0.25" stroke-miterlimit="10"/>
<path d="M179.5 1V177" stroke="#17AC38" stroke-width="0.25" stroke-miterlimit="10"/>
<path d="M199.5 1V177" stroke="#17AC38" stroke-width="0.25" stroke-miterlimit="10"/>
<path d="M219.5 1V177" stroke="#17AC38" stroke-width="0.25" stroke-miterlimit="10"/>
<path d="M239.5 1V177" stroke="#17AC38" stroke-width="0.25" stroke-miterlimit="10"/>
<path d="M259.5 1V177" stroke="#17AC38" stroke-width="0.25" stroke-miterlimit="10"/>
<path d="M128.4 120.8V155.2H106" stroke="#145B2C" stroke-miterlimit="10"/>
<path d="M89.6 55.3V25H65" stroke="#145B2C" stroke-miterlimit="10"/>
<path d="M1.5 16.5H276.5" stroke="#17AC38" stroke-width="0.25" stroke-miterlimit="10"/>
<path d="M1.5 32.5H277.5" stroke="#17AC38" stroke-width="0.25" stroke-miterlimit="10"/>
<path d="M1.5 48.5H277.5" stroke="#17AC38" stroke-width="0.25" stroke-miterlimit="10"/>
<path d="M1.5 65.5H277.5" stroke="#17AC38" stroke-width="0.25" stroke-miterlimit="10"/>
<path d="M1.5 81.5H277.5" stroke="#17AC38" stroke-width="0.25" stroke-miterlimit="10"/>
<path d="M1.5 98.5H277.5" stroke="#17AC38" stroke-width="0.25" stroke-miterlimit="10"/>
<path d="M1.5 114.5H277.5" stroke="#17AC38" stroke-width="0.25" stroke-miterlimit="10"/>
<path d="M1.5 130.5H277.5" stroke="#17AC38" stroke-width="0.25" stroke-miterlimit="10"/>
<path d="M1.5 147.5H277.5" stroke="#17AC38" stroke-width="0.25" stroke-miterlimit="10"/>
<path d="M1.5 163.5H277.5" stroke="#17AC38" stroke-width="0.25" stroke-miterlimit="10"/>
<path d="M277 1H1V177H277V1Z" stroke="#17AC38" stroke-miterlimit="10"/>
<path d="M196.7 108.6H265.2V91.1001" stroke="#145B2C" stroke-miterlimit="10"/>
<path d="M65 26.5C65.8284 26.5 66.5 25.8284 66.5 25C66.5 24.1716 65.8284 23.5 65 23.5C64.1716 23.5 63.5 24.1716 63.5 25C63.5 25.8284 64.1716 26.5 65 26.5Z" fill="#145B2C"/>
<path d="M106 156.7C106.828 156.7 107.5 156.029 107.5 155.2C107.5 154.372 106.828 153.7 106 153.7C105.172 153.7 104.5 154.372 104.5 155.2C104.5 156.029 105.172 156.7 106 156.7Z" fill="#145B2C"/>
<path d="M265.2 92.6001C266.028 92.6001 266.7 91.9285 266.7 91.1001C266.7 90.2717 266.028 89.6001 265.2 89.6001C264.372 89.6001 263.7 90.2717 263.7 91.1001C263.7 91.9285 264.372 92.6001 265.2 92.6001Z" fill="#145B2C"/>
<path d="M192 49.7999C191.2 49.7999 190.5 49.7999 189.7 49.8999V49.7999H97.7C95.1 49.1999 92.3 48.8999 89.5 48.8999C68 48.8999 50.5 66.2999 50.5 87.8999C50.5 109.4 67.9 126.9 89.5 126.9C96.1 126.9 102.3 125.2 107.8 122.3H171.7L171.8 122.1C177.7 125.7 184.6 127.8 192 127.8C213.5 127.8 231 110.4 231 88.7999C231 67.1999 213.5 49.7999 192 49.7999Z" fill="#FF572B" stroke="#1DDC47" stroke-miterlimit="10"/>
<path d="M190.5 120.7C208.118 120.7 222.4 106.418 222.4 88.7999C222.4 71.182 208.118 56.8999 190.5 56.8999C172.882 56.8999 158.6 71.182 158.6 88.7999C158.6 106.418 172.882 120.7 190.5 120.7Z" fill="white" stroke="#1DDE47" stroke-miterlimit="10"/>
<path d="M89 112.2C102.255 112.2 113 101.723 113 88.7999C113 75.8764 102.255 65.3999 89 65.3999C75.7452 65.3999 65 75.8764 65 88.7999C65 101.723 75.7452 112.2 89 112.2Z" stroke="#1DDE47" stroke-miterlimit="10"/>
<path d="M156.9 62.8002H114.6C114.1 62.8002 113.7 62.4002 113.7 61.9002V56.1002C113.7 55.6002 114.1 55.2002 114.6 55.2002H156.9C157.4 55.2002 157.8 55.6002 157.8 56.1002V61.9002C157.8 62.5002 157.4 62.8002 156.9 62.8002Z" fill="#68FFBE"/>
<path d="M131 106.1H120.4C120.2 106.1 120.1 105.9 120.1 105.8V104.4C120.1 104.2 120.3 104.1 120.4 104.1H131C131.2 104.1 131.3 104.3 131.3 104.4V105.8C131.3 105.9 131.1 106.1 131 106.1Z" fill="#68FFBE"/>
<path d="M157.4 66.7998H114.1C113.9 66.7998 113.8 66.5998 113.8 66.4998V65.0998C113.8 64.8998 114 64.7998 114.1 64.7998H157.4C157.6 64.7998 157.7 64.9998 157.7 65.0998V66.4998C157.8 66.5998 157.6 66.7998 157.4 66.7998Z" fill="#68FFBE"/>
<path d="M146.7 106.1H136.1C135.9 106.1 135.8 105.9 135.8 105.8V104.4C135.8 104.2 136 104.1 136.1 104.1H146.7C146.9 104.1 147 104.3 147 104.4V105.8C147 105.9 146.9 106.1 146.7 106.1Z" fill="#68FFBE"/>
<path d="M132.5 94.0998L122.1 100.7C121.7 101 121.1 100.8 120.8 100.4L120.1 99.2998C119.8 98.8998 120 98.2998 120.4 97.9998L130.8 91.3998C131.2 91.0998 131.8 91.2998 132.1 91.6998L132.8 92.7998C133 93.2998 132.9 93.7998 132.5 94.0998Z" fill="#1DDE47"/>
<path d="M148.8 94.0998L138.4 100.7C138 101 137.4 100.8 137.1 100.4L136.4 99.2998C136.1 98.8998 136.3 98.2998 136.7 97.9998L147.1 91.3998C147.5 91.0998 148.1 91.2998 148.4 91.6998L149.1 92.7998C149.3 93.2998 149.2 93.7998 148.8 94.0998Z" fill="#1DDE47"/>
<path d="M94 104.2H85.1C84.6 104.2 84.1 103.8 84.1 103.2V72.3999C84.1 71.8999 84.5 71.3999 85.1 71.3999H94C94.5 71.3999 95 71.7999 95 72.3999V103.2C95 103.8 94.6 104.2 94 104.2Z" fill="#1DDE47"/>
<path d="M73.2 92.2999V83.3999C73.2 82.8999 73.6 82.3999 74.2 82.3999H105C105.5 82.3999 106 82.7999 106 83.3999V92.2999C106 92.7999 105.6 93.2999 105 93.2999H74.2C73.6 93.2999 73.2 92.7999 73.2 92.2999Z" fill="#1DDE47"/>
<path d="M89.5 92.2001C91.8748 92.2001 93.8 90.2749 93.8 87.9001C93.8 85.5253 91.8748 83.6001 89.5 83.6001C87.1252 83.6001 85.2 85.5253 85.2 87.9001C85.2 90.2749 87.1252 92.2001 89.5 92.2001Z" fill="white"/>
<path d="M98.2 84.8999V91.0999L104.1 87.9999L98.2 84.8999Z" fill="white"/>
<path d="M92.7 96.7002H86.5L89.6 102.6L92.7 96.7002Z" fill="white"/>
<path d="M80.4 91.0999V84.8999L74.5 87.9999L80.4 91.0999Z" fill="white"/>
<path d="M86.5 78.6998H92.7L89.6 72.7998L86.5 78.6998Z" fill="white"/>
<path d="M194.8 80.4999L176.6 98.6999C174.6 100.7 171.4 100.7 169.5 98.6999L165.5 94.6999C163.5 92.6999 163.5 89.4999 165.5 87.5999L183.7 69.3999C185.7 67.3999 188.9 67.3999 190.8 69.3999L194.8 73.3999C196.8 75.2999 196.8 78.4999 194.8 80.4999Z" fill="#1DDE47"/>
<path d="M216.8 90.7L198.5 108.9C196.5 110.9 193.3 110.9 191.4 108.9L187.4 104.9C185.4 102.9 185.4 99.7 187.4 97.8L205.6 79.5C207.6 77.5 210.8 77.5 212.7 79.5L216.7 83.5C218.8 85.5 218.8 88.7 216.8 90.7Z" fill="#1DDE47"/>
<path d="M174 95.9C177.148 95.9 179.7 93.348 179.7 90.2C179.7 87.052 177.148 84.5 174 84.5C170.852 84.5 168.3 87.052 168.3 90.2C168.3 93.348 170.852 95.9 174 95.9Z" fill="white"/>
<path d="M186 83.8998C189.203 83.8998 191.8 81.3031 191.8 78.0998C191.8 74.8965 189.203 72.2998 186 72.2998C182.797 72.2998 180.2 74.8965 180.2 78.0998C180.2 81.3031 182.797 83.8998 186 83.8998Z" fill="white"/>
<path d="M196.4 105.5C199.548 105.5 202.1 102.948 202.1 99.8001C202.1 96.6521 199.548 94.1001 196.4 94.1001C193.252 94.1001 190.7 96.6521 190.7 99.8001C190.7 102.948 193.252 105.5 196.4 105.5Z" fill="white"/>
<path d="M208.4 93.4002C211.493 93.4002 214 90.893 214 87.8002C214 84.7074 211.493 82.2002 208.4 82.2002C205.307 82.2002 202.8 84.7074 202.8 87.8002C202.8 90.893 205.307 93.4002 208.4 93.4002Z" fill="white"/>
</svg>
