<svg width="278" height="178" viewBox="0 0 278 178" fill="none" xmlns="http://www.w3.org/2000/svg">
<path d="M277 1H1V177H277V1Z" stroke="#17AC38" stroke-miterlimit="10"/>
<path d="M19.5 1.5V177.5" stroke="#17AC38" stroke-width="0.25" stroke-miterlimit="10"/>
<path d="M39.5 1.5V177.5" stroke="#17AC38" stroke-width="0.25" stroke-miterlimit="10"/>
<path d="M80.5 1.5V177.5" stroke="#17AC38" stroke-width="0.25" stroke-miterlimit="10"/>
<path d="M100.5 1.5V177.5" stroke="#17AC38" stroke-width="0.25" stroke-miterlimit="10"/>
<path d="M60.5 1.5V177.5" stroke="#17AC38" stroke-width="0.25" stroke-miterlimit="10"/>
<path d="M120.5 1.5V177.5" stroke="#17AC38" stroke-width="0.25" stroke-miterlimit="10"/>
<path d="M140.5 1.5V177.5" stroke="#17AC38" stroke-width="0.25" stroke-miterlimit="10"/>
<path d="M160.5 1.5V177.5" stroke="#17AC38" stroke-width="0.25" stroke-miterlimit="10"/>
<path d="M180.5 1.5V177.5" stroke="#17AC38" stroke-width="0.25" stroke-miterlimit="10"/>
<path d="M200.5 1.5V177.5" stroke="#17AC38" stroke-width="0.25" stroke-miterlimit="10"/>
<path d="M220.5 1.5V177.5" stroke="#17AC38" stroke-width="0.25" stroke-miterlimit="10"/>
<path d="M240.5 1.5V177.5" stroke="#17AC38" stroke-width="0.25" stroke-miterlimit="10"/>
<path d="M260.5 1.5V177.5" stroke="#17AC38" stroke-width="0.25" stroke-miterlimit="10"/>
<path d="M1.5 16.5H276.5" stroke="#17AC38" stroke-width="0.25" stroke-miterlimit="10"/>
<path d="M1.5 32.5H277.5" stroke="#17AC38" stroke-width="0.25" stroke-miterlimit="10"/>
<path d="M1.5 48.5H277.5" stroke="#17AC38" stroke-width="0.25" stroke-miterlimit="10"/>
<path d="M1.5 65.5H277.5" stroke="#17AC38" stroke-width="0.25" stroke-miterlimit="10"/>
<path d="M1.5 81.5H277.5" stroke="#17AC38" stroke-width="0.25" stroke-miterlimit="10"/>
<path d="M1.5 98.5H277.5" stroke="#17AC38" stroke-width="0.25" stroke-miterlimit="10"/>
<path d="M1.5 114.5H277.5" stroke="#17AC38" stroke-width="0.25" stroke-miterlimit="10"/>
<path d="M1.5 130.5H277.5" stroke="#17AC38" stroke-width="0.25" stroke-miterlimit="10"/>
<path d="M1.5 147.5H277.5" stroke="#17AC38" stroke-width="0.25" stroke-miterlimit="10"/>
<path d="M1.5 163.5H277.5" stroke="#17AC38" stroke-width="0.25" stroke-miterlimit="10"/>
<path d="M170.3 61.4999C170.8 61.4999 171.2 61.3999 171.5 61.2999C171.8 61.1999 172.1 60.9999 172.2 60.6999C172.4 60.4999 172.5 60.1999 172.6 59.7999C172.7 59.4999 172.7 59.0999 172.7 58.7999V58.4999H175.2V58.7999C175.2 60.3999 174.8 61.5999 174 62.4999C173.2 63.3999 172 63.7999 170.4 63.7999C168.9 63.7999 167.7 63.2999 166.8 62.3999C165.9 61.4999 165.5 60.0999 165.5 58.3999V55.3999C165.5 54.5999 165.6 53.7999 165.8 53.0999C166 52.3999 166.4 51.8999 166.8 51.3999C167.2 50.8999 167.8 50.5999 168.4 50.2999C169 50.0999 169.7 49.8999 170.5 49.8999C171.3 49.8999 172 49.9999 172.6 50.1999C173.2 50.3999 173.7 50.7999 174.1 51.1999C174.5 51.5999 174.8 52.1999 175 52.7999C175.2 53.3999 175.3 54.0999 175.3 54.8999V55.1999H172.8V54.8999C172.8 54.5999 172.8 54.2999 172.7 53.8999C172.6 53.4999 172.5 53.2999 172.3 52.9999C172.1 52.6999 171.9 52.4999 171.6 52.3999C171.3 52.2999 170.9 52.1999 170.5 52.1999C170.1 52.1999 169.7 52.2999 169.4 52.3999C169.1 52.5999 168.8 52.7999 168.6 52.9999C168.4 53.2999 168.2 53.5999 168.2 53.8999C168.1 54.2999 168.1 54.5999 168.1 54.9999V58.2999C168.1 58.6999 168.1 59.0999 168.2 59.4999C168.3 59.8999 168.4 60.1999 168.6 60.3999C168.8 60.6999 169 60.8999 169.4 60.9999C169.5 61.4999 169.8 61.4999 170.3 61.4999Z" fill="#145B2C"/>
<path d="M212.6 54.3002C212.6 53.8002 212.4 53.3002 212 52.9002C211.6 52.5002 211 52.3002 210.3 52.3002C209.7 52.3002 209.2 52.4002 208.8 52.7002C208.4 53.0002 208.2 53.3002 208.2 53.8002C208.2 54.0002 208.2 54.2002 208.3 54.4002C208.4 54.6002 208.5 54.7002 208.8 54.9002C209.1 55.1002 209.3 55.2002 209.7 55.3002C210.1 55.4002 210.5 55.5002 211.1 55.6002C212.5 55.9002 213.6 56.3002 214.3 56.9002C215 57.5002 215.4 58.4002 215.4 59.5002V59.7002C215.4 60.3002 215.3 60.9002 215.1 61.4002C214.9 61.9002 214.6 62.3002 214.1 62.7002C213.6 63.1002 213.2 63.3002 212.6 63.5002C212 63.7002 211.3 63.8002 210.6 63.8002C209.7 63.8002 209 63.7002 208.3 63.4002C207.6 63.1002 207.1 62.8002 206.6 62.4002C206.2 62.0002 205.8 61.4002 205.6 60.9002C205.4 60.3002 205.3 59.7002 205.3 59.0002V58.4002H207.8V58.9002C207.8 59.7002 208 60.3002 208.5 60.8002C209 61.3002 209.7 61.5002 210.7 61.5002C211.5 61.5002 212 61.3002 212.4 61.0002C212.8 60.7002 213 60.3002 213 59.8002C213 59.6002 213 59.4002 212.9 59.2002C212.8 59.0002 212.7 58.8002 212.5 58.7002C212.3 58.5002 212 58.4002 211.7 58.3002C211.4 58.2002 211 58.1002 210.4 58.0002C209.7 57.9002 209.1 57.7002 208.6 57.6002C208 57.4002 207.6 57.2002 207.1 56.9002C206.7 56.6002 206.4 56.2002 206.1 55.8002C205.9 55.3002 205.8 54.8002 205.8 54.1002V54.0002C205.8 53.5002 205.9 53.0002 206.1 52.5002C206.3 52.0002 206.6 51.6002 207 51.3002C207.4 51.0002 207.9 50.7002 208.4 50.5002C208.9 50.3002 209.6 50.2002 210.3 50.2002C211.1 50.2002 211.8 50.3002 212.4 50.5002C213 50.7002 213.5 51.0002 213.9 51.4002C214.3 51.8002 214.6 52.2002 214.8 52.7002C215 53.2002 215.1 53.7002 215.1 54.3002V55.0002H212.6V54.3002V54.3002Z" fill="#145B2C"/>
<path d="M192.5 60.6998H188L187.4 63.5998H184.8L188 50.2998H192.7L195.9 63.5998H193.3L192.5 60.6998ZM188.5 58.2998H191.9L190.4 51.4998H190.1L188.5 58.2998Z" fill="#145B2C"/>
<path d="M226.1 50.5H234.5V52.9H228.6V55.9H234.3V58.3H228.6V61.4H234.7V63.8H226.1V50.5Z" fill="#145B2C"/>
<path d="M72.5 92H27V72.5" stroke="#145B2C" stroke-miterlimit="10"/>
<path d="M107 35.5V11H193V37.5" stroke="#145B2C" stroke-miterlimit="10"/>
<path d="M117.5 89H171.5" stroke="#145B2C" stroke-miterlimit="10"/>
<path d="M140.5 142H209V124.5" stroke="#145B2C" stroke-miterlimit="10"/>
<path d="M27 74.5C27.8284 74.5 28.5 73.8284 28.5 73C28.5 72.1716 27.8284 71.5 27 71.5C26.1716 71.5 25.5 72.1716 25.5 73C25.5 73.8284 26.1716 74.5 27 74.5Z" fill="#145B2C"/>
<path d="M193 39.5C193.828 39.5 194.5 38.8284 194.5 38C194.5 37.1716 193.828 36.5 193 36.5C192.172 36.5 191.5 37.1716 191.5 38C191.5 38.8284 192.172 39.5 193 39.5Z" fill="#145B2C"/>
<path d="M172 90.5C172.828 90.5 173.5 89.8284 173.5 89C173.5 88.1716 172.828 87.5 172 87.5C171.172 87.5 170.5 88.1716 170.5 89C170.5 89.8284 171.172 90.5 172 90.5Z" fill="#145B2C"/>
<path d="M209 125.5C209.828 125.5 210.5 124.828 210.5 124C210.5 123.172 209.828 122.5 209 122.5C208.172 122.5 207.5 123.172 207.5 124C207.5 124.828 208.172 125.5 209 125.5Z" fill="#145B2C"/>
<path d="M20 154.6L70.6 132.3C70.6 132.3 73.7 130.6 73.1 121.9L79 119.7V107.6C79 107.6 74.2 102.8 72.8 91.9002C72.8 91.9002 71.1 98.1002 67.2 81.5002C67.2 81.5002 65 72.2002 68.3 72.8002C68.3 72.8002 68.3 61.9002 68 61.3002C67.7 60.7002 63.5 47.6002 73 43.6002C73 43.6002 74.4 34.9002 87 32.1002L84.5 29.3002L90.4 31.3002L87.9 25.7002C87.9 25.7002 89.6 28.5002 94.6 29.6002L106.1 29.0002C106.1 29.0002 122.9 32.6002 126 41.9002C126 41.9002 135.8 42.2002 130.2 71.6002C130.2 71.6002 138 74.4002 126 92.1002C126 92.1002 124.3 99.7002 119.3 108.1L120.4 120.2L125.7 122.2C125.7 122.2 124.9 128.9 129.1 133.7L180 152.4L179.9 177H20V154.6Z" fill="#FF572B" stroke="#17AC38" stroke-miterlimit="10"/>
</svg>
