<svg width="723" height="374" viewBox="0 0 723 374" fill="none" xmlns="http://www.w3.org/2000/svg">
<path d="M721.192 2H2V372.182H721.192V2Z" fill="white" stroke="#2B5931" stroke-width="3" stroke-miterlimit="10"/>
<path d="M25.2727 2.64648L7.7373 23.8182V58.9697" stroke="#2B5931" stroke-width="0.75" stroke-miterlimit="10"/>
<path d="M68.4241 2L71.4948 6.0404V19.4545L62.5251 28.9899H20.7473V68.8283" stroke="#2B5931" stroke-width="0.75" stroke-miterlimit="10"/>
<path d="M80.8687 2L86.5253 8.38384V23.4949L71.495 36.5859H34V55.7374" stroke="#2B5931" stroke-width="0.75" stroke-miterlimit="10"/>
<path d="M86.5251 41.5151V84.2626" stroke="#2B5931" stroke-width="0.75" stroke-miterlimit="10"/>
<path d="M94.687 2V7.17172L99.4547 9.83838V35.3737" stroke="#2B5931" stroke-width="0.75" stroke-miterlimit="10"/>
<path d="M111.576 2.646V33.1914H125.071V71.0096" stroke="#2B5931" stroke-width="0.75" stroke-miterlimit="10"/>
<path d="M138.162 18.6465V12.505H125.071V2" stroke="#2B5931" stroke-width="0.75" stroke-miterlimit="10"/>
<path d="M150.848 2.646V23.5753H138.162V48.7066" stroke="#2B5931" stroke-width="0.75" stroke-miterlimit="10"/>
<path d="M164.586 2.646V57.9187" stroke="#2B5931" stroke-width="0.75" stroke-miterlimit="10"/>
<path d="M180.02 2L176.869 6.68687V16.7071" stroke="#2B5931" stroke-width="0.75" stroke-miterlimit="10"/>
<path d="M194.646 2V82.3232" stroke="#2B5931" stroke-width="0.75" stroke-miterlimit="10"/>
<path d="M215.899 2L213.232 5.07071V57.4343" stroke="#2B5931" stroke-width="0.75" stroke-miterlimit="10"/>
<path d="M226.565 2V49.5151" stroke="#2B5931" stroke-width="0.75" stroke-miterlimit="10"/>
<path d="M239.656 2V18.6465" stroke="#2B5931" stroke-width="0.75" stroke-miterlimit="10"/>
<path d="M252.747 2V22.7677L239.656 35.3737V67.9394" stroke="#2B5931" stroke-width="0.75" stroke-miterlimit="10"/>
<path d="M266.081 2V19.9394L252.748 33.0303V77.8788" stroke="#2B5931" stroke-width="0.75" stroke-miterlimit="10"/>
<path d="M266.081 39.8989V90.4848" stroke="#2B5931" stroke-width="0.75" stroke-miterlimit="10"/>
<path d="M278.768 2V67.9394" stroke="#2B5931" stroke-width="0.75" stroke-miterlimit="10"/>
<path d="M297.273 2L291.616 7.65657V22.5253L306.808 35.3737L344.303 34.8889V79.9798" stroke="#2B5931" stroke-width="0.75" stroke-miterlimit="10"/>
<path d="M305.677 2.646V19.8581H325.07" stroke="#2B5931" stroke-width="0.75" stroke-miterlimit="10"/>
<path d="M353.596 2.646L358.525 8.54499V54.0399" stroke="#2B5931" stroke-width="0.75" stroke-miterlimit="10"/>
<path d="M376.545 2.646V22.6864" stroke="#2B5931" stroke-width="0.75" stroke-miterlimit="10"/>
<path d="M391.495 2L396.667 10.2424V29.6364L388.748 39.899V67.9394" stroke="#2B5931" stroke-width="0.75" stroke-miterlimit="10"/>
<path d="M410.727 34.8887V87.0907" stroke="#2B5931" stroke-width="0.75" stroke-miterlimit="10"/>
<path d="M417.677 2.646L425.677 12.6662V36.8278" stroke="#2B5931" stroke-width="0.75" stroke-miterlimit="10"/>
<path d="M438.283 2.646V44.9086" stroke="#2B5931" stroke-width="0.75" stroke-miterlimit="10"/>
<path d="M438.283 93.8789V67.9395L450.808 63.2527V30.3638" stroke="#2B5931" stroke-width="0.75" stroke-miterlimit="10"/>
<path d="M463.818 24.6265V51.0507" stroke="#2B5931" stroke-width="0.75" stroke-miterlimit="10"/>
<path d="M476.828 2V33.2727" stroke="#2B5931" stroke-width="0.75" stroke-miterlimit="10"/>
<path d="M490.727 2V60.9899" stroke="#2B5931" stroke-width="0.75" stroke-miterlimit="10"/>
<path d="M506.566 2L501.798 6.44444V17.596" stroke="#2B5931" stroke-width="0.75" stroke-miterlimit="10"/>
<path d="M520.707 2.646V80.545" stroke="#2B5931" stroke-width="0.75" stroke-miterlimit="10"/>
<path d="M539.131 2V58" stroke="#2B5931" stroke-width="0.75" stroke-miterlimit="10"/>
<path d="M552.465 51.0505V13.5556L547.616 9.75758V2" stroke="#2B5931" stroke-width="0.75" stroke-miterlimit="10"/>
<path d="M565.232 2V20.5051" stroke="#2B5931" stroke-width="0.75" stroke-miterlimit="10"/>
<path d="M565.232 71.1717V34.8889L579.051 23.4949V2" stroke="#2B5931" stroke-width="0.75" stroke-miterlimit="10"/>
<path d="M592.142 40.2222V91.8585" stroke="#2B5931" stroke-width="0.75" stroke-miterlimit="10"/>
<path d="M579.051 79.0909V34.8889L592.141 22.5253V2" stroke="#2B5931" stroke-width="0.75" stroke-miterlimit="10"/>
<path d="M609.677 2L604.02 8.22222V26.4848V67.9394" stroke="#2B5931" stroke-width="0.75" stroke-miterlimit="10"/>
<path d="M623.01 2L617.919 8.46465V24.6263L634.566 37.6364V81.4343" stroke="#2B5931" stroke-width="0.75" stroke-miterlimit="10"/>
<path d="M617.919 40.2222V55.7373" stroke="#2B5931" stroke-width="0.75" stroke-miterlimit="10"/>
<path d="M636.02 2V21.5556H650.727" stroke="#2B5931" stroke-width="0.75" stroke-miterlimit="10"/>
<path d="M668.586 2L673.677 9.75758V58" stroke="#2B5931" stroke-width="0.75" stroke-miterlimit="10"/>
<path d="M658.647 2V36.5859L650.728 41.6768V63.2525" stroke="#2B5931" stroke-width="0.75" stroke-miterlimit="10"/>
<path d="M333.717 2L336.707 10.2424V24.6263" stroke="#2B5931" stroke-width="0.75" stroke-miterlimit="10"/>
<path d="M695.333 2.646L689.838 12.4238V35.7773L707.212 41.5955V71.0096" stroke="#2B5931" stroke-width="0.75" stroke-miterlimit="10"/>
<path d="M707.212 2.646L717.555 20.747V47.1712" stroke="#2B5931" stroke-width="0.75" stroke-miterlimit="10"/>
<path d="M40.0605 2L46.1212 10.2424V22.2828" stroke="#2B5931" stroke-width="0.75" stroke-miterlimit="10"/>
<path d="M35.6968 372.182V319.091L61.4746 293.636V266.323" stroke="#2B5931" stroke-width="0.75" stroke-miterlimit="10"/>
<path d="M22.7676 334.929L8.14136 319.253L48.5454 278.283V241.677" stroke="#2B5931" stroke-width="0.75" stroke-miterlimit="10"/>
<path d="M12.3433 301.556L24.5453 288.222V278.606L37.0705 266.323" stroke="#2B5931" stroke-width="0.75" stroke-miterlimit="10"/>
<path d="M8.14136 248.061V282.162" stroke="#2B5931" stroke-width="0.75" stroke-miterlimit="10"/>
<path d="M48.5454 334.929V319.252L61.4747 327.09V348.585L48.5454 362.565V372.181" stroke="#2B5931" stroke-width="0.75" stroke-miterlimit="10"/>
<path d="M61.4749 217.596V237.313L75.7779 252.02V297.192" stroke="#2B5931" stroke-width="0.75" stroke-miterlimit="10"/>
<path d="M75.7776 344.222V372.181" stroke="#2B5931" stroke-width="0.75" stroke-miterlimit="10"/>
<path d="M103.98 371.778L95.2524 364.182V344.465" stroke="#2B5931" stroke-width="0.75" stroke-miterlimit="10"/>
<path d="M85.1516 326.364V282.162L99.6163 268.182V219.374" stroke="#2B5931" stroke-width="0.75" stroke-miterlimit="10"/>
<path d="M125.96 285.717L116.909 276.424L98.4041 297.192V324.505" stroke="#2B5931" stroke-width="0.75" stroke-miterlimit="10"/>
<path d="M113.758 310.849V354L123.859 362.566" stroke="#2B5931" stroke-width="0.75" stroke-miterlimit="10"/>
<path d="M130.162 372.181L144.384 356.423V320.625L153.515 311.171V221.878" stroke="#2B5931" stroke-width="0.75" stroke-miterlimit="10"/>
<path d="M138.485 236.263V257.354" stroke="#2B5931" stroke-width="0.75" stroke-miterlimit="10"/>
<path d="M170.889 372.183L163.616 356.425V246.769" stroke="#2B5931" stroke-width="0.75" stroke-miterlimit="10"/>
<path d="M184.869 345.758V372.182" stroke="#2B5931" stroke-width="0.75" stroke-miterlimit="10"/>
<path d="M212.343 372.181L200.869 360.383V322.322H184.869V204.262" stroke="#2B5931" stroke-width="0.75" stroke-miterlimit="10"/>
<path d="M209.596 257.354L198.606 271.01V297.192" stroke="#2B5931" stroke-width="0.75" stroke-miterlimit="10"/>
<path d="M214.848 288.223V362.566L226.646 372.182" stroke="#2B5931" stroke-width="0.75" stroke-miterlimit="10"/>
<path d="M225.273 246.769L226.646 307.617L239.253 319.253V354.647L254.929 372.183" stroke="#2B5931" stroke-width="0.75" stroke-miterlimit="10"/>
<path d="M252.424 263.899L242.323 274.566V293.314L254.929 306.566V351.819" stroke="#2B5931" stroke-width="0.75" stroke-miterlimit="10"/>
<path d="M257.03 286.121L266.727 276.424L286.606 300.505V324.505" stroke="#2B5931" stroke-width="0.75" stroke-miterlimit="10"/>
<path d="M268.505 309.556V372.182" stroke="#2B5931" stroke-width="0.75" stroke-miterlimit="10"/>
<path d="M283.455 257.354V281.111L298.808 300.505V338.889" stroke="#2B5931" stroke-width="0.75" stroke-miterlimit="10"/>
<path d="M284.909 343.172L278.606 354.647V372.182" stroke="#2B5931" stroke-width="0.75" stroke-miterlimit="10"/>
<path d="M317.96 300.505L308.263 307.778V360.788L317.96 372.182" stroke="#2B5931" stroke-width="0.75" stroke-miterlimit="10"/>
<path d="M308.263 279.98V249.919L321.273 236.424V210" stroke="#2B5931" stroke-width="0.75" stroke-miterlimit="10"/>
<path d="M321.273 263.899V289.758L346.485 315.617V357.718" stroke="#2B5931" stroke-width="0.75" stroke-miterlimit="10"/>
<path d="M332.263 372.182V358.929L321.273 345.758V309.556L333.879 319.818V338.889" stroke="#2B5931" stroke-width="0.75" stroke-miterlimit="10"/>
<path d="M361.192 371.293V339.697" stroke="#2B5931" stroke-width="0.75" stroke-miterlimit="10"/>
<path d="M381.232 372.182L392.142 362.162V288.223" stroke="#2B5931" stroke-width="0.75" stroke-miterlimit="10"/>
<path d="M374.687 297.192V269.879L386.646 258.646" stroke="#2B5931" stroke-width="0.75" stroke-miterlimit="10"/>
<path d="M353.515 211.938V283.615" stroke="#2B5931" stroke-width="0.75" stroke-miterlimit="10"/>
<path d="M422.04 372.183L407.576 359.092V317.718L417.515 307.455V246.769" stroke="#2B5931" stroke-width="0.75" stroke-miterlimit="10"/>
<path d="M431.495 286.929L440.788 277.312L460.101 297.191V321.03" stroke="#2B5931" stroke-width="0.75" stroke-miterlimit="10"/>
<path d="M440.222 307.778L431.495 321.031V350.122L440.222 357.718V372.182" stroke="#2B5931" stroke-width="0.75" stroke-miterlimit="10"/>
<path d="M469.071 343.172L457.596 354.647V372.182" stroke="#2B5931" stroke-width="0.75" stroke-miterlimit="10"/>
<path d="M458.727 260.021L473.677 273.515V307.778" stroke="#2B5931" stroke-width="0.75" stroke-miterlimit="10"/>
<path d="M484.263 305.919V359.333L495.98 372.182" stroke="#2B5931" stroke-width="0.75" stroke-miterlimit="10"/>
<path d="M495.98 211.938V236.585L484.263 249.999V277.959" stroke="#2B5931" stroke-width="0.75" stroke-miterlimit="10"/>
<path d="M495.98 266.484V348.505L509.798 362.161V372.181" stroke="#2B5931" stroke-width="0.75" stroke-miterlimit="10"/>
<path d="M506.566 314.323L517.96 324.505V356.02" stroke="#2B5931" stroke-width="0.75" stroke-miterlimit="10"/>
<path d="M509.798 228.99V277.96L537.596 306.647V328.95" stroke="#2B5931" stroke-width="0.75" stroke-miterlimit="10"/>
<path d="M530.727 343.172V372.182" stroke="#2B5931" stroke-width="0.75" stroke-miterlimit="10"/>
<path d="M523.697 264.546L548.828 290.404V361.596L542.687 372.182" stroke="#2B5931" stroke-width="0.75" stroke-miterlimit="10"/>
<path d="M557.798 250V277.313" stroke="#2B5931" stroke-width="0.75" stroke-miterlimit="10"/>
<path d="M562.97 371.293V325.152L580.182 307.455V256.546" stroke="#2B5931" stroke-width="0.75" stroke-miterlimit="10"/>
<path d="M582.929 351.011V324.021L598.848 307.778V372.182" stroke="#2B5931" stroke-width="0.75" stroke-miterlimit="10"/>
<path d="M594.081 235.858V278.929L611.131 296.464V346.161" stroke="#2B5931" stroke-width="0.75" stroke-miterlimit="10"/>
<path d="M619.616 372.181V340.02" stroke="#2B5931" stroke-width="0.75" stroke-miterlimit="10"/>
<path d="M634.485 328.95V286.203L648.545 271.657V222.122" stroke="#2B5931" stroke-width="0.75" stroke-miterlimit="10"/>
<path d="M611.131 220.263V238.929L625.596 255.737V289.273" stroke="#2B5931" stroke-width="0.75" stroke-miterlimit="10"/>
<path d="M637.394 356.02L651.858 366.282V372.181" stroke="#2B5931" stroke-width="0.75" stroke-miterlimit="10"/>
<path d="M664.869 372.183V313.031" stroke="#2B5931" stroke-width="0.75" stroke-miterlimit="10"/>
<path d="M648.545 335.172V296.869L667.05 278.93V263.576" stroke="#2B5931" stroke-width="0.75" stroke-miterlimit="10"/>
<path d="M687.818 240.06V269.474" stroke="#2B5931" stroke-width="0.75" stroke-miterlimit="10"/>
<path d="M679.656 372.183L692.263 360.627V313.031L702.283 293.476V222.122" stroke="#2B5931" stroke-width="0.75" stroke-miterlimit="10"/>
<path d="M707.051 372.182L716.343 361.354V330.485" stroke="#2B5931" stroke-width="0.75" stroke-miterlimit="10"/>
<path d="M7.73722 61.7171C9.20998 61.7171 10.4039 60.487 10.4039 58.9696C10.4039 57.4523 9.20998 56.2222 7.73722 56.2222C6.26446 56.2222 5.07056 57.4523 5.07056 58.9696C5.07056 60.487 6.26446 61.7171 7.73722 61.7171Z" fill="#2B5931"/>
<path d="M46.1213 25.0301C47.594 25.0301 48.7879 23.8 48.7879 22.2826C48.7879 20.7652 47.594 19.5352 46.1213 19.5352C44.6485 19.5352 43.4546 20.7652 43.4546 22.2826C43.4546 23.8 44.6485 25.0301 46.1213 25.0301Z" fill="#2B5931"/>
<path d="M33.9999 58.4847C35.4727 58.4847 36.6666 57.2546 36.6666 55.7372C36.6666 54.2198 35.4727 52.9897 33.9999 52.9897C32.5272 52.9897 31.3333 54.2198 31.3333 55.7372C31.3333 57.2546 32.5272 58.4847 33.9999 58.4847Z" fill="#2B5931"/>
<path d="M20.7475 71.5755C22.2202 71.5755 23.4141 70.3454 23.4141 68.828C23.4141 67.3107 22.2202 66.0806 20.7475 66.0806C19.2747 66.0806 18.0808 67.3107 18.0808 68.828C18.0808 70.3454 19.2747 71.5755 20.7475 71.5755Z" fill="white" stroke="#2B5931" stroke-miterlimit="10"/>
<path d="M8.14128 284.908C9.61404 284.908 10.8079 283.678 10.8079 282.161C10.8079 280.643 9.61404 279.413 8.14128 279.413C6.66852 279.413 5.47461 280.643 5.47461 282.161C5.47461 283.678 6.66852 284.908 8.14128 284.908Z" fill="white" stroke="#2B5931" stroke-miterlimit="10"/>
<path d="M12.3434 304.303C13.8162 304.303 15.0101 303.072 15.0101 301.555C15.0101 300.038 13.8162 298.808 12.3434 298.808C10.8707 298.808 9.67676 300.038 9.67676 301.555C9.67676 303.072 10.8707 304.303 12.3434 304.303Z" fill="white" stroke="#2B5931" stroke-miterlimit="10"/>
<path d="M37.0707 269.071C38.5435 269.071 39.7374 267.841 39.7374 266.324C39.7374 264.806 38.5435 263.576 37.0707 263.576C35.598 263.576 34.4041 264.806 34.4041 266.324C34.4041 267.841 35.598 269.071 37.0707 269.071Z" fill="white" stroke="#2B5931" stroke-miterlimit="10"/>
<path d="M61.4745 220.343C62.9473 220.343 64.1412 219.113 64.1412 217.595C64.1412 216.078 62.9473 214.848 61.4745 214.848C60.0018 214.848 58.8079 216.078 58.8079 217.595C58.8079 219.113 60.0018 220.343 61.4745 220.343Z" fill="white" stroke="#2B5931" stroke-miterlimit="10"/>
<path d="M75.7778 299.777C77.2505 299.777 78.4444 298.547 78.4444 297.03C78.4444 295.512 77.2505 294.282 75.7778 294.282C74.305 294.282 73.1111 295.512 73.1111 297.03C73.1111 298.547 74.305 299.777 75.7778 299.777Z" fill="white" stroke="#2B5931" stroke-miterlimit="10"/>
<path d="M75.7778 346.97C77.2505 346.97 78.4444 345.739 78.4444 344.222C78.4444 342.705 77.2505 341.475 75.7778 341.475C74.305 341.475 73.1111 342.705 73.1111 344.222C73.1111 345.739 74.305 346.97 75.7778 346.97Z" fill="white" stroke="#2B5931" stroke-miterlimit="10"/>
<path d="M99.6159 223.011C101.089 223.011 102.283 221.78 102.283 220.263C102.283 218.746 101.089 217.516 99.6159 217.516C98.1431 217.516 96.9492 218.746 96.9492 220.263C96.9492 221.78 98.1431 223.011 99.6159 223.011Z" fill="white" stroke="#2B5931" stroke-miterlimit="10"/>
<path d="M98.404 327.253C99.8767 327.253 101.071 326.023 101.071 324.505C101.071 322.988 99.8767 321.758 98.404 321.758C96.9312 321.758 95.7373 322.988 95.7373 324.505C95.7373 326.023 96.9312 327.253 98.404 327.253Z" fill="white" stroke="#2B5931" stroke-miterlimit="10"/>
<path d="M123.293 365.313C124.766 365.313 125.96 364.083 125.96 362.566C125.96 361.048 124.766 359.818 123.293 359.818C121.82 359.818 120.626 361.048 120.626 362.566C120.626 364.083 121.82 365.313 123.293 365.313Z" fill="white" stroke="#2B5931" stroke-miterlimit="10"/>
<path d="M153.515 225.758C154.988 225.758 156.182 224.528 156.182 223.01C156.182 221.493 154.988 220.263 153.515 220.263C152.042 220.263 150.848 221.493 150.848 223.01C150.848 224.528 152.042 225.758 153.515 225.758Z" fill="white" stroke="#2B5931" stroke-miterlimit="10"/>
<path d="M184.869 348.667C186.341 348.667 187.535 347.437 187.535 345.919C187.535 344.402 186.341 343.172 184.869 343.172C183.396 343.172 182.202 344.402 182.202 345.919C182.202 347.437 183.396 348.667 184.869 348.667Z" fill="white" stroke="#2B5931" stroke-miterlimit="10"/>
<path d="M209.596 260.101C211.069 260.101 212.263 258.871 212.263 257.354C212.263 255.837 211.069 254.606 209.596 254.606C208.123 254.606 206.929 255.837 206.929 257.354C206.929 258.871 208.123 260.101 209.596 260.101Z" fill="white" stroke="#2B5931" stroke-miterlimit="10"/>
<path d="M214.849 290.97C216.321 290.97 217.515 289.739 217.515 288.222C217.515 286.705 216.321 285.475 214.849 285.475C213.376 285.475 212.182 286.705 212.182 288.222C212.182 289.739 213.376 290.97 214.849 290.97Z" fill="white" stroke="#2B5931" stroke-miterlimit="10"/>
<path d="M251.293 268.424C252.765 268.424 253.959 267.194 253.959 265.676C253.959 264.159 252.765 262.929 251.293 262.929C249.82 262.929 248.626 264.159 248.626 265.676C248.626 267.194 249.82 268.424 251.293 268.424Z" fill="white" stroke="#2B5931" stroke-miterlimit="10"/>
<path d="M254.929 354.08C256.402 354.08 257.596 352.85 257.596 351.332C257.596 349.815 256.402 348.585 254.929 348.585C253.457 348.585 252.263 349.815 252.263 351.332C252.263 352.85 253.457 354.08 254.929 354.08Z" fill="white" stroke="#2B5931" stroke-miterlimit="10"/>
<path d="M257.03 288.304C258.503 288.304 259.697 287.073 259.697 285.556C259.697 284.039 258.503 282.809 257.03 282.809C255.557 282.809 254.364 284.039 254.364 285.556C254.364 287.073 255.557 288.304 257.03 288.304Z" fill="white" stroke="#2B5931" stroke-miterlimit="10"/>
<path d="M268.505 313.272C269.978 313.272 271.172 312.042 271.172 310.525C271.172 309.007 269.978 307.777 268.505 307.777C267.032 307.777 265.838 309.007 265.838 310.525C265.838 312.042 267.032 313.272 268.505 313.272Z" fill="white" stroke="#2B5931" stroke-miterlimit="10"/>
<path d="M298.808 340.909C300.281 340.909 301.475 339.679 301.475 338.162C301.475 336.644 300.281 335.414 298.808 335.414C297.335 335.414 296.141 336.644 296.141 338.162C296.141 339.679 297.335 340.909 298.808 340.909Z" fill="white" stroke="#2B5931" stroke-miterlimit="10"/>
<path d="M317.959 303.252C319.432 303.252 320.626 302.022 320.626 300.504C320.626 298.987 319.432 297.757 317.959 297.757C316.487 297.757 315.293 298.987 315.293 300.504C315.293 302.022 316.487 303.252 317.959 303.252Z" fill="white" stroke="#2B5931" stroke-miterlimit="10"/>
<path d="M321.273 266.646C322.745 266.646 323.939 265.416 323.939 263.899C323.939 262.381 322.745 261.151 321.273 261.151C319.8 261.151 318.606 262.381 318.606 263.899C318.606 265.416 319.8 266.646 321.273 266.646Z" fill="white" stroke="#2B5931" stroke-miterlimit="10"/>
<path d="M346.485 360.465C347.958 360.465 349.151 359.235 349.151 357.717C349.151 356.2 347.958 354.97 346.485 354.97C345.012 354.97 343.818 356.2 343.818 357.717C343.818 359.235 345.012 360.465 346.485 360.465Z" fill="white" stroke="#2B5931" stroke-miterlimit="10"/>
<path d="M374.687 299.939C376.159 299.939 377.353 298.709 377.353 297.192C377.353 295.674 376.159 294.444 374.687 294.444C373.214 294.444 372.02 295.674 372.02 297.192C372.02 298.709 373.214 299.939 374.687 299.939Z" fill="white" stroke="#2B5931" stroke-miterlimit="10"/>
<path d="M386.646 261.394C388.119 261.394 389.313 260.164 389.313 258.647C389.313 257.129 388.119 255.899 386.646 255.899C385.173 255.899 383.979 257.129 383.979 258.647C383.979 260.164 385.173 261.394 386.646 261.394Z" fill="white" stroke="#2B5931" stroke-miterlimit="10"/>
<path d="M431.495 289.433C432.968 289.433 434.161 288.203 434.161 286.686C434.161 285.169 432.968 283.938 431.495 283.938C430.022 283.938 428.828 285.169 428.828 286.686C428.828 288.203 430.022 289.433 431.495 289.433Z" fill="white" stroke="#2B5931" stroke-miterlimit="10"/>
<path d="M473.677 310.525C475.149 310.525 476.343 309.295 476.343 307.778C476.343 306.26 475.149 305.03 473.677 305.03C472.204 305.03 471.01 306.26 471.01 307.778C471.01 309.295 472.204 310.525 473.677 310.525Z" fill="white" stroke="#2B5931" stroke-miterlimit="10"/>
<path d="M484.262 280.06C485.735 280.06 486.929 278.83 486.929 277.313C486.929 275.796 485.735 274.565 484.262 274.565C482.79 274.565 481.596 275.796 481.596 277.313C481.596 278.83 482.79 280.06 484.262 280.06Z" fill="white" stroke="#2B5931" stroke-miterlimit="10"/>
<path d="M484.262 309.555C485.735 309.555 486.929 308.325 486.929 306.808C486.929 305.291 485.735 304.061 484.262 304.061C482.79 304.061 481.596 305.291 481.596 306.808C481.596 308.325 482.79 309.555 484.262 309.555Z" fill="white" stroke="#2B5931" stroke-miterlimit="10"/>
<path d="M495.98 270.04C497.452 270.04 498.646 268.81 498.646 267.292C498.646 265.775 497.452 264.545 495.98 264.545C494.507 264.545 493.313 265.775 493.313 267.292C493.313 268.81 494.507 270.04 495.98 270.04Z" fill="white" stroke="#2B5931" stroke-miterlimit="10"/>
<path d="M509.798 231.737C511.271 231.737 512.465 230.507 512.465 228.99C512.465 227.472 511.271 226.242 509.798 226.242C508.325 226.242 507.131 227.472 507.131 228.99C507.131 230.507 508.325 231.737 509.798 231.737Z" fill="white" stroke="#2B5931" stroke-miterlimit="10"/>
<path d="M537.596 331.697C539.068 331.697 540.262 330.467 540.262 328.95C540.262 327.432 539.068 326.202 537.596 326.202C536.123 326.202 534.929 327.432 534.929 328.95C534.929 330.467 536.123 331.697 537.596 331.697Z" fill="white" stroke="#2B5931" stroke-miterlimit="10"/>
<path d="M530.727 345.92C532.2 345.92 533.394 344.69 533.394 343.172C533.394 341.655 532.2 340.425 530.727 340.425C529.254 340.425 528.06 341.655 528.06 343.172C528.06 344.69 529.254 345.92 530.727 345.92Z" fill="white" stroke="#2B5931" stroke-miterlimit="10"/>
<path d="M557.798 252.747C559.27 252.747 560.464 251.517 560.464 249.999C560.464 248.482 559.27 247.252 557.798 247.252C556.325 247.252 555.131 248.482 555.131 249.999C555.131 251.517 556.325 252.747 557.798 252.747Z" fill="white" stroke="#2B5931" stroke-miterlimit="10"/>
<path d="M580.343 259.293C581.816 259.293 583.01 258.063 583.01 256.545C583.01 255.028 581.816 253.798 580.343 253.798C578.871 253.798 577.677 255.028 577.677 256.545C577.677 258.063 578.871 259.293 580.343 259.293Z" fill="white" stroke="#2B5931" stroke-miterlimit="10"/>
<path d="M611.131 348.909C612.604 348.909 613.798 347.679 613.798 346.162C613.798 344.644 612.604 343.414 611.131 343.414C609.658 343.414 608.464 344.644 608.464 346.162C608.464 347.679 609.658 348.909 611.131 348.909Z" fill="white" stroke="#2B5931" stroke-miterlimit="10"/>
<path d="M619.616 343.414C621.089 343.414 622.283 342.184 622.283 340.666C622.283 339.149 621.089 337.919 619.616 337.919C618.143 337.919 616.949 339.149 616.949 340.666C616.949 342.184 618.143 343.414 619.616 343.414Z" fill="white" stroke="#2B5931" stroke-miterlimit="10"/>
<path d="M648.545 225.999C650.018 225.999 651.212 224.769 651.212 223.251C651.212 221.734 650.018 220.504 648.545 220.504C647.073 220.504 645.879 221.734 645.879 223.251C645.879 224.769 647.073 225.999 648.545 225.999Z" fill="white" stroke="#2B5931" stroke-miterlimit="10"/>
<path d="M634.485 331.697C635.958 331.697 637.151 330.467 637.151 328.95C637.151 327.432 635.958 326.202 634.485 326.202C633.012 326.202 631.818 327.432 631.818 328.95C631.818 330.467 633.012 331.697 634.485 331.697Z" fill="white" stroke="#2B5931" stroke-miterlimit="10"/>
<path d="M664.868 315.778C666.341 315.778 667.535 314.548 667.535 313.031C667.535 311.513 666.341 310.283 664.868 310.283C663.396 310.283 662.202 311.513 662.202 313.031C662.202 314.548 663.396 315.778 664.868 315.778Z" fill="white" stroke="#2B5931" stroke-miterlimit="10"/>
<path d="M469.07 345.92C470.543 345.92 471.737 344.69 471.737 343.172C471.737 341.655 470.543 340.425 469.07 340.425C467.598 340.425 466.404 341.655 466.404 343.172C466.404 344.69 467.598 345.92 469.07 345.92Z" fill="white" stroke="#2B5931" stroke-miterlimit="10"/>
<path d="M321.273 212.747C322.745 212.747 323.939 211.517 323.939 209.999C323.939 208.482 322.745 207.252 321.273 207.252C319.8 207.252 318.606 208.482 318.606 209.999C318.606 211.517 319.8 212.747 321.273 212.747Z" fill="white" stroke="#2B5931" stroke-miterlimit="10"/>
<path d="M86.5253 44.909C87.9981 44.909 89.192 43.6789 89.192 42.1615C89.192 40.6441 87.9981 39.4141 86.5253 39.4141C85.0525 39.4141 83.8586 40.6441 83.8586 42.1615C83.8586 43.6789 85.0525 44.909 86.5253 44.909Z" fill="white" stroke="#2B5931" stroke-miterlimit="10"/>
<path d="M138.162 20.6668C139.634 20.6668 140.828 19.4367 140.828 17.9193C140.828 16.402 139.634 15.1719 138.162 15.1719C136.689 15.1719 135.495 16.402 135.495 17.9193C135.495 19.4367 136.689 20.6668 138.162 20.6668Z" fill="white" stroke="#2B5931" stroke-miterlimit="10"/>
<path d="M164.586 60.6668C166.059 60.6668 167.253 59.4367 167.253 57.9194C167.253 56.402 166.059 55.1719 164.586 55.1719C163.113 55.1719 161.919 56.402 161.919 57.9194C161.919 59.4367 163.113 60.6668 164.586 60.6668Z" fill="white" stroke="#2B5931" stroke-miterlimit="10"/>
<path d="M150.929 71.4139C152.402 71.4139 153.596 70.1838 153.596 68.6664C153.596 67.149 152.402 65.9189 150.929 65.9189C149.456 65.9189 148.262 67.149 148.262 68.6664C148.262 70.1838 149.456 71.4139 150.929 71.4139Z" fill="white" stroke="#2B5931" stroke-miterlimit="10"/>
<path d="M194.646 84.263C196.119 84.263 197.313 83.0329 197.313 81.5155C197.313 79.9982 196.119 78.7681 194.646 78.7681C193.174 78.7681 191.98 79.9982 191.98 81.5155C191.98 83.0329 193.174 84.263 194.646 84.263Z" fill="white" stroke="#2B5931" stroke-miterlimit="10"/>
<path d="M213.232 60.1815C214.705 60.1815 215.899 58.9514 215.899 57.434C215.899 55.9166 214.705 54.6865 213.232 54.6865C211.76 54.6865 210.566 55.9166 210.566 57.434C210.566 58.9514 211.76 60.1815 213.232 60.1815Z" fill="white" stroke="#2B5931" stroke-miterlimit="10"/>
<path d="M239.657 20.6668C241.129 20.6668 242.323 19.4367 242.323 17.9193C242.323 16.402 241.129 15.1719 239.657 15.1719C238.184 15.1719 236.99 16.402 236.99 17.9193C236.99 19.4367 238.184 20.6668 239.657 20.6668Z" fill="white" stroke="#2B5931" stroke-miterlimit="10"/>
<path d="M252.747 80.6263C254.22 80.6263 255.414 79.3962 255.414 77.8788C255.414 76.3614 254.22 75.1313 252.747 75.1313C251.274 75.1313 250.081 76.3614 250.081 77.8788C250.081 79.3962 251.274 80.6263 252.747 80.6263Z" fill="white" stroke="#2B5931" stroke-miterlimit="10"/>
<path d="M266.081 43.6966C267.553 43.6966 268.747 42.4665 268.747 40.9491C268.747 39.4317 267.553 38.2017 266.081 38.2017C264.608 38.2017 263.414 39.4317 263.414 40.9491C263.414 42.4665 264.608 43.6966 266.081 43.6966Z" fill="white" stroke="#2B5931" stroke-miterlimit="10"/>
<path d="M278.767 70.6864C280.24 70.6864 281.434 69.4563 281.434 67.9389C281.434 66.4215 280.24 65.1914 278.767 65.1914C277.295 65.1914 276.101 66.4215 276.101 67.9389C276.101 69.4563 277.295 70.6864 278.767 70.6864Z" fill="white" stroke="#2B5931" stroke-miterlimit="10"/>
<path d="M336.707 27.3734C338.179 27.3734 339.373 26.1433 339.373 24.6259C339.373 23.1085 338.179 21.8784 336.707 21.8784C335.234 21.8784 334.04 23.1085 334.04 24.6259C334.04 26.1433 335.234 27.3734 336.707 27.3734Z" fill="white" stroke="#2B5931" stroke-miterlimit="10"/>
<path d="M358.525 55.7371C359.998 55.7371 361.192 54.5071 361.192 52.9897C361.192 51.4723 359.998 50.2422 358.525 50.2422C357.052 50.2422 355.858 51.4723 355.858 52.9897C355.858 54.5071 357.052 55.7371 358.525 55.7371Z" fill="white" stroke="#2B5931" stroke-miterlimit="10"/>
<path d="M388.747 70.6864C390.22 70.6864 391.414 69.4563 391.414 67.9389C391.414 66.4215 390.22 65.1914 388.747 65.1914C387.274 65.1914 386.081 66.4215 386.081 67.9389C386.081 69.4563 387.274 70.6864 388.747 70.6864Z" fill="white" stroke="#2B5931" stroke-miterlimit="10"/>
<path d="M410.727 37.6361C412.2 37.6361 413.394 36.406 413.394 34.8886C413.394 33.3712 412.2 32.1411 410.727 32.1411C409.254 32.1411 408.061 33.3712 408.061 34.8886C408.061 36.406 409.254 37.6361 410.727 37.6361Z" fill="white" stroke="#2B5931" stroke-miterlimit="10"/>
<path d="M438.283 47.6566C439.756 47.6566 440.95 46.4265 440.95 44.9091C440.95 43.3917 439.756 42.1616 438.283 42.1616C436.81 42.1616 435.616 43.3917 435.616 44.9091C435.616 46.4265 436.81 47.6566 438.283 47.6566Z" fill="white" stroke="#2B5931" stroke-miterlimit="10"/>
<path d="M438.283 96.6258C439.756 96.6258 440.95 95.3957 440.95 93.8783C440.95 92.3609 439.756 91.1309 438.283 91.1309C436.81 91.1309 435.616 92.3609 435.616 93.8783C435.616 95.3957 436.81 96.6258 438.283 96.6258Z" fill="white" stroke="#2B5931" stroke-miterlimit="10"/>
<path d="M463.818 28.0203C465.291 28.0203 466.485 26.7903 466.485 25.2729C466.485 23.7555 465.291 22.5254 463.818 22.5254C462.345 22.5254 461.151 23.7555 461.151 25.2729C461.151 26.7903 462.345 28.0203 463.818 28.0203Z" fill="white" stroke="#2B5931" stroke-miterlimit="10"/>
<path d="M476.828 36.0203C478.301 36.0203 479.495 34.7903 479.495 33.2729C479.495 31.7555 478.301 30.5254 476.828 30.5254C475.355 30.5254 474.161 31.7555 474.161 33.2729C474.161 34.7903 475.355 36.0203 476.828 36.0203Z" fill="white" stroke="#2B5931" stroke-miterlimit="10"/>
<path d="M501.798 20.3431C503.271 20.3431 504.464 19.113 504.464 17.5956C504.464 16.0782 503.271 14.8481 501.798 14.8481C500.325 14.8481 499.131 16.0782 499.131 17.5956C499.131 19.113 500.325 20.3431 501.798 20.3431Z" fill="white" stroke="#2B5931" stroke-miterlimit="10"/>
<path d="M539.131 60.7474C540.604 60.7474 541.798 59.5173 541.798 57.9999C541.798 56.4825 540.604 55.2524 539.131 55.2524C537.658 55.2524 536.464 56.4825 536.464 57.9999C536.464 59.5173 537.658 60.7474 539.131 60.7474Z" fill="white" stroke="#2B5931" stroke-miterlimit="10"/>
<path d="M565.232 23.0911C566.705 23.0911 567.899 21.8611 567.899 20.3437C567.899 18.8263 566.705 17.5962 565.232 17.5962C563.759 17.5962 562.565 18.8263 562.565 20.3437C562.565 21.8611 563.759 23.0911 565.232 23.0911Z" fill="white" stroke="#2B5931" stroke-miterlimit="10"/>
<path d="M565.232 73.9188C566.705 73.9188 567.899 72.6887 567.899 71.1713C567.899 69.6539 566.705 68.4238 565.232 68.4238C563.759 68.4238 562.565 69.6539 562.565 71.1713C562.565 72.6887 563.759 73.9188 565.232 73.9188Z" fill="white" stroke="#2B5931" stroke-miterlimit="10"/>
<path d="M592.141 94.6058C593.614 94.6058 594.808 93.3757 594.808 91.8583C594.808 90.3409 593.614 89.1108 592.141 89.1108C590.669 89.1108 589.475 90.3409 589.475 91.8583C589.475 93.3757 590.669 94.6058 592.141 94.6058Z" fill="white" stroke="#2B5931" stroke-miterlimit="10"/>
<path d="M617.919 58.4847C619.392 58.4847 620.586 57.2546 620.586 55.7372C620.586 54.2198 619.392 52.9897 617.919 52.9897C616.446 52.9897 615.252 54.2198 615.252 55.7372C615.252 57.2546 616.446 58.4847 617.919 58.4847Z" fill="white" stroke="#2B5931" stroke-miterlimit="10"/>
<path d="M617.919 42.9696C619.392 42.9696 620.586 41.7395 620.586 40.2221C620.586 38.7047 619.392 37.4746 617.919 37.4746C616.446 37.4746 615.252 38.7047 615.252 40.2221C615.252 41.7395 616.446 42.9696 617.919 42.9696Z" fill="white" stroke="#2B5931" stroke-miterlimit="10"/>
<path d="M650.727 24.3026C652.2 24.3026 653.394 23.0725 653.394 21.5551C653.394 20.0377 652.2 18.8076 650.727 18.8076C649.254 18.8076 648.061 20.0377 648.061 21.5551C648.061 23.0725 649.254 24.3026 650.727 24.3026Z" fill="white" stroke="#2B5931" stroke-miterlimit="10"/>
<path d="M673.677 60.7474C675.149 60.7474 676.343 59.5173 676.343 57.9999C676.343 56.4825 675.149 55.2524 673.677 55.2524C672.204 55.2524 671.01 56.4825 671.01 57.9999C671.01 59.5173 672.204 60.7474 673.677 60.7474Z" fill="white" stroke="#2B5931" stroke-miterlimit="10"/>
<path d="M717.555 49.9193C719.028 49.9193 720.222 48.6892 720.222 47.1718C720.222 45.6544 719.028 44.4243 717.555 44.4243C716.083 44.4243 714.889 45.6544 714.889 47.1718C714.889 48.6892 716.083 49.9193 717.555 49.9193Z" fill="white" stroke="#2B5931" stroke-miterlimit="10"/>
<path d="M86.5253 87.0101C87.9981 87.0101 89.192 85.78 89.192 84.2626C89.192 82.7452 87.9981 81.5151 86.5253 81.5151C85.0525 81.5151 83.8586 82.7452 83.8586 84.2626C83.8586 85.78 85.0525 87.0101 86.5253 87.0101Z" fill="white" stroke="#2B5931" stroke-miterlimit="10"/>
<path d="M8.14128 250.807C9.61404 250.807 10.8079 249.577 10.8079 248.06C10.8079 246.543 9.61404 245.312 8.14128 245.312C6.66852 245.312 5.47461 246.543 5.47461 248.06C5.47461 249.577 6.66852 250.807 8.14128 250.807Z" fill="#2B5931"/>
<path d="M22.7675 337.676C24.2403 337.676 25.4342 336.446 25.4342 334.928C25.4342 333.411 24.2403 332.181 22.7675 332.181C21.2947 332.181 20.1008 333.411 20.1008 334.928C20.1008 336.446 21.2947 337.676 22.7675 337.676Z" fill="#2B5931"/>
<path d="M61.4745 270.606C62.9473 270.606 64.1412 269.376 64.1412 267.859C64.1412 266.341 62.9473 265.111 61.4745 265.111C60.0018 265.111 58.8079 266.341 58.8079 267.859C58.8079 269.376 60.0018 270.606 61.4745 270.606Z" fill="#2B5931"/>
<path d="M48.5453 337.676C50.0181 337.676 51.212 336.446 51.212 334.928C51.212 333.411 50.0181 332.181 48.5453 332.181C47.0726 332.181 45.8787 333.411 45.8787 334.928C45.8787 336.446 47.0726 337.676 48.5453 337.676Z" fill="#2B5931"/>
<path d="M95.2524 347.212C96.7251 347.212 97.919 345.982 97.919 344.464C97.919 342.947 96.7251 341.717 95.2524 341.717C93.7796 341.717 92.5857 342.947 92.5857 344.464C92.5857 345.982 93.7796 347.212 95.2524 347.212Z" fill="#2B5931"/>
<path d="M85.1515 329.111C86.6243 329.111 87.8182 327.881 87.8182 326.364C87.8182 324.846 86.6243 323.616 85.1515 323.616C83.6788 323.616 82.4849 324.846 82.4849 326.364C82.4849 327.881 83.6788 329.111 85.1515 329.111Z" fill="#2B5931"/>
<path d="M125.959 288.304C127.432 288.304 128.626 287.073 128.626 285.556C128.626 284.039 127.432 282.809 125.959 282.809C124.487 282.809 123.293 284.039 123.293 285.556C123.293 287.073 124.487 288.304 125.959 288.304Z" fill="#2B5931"/>
<path d="M113.757 314.97C115.23 314.97 116.424 313.739 116.424 312.222C116.424 310.705 115.23 309.475 113.757 309.475C112.285 309.475 111.091 310.705 111.091 312.222C111.091 313.739 112.285 314.97 113.757 314.97Z" fill="#2B5931"/>
<path d="M138.485 239.011C139.958 239.011 141.151 237.78 141.151 236.263C141.151 234.746 139.958 233.516 138.485 233.516C137.012 233.516 135.818 234.746 135.818 236.263C135.818 237.78 137.012 239.011 138.485 239.011Z" fill="#2B5931"/>
<path d="M138.485 259.535C139.958 259.535 141.151 258.305 141.151 256.788C141.151 255.27 139.958 254.04 138.485 254.04C137.012 254.04 135.818 255.27 135.818 256.788C135.818 258.305 137.012 259.535 138.485 259.535Z" fill="#2B5931"/>
<path d="M163.616 250.484C165.089 250.484 166.283 249.254 166.283 247.737C166.283 246.219 165.089 244.989 163.616 244.989C162.143 244.989 160.949 246.219 160.949 247.737C160.949 249.254 162.143 250.484 163.616 250.484Z" fill="#2B5931"/>
<path d="M184.869 207.01C186.341 207.01 187.535 205.78 187.535 204.262C187.535 202.745 186.341 201.515 184.869 201.515C183.396 201.515 182.202 202.745 182.202 204.262C182.202 205.78 183.396 207.01 184.869 207.01Z" fill="#2B5931"/>
<path d="M198.606 299.777C200.079 299.777 201.273 298.547 201.273 297.03C201.273 295.512 200.079 294.282 198.606 294.282C197.133 294.282 195.939 295.512 195.939 297.03C195.939 298.547 197.133 299.777 198.606 299.777Z" fill="#2B5931"/>
<path d="M225.273 250.484C226.745 250.484 227.939 249.254 227.939 247.737C227.939 246.219 226.745 244.989 225.273 244.989C223.8 244.989 222.606 246.219 222.606 247.737C222.606 249.254 223.8 250.484 225.273 250.484Z" fill="#2B5931"/>
<path d="M286.606 327.253C288.079 327.253 289.273 326.023 289.273 324.505C289.273 322.988 288.079 321.758 286.606 321.758C285.133 321.758 283.939 322.988 283.939 324.505C283.939 326.023 285.133 327.253 286.606 327.253Z" fill="#2B5931"/>
<path d="M284.909 345.92C286.382 345.92 287.576 344.69 287.576 343.172C287.576 341.655 286.382 340.425 284.909 340.425C283.436 340.425 282.242 341.655 282.242 343.172C282.242 344.69 283.436 345.92 284.909 345.92Z" fill="#2B5931"/>
<path d="M308.262 282.727C309.735 282.727 310.929 281.497 310.929 279.98C310.929 278.463 309.735 277.232 308.262 277.232C306.79 277.232 305.596 278.463 305.596 279.98C305.596 281.497 306.79 282.727 308.262 282.727Z" fill="#2B5931"/>
<path d="M353.515 286.687C354.988 286.687 356.182 285.457 356.182 283.94C356.182 282.422 354.988 281.192 353.515 281.192C352.042 281.192 350.848 282.422 350.848 283.94C350.848 285.457 352.042 286.687 353.515 286.687Z" fill="#2B5931"/>
<path d="M361.192 342.686C362.665 342.686 363.858 341.456 363.858 339.939C363.858 338.421 362.665 337.191 361.192 337.191C359.719 337.191 358.525 338.421 358.525 339.939C358.525 341.456 359.719 342.686 361.192 342.686Z" fill="#2B5931"/>
<path d="M392.141 290.97C393.614 290.97 394.808 289.739 394.808 288.222C394.808 286.705 393.614 285.475 392.141 285.475C390.669 285.475 389.475 286.705 389.475 288.222C389.475 289.739 390.669 290.97 392.141 290.97Z" fill="#2B5931"/>
<path d="M417.434 250.484C418.907 250.484 420.101 249.254 420.101 247.737C420.101 246.219 418.907 244.989 417.434 244.989C415.961 244.989 414.768 246.219 414.768 247.737C414.768 249.254 415.961 250.484 417.434 250.484Z" fill="#2B5931"/>
<path d="M460.101 323.777C461.574 323.777 462.768 322.547 462.768 321.03C462.768 319.512 461.574 318.282 460.101 318.282C458.628 318.282 457.434 319.512 457.434 321.03C457.434 322.547 458.628 323.777 460.101 323.777Z" fill="#2B5931"/>
<path d="M440.222 310.525C441.695 310.525 442.889 309.295 442.889 307.778C442.889 306.26 441.695 305.03 440.222 305.03C438.749 305.03 437.555 306.26 437.555 307.778C437.555 309.295 438.749 310.525 440.222 310.525Z" fill="#2B5931"/>
<path d="M458.727 262.767C460.2 262.767 461.394 261.537 461.394 260.02C461.394 258.503 460.2 257.272 458.727 257.272C457.254 257.272 456.061 258.503 456.061 260.02C456.061 261.537 457.254 262.767 458.727 262.767Z" fill="#2B5931"/>
<path d="M495.98 214.686C497.452 214.686 498.646 213.456 498.646 211.939C498.646 210.422 497.452 209.191 495.98 209.191C494.507 209.191 493.313 210.422 493.313 211.939C493.313 213.456 494.507 214.686 495.98 214.686Z" fill="#2B5931"/>
<path d="M506.566 317.071C508.038 317.071 509.232 315.841 509.232 314.324C509.232 312.806 508.038 311.576 506.566 311.576C505.093 311.576 503.899 312.806 503.899 314.324C503.899 315.841 505.093 317.071 506.566 317.071Z" fill="#2B5931"/>
<path d="M523.697 267.294C525.169 267.294 526.363 266.064 526.363 264.546C526.363 263.029 525.169 261.799 523.697 261.799C522.224 261.799 521.03 263.029 521.03 264.546C521.03 266.064 522.224 267.294 523.697 267.294Z" fill="#2B5931"/>
<path d="M557.798 280.06C559.27 280.06 560.464 278.83 560.464 277.313C560.464 275.796 559.27 274.565 557.798 274.565C556.325 274.565 555.131 275.796 555.131 277.313C555.131 278.83 556.325 280.06 557.798 280.06Z" fill="#2B5931"/>
<path d="M582.929 354.08C584.402 354.08 585.596 352.85 585.596 351.332C585.596 349.815 584.402 348.585 582.929 348.585C581.456 348.585 580.262 349.815 580.262 351.332C580.262 352.85 581.456 354.08 582.929 354.08Z" fill="#2B5931"/>
<path d="M594.081 238.605C595.553 238.605 596.747 237.375 596.747 235.858C596.747 234.34 595.553 233.11 594.081 233.11C592.608 233.11 591.414 234.34 591.414 235.858C591.414 237.375 592.608 238.605 594.081 238.605Z" fill="#2B5931"/>
<path d="M611.131 223.01C612.604 223.01 613.798 221.78 613.798 220.262C613.798 218.745 612.604 217.515 611.131 217.515C609.658 217.515 608.464 218.745 608.464 220.262C608.464 221.78 609.658 223.01 611.131 223.01Z" fill="#2B5931"/>
<path d="M625.596 292.019C627.069 292.019 628.263 290.789 628.263 289.272C628.263 287.754 627.069 286.524 625.596 286.524C624.123 286.524 622.929 287.754 622.929 289.272C622.929 290.789 624.123 292.019 625.596 292.019Z" fill="#2B5931"/>
<path d="M667.05 267.294C668.523 267.294 669.717 266.064 669.717 264.546C669.717 263.029 668.523 261.799 667.05 261.799C665.578 261.799 664.384 263.029 664.384 264.546C664.384 266.064 665.578 267.294 667.05 267.294Z" fill="#2B5931"/>
<path d="M648.545 337.919C650.018 337.919 651.212 336.689 651.212 335.171C651.212 333.654 650.018 332.424 648.545 332.424C647.073 332.424 645.879 333.654 645.879 335.171C645.879 336.689 647.073 337.919 648.545 337.919Z" fill="#2B5931"/>
<path d="M687.818 242.807C689.291 242.807 690.485 241.577 690.485 240.06C690.485 238.543 689.291 237.312 687.818 237.312C686.346 237.312 685.152 238.543 685.152 240.06C685.152 241.577 686.346 242.807 687.818 242.807Z" fill="#2B5931"/>
<path d="M687.818 272.222C689.291 272.222 690.485 270.991 690.485 269.474C690.485 267.957 689.291 266.727 687.818 266.727C686.346 266.727 685.152 267.957 685.152 269.474C685.152 270.991 686.346 272.222 687.818 272.222Z" fill="#2B5931"/>
<path d="M702.282 225.677C703.755 225.677 704.949 224.446 704.949 222.929C704.949 221.412 703.755 220.182 702.282 220.182C700.81 220.182 699.616 221.412 699.616 222.929C699.616 224.446 700.81 225.677 702.282 225.677Z" fill="#2B5931"/>
<path d="M716.343 333.232C717.816 333.232 719.01 332.002 719.01 330.485C719.01 328.967 717.816 327.737 716.343 327.737C714.87 327.737 713.677 328.967 713.677 330.485C713.677 332.002 714.87 333.232 716.343 333.232Z" fill="#2B5931"/>
<path d="M637.394 358.848C638.866 358.848 640.06 357.618 640.06 356.101C640.06 354.584 638.866 353.354 637.394 353.354C635.921 353.354 634.727 354.584 634.727 356.101C634.727 357.618 635.921 358.848 637.394 358.848Z" fill="#2B5931"/>
<path d="M517.959 358.767C519.432 358.767 520.626 357.537 520.626 356.02C520.626 354.503 519.432 353.272 517.959 353.272C516.487 353.272 515.293 354.503 515.293 356.02C515.293 357.537 516.487 358.767 517.959 358.767Z" fill="#2B5931"/>
<path d="M333.879 340.909C335.352 340.909 336.545 339.679 336.545 338.162C336.545 336.644 335.352 335.414 333.879 335.414C332.406 335.414 331.212 336.644 331.212 338.162C331.212 339.679 332.406 340.909 333.879 340.909Z" fill="#2B5931"/>
<path d="M353.515 214.686C354.988 214.686 356.182 213.456 356.182 211.939C356.182 210.422 354.988 209.191 353.515 209.191C352.042 209.191 350.848 210.422 350.848 211.939C350.848 213.456 352.042 214.686 353.515 214.686Z" fill="#2B5931"/>
<path d="M283.454 260.505C284.927 260.505 286.121 259.275 286.121 257.757C286.121 256.24 284.927 255.01 283.454 255.01C281.981 255.01 280.788 256.24 280.788 257.757C280.788 259.275 281.981 260.505 283.454 260.505Z" fill="#2B5931"/>
<path d="M48.5453 244.425C50.0181 244.425 51.212 243.195 51.212 241.677C51.212 240.16 50.0181 238.93 48.5453 238.93C47.0726 238.93 45.8787 240.16 45.8787 241.677C45.8787 243.195 47.0726 244.425 48.5453 244.425Z" fill="#2B5931"/>
<path d="M99.4545 38.1214C100.927 38.1214 102.121 36.8913 102.121 35.3739C102.121 33.8566 100.927 32.6265 99.4545 32.6265C97.9817 32.6265 96.7878 33.8566 96.7878 35.3739C96.7878 36.8913 97.9817 38.1214 99.4545 38.1214Z" fill="#2B5931"/>
<path d="M125.07 73.7576C126.543 73.7576 127.737 72.5276 127.737 71.0102C127.737 69.4928 126.543 68.2627 125.07 68.2627C123.598 68.2627 122.404 69.4928 122.404 71.0102C122.404 72.5276 123.598 73.7576 125.07 73.7576Z" fill="#2B5931"/>
<path d="M176.869 19.4544C178.341 19.4544 179.535 18.2243 179.535 16.7069C179.535 15.1896 178.341 13.9595 176.869 13.9595C175.396 13.9595 174.202 15.1896 174.202 16.7069C174.202 18.2243 175.396 19.4544 176.869 19.4544Z" fill="#2B5931"/>
<path d="M138.162 51.4544C139.634 51.4544 140.828 50.2243 140.828 48.7069C140.828 47.1896 139.634 45.9595 138.162 45.9595C136.689 45.9595 135.495 47.1896 135.495 48.7069C135.495 50.2243 136.689 51.4544 138.162 51.4544Z" fill="#2B5931"/>
<path d="M226.566 52.2625C228.038 52.2625 229.232 51.0324 229.232 49.5151C229.232 47.9977 228.038 46.7676 226.566 46.7676C225.093 46.7676 223.899 47.9977 223.899 49.5151C223.899 51.0324 225.093 52.2625 226.566 52.2625Z" fill="#2B5931"/>
<path d="M206.687 85.9593C208.159 85.9593 209.353 84.7292 209.353 83.2118C209.353 81.6944 208.159 80.4644 206.687 80.4644C205.214 80.4644 204.02 81.6944 204.02 83.2118C204.02 84.7292 205.214 85.9593 206.687 85.9593Z" fill="#2B5931"/>
<path d="M234.162 96.4642C235.634 96.4642 236.828 95.2341 236.828 93.7167C236.828 92.1993 235.634 90.9692 234.162 90.9692C232.689 90.9692 231.495 92.1993 231.495 93.7167C231.495 95.2341 232.689 96.4642 234.162 96.4642Z" fill="#2B5931"/>
<path d="M266.081 93.2318C267.553 93.2318 268.747 92.0017 268.747 90.4843C268.747 88.9669 267.553 87.7368 266.081 87.7368C264.608 87.7368 263.414 88.9669 263.414 90.4843C263.414 92.0017 264.608 93.2318 266.081 93.2318Z" fill="#2B5931"/>
<path d="M325.071 22.6058C326.543 22.6058 327.737 21.3757 327.737 19.8583C327.737 18.3409 326.543 17.1108 325.071 17.1108C323.598 17.1108 322.404 18.3409 322.404 19.8583C322.404 21.3757 323.598 22.6058 325.071 22.6058Z" fill="#2B5931"/>
<path d="M376.545 25.3533C378.018 25.3533 379.212 24.1233 379.212 22.6059C379.212 21.0885 378.018 19.8584 376.545 19.8584C375.073 19.8584 373.879 21.0885 373.879 22.6059C373.879 24.1233 375.073 25.3533 376.545 25.3533Z" fill="#2B5931"/>
<path d="M410.727 89.8382C412.2 89.8382 413.394 88.6081 413.394 87.0907C413.394 85.5733 412.2 84.3433 410.727 84.3433C409.254 84.3433 408.061 85.5733 408.061 87.0907C408.061 88.6081 409.254 89.8382 410.727 89.8382Z" fill="#2B5931"/>
<path d="M450.808 33.3533C452.281 33.3533 453.475 32.1233 453.475 30.6059C453.475 29.0885 452.281 27.8584 450.808 27.8584C449.336 27.8584 448.142 29.0885 448.142 30.6059C448.142 32.1233 449.336 33.3533 450.808 33.3533Z" fill="#2B5931"/>
<path d="M463.818 53.7977C465.291 53.7977 466.485 52.5676 466.485 51.0502C466.485 49.5328 465.291 48.3027 463.818 48.3027C462.345 48.3027 461.151 49.5328 461.151 51.0502C461.151 52.5676 462.345 53.7977 463.818 53.7977Z" fill="#2B5931"/>
<path d="M490.727 63.7371C492.2 63.7371 493.394 62.5071 493.394 60.9897C493.394 59.4723 492.2 58.2422 490.727 58.2422C489.254 58.2422 488.06 59.4723 488.06 60.9897C488.06 62.5071 489.254 63.7371 490.727 63.7371Z" fill="#2B5931"/>
<path d="M520.707 83.2928C522.18 83.2928 523.374 82.0627 523.374 80.5453C523.374 79.0279 522.18 77.7979 520.707 77.7979C519.234 77.7979 518.04 79.0279 518.04 80.5453C518.04 82.0627 519.234 83.2928 520.707 83.2928Z" fill="#2B5931"/>
<path d="M552.465 53.7977C553.937 53.7977 555.131 52.5676 555.131 51.0502C555.131 49.5328 553.937 48.3027 552.465 48.3027C550.992 48.3027 549.798 49.5328 549.798 51.0502C549.798 52.5676 550.992 53.7977 552.465 53.7977Z" fill="#2B5931"/>
<path d="M579.05 81.4344C580.523 81.4344 581.717 80.2043 581.717 78.6869C581.717 77.1695 580.523 75.9395 579.05 75.9395C577.578 75.9395 576.384 77.1695 576.384 78.6869C576.384 80.2043 577.578 81.4344 579.05 81.4344Z" fill="#2B5931"/>
<path d="M592.141 43.2117C593.614 43.2117 594.808 41.9817 594.808 40.4643C594.808 38.9469 593.614 37.7168 592.141 37.7168C590.669 37.7168 589.475 38.9469 589.475 40.4643C589.475 41.9817 590.669 43.2117 592.141 43.2117Z" fill="#2B5931"/>
<path d="M604.02 70.6864C605.493 70.6864 606.687 69.4563 606.687 67.9389C606.687 66.4215 605.493 65.1914 604.02 65.1914C602.547 65.1914 601.353 66.4215 601.353 67.9389C601.353 69.4563 602.547 70.6864 604.02 70.6864Z" fill="#2B5931"/>
<path d="M650.727 66.0003C652.2 66.0003 653.394 64.7702 653.394 63.2528C653.394 61.7355 652.2 60.5054 650.727 60.5054C649.254 60.5054 648.061 61.7355 648.061 63.2528C648.061 64.7702 649.254 66.0003 650.727 66.0003Z" fill="#2B5931"/>
<path d="M707.212 73.7576C708.685 73.7576 709.878 72.5276 709.878 71.0102C709.878 69.4928 708.685 68.2627 707.212 68.2627C705.739 68.2627 704.545 69.4928 704.545 71.0102C704.545 72.5276 705.739 73.7576 707.212 73.7576Z" fill="#2B5931"/>
<path d="M634.566 84.182C636.038 84.182 637.232 82.9519 637.232 81.4345C637.232 79.9171 636.038 78.687 634.566 78.687C633.093 78.687 631.899 79.9171 631.899 81.4345C631.899 82.9519 633.093 84.182 634.566 84.182Z" fill="#2B5931"/>
<path d="M425.676 39.5755C427.149 39.5755 428.343 38.3454 428.343 36.828C428.343 35.3107 427.149 34.0806 425.676 34.0806C424.204 34.0806 423.01 35.3107 423.01 36.828C423.01 38.3454 424.204 39.5755 425.676 39.5755Z" fill="#2B5931"/>
<path d="M344.303 82.7269C345.776 82.7269 346.97 81.4968 346.97 79.9794C346.97 78.462 345.776 77.2319 344.303 77.2319C342.83 77.2319 341.636 78.462 341.636 79.9794C341.636 81.4968 342.83 82.7269 344.303 82.7269Z" fill="#2B5931"/>
<path d="M687.818 65.1919V91.8586L700.99 105.111V155.939" stroke="#145B2C" stroke-width="0.75" stroke-miterlimit="10"/>
<path d="M662.202 78.2827V103.091" stroke="#145B2C" stroke-width="0.75" stroke-miterlimit="10"/>
<path d="M679.656 115.051V141.313L671.091 155.94V214.849" stroke="#145B2C" stroke-width="0.75" stroke-miterlimit="10"/>
<path d="M687.818 168.869L694.445 181.798V201.516" stroke="#145B2C" stroke-width="0.75" stroke-miterlimit="10"/>
<path d="M720.626 220.182L708.828 204.263V168.869" stroke="#145B2C" stroke-width="0.75" stroke-miterlimit="10"/>
<path d="M720.707 87.7373L710.687 91.8585V129.758L722 134.848" stroke="#145B2C" stroke-width="0.75" stroke-miterlimit="10"/>
<path d="M643.374 106.566L628.262 116.829V146.162L643.374 156.748" stroke="#145B2C" stroke-width="0.75" stroke-miterlimit="10"/>
<path d="M654.687 124.908V181.797L631.899 214.848" stroke="#145B2C" stroke-width="0.75" stroke-miterlimit="10"/>
<path d="M611.131 90.7275V103.091L602.565 124.909V169.919" stroke="#145B2C" stroke-width="0.75" stroke-miterlimit="10"/>
<path d="M619.616 164.908V194.484" stroke="#145B2C" stroke-width="0.75" stroke-miterlimit="10"/>
<path d="M576.384 223.253L589.475 201.515V115.051" stroke="#145B2C" stroke-width="0.75" stroke-miterlimit="10"/>
<path d="M562.566 94.6064V134.849L572.101 142.606V185.192" stroke="#145B2C" stroke-width="0.75" stroke-miterlimit="10"/>
<path d="M552.465 156.748L541.798 174.283V209.192V233.112" stroke="#145B2C" stroke-width="0.75" stroke-miterlimit="10"/>
<path d="M557.798 179.697V217.515" stroke="#145B2C" stroke-width="0.75" stroke-miterlimit="10"/>
<path d="M541.798 82.7271L530.727 101.313V134.848L518.04 155.939V189.394" stroke="#145B2C" stroke-width="0.75" stroke-miterlimit="10"/>
<path d="M501.798 83.293L481.596 103.091V145.03" stroke="#145B2C" stroke-width="0.75" stroke-miterlimit="10"/>
<path d="M503.899 110.525V176.949" stroke="#145B2C" stroke-width="0.75" stroke-miterlimit="10"/>
<path d="M547.131 98.6465V134.849" stroke="#145B2C" stroke-width="0.75" stroke-miterlimit="10"/>
<path d="M456.061 79.0908L466.485 87.01L466.162 111.252L456.061 116.747V147.939L466.485 155.939" stroke="#145B2C" stroke-width="0.75" stroke-miterlimit="10"/>
<path d="M481.596 169.919L469.071 185.192V223.252" stroke="#145B2C" stroke-width="0.75" stroke-miterlimit="10"/>
<path d="M421.636 114.162V134.848H396.667" stroke="#145B2C" stroke-width="0.75" stroke-miterlimit="10"/>
<path d="M438.283 136.061V164.91L450.808 176.95V233.516" stroke="#145B2C" stroke-width="0.75" stroke-miterlimit="10"/>
<path d="M422.04 184.788V223.253" stroke="#145B2C" stroke-width="0.75" stroke-miterlimit="10"/>
<path d="M414.768 155.939L399.091 169.111V228.99" stroke="#145B2C" stroke-width="0.75" stroke-miterlimit="10"/>
<path d="M374.687 219.374L363.858 196.586V168.869L349.151 149.071" stroke="#145B2C" stroke-width="0.75" stroke-miterlimit="10"/>
<path d="M363.859 77.2324L374.687 93.2324V134.849" stroke="#145B2C" stroke-width="0.75" stroke-miterlimit="10"/>
<path d="M381.232 153.191V192.464" stroke="#145B2C" stroke-width="0.75" stroke-miterlimit="10"/>
<path d="M305.677 58L305.596 81.4343H323.939V121.273" stroke="#145B2C" stroke-width="0.75" stroke-miterlimit="10"/>
<path d="M291.131 98.6465L276.101 114.162V131.616L287.576 149.071V204.263" stroke="#145B2C" stroke-width="0.75" stroke-miterlimit="10"/>
<path d="M298.808 131.615L308.263 124.908L327.576 155.939V184.221" stroke="#145B2C" stroke-width="0.75" stroke-miterlimit="10"/>
<path d="M346.97 98.6465V131.616" stroke="#145B2C" stroke-width="0.75" stroke-miterlimit="10"/>
<path d="M263.414 250.484V227.454L255.414 211.939V185.191" stroke="#145B2C" stroke-width="0.75" stroke-miterlimit="10"/>
<path d="M229.232 217.596V162" stroke="#145B2C" stroke-width="0.75" stroke-miterlimit="10"/>
<path d="M305.677 162V189.394" stroke="#145B2C" stroke-width="0.75" stroke-miterlimit="10"/>
<path d="M234.323 94.6064L240.061 110.526V130.324L248.626 141.314V160.061" stroke="#145B2C" stroke-width="0.75" stroke-miterlimit="10"/>
<path d="M259.374 106.566V131.616" stroke="#145B2C" stroke-width="0.75" stroke-miterlimit="10"/>
<path d="M265.838 160.061L276.101 172.828V227.454" stroke="#145B2C" stroke-width="0.75" stroke-miterlimit="10"/>
<path d="M198.606 233.515L209.596 219.374V192.465" stroke="#145B2C" stroke-width="0.75" stroke-miterlimit="10"/>
<path d="M206.929 84.3433V127.333" stroke="#145B2C" stroke-width="0.75" stroke-miterlimit="10"/>
<path d="M150.848 71.5757V100.586H166.283V149.071" stroke="#145B2C" stroke-width="0.75" stroke-miterlimit="10"/>
<path d="M187.535 110.525L182.202 127.333V164.909" stroke="#145B2C" stroke-width="0.75" stroke-miterlimit="10"/>
<path d="M197.313 143.738V162H215.899" stroke="#145B2C" stroke-width="0.75" stroke-miterlimit="10"/>
<path d="M55.01 68.4243V129.758" stroke="#145B2C" stroke-width="0.75" stroke-miterlimit="10"/>
<path d="M12.3434 90.7275L28.3434 110.364V129.758L10.4041 143.738L10.8081 184.222" stroke="#145B2C" stroke-width="0.75" stroke-miterlimit="10"/>
<path d="M25.2729 235.131V212.747H39.7376V181.798H51.2123V154.565" stroke="#145B2C" stroke-width="0.75" stroke-miterlimit="10"/>
<path d="M78.4443 225.676V179.697L89.1918 162L87.8181 127.333" stroke="#145B2C" stroke-width="0.75" stroke-miterlimit="10"/>
<path d="M116.424 204.262V154.565" stroke="#145B2C" stroke-width="0.75" stroke-miterlimit="10"/>
<path d="M101.071 110.364L113.757 103.091L131.616 129.757V160.061" stroke="#145B2C" stroke-width="0.75" stroke-miterlimit="10"/>
<path d="M150.848 129.757V189.394" stroke="#145B2C" stroke-width="0.75" stroke-miterlimit="10"/>
<path d="M10.808 186.323C12.2808 186.323 13.4747 185.093 13.4747 183.576C13.4747 182.058 12.2808 180.828 10.808 180.828C9.33526 180.828 8.14136 182.058 8.14136 183.576C8.14136 185.093 9.33526 186.323 10.808 186.323Z" fill="#2B5931"/>
<path d="M51.2121 158.686C52.6848 158.686 53.8787 157.456 53.8787 155.939C53.8787 154.421 52.6848 153.191 51.2121 153.191C49.7393 153.191 48.5454 154.421 48.5454 155.939C48.5454 157.456 49.7393 158.686 51.2121 158.686Z" fill="#2B5931"/>
<path d="M25.2729 237.878C26.7456 237.878 27.9395 236.648 27.9395 235.13C27.9395 233.613 26.7456 232.383 25.2729 232.383C23.8001 232.383 22.6062 233.613 22.6062 235.13C22.6062 236.648 23.8001 237.878 25.2729 237.878Z" fill="#2B5931"/>
<path d="M78.4445 228.425C79.9173 228.425 81.1112 227.195 81.1112 225.677C81.1112 224.16 79.9173 222.93 78.4445 222.93C76.9717 222.93 75.7778 224.16 75.7778 225.677C75.7778 227.195 76.9717 228.425 78.4445 228.425Z" fill="#2B5931"/>
<path d="M101.071 113.111C102.544 113.111 103.738 111.881 103.738 110.364C103.738 108.846 102.544 107.616 101.071 107.616C99.5982 107.616 98.4043 108.846 98.4043 110.364C98.4043 111.881 99.5982 113.111 101.071 113.111Z" fill="#2B5931"/>
<path d="M131.616 162.808C133.089 162.808 134.283 161.578 134.283 160.061C134.283 158.544 133.089 157.313 131.616 157.313C130.143 157.313 128.949 158.544 128.949 160.061C128.949 161.578 130.143 162.808 131.616 162.808Z" fill="#2B5931"/>
<path d="M150.848 132.505C152.321 132.505 153.515 131.275 153.515 129.757C153.515 128.24 152.321 127.01 150.848 127.01C149.376 127.01 148.182 128.24 148.182 129.757C148.182 131.275 149.376 132.505 150.848 132.505Z" fill="#2B5931"/>
<path d="M150.848 192.141C152.321 192.141 153.515 190.911 153.515 189.394C153.515 187.877 152.321 186.646 150.848 186.646C149.376 186.646 148.182 187.877 148.182 189.394C148.182 190.911 149.376 192.141 150.848 192.141Z" fill="#2B5931"/>
<path d="M187.536 113.273C189.008 113.273 190.202 112.043 190.202 110.525C190.202 109.008 189.008 107.778 187.536 107.778C186.063 107.778 184.869 109.008 184.869 110.525C184.869 112.043 186.063 113.273 187.536 113.273Z" fill="#2B5931"/>
<path d="M182.202 166.283C183.675 166.283 184.869 165.053 184.869 163.536C184.869 162.018 183.675 160.788 182.202 160.788C180.729 160.788 179.535 162.018 179.535 163.536C179.535 165.053 180.729 166.283 182.202 166.283Z" fill="#2B5931"/>
<path d="M197.313 146.565C198.786 146.565 199.98 145.335 199.98 143.818C199.98 142.3 198.786 141.07 197.313 141.07C195.84 141.07 194.646 142.3 194.646 143.818C194.646 145.335 195.84 146.565 197.313 146.565Z" fill="#2B5931"/>
<path d="M215.899 164.828C217.372 164.828 218.566 163.598 218.566 162.08C218.566 160.563 217.372 159.333 215.899 159.333C214.426 159.333 213.232 160.563 213.232 162.08C213.232 163.598 214.426 164.828 215.899 164.828Z" fill="#2B5931"/>
<path d="M229.233 164.828C230.705 164.828 231.899 163.598 231.899 162.08C231.899 160.563 230.705 159.333 229.233 159.333C227.76 159.333 226.566 160.563 226.566 162.08C226.566 163.598 227.76 164.828 229.233 164.828Z" fill="#2B5931"/>
<path d="M248.626 162.889C250.099 162.889 251.293 161.658 251.293 160.141C251.293 158.624 250.099 157.394 248.626 157.394C247.153 157.394 245.959 158.624 245.959 160.141C245.959 161.658 247.153 162.889 248.626 162.889Z" fill="#2B5931"/>
<path d="M255.414 188.02C256.887 188.02 258.081 186.79 258.081 185.273C258.081 183.755 256.887 182.525 255.414 182.525C253.941 182.525 252.748 183.755 252.748 185.273C252.748 186.79 253.941 188.02 255.414 188.02Z" fill="#2B5931"/>
<path d="M263.414 253.313C264.887 253.313 266.081 252.083 266.081 250.566C266.081 249.048 264.887 247.818 263.414 247.818C261.941 247.818 260.748 249.048 260.748 250.566C260.748 252.083 261.941 253.313 263.414 253.313Z" fill="#2B5931"/>
<path d="M287.576 207.172C289.049 207.172 290.243 205.942 290.243 204.424C290.243 202.907 289.049 201.677 287.576 201.677C286.103 201.677 284.909 202.907 284.909 204.424C284.909 205.942 286.103 207.172 287.576 207.172Z" fill="#2B5931"/>
<path d="M306.081 191.01C307.553 191.01 308.747 189.78 308.747 188.262C308.747 186.745 307.553 185.515 306.081 185.515C304.608 185.515 303.414 186.745 303.414 188.262C303.414 189.78 304.608 191.01 306.081 191.01Z" fill="#2B5931"/>
<path d="M327.899 186.97C329.372 186.97 330.566 185.739 330.566 184.222C330.566 182.705 329.372 181.475 327.899 181.475C326.426 181.475 325.232 182.705 325.232 184.222C325.232 185.739 326.426 186.97 327.899 186.97Z" fill="#2B5931"/>
<path d="M291.131 101.475C292.604 101.475 293.798 100.245 293.798 98.7275C293.798 97.2101 292.604 95.98 291.131 95.98C289.658 95.98 288.465 97.2101 288.465 98.7275C288.465 100.245 289.658 101.475 291.131 101.475Z" fill="#2B5931"/>
<path d="M306.081 164.344C307.553 164.344 308.747 163.113 308.747 161.596C308.747 160.079 307.553 158.849 306.081 158.849C304.608 158.849 303.414 160.079 303.414 161.596C303.414 163.113 304.608 164.344 306.081 164.344Z" fill="#2B5931"/>
<path d="M305.677 61.0706C307.15 61.0706 308.344 59.8405 308.344 58.3232C308.344 56.8058 307.15 55.5757 305.677 55.5757C304.204 55.5757 303.01 56.8058 303.01 58.3232C303.01 59.8405 304.204 61.0706 305.677 61.0706Z" fill="#2B5931"/>
<path d="M346.97 102.121C348.442 102.121 349.636 100.891 349.636 99.3739C349.636 97.8566 348.442 96.6265 346.97 96.6265C345.497 96.6265 344.303 97.8566 344.303 99.3739C344.303 100.891 345.497 102.121 346.97 102.121Z" fill="#2B5931"/>
<path d="M346.97 134.364C348.442 134.364 349.636 133.134 349.636 131.616C349.636 130.099 348.442 128.869 346.97 128.869C345.497 128.869 344.303 130.099 344.303 131.616C344.303 133.134 345.497 134.364 346.97 134.364Z" fill="#2B5931"/>
<path d="M349.152 151.818C350.624 151.818 351.818 150.588 351.818 149.07C351.818 147.553 350.624 146.323 349.152 146.323C347.679 146.323 346.485 147.553 346.485 149.07C346.485 150.588 347.679 151.818 349.152 151.818Z" fill="#2B5931"/>
<path d="M363.859 79.9798C365.332 79.9798 366.525 78.7497 366.525 77.2323C366.525 75.715 365.332 74.4849 363.859 74.4849C362.386 74.4849 361.192 75.715 361.192 77.2323C361.192 78.7497 362.386 79.9798 363.859 79.9798Z" fill="#2B5931"/>
<path d="M374.687 137.596C376.16 137.596 377.354 136.365 377.354 134.848C377.354 133.331 376.16 132.101 374.687 132.101C373.214 132.101 372.02 133.331 372.02 134.848C372.02 136.365 373.214 137.596 374.687 137.596Z" fill="#2B5931"/>
<path d="M421.636 117.879C423.109 117.879 424.303 116.649 424.303 115.131C424.303 113.614 423.109 112.384 421.636 112.384C420.164 112.384 418.97 113.614 418.97 115.131C418.97 116.649 420.164 117.879 421.636 117.879Z" fill="#2B5931"/>
<path d="M414.768 159.576C416.24 159.576 417.434 158.346 417.434 156.829C417.434 155.311 416.24 154.081 414.768 154.081C413.295 154.081 412.101 155.311 412.101 156.829C412.101 158.346 413.295 159.576 414.768 159.576Z" fill="#2B5931"/>
<path d="M399.091 231.737C400.564 231.737 401.758 230.507 401.758 228.99C401.758 227.472 400.564 226.242 399.091 226.242C397.618 226.242 396.424 227.472 396.424 228.99C396.424 230.507 397.618 231.737 399.091 231.737Z" fill="#2B5931"/>
<path d="M450.808 236.263C452.281 236.263 453.475 235.032 453.475 233.515C453.475 231.998 452.281 230.768 450.808 230.768C449.335 230.768 448.141 231.998 448.141 233.515C448.141 235.032 449.335 236.263 450.808 236.263Z" fill="#2B5931"/>
<path d="M438.283 139.778C439.755 139.778 440.949 138.548 440.949 137.031C440.949 135.513 439.755 134.283 438.283 134.283C436.81 134.283 435.616 135.513 435.616 137.031C435.616 138.548 436.81 139.778 438.283 139.778Z" fill="#2B5931"/>
<path d="M466.485 158.686C467.958 158.686 469.151 157.456 469.151 155.939C469.151 154.421 467.958 153.191 466.485 153.191C465.012 153.191 463.818 154.421 463.818 155.939C463.818 157.456 465.012 158.686 466.485 158.686Z" fill="#2B5931"/>
<path d="M481.596 147.778C483.069 147.778 484.263 146.548 484.263 145.03C484.263 143.513 483.069 142.283 481.596 142.283C480.123 142.283 478.929 143.513 478.929 145.03C478.929 146.548 480.123 147.778 481.596 147.778Z" fill="#2B5931"/>
<path d="M503.253 85.1512C504.725 85.1512 505.919 83.9211 505.919 82.4037C505.919 80.8863 504.725 79.6562 503.253 79.6562C501.78 79.6562 500.586 80.8863 500.586 82.4037C500.586 83.9211 501.78 85.1512 503.253 85.1512Z" fill="#2B5931"/>
<path d="M503.899 178.566C505.372 178.566 506.566 177.336 506.566 175.819C506.566 174.301 505.372 173.071 503.899 173.071C502.426 173.071 501.232 174.301 501.232 175.819C501.232 177.336 502.426 178.566 503.899 178.566Z" fill="#2B5931"/>
<path d="M562.566 97.3534C564.038 97.3534 565.232 96.1233 565.232 94.6059C565.232 93.0885 564.038 91.8584 562.566 91.8584C561.093 91.8584 559.899 93.0885 559.899 94.6059C559.899 96.1233 561.093 97.3534 562.566 97.3534Z" fill="#2B5931"/>
<path d="M518.041 192.141C519.513 192.141 520.707 190.911 520.707 189.394C520.707 187.877 519.513 186.646 518.041 186.646C516.568 186.646 515.374 187.877 515.374 189.394C515.374 190.911 516.568 192.141 518.041 192.141Z" fill="#2B5931"/>
<path d="M552.465 159.495C553.938 159.495 555.131 158.265 555.131 156.747C555.131 155.23 553.938 154 552.465 154C550.992 154 549.798 155.23 549.798 156.747C549.798 158.265 550.992 159.495 552.465 159.495Z" fill="#2B5931"/>
<path d="M589.475 119.494C590.948 119.494 592.141 118.264 592.141 116.747C592.141 115.23 590.948 114 589.475 114C588.002 114 586.808 115.23 586.808 116.747C586.808 118.264 588.002 119.494 589.475 119.494Z" fill="#2B5931"/>
<path d="M643.293 159.495C644.766 159.495 645.96 158.265 645.96 156.747C645.96 155.23 644.766 154 643.293 154C641.82 154 640.626 155.23 640.626 156.747C640.626 158.265 641.82 159.495 643.293 159.495Z" fill="#2B5931"/>
<path d="M662.202 105.838C663.675 105.838 664.868 104.608 664.868 103.091C664.868 101.573 663.675 100.343 662.202 100.343C660.729 100.343 659.535 101.573 659.535 103.091C659.535 104.608 660.729 105.838 662.202 105.838Z" fill="#2B5931"/>
<path d="M662.444 81.1112C663.917 81.1112 665.111 79.8811 665.111 78.3637C665.111 76.8463 663.917 75.6162 662.444 75.6162C660.972 75.6162 659.778 76.8463 659.778 78.3637C659.778 79.8811 660.972 81.1112 662.444 81.1112Z" fill="#2B5931"/>
<path d="M687.818 70.6868C689.291 70.6868 690.485 69.4568 690.485 67.9394C690.485 66.422 689.291 65.1919 687.818 65.1919C686.346 65.1919 685.152 66.422 685.152 67.9394C685.152 69.4568 686.346 70.6868 687.818 70.6868Z" fill="#2B5931"/>
<path d="M654.606 127.657C656.079 127.657 657.273 126.427 657.273 124.91C657.273 123.392 656.079 122.162 654.606 122.162C653.133 122.162 651.939 123.392 651.939 124.91C651.939 126.427 653.133 127.657 654.606 127.657Z" fill="#2B5931"/>
<path d="M671.091 216.546C672.564 216.546 673.758 215.316 673.758 213.798C673.758 212.281 672.564 211.051 671.091 211.051C669.618 211.051 668.424 212.281 668.424 213.798C668.424 215.316 669.618 216.546 671.091 216.546Z" fill="#2B5931"/>
<path d="M687.818 171.858C689.291 171.858 690.485 170.628 690.485 169.111C690.485 167.593 689.291 166.363 687.818 166.363C686.346 166.363 685.152 167.593 685.152 169.111C685.152 170.628 686.346 171.858 687.818 171.858Z" fill="#2B5931"/>
<path d="M708.828 172.667C710.301 172.667 711.495 171.437 711.495 169.919C711.495 168.402 710.301 167.172 708.828 167.172C707.356 167.172 706.162 168.402 706.162 169.919C706.162 171.437 707.356 172.667 708.828 172.667Z" fill="#2B5931"/>
<path d="M602.566 172.667C604.038 172.667 605.232 171.437 605.232 169.919C605.232 168.402 604.038 167.172 602.566 167.172C601.093 167.172 599.899 168.402 599.899 169.919C599.899 171.437 601.093 172.667 602.566 172.667Z" fill="#2B5931"/>
<path d="M571.939 188.585C573.412 188.585 574.606 187.355 574.606 185.837C574.606 184.32 573.412 183.09 571.939 183.09C570.467 183.09 569.273 184.32 569.273 185.837C569.273 187.355 570.467 188.585 571.939 188.585Z" fill="#2B5931"/>
<path d="M541.798 235.858C543.271 235.858 544.465 234.628 544.465 233.111C544.465 231.593 543.271 230.363 541.798 230.363C540.325 230.363 539.131 231.593 539.131 233.111C539.131 234.628 540.325 235.858 541.798 235.858Z" fill="#2B5931"/>
<path d="M55.0102 132.505C56.4829 132.505 57.6768 131.275 57.6768 129.757C57.6768 128.24 56.4829 127.01 55.0102 127.01C53.5374 127.01 52.3435 128.24 52.3435 129.757C52.3435 131.275 53.5374 132.505 55.0102 132.505Z" fill="white" stroke="#2B5931" stroke-miterlimit="10"/>
<path d="M54.7677 69.7977C56.2405 69.7977 57.4344 68.5676 57.4344 67.0502C57.4344 65.5328 56.2405 64.3027 54.7677 64.3027C53.295 64.3027 52.1011 65.5328 52.1011 67.0502C52.1011 68.5676 53.295 69.7977 54.7677 69.7977Z" fill="white" stroke="#2B5931" stroke-miterlimit="10"/>
<path d="M87.8183 130.08C89.291 130.08 90.4849 128.85 90.4849 127.333C90.4849 125.816 89.291 124.585 87.8183 124.585C86.3455 124.585 85.1516 125.816 85.1516 127.333C85.1516 128.85 86.3455 130.08 87.8183 130.08Z" fill="white" stroke="#2B5931" stroke-miterlimit="10"/>
<path d="M116.424 157.313C117.897 157.313 119.091 156.083 119.091 154.566C119.091 153.048 117.897 151.818 116.424 151.818C114.951 151.818 113.758 153.048 113.758 154.566C113.758 156.083 114.951 157.313 116.424 157.313Z" fill="white" stroke="#2B5931" stroke-miterlimit="10"/>
<path d="M116.424 207.011C117.897 207.011 119.091 205.78 119.091 204.263C119.091 202.746 117.897 201.516 116.424 201.516C114.951 201.516 113.758 202.746 113.758 204.263C113.758 205.78 114.951 207.011 116.424 207.011Z" fill="white" stroke="#2B5931" stroke-miterlimit="10"/>
<path d="M166.525 150.364C167.998 150.364 169.192 149.134 169.192 147.617C169.192 146.099 167.998 144.869 166.525 144.869C165.053 144.869 163.859 146.099 163.859 147.617C163.859 149.134 165.053 150.364 166.525 150.364Z" fill="white" stroke="#2B5931" stroke-miterlimit="10"/>
<path d="M206.606 129.758C208.079 129.758 209.273 128.528 209.273 127.01C209.273 125.493 208.079 124.263 206.606 124.263C205.133 124.263 203.939 125.493 203.939 127.01C203.939 128.528 205.133 129.758 206.606 129.758Z" fill="white" stroke="#2B5931" stroke-miterlimit="10"/>
<path d="M259.374 108.586C260.846 108.586 262.04 107.356 262.04 105.838C262.04 104.321 260.846 103.091 259.374 103.091C257.901 103.091 256.707 104.321 256.707 105.838C256.707 107.356 257.901 108.586 259.374 108.586Z" fill="white" stroke="#2B5931" stroke-miterlimit="10"/>
<path d="M259.374 135.252C260.846 135.252 262.04 134.022 262.04 132.505C262.04 130.987 260.846 129.757 259.374 129.757C257.901 129.757 256.707 130.987 256.707 132.505C256.707 134.022 257.901 135.252 259.374 135.252Z" fill="white" stroke="#2B5931" stroke-miterlimit="10"/>
<path d="M266.081 162.323C267.554 162.323 268.748 161.093 268.748 159.576C268.748 158.058 267.554 156.828 266.081 156.828C264.608 156.828 263.414 158.058 263.414 159.576C263.414 161.093 264.608 162.323 266.081 162.323Z" fill="white" stroke="#2B5931" stroke-miterlimit="10"/>
<path d="M198.606 236.263C200.079 236.263 201.273 235.032 201.273 233.515C201.273 231.998 200.079 230.768 198.606 230.768C197.133 230.768 195.939 231.998 195.939 233.515C195.939 235.032 197.133 236.263 198.606 236.263Z" fill="white" stroke="#2B5931" stroke-miterlimit="10"/>
<path d="M209.596 195.212C211.069 195.212 212.263 193.982 212.263 192.464C212.263 190.947 211.069 189.717 209.596 189.717C208.123 189.717 206.929 190.947 206.929 192.464C206.929 193.982 208.123 195.212 209.596 195.212Z" fill="white" stroke="#2B5931" stroke-miterlimit="10"/>
<path d="M229.233 220.586C230.705 220.586 231.899 219.356 231.899 217.838C231.899 216.321 230.705 215.091 229.233 215.091C227.76 215.091 226.566 216.321 226.566 217.838C226.566 219.356 227.76 220.586 229.233 220.586Z" fill="white" stroke="#2B5931" stroke-miterlimit="10"/>
<path d="M276.101 230.201C277.574 230.201 278.768 228.971 278.768 227.454C278.768 225.936 277.574 224.706 276.101 224.706C274.628 224.706 273.434 225.936 273.434 227.454C273.434 228.971 274.628 230.201 276.101 230.201Z" fill="white" stroke="#2B5931" stroke-miterlimit="10"/>
<path d="M374.687 222.121C376.16 222.121 377.354 220.891 377.354 219.373C377.354 217.856 376.16 216.626 374.687 216.626C373.214 216.626 372.02 217.856 372.02 219.373C372.02 220.891 373.214 222.121 374.687 222.121Z" fill="white" stroke="#2B5931" stroke-miterlimit="10"/>
<path d="M323.939 124.021C325.412 124.021 326.606 122.791 326.606 121.273C326.606 119.756 325.412 118.526 323.939 118.526C322.467 118.526 321.273 119.756 321.273 121.273C321.273 122.791 322.467 124.021 323.939 124.021Z" fill="white" stroke="#2B5931" stroke-miterlimit="10"/>
<path d="M298.808 134.364C300.281 134.364 301.475 133.134 301.475 131.616C301.475 130.099 300.281 128.869 298.808 128.869C297.335 128.869 296.142 130.099 296.142 131.616C296.142 133.134 297.335 134.364 298.808 134.364Z" fill="white" stroke="#2B5931" stroke-miterlimit="10"/>
<path d="M396.667 137.596C398.139 137.596 399.333 136.365 399.333 134.848C399.333 133.331 398.139 132.101 396.667 132.101C395.194 132.101 394 133.331 394 134.848C394 136.365 395.194 137.596 396.667 137.596Z" fill="white" stroke="#2B5931" stroke-miterlimit="10"/>
<path d="M381.232 155.939C382.705 155.939 383.899 154.709 383.899 153.192C383.899 151.674 382.705 150.444 381.232 150.444C379.76 150.444 378.566 151.674 378.566 153.192C378.566 154.709 379.76 155.939 381.232 155.939Z" fill="white" stroke="#2B5931" stroke-miterlimit="10"/>
<path d="M381.232 195.858C382.705 195.858 383.899 194.628 383.899 193.111C383.899 191.593 382.705 190.363 381.232 190.363C379.76 190.363 378.566 191.593 378.566 193.111C378.566 194.628 379.76 195.858 381.232 195.858Z" fill="white" stroke="#2B5931" stroke-miterlimit="10"/>
<path d="M421.636 226C423.109 226 424.303 224.77 424.303 223.252C424.303 221.735 423.109 220.505 421.636 220.505C420.164 220.505 418.97 221.735 418.97 223.252C418.97 224.77 420.164 226 421.636 226Z" fill="white" stroke="#2B5931" stroke-miterlimit="10"/>
<path d="M420.828 187.778C422.301 187.778 423.495 186.548 423.495 185.031C423.495 183.513 422.301 182.283 420.828 182.283C419.356 182.283 418.162 183.513 418.162 185.031C418.162 186.548 419.356 187.778 420.828 187.778Z" fill="white" stroke="#2B5931" stroke-miterlimit="10"/>
<path d="M455.656 81.8387C457.129 81.8387 458.323 80.6086 458.323 79.0912C458.323 77.5738 457.129 76.3438 455.656 76.3438C454.184 76.3438 452.99 77.5738 452.99 79.0912C452.99 80.6086 454.184 81.8387 455.656 81.8387Z" fill="white" stroke="#2B5931" stroke-miterlimit="10"/>
<path d="M481.596 172.667C483.069 172.667 484.263 171.437 484.263 169.919C484.263 168.402 483.069 167.172 481.596 167.172C480.123 167.172 478.929 168.402 478.929 169.919C478.929 171.437 480.123 172.667 481.596 172.667Z" fill="white" stroke="#2B5931" stroke-miterlimit="10"/>
<path d="M469.071 225.758C470.543 225.758 471.737 224.528 471.737 223.01C471.737 221.493 470.543 220.263 469.071 220.263C467.598 220.263 466.404 221.493 466.404 223.01C466.404 224.528 467.598 225.758 469.071 225.758Z" fill="white" stroke="#2B5931" stroke-miterlimit="10"/>
<path d="M503.899 113.03C505.372 113.03 506.566 111.8 506.566 110.283C506.566 108.765 505.372 107.535 503.899 107.535C502.426 107.535 501.232 108.765 501.232 110.283C501.232 111.8 502.426 113.03 503.899 113.03Z" fill="white" stroke="#2B5931" stroke-miterlimit="10"/>
<path d="M547.131 137.596C548.604 137.596 549.798 136.365 549.798 134.848C549.798 133.331 548.604 132.101 547.131 132.101C545.658 132.101 544.465 133.331 544.465 134.848C544.465 136.365 545.658 137.596 547.131 137.596Z" fill="white" stroke="#2B5931" stroke-miterlimit="10"/>
<path d="M547.131 101.394C548.604 101.394 549.798 100.164 549.798 98.6469C549.798 97.1295 548.604 95.8994 547.131 95.8994C545.658 95.8994 544.465 97.1295 544.465 98.6469C544.465 100.164 545.658 101.394 547.131 101.394Z" fill="white" stroke="#2B5931" stroke-miterlimit="10"/>
<path d="M542.848 85.1512C544.321 85.1512 545.515 83.9211 545.515 82.4037C545.515 80.8863 544.321 79.6562 542.848 79.6562C541.376 79.6562 540.182 80.8863 540.182 82.4037C540.182 83.9211 541.376 85.1512 542.848 85.1512Z" fill="white" stroke="#2B5931" stroke-miterlimit="10"/>
<path d="M557.475 182.444C558.948 182.444 560.141 181.214 560.141 179.697C560.141 178.179 558.948 176.949 557.475 176.949C556.002 176.949 554.808 178.179 554.808 179.697C554.808 181.214 556.002 182.444 557.475 182.444Z" fill="white" stroke="#2B5931" stroke-miterlimit="10"/>
<path d="M619.293 167.656C620.766 167.656 621.96 166.426 621.96 164.909C621.96 163.391 620.766 162.161 619.293 162.161C617.82 162.161 616.626 163.391 616.626 164.909C616.626 166.426 617.82 167.656 619.293 167.656Z" fill="white" stroke="#2B5931" stroke-miterlimit="10"/>
<path d="M576.061 226C577.534 226 578.727 224.77 578.727 223.252C578.727 221.735 577.534 220.505 576.061 220.505C574.588 220.505 573.394 221.735 573.394 223.252C573.394 224.77 574.588 226 576.061 226Z" fill="white" stroke="#2B5931" stroke-miterlimit="10"/>
<path d="M558.202 220.908C559.675 220.908 560.869 219.678 560.869 218.161C560.869 216.643 559.675 215.413 558.202 215.413C556.729 215.413 555.535 216.643 555.535 218.161C555.535 219.678 556.729 220.908 558.202 220.908Z" fill="white" stroke="#2B5931" stroke-miterlimit="10"/>
<path d="M611.131 94.6058C612.604 94.6058 613.798 93.3757 613.798 91.8583C613.798 90.3409 612.604 89.1108 611.131 89.1108C609.658 89.1108 608.465 90.3409 608.465 91.8583C608.465 93.3757 609.658 94.6058 611.131 94.6058Z" fill="white" stroke="#2B5931" stroke-miterlimit="10"/>
<path d="M643.374 109.071C644.846 109.071 646.04 107.841 646.04 106.323C646.04 104.806 644.846 103.576 643.374 103.576C641.901 103.576 640.707 104.806 640.707 106.323C640.707 107.841 641.901 109.071 643.374 109.071Z" fill="white" stroke="#2B5931" stroke-miterlimit="10"/>
<path d="M700.99 158.444C702.463 158.444 703.657 157.214 703.657 155.697C703.657 154.179 702.463 152.949 700.99 152.949C699.517 152.949 698.323 154.179 698.323 155.697C698.323 157.214 699.517 158.444 700.99 158.444Z" fill="white" stroke="#2B5931" stroke-miterlimit="10"/>
<path d="M694.445 204.1C695.917 204.1 697.111 202.87 697.111 201.353C697.111 199.836 695.917 198.605 694.445 198.605C692.972 198.605 691.778 199.836 691.778 201.353C691.778 202.87 692.972 204.1 694.445 204.1Z" fill="white" stroke="#2B5931" stroke-miterlimit="10"/>
<path d="M679.657 117.556C681.129 117.556 682.323 116.326 682.323 114.809C682.323 113.291 681.129 112.061 679.657 112.061C678.184 112.061 676.99 113.291 676.99 114.809C676.99 116.326 678.184 117.556 679.657 117.556Z" fill="white" stroke="#2B5931" stroke-miterlimit="10"/>
<path d="M632.465 217.433C633.937 217.433 635.131 216.203 635.131 214.686C635.131 213.169 633.937 211.938 632.465 211.938C630.992 211.938 629.798 213.169 629.798 214.686C629.798 216.203 630.992 217.433 632.465 217.433Z" fill="white" stroke="#2B5931" stroke-miterlimit="10"/>
<path d="M619.293 197.232C620.766 197.232 621.96 196.002 621.96 194.485C621.96 192.967 620.766 191.737 619.293 191.737C617.82 191.737 616.626 192.967 616.626 194.485C616.626 196.002 617.82 197.232 619.293 197.232Z" fill="white" stroke="#2B5931" stroke-miterlimit="10"/>
<path d="M12.5048 93.4744C13.9776 93.4744 15.1715 92.2444 15.1715 90.727C15.1715 89.2096 13.9776 87.9795 12.5048 87.9795C11.032 87.9795 9.83813 89.2096 9.83813 90.727C9.83813 92.2444 11.032 93.4744 12.5048 93.4744Z" fill="white" stroke="#2B5931" stroke-miterlimit="10"/>
</svg>
