<svg width="621" height="322" viewBox="0 0 621 322" fill="none" xmlns="http://www.w3.org/2000/svg">
<path d="M619.307 2H2V319.739H619.307V2Z" fill="white" stroke="#2B5931" stroke-width="3" stroke-miterlimit="10"/>
<path d="M21.9759 2.5498L6.92468 20.7222V50.8939" stroke="#2B5931" stroke-width="0.75" stroke-miterlimit="10"/>
<path d="M59.0143 2L61.65 5.46802V16.9818L53.951 25.1663H18.0917V59.361" stroke="#2B5931" stroke-width="0.75" stroke-miterlimit="10"/>
<path d="M69.6956 2L74.5508 7.47946V20.4498L61.6498 31.6862H29.4666V48.1246" stroke="#2B5931" stroke-width="0.75" stroke-miterlimit="10"/>
<path d="M74.5508 35.9155V72.6071" stroke="#2B5931" stroke-width="0.75" stroke-miterlimit="10"/>
<path d="M81.5563 2V6.43906L85.6485 8.72796V30.6458" stroke="#2B5931" stroke-width="0.75" stroke-miterlimit="10"/>
<path d="M96.0527 2.55762V28.7758H107.636V61.2364" stroke="#2B5931" stroke-width="0.75" stroke-miterlimit="10"/>
<path d="M118.872 16.2882V11.0168H107.636V2" stroke="#2B5931" stroke-width="0.75" stroke-miterlimit="10"/>
<path d="M129.762 2.55762V20.5219H118.872V42.0929" stroke="#2B5931" stroke-width="0.75" stroke-miterlimit="10"/>
<path d="M141.553 2.55762V50.0001" stroke="#2B5931" stroke-width="0.75" stroke-miterlimit="10"/>
<path d="M154.801 2L152.096 6.0229V14.6236" stroke="#2B5931" stroke-width="0.75" stroke-miterlimit="10"/>
<path d="M167.355 2V70.9442" stroke="#2B5931" stroke-width="0.75" stroke-miterlimit="10"/>
<path d="M185.597 2L183.308 4.63569V49.5812" stroke="#2B5931" stroke-width="0.75" stroke-miterlimit="10"/>
<path d="M194.752 2V42.7839" stroke="#2B5931" stroke-width="0.75" stroke-miterlimit="10"/>
<path d="M205.989 2V16.2882" stroke="#2B5931" stroke-width="0.75" stroke-miterlimit="10"/>
<path d="M217.225 2V19.8256L205.989 30.6458V58.598" stroke="#2B5931" stroke-width="0.75" stroke-miterlimit="10"/>
<path d="M228.67 2V17.398L217.225 28.6344V67.1294" stroke="#2B5931" stroke-width="0.75" stroke-miterlimit="10"/>
<path d="M228.67 34.5308V77.9503" stroke="#2B5931" stroke-width="0.75" stroke-miterlimit="10"/>
<path d="M239.559 2V58.598" stroke="#2B5931" stroke-width="0.75" stroke-miterlimit="10"/>
<path d="M255.442 2L250.587 6.85522V19.6175L263.627 30.6458L295.81 30.2296V68.9327" stroke="#2B5931" stroke-width="0.75" stroke-miterlimit="10"/>
<path d="M262.656 2.55762V17.3314H279.302" stroke="#2B5931" stroke-width="0.75" stroke-miterlimit="10"/>
<path d="M303.787 2.55762L308.018 7.62092V46.6707" stroke="#2B5931" stroke-width="0.75" stroke-miterlimit="10"/>
<path d="M323.485 2.55762V19.759" stroke="#2B5931" stroke-width="0.75" stroke-miterlimit="10"/>
<path d="M336.317 2L340.756 9.07475V25.7212L333.958 34.53V58.598" stroke="#2B5931" stroke-width="0.75" stroke-miterlimit="10"/>
<path d="M352.825 30.2314V75.0382" stroke="#2B5931" stroke-width="0.75" stroke-miterlimit="10"/>
<path d="M358.79 2.55762L365.656 11.1583V31.897" stroke="#2B5931" stroke-width="0.75" stroke-miterlimit="10"/>
<path d="M376.477 2.55762V38.833" stroke="#2B5931" stroke-width="0.75" stroke-miterlimit="10"/>
<path d="M376.477 80.8609V58.5963L387.228 54.5734V26.3438" stroke="#2B5931" stroke-width="0.75" stroke-miterlimit="10"/>
<path d="M398.394 21.418V44.0988" stroke="#2B5931" stroke-width="0.75" stroke-miterlimit="10"/>
<path d="M409.561 2V28.8424" stroke="#2B5931" stroke-width="0.75" stroke-miterlimit="10"/>
<path d="M421.491 2V52.633" stroke="#2B5931" stroke-width="0.75" stroke-miterlimit="10"/>
<path d="M435.086 2L430.994 5.81482V15.3865" stroke="#2B5931" stroke-width="0.75" stroke-miterlimit="10"/>
<path d="M447.224 2.55762V69.4209" stroke="#2B5931" stroke-width="0.75" stroke-miterlimit="10"/>
<path d="M463.038 2V50.0667" stroke="#2B5931" stroke-width="0.75" stroke-miterlimit="10"/>
<path d="M474.482 44.1017V11.9185L470.321 8.65859V2" stroke="#2B5931" stroke-width="0.75" stroke-miterlimit="10"/>
<path d="M485.442 2V17.8835" stroke="#2B5931" stroke-width="0.75" stroke-miterlimit="10"/>
<path d="M485.442 61.3724V30.2296L497.302 20.4498V2" stroke="#2B5931" stroke-width="0.75" stroke-miterlimit="10"/>
<path d="M508.538 34.811V79.1323" stroke="#2B5931" stroke-width="0.75" stroke-miterlimit="10"/>
<path d="M497.302 68.1697V30.2296L508.538 19.6175V2" stroke="#2B5931" stroke-width="0.75" stroke-miterlimit="10"/>
<path d="M523.589 2L518.734 7.34075V23.0162V58.598" stroke="#2B5931" stroke-width="0.75" stroke-miterlimit="10"/>
<path d="M535.034 2L530.664 7.54882V21.4209L544.953 32.5879V70.1812" stroke="#2B5931" stroke-width="0.75" stroke-miterlimit="10"/>
<path d="M530.664 34.811V48.1282" stroke="#2B5931" stroke-width="0.75" stroke-miterlimit="10"/>
<path d="M546.201 2V18.7852H558.825" stroke="#2B5931" stroke-width="0.75" stroke-miterlimit="10"/>
<path d="M574.153 2L578.523 8.65859V50.0667" stroke="#2B5931" stroke-width="0.75" stroke-miterlimit="10"/>
<path d="M565.622 2V31.6862L558.825 36.0559V54.5751" stroke="#2B5931" stroke-width="0.75" stroke-miterlimit="10"/>
<path d="M286.724 2L289.291 9.07475V21.4209" stroke="#2B5931" stroke-width="0.75" stroke-miterlimit="10"/>
<path d="M597.112 2.55762L592.395 10.9502V30.9953L607.308 35.9893V61.2364" stroke="#2B5931" stroke-width="0.75" stroke-miterlimit="10"/>
<path d="M607.307 2.55762L616.185 18.0943V40.7751" stroke="#2B5931" stroke-width="0.75" stroke-miterlimit="10"/>
<path d="M34.6685 2L39.8705 9.07476V19.4095" stroke="#2B5931" stroke-width="0.75" stroke-miterlimit="10"/>
<path d="M30.9232 319.739V274.169L53.0492 252.321V228.877" stroke="#2B5931" stroke-width="0.75" stroke-miterlimit="10"/>
<path d="M19.8256 287.766L7.27142 274.311L41.9516 239.145V207.725" stroke="#2B5931" stroke-width="0.75" stroke-miterlimit="10"/>
<path d="M10.8783 259.118L21.3517 247.674V239.42L32.1025 228.877" stroke="#2B5931" stroke-width="0.75" stroke-miterlimit="10"/>
<path d="M7.27142 213.203V242.473" stroke="#2B5931" stroke-width="0.75" stroke-miterlimit="10"/>
<path d="M41.9517 287.764V274.308L53.0493 281.036V299.486L41.9517 311.485V319.739" stroke="#2B5931" stroke-width="0.75" stroke-miterlimit="10"/>
<path d="M53.0493 187.052V203.976L65.326 216.6V255.372" stroke="#2B5931" stroke-width="0.75" stroke-miterlimit="10"/>
<path d="M65.326 295.745V319.743" stroke="#2B5931" stroke-width="0.75" stroke-miterlimit="10"/>
<path d="M89.5328 319.395L82.0419 312.875V295.951" stroke="#2B5931" stroke-width="0.75" stroke-miterlimit="10"/>
<path d="M73.3718 280.412V242.472L85.7873 230.473V188.579" stroke="#2B5931" stroke-width="0.75" stroke-miterlimit="10"/>
<path d="M108.399 245.523L100.63 237.547L84.7469 255.372V278.816" stroke="#2B5931" stroke-width="0.75" stroke-miterlimit="10"/>
<path d="M97.9254 267.094V304.132L106.595 311.484" stroke="#2B5931" stroke-width="0.75" stroke-miterlimit="10"/>
<path d="M112.005 319.743L124.213 306.218V275.491L132.051 267.376V190.733" stroke="#2B5931" stroke-width="0.75" stroke-miterlimit="10"/>
<path d="M119.149 203.075V221.178" stroke="#2B5931" stroke-width="0.75" stroke-miterlimit="10"/>
<path d="M146.963 319.742L140.721 306.217V212.095" stroke="#2B5931" stroke-width="0.75" stroke-miterlimit="10"/>
<path d="M158.962 297.059V319.74" stroke="#2B5931" stroke-width="0.75" stroke-miterlimit="10"/>
<path d="M182.545 319.741L172.696 309.615V276.946H158.962V175.611" stroke="#2B5931" stroke-width="0.75" stroke-miterlimit="10"/>
<path d="M180.187 221.181L170.754 232.903V255.375" stroke="#2B5931" stroke-width="0.75" stroke-miterlimit="10"/>
<path d="M184.695 247.676V311.487L194.822 319.741" stroke="#2B5931" stroke-width="0.75" stroke-miterlimit="10"/>
<path d="M193.642 212.095L194.822 264.324L205.642 274.311V304.691L219.098 319.742" stroke="#2B5931" stroke-width="0.75" stroke-miterlimit="10"/>
<path d="M216.948 226.795L208.277 235.951V252.043L219.098 263.418V302.259" stroke="#2B5931" stroke-width="0.75" stroke-miterlimit="10"/>
<path d="M220.901 245.87L229.224 237.547L246.287 258.216V278.816" stroke="#2B5931" stroke-width="0.75" stroke-miterlimit="10"/>
<path d="M230.75 265.989V319.743" stroke="#2B5931" stroke-width="0.75" stroke-miterlimit="10"/>
<path d="M243.582 221.181V241.573L256.761 258.219V291.165" stroke="#2B5931" stroke-width="0.75" stroke-miterlimit="10"/>
<path d="M244.83 294.84L239.42 304.689V319.74" stroke="#2B5931" stroke-width="0.75" stroke-miterlimit="10"/>
<path d="M273.199 258.214L264.875 264.456V309.957L273.199 319.736" stroke="#2B5931" stroke-width="0.75" stroke-miterlimit="10"/>
<path d="M264.875 240.602V214.8L276.042 203.217V180.536" stroke="#2B5931" stroke-width="0.75" stroke-miterlimit="10"/>
<path d="M276.042 226.795V248.991L297.683 271.186V307.323" stroke="#2B5931" stroke-width="0.75" stroke-miterlimit="10"/>
<path d="M285.475 319.743V308.368L276.042 297.063V265.989L286.863 274.798V291.167" stroke="#2B5931" stroke-width="0.75" stroke-miterlimit="10"/>
<path d="M310.307 318.976V291.856" stroke="#2B5931" stroke-width="0.75" stroke-miterlimit="10"/>
<path d="M327.508 319.741L336.871 311.14V247.676" stroke="#2B5931" stroke-width="0.75" stroke-miterlimit="10"/>
<path d="M321.89 255.375V231.932L332.155 222.291" stroke="#2B5931" stroke-width="0.75" stroke-miterlimit="10"/>
<path d="M303.717 182.196V243.718" stroke="#2B5931" stroke-width="0.75" stroke-miterlimit="10"/>
<path d="M362.535 319.742L350.119 308.506V272.994L358.651 264.185V212.095" stroke="#2B5931" stroke-width="0.75" stroke-miterlimit="10"/>
<path d="M370.65 246.566L378.627 238.312L395.204 255.375V275.836" stroke="#2B5931" stroke-width="0.75" stroke-miterlimit="10"/>
<path d="M378.141 264.455L370.65 275.83V300.8L378.141 307.32V319.735" stroke="#2B5931" stroke-width="0.75" stroke-miterlimit="10"/>
<path d="M402.903 294.84L393.053 304.689V319.74" stroke="#2B5931" stroke-width="0.75" stroke-miterlimit="10"/>
<path d="M394.024 223.471L406.856 235.054V264.463" stroke="#2B5931" stroke-width="0.75" stroke-miterlimit="10"/>
<path d="M415.943 262.86V308.708L426 319.736" stroke="#2B5931" stroke-width="0.75" stroke-miterlimit="10"/>
<path d="M426 182.196V203.351L415.943 214.865V238.863" stroke="#2B5931" stroke-width="0.75" stroke-miterlimit="10"/>
<path d="M426 229.017V299.417L437.86 311.139V319.74" stroke="#2B5931" stroke-width="0.75" stroke-miterlimit="10"/>
<path d="M435.086 270.074L444.865 278.814V305.864" stroke="#2B5931" stroke-width="0.75" stroke-miterlimit="10"/>
<path d="M437.86 196.831V238.863L461.72 263.486V282.63" stroke="#2B5931" stroke-width="0.75" stroke-miterlimit="10"/>
<path d="M455.825 294.84V319.74" stroke="#2B5931" stroke-width="0.75" stroke-miterlimit="10"/>
<path d="M449.79 227.352L471.361 249.547V310.653L466.09 319.74" stroke="#2B5931" stroke-width="0.75" stroke-miterlimit="10"/>
<path d="M479.06 214.868V238.312" stroke="#2B5931" stroke-width="0.75" stroke-miterlimit="10"/>
<path d="M483.499 318.979V279.374L498.273 264.184V220.487" stroke="#2B5931" stroke-width="0.75" stroke-miterlimit="10"/>
<path d="M500.632 301.563V278.397L514.296 264.455V319.735" stroke="#2B5931" stroke-width="0.75" stroke-miterlimit="10"/>
<path d="M510.203 202.728V239.697L524.838 254.748V297.404" stroke="#2B5931" stroke-width="0.75" stroke-miterlimit="10"/>
<path d="M532.121 319.735V292.129" stroke="#2B5931" stroke-width="0.75" stroke-miterlimit="10"/>
<path d="M544.883 282.634V245.943L556.952 233.458V190.94" stroke="#2B5931" stroke-width="0.75" stroke-miterlimit="10"/>
<path d="M524.838 189.348V205.37L537.253 219.797V248.581" stroke="#2B5931" stroke-width="0.75" stroke-miterlimit="10"/>
<path d="M547.38 305.866L559.796 314.675V319.738" stroke="#2B5931" stroke-width="0.75" stroke-miterlimit="10"/>
<path d="M570.963 319.742V268.97" stroke="#2B5931" stroke-width="0.75" stroke-miterlimit="10"/>
<path d="M556.951 287.976V255.099L572.835 239.701V226.522" stroke="#2B5931" stroke-width="0.75" stroke-miterlimit="10"/>
<path d="M590.662 206.336V231.584" stroke="#2B5931" stroke-width="0.75" stroke-miterlimit="10"/>
<path d="M583.656 319.742L594.476 309.823V268.97L603.077 252.185V190.94" stroke="#2B5931" stroke-width="0.75" stroke-miterlimit="10"/>
<path d="M607.168 319.736L615.145 310.442V283.946" stroke="#2B5931" stroke-width="0.75" stroke-miterlimit="10"/>
<path d="M6.92432 53.2595C8.18844 53.2595 9.21321 52.2036 9.21321 50.9012C9.21321 49.5988 8.18844 48.543 6.92432 48.543C5.66021 48.543 4.63544 49.5988 4.63544 50.9012C4.63544 52.2036 5.66021 53.2595 6.92432 53.2595Z" fill="#2B5931"/>
<path d="M39.8706 21.7653C41.1347 21.7653 42.1595 20.7095 42.1595 19.4071C42.1595 18.1047 41.1347 17.0488 39.8706 17.0488C38.6065 17.0488 37.5817 18.1047 37.5817 19.4071C37.5817 20.7095 38.6065 21.7653 39.8706 21.7653Z" fill="#2B5931"/>
<path d="M29.4666 50.4865C30.7307 50.4865 31.7555 49.4307 31.7555 48.1283C31.7555 46.8258 30.7307 45.77 29.4666 45.77C28.2024 45.77 27.1777 46.8258 27.1777 48.1283C27.1777 49.4307 28.2024 50.4865 29.4666 50.4865Z" fill="#2B5931"/>
<path d="M18.0913 61.7185C19.3554 61.7185 20.3801 60.6626 20.3801 59.3602C20.3801 58.0578 19.3554 57.002 18.0913 57.002C16.8271 57.002 15.8024 58.0578 15.8024 59.3602C15.8024 60.6626 16.8271 61.7185 18.0913 61.7185Z" fill="white" stroke="#2B5931" stroke-miterlimit="10"/>
<path d="M7.27113 244.827C8.53524 244.827 9.56001 243.772 9.56001 242.469C9.56001 241.167 8.53524 240.111 7.27113 240.111C6.00701 240.111 4.98224 241.167 4.98224 242.469C4.98224 243.772 6.00701 244.827 7.27113 244.827Z" fill="white" stroke="#2B5931" stroke-miterlimit="10"/>
<path d="M10.8776 261.477C12.1418 261.477 13.1665 260.421 13.1665 259.119C13.1665 257.817 12.1418 256.761 10.8776 256.761C9.61352 256.761 8.58875 257.817 8.58875 259.119C8.58875 260.421 9.61352 261.477 10.8776 261.477Z" fill="white" stroke="#2B5931" stroke-miterlimit="10"/>
<path d="M32.1021 231.239C33.3662 231.239 34.391 230.184 34.391 228.881C34.391 227.579 33.3662 226.523 32.1021 226.523C30.838 226.523 29.8132 227.579 29.8132 228.881C29.8132 230.184 30.838 231.239 32.1021 231.239Z" fill="white" stroke="#2B5931" stroke-miterlimit="10"/>
<path d="M53.049 189.414C54.3131 189.414 55.3378 188.358 55.3378 187.056C55.3378 185.753 54.3131 184.697 53.049 184.697C51.7848 184.697 50.7601 185.753 50.7601 187.056C50.7601 188.358 51.7848 189.414 53.049 189.414Z" fill="white" stroke="#2B5931" stroke-miterlimit="10"/>
<path d="M65.3255 257.589C66.5896 257.589 67.6144 256.533 67.6144 255.231C67.6144 253.928 66.5896 252.873 65.3255 252.873C64.0614 252.873 63.0366 253.928 63.0366 255.231C63.0366 256.533 64.0614 257.589 65.3255 257.589Z" fill="white" stroke="#2B5931" stroke-miterlimit="10"/>
<path d="M65.3255 298.101C66.5896 298.101 67.6144 297.045 67.6144 295.743C67.6144 294.441 66.5896 293.385 65.3255 293.385C64.0614 293.385 63.0366 294.441 63.0366 295.743C63.0366 297.045 64.0614 298.101 65.3255 298.101Z" fill="white" stroke="#2B5931" stroke-miterlimit="10"/>
<path d="M85.787 191.702C87.0511 191.702 88.0759 190.646 88.0759 189.344C88.0759 188.041 87.0511 186.985 85.787 186.985C84.5229 186.985 83.4981 188.041 83.4981 189.344C83.4981 190.646 84.5229 191.702 85.787 191.702Z" fill="white" stroke="#2B5931" stroke-miterlimit="10"/>
<path d="M84.7465 281.179C86.0106 281.179 87.0354 280.124 87.0354 278.821C87.0354 277.519 86.0106 276.463 84.7465 276.463C83.4824 276.463 82.4576 277.519 82.4576 278.821C82.4576 280.124 83.4824 281.179 84.7465 281.179Z" fill="white" stroke="#2B5931" stroke-miterlimit="10"/>
<path d="M106.11 313.842C107.374 313.842 108.398 312.787 108.398 311.484C108.398 310.182 107.374 309.126 106.11 309.126C104.845 309.126 103.821 310.182 103.821 311.484C103.821 312.787 104.845 313.842 106.11 313.842Z" fill="white" stroke="#2B5931" stroke-miterlimit="10"/>
<path d="M132.05 194.063C133.315 194.063 134.339 193.007 134.339 191.704C134.339 190.402 133.315 189.346 132.05 189.346C130.786 189.346 129.762 190.402 129.762 191.704C129.762 193.007 130.786 194.063 132.05 194.063Z" fill="white" stroke="#2B5931" stroke-miterlimit="10"/>
<path d="M158.962 299.558C160.226 299.558 161.251 298.502 161.251 297.2C161.251 295.898 160.226 294.842 158.962 294.842C157.698 294.842 156.673 295.898 156.673 297.2C156.673 298.502 157.698 299.558 158.962 299.558Z" fill="white" stroke="#2B5931" stroke-miterlimit="10"/>
<path d="M180.186 223.54C181.451 223.54 182.475 222.484 182.475 221.181C182.475 219.879 181.451 218.823 180.186 218.823C178.922 218.823 177.898 219.879 177.898 221.181C177.898 222.484 178.922 223.54 180.186 223.54Z" fill="white" stroke="#2B5931" stroke-miterlimit="10"/>
<path d="M184.695 250.034C185.959 250.034 186.984 248.978 186.984 247.676C186.984 246.373 185.959 245.317 184.695 245.317C183.431 245.317 182.406 246.373 182.406 247.676C182.406 248.978 183.431 250.034 184.695 250.034Z" fill="white" stroke="#2B5931" stroke-miterlimit="10"/>
<path d="M215.976 230.679C217.24 230.679 218.265 229.623 218.265 228.321C218.265 227.018 217.24 225.962 215.976 225.962C214.712 225.962 213.687 227.018 213.687 228.321C213.687 229.623 214.712 230.679 215.976 230.679Z" fill="white" stroke="#2B5931" stroke-miterlimit="10"/>
<path d="M219.097 304.208C220.362 304.208 221.386 303.152 221.386 301.849C221.386 300.547 220.362 299.491 219.097 299.491C217.833 299.491 216.809 300.547 216.809 301.849C216.809 303.152 217.833 304.208 219.097 304.208Z" fill="white" stroke="#2B5931" stroke-miterlimit="10"/>
<path d="M220.901 247.748C222.165 247.748 223.19 246.692 223.19 245.39C223.19 244.088 222.165 243.032 220.901 243.032C219.637 243.032 218.612 244.088 218.612 245.39C218.612 246.692 219.637 247.748 220.901 247.748Z" fill="white" stroke="#2B5931" stroke-miterlimit="10"/>
<path d="M230.75 269.177C232.014 269.177 233.039 268.122 233.039 266.819C233.039 265.517 232.014 264.461 230.75 264.461C229.486 264.461 228.461 265.517 228.461 266.819C228.461 268.122 229.486 269.177 230.75 269.177Z" fill="white" stroke="#2B5931" stroke-miterlimit="10"/>
<path d="M256.76 292.895C258.024 292.895 259.049 291.839 259.049 290.537C259.049 289.235 258.024 288.179 256.76 288.179C255.496 288.179 254.471 289.235 254.471 290.537C254.471 291.839 255.496 292.895 256.76 292.895Z" fill="white" stroke="#2B5931" stroke-miterlimit="10"/>
<path d="M273.198 260.574C274.463 260.574 275.487 259.519 275.487 258.216C275.487 256.914 274.463 255.858 273.198 255.858C271.934 255.858 270.91 256.914 270.91 258.216C270.91 259.519 271.934 260.574 273.198 260.574Z" fill="white" stroke="#2B5931" stroke-miterlimit="10"/>
<path d="M276.042 229.158C277.306 229.158 278.331 228.103 278.331 226.8C278.331 225.498 277.306 224.442 276.042 224.442C274.778 224.442 273.753 225.498 273.753 226.8C273.753 228.103 274.778 229.158 276.042 229.158Z" fill="white" stroke="#2B5931" stroke-miterlimit="10"/>
<path d="M297.683 309.681C298.947 309.681 299.972 308.626 299.972 307.323C299.972 306.021 298.947 304.965 297.683 304.965C296.419 304.965 295.394 306.021 295.394 307.323C295.394 308.626 296.419 309.681 297.683 309.681Z" fill="white" stroke="#2B5931" stroke-miterlimit="10"/>
<path d="M321.889 257.736C323.154 257.736 324.178 256.68 324.178 255.378C324.178 254.075 323.154 253.02 321.889 253.02C320.625 253.02 319.601 254.075 319.601 255.378C319.601 256.68 320.625 257.736 321.889 257.736Z" fill="white" stroke="#2B5931" stroke-miterlimit="10"/>
<path d="M332.155 224.645C333.419 224.645 334.444 223.589 334.444 222.286C334.444 220.984 333.419 219.928 332.155 219.928C330.891 219.928 329.866 220.984 329.866 222.286C329.866 223.589 330.891 224.645 332.155 224.645Z" fill="white" stroke="#2B5931" stroke-miterlimit="10"/>
<path d="M370.65 248.714C371.914 248.714 372.939 247.658 372.939 246.356C372.939 245.053 371.914 243.998 370.65 243.998C369.386 243.998 368.361 245.053 368.361 246.356C368.361 247.658 369.386 248.714 370.65 248.714Z" fill="white" stroke="#2B5931" stroke-miterlimit="10"/>
<path d="M406.856 266.819C408.12 266.819 409.145 265.763 409.145 264.461C409.145 263.158 408.12 262.103 406.856 262.103C405.592 262.103 404.567 263.158 404.567 264.461C404.567 265.763 405.592 266.819 406.856 266.819Z" fill="white" stroke="#2B5931" stroke-miterlimit="10"/>
<path d="M415.942 240.666C417.206 240.666 418.231 239.61 418.231 238.308C418.231 237.006 417.206 235.95 415.942 235.95C414.678 235.95 413.653 237.006 413.653 238.308C413.653 239.61 414.678 240.666 415.942 240.666Z" fill="white" stroke="#2B5931" stroke-miterlimit="10"/>
<path d="M415.942 265.983C417.206 265.983 418.231 264.927 418.231 263.624C418.231 262.322 417.206 261.266 415.942 261.266C414.678 261.266 413.653 262.322 413.653 263.624C413.653 264.927 414.678 265.983 415.942 265.983Z" fill="white" stroke="#2B5931" stroke-miterlimit="10"/>
<path d="M425.999 232.067C427.263 232.067 428.288 231.011 428.288 229.709C428.288 228.406 427.263 227.351 425.999 227.351C424.735 227.351 423.71 228.406 423.71 229.709C423.71 231.011 424.735 232.067 425.999 232.067Z" fill="white" stroke="#2B5931" stroke-miterlimit="10"/>
<path d="M437.86 199.197C439.124 199.197 440.149 198.141 440.149 196.839C440.149 195.536 439.124 194.48 437.86 194.48C436.596 194.48 435.571 195.536 435.571 196.839C435.571 198.141 436.596 199.197 437.86 199.197Z" fill="white" stroke="#2B5931" stroke-miterlimit="10"/>
<path d="M461.72 284.989C462.984 284.989 464.008 283.933 464.008 282.631C464.008 281.328 462.984 280.272 461.72 280.272C460.455 280.272 459.431 281.328 459.431 282.631C459.431 283.933 460.455 284.989 461.72 284.989Z" fill="white" stroke="#2B5931" stroke-miterlimit="10"/>
<path d="M455.824 297.201C457.088 297.201 458.113 296.146 458.113 294.843C458.113 293.541 457.088 292.485 455.824 292.485C454.56 292.485 453.535 293.541 453.535 294.843C453.535 296.146 454.56 297.201 455.824 297.201Z" fill="white" stroke="#2B5931" stroke-miterlimit="10"/>
<path d="M479.06 217.226C480.324 217.226 481.349 216.17 481.349 214.868C481.349 213.566 480.324 212.51 479.06 212.51C477.796 212.51 476.771 213.566 476.771 214.868C476.771 216.17 477.796 217.226 479.06 217.226Z" fill="white" stroke="#2B5931" stroke-miterlimit="10"/>
<path d="M498.411 222.844C499.676 222.844 500.7 221.789 500.7 220.486C500.7 219.184 499.676 218.128 498.411 218.128C497.147 218.128 496.123 219.184 496.123 220.486C496.123 221.789 497.147 222.844 498.411 222.844Z" fill="white" stroke="#2B5931" stroke-miterlimit="10"/>
<path d="M524.837 299.767C526.102 299.767 527.126 298.711 527.126 297.409C527.126 296.106 526.102 295.05 524.837 295.05C523.573 295.05 522.549 296.106 522.549 297.409C522.549 298.711 523.573 299.767 524.837 299.767Z" fill="white" stroke="#2B5931" stroke-miterlimit="10"/>
<path d="M532.12 295.047C533.384 295.047 534.409 293.991 534.409 292.688C534.409 291.386 533.384 290.33 532.12 290.33C530.856 290.33 529.831 291.386 529.831 292.688C529.831 293.991 530.856 295.047 532.12 295.047Z" fill="white" stroke="#2B5931" stroke-miterlimit="10"/>
<path d="M556.951 194.27C558.215 194.27 559.24 193.214 559.24 191.912C559.24 190.61 558.215 189.554 556.951 189.554C555.687 189.554 554.662 190.61 554.662 191.912C554.662 193.214 555.687 194.27 556.951 194.27Z" fill="white" stroke="#2B5931" stroke-miterlimit="10"/>
<path d="M544.883 284.989C546.147 284.989 547.172 283.933 547.172 282.631C547.172 281.328 546.147 280.272 544.883 280.272C543.619 280.272 542.594 281.328 542.594 282.631C542.594 283.933 543.619 284.989 544.883 284.989Z" fill="white" stroke="#2B5931" stroke-miterlimit="10"/>
<path d="M570.962 271.324C572.226 271.324 573.251 270.269 573.251 268.966C573.251 267.664 572.226 266.608 570.962 266.608C569.698 266.608 568.673 267.664 568.673 268.966C568.673 270.269 569.698 271.324 570.962 271.324Z" fill="white" stroke="#2B5931" stroke-miterlimit="10"/>
<path d="M402.902 297.201C404.166 297.201 405.191 296.146 405.191 294.843C405.191 293.541 404.166 292.485 402.902 292.485C401.638 292.485 400.613 293.541 400.613 294.843C400.613 296.146 401.638 297.201 402.902 297.201Z" fill="white" stroke="#2B5931" stroke-miterlimit="10"/>
<path d="M276.042 182.895C277.306 182.895 278.331 181.839 278.331 180.537C278.331 179.235 277.306 178.179 276.042 178.179C274.778 178.179 273.753 179.235 273.753 180.537C273.753 181.839 274.778 182.895 276.042 182.895Z" fill="white" stroke="#2B5931" stroke-miterlimit="10"/>
<path d="M74.5507 38.8308C75.8148 38.8308 76.8396 37.7749 76.8396 36.4725C76.8396 35.1701 75.8148 34.1143 74.5507 34.1143C73.2866 34.1143 72.2618 35.1701 72.2618 36.4725C72.2618 37.7749 73.2866 38.8308 74.5507 38.8308Z" fill="white" stroke="#2B5931" stroke-miterlimit="10"/>
<path d="M118.872 18.0236C120.136 18.0236 121.161 16.9678 121.161 15.6654C121.161 14.363 120.136 13.3071 118.872 13.3071C117.608 13.3071 116.583 14.363 116.583 15.6654C116.583 16.9678 117.608 18.0236 118.872 18.0236Z" fill="white" stroke="#2B5931" stroke-miterlimit="10"/>
<path d="M141.553 52.3596C142.817 52.3596 143.842 51.3037 143.842 50.0013C143.842 48.6989 142.817 47.6431 141.553 47.6431C140.289 47.6431 139.264 48.6989 139.264 50.0013C139.264 51.3037 140.289 52.3596 141.553 52.3596Z" fill="white" stroke="#2B5931" stroke-miterlimit="10"/>
<path d="M129.831 61.5817C131.095 61.5817 132.12 60.5259 132.12 59.2235C132.12 57.9211 131.095 56.8652 129.831 56.8652C128.567 56.8652 127.542 57.9211 127.542 59.2235C127.542 60.5259 128.567 61.5817 129.831 61.5817Z" fill="white" stroke="#2B5931" stroke-miterlimit="10"/>
<path d="M167.355 72.6081C168.619 72.6081 169.643 71.5523 169.643 70.2499C169.643 68.9474 168.619 67.8916 167.355 67.8916C166.09 67.8916 165.066 68.9474 165.066 70.2499C165.066 71.5523 166.09 72.6081 167.355 72.6081Z" fill="white" stroke="#2B5931" stroke-miterlimit="10"/>
<path d="M183.308 51.9411C184.572 51.9411 185.597 50.8853 185.597 49.5829C185.597 48.2804 184.572 47.2246 183.308 47.2246C182.043 47.2246 181.019 48.2804 181.019 49.5829C181.019 50.8853 182.043 51.9411 183.308 51.9411Z" fill="white" stroke="#2B5931" stroke-miterlimit="10"/>
<path d="M205.988 18.0236C207.252 18.0236 208.277 16.9678 208.277 15.6654C208.277 14.363 207.252 13.3071 205.988 13.3071C204.724 13.3071 203.699 14.363 203.699 15.6654C203.699 16.9678 204.724 18.0236 205.988 18.0236Z" fill="white" stroke="#2B5931" stroke-miterlimit="10"/>
<path d="M217.225 69.489C218.489 69.489 219.514 68.4331 219.514 67.1307C219.514 65.8283 218.489 64.7725 217.225 64.7725C215.961 64.7725 214.936 65.8283 214.936 67.1307C214.936 68.4331 215.961 69.489 217.225 69.489Z" fill="white" stroke="#2B5931" stroke-miterlimit="10"/>
<path d="M228.669 37.7883C229.933 37.7883 230.958 36.7325 230.958 35.43C230.958 34.1276 229.933 33.0718 228.669 33.0718C227.405 33.0718 226.38 34.1276 226.38 35.43C226.38 36.7325 227.405 37.7883 228.669 37.7883Z" fill="white" stroke="#2B5931" stroke-miterlimit="10"/>
<path d="M239.559 60.9616C240.823 60.9616 241.848 59.9058 241.848 58.6034C241.848 57.3009 240.823 56.2451 239.559 56.2451C238.295 56.2451 237.27 57.3009 237.27 58.6034C237.27 59.9058 238.295 60.9616 239.559 60.9616Z" fill="white" stroke="#2B5931" stroke-miterlimit="10"/>
<path d="M289.29 23.7853C290.554 23.7853 291.579 22.7295 291.579 21.4271C291.579 20.1247 290.554 19.0688 289.29 19.0688C288.026 19.0688 287.001 20.1247 287.001 21.4271C287.001 22.7295 288.026 23.7853 289.29 23.7853Z" fill="white" stroke="#2B5931" stroke-miterlimit="10"/>
<path d="M308.017 48.1257C309.281 48.1257 310.306 47.0699 310.306 45.7674C310.306 44.465 309.281 43.4092 308.017 43.4092C306.753 43.4092 305.728 44.465 305.728 45.7674C305.728 47.0699 306.753 48.1257 308.017 48.1257Z" fill="white" stroke="#2B5931" stroke-miterlimit="10"/>
<path d="M333.958 60.9616C335.222 60.9616 336.247 59.9058 336.247 58.6034C336.247 57.3009 335.222 56.2451 333.958 56.2451C332.694 56.2451 331.669 57.3009 331.669 58.6034C331.669 59.9058 332.694 60.9616 333.958 60.9616Z" fill="white" stroke="#2B5931" stroke-miterlimit="10"/>
<path d="M352.824 32.5925C354.088 32.5925 355.113 31.5367 355.113 30.2342C355.113 28.9318 354.088 27.876 352.824 27.876C351.56 27.876 350.535 28.9318 350.535 30.2342C350.535 31.5367 351.56 32.5925 352.824 32.5925Z" fill="white" stroke="#2B5931" stroke-miterlimit="10"/>
<path d="M376.476 41.1916C377.74 41.1916 378.765 40.1358 378.765 38.8333C378.765 37.5309 377.74 36.4751 376.476 36.4751C375.212 36.4751 374.187 37.5309 374.187 38.8333C374.187 40.1358 375.212 41.1916 376.476 41.1916Z" fill="white" stroke="#2B5931" stroke-miterlimit="10"/>
<path d="M376.476 83.2253C377.74 83.2253 378.765 82.1695 378.765 80.867C378.765 79.5646 377.74 78.5088 376.476 78.5088C375.212 78.5088 374.187 79.5646 374.187 80.867C374.187 82.1695 375.212 83.2253 376.476 83.2253Z" fill="white" stroke="#2B5931" stroke-miterlimit="10"/>
<path d="M398.394 24.3308C399.658 24.3308 400.682 23.2749 400.682 21.9725C400.682 20.6701 399.658 19.6143 398.394 19.6143C397.129 19.6143 396.105 20.6701 396.105 21.9725C396.105 23.2749 397.129 24.3308 398.394 24.3308Z" fill="white" stroke="#2B5931" stroke-miterlimit="10"/>
<path d="M409.561 31.2043C410.825 31.2043 411.85 30.1485 411.85 28.846C411.85 27.5436 410.825 26.4878 409.561 26.4878C408.296 26.4878 407.272 27.5436 407.272 28.846C407.272 30.1485 408.296 31.2043 409.561 31.2043Z" fill="white" stroke="#2B5931" stroke-miterlimit="10"/>
<path d="M430.993 17.7507C432.257 17.7507 433.282 16.6949 433.282 15.3924C433.282 14.09 432.257 13.0342 430.993 13.0342C429.729 13.0342 428.704 14.09 428.704 15.3924C428.704 16.6949 429.729 17.7507 430.993 17.7507Z" fill="white" stroke="#2B5931" stroke-miterlimit="10"/>
<path d="M463.038 52.424C464.302 52.424 465.327 51.3682 465.327 50.0658C465.327 48.7633 464.302 47.7075 463.038 47.7075C461.774 47.7075 460.749 48.7633 460.749 50.0658C460.749 51.3682 461.774 52.424 463.038 52.424Z" fill="white" stroke="#2B5931" stroke-miterlimit="10"/>
<path d="M485.441 20.1037C486.705 20.1037 487.73 19.0479 487.73 17.7455C487.73 16.443 486.705 15.3872 485.441 15.3872C484.177 15.3872 483.152 16.443 483.152 17.7455C483.152 19.0479 484.177 20.1037 485.441 20.1037Z" fill="white" stroke="#2B5931" stroke-miterlimit="10"/>
<path d="M485.441 63.7351C486.705 63.7351 487.73 62.6792 487.73 61.3768C487.73 60.0744 486.705 59.0186 485.441 59.0186C484.177 59.0186 483.152 60.0744 483.152 61.3768C483.152 62.6792 484.177 63.7351 485.441 63.7351Z" fill="white" stroke="#2B5931" stroke-miterlimit="10"/>
<path d="M508.538 81.486C509.802 81.486 510.827 80.4302 510.827 79.1278C510.827 77.8254 509.802 76.7695 508.538 76.7695C507.274 76.7695 506.249 77.8254 506.249 79.1278C506.249 80.4302 507.274 81.486 508.538 81.486Z" fill="white" stroke="#2B5931" stroke-miterlimit="10"/>
<path d="M530.664 50.4865C531.928 50.4865 532.953 49.4307 532.953 48.1283C532.953 46.8258 531.928 45.77 530.664 45.77C529.4 45.77 528.375 46.8258 528.375 48.1283C528.375 49.4307 529.4 50.4865 530.664 50.4865Z" fill="white" stroke="#2B5931" stroke-miterlimit="10"/>
<path d="M530.664 37.1657C531.928 37.1657 532.953 36.1099 532.953 34.8075C532.953 33.505 531.928 32.4492 530.664 32.4492C529.4 32.4492 528.375 33.505 528.375 34.8075C528.375 36.1099 529.4 37.1657 530.664 37.1657Z" fill="white" stroke="#2B5931" stroke-miterlimit="10"/>
<path d="M558.824 21.1442C560.088 21.1442 561.113 20.0884 561.113 18.786C561.113 17.4836 560.088 16.4277 558.824 16.4277C557.56 16.4277 556.535 17.4836 556.535 18.786C556.535 20.0884 557.56 21.1442 558.824 21.1442Z" fill="white" stroke="#2B5931" stroke-miterlimit="10"/>
<path d="M578.523 52.424C579.787 52.424 580.812 51.3682 580.812 50.0658C580.812 48.7633 579.787 47.7075 578.523 47.7075C577.259 47.7075 576.234 48.7633 576.234 50.0658C576.234 51.3682 577.259 52.424 578.523 52.424Z" fill="white" stroke="#2B5931" stroke-miterlimit="10"/>
<path d="M616.185 43.1311C617.45 43.1311 618.474 42.0752 618.474 40.7728C618.474 39.4704 617.45 38.4146 616.185 38.4146C614.921 38.4146 613.897 39.4704 613.897 40.7728C613.897 42.0752 614.921 43.1311 616.185 43.1311Z" fill="white" stroke="#2B5931" stroke-miterlimit="10"/>
<path d="M74.5506 74.9665C75.8147 74.9665 76.8395 73.9107 76.8395 72.6082C76.8395 71.3058 75.8147 70.25 74.5506 70.25C73.2865 70.25 72.2617 71.3058 72.2617 72.6082C72.2617 73.9107 73.2865 74.9665 74.5506 74.9665Z" fill="white" stroke="#2B5931" stroke-miterlimit="10"/>
<path d="M7.27119 215.557C8.53531 215.557 9.56008 214.501 9.56008 213.199C9.56008 211.897 8.53531 210.841 7.27119 210.841C6.00707 210.841 4.9823 211.897 4.9823 213.199C4.9823 214.501 6.00707 215.557 7.27119 215.557Z" fill="#2B5931"/>
<path d="M19.8254 290.119C21.0895 290.119 22.1143 289.064 22.1143 287.761C22.1143 286.459 21.0895 285.403 19.8254 285.403C18.5613 285.403 17.5365 286.459 17.5365 287.761C17.5365 289.064 18.5613 290.119 19.8254 290.119Z" fill="#2B5931"/>
<path d="M53.0488 232.551C54.313 232.551 55.3377 231.496 55.3377 230.193C55.3377 228.891 54.313 227.835 53.0488 227.835C51.7847 227.835 50.7599 228.891 50.7599 230.193C50.7599 231.496 51.7847 232.551 53.0488 232.551Z" fill="#2B5931"/>
<path d="M41.9511 290.119C43.2152 290.119 44.24 289.064 44.24 287.761C44.24 286.459 43.2152 285.403 41.9511 285.403C40.687 285.403 39.6622 286.459 39.6622 287.761C39.6622 289.064 40.687 290.119 41.9511 290.119Z" fill="#2B5931"/>
<path d="M82.0415 298.306C83.3056 298.306 84.3303 297.25 84.3303 295.948C84.3303 294.645 83.3056 293.589 82.0415 293.589C80.7773 293.589 79.7526 294.645 79.7526 295.948C79.7526 297.25 80.7773 298.306 82.0415 298.306Z" fill="#2B5931"/>
<path d="M73.3715 282.773C74.6356 282.773 75.6604 281.717 75.6604 280.414C75.6604 279.112 74.6356 278.056 73.3715 278.056C72.1074 278.056 71.0826 279.112 71.0826 280.414C71.0826 281.717 72.1074 282.773 73.3715 282.773Z" fill="#2B5931"/>
<path d="M108.398 247.748C109.662 247.748 110.687 246.692 110.687 245.39C110.687 244.088 109.662 243.032 108.398 243.032C107.134 243.032 106.109 244.088 106.109 245.39C106.109 246.692 107.134 247.748 108.398 247.748Z" fill="#2B5931"/>
<path d="M97.9249 270.632C99.1891 270.632 100.214 269.576 100.214 268.274C100.214 266.971 99.1891 265.916 97.9249 265.916C96.6608 265.916 95.636 266.971 95.636 268.274C95.636 269.576 96.6608 270.632 97.9249 270.632Z" fill="#2B5931"/>
<path d="M119.149 205.438C120.413 205.438 121.438 204.382 121.438 203.08C121.438 201.777 120.413 200.722 119.149 200.722C117.885 200.722 116.86 201.777 116.86 203.08C116.86 204.382 117.885 205.438 119.149 205.438Z" fill="#2B5931"/>
<path d="M119.149 223.052C120.413 223.052 121.438 221.997 121.438 220.694C121.438 219.392 120.413 218.336 119.149 218.336C117.885 218.336 116.86 219.392 116.86 220.694C116.86 221.997 117.885 223.052 119.149 223.052Z" fill="#2B5931"/>
<path d="M140.72 215.283C141.985 215.283 143.009 214.228 143.009 212.925C143.009 211.623 141.985 210.567 140.72 210.567C139.456 210.567 138.432 211.623 138.432 212.925C138.432 214.228 139.456 215.283 140.72 215.283Z" fill="#2B5931"/>
<path d="M158.962 177.967C160.226 177.967 161.251 176.912 161.251 175.609C161.251 174.307 160.226 173.251 158.962 173.251C157.698 173.251 156.673 174.307 156.673 175.609C156.673 176.912 157.698 177.967 158.962 177.967Z" fill="#2B5931"/>
<path d="M170.753 257.589C172.017 257.589 173.042 256.533 173.042 255.231C173.042 253.928 172.017 252.873 170.753 252.873C169.489 252.873 168.464 253.928 168.464 255.231C168.464 256.533 169.489 257.589 170.753 257.589Z" fill="#2B5931"/>
<path d="M193.642 215.283C194.906 215.283 195.931 214.228 195.931 212.925C195.931 211.623 194.906 210.567 193.642 210.567C192.378 210.567 191.353 211.623 191.353 212.925C191.353 214.228 192.378 215.283 193.642 215.283Z" fill="#2B5931"/>
<path d="M246.287 281.179C247.551 281.179 248.575 280.124 248.575 278.821C248.575 277.519 247.551 276.463 246.287 276.463C245.022 276.463 243.998 277.519 243.998 278.821C243.998 280.124 245.022 281.179 246.287 281.179Z" fill="#2B5931"/>
<path d="M244.83 297.201C246.094 297.201 247.119 296.146 247.119 294.843C247.119 293.541 246.094 292.485 244.83 292.485C243.566 292.485 242.541 293.541 242.541 294.843C242.541 296.146 243.566 297.201 244.83 297.201Z" fill="#2B5931"/>
<path d="M264.875 242.956C266.139 242.956 267.164 241.9 267.164 240.598C267.164 239.295 266.139 238.239 264.875 238.239C263.611 238.239 262.586 239.295 262.586 240.598C262.586 241.9 263.611 242.956 264.875 242.956Z" fill="#2B5931"/>
<path d="M303.717 246.359C304.981 246.359 306.005 245.303 306.005 244.001C306.005 242.698 304.981 241.643 303.717 241.643C302.452 241.643 301.428 242.698 301.428 244.001C301.428 245.303 302.452 246.359 303.717 246.359Z" fill="#2B5931"/>
<path d="M310.306 294.425C311.57 294.425 312.595 293.369 312.595 292.067C312.595 290.764 311.57 289.708 310.306 289.708C309.042 289.708 308.017 290.764 308.017 292.067C308.017 293.369 309.042 294.425 310.306 294.425Z" fill="#2B5931"/>
<path d="M336.871 250.034C338.135 250.034 339.16 248.978 339.16 247.676C339.16 246.373 338.135 245.317 336.871 245.317C335.607 245.317 334.582 246.373 334.582 247.676C334.582 248.978 335.607 250.034 336.871 250.034Z" fill="#2B5931"/>
<path d="M358.581 215.283C359.845 215.283 360.87 214.228 360.87 212.925C360.87 211.623 359.845 210.567 358.581 210.567C357.317 210.567 356.292 211.623 356.292 212.925C356.292 214.228 357.317 215.283 358.581 215.283Z" fill="#2B5931"/>
<path d="M395.203 278.197C396.467 278.197 397.492 277.141 397.492 275.839C397.492 274.536 396.467 273.48 395.203 273.48C393.939 273.48 392.914 274.536 392.914 275.839C392.914 277.141 393.939 278.197 395.203 278.197Z" fill="#2B5931"/>
<path d="M378.141 266.819C379.405 266.819 380.429 265.763 380.429 264.461C380.429 263.158 379.405 262.103 378.141 262.103C376.876 262.103 375.852 263.158 375.852 264.461C375.852 265.763 376.876 266.819 378.141 266.819Z" fill="#2B5931"/>
<path d="M394.024 225.825C395.288 225.825 396.313 224.77 396.313 223.467C396.313 222.165 395.288 221.109 394.024 221.109C392.76 221.109 391.735 222.165 391.735 223.467C391.735 224.77 392.76 225.825 394.024 225.825Z" fill="#2B5931"/>
<path d="M425.999 184.56C427.263 184.56 428.288 183.504 428.288 182.202C428.288 180.899 427.263 179.843 425.999 179.843C424.735 179.843 423.71 180.899 423.71 182.202C423.71 183.504 424.735 184.56 425.999 184.56Z" fill="#2B5931"/>
<path d="M435.085 272.437C436.35 272.437 437.374 271.381 437.374 270.078C437.374 268.776 436.35 267.72 435.085 267.72C433.821 267.72 432.797 268.776 432.797 270.078C432.797 271.381 433.821 272.437 435.085 272.437Z" fill="#2B5931"/>
<path d="M449.79 229.708C451.054 229.708 452.079 228.652 452.079 227.35C452.079 226.048 451.054 224.992 449.79 224.992C448.526 224.992 447.501 226.048 447.501 227.35C447.501 228.652 448.526 229.708 449.79 229.708Z" fill="#2B5931"/>
<path d="M479.06 240.666C480.324 240.666 481.348 239.61 481.348 238.308C481.348 237.006 480.324 235.95 479.06 235.95C477.795 235.95 476.771 237.006 476.771 238.308C476.771 239.61 477.795 240.666 479.06 240.666Z" fill="#2B5931"/>
<path d="M500.631 304.208C501.895 304.208 502.92 303.152 502.92 301.849C502.92 300.547 501.895 299.491 500.631 299.491C499.367 299.491 498.342 300.547 498.342 301.849C498.342 303.152 499.367 304.208 500.631 304.208Z" fill="#2B5931"/>
<path d="M510.203 205.083C511.467 205.083 512.492 204.027 512.492 202.725C512.492 201.423 511.467 200.367 510.203 200.367C508.939 200.367 507.914 201.423 507.914 202.725C507.914 204.027 508.939 205.083 510.203 205.083Z" fill="#2B5931"/>
<path d="M524.838 191.702C526.102 191.702 527.127 190.646 527.127 189.344C527.127 188.041 526.102 186.985 524.838 186.985C523.574 186.985 522.549 188.041 522.549 189.344C522.549 190.646 523.574 191.702 524.838 191.702Z" fill="#2B5931"/>
<path d="M537.253 250.934C538.517 250.934 539.542 249.878 539.542 248.576C539.542 247.273 538.517 246.217 537.253 246.217C535.989 246.217 534.964 247.273 534.964 248.576C534.964 249.878 535.989 250.934 537.253 250.934Z" fill="#2B5931"/>
<path d="M572.835 229.708C574.099 229.708 575.123 228.652 575.123 227.35C575.123 226.048 574.099 224.992 572.835 224.992C571.57 224.992 570.546 226.048 570.546 227.35C570.546 228.652 571.57 229.708 572.835 229.708Z" fill="#2B5931"/>
<path d="M556.951 290.333C558.215 290.333 559.24 289.277 559.24 287.974C559.24 286.672 558.215 285.616 556.951 285.616C555.687 285.616 554.662 286.672 554.662 287.974C554.662 289.277 555.687 290.333 556.951 290.333Z" fill="#2B5931"/>
<path d="M590.661 208.696C591.925 208.696 592.95 207.64 592.95 206.338C592.95 205.035 591.925 203.979 590.661 203.979C589.397 203.979 588.372 205.035 588.372 206.338C588.372 207.64 589.397 208.696 590.661 208.696Z" fill="#2B5931"/>
<path d="M590.661 233.94C591.925 233.94 592.949 232.884 592.949 231.581C592.949 230.279 591.925 229.223 590.661 229.223C589.396 229.223 588.372 230.279 588.372 231.581C588.372 232.884 589.396 233.94 590.661 233.94Z" fill="#2B5931"/>
<path d="M603.076 193.99C604.34 193.99 605.365 192.935 605.365 191.632C605.365 190.33 604.34 189.274 603.076 189.274C601.812 189.274 600.787 190.33 600.787 191.632C600.787 192.935 601.812 193.99 603.076 193.99Z" fill="#2B5931"/>
<path d="M615.145 286.312C616.409 286.312 617.434 285.256 617.434 283.954C617.434 282.652 616.409 281.596 615.145 281.596C613.881 281.596 612.856 282.652 612.856 283.954C612.856 285.256 613.881 286.312 615.145 286.312Z" fill="#2B5931"/>
<path d="M547.38 308.293C548.644 308.293 549.669 307.237 549.669 305.935C549.669 304.632 548.644 303.577 547.38 303.577C546.116 303.577 545.091 304.632 545.091 305.935C545.091 307.237 546.116 308.293 547.38 308.293Z" fill="#2B5931"/>
<path d="M444.865 308.225C446.129 308.225 447.154 307.169 447.154 305.867C447.154 304.564 446.129 303.508 444.865 303.508C443.601 303.508 442.576 304.564 442.576 305.867C442.576 307.169 443.601 308.225 444.865 308.225Z" fill="#2B5931"/>
<path d="M286.862 292.895C288.127 292.895 289.151 291.839 289.151 290.537C289.151 289.235 288.127 288.179 286.862 288.179C285.598 288.179 284.573 289.235 284.573 290.537C284.573 291.839 285.598 292.895 286.862 292.895Z" fill="#2B5931"/>
<path d="M303.717 184.56C304.981 184.56 306.005 183.504 306.005 182.202C306.005 180.899 304.981 179.843 303.717 179.843C302.452 179.843 301.428 180.899 301.428 182.202C301.428 183.504 302.452 184.56 303.717 184.56Z" fill="#2B5931"/>
<path d="M243.582 223.886C244.846 223.886 245.871 222.831 245.871 221.528C245.871 220.226 244.846 219.17 243.582 219.17C242.317 219.17 241.293 220.226 241.293 221.528C241.293 222.831 242.317 223.886 243.582 223.886Z" fill="#2B5931"/>
<path d="M41.9514 210.084C43.2155 210.084 44.2403 209.028 44.2403 207.726C44.2403 206.423 43.2155 205.368 41.9514 205.368C40.6872 205.368 39.6625 206.423 39.6625 207.726C39.6625 209.028 40.6872 210.084 41.9514 210.084Z" fill="#2B5931"/>
<path d="M85.6482 33.0046C86.9123 33.0046 87.9371 31.9488 87.9371 30.6463C87.9371 29.3439 86.9123 28.2881 85.6482 28.2881C84.3841 28.2881 83.3593 29.3439 83.3593 30.6463C83.3593 31.9488 84.3841 33.0046 85.6482 33.0046Z" fill="#2B5931"/>
<path d="M107.636 63.5876C108.9 63.5876 109.924 62.5318 109.924 61.2293C109.924 59.9269 108.9 58.8711 107.636 58.8711C106.371 58.8711 105.347 59.9269 105.347 61.2293C105.347 62.5318 106.371 63.5876 107.636 63.5876Z" fill="#2B5931"/>
<path d="M152.096 16.9831C153.36 16.9831 154.384 15.9273 154.384 14.6249C154.384 13.3224 153.36 12.2666 152.096 12.2666C150.831 12.2666 149.807 13.3224 149.807 14.6249C149.807 15.9273 150.831 16.9831 152.096 16.9831Z" fill="#2B5931"/>
<path d="M118.872 44.4528C120.136 44.4528 121.161 43.397 121.161 42.0946C121.161 40.7922 120.136 39.7363 118.872 39.7363C117.608 39.7363 116.583 40.7922 116.583 42.0946C116.583 43.397 117.608 44.4528 118.872 44.4528Z" fill="#2B5931"/>
<path d="M194.752 45.1447C196.016 45.1447 197.041 44.0889 197.041 42.7865C197.041 41.484 196.016 40.4282 194.752 40.4282C193.488 40.4282 192.463 41.484 192.463 42.7865C192.463 44.0889 193.488 45.1447 194.752 45.1447Z" fill="#2B5931"/>
<path d="M177.689 74.0617C178.954 74.0617 179.978 73.0059 179.978 71.7035C179.978 70.401 178.954 69.3452 177.689 69.3452C176.425 69.3452 175.401 70.401 175.401 71.7035C175.401 73.0059 176.425 74.0617 177.689 74.0617Z" fill="#2B5931"/>
<path d="M201.272 83.0842C202.536 83.0842 203.561 82.0284 203.561 80.7259C203.561 79.4235 202.536 78.3677 201.272 78.3677C200.008 78.3677 198.983 79.4235 198.983 80.7259C198.983 82.0284 200.008 83.0842 201.272 83.0842Z" fill="#2B5931"/>
<path d="M228.669 80.3073C229.933 80.3073 230.958 79.2515 230.958 77.9491C230.958 76.6466 229.933 75.5908 228.669 75.5908C227.405 75.5908 226.38 76.6466 226.38 77.9491C226.38 79.2515 227.405 80.3073 228.669 80.3073Z" fill="#2B5931"/>
<path d="M279.302 19.6828C280.566 19.6828 281.591 18.627 281.591 17.3246C281.591 16.0221 280.566 14.9663 279.302 14.9663C278.038 14.9663 277.013 16.0221 277.013 17.3246C277.013 18.627 278.038 19.6828 279.302 19.6828Z" fill="#2B5931"/>
<path d="M323.485 22.0441C324.749 22.0441 325.774 20.9883 325.774 19.6859C325.774 18.3835 324.749 17.3276 323.485 17.3276C322.221 17.3276 321.196 18.3835 321.196 19.6859C321.196 20.9883 322.221 22.0441 323.485 22.0441Z" fill="#2B5931"/>
<path d="M352.824 77.3957C354.088 77.3957 355.113 76.3399 355.113 75.0374C355.113 73.735 354.088 72.6792 352.824 72.6792C351.56 72.6792 350.535 73.735 350.535 75.0374C350.535 76.3399 351.56 77.3957 352.824 77.3957Z" fill="#2B5931"/>
<path d="M387.227 28.9157C388.491 28.9157 389.515 27.8599 389.515 26.5575C389.515 25.255 388.491 24.1992 387.227 24.1992C385.962 24.1992 384.938 25.255 384.938 26.5575C384.938 27.8599 385.962 28.9157 387.227 28.9157Z" fill="#2B5931"/>
<path d="M398.394 46.4606C399.658 46.4606 400.682 45.4048 400.682 44.1024C400.682 42.8 399.658 41.7441 398.394 41.7441C397.129 41.7441 396.105 42.8 396.105 44.1024C396.105 45.4048 397.129 46.4606 398.394 46.4606Z" fill="#2B5931"/>
<path d="M421.491 54.9909C422.755 54.9909 423.78 53.9351 423.78 52.6327C423.78 51.3302 422.755 50.2744 421.491 50.2744C420.227 50.2744 419.202 51.3302 419.202 52.6327C419.202 53.9351 420.227 54.9909 421.491 54.9909Z" fill="#2B5931"/>
<path d="M447.223 71.7771C448.487 71.7771 449.512 70.7212 449.512 69.4188C449.512 68.1164 448.487 67.0605 447.223 67.0605C445.959 67.0605 444.934 68.1164 444.934 69.4188C444.934 70.7212 445.959 71.7771 447.223 71.7771Z" fill="#2B5931"/>
<path d="M474.482 46.4606C475.746 46.4606 476.771 45.4048 476.771 44.1024C476.771 42.8 475.746 41.7441 474.482 41.7441C473.218 41.7441 472.193 42.8 472.193 44.1024C472.193 45.4048 473.218 46.4606 474.482 46.4606Z" fill="#2B5931"/>
<path d="M497.301 70.1813C498.566 70.1813 499.59 69.1255 499.59 67.8231C499.59 66.5207 498.566 65.4648 497.301 65.4648C496.037 65.4648 495.013 66.5207 495.013 67.8231C495.013 69.1255 496.037 70.1813 497.301 70.1813Z" fill="#2B5931"/>
<path d="M508.538 37.3732C509.802 37.3732 510.827 36.3174 510.827 35.015C510.827 33.7126 509.802 32.6567 508.538 32.6567C507.274 32.6567 506.249 33.7126 506.249 35.015C506.249 36.3174 507.274 37.3732 508.538 37.3732Z" fill="#2B5931"/>
<path d="M518.734 60.9616C519.998 60.9616 521.023 59.9058 521.023 58.6034C521.023 57.3009 519.998 56.2451 518.734 56.2451C517.47 56.2451 516.445 57.3009 516.445 58.6034C516.445 59.9058 517.47 60.9616 518.734 60.9616Z" fill="#2B5931"/>
<path d="M558.824 56.9328C560.088 56.9328 561.113 55.877 561.113 54.5746C561.113 53.2721 560.088 52.2163 558.824 52.2163C557.56 52.2163 556.535 53.2721 556.535 54.5746C556.535 55.877 557.56 56.9328 558.824 56.9328Z" fill="#2B5931"/>
<path d="M607.307 63.5876C608.571 63.5876 609.596 62.5318 609.596 61.2293C609.596 59.9269 608.571 58.8711 607.307 58.8711C606.043 58.8711 605.018 59.9269 605.018 61.2293C605.018 62.5318 606.043 63.5876 607.307 63.5876Z" fill="#2B5931"/>
<path d="M544.952 72.5422C546.216 72.5422 547.241 71.4864 547.241 70.1839C547.241 68.8815 546.216 67.8257 544.952 67.8257C543.688 67.8257 542.663 68.8815 542.663 70.1839C542.663 71.4864 543.688 72.5422 544.952 72.5422Z" fill="#2B5931"/>
<path d="M365.656 34.2541C366.92 34.2541 367.945 33.1983 367.945 31.8958C367.945 30.5934 366.92 29.5376 365.656 29.5376C364.392 29.5376 363.367 30.5934 363.367 31.8958C363.367 33.1983 364.392 34.2541 365.656 34.2541Z" fill="#2B5931"/>
<path d="M295.81 71.2888C297.074 71.2888 298.099 70.2329 298.099 68.9305C298.099 67.6281 297.074 66.5723 295.81 66.5723C294.546 66.5723 293.521 67.6281 293.521 68.9305C293.521 70.2329 294.546 71.2888 295.81 71.2888Z" fill="#2B5931"/>
<path d="M590.661 56.2412V79.1301L601.966 90.5052V134.133" stroke="#145B2C" stroke-width="0.75" stroke-miterlimit="10"/>
<path d="M568.673 67.4736V88.7672" stroke="#145B2C" stroke-width="0.75" stroke-miterlimit="10"/>
<path d="M583.656 99.0332V121.575L576.303 134.129V184.693" stroke="#145B2C" stroke-width="0.75" stroke-miterlimit="10"/>
<path d="M590.661 145.232L596.348 156.33V173.254" stroke="#145B2C" stroke-width="0.75" stroke-miterlimit="10"/>
<path d="M618.821 189.276L608.694 175.612V145.232" stroke="#145B2C" stroke-width="0.75" stroke-miterlimit="10"/>
<path d="M618.89 75.5884L610.29 79.1258V111.656L620 116.025" stroke="#145B2C" stroke-width="0.75" stroke-miterlimit="10"/>
<path d="M552.512 91.7554L539.542 100.564V125.742L552.512 134.828" stroke="#145B2C" stroke-width="0.75" stroke-miterlimit="10"/>
<path d="M562.224 107.5V156.329L542.664 184.697" stroke="#145B2C" stroke-width="0.75" stroke-miterlimit="10"/>
<path d="M524.838 78.1533V88.7654L517.486 107.493V146.126" stroke="#145B2C" stroke-width="0.75" stroke-miterlimit="10"/>
<path d="M532.121 141.827V167.213" stroke="#145B2C" stroke-width="0.75" stroke-miterlimit="10"/>
<path d="M495.013 191.907L506.25 173.249V99.0332" stroke="#145B2C" stroke-width="0.75" stroke-miterlimit="10"/>
<path d="M483.152 81.4873V116.029L491.337 122.687V159.24" stroke="#145B2C" stroke-width="0.75" stroke-miterlimit="10"/>
<path d="M474.483 134.82L465.327 149.872V179.835V200.366" stroke="#145B2C" stroke-width="0.75" stroke-miterlimit="10"/>
<path d="M479.06 154.522V186.983" stroke="#145B2C" stroke-width="0.75" stroke-miterlimit="10"/>
<path d="M465.327 71.2954L455.825 87.2483V116.033L444.935 134.136V162.851" stroke="#145B2C" stroke-width="0.75" stroke-miterlimit="10"/>
<path d="M430.993 71.7817L413.653 88.775V124.773" stroke="#145B2C" stroke-width="0.75" stroke-miterlimit="10"/>
<path d="M432.797 95.1509V152.165" stroke="#145B2C" stroke-width="0.75" stroke-miterlimit="10"/>
<path d="M469.905 84.9561V116.029" stroke="#145B2C" stroke-width="0.75" stroke-miterlimit="10"/>
<path d="M391.736 68.166L400.683 74.9633L400.406 95.7714L391.736 100.488V127.261L400.683 134.128" stroke="#145B2C" stroke-width="0.75" stroke-miterlimit="10"/>
<path d="M413.653 146.136L402.902 159.245V191.914" stroke="#145B2C" stroke-width="0.75" stroke-miterlimit="10"/>
<path d="M362.188 98.2769V116.033H340.756" stroke="#145B2C" stroke-width="0.75" stroke-miterlimit="10"/>
<path d="M376.477 117.071V141.833L387.227 152.168V200.72" stroke="#145B2C" stroke-width="0.75" stroke-miterlimit="10"/>
<path d="M362.535 158.898V191.913" stroke="#145B2C" stroke-width="0.75" stroke-miterlimit="10"/>
<path d="M356.292 134.128L342.836 145.434V196.83" stroke="#145B2C" stroke-width="0.75" stroke-miterlimit="10"/>
<path d="M321.889 188.583L312.595 169.023V145.233L299.972 128.239" stroke="#145B2C" stroke-width="0.75" stroke-miterlimit="10"/>
<path d="M312.595 66.5737L321.89 80.3071V116.028" stroke="#145B2C" stroke-width="0.75" stroke-miterlimit="10"/>
<path d="M327.508 131.771V165.48" stroke="#145B2C" stroke-width="0.75" stroke-miterlimit="10"/>
<path d="M262.656 50.064L262.587 70.1785H278.331V104.373" stroke="#145B2C" stroke-width="0.75" stroke-miterlimit="10"/>
<path d="M250.171 84.9561L237.27 98.2732V113.255L247.119 128.237V175.61" stroke="#145B2C" stroke-width="0.75" stroke-miterlimit="10"/>
<path d="M256.76 113.256L264.875 107.5L281.452 134.134V158.41" stroke="#145B2C" stroke-width="0.75" stroke-miterlimit="10"/>
<path d="M298.099 84.9561V113.255" stroke="#145B2C" stroke-width="0.75" stroke-miterlimit="10"/>
<path d="M226.38 215.28V195.512L219.514 182.195V159.237" stroke="#145B2C" stroke-width="0.75" stroke-miterlimit="10"/>
<path d="M197.041 187.054V139.334" stroke="#145B2C" stroke-width="0.75" stroke-miterlimit="10"/>
<path d="M262.656 139.334V162.848" stroke="#145B2C" stroke-width="0.75" stroke-miterlimit="10"/>
<path d="M201.411 81.4873L206.335 95.1513V112.145L213.688 121.578V137.669" stroke="#145B2C" stroke-width="0.75" stroke-miterlimit="10"/>
<path d="M222.913 91.7554V113.257" stroke="#145B2C" stroke-width="0.75" stroke-miterlimit="10"/>
<path d="M228.461 137.669L237.27 148.628V195.516" stroke="#145B2C" stroke-width="0.75" stroke-miterlimit="10"/>
<path d="M170.754 200.715L180.187 188.576V165.479" stroke="#145B2C" stroke-width="0.75" stroke-miterlimit="10"/>
<path d="M177.898 72.6802V109.58" stroke="#145B2C" stroke-width="0.75" stroke-miterlimit="10"/>
<path d="M129.762 61.7202V86.6206H143.01V128.237" stroke="#145B2C" stroke-width="0.75" stroke-miterlimit="10"/>
<path d="M161.251 95.1509L156.673 109.578V141.83" stroke="#145B2C" stroke-width="0.75" stroke-miterlimit="10"/>
<path d="M169.644 123.654V139.329H185.597" stroke="#145B2C" stroke-width="0.75" stroke-miterlimit="10"/>
<path d="M47.5003 59.0166V111.661" stroke="#145B2C" stroke-width="0.75" stroke-miterlimit="10"/>
<path d="M10.8778 78.1533L24.6112 95.0079V111.654L9.2132 123.654L9.56 158.403" stroke="#145B2C" stroke-width="0.75" stroke-miterlimit="10"/>
<path d="M21.9755 202.101V182.888H34.391V156.323H44.2401V132.949" stroke="#145B2C" stroke-width="0.75" stroke-miterlimit="10"/>
<path d="M67.6149 193.989V154.523L76.8398 139.333L75.6607 109.577" stroke="#145B2C" stroke-width="0.75" stroke-miterlimit="10"/>
<path d="M100.214 175.605V132.949" stroke="#145B2C" stroke-width="0.75" stroke-miterlimit="10"/>
<path d="M87.0358 95.0159L97.9254 88.7734L113.254 111.662V137.672" stroke="#145B2C" stroke-width="0.75" stroke-miterlimit="10"/>
<path d="M129.762 111.657V162.845" stroke="#145B2C" stroke-width="0.75" stroke-miterlimit="10"/>
<path d="M9.56031 160.208C10.8244 160.208 11.8492 159.152 11.8492 157.85C11.8492 156.548 10.8244 155.492 9.56031 155.492C8.29619 155.492 7.27142 156.548 7.27142 157.85C7.27142 159.152 8.29619 160.208 9.56031 160.208Z" fill="#2B5931"/>
<path d="M44.2405 136.487C45.5047 136.487 46.5294 135.431 46.5294 134.129C46.5294 132.826 45.5047 131.771 44.2405 131.771C42.9764 131.771 41.9517 132.826 41.9517 134.129C41.9517 135.431 42.9764 136.487 44.2405 136.487Z" fill="#2B5931"/>
<path d="M21.9758 204.464C23.24 204.464 24.2647 203.408 24.2647 202.105C24.2647 200.803 23.24 199.747 21.9758 199.747C20.7117 199.747 19.687 200.803 19.687 202.105C19.687 203.408 20.7117 204.464 21.9758 204.464Z" fill="#2B5931"/>
<path d="M67.6149 196.349C68.879 196.349 69.9038 195.293 69.9038 193.991C69.9038 192.688 68.879 191.632 67.6149 191.632C66.3508 191.632 65.326 192.688 65.326 193.991C65.326 195.293 66.3508 196.349 67.6149 196.349Z" fill="#2B5931"/>
<path d="M87.0358 97.3718C88.2999 97.3718 89.3247 96.3159 89.3247 95.0135C89.3247 93.7111 88.2999 92.6553 87.0358 92.6553C85.7717 92.6553 84.7469 93.7111 84.7469 95.0135C84.7469 96.3159 85.7717 97.3718 87.0358 97.3718Z" fill="#2B5931"/>
<path d="M113.254 140.025C114.518 140.025 115.543 138.969 115.543 137.667C115.543 136.364 114.518 135.309 113.254 135.309C111.99 135.309 110.965 136.364 110.965 137.667C110.965 138.969 111.99 140.025 113.254 140.025Z" fill="#2B5931"/>
<path d="M129.762 114.016C131.026 114.016 132.051 112.96 132.051 111.658C132.051 110.356 131.026 109.3 129.762 109.3C128.498 109.3 127.473 110.356 127.473 111.658C127.473 112.96 128.498 114.016 129.762 114.016Z" fill="#2B5931"/>
<path d="M129.762 165.206C131.026 165.206 132.051 164.15 132.051 162.848C132.051 161.546 131.026 160.49 129.762 160.49C128.498 160.49 127.473 161.546 127.473 162.848C127.473 164.15 128.498 165.206 129.762 165.206Z" fill="#2B5931"/>
<path d="M161.251 97.5065C162.515 97.5065 163.54 96.4507 163.54 95.1483C163.54 93.8459 162.515 92.79 161.251 92.79C159.987 92.79 158.962 93.8459 158.962 95.1483C158.962 96.4507 159.987 97.5065 161.251 97.5065Z" fill="#2B5931"/>
<path d="M156.673 143.007C157.938 143.007 158.962 141.951 158.962 140.648C158.962 139.346 157.938 138.29 156.673 138.29C155.409 138.29 154.385 139.346 154.385 140.648C154.385 141.951 155.409 143.007 156.673 143.007Z" fill="#2B5931"/>
<path d="M169.644 126.084C170.908 126.084 171.933 125.028 171.933 123.726C171.933 122.423 170.908 121.368 169.644 121.368C168.38 121.368 167.355 122.423 167.355 123.726C167.355 125.028 168.38 126.084 169.644 126.084Z" fill="#2B5931"/>
<path d="M185.597 141.766C186.861 141.766 187.886 140.71 187.886 139.408C187.886 138.106 186.861 137.05 185.597 137.05C184.333 137.05 183.308 138.106 183.308 139.408C183.308 140.71 184.333 141.766 185.597 141.766Z" fill="#2B5931"/>
<path d="M197.041 141.766C198.305 141.766 199.33 140.71 199.33 139.408C199.33 138.106 198.305 137.05 197.041 137.05C195.777 137.05 194.752 138.106 194.752 139.408C194.752 140.71 195.777 141.766 197.041 141.766Z" fill="#2B5931"/>
<path d="M213.688 140.097C214.952 140.097 215.976 139.042 215.976 137.739C215.976 136.437 214.952 135.381 213.688 135.381C212.423 135.381 211.399 136.437 211.399 137.739C211.399 139.042 212.423 140.097 213.688 140.097Z" fill="#2B5931"/>
<path d="M219.514 161.667C220.778 161.667 221.803 160.611 221.803 159.308C221.803 158.006 220.778 156.95 219.514 156.95C218.25 156.95 217.225 158.006 217.225 159.308C217.225 160.611 218.25 161.667 219.514 161.667Z" fill="#2B5931"/>
<path d="M226.381 217.712C227.645 217.712 228.669 216.656 228.669 215.354C228.669 214.051 227.645 212.996 226.381 212.996C225.116 212.996 224.092 214.051 224.092 215.354C224.092 216.656 225.116 217.712 226.381 217.712Z" fill="#2B5931"/>
<path d="M247.119 178.1C248.384 178.1 249.408 177.044 249.408 175.742C249.408 174.44 248.384 173.384 247.119 173.384C245.855 173.384 244.831 174.44 244.831 175.742C244.831 177.044 245.855 178.1 247.119 178.1Z" fill="#2B5931"/>
<path d="M263.003 164.233C264.267 164.233 265.292 163.177 265.292 161.875C265.292 160.572 264.267 159.517 263.003 159.517C261.739 159.517 260.714 160.572 260.714 161.875C260.714 163.177 261.739 164.233 263.003 164.233Z" fill="#2B5931"/>
<path d="M281.73 160.764C282.994 160.764 284.019 159.709 284.019 158.406C284.019 157.104 282.994 156.048 281.73 156.048C280.466 156.048 279.441 157.104 279.441 158.406C279.441 159.709 280.466 160.764 281.73 160.764Z" fill="#2B5931"/>
<path d="M250.171 87.384C251.435 87.384 252.46 86.3282 252.46 85.0257C252.46 83.7233 251.435 82.6675 250.171 82.6675C248.907 82.6675 247.882 83.7233 247.882 85.0257C247.882 86.3282 248.907 87.384 250.171 87.384Z" fill="#2B5931"/>
<path d="M263.003 141.346C264.267 141.346 265.292 140.291 265.292 138.988C265.292 137.686 264.267 136.63 263.003 136.63C261.739 136.63 260.714 137.686 260.714 138.988C260.714 140.291 261.739 141.346 263.003 141.346Z" fill="#2B5931"/>
<path d="M262.656 52.6999C263.92 52.6999 264.945 51.6441 264.945 50.3417C264.945 49.0392 263.92 47.9834 262.656 47.9834C261.392 47.9834 260.367 49.0392 260.367 50.3417C260.367 51.6441 261.392 52.6999 262.656 52.6999Z" fill="#2B5931"/>
<path d="M298.099 87.9333C299.363 87.9333 300.388 86.8775 300.388 85.575C300.388 84.2726 299.363 83.2168 298.099 83.2168C296.835 83.2168 295.81 84.2726 295.81 85.575C295.81 86.8775 296.835 87.9333 298.099 87.9333Z" fill="#2B5931"/>
<path d="M298.099 115.609C299.363 115.609 300.388 114.553 300.388 113.25C300.388 111.948 299.363 110.892 298.099 110.892C296.835 110.892 295.81 111.948 295.81 113.25C295.81 114.553 296.835 115.609 298.099 115.609Z" fill="#2B5931"/>
<path d="M299.972 130.598C301.236 130.598 302.261 129.543 302.261 128.24C302.261 126.938 301.236 125.882 299.972 125.882C298.708 125.882 297.683 126.938 297.683 128.24C297.683 129.543 298.708 130.598 299.972 130.598Z" fill="#2B5931"/>
<path d="M312.596 68.9294C313.86 68.9294 314.885 67.8736 314.885 66.5711C314.885 65.2687 313.86 64.2129 312.596 64.2129C311.332 64.2129 310.307 65.2687 310.307 66.5711C310.307 67.8736 311.332 68.9294 312.596 68.9294Z" fill="#2B5931"/>
<path d="M321.89 118.382C323.154 118.382 324.179 117.326 324.179 116.023C324.179 114.721 323.154 113.665 321.89 113.665C320.626 113.665 319.601 114.721 319.601 116.023C319.601 117.326 320.626 118.382 321.89 118.382Z" fill="#2B5931"/>
<path d="M362.188 101.46C363.452 101.46 364.477 100.404 364.477 99.1019C364.477 97.7995 363.452 96.7437 362.188 96.7437C360.924 96.7437 359.899 97.7995 359.899 99.1019C359.899 100.404 360.924 101.46 362.188 101.46Z" fill="#2B5931"/>
<path d="M356.292 137.252C357.556 137.252 358.581 136.196 358.581 134.894C358.581 133.591 357.556 132.536 356.292 132.536C355.028 132.536 354.003 133.591 354.003 134.894C354.003 136.196 355.028 137.252 356.292 137.252Z" fill="#2B5931"/>
<path d="M342.836 199.193C344.101 199.193 345.125 198.137 345.125 196.835C345.125 195.532 344.101 194.477 342.836 194.477C341.572 194.477 340.548 195.532 340.548 196.835C340.548 198.137 341.572 199.193 342.836 199.193Z" fill="#2B5931"/>
<path d="M387.227 203.079C388.491 203.079 389.516 202.023 389.516 200.721C389.516 199.418 388.491 198.362 387.227 198.362C385.963 198.362 384.938 199.418 384.938 200.721C384.938 202.023 385.963 203.079 387.227 203.079Z" fill="#2B5931"/>
<path d="M376.476 120.255C377.74 120.255 378.765 119.199 378.765 117.896C378.765 116.594 377.74 115.538 376.476 115.538C375.212 115.538 374.187 116.594 374.187 117.896C374.187 119.199 375.212 120.255 376.476 120.255Z" fill="#2B5931"/>
<path d="M400.683 136.487C401.947 136.487 402.972 135.431 402.972 134.129C402.972 132.826 401.947 131.771 400.683 131.771C399.419 131.771 398.394 132.826 398.394 134.129C398.394 135.431 399.419 136.487 400.683 136.487Z" fill="#2B5931"/>
<path d="M413.653 127.129C414.918 127.129 415.942 126.073 415.942 124.771C415.942 123.468 414.918 122.413 413.653 122.413C412.389 122.413 411.365 123.468 411.365 124.771C411.365 126.073 412.389 127.129 413.653 127.129Z" fill="#2B5931"/>
<path d="M432.242 73.3703C433.506 73.3703 434.531 72.3145 434.531 71.0121C434.531 69.7096 433.506 68.6538 432.242 68.6538C430.978 68.6538 429.953 69.7096 429.953 71.0121C429.953 72.3145 430.978 73.3703 432.242 73.3703Z" fill="#2B5931"/>
<path d="M432.797 153.554C434.061 153.554 435.086 152.498 435.086 151.196C435.086 149.893 434.061 148.837 432.797 148.837C431.533 148.837 430.508 149.893 430.508 151.196C430.508 152.498 431.533 153.554 432.797 153.554Z" fill="#2B5931"/>
<path d="M483.153 83.8464C484.417 83.8464 485.442 82.7906 485.442 81.4881C485.442 80.1857 484.417 79.1299 483.153 79.1299C481.889 79.1299 480.864 80.1857 480.864 81.4881C480.864 82.7906 481.889 83.8464 483.153 83.8464Z" fill="#2B5931"/>
<path d="M444.935 165.206C446.199 165.206 447.224 164.15 447.224 162.848C447.224 161.546 446.199 160.49 444.935 160.49C443.671 160.49 442.646 161.546 442.646 162.848C442.646 164.15 443.671 165.206 444.935 165.206Z" fill="#2B5931"/>
<path d="M474.482 137.18C475.746 137.18 476.771 136.125 476.771 134.822C476.771 133.52 475.746 132.464 474.482 132.464C473.218 132.464 472.193 133.52 472.193 134.822C472.193 136.125 473.218 137.18 474.482 137.18Z" fill="#2B5931"/>
<path d="M506.25 102.848C507.514 102.848 508.538 101.793 508.538 100.49C508.538 99.1877 507.514 98.1318 506.25 98.1318C504.985 98.1318 503.961 99.1877 503.961 100.49C503.961 101.793 504.985 102.848 506.25 102.848Z" fill="#2B5931"/>
<path d="M552.443 137.18C553.708 137.18 554.732 136.125 554.732 134.822C554.732 133.52 553.708 132.464 552.443 132.464C551.179 132.464 550.155 133.52 550.155 134.822C550.155 136.125 551.179 137.18 552.443 137.18Z" fill="#2B5931"/>
<path d="M568.674 91.1345C569.938 91.1345 570.963 90.0786 570.963 88.7762C570.963 87.4738 569.938 86.418 568.674 86.418C567.41 86.418 566.385 87.4738 566.385 88.7762C566.385 90.0786 567.41 91.1345 568.674 91.1345Z" fill="#2B5931"/>
<path d="M568.882 69.9016C570.146 69.9016 571.171 68.8457 571.171 67.5433C571.171 66.2409 570.146 65.1851 568.882 65.1851C567.618 65.1851 566.593 66.2409 566.593 67.5433C566.593 68.8457 567.618 69.9016 568.882 69.9016Z" fill="#2B5931"/>
<path d="M590.661 60.9577C591.925 60.9577 592.95 59.9019 592.95 58.5995C592.95 57.297 591.925 56.2412 590.661 56.2412C589.397 56.2412 588.372 57.297 588.372 58.5995C588.372 59.9019 589.397 60.9577 590.661 60.9577Z" fill="#2B5931"/>
<path d="M562.154 109.855C563.418 109.855 564.443 108.799 564.443 107.497C564.443 106.194 563.418 105.139 562.154 105.139C560.89 105.139 559.865 106.194 559.865 107.497C559.865 108.799 560.89 109.855 562.154 109.855Z" fill="#2B5931"/>
<path d="M576.303 186.159C577.567 186.159 578.592 185.104 578.592 183.801C578.592 182.499 577.567 181.443 576.303 181.443C575.039 181.443 574.014 182.499 574.014 183.801C574.014 185.104 575.039 186.159 576.303 186.159Z" fill="#2B5931"/>
<path d="M590.661 147.8C591.925 147.8 592.95 146.744 592.95 145.441C592.95 144.139 591.925 143.083 590.661 143.083C589.397 143.083 588.372 144.139 588.372 145.441C588.372 146.744 589.397 147.8 590.661 147.8Z" fill="#2B5931"/>
<path d="M608.695 148.492C609.959 148.492 610.984 147.437 610.984 146.134C610.984 144.832 609.959 143.776 608.695 143.776C607.431 143.776 606.406 144.832 606.406 146.134C606.406 147.437 607.431 148.492 608.695 148.492Z" fill="#2B5931"/>
<path d="M517.486 148.492C518.75 148.492 519.775 147.437 519.775 146.134C519.775 144.832 518.75 143.776 517.486 143.776C516.222 143.776 515.197 144.832 515.197 146.134C515.197 147.437 516.222 148.492 517.486 148.492Z" fill="#2B5931"/>
<path d="M491.199 162.153C492.463 162.153 493.487 161.097 493.487 159.795C493.487 158.492 492.463 157.437 491.199 157.437C489.934 157.437 488.91 158.492 488.91 159.795C488.91 161.097 489.934 162.153 491.199 162.153Z" fill="#2B5931"/>
<path d="M465.327 202.726C466.591 202.726 467.616 201.67 467.616 200.368C467.616 199.066 466.591 198.01 465.327 198.01C464.063 198.01 463.038 199.066 463.038 200.368C463.038 201.67 464.063 202.726 465.327 202.726Z" fill="#2B5931"/>
<path d="M47.5002 114.016C48.7643 114.016 49.7891 112.96 49.7891 111.658C49.7891 110.356 48.7643 109.3 47.5002 109.3C46.2361 109.3 45.2113 110.356 45.2113 111.658C45.2113 112.96 46.2361 114.016 47.5002 114.016Z" fill="white" stroke="#2B5931" stroke-miterlimit="10"/>
<path d="M47.2923 60.1945C48.5564 60.1945 49.5812 59.1387 49.5812 57.8363C49.5812 56.5338 48.5564 55.478 47.2923 55.478C46.0282 55.478 45.0034 56.5338 45.0034 57.8363C45.0034 59.1387 46.0282 60.1945 47.2923 60.1945Z" fill="white" stroke="#2B5931" stroke-miterlimit="10"/>
<path d="M75.6607 111.936C76.9248 111.936 77.9496 110.88 77.9496 109.577C77.9496 108.275 76.9248 107.219 75.6607 107.219C74.3966 107.219 73.3718 108.275 73.3718 109.577C73.3718 110.88 74.3966 111.936 75.6607 111.936Z" fill="white" stroke="#2B5931" stroke-miterlimit="10"/>
<path d="M100.214 135.31C101.478 135.31 102.503 134.254 102.503 132.952C102.503 131.65 101.478 130.594 100.214 130.594C98.9501 130.594 97.9253 131.65 97.9253 132.952C97.9253 134.254 98.9501 135.31 100.214 135.31Z" fill="white" stroke="#2B5931" stroke-miterlimit="10"/>
<path d="M100.214 177.968C101.478 177.968 102.503 176.913 102.503 175.61C102.503 174.308 101.478 173.252 100.214 173.252C98.9501 173.252 97.9253 174.308 97.9253 175.61C97.9253 176.913 98.9501 177.968 100.214 177.968Z" fill="white" stroke="#2B5931" stroke-miterlimit="10"/>
<path d="M143.218 129.342C144.482 129.342 145.507 128.286 145.507 126.983C145.507 125.681 144.482 124.625 143.218 124.625C141.954 124.625 140.929 125.681 140.929 126.983C140.929 128.286 141.954 129.342 143.218 129.342Z" fill="white" stroke="#2B5931" stroke-miterlimit="10"/>
<path d="M177.62 111.655C178.884 111.655 179.909 110.599 179.909 109.297C179.909 107.994 178.884 106.938 177.62 106.938C176.356 106.938 175.331 107.994 175.331 109.297C175.331 110.599 176.356 111.655 177.62 111.655Z" fill="white" stroke="#2B5931" stroke-miterlimit="10"/>
<path d="M222.913 93.4899C224.177 93.4899 225.202 92.4341 225.202 91.1317C225.202 89.8293 224.177 88.7734 222.913 88.7734C221.649 88.7734 220.624 89.8293 220.624 91.1317C220.624 92.4341 221.649 93.4899 222.913 93.4899Z" fill="white" stroke="#2B5931" stroke-miterlimit="10"/>
<path d="M222.913 116.374C224.177 116.374 225.202 115.318 225.202 114.015C225.202 112.713 224.177 111.657 222.913 111.657C221.649 111.657 220.624 112.713 220.624 114.015C220.624 115.318 221.649 116.374 222.913 116.374Z" fill="white" stroke="#2B5931" stroke-miterlimit="10"/>
<path d="M228.669 139.61C229.934 139.61 230.958 138.554 230.958 137.251C230.958 135.949 229.934 134.893 228.669 134.893C227.405 134.893 226.381 135.949 226.381 137.251C226.381 138.554 227.405 139.61 228.669 139.61Z" fill="white" stroke="#2B5931" stroke-miterlimit="10"/>
<path d="M170.754 203.079C172.018 203.079 173.043 202.023 173.043 200.721C173.043 199.418 172.018 198.362 170.754 198.362C169.49 198.362 168.465 199.418 168.465 200.721C168.465 202.023 169.49 203.079 170.754 203.079Z" fill="white" stroke="#2B5931" stroke-miterlimit="10"/>
<path d="M180.187 167.842C181.451 167.842 182.476 166.786 182.476 165.483C182.476 164.181 181.451 163.125 180.187 163.125C178.923 163.125 177.898 164.181 177.898 165.483C177.898 166.786 178.923 167.842 180.187 167.842Z" fill="white" stroke="#2B5931" stroke-miterlimit="10"/>
<path d="M197.041 189.623C198.305 189.623 199.33 188.567 199.33 187.264C199.33 185.962 198.305 184.906 197.041 184.906C195.777 184.906 194.752 185.962 194.752 187.264C194.752 188.567 195.777 189.623 197.041 189.623Z" fill="white" stroke="#2B5931" stroke-miterlimit="10"/>
<path d="M237.27 197.869C238.534 197.869 239.559 196.813 239.559 195.511C239.559 194.208 238.534 193.152 237.27 193.152C236.006 193.152 234.981 194.208 234.981 195.511C234.981 196.813 236.006 197.869 237.27 197.869Z" fill="white" stroke="#2B5931" stroke-miterlimit="10"/>
<path d="M321.89 190.935C323.154 190.935 324.179 189.879 324.179 188.577C324.179 187.275 323.154 186.219 321.89 186.219C320.626 186.219 319.601 187.275 319.601 188.577C319.601 189.879 320.626 190.935 321.89 190.935Z" fill="white" stroke="#2B5931" stroke-miterlimit="10"/>
<path d="M278.331 106.733C279.595 106.733 280.62 105.677 280.62 104.375C280.62 103.072 279.595 102.017 278.331 102.017C277.067 102.017 276.042 103.072 276.042 104.375C276.042 105.677 277.067 106.733 278.331 106.733Z" fill="white" stroke="#2B5931" stroke-miterlimit="10"/>
<path d="M256.76 115.609C258.025 115.609 259.049 114.553 259.049 113.25C259.049 111.948 258.025 110.892 256.76 110.892C255.496 110.892 254.472 111.948 254.472 113.25C254.472 114.553 255.496 115.609 256.76 115.609Z" fill="white" stroke="#2B5931" stroke-miterlimit="10"/>
<path d="M340.755 118.382C342.02 118.382 343.044 117.326 343.044 116.023C343.044 114.721 342.02 113.665 340.755 113.665C339.491 113.665 338.467 114.721 338.467 116.023C338.467 117.326 339.491 118.382 340.755 118.382Z" fill="white" stroke="#2B5931" stroke-miterlimit="10"/>
<path d="M327.508 134.133C328.772 134.133 329.797 133.077 329.797 131.774C329.797 130.472 328.772 129.416 327.508 129.416C326.244 129.416 325.219 130.472 325.219 131.774C325.219 133.077 326.244 134.133 327.508 134.133Z" fill="white" stroke="#2B5931" stroke-miterlimit="10"/>
<path d="M327.508 168.394C328.772 168.394 329.797 167.338 329.797 166.036C329.797 164.734 328.772 163.678 327.508 163.678C326.244 163.678 325.219 164.734 325.219 166.036C325.219 167.338 326.244 168.394 327.508 168.394Z" fill="white" stroke="#2B5931" stroke-miterlimit="10"/>
<path d="M362.188 194.272C363.452 194.272 364.477 193.216 364.477 191.914C364.477 190.612 363.452 189.556 362.188 189.556C360.924 189.556 359.899 190.612 359.899 191.914C359.899 193.216 360.924 194.272 362.188 194.272Z" fill="white" stroke="#2B5931" stroke-miterlimit="10"/>
<path d="M361.494 161.46C362.758 161.46 363.783 160.404 363.783 159.102C363.783 157.799 362.758 156.744 361.494 156.744C360.23 156.744 359.205 157.799 359.205 159.102C359.205 160.404 360.23 161.46 361.494 161.46Z" fill="white" stroke="#2B5931" stroke-miterlimit="10"/>
<path d="M391.389 70.5226C392.653 70.5226 393.678 69.4668 393.678 68.1644C393.678 66.862 392.653 65.8062 391.389 65.8062C390.125 65.8062 389.1 66.862 389.1 68.1644C389.1 69.4668 390.125 70.5226 391.389 70.5226Z" fill="white" stroke="#2B5931" stroke-miterlimit="10"/>
<path d="M413.653 148.492C414.918 148.492 415.942 147.437 415.942 146.134C415.942 144.832 414.918 143.776 413.653 143.776C412.389 143.776 411.365 144.832 411.365 146.134C411.365 147.437 412.389 148.492 413.653 148.492Z" fill="white" stroke="#2B5931" stroke-miterlimit="10"/>
<path d="M402.903 194.064C404.167 194.064 405.191 193.008 405.191 191.706C405.191 190.403 404.167 189.348 402.903 189.348C401.638 189.348 400.614 190.403 400.614 191.706C400.614 193.008 401.638 194.064 402.903 194.064Z" fill="white" stroke="#2B5931" stroke-miterlimit="10"/>
<path d="M432.797 97.299C434.061 97.299 435.086 96.2432 435.086 94.9408C435.086 93.6383 434.061 92.5825 432.797 92.5825C431.533 92.5825 430.508 93.6383 430.508 94.9408C430.508 96.2432 431.533 97.299 432.797 97.299Z" fill="white" stroke="#2B5931" stroke-miterlimit="10"/>
<path d="M469.905 118.382C471.169 118.382 472.194 117.326 472.194 116.023C472.194 114.721 471.169 113.665 469.905 113.665C468.64 113.665 467.616 114.721 467.616 116.023C467.616 117.326 468.64 118.382 469.905 118.382Z" fill="white" stroke="#2B5931" stroke-miterlimit="10"/>
<path d="M469.905 87.3117C471.169 87.3117 472.194 86.2559 472.194 84.9535C472.194 83.651 471.169 82.5952 469.905 82.5952C468.64 82.5952 467.616 83.651 467.616 84.9535C467.616 86.2559 468.64 87.3117 469.905 87.3117Z" fill="white" stroke="#2B5931" stroke-miterlimit="10"/>
<path d="M466.229 73.3703C467.493 73.3703 468.518 72.3145 468.518 71.0121C468.518 69.7096 467.493 68.6538 466.229 68.6538C464.964 68.6538 463.94 69.7096 463.94 71.0121C463.94 72.3145 464.964 73.3703 466.229 73.3703Z" fill="white" stroke="#2B5931" stroke-miterlimit="10"/>
<path d="M478.782 156.887C480.046 156.887 481.071 155.832 481.071 154.529C481.071 153.227 480.046 152.171 478.782 152.171C477.518 152.171 476.493 153.227 476.493 154.529C476.493 155.832 477.518 156.887 478.782 156.887Z" fill="white" stroke="#2B5931" stroke-miterlimit="10"/>
<path d="M531.843 144.186C533.107 144.186 534.132 143.13 534.132 141.828C534.132 140.526 533.107 139.47 531.843 139.47C530.579 139.47 529.554 140.526 529.554 141.828C529.554 143.13 530.579 144.186 531.843 144.186Z" fill="white" stroke="#2B5931" stroke-miterlimit="10"/>
<path d="M494.736 194.271C496 194.271 497.025 193.215 497.025 191.913C497.025 190.611 496 189.555 494.736 189.555C493.472 189.555 492.447 190.611 492.447 191.913C492.447 193.215 493.472 194.271 494.736 194.271Z" fill="white" stroke="#2B5931" stroke-miterlimit="10"/>
<path d="M479.407 189.899C480.671 189.899 481.696 188.843 481.696 187.541C481.696 186.238 480.671 185.183 479.407 185.183C478.143 185.183 477.118 186.238 477.118 187.541C477.118 188.843 478.143 189.899 479.407 189.899Z" fill="white" stroke="#2B5931" stroke-miterlimit="10"/>
<path d="M524.838 81.4851C526.102 81.4851 527.127 80.4292 527.127 79.1268C527.127 77.8244 526.102 76.7686 524.838 76.7686C523.574 76.7686 522.549 77.8244 522.549 79.1268C522.549 80.4292 523.574 81.4851 524.838 81.4851Z" fill="white" stroke="#2B5931" stroke-miterlimit="10"/>
<path d="M552.513 93.9064C553.777 93.9064 554.802 92.8506 554.802 91.5482C554.802 90.2458 553.777 89.1899 552.513 89.1899C551.249 89.1899 550.224 90.2458 550.224 91.5482C550.224 92.8506 551.249 93.9064 552.513 93.9064Z" fill="white" stroke="#2B5931" stroke-miterlimit="10"/>
<path d="M601.967 136.276C603.231 136.276 604.256 135.22 604.256 133.917C604.256 132.615 603.231 131.559 601.967 131.559C600.703 131.559 599.678 132.615 599.678 133.917C599.678 135.22 600.703 136.276 601.967 136.276Z" fill="white" stroke="#2B5931" stroke-miterlimit="10"/>
<path d="M596.348 175.474C597.612 175.474 598.637 174.418 598.637 173.116C598.637 171.813 597.612 170.757 596.348 170.757C595.084 170.757 594.059 171.813 594.059 173.116C594.059 174.418 595.084 175.474 596.348 175.474Z" fill="white" stroke="#2B5931" stroke-miterlimit="10"/>
<path d="M583.655 101.183C584.919 101.183 585.944 100.127 585.944 98.8246C585.944 97.5221 584.919 96.4663 583.655 96.4663C582.391 96.4663 581.366 97.5221 581.366 98.8246C581.366 100.127 582.391 101.183 583.655 101.183Z" fill="white" stroke="#2B5931" stroke-miterlimit="10"/>
<path d="M543.149 186.912C544.413 186.912 545.438 185.856 545.438 184.554C545.438 183.252 544.413 182.196 543.149 182.196C541.885 182.196 540.86 183.252 540.86 184.554C540.86 185.856 541.885 186.912 543.149 186.912Z" fill="white" stroke="#2B5931" stroke-miterlimit="10"/>
<path d="M531.843 169.575C533.107 169.575 534.132 168.519 534.132 167.217C534.132 165.914 533.107 164.858 531.843 164.858C530.579 164.858 529.554 165.914 529.554 167.217C529.554 168.519 530.579 169.575 531.843 169.575Z" fill="white" stroke="#2B5931" stroke-miterlimit="10"/>
<path d="M11.0172 80.5139C12.2813 80.5139 13.306 79.458 13.306 78.1556C13.306 76.8532 12.2813 75.7974 11.0172 75.7974C9.75304 75.7974 8.72827 76.8532 8.72827 78.1556C8.72827 79.458 9.75304 80.5139 11.0172 80.5139Z" fill="white" stroke="#2B5931" stroke-miterlimit="10"/>
</svg>
