<svg width="254" height="323" viewBox="0 0 254 323" fill="none" xmlns="http://www.w3.org/2000/svg">
<path d="M252 2H2V320.768H252V2Z" fill="white" stroke="#2B5931" stroke-width="3" stroke-miterlimit="10"/>
<path d="M22.0405 2.55664L6.94058 20.7878V51.0572" stroke="#2B5931" stroke-width="0.75" stroke-miterlimit="10"/>
<path d="M59.1988 2L61.843 5.47924V17.0303L54.1191 25.2413H18.1438V59.5466" stroke="#2B5931" stroke-width="0.75" stroke-miterlimit="10"/>
<path d="M69.9148 2L74.7857 7.49719V20.5095L61.8429 31.7823H29.5556V48.2738" stroke="#2B5931" stroke-width="0.75" stroke-miterlimit="10"/>
<path d="M74.7857 36.0273V72.8377" stroke="#2B5931" stroke-width="0.75" stroke-miterlimit="10"/>
<path d="M81.8138 2V6.45342L85.9193 8.74972V30.7385" stroke="#2B5931" stroke-width="0.75" stroke-miterlimit="10"/>
<path d="M96.357 2.55664V28.8597H107.978V61.4253" stroke="#2B5931" stroke-width="0.75" stroke-miterlimit="10"/>
<path d="M119.25 16.3345V11.046H107.978V2" stroke="#2B5931" stroke-width="0.75" stroke-miterlimit="10"/>
<path d="M130.175 2.55664V20.5791H119.25V42.2199" stroke="#2B5931" stroke-width="0.75" stroke-miterlimit="10"/>
<path d="M142.005 2.55664V50.1526" stroke="#2B5931" stroke-width="0.75" stroke-miterlimit="10"/>
<path d="M155.295 2L152.581 6.03591V14.6644" stroke="#2B5931" stroke-width="0.75" stroke-miterlimit="10"/>
<path d="M167.89 2V71.1672" stroke="#2B5931" stroke-width="0.75" stroke-miterlimit="10"/>
<path d="M186.191 2L183.895 4.64422V49.7351" stroke="#2B5931" stroke-width="0.75" stroke-miterlimit="10"/>
<path d="M195.376 2V42.9158" stroke="#2B5931" stroke-width="0.75" stroke-miterlimit="10"/>
<path d="M206.649 2V16.3345" stroke="#2B5931" stroke-width="0.75" stroke-miterlimit="10"/>
<path d="M217.921 2V19.8833L206.649 30.7385V58.7811" stroke="#2B5931" stroke-width="0.75" stroke-miterlimit="10"/>
<path d="M229.403 2V17.4478L217.921 28.7205V67.3401" stroke="#2B5931" stroke-width="0.75" stroke-miterlimit="10"/>
<path d="M229.403 34.6348V78.1948" stroke="#2B5931" stroke-width="0.75" stroke-miterlimit="10"/>
<path d="M240.328 2V58.7811" stroke="#2B5931" stroke-width="0.75" stroke-miterlimit="10"/>
<path d="M34.7745 2L39.9933 9.09764V19.4658" stroke="#2B5931" stroke-width="0.75" stroke-miterlimit="10"/>
<path d="M31.017 320.767V275.05L53.2145 253.131V229.611" stroke="#2B5931" stroke-width="0.75" stroke-miterlimit="10"/>
<path d="M19.8834 288.689L7.28851 275.19L42.0809 239.911V208.389" stroke="#2B5931" stroke-width="0.75" stroke-miterlimit="10"/>
<path d="M10.9069 259.95L21.4142 248.469V240.188L32.1998 229.611" stroke="#2B5931" stroke-width="0.75" stroke-miterlimit="10"/>
<path d="M7.28851 213.886V243.251" stroke="#2B5931" stroke-width="0.75" stroke-miterlimit="10"/>
<path d="M42.0809 288.689V275.189L53.2144 281.939V300.449L42.0809 312.487V320.767" stroke="#2B5931" stroke-width="0.75" stroke-miterlimit="10"/>
<path d="M53.2144 187.652V204.631L65.5309 217.295V256.193" stroke="#2B5931" stroke-width="0.75" stroke-miterlimit="10"/>
<path d="M65.5309 296.691V320.768" stroke="#2B5931" stroke-width="0.75" stroke-miterlimit="10"/>
<path d="M89.816 320.42L82.3009 313.879V296.9" stroke="#2B5931" stroke-width="0.75" stroke-miterlimit="10"/>
<path d="M73.6028 281.313V243.25L86.0585 231.212V189.183" stroke="#2B5931" stroke-width="0.75" stroke-miterlimit="10"/>
<path d="M108.743 246.312L100.95 238.31L85.0146 256.193V279.712" stroke="#2B5931" stroke-width="0.75" stroke-miterlimit="10"/>
<path d="M98.2357 267.953V305.111L106.934 312.487" stroke="#2B5931" stroke-width="0.75" stroke-miterlimit="10"/>
<path d="M112.361 320.767L124.608 307.198V276.372L132.471 268.231V191.34" stroke="#2B5931" stroke-width="0.75" stroke-miterlimit="10"/>
<path d="M119.529 203.727V221.888" stroke="#2B5931" stroke-width="0.75" stroke-miterlimit="10"/>
<path d="M147.432 320.768L141.169 307.199V212.772" stroke="#2B5931" stroke-width="0.75" stroke-miterlimit="10"/>
<path d="M159.47 298.014V320.768" stroke="#2B5931" stroke-width="0.75" stroke-miterlimit="10"/>
<path d="M183.129 320.768L173.248 310.609V277.834H159.47V176.171" stroke="#2B5931" stroke-width="0.75" stroke-miterlimit="10"/>
<path d="M180.763 221.888L171.3 233.648V256.193" stroke="#2B5931" stroke-width="0.75" stroke-miterlimit="10"/>
<path d="M185.286 248.47V312.488L195.446 320.768" stroke="#2B5931" stroke-width="0.75" stroke-miterlimit="10"/>
<path d="M194.263 212.772L195.446 265.17L206.301 275.19V305.668L219.8 320.768" stroke="#2B5931" stroke-width="0.75" stroke-miterlimit="10"/>
<path d="M217.643 227.524L208.945 236.71V252.853L219.8 264.265V303.233" stroke="#2B5931" stroke-width="0.75" stroke-miterlimit="10"/>
<path d="M221.609 246.66L229.96 238.31L247.078 259.046V279.712" stroke="#2B5931" stroke-width="0.75" stroke-miterlimit="10"/>
<path d="M231.49 266.84V320.768" stroke="#2B5931" stroke-width="0.75" stroke-miterlimit="10"/>
<path d="M244 222V242.396L253 259.047V292" stroke="#2B5931" stroke-width="0.75" stroke-miterlimit="10"/>
<path d="M245.616 295.787L240.189 305.668V320.768" stroke="#2B5931" stroke-width="0.75" stroke-miterlimit="10"/>
<path d="M6.94058 53.4232C8.20879 53.4232 9.23688 52.3639 9.23688 51.0573C9.23688 49.7506 8.20879 48.6914 6.94058 48.6914C5.67237 48.6914 4.64429 49.7506 4.64429 51.0573C4.64429 52.3639 5.67237 53.4232 6.94058 53.4232Z" fill="#2B5931"/>
<path d="M39.9933 21.8314C41.2615 21.8314 42.2896 20.7721 42.2896 19.4655C42.2896 18.1589 41.2615 17.0996 39.9933 17.0996C38.7251 17.0996 37.697 18.1589 37.697 19.4655C37.697 20.7721 38.7251 21.8314 39.9933 21.8314Z" fill="#2B5931"/>
<path d="M29.5556 50.64C30.8238 50.64 31.8519 49.5807 31.8519 48.2741C31.8519 46.9674 30.8238 45.9082 29.5556 45.9082C28.2874 45.9082 27.2593 46.9674 27.2593 48.2741C27.2593 49.5807 28.2874 50.64 29.5556 50.64Z" fill="#2B5931"/>
<path d="M18.1437 61.9134C19.4119 61.9134 20.44 60.8542 20.44 59.5475C20.44 58.2409 19.4119 57.1816 18.1437 57.1816C16.8755 57.1816 15.8474 58.2409 15.8474 59.5475C15.8474 60.8542 16.8755 61.9134 18.1437 61.9134Z" fill="white" stroke="#2B5931" stroke-miterlimit="10"/>
<path d="M7.28848 245.617C8.55669 245.617 9.58478 244.557 9.58478 243.251C9.58478 241.944 8.55669 240.885 7.28848 240.885C6.02027 240.885 4.99219 241.944 4.99219 243.251C4.99219 244.557 6.02027 245.617 7.28848 245.617Z" fill="white" stroke="#2B5931" stroke-miterlimit="10"/>
<path d="M10.9069 262.317C12.1751 262.317 13.2032 261.257 13.2032 259.951C13.2032 258.644 12.1751 257.585 10.9069 257.585C9.63868 257.585 8.6106 258.644 8.6106 259.951C8.6106 261.257 9.63868 262.317 10.9069 262.317Z" fill="white" stroke="#2B5931" stroke-miterlimit="10"/>
<path d="M32.1999 231.978C33.4681 231.978 34.4962 230.919 34.4962 229.612C34.4962 228.305 33.4681 227.246 32.1999 227.246C30.9317 227.246 29.9036 228.305 29.9036 229.612C29.9036 230.919 30.9317 231.978 32.1999 231.978Z" fill="white" stroke="#2B5931" stroke-miterlimit="10"/>
<path d="M53.2143 190.019C54.4825 190.019 55.5106 188.96 55.5106 187.653C55.5106 186.346 54.4825 185.287 53.2143 185.287C51.9461 185.287 50.918 186.346 50.918 187.653C50.918 188.96 51.9461 190.019 53.2143 190.019Z" fill="white" stroke="#2B5931" stroke-miterlimit="10"/>
<path d="M65.5309 258.42C66.7991 258.42 67.8272 257.361 67.8272 256.054C67.8272 254.748 66.7991 253.688 65.5309 253.688C64.2627 253.688 63.2346 254.748 63.2346 256.054C63.2346 257.361 64.2627 258.42 65.5309 258.42Z" fill="white" stroke="#2B5931" stroke-miterlimit="10"/>
<path d="M65.5309 299.058C66.7991 299.058 67.8272 297.999 67.8272 296.692C67.8272 295.385 66.7991 294.326 65.5309 294.326C64.2627 294.326 63.2346 295.385 63.2346 296.692C63.2346 297.999 64.2627 299.058 65.5309 299.058Z" fill="white" stroke="#2B5931" stroke-miterlimit="10"/>
<path d="M86.0583 192.315C87.3265 192.315 88.3546 191.256 88.3546 189.949C88.3546 188.642 87.3265 187.583 86.0583 187.583C84.7901 187.583 83.762 188.642 83.762 189.949C83.762 191.256 84.7901 192.315 86.0583 192.315Z" fill="white" stroke="#2B5931" stroke-miterlimit="10"/>
<path d="M85.0146 282.079C86.2828 282.079 87.3109 281.02 87.3109 279.714C87.3109 278.407 86.2828 277.348 85.0146 277.348C83.7464 277.348 82.7183 278.407 82.7183 279.714C82.7183 281.02 83.7464 282.079 85.0146 282.079Z" fill="white" stroke="#2B5931" stroke-miterlimit="10"/>
<path d="M106.447 314.853C107.715 314.853 108.743 313.794 108.743 312.487C108.743 311.18 107.715 310.121 106.447 310.121C105.178 310.121 104.15 311.18 104.15 312.487C104.15 313.794 105.178 314.853 106.447 314.853Z" fill="white" stroke="#2B5931" stroke-miterlimit="10"/>
<path d="M132.471 194.681C133.74 194.681 134.768 193.622 134.768 192.315C134.768 191.008 133.74 189.949 132.471 189.949C131.203 189.949 130.175 191.008 130.175 192.315C130.175 193.622 131.203 194.681 132.471 194.681Z" fill="white" stroke="#2B5931" stroke-miterlimit="10"/>
<path d="M159.47 300.519C160.738 300.519 161.766 299.46 161.766 298.153C161.766 296.846 160.738 295.787 159.47 295.787C158.202 295.787 157.174 296.846 157.174 298.153C157.174 299.46 158.202 300.519 159.47 300.519Z" fill="white" stroke="#2B5931" stroke-miterlimit="10"/>
<path d="M180.763 224.253C182.032 224.253 183.06 223.194 183.06 221.887C183.06 220.581 182.032 219.521 180.763 219.521C179.495 219.521 178.467 220.581 178.467 221.887C178.467 223.194 179.495 224.253 180.763 224.253Z" fill="white" stroke="#2B5931" stroke-miterlimit="10"/>
<path d="M185.286 250.835C186.554 250.835 187.583 249.776 187.583 248.469C187.583 247.163 186.554 246.104 185.286 246.104C184.018 246.104 182.99 247.163 182.99 248.469C182.99 249.776 184.018 250.835 185.286 250.835Z" fill="white" stroke="#2B5931" stroke-miterlimit="10"/>
<path d="M216.669 231.421C217.937 231.421 218.965 230.362 218.965 229.055C218.965 227.749 217.937 226.689 216.669 226.689C215.401 226.689 214.373 227.749 214.373 229.055C214.373 230.362 215.401 231.421 216.669 231.421Z" fill="white" stroke="#2B5931" stroke-miterlimit="10"/>
<path d="M219.8 305.181C221.068 305.181 222.096 304.122 222.096 302.815C222.096 301.508 221.068 300.449 219.8 300.449C218.532 300.449 217.504 301.508 217.504 302.815C217.504 304.122 218.532 305.181 219.8 305.181Z" fill="white" stroke="#2B5931" stroke-miterlimit="10"/>
<path d="M221.61 248.539C222.878 248.539 223.906 247.48 223.906 246.173C223.906 244.867 222.878 243.808 221.61 243.808C220.341 243.808 219.313 244.867 219.313 246.173C219.313 247.48 220.341 248.539 221.61 248.539Z" fill="white" stroke="#2B5931" stroke-miterlimit="10"/>
<path d="M231.49 270.04C232.759 270.04 233.787 268.981 233.787 267.674C233.787 266.368 232.759 265.309 231.49 265.309C230.222 265.309 229.194 266.368 229.194 267.674C229.194 268.981 230.222 270.04 231.49 270.04Z" fill="white" stroke="#2B5931" stroke-miterlimit="10"/>
<path d="M74.7856 38.9505C76.0538 38.9505 77.0818 37.8913 77.0818 36.5846C77.0818 35.278 76.0538 34.2188 74.7856 34.2188C73.5173 34.2188 72.4893 35.278 72.4893 36.5846C72.4893 37.8913 73.5173 38.9505 74.7856 38.9505Z" fill="white" stroke="#2B5931" stroke-miterlimit="10"/>
<path d="M119.25 18.0745C120.518 18.0745 121.546 17.0153 121.546 15.7087C121.546 14.402 120.518 13.3428 119.25 13.3428C117.982 13.3428 116.954 14.402 116.954 15.7087C116.954 17.0153 117.982 18.0745 119.25 18.0745Z" fill="white" stroke="#2B5931" stroke-miterlimit="10"/>
<path d="M142.005 52.5189C143.273 52.5189 144.301 51.4596 144.301 50.153C144.301 48.8464 143.273 47.7871 142.005 47.7871C140.736 47.7871 139.708 48.8464 139.708 50.153C139.708 51.4596 140.736 52.5189 142.005 52.5189Z" fill="white" stroke="#2B5931" stroke-miterlimit="10"/>
<path d="M130.296 61.7318C131.565 61.7318 132.593 60.6725 132.593 59.3659C132.593 58.0592 131.565 57 130.296 57C129.028 57 128 58.0592 128 59.3659C128 60.6725 129.028 61.7318 130.296 61.7318Z" fill="white" stroke="#2B5931" stroke-miterlimit="10"/>
<path d="M167.89 72.8372C169.158 72.8372 170.186 71.778 170.186 70.4714C170.186 69.1647 169.158 68.1055 167.89 68.1055C166.622 68.1055 165.594 69.1647 165.594 70.4714C165.594 71.778 166.622 72.8372 167.89 72.8372Z" fill="white" stroke="#2B5931" stroke-miterlimit="10"/>
<path d="M178.296 72.7318C179.564 72.7318 180.593 71.6725 180.593 70.3659C180.593 69.0592 179.564 68 178.296 68C177.028 68 176 69.0592 176 70.3659C176 71.6725 177.028 72.7318 178.296 72.7318Z" fill="white" stroke="#2B5931" stroke-miterlimit="10"/>
<path d="M183.894 52.1009C185.163 52.1009 186.191 51.0417 186.191 49.735C186.191 48.4284 185.163 47.3691 183.894 47.3691C182.626 47.3691 181.598 48.4284 181.598 49.735C181.598 51.0417 182.626 52.1009 183.894 52.1009Z" fill="white" stroke="#2B5931" stroke-miterlimit="10"/>
<path d="M206.649 18.0745C207.917 18.0745 208.945 17.0153 208.945 15.7087C208.945 14.402 207.917 13.3428 206.649 13.3428C205.381 13.3428 204.353 14.402 204.353 15.7087C204.353 17.0153 205.381 18.0745 206.649 18.0745Z" fill="white" stroke="#2B5931" stroke-miterlimit="10"/>
<path d="M217.921 69.7064C219.189 69.7064 220.218 68.6471 220.218 67.3405C220.218 66.0339 219.189 64.9746 217.921 64.9746C216.653 64.9746 215.625 66.0339 215.625 67.3405C215.625 68.6471 216.653 69.7064 217.921 69.7064Z" fill="white" stroke="#2B5931" stroke-miterlimit="10"/>
<path d="M229.403 37.9056C230.671 37.9056 231.699 36.8463 231.699 35.5397C231.699 34.2331 230.671 33.1738 229.403 33.1738C228.135 33.1738 227.107 34.2331 227.107 35.5397C227.107 36.8463 228.135 37.9056 229.403 37.9056Z" fill="white" stroke="#2B5931" stroke-miterlimit="10"/>
<path d="M240.328 61.1478C241.596 61.1478 242.624 60.0885 242.624 58.7819C242.624 57.4753 241.596 56.416 240.328 56.416C239.06 56.416 238.031 57.4753 238.031 58.7819C238.031 60.0885 239.06 61.1478 240.328 61.1478Z" fill="white" stroke="#2B5931" stroke-miterlimit="10"/>
<path d="M74.7856 75.2034C76.0538 75.2034 77.0818 74.1442 77.0818 72.8376C77.0818 71.5309 76.0538 70.4717 74.7856 70.4717C73.5173 70.4717 72.4893 71.5309 72.4893 72.8376C72.4893 74.1442 73.5173 75.2034 74.7856 75.2034Z" fill="white" stroke="#2B5931" stroke-miterlimit="10"/>
<path d="M47.7499 59.7318C49.0478 59.7318 50.0999 58.6725 50.0999 57.3659C50.0999 56.0592 49.0478 55 47.7499 55C46.452 55 45.3999 56.0592 45.3999 57.3659C45.3999 58.6725 46.452 59.7318 47.7499 59.7318Z" fill="white" stroke="#2B5931" stroke-miterlimit="10"/>
<path d="M7.28848 216.251C8.55669 216.251 9.58478 215.192 9.58478 213.885C9.58478 212.579 8.55669 211.52 7.28848 211.52C6.02027 211.52 4.99219 212.579 4.99219 213.885C4.99219 215.192 6.02027 216.251 7.28848 216.251Z" fill="#2B5931"/>
<path d="M19.8835 291.056C21.1517 291.056 22.1798 289.997 22.1798 288.69C22.1798 287.383 21.1517 286.324 19.8835 286.324C18.6152 286.324 17.5872 287.383 17.5872 288.69C17.5872 289.997 18.6152 291.056 19.8835 291.056Z" fill="#2B5931"/>
<path d="M53.2143 233.3C54.4825 233.3 55.5106 232.241 55.5106 230.934C55.5106 229.628 54.4825 228.568 53.2143 228.568C51.9461 228.568 50.918 229.628 50.918 230.934C50.918 232.241 51.9461 233.3 53.2143 233.3Z" fill="#2B5931"/>
<path d="M42.0807 291.056C43.3489 291.056 44.377 289.997 44.377 288.69C44.377 287.383 43.3489 286.324 42.0807 286.324C40.8125 286.324 39.7844 287.383 39.7844 288.69C39.7844 289.997 40.8125 291.056 42.0807 291.056Z" fill="#2B5931"/>
<path d="M82.3009 299.267C83.5691 299.267 84.5972 298.208 84.5972 296.901C84.5972 295.594 83.5691 294.535 82.3009 294.535C81.0327 294.535 80.0046 295.594 80.0046 296.901C80.0046 298.208 81.0327 299.267 82.3009 299.267Z" fill="#2B5931"/>
<path d="M73.6027 283.679C74.8709 283.679 75.899 282.62 75.899 281.313C75.899 280.007 74.8709 278.947 73.6027 278.947C72.3345 278.947 71.3064 280.007 71.3064 281.313C71.3064 282.62 72.3345 283.679 73.6027 283.679Z" fill="#2B5931"/>
<path d="M108.743 248.539C110.011 248.539 111.039 247.48 111.039 246.173C111.039 244.867 110.011 243.808 108.743 243.808C107.475 243.808 106.447 244.867 106.447 246.173C106.447 247.48 107.475 248.539 108.743 248.539Z" fill="#2B5931"/>
<path d="M98.2358 271.502C99.504 271.502 100.532 270.443 100.532 269.136C100.532 267.83 99.504 266.771 98.2358 266.771C96.9675 266.771 95.9395 267.83 95.9395 269.136C95.9395 270.443 96.9675 271.502 98.2358 271.502Z" fill="#2B5931"/>
<path d="M119.529 206.093C120.797 206.093 121.825 205.034 121.825 203.727C121.825 202.421 120.797 201.361 119.529 201.361C118.261 201.361 117.232 202.421 117.232 203.727C117.232 205.034 118.261 206.093 119.529 206.093Z" fill="#2B5931"/>
<path d="M119.529 223.767C120.797 223.767 121.825 222.708 121.825 221.401C121.825 220.094 120.797 219.035 119.529 219.035C118.261 219.035 117.232 220.094 117.232 221.401C117.232 222.708 118.261 223.767 119.529 223.767Z" fill="#2B5931"/>
<path d="M141.169 215.974C142.438 215.974 143.466 214.915 143.466 213.608C143.466 212.301 142.438 211.242 141.169 211.242C139.901 211.242 138.873 212.301 138.873 213.608C138.873 214.915 139.901 215.974 141.169 215.974Z" fill="#2B5931"/>
<path d="M159.47 178.536C160.738 178.536 161.766 177.477 161.766 176.171C161.766 174.864 160.738 173.805 159.47 173.805C158.202 173.805 157.174 174.864 157.174 176.171C157.174 177.477 158.202 178.536 159.47 178.536Z" fill="#2B5931"/>
<path d="M171.3 258.42C172.568 258.42 173.596 257.361 173.596 256.054C173.596 254.748 172.568 253.688 171.3 253.688C170.032 253.688 169.003 254.748 169.003 256.054C169.003 257.361 170.032 258.42 171.3 258.42Z" fill="#2B5931"/>
<path d="M194.263 215.974C195.531 215.974 196.559 214.915 196.559 213.608C196.559 212.301 195.531 211.242 194.263 211.242C192.994 211.242 191.966 212.301 191.966 213.608C191.966 214.915 192.994 215.974 194.263 215.974Z" fill="#2B5931"/>
<path d="M247.078 282.079C248.346 282.079 249.374 281.02 249.374 279.714C249.374 278.407 248.346 277.348 247.078 277.348C245.809 277.348 244.781 278.407 244.781 279.714C244.781 281.02 245.809 282.079 247.078 282.079Z" fill="#2B5931"/>
<path d="M245.616 298.154C246.884 298.154 247.912 297.094 247.912 295.788C247.912 294.481 246.884 293.422 245.616 293.422C244.348 293.422 243.32 294.481 243.32 295.788C243.32 297.094 244.348 298.154 245.616 298.154Z" fill="#2B5931"/>
<path d="M244.296 224.732C245.564 224.732 246.593 223.673 246.593 222.366C246.593 221.059 245.564 220 244.296 220C243.028 220 242 221.059 242 222.366C242 223.673 243.028 224.732 244.296 224.732Z" fill="#2B5931"/>
<path d="M42.0807 210.755C43.3489 210.755 44.377 209.696 44.377 208.389C44.377 207.083 43.3489 206.023 42.0807 206.023C40.8125 206.023 39.7844 207.083 39.7844 208.389C39.7844 209.696 40.8125 210.755 42.0807 210.755Z" fill="#2B5931"/>
<path d="M85.9191 33.1048C87.1873 33.1048 88.2154 32.0456 88.2154 30.7389C88.2154 29.4323 87.1873 28.373 85.9191 28.373C84.6509 28.373 83.6228 29.4323 83.6228 30.7389C83.6228 32.0456 84.6509 33.1048 85.9191 33.1048Z" fill="#2B5931"/>
<path d="M107.977 63.7923C109.246 63.7923 110.274 62.7331 110.274 61.4264C110.274 60.1198 109.246 59.0605 107.977 59.0605C106.709 59.0605 105.681 60.1198 105.681 61.4264C105.681 62.7331 106.709 63.7923 107.977 63.7923Z" fill="#2B5931"/>
<path d="M152.581 17.0306C153.85 17.0306 154.878 15.9713 154.878 14.6647C154.878 13.3581 153.85 12.2988 152.581 12.2988C151.313 12.2988 150.285 13.3581 150.285 14.6647C150.285 15.9713 151.313 17.0306 152.581 17.0306Z" fill="#2B5931"/>
<path d="M119.25 44.5863C120.518 44.5863 121.546 43.527 121.546 42.2204C121.546 40.9137 120.518 39.8545 119.25 39.8545C117.982 39.8545 116.954 40.9137 116.954 42.2204C116.954 43.527 117.982 44.5863 119.25 44.5863Z" fill="#2B5931"/>
<path d="M195.376 45.2825C196.644 45.2825 197.672 44.2233 197.672 42.9167C197.672 41.61 196.644 40.5508 195.376 40.5508C194.108 40.5508 193.08 41.61 193.08 42.9167C193.08 44.2233 194.108 45.2825 195.376 45.2825Z" fill="#2B5931"/>
<path d="M206.649 61.1478C207.917 61.1478 208.945 60.0885 208.945 58.7819C208.945 57.4753 207.917 56.416 206.649 56.416C205.381 56.416 204.353 57.4753 204.353 58.7819C204.353 60.0885 205.381 61.1478 206.649 61.1478Z" fill="#2B5931"/>
<path d="M229.403 80.5618C230.671 80.5618 231.699 79.5026 231.699 78.196C231.699 76.8893 230.671 75.8301 229.403 75.8301C228.135 75.8301 227.107 76.8893 227.107 78.196C227.107 79.5026 228.135 80.5618 229.403 80.5618Z" fill="#2B5931"/>
<path d="M201.796 82.7318C203.064 82.7318 204.093 81.6725 204.093 80.3659C204.093 79.0592 203.064 78 201.796 78C200.528 78 199.5 79.0592 199.5 80.3659C199.5 81.6725 200.528 82.7318 201.796 82.7318Z" fill="#2B5931"/>
<path d="M250.974 85.2246L238.031 98.5849V113.615L247.913 128.645V176.172" stroke="#145B2C" stroke-width="0.75" stroke-miterlimit="10"/>
<path d="M227.107 215.973V196.142L220.218 182.782V159.749" stroke="#145B2C" stroke-width="0.75" stroke-miterlimit="10"/>
<path d="M197.672 187.653V139.778" stroke="#145B2C" stroke-width="0.75" stroke-miterlimit="10"/>
<path d="M202.056 81.7441L206.997 95.4523V112.501L214.373 121.964V138.108" stroke="#145B2C" stroke-width="0.75" stroke-miterlimit="10"/>
<path d="M223.627 92.043V113.614" stroke="#145B2C" stroke-width="0.75" stroke-miterlimit="10"/>
<path d="M229.194 138.108L238.031 149.103V196.142" stroke="#145B2C" stroke-width="0.75" stroke-miterlimit="10"/>
<path d="M171.3 201.361L180.763 189.183V166.012" stroke="#145B2C" stroke-width="0.75" stroke-miterlimit="10"/>
<path d="M178.467 72.9072V109.926" stroke="#145B2C" stroke-width="0.75" stroke-miterlimit="10"/>
<path d="M130.175 61.9131V86.894H143.466V128.645" stroke="#145B2C" stroke-width="0.75" stroke-miterlimit="10"/>
<path d="M161.767 95.4531L157.174 109.927V142.284" stroke="#145B2C" stroke-width="0.75" stroke-miterlimit="10"/>
<path d="M170.186 124.053V139.779H186.191" stroke="#145B2C" stroke-width="0.75" stroke-miterlimit="10"/>
<path d="M47.6477 59.1992V112.014" stroke="#145B2C" stroke-width="0.75" stroke-miterlimit="10"/>
<path d="M10.9069 78.4043L24.6846 95.3134V112.014L9.23682 124.052L9.58474 158.914" stroke="#145B2C" stroke-width="0.75" stroke-miterlimit="10"/>
<path d="M22.0405 202.753V183.478H34.4962V156.827H44.3772V133.377" stroke="#145B2C" stroke-width="0.75" stroke-miterlimit="10"/>
<path d="M67.8271 194.61V155.017L77.0819 139.778L75.899 109.926" stroke="#145B2C" stroke-width="0.75" stroke-miterlimit="10"/>
<path d="M100.532 176.172V133.377" stroke="#145B2C" stroke-width="0.75" stroke-miterlimit="10"/>
<path d="M87.311 95.3134L98.2358 89.0508L113.614 112.014V138.108" stroke="#145B2C" stroke-width="0.75" stroke-miterlimit="10"/>
<path d="M130.175 112.014V163.367" stroke="#145B2C" stroke-width="0.75" stroke-miterlimit="10"/>
<path d="M9.58487 160.723C10.8531 160.723 11.8812 159.664 11.8812 158.357C11.8812 157.05 10.8531 155.991 9.58487 155.991C8.31666 155.991 7.28857 157.05 7.28857 158.357C7.28857 159.664 8.31666 160.723 9.58487 160.723Z" fill="#2B5931"/>
<path d="M44.3771 136.925C45.6453 136.925 46.6734 135.866 46.6734 134.559C46.6734 133.253 45.6453 132.193 44.3771 132.193C43.1089 132.193 42.0808 133.253 42.0808 134.559C42.0808 135.866 43.1089 136.925 44.3771 136.925Z" fill="#2B5931"/>
<path d="M22.0404 205.118C23.3086 205.118 24.3367 204.059 24.3367 202.753C24.3367 201.446 23.3086 200.387 22.0404 200.387C20.7722 200.387 19.7441 201.446 19.7441 202.753C19.7441 204.059 20.7722 205.118 22.0404 205.118Z" fill="#2B5931"/>
<path d="M67.8273 196.977C69.0955 196.977 70.1236 195.918 70.1236 194.611C70.1236 193.304 69.0955 192.245 67.8273 192.245C66.5591 192.245 65.531 193.304 65.531 194.611C65.531 195.918 66.5591 196.977 67.8273 196.977Z" fill="#2B5931"/>
<path d="M87.3109 97.679C88.5792 97.679 89.6072 96.6198 89.6072 95.3131C89.6072 94.0065 88.5792 92.9473 87.3109 92.9473C86.0427 92.9473 85.0146 94.0065 85.0146 95.3131C85.0146 96.6198 86.0427 97.679 87.3109 97.679Z" fill="#2B5931"/>
<path d="M113.614 140.474C114.882 140.474 115.91 139.415 115.91 138.108C115.91 136.801 114.882 135.742 113.614 135.742C112.346 135.742 111.318 136.801 111.318 138.108C111.318 139.415 112.346 140.474 113.614 140.474Z" fill="#2B5931"/>
<path d="M130.175 114.38C131.443 114.38 132.471 113.321 132.471 112.014C132.471 110.708 131.443 109.648 130.175 109.648C128.907 109.648 127.879 110.708 127.879 112.014C127.879 113.321 128.907 114.38 130.175 114.38Z" fill="#2B5931"/>
<path d="M130.175 165.734C131.443 165.734 132.471 164.674 132.471 163.368C132.471 162.061 131.443 161.002 130.175 161.002C128.907 161.002 127.879 162.061 127.879 163.368C127.879 164.674 128.907 165.734 130.175 165.734Z" fill="#2B5931"/>
<path d="M161.767 97.8187C163.035 97.8187 164.063 96.7594 164.063 95.4528C164.063 94.1462 163.035 93.0869 161.767 93.0869C160.498 93.0869 159.47 94.1462 159.47 95.4528C159.47 96.7594 160.498 97.8187 161.767 97.8187Z" fill="#2B5931"/>
<path d="M157.174 143.466C158.442 143.466 159.47 142.407 159.47 141.1C159.47 139.794 158.442 138.734 157.174 138.734C155.906 138.734 154.878 139.794 154.878 141.1C154.878 142.407 155.906 143.466 157.174 143.466Z" fill="#2B5931"/>
<path d="M170.186 126.488C171.454 126.488 172.482 125.428 172.482 124.122C172.482 122.815 171.454 121.756 170.186 121.756C168.918 121.756 167.89 122.815 167.89 124.122C167.89 125.428 168.918 126.488 170.186 126.488Z" fill="#2B5931"/>
<path d="M186.191 142.214C187.459 142.214 188.487 141.155 188.487 139.848C188.487 138.542 187.459 137.482 186.191 137.482C184.923 137.482 183.895 138.542 183.895 139.848C183.895 141.155 184.923 142.214 186.191 142.214Z" fill="#2B5931"/>
<path d="M197.672 142.214C198.94 142.214 199.969 141.155 199.969 139.848C199.969 138.542 198.94 137.482 197.672 137.482C196.404 137.482 195.376 138.542 195.376 139.848C195.376 141.155 196.404 142.214 197.672 142.214Z" fill="#2B5931"/>
<path d="M214.372 140.544C215.641 140.544 216.669 139.485 216.669 138.178C216.669 136.872 215.641 135.812 214.372 135.812C213.104 135.812 212.076 136.872 212.076 138.178C212.076 139.485 213.104 140.544 214.372 140.544Z" fill="#2B5931"/>
<path d="M220.218 162.185C221.486 162.185 222.514 161.126 222.514 159.819C222.514 158.512 221.486 157.453 220.218 157.453C218.949 157.453 217.921 158.512 217.921 159.819C217.921 161.126 218.949 162.185 220.218 162.185Z" fill="#2B5931"/>
<path d="M227.107 218.409C228.375 218.409 229.403 217.35 229.403 216.044C229.403 214.737 228.375 213.678 227.107 213.678C225.838 213.678 224.81 214.737 224.81 216.044C224.81 217.35 225.838 218.409 227.107 218.409Z" fill="#2B5931"/>
<path d="M247.912 178.676C249.181 178.676 250.209 177.617 250.209 176.31C250.209 175.004 249.181 173.944 247.912 173.944C246.644 173.944 245.616 175.004 245.616 176.31C245.616 177.617 246.644 178.676 247.912 178.676Z" fill="#2B5931"/>
<path d="M250.974 87.6595C252.242 87.6595 253.271 86.6003 253.271 85.2936C253.271 83.987 252.242 82.9277 250.974 82.9277C249.706 82.9277 248.678 83.987 248.678 85.2936C248.678 86.6003 249.706 87.6595 250.974 87.6595Z" fill="#2B5931"/>
<path d="M47.6476 114.38C48.9158 114.38 49.9439 113.321 49.9439 112.014C49.9439 110.708 48.9158 109.648 47.6476 109.648C46.3794 109.648 45.3513 110.708 45.3513 112.014C45.3513 113.321 46.3794 114.38 47.6476 114.38Z" fill="white" stroke="#2B5931" stroke-miterlimit="10"/>
<path d="M75.8988 112.292C77.167 112.292 78.1951 111.233 78.1951 109.926C78.1951 108.62 77.167 107.561 75.8988 107.561C74.6306 107.561 73.6025 108.62 73.6025 109.926C73.6025 111.233 74.6306 112.292 75.8988 112.292Z" fill="white" stroke="#2B5931" stroke-miterlimit="10"/>
<path d="M100.532 135.743C101.8 135.743 102.828 134.683 102.828 133.377C102.828 132.07 101.8 131.011 100.532 131.011C99.2639 131.011 98.2358 132.07 98.2358 133.377C98.2358 134.683 99.2639 135.743 100.532 135.743Z" fill="white" stroke="#2B5931" stroke-miterlimit="10"/>
<path d="M100.532 178.536C101.8 178.536 102.828 177.477 102.828 176.171C102.828 174.864 101.8 173.805 100.532 173.805C99.2639 173.805 98.2358 174.864 98.2358 176.171C98.2358 177.477 99.2639 178.536 100.532 178.536Z" fill="white" stroke="#2B5931" stroke-miterlimit="10"/>
<path d="M143.674 129.758C144.943 129.758 145.971 128.699 145.971 127.392C145.971 126.086 144.943 125.026 143.674 125.026C142.406 125.026 141.378 126.086 141.378 127.392C141.378 128.699 142.406 129.758 143.674 129.758Z" fill="white" stroke="#2B5931" stroke-miterlimit="10"/>
<path d="M178.188 112.014C179.457 112.014 180.485 110.955 180.485 109.648C180.485 108.341 179.457 107.282 178.188 107.282C176.92 107.282 175.892 108.341 175.892 109.648C175.892 110.955 176.92 112.014 178.188 112.014Z" fill="white" stroke="#2B5931" stroke-miterlimit="10"/>
<path d="M223.627 93.7825C224.896 93.7825 225.924 92.7233 225.924 91.4167C225.924 90.11 224.896 89.0508 223.627 89.0508C222.359 89.0508 221.331 90.11 221.331 91.4167C221.331 92.7233 222.359 93.7825 223.627 93.7825Z" fill="white" stroke="#2B5931" stroke-miterlimit="10"/>
<path d="M223.627 116.745C224.896 116.745 225.924 115.686 225.924 114.38C225.924 113.073 224.896 112.014 223.627 112.014C222.359 112.014 221.331 113.073 221.331 114.38C221.331 115.686 222.359 116.745 223.627 116.745Z" fill="white" stroke="#2B5931" stroke-miterlimit="10"/>
<path d="M229.403 140.056C230.671 140.056 231.699 138.997 231.699 137.69C231.699 136.383 230.671 135.324 229.403 135.324C228.135 135.324 227.107 136.383 227.107 137.69C227.107 138.997 228.135 140.056 229.403 140.056Z" fill="white" stroke="#2B5931" stroke-miterlimit="10"/>
<path d="M171.3 203.727C172.568 203.727 173.596 202.668 173.596 201.361C173.596 200.054 172.568 198.995 171.3 198.995C170.032 198.995 169.003 200.054 169.003 201.361C169.003 202.668 170.032 203.727 171.3 203.727Z" fill="white" stroke="#2B5931" stroke-miterlimit="10"/>
<path d="M180.763 168.377C182.032 168.377 183.06 167.318 183.06 166.011C183.06 164.705 182.032 163.646 180.763 163.646C179.495 163.646 178.467 164.705 178.467 166.011C178.467 167.318 179.495 168.377 180.763 168.377Z" fill="white" stroke="#2B5931" stroke-miterlimit="10"/>
<path d="M197.672 190.228C198.94 190.228 199.969 189.169 199.969 187.862C199.969 186.555 198.94 185.496 197.672 185.496C196.404 185.496 195.376 186.555 195.376 187.862C195.376 189.169 196.404 190.228 197.672 190.228Z" fill="white" stroke="#2B5931" stroke-miterlimit="10"/>
<path d="M238.031 198.507C239.3 198.507 240.328 197.448 240.328 196.141C240.328 194.835 239.3 193.775 238.031 193.775C236.763 193.775 235.735 194.835 235.735 196.141C235.735 197.448 236.763 198.507 238.031 198.507Z" fill="white" stroke="#2B5931" stroke-miterlimit="10"/>
<path d="M11.0461 80.7708C12.3143 80.7708 13.3423 79.7116 13.3423 78.4049C13.3423 77.0983 12.3143 76.0391 11.0461 76.0391C9.77784 76.0391 8.74976 77.0983 8.74976 78.4049C8.74976 79.7116 9.77784 80.7708 11.0461 80.7708Z" fill="white" stroke="#2B5931" stroke-miterlimit="10"/>
</svg>
