<svg width="254" height="323" viewBox="0 0 254 323" fill="none" xmlns="http://www.w3.org/2000/svg">
<path d="M252 2H2V320.768H252V2Z" fill="#145B2C" stroke="white" stroke-width="3" stroke-miterlimit="10"/>
<path d="M22.0405 2.55664L6.94058 20.7878V51.0572" stroke="white" stroke-width="0.75" stroke-miterlimit="10"/>
<path d="M59.1988 2L61.843 5.47924V17.0303L54.1191 25.2413H18.1438V59.5466" stroke="white" stroke-width="0.75" stroke-miterlimit="10"/>
<path d="M69.9148 2L74.7857 7.49719V20.5095L61.8429 31.7823H29.5556V48.2738" stroke="white" stroke-width="0.75" stroke-miterlimit="10"/>
<path d="M74.7857 36.0273V72.8377" stroke="white" stroke-width="0.75" stroke-miterlimit="10"/>
<path d="M81.8138 2V6.45342L85.9193 8.74972V30.7385" stroke="white" stroke-width="0.75" stroke-miterlimit="10"/>
<path d="M96.357 2.55664V28.8597H107.978V61.4253" stroke="white" stroke-width="0.75" stroke-miterlimit="10"/>
<path d="M119.25 16.3345V11.046H107.978V2" stroke="white" stroke-width="0.75" stroke-miterlimit="10"/>
<path d="M130.175 2.55664V20.5791H119.25V42.2199" stroke="white" stroke-width="0.75" stroke-miterlimit="10"/>
<path d="M142.005 2.55664V50.1526" stroke="white" stroke-width="0.75" stroke-miterlimit="10"/>
<path d="M155.295 2L152.581 6.03591V14.6644" stroke="white" stroke-width="0.75" stroke-miterlimit="10"/>
<path d="M167.89 2V71.1672" stroke="white" stroke-width="0.75" stroke-miterlimit="10"/>
<path d="M186.191 2L183.895 4.64422V49.7351" stroke="white" stroke-width="0.75" stroke-miterlimit="10"/>
<path d="M195.376 2V42.9158" stroke="white" stroke-width="0.75" stroke-miterlimit="10"/>
<path d="M206.649 2V16.3345" stroke="white" stroke-width="0.75" stroke-miterlimit="10"/>
<path d="M217.921 2V19.8833L206.649 30.7385V58.7811" stroke="white" stroke-width="0.75" stroke-miterlimit="10"/>
<path d="M229.403 2V17.4478L217.921 28.7205V67.3401" stroke="white" stroke-width="0.75" stroke-miterlimit="10"/>
<path d="M229.403 34.6348V78.1948" stroke="white" stroke-width="0.75" stroke-miterlimit="10"/>
<path d="M240.328 2V58.7811" stroke="white" stroke-width="0.75" stroke-miterlimit="10"/>
<path d="M34.7745 2L39.9933 9.09764V19.4658" stroke="white" stroke-width="0.75" stroke-miterlimit="10"/>
<path d="M31.017 320.767V275.05L53.2145 253.131V229.611" stroke="white" stroke-width="0.75" stroke-miterlimit="10"/>
<path d="M19.8833 288.689L7.28851 275.19L42.0809 239.911V208.389" stroke="white" stroke-width="0.75" stroke-miterlimit="10"/>
<path d="M10.9069 259.95L21.4142 248.469V240.188L32.1998 229.611" stroke="white" stroke-width="0.75" stroke-miterlimit="10"/>
<path d="M7.28851 213.886V243.251" stroke="white" stroke-width="0.75" stroke-miterlimit="10"/>
<path d="M42.0809 288.689V275.189L53.2144 281.939V300.449L42.0809 312.487V320.767" stroke="white" stroke-width="0.75" stroke-miterlimit="10"/>
<path d="M53.2144 187.652V204.631L65.5309 217.295V256.193" stroke="white" stroke-width="0.75" stroke-miterlimit="10"/>
<path d="M65.5309 296.691V320.768" stroke="white" stroke-width="0.75" stroke-miterlimit="10"/>
<path d="M89.816 320.42L82.3009 313.879V296.9" stroke="white" stroke-width="0.75" stroke-miterlimit="10"/>
<path d="M73.6028 281.313V243.25L86.0585 231.212V189.183" stroke="white" stroke-width="0.75" stroke-miterlimit="10"/>
<path d="M108.743 246.312L100.95 238.31L85.0146 256.193V279.712" stroke="white" stroke-width="0.75" stroke-miterlimit="10"/>
<path d="M98.2357 267.953V305.111L106.934 312.487" stroke="white" stroke-width="0.75" stroke-miterlimit="10"/>
<path d="M112.361 320.767L124.608 307.198V276.372L132.471 268.231V191.34" stroke="white" stroke-width="0.75" stroke-miterlimit="10"/>
<path d="M119.529 203.727V221.888" stroke="white" stroke-width="0.75" stroke-miterlimit="10"/>
<path d="M147.432 320.768L141.169 307.199V212.772" stroke="white" stroke-width="0.75" stroke-miterlimit="10"/>
<path d="M159.47 298.014V320.768" stroke="white" stroke-width="0.75" stroke-miterlimit="10"/>
<path d="M183.129 320.768L173.248 310.609V277.834H159.47V176.171" stroke="white" stroke-width="0.75" stroke-miterlimit="10"/>
<path d="M180.763 221.888L171.3 233.648V256.193" stroke="white" stroke-width="0.75" stroke-miterlimit="10"/>
<path d="M185.286 248.47V312.488L195.446 320.768" stroke="white" stroke-width="0.75" stroke-miterlimit="10"/>
<path d="M194.263 212.772L195.446 265.17L206.301 275.19V305.668L219.8 320.768" stroke="white" stroke-width="0.75" stroke-miterlimit="10"/>
<path d="M217.643 227.524L208.945 236.71V252.853L219.8 264.265V303.233" stroke="white" stroke-width="0.75" stroke-miterlimit="10"/>
<path d="M221.609 246.66L229.96 238.31L247.078 259.046V279.712" stroke="white" stroke-width="0.75" stroke-miterlimit="10"/>
<path d="M231.49 266.84V320.768" stroke="white" stroke-width="0.75" stroke-miterlimit="10"/>
<path d="M244 222V242.396L253 259.047V292" stroke="white" stroke-width="0.75" stroke-miterlimit="10"/>
<path d="M245.616 295.787L240.189 305.668V320.768" stroke="white" stroke-width="0.75" stroke-miterlimit="10"/>
<path d="M8.73688 51.0573C8.73688 52.102 7.91868 52.9232 6.94058 52.9232C5.96248 52.9232 5.14429 52.102 5.14429 51.0573C5.14429 50.0126 5.96248 49.1914 6.94058 49.1914C7.91868 49.1914 8.73688 50.0126 8.73688 51.0573Z" fill="#2B5931" stroke="white"/>
<path d="M41.7896 19.4655C41.7896 20.5102 40.9714 21.3314 39.9933 21.3314C39.0152 21.3314 38.197 20.5102 38.197 19.4655C38.197 18.4208 39.0152 17.5996 39.9933 17.5996C40.9714 17.5996 41.7896 18.4208 41.7896 19.4655Z" fill="#2B5931" stroke="white"/>
<path d="M31.3519 48.2741C31.3519 49.3188 30.5337 50.14 29.5556 50.14C28.5775 50.14 27.7593 49.3188 27.7593 48.2741C27.7593 47.2294 28.5775 46.4082 29.5556 46.4082C30.5337 46.4082 31.3519 47.2294 31.3519 48.2741Z" fill="#2B5931" stroke="white"/>
<path d="M18.1437 61.9134C19.4119 61.9134 20.44 60.8542 20.44 59.5475C20.44 58.2409 19.4119 57.1816 18.1437 57.1816C16.8755 57.1816 15.8474 58.2409 15.8474 59.5475C15.8474 60.8542 16.8755 61.9134 18.1437 61.9134Z" fill="white" stroke="white" stroke-miterlimit="10"/>
<path d="M7.28848 245.617C8.55669 245.617 9.58478 244.557 9.58478 243.251C9.58478 241.944 8.55669 240.885 7.28848 240.885C6.02027 240.885 4.99219 241.944 4.99219 243.251C4.99219 244.557 6.02027 245.617 7.28848 245.617Z" fill="white" stroke="white" stroke-miterlimit="10"/>
<path d="M10.9069 262.317C12.1751 262.317 13.2032 261.257 13.2032 259.951C13.2032 258.644 12.1751 257.585 10.9069 257.585C9.63868 257.585 8.6106 258.644 8.6106 259.951C8.6106 261.257 9.63868 262.317 10.9069 262.317Z" fill="white" stroke="white" stroke-miterlimit="10"/>
<path d="M32.1999 231.978C33.4681 231.978 34.4962 230.919 34.4962 229.612C34.4962 228.305 33.4681 227.246 32.1999 227.246C30.9317 227.246 29.9036 228.305 29.9036 229.612C29.9036 230.919 30.9317 231.978 32.1999 231.978Z" fill="white" stroke="white" stroke-miterlimit="10"/>
<path d="M53.2143 190.019C54.4825 190.019 55.5106 188.96 55.5106 187.653C55.5106 186.346 54.4825 185.287 53.2143 185.287C51.9461 185.287 50.918 186.346 50.918 187.653C50.918 188.96 51.9461 190.019 53.2143 190.019Z" fill="white" stroke="white" stroke-miterlimit="10"/>
<path d="M65.5309 258.42C66.7991 258.42 67.8272 257.361 67.8272 256.054C67.8272 254.748 66.7991 253.688 65.5309 253.688C64.2627 253.688 63.2346 254.748 63.2346 256.054C63.2346 257.361 64.2627 258.42 65.5309 258.42Z" fill="white" stroke="white" stroke-miterlimit="10"/>
<path d="M65.5309 299.058C66.7991 299.058 67.8272 297.999 67.8272 296.692C67.8272 295.385 66.7991 294.326 65.5309 294.326C64.2627 294.326 63.2346 295.385 63.2346 296.692C63.2346 297.999 64.2627 299.058 65.5309 299.058Z" fill="white" stroke="white" stroke-miterlimit="10"/>
<path d="M86.0583 192.315C87.3265 192.315 88.3546 191.256 88.3546 189.949C88.3546 188.642 87.3265 187.583 86.0583 187.583C84.7901 187.583 83.762 188.642 83.762 189.949C83.762 191.256 84.7901 192.315 86.0583 192.315Z" fill="white" stroke="white" stroke-miterlimit="10"/>
<path d="M85.0146 282.079C86.2828 282.079 87.3109 281.02 87.3109 279.714C87.3109 278.407 86.2828 277.348 85.0146 277.348C83.7464 277.348 82.7183 278.407 82.7183 279.714C82.7183 281.02 83.7464 282.079 85.0146 282.079Z" fill="white" stroke="white" stroke-miterlimit="10"/>
<path d="M106.447 314.853C107.715 314.853 108.743 313.794 108.743 312.487C108.743 311.18 107.715 310.121 106.447 310.121C105.178 310.121 104.15 311.18 104.15 312.487C104.15 313.794 105.178 314.853 106.447 314.853Z" fill="white" stroke="white" stroke-miterlimit="10"/>
<path d="M132.471 194.681C133.74 194.681 134.768 193.622 134.768 192.315C134.768 191.008 133.74 189.949 132.471 189.949C131.203 189.949 130.175 191.008 130.175 192.315C130.175 193.622 131.203 194.681 132.471 194.681Z" fill="white" stroke="white" stroke-miterlimit="10"/>
<path d="M159.47 300.519C160.738 300.519 161.766 299.46 161.766 298.153C161.766 296.846 160.738 295.787 159.47 295.787C158.202 295.787 157.174 296.846 157.174 298.153C157.174 299.46 158.202 300.519 159.47 300.519Z" fill="white" stroke="white" stroke-miterlimit="10"/>
<path d="M180.763 224.253C182.032 224.253 183.06 223.194 183.06 221.887C183.06 220.581 182.032 219.521 180.763 219.521C179.495 219.521 178.467 220.581 178.467 221.887C178.467 223.194 179.495 224.253 180.763 224.253Z" fill="white" stroke="white" stroke-miterlimit="10"/>
<path d="M185.286 250.835C186.554 250.835 187.583 249.776 187.583 248.469C187.583 247.163 186.554 246.104 185.286 246.104C184.018 246.104 182.99 247.163 182.99 248.469C182.99 249.776 184.018 250.835 185.286 250.835Z" fill="white" stroke="white" stroke-miterlimit="10"/>
<path d="M216.669 231.421C217.937 231.421 218.965 230.362 218.965 229.055C218.965 227.749 217.937 226.689 216.669 226.689C215.401 226.689 214.373 227.749 214.373 229.055C214.373 230.362 215.401 231.421 216.669 231.421Z" fill="white" stroke="white" stroke-miterlimit="10"/>
<path d="M219.8 305.181C221.068 305.181 222.096 304.122 222.096 302.815C222.096 301.508 221.068 300.449 219.8 300.449C218.532 300.449 217.504 301.508 217.504 302.815C217.504 304.122 218.532 305.181 219.8 305.181Z" fill="white" stroke="white" stroke-miterlimit="10"/>
<path d="M221.61 248.539C222.878 248.539 223.906 247.48 223.906 246.173C223.906 244.867 222.878 243.808 221.61 243.808C220.341 243.808 219.313 244.867 219.313 246.173C219.313 247.48 220.341 248.539 221.61 248.539Z" fill="white" stroke="white" stroke-miterlimit="10"/>
<path d="M231.49 270.04C232.759 270.04 233.787 268.981 233.787 267.674C233.787 266.368 232.759 265.309 231.49 265.309C230.222 265.309 229.194 266.368 229.194 267.674C229.194 268.981 230.222 270.04 231.49 270.04Z" fill="white" stroke="white" stroke-miterlimit="10"/>
<path d="M74.7856 38.9505C76.0538 38.9505 77.0818 37.8913 77.0818 36.5846C77.0818 35.278 76.0538 34.2188 74.7856 34.2188C73.5173 34.2188 72.4893 35.278 72.4893 36.5846C72.4893 37.8913 73.5173 38.9505 74.7856 38.9505Z" fill="white" stroke="white" stroke-miterlimit="10"/>
<path d="M119.25 18.0745C120.518 18.0745 121.546 17.0153 121.546 15.7087C121.546 14.402 120.518 13.3428 119.25 13.3428C117.982 13.3428 116.954 14.402 116.954 15.7087C116.954 17.0153 117.982 18.0745 119.25 18.0745Z" fill="white" stroke="white" stroke-miterlimit="10"/>
<path d="M142.005 52.5189C143.273 52.5189 144.301 51.4596 144.301 50.153C144.301 48.8464 143.273 47.7871 142.005 47.7871C140.736 47.7871 139.708 48.8464 139.708 50.153C139.708 51.4596 140.736 52.5189 142.005 52.5189Z" fill="white" stroke="white" stroke-miterlimit="10"/>
<path d="M130.296 61.7318C131.565 61.7318 132.593 60.6725 132.593 59.3659C132.593 58.0592 131.565 57 130.296 57C129.028 57 128 58.0592 128 59.3659C128 60.6725 129.028 61.7318 130.296 61.7318Z" fill="white" stroke="white" stroke-miterlimit="10"/>
<path d="M167.89 72.8372C169.158 72.8372 170.186 71.778 170.186 70.4714C170.186 69.1647 169.158 68.1055 167.89 68.1055C166.622 68.1055 165.594 69.1647 165.594 70.4714C165.594 71.778 166.622 72.8372 167.89 72.8372Z" fill="white" stroke="white" stroke-miterlimit="10"/>
<path d="M178.296 72.7318C179.564 72.7318 180.593 71.6725 180.593 70.3659C180.593 69.0592 179.564 68 178.296 68C177.028 68 176 69.0592 176 70.3659C176 71.6725 177.028 72.7318 178.296 72.7318Z" fill="white" stroke="white" stroke-miterlimit="10"/>
<path d="M183.894 52.1009C185.163 52.1009 186.191 51.0417 186.191 49.735C186.191 48.4284 185.163 47.3691 183.894 47.3691C182.626 47.3691 181.598 48.4284 181.598 49.735C181.598 51.0417 182.626 52.1009 183.894 52.1009Z" fill="white" stroke="white" stroke-miterlimit="10"/>
<path d="M206.649 18.0745C207.917 18.0745 208.945 17.0153 208.945 15.7087C208.945 14.402 207.917 13.3428 206.649 13.3428C205.381 13.3428 204.353 14.402 204.353 15.7087C204.353 17.0153 205.381 18.0745 206.649 18.0745Z" fill="white" stroke="white" stroke-miterlimit="10"/>
<path d="M217.921 69.7064C219.189 69.7064 220.218 68.6471 220.218 67.3405C220.218 66.0339 219.189 64.9746 217.921 64.9746C216.653 64.9746 215.625 66.0339 215.625 67.3405C215.625 68.6471 216.653 69.7064 217.921 69.7064Z" fill="white" stroke="white" stroke-miterlimit="10"/>
<path d="M229.403 37.9056C230.671 37.9056 231.699 36.8463 231.699 35.5397C231.699 34.2331 230.671 33.1738 229.403 33.1738C228.135 33.1738 227.107 34.2331 227.107 35.5397C227.107 36.8463 228.135 37.9056 229.403 37.9056Z" fill="white" stroke="white" stroke-miterlimit="10"/>
<path d="M240.328 61.1478C241.596 61.1478 242.624 60.0885 242.624 58.7819C242.624 57.4753 241.596 56.416 240.328 56.416C239.06 56.416 238.031 57.4753 238.031 58.7819C238.031 60.0885 239.06 61.1478 240.328 61.1478Z" fill="white" stroke="white" stroke-miterlimit="10"/>
<path d="M74.7856 75.2034C76.0538 75.2034 77.0818 74.1442 77.0818 72.8376C77.0818 71.5309 76.0538 70.4717 74.7856 70.4717C73.5173 70.4717 72.4893 71.5309 72.4893 72.8376C72.4893 74.1442 73.5173 75.2034 74.7856 75.2034Z" fill="white" stroke="white" stroke-miterlimit="10"/>
<path d="M47.7499 59.7318C49.0478 59.7318 50.0999 58.6725 50.0999 57.3659C50.0999 56.0592 49.0478 55 47.7499 55C46.452 55 45.3999 56.0592 45.3999 57.3659C45.3999 58.6725 46.452 59.7318 47.7499 59.7318Z" fill="white" stroke="white" stroke-miterlimit="10"/>
<path d="M9.08478 213.885C9.08478 214.93 8.26659 215.751 7.28848 215.751C6.31038 215.751 5.49219 214.93 5.49219 213.885C5.49219 212.841 6.31038 212.02 7.28848 212.02C8.26659 212.02 9.08478 212.841 9.08478 213.885Z" fill="#2B5931" stroke="white"/>
<path d="M21.6798 288.69C21.6798 289.735 20.8616 290.556 19.8835 290.556C18.9054 290.556 18.0872 289.735 18.0872 288.69C18.0872 287.645 18.9054 286.824 19.8835 286.824C20.8616 286.824 21.6798 287.645 21.6798 288.69Z" fill="#2B5931" stroke="white"/>
<path d="M55.0106 230.934C55.0106 231.979 54.1924 232.8 53.2143 232.8C52.2362 232.8 51.418 231.979 51.418 230.934C51.418 229.89 52.2362 229.068 53.2143 229.068C54.1924 229.068 55.0106 229.89 55.0106 230.934Z" fill="#2B5931" stroke="white"/>
<path d="M43.877 288.69C43.877 289.735 43.0588 290.556 42.0807 290.556C41.1026 290.556 40.2844 289.735 40.2844 288.69C40.2844 287.645 41.1026 286.824 42.0807 286.824C43.0588 286.824 43.877 287.645 43.877 288.69Z" fill="#2B5931" stroke="white"/>
<path d="M84.0972 296.901C84.0972 297.946 83.279 298.767 82.3009 298.767C81.3228 298.767 80.5046 297.946 80.5046 296.901C80.5046 295.856 81.3228 295.035 82.3009 295.035C83.279 295.035 84.0972 295.856 84.0972 296.901Z" fill="#2B5931" stroke="white"/>
<path d="M75.399 281.313C75.399 282.358 74.5808 283.179 73.6027 283.179C72.6246 283.179 71.8064 282.358 71.8064 281.313C71.8064 280.268 72.6246 279.447 73.6027 279.447C74.5808 279.447 75.399 280.268 75.399 281.313Z" fill="#2B5931" stroke="white"/>
<path d="M110.539 246.173C110.539 247.218 109.721 248.039 108.743 248.039C107.765 248.039 106.947 247.218 106.947 246.173C106.947 245.129 107.765 244.308 108.743 244.308C109.721 244.308 110.539 245.129 110.539 246.173Z" fill="#2B5931" stroke="white"/>
<path d="M100.032 269.136C100.032 270.181 99.2138 271.002 98.2358 271.002C97.2577 271.002 96.4395 270.181 96.4395 269.136C96.4395 268.092 97.2576 267.271 98.2358 267.271C99.2139 267.271 100.032 268.092 100.032 269.136Z" fill="#2B5931" stroke="white"/>
<path d="M121.325 203.727C121.325 204.772 120.507 205.593 119.529 205.593C118.551 205.593 117.732 204.772 117.732 203.727C117.732 202.683 118.551 201.861 119.529 201.861C120.507 201.861 121.325 202.683 121.325 203.727Z" fill="#2B5931" stroke="white"/>
<path d="M121.325 221.401C121.325 222.446 120.507 223.267 119.529 223.267C118.551 223.267 117.732 222.446 117.732 221.401C117.732 220.356 118.551 219.535 119.529 219.535C120.507 219.535 121.325 220.356 121.325 221.401Z" fill="#2B5931" stroke="white"/>
<path d="M142.966 213.608C142.966 214.653 142.147 215.474 141.169 215.474C140.191 215.474 139.373 214.653 139.373 213.608C139.373 212.563 140.191 211.742 141.169 211.742C142.147 211.742 142.966 212.563 142.966 213.608Z" fill="#2B5931" stroke="white"/>
<path d="M161.266 176.171C161.266 177.215 160.448 178.036 159.47 178.036C158.492 178.036 157.674 177.215 157.674 176.171C157.674 175.126 158.492 174.305 159.47 174.305C160.448 174.305 161.266 175.126 161.266 176.171Z" fill="#2B5931" stroke="white"/>
<path d="M173.096 256.054C173.096 257.099 172.278 257.92 171.3 257.92C170.322 257.92 169.503 257.099 169.503 256.054C169.503 255.01 170.322 254.188 171.3 254.188C172.278 254.188 173.096 255.01 173.096 256.054Z" fill="#2B5931" stroke="white"/>
<path d="M196.059 213.608C196.059 214.653 195.241 215.474 194.263 215.474C193.284 215.474 192.466 214.653 192.466 213.608C192.466 212.563 193.284 211.742 194.263 211.742C195.241 211.742 196.059 212.563 196.059 213.608Z" fill="#2B5931" stroke="white"/>
<path d="M248.874 279.714C248.874 280.758 248.056 281.579 247.078 281.579C246.099 281.579 245.281 280.758 245.281 279.714C245.281 278.669 246.099 277.848 247.078 277.848C248.056 277.848 248.874 278.669 248.874 279.714Z" fill="#2B5931" stroke="white"/>
<path d="M247.412 295.788C247.412 296.832 246.594 297.654 245.616 297.654C244.638 297.654 243.82 296.832 243.82 295.788C243.82 294.743 244.638 293.922 245.616 293.922C246.594 293.922 247.412 294.743 247.412 295.788Z" fill="#2B5931" stroke="white"/>
<path d="M246.093 222.366C246.093 223.411 245.274 224.232 244.296 224.232C243.318 224.232 242.5 223.411 242.5 222.366C242.5 221.321 243.318 220.5 244.296 220.5C245.274 220.5 246.093 221.321 246.093 222.366Z" fill="#2B5931" stroke="white"/>
<path d="M43.877 208.389C43.877 209.434 43.0588 210.255 42.0807 210.255C41.1026 210.255 40.2844 209.434 40.2844 208.389C40.2844 207.345 41.1026 206.523 42.0807 206.523C43.0588 206.523 43.877 207.345 43.877 208.389Z" fill="#2B5931" stroke="white"/>
<path d="M87.7154 30.7389C87.7154 31.7836 86.8972 32.6048 85.9191 32.6048C84.941 32.6048 84.1228 31.7836 84.1228 30.7389C84.1228 29.6943 84.941 28.873 85.9191 28.873C86.8972 28.873 87.7154 29.6943 87.7154 30.7389Z" fill="#2B5931" stroke="white"/>
<path d="M109.774 61.4264C109.774 62.4711 108.956 63.2923 107.977 63.2923C106.999 63.2923 106.181 62.4711 106.181 61.4264C106.181 60.3818 106.999 59.5605 107.977 59.5605C108.956 59.5605 109.774 60.3818 109.774 61.4264Z" fill="#2B5931" stroke="white"/>
<path d="M154.378 14.6647C154.378 15.7094 153.56 16.5306 152.581 16.5306C151.603 16.5306 150.785 15.7094 150.785 14.6647C150.785 13.62 151.603 12.7988 152.581 12.7988C153.56 12.7988 154.378 13.62 154.378 14.6647Z" fill="#2B5931" stroke="white"/>
<path d="M121.046 42.2204C121.046 43.265 120.228 44.0863 119.25 44.0863C118.272 44.0863 117.454 43.265 117.454 42.2204C117.454 41.1757 118.272 40.3545 119.25 40.3545C120.228 40.3545 121.046 41.1757 121.046 42.2204Z" fill="#2B5931" stroke="white"/>
<path d="M197.172 42.9167C197.172 43.9613 196.354 44.7825 195.376 44.7825C194.398 44.7825 193.58 43.9613 193.58 42.9167C193.58 41.872 194.398 41.0508 195.376 41.0508C196.354 41.0508 197.172 41.872 197.172 42.9167Z" fill="#2B5931" stroke="white"/>
<path d="M208.445 58.7819C208.445 59.8266 207.627 60.6478 206.649 60.6478C205.671 60.6478 204.853 59.8266 204.853 58.7819C204.853 57.7372 205.671 56.916 206.649 56.916C207.627 56.916 208.445 57.7372 208.445 58.7819Z" fill="#2B5931" stroke="white"/>
<path d="M231.199 78.196C231.199 79.2406 230.381 80.0618 229.403 80.0618C228.425 80.0618 227.607 79.2406 227.607 78.196C227.607 77.1513 228.425 76.3301 229.403 76.3301C230.381 76.3301 231.199 77.1513 231.199 78.196Z" fill="#2B5931" stroke="white"/>
<path d="M203.593 80.3659C203.593 81.4106 202.774 82.2318 201.796 82.2318C200.818 82.2318 200 81.4106 200 80.3659C200 79.3212 200.818 78.5 201.796 78.5C202.774 78.5 203.593 79.3212 203.593 80.3659Z" fill="#2B5931" stroke="white"/>
<path d="M250.974 85.2246L238.031 98.5849V113.615L247.913 128.645V176.172" stroke="white" stroke-width="0.75" stroke-miterlimit="10"/>
<path d="M227.107 215.973V196.142L220.218 182.782V159.749" stroke="white" stroke-width="0.75" stroke-miterlimit="10"/>
<path d="M197.672 187.653V139.778" stroke="white" stroke-width="0.75" stroke-miterlimit="10"/>
<path d="M202.056 81.7441L206.997 95.4523V112.501L214.373 121.964V138.108" stroke="white" stroke-width="0.75" stroke-miterlimit="10"/>
<path d="M223.627 92.043V113.614" stroke="white" stroke-width="0.75" stroke-miterlimit="10"/>
<path d="M229.194 138.108L238.031 149.103V196.142" stroke="white" stroke-width="0.75" stroke-miterlimit="10"/>
<path d="M171.3 201.361L180.763 189.183V166.012" stroke="white" stroke-width="0.75" stroke-miterlimit="10"/>
<path d="M178.467 72.9072V109.926" stroke="white" stroke-width="0.75" stroke-miterlimit="10"/>
<path d="M130.175 61.9131V86.894H143.466V128.645" stroke="white" stroke-width="0.75" stroke-miterlimit="10"/>
<path d="M161.767 95.4531L157.174 109.927V142.284" stroke="white" stroke-width="0.75" stroke-miterlimit="10"/>
<path d="M170.186 124.053V139.779H186.191" stroke="white" stroke-width="0.75" stroke-miterlimit="10"/>
<path d="M47.6477 59.1992V112.014" stroke="white" stroke-width="0.75" stroke-miterlimit="10"/>
<path d="M10.9069 78.4043L24.6846 95.3134V112.014L9.23682 124.052L9.58474 158.914" stroke="white" stroke-width="0.75" stroke-miterlimit="10"/>
<path d="M22.0405 202.753V183.478H34.4962V156.827H44.3772V133.377" stroke="white" stroke-width="0.75" stroke-miterlimit="10"/>
<path d="M67.8271 194.61V155.017L77.0819 139.778L75.899 109.926" stroke="white" stroke-width="0.75" stroke-miterlimit="10"/>
<path d="M100.532 176.172V133.377" stroke="white" stroke-width="0.75" stroke-miterlimit="10"/>
<path d="M87.311 95.3134L98.2358 89.0508L113.614 112.014V138.108" stroke="white" stroke-width="0.75" stroke-miterlimit="10"/>
<path d="M130.175 112.014V163.367" stroke="white" stroke-width="0.75" stroke-miterlimit="10"/>
<path d="M11.3812 158.357C11.3812 159.402 10.563 160.223 9.58487 160.223C8.60677 160.223 7.78857 159.402 7.78857 158.357C7.78857 157.312 8.60677 156.491 9.58487 156.491C10.563 156.491 11.3812 157.312 11.3812 158.357Z" fill="#2B5931" stroke="white"/>
<path d="M46.1734 134.559C46.1734 135.604 45.3552 136.425 44.3771 136.425C43.399 136.425 42.5808 135.604 42.5808 134.559C42.5808 133.515 43.399 132.693 44.3771 132.693C45.3552 132.693 46.1734 133.515 46.1734 134.559Z" fill="#2B5931" stroke="white"/>
<path d="M23.8367 202.753C23.8367 203.797 23.0185 204.618 22.0404 204.618C21.0623 204.618 20.2441 203.797 20.2441 202.753C20.2441 201.708 21.0623 200.887 22.0404 200.887C23.0185 200.887 23.8367 201.708 23.8367 202.753Z" fill="#2B5931" stroke="white"/>
<path d="M69.6236 194.611C69.6236 195.656 68.8054 196.477 67.8273 196.477C66.8492 196.477 66.031 195.656 66.031 194.611C66.031 193.566 66.8492 192.745 67.8273 192.745C68.8054 192.745 69.6236 193.566 69.6236 194.611Z" fill="#2B5931" stroke="white"/>
<path d="M89.1072 95.3131C89.1072 96.3578 88.289 97.179 87.3109 97.179C86.3328 97.179 85.5146 96.3578 85.5146 95.3131C85.5146 94.2685 86.3328 93.4473 87.3109 93.4473C88.289 93.4473 89.1072 94.2685 89.1072 95.3131Z" fill="#2B5931" stroke="white"/>
<path d="M115.41 138.108C115.41 139.153 114.592 139.974 113.614 139.974C112.636 139.974 111.818 139.153 111.818 138.108C111.818 137.063 112.636 136.242 113.614 136.242C114.592 136.242 115.41 137.063 115.41 138.108Z" fill="#2B5931" stroke="white"/>
<path d="M131.971 112.014C131.971 113.059 131.153 113.88 130.175 113.88C129.197 113.88 128.379 113.059 128.379 112.014C128.379 110.97 129.197 110.148 130.175 110.148C131.153 110.148 131.971 110.97 131.971 112.014Z" fill="#2B5931" stroke="white"/>
<path d="M131.971 163.368C131.971 164.413 131.153 165.234 130.175 165.234C129.197 165.234 128.379 164.413 128.379 163.368C128.379 162.323 129.197 161.502 130.175 161.502C131.153 161.502 131.971 162.323 131.971 163.368Z" fill="#2B5931" stroke="white"/>
<path d="M163.563 95.4528C163.563 96.4975 162.745 97.3187 161.767 97.3187C160.788 97.3187 159.97 96.4975 159.97 95.4528C159.97 94.4081 160.788 93.5869 161.767 93.5869C162.745 93.5869 163.563 94.4081 163.563 95.4528Z" fill="#2B5931" stroke="white"/>
<path d="M158.97 141.1C158.97 142.145 158.152 142.966 157.174 142.966C156.196 142.966 155.378 142.145 155.378 141.1C155.378 140.056 156.196 139.234 157.174 139.234C158.152 139.234 158.97 140.056 158.97 141.1Z" fill="#2B5931" stroke="white"/>
<path d="M171.982 124.122C171.982 125.166 171.164 125.988 170.186 125.988C169.208 125.988 168.39 125.166 168.39 124.122C168.39 123.077 169.208 122.256 170.186 122.256C171.164 122.256 171.982 123.077 171.982 124.122Z" fill="#2B5931" stroke="white"/>
<path d="M187.987 139.848C187.987 140.893 187.169 141.714 186.191 141.714C185.213 141.714 184.395 140.893 184.395 139.848C184.395 138.804 185.213 137.982 186.191 137.982C187.169 137.982 187.987 138.804 187.987 139.848Z" fill="#2B5931" stroke="white"/>
<path d="M199.469 139.848C199.469 140.893 198.65 141.714 197.672 141.714C196.694 141.714 195.876 140.893 195.876 139.848C195.876 138.804 196.694 137.982 197.672 137.982C198.65 137.982 199.469 138.804 199.469 139.848Z" fill="#2B5931" stroke="white"/>
<path d="M216.169 138.178C216.169 139.223 215.351 140.044 214.372 140.044C213.394 140.044 212.576 139.223 212.576 138.178C212.576 137.134 213.394 136.312 214.372 136.312C215.351 136.312 216.169 137.134 216.169 138.178Z" fill="#2B5931" stroke="white"/>
<path d="M222.014 159.819C222.014 160.864 221.196 161.685 220.218 161.685C219.24 161.685 218.421 160.864 218.421 159.819C218.421 158.774 219.24 157.953 220.218 157.953C221.196 157.953 222.014 158.774 222.014 159.819Z" fill="#2B5931" stroke="white"/>
<path d="M228.903 216.044C228.903 217.088 228.085 217.909 227.107 217.909C226.128 217.909 225.31 217.088 225.31 216.044C225.31 214.999 226.128 214.178 227.107 214.178C228.085 214.178 228.903 214.999 228.903 216.044Z" fill="#2B5931" stroke="white"/>
<path d="M249.709 176.31C249.709 177.355 248.891 178.176 247.912 178.176C246.934 178.176 246.116 177.355 246.116 176.31C246.116 175.266 246.934 174.444 247.912 174.444C248.891 174.444 249.709 175.266 249.709 176.31Z" fill="#2B5931" stroke="white"/>
<path d="M252.771 85.2936C252.771 86.3383 251.952 87.1595 250.974 87.1595C249.996 87.1595 249.178 86.3383 249.178 85.2936C249.178 84.2489 249.996 83.4277 250.974 83.4277C251.952 83.4277 252.771 84.2489 252.771 85.2936Z" fill="#2B5931" stroke="white"/>
<path d="M47.6476 114.38C48.9158 114.38 49.9439 113.321 49.9439 112.014C49.9439 110.708 48.9158 109.648 47.6476 109.648C46.3794 109.648 45.3513 110.708 45.3513 112.014C45.3513 113.321 46.3794 114.38 47.6476 114.38Z" fill="white" stroke="white" stroke-miterlimit="10"/>
<path d="M75.8988 112.292C77.167 112.292 78.1951 111.233 78.1951 109.926C78.1951 108.62 77.167 107.561 75.8988 107.561C74.6306 107.561 73.6025 108.62 73.6025 109.926C73.6025 111.233 74.6306 112.292 75.8988 112.292Z" fill="white" stroke="white" stroke-miterlimit="10"/>
<path d="M100.532 135.743C101.8 135.743 102.828 134.683 102.828 133.377C102.828 132.07 101.8 131.011 100.532 131.011C99.2639 131.011 98.2358 132.07 98.2358 133.377C98.2358 134.683 99.2639 135.743 100.532 135.743Z" fill="white" stroke="white" stroke-miterlimit="10"/>
<path d="M100.532 178.536C101.8 178.536 102.828 177.477 102.828 176.171C102.828 174.864 101.8 173.805 100.532 173.805C99.2639 173.805 98.2358 174.864 98.2358 176.171C98.2358 177.477 99.2639 178.536 100.532 178.536Z" fill="white" stroke="white" stroke-miterlimit="10"/>
<path d="M143.674 129.758C144.943 129.758 145.971 128.699 145.971 127.392C145.971 126.086 144.943 125.026 143.674 125.026C142.406 125.026 141.378 126.086 141.378 127.392C141.378 128.699 142.406 129.758 143.674 129.758Z" fill="white" stroke="white" stroke-miterlimit="10"/>
<path d="M178.188 112.014C179.457 112.014 180.485 110.955 180.485 109.648C180.485 108.341 179.457 107.282 178.188 107.282C176.92 107.282 175.892 108.341 175.892 109.648C175.892 110.955 176.92 112.014 178.188 112.014Z" fill="white" stroke="white" stroke-miterlimit="10"/>
<path d="M223.627 93.7825C224.896 93.7825 225.924 92.7233 225.924 91.4167C225.924 90.11 224.896 89.0508 223.627 89.0508C222.359 89.0508 221.331 90.11 221.331 91.4167C221.331 92.7233 222.359 93.7825 223.627 93.7825Z" fill="white" stroke="white" stroke-miterlimit="10"/>
<path d="M223.627 116.745C224.896 116.745 225.924 115.686 225.924 114.38C225.924 113.073 224.896 112.014 223.627 112.014C222.359 112.014 221.331 113.073 221.331 114.38C221.331 115.686 222.359 116.745 223.627 116.745Z" fill="white" stroke="white" stroke-miterlimit="10"/>
<path d="M229.403 140.056C230.671 140.056 231.699 138.997 231.699 137.69C231.699 136.383 230.671 135.324 229.403 135.324C228.135 135.324 227.107 136.383 227.107 137.69C227.107 138.997 228.135 140.056 229.403 140.056Z" fill="white" stroke="white" stroke-miterlimit="10"/>
<path d="M171.3 203.727C172.568 203.727 173.596 202.668 173.596 201.361C173.596 200.054 172.568 198.995 171.3 198.995C170.032 198.995 169.003 200.054 169.003 201.361C169.003 202.668 170.032 203.727 171.3 203.727Z" fill="white" stroke="white" stroke-miterlimit="10"/>
<path d="M180.763 168.377C182.032 168.377 183.06 167.318 183.06 166.011C183.06 164.705 182.032 163.646 180.763 163.646C179.495 163.646 178.467 164.705 178.467 166.011C178.467 167.318 179.495 168.377 180.763 168.377Z" fill="white" stroke="white" stroke-miterlimit="10"/>
<path d="M197.672 190.228C198.94 190.228 199.969 189.169 199.969 187.862C199.969 186.555 198.94 185.496 197.672 185.496C196.404 185.496 195.376 186.555 195.376 187.862C195.376 189.169 196.404 190.228 197.672 190.228Z" fill="white" stroke="white" stroke-miterlimit="10"/>
<path d="M238.031 198.507C239.3 198.507 240.328 197.448 240.328 196.141C240.328 194.835 239.3 193.775 238.031 193.775C236.763 193.775 235.735 194.835 235.735 196.141C235.735 197.448 236.763 198.507 238.031 198.507Z" fill="white" stroke="white" stroke-miterlimit="10"/>
<path d="M11.0461 80.7708C12.3143 80.7708 13.3423 79.7116 13.3423 78.4049C13.3423 77.0983 12.3143 76.0391 11.0461 76.0391C9.77784 76.0391 8.74976 77.0983 8.74976 78.4049C8.74976 79.7116 9.77784 80.7708 11.0461 80.7708Z" fill="white" stroke="white" stroke-miterlimit="10"/>
</svg>
