<svg width="894" height="462" viewBox="0 0 894 462" fill="none" xmlns="http://www.w3.org/2000/svg">
<path d="M892 1.90039H2V460H892V1.90039Z" fill="white" stroke="#2B5931" stroke-width="3" stroke-miterlimit="10"/>
<path d="M30.8 2.7002L9.10001 28.9002V72.4002" stroke="#2B5931" stroke-width="0.75" stroke-miterlimit="10"/>
<path d="M84.2 1.90039L88 6.90039V23.5004L76.9 35.3004H25.2V84.6004" stroke="#2B5931" stroke-width="0.75" stroke-miterlimit="10"/>
<path d="M99.6 1.90039L106.6 9.80039V28.5004L88 44.7004H41.6V68.4004" stroke="#2B5931" stroke-width="0.75" stroke-miterlimit="10"/>
<path d="M106.6 50.8008V103.701" stroke="#2B5931" stroke-width="0.75" stroke-miterlimit="10"/>
<path d="M116.7 1.90039V8.30039L122.6 11.6004V43.2004" stroke="#2B5931" stroke-width="0.75" stroke-miterlimit="10"/>
<path d="M137.6 2.7002V40.5002H154.3V87.3002" stroke="#2B5931" stroke-width="0.75" stroke-miterlimit="10"/>
<path d="M170.5 22.5004V14.9004H154.3V1.90039" stroke="#2B5931" stroke-width="0.75" stroke-miterlimit="10"/>
<path d="M186.2 2.7002V28.6002H170.5V59.7002" stroke="#2B5931" stroke-width="0.75" stroke-miterlimit="10"/>
<path d="M203.2 2.7002V71.1002" stroke="#2B5931" stroke-width="0.75" stroke-miterlimit="10"/>
<path d="M222.3 1.90039L218.4 7.70039V20.1004" stroke="#2B5931" stroke-width="0.75" stroke-miterlimit="10"/>
<path d="M240.4 1.90039V101.3" stroke="#2B5931" stroke-width="0.75" stroke-miterlimit="10"/>
<path d="M266.7 1.90039L263.4 5.70039V70.5004" stroke="#2B5931" stroke-width="0.75" stroke-miterlimit="10"/>
<path d="M279.9 1.90039V60.7004" stroke="#2B5931" stroke-width="0.75" stroke-miterlimit="10"/>
<path d="M296.1 1.90039V22.5004" stroke="#2B5931" stroke-width="0.75" stroke-miterlimit="10"/>
<path d="M312.3 1.90039V27.6004L296.1 43.2004V83.5004" stroke="#2B5931" stroke-width="0.75" stroke-miterlimit="10"/>
<path d="M328.8 1.90039V24.1004L312.3 40.3004V95.8004" stroke="#2B5931" stroke-width="0.75" stroke-miterlimit="10"/>
<path d="M328.8 48.8008V111.401" stroke="#2B5931" stroke-width="0.75" stroke-miterlimit="10"/>
<path d="M344.5 1.90039V83.5004" stroke="#2B5931" stroke-width="0.75" stroke-miterlimit="10"/>
<path d="M367.4 1.90039L360.4 8.90039V27.3004L379.2 43.2004L425.6 42.6004V98.4004" stroke="#2B5931" stroke-width="0.75" stroke-miterlimit="10"/>
<path d="M377.8 2.7002V24.0002H401.8" stroke="#2B5931" stroke-width="0.75" stroke-miterlimit="10"/>
<path d="M437.1 2.7002L443.2 10.0002V66.3002" stroke="#2B5931" stroke-width="0.75" stroke-miterlimit="10"/>
<path d="M465.5 2.7002V27.5002" stroke="#2B5931" stroke-width="0.75" stroke-miterlimit="10"/>
<path d="M484 1.90039L490.4 12.1004V36.1004L480.6 48.8004V83.5004" stroke="#2B5931" stroke-width="0.75" stroke-miterlimit="10"/>
<path d="M507.8 42.6006V107.201" stroke="#2B5931" stroke-width="0.75" stroke-miterlimit="10"/>
<path d="M516.4 2.7002L526.3 15.1002V45.0002" stroke="#2B5931" stroke-width="0.75" stroke-miterlimit="10"/>
<path d="M541.9 2.7002V55.0002" stroke="#2B5931" stroke-width="0.75" stroke-miterlimit="10"/>
<path d="M541.9 115.6V83.5L557.4 77.7V37" stroke="#2B5931" stroke-width="0.75" stroke-miterlimit="10"/>
<path d="M573.5 29.9004V62.6004" stroke="#2B5931" stroke-width="0.75" stroke-miterlimit="10"/>
<path d="M589.6 1.90039V40.6004" stroke="#2B5931" stroke-width="0.75" stroke-miterlimit="10"/>
<path d="M606.8 1.90039V74.9004" stroke="#2B5931" stroke-width="0.75" stroke-miterlimit="10"/>
<path d="M626.4 1.90039L620.5 7.40039V21.2004" stroke="#2B5931" stroke-width="0.75" stroke-miterlimit="10"/>
<path d="M643.9 2.7002V99.1002" stroke="#2B5931" stroke-width="0.75" stroke-miterlimit="10"/>
<path d="M666.7 1.90039V71.2004" stroke="#2B5931" stroke-width="0.75" stroke-miterlimit="10"/>
<path d="M683.2 62.6004V16.2004L677.2 11.5004V1.90039" stroke="#2B5931" stroke-width="0.75" stroke-miterlimit="10"/>
<path d="M699 1.90039V24.8004" stroke="#2B5931" stroke-width="0.75" stroke-miterlimit="10"/>
<path d="M699 87.5004V42.6004L716.1 28.5004V1.90039" stroke="#2B5931" stroke-width="0.75" stroke-miterlimit="10"/>
<path d="M732.3 49.2002V113.1" stroke="#2B5931" stroke-width="0.75" stroke-miterlimit="10"/>
<path d="M716.1 97.3004V42.6004L732.3 27.3004V1.90039" stroke="#2B5931" stroke-width="0.75" stroke-miterlimit="10"/>
<path d="M754 1.90039L747 9.60039V32.2004V83.5004" stroke="#2B5931" stroke-width="0.75" stroke-miterlimit="10"/>
<path d="M770.5 1.90039L764.2 9.90039V29.9004L784.8 46.0004V100.2" stroke="#2B5931" stroke-width="0.75" stroke-miterlimit="10"/>
<path d="M764.2 49.2002V68.4002" stroke="#2B5931" stroke-width="0.75" stroke-miterlimit="10"/>
<path d="M786.6 1.90039V26.1004H804.8" stroke="#2B5931" stroke-width="0.75" stroke-miterlimit="10"/>
<path d="M826.9 1.90039L833.2 11.5004V71.2004" stroke="#2B5931" stroke-width="0.75" stroke-miterlimit="10"/>
<path d="M814.6 1.90039V44.7004L804.8 51.0004V77.7004" stroke="#2B5931" stroke-width="0.75" stroke-miterlimit="10"/>
<path d="M412.5 1.90039L416.2 12.1004V29.9004" stroke="#2B5931" stroke-width="0.75" stroke-miterlimit="10"/>
<path d="M860 2.7002L853.2 14.8002V43.7002L874.7 50.9002V87.3002" stroke="#2B5931" stroke-width="0.75" stroke-miterlimit="10"/>
<path d="M874.7 2.7002L887.5 25.1002V57.8002" stroke="#2B5931" stroke-width="0.75" stroke-miterlimit="10"/>
<path d="M49.1 1.90039L56.6 12.1004V27.0004" stroke="#2B5931" stroke-width="0.75" stroke-miterlimit="10"/>
<path d="M43.7 460V394.3L75.6 362.8V329" stroke="#2B5931" stroke-width="0.75" stroke-miterlimit="10"/>
<path d="M27.7 413.9L9.60001 394.5L59.6 343.8V298.5" stroke="#2B5931" stroke-width="0.75" stroke-miterlimit="10"/>
<path d="M14.8 372.6L29.9 356.1V344.2L45.4 329" stroke="#2B5931" stroke-width="0.75" stroke-miterlimit="10"/>
<path d="M9.60001 306.4V348.6" stroke="#2B5931" stroke-width="0.75" stroke-miterlimit="10"/>
<path d="M59.6 413.9V394.5L75.6 404.2V430.8L59.6 448.1V460" stroke="#2B5931" stroke-width="0.75" stroke-miterlimit="10"/>
<path d="M75.6 268.7V293.1L93.3 311.3V367.2" stroke="#2B5931" stroke-width="0.75" stroke-miterlimit="10"/>
<path d="M93.3 425.4V460" stroke="#2B5931" stroke-width="0.75" stroke-miterlimit="10"/>
<path d="M128.2 459.5L117.4 450.1V425.7" stroke="#2B5931" stroke-width="0.75" stroke-miterlimit="10"/>
<path d="M104.9 403.3V348.6L122.8 331.3V270.9" stroke="#2B5931" stroke-width="0.75" stroke-miterlimit="10"/>
<path d="M155.4 353L144.2 341.5L121.3 367.2V401" stroke="#2B5931" stroke-width="0.75" stroke-miterlimit="10"/>
<path d="M140.3 384.101V437.501L152.8 448.101" stroke="#2B5931" stroke-width="0.75" stroke-miterlimit="10"/>
<path d="M160.6 460L178.2 440.5V396.2L189.5 384.5V274" stroke="#2B5931" stroke-width="0.75" stroke-miterlimit="10"/>
<path d="M170.9 291.801V317.901" stroke="#2B5931" stroke-width="0.75" stroke-miterlimit="10"/>
<path d="M211 460.001L202 440.501V304.801" stroke="#2B5931" stroke-width="0.75" stroke-miterlimit="10"/>
<path d="M228.3 427.301V460.001" stroke="#2B5931" stroke-width="0.75" stroke-miterlimit="10"/>
<path d="M262.3 460L248.1 445.4V398.3H228.3V252.2" stroke="#2B5931" stroke-width="0.75" stroke-miterlimit="10"/>
<path d="M258.9 317.9L245.3 334.8V367.2" stroke="#2B5931" stroke-width="0.75" stroke-miterlimit="10"/>
<path d="M265.4 356.101V448.101L280 460.001" stroke="#2B5931" stroke-width="0.75" stroke-miterlimit="10"/>
<path d="M278.3 304.801L280 380.101L295.6 394.501V438.301L315 460.001" stroke="#2B5931" stroke-width="0.75" stroke-miterlimit="10"/>
<path d="M311.9 326L299.4 339.2V362.4L315 378.8V434.8" stroke="#2B5931" stroke-width="0.75" stroke-miterlimit="10"/>
<path d="M317.6 353.5L329.6 341.5L354.2 371.3V401" stroke="#2B5931" stroke-width="0.75" stroke-miterlimit="10"/>
<path d="M331.8 382.5V460" stroke="#2B5931" stroke-width="0.75" stroke-miterlimit="10"/>
<path d="M350.3 317.9V347.3L369.3 371.3V418.8" stroke="#2B5931" stroke-width="0.75" stroke-miterlimit="10"/>
<path d="M352.1 424.101L344.3 438.301V460.001" stroke="#2B5931" stroke-width="0.75" stroke-miterlimit="10"/>
<path d="M393 371.301L381 380.301V445.901L393 460.001" stroke="#2B5931" stroke-width="0.75" stroke-miterlimit="10"/>
<path d="M381 345.901V308.701L397.1 292.001V259.301" stroke="#2B5931" stroke-width="0.75" stroke-miterlimit="10"/>
<path d="M397.1 326V358L428.3 390V442.1" stroke="#2B5931" stroke-width="0.75" stroke-miterlimit="10"/>
<path d="M410.7 460V443.6L397.1 427.3V382.5L412.7 395.2V418.8" stroke="#2B5931" stroke-width="0.75" stroke-miterlimit="10"/>
<path d="M446.5 458.901V419.801" stroke="#2B5931" stroke-width="0.75" stroke-miterlimit="10"/>
<path d="M471.3 460.001L484.8 447.601V356.101" stroke="#2B5931" stroke-width="0.75" stroke-miterlimit="10"/>
<path d="M463.2 367.2V333.4L478 319.5" stroke="#2B5931" stroke-width="0.75" stroke-miterlimit="10"/>
<path d="M437 261.7V350.4" stroke="#2B5931" stroke-width="0.75" stroke-miterlimit="10"/>
<path d="M521.8 460.001L503.9 443.801V392.601L516.2 379.901V304.801" stroke="#2B5931" stroke-width="0.75" stroke-miterlimit="10"/>
<path d="M533.5 354.501L545 342.601L568.9 367.201V396.701" stroke="#2B5931" stroke-width="0.75" stroke-miterlimit="10"/>
<path d="M544.3 380.301L533.5 396.701V432.701L544.3 442.101V460.001" stroke="#2B5931" stroke-width="0.75" stroke-miterlimit="10"/>
<path d="M580 424.101L565.8 438.301V460.001" stroke="#2B5931" stroke-width="0.75" stroke-miterlimit="10"/>
<path d="M567.2 321.2L585.7 337.9V380.3" stroke="#2B5931" stroke-width="0.75" stroke-miterlimit="10"/>
<path d="M598.8 378V444.1L613.3 460" stroke="#2B5931" stroke-width="0.75" stroke-miterlimit="10"/>
<path d="M613.3 261.7V292.2L598.8 308.8V343.4" stroke="#2B5931" stroke-width="0.75" stroke-miterlimit="10"/>
<path d="M613.3 329.2V430.7L630.4 447.6V460" stroke="#2B5931" stroke-width="0.75" stroke-miterlimit="10"/>
<path d="M626.4 388.4L640.5 401V440" stroke="#2B5931" stroke-width="0.75" stroke-miterlimit="10"/>
<path d="M630.4 282.801V343.401L664.8 378.901V406.501" stroke="#2B5931" stroke-width="0.75" stroke-miterlimit="10"/>
<path d="M656.3 424.101V460.001" stroke="#2B5931" stroke-width="0.75" stroke-miterlimit="10"/>
<path d="M647.6 326.801L678.7 358.801V446.901L671.1 460.001" stroke="#2B5931" stroke-width="0.75" stroke-miterlimit="10"/>
<path d="M689.8 308.801V342.601" stroke="#2B5931" stroke-width="0.75" stroke-miterlimit="10"/>
<path d="M696.2 458.9V401.8L717.5 379.9V316.9" stroke="#2B5931" stroke-width="0.75" stroke-miterlimit="10"/>
<path d="M720.9 433.801V400.401L740.6 380.301V460.001" stroke="#2B5931" stroke-width="0.75" stroke-miterlimit="10"/>
<path d="M734.7 291.301V344.601L755.8 366.301V427.801" stroke="#2B5931" stroke-width="0.75" stroke-miterlimit="10"/>
<path d="M766.3 460V420.2" stroke="#2B5931" stroke-width="0.75" stroke-miterlimit="10"/>
<path d="M784.7 406.501V353.601L802.1 335.601V274.301" stroke="#2B5931" stroke-width="0.75" stroke-miterlimit="10"/>
<path d="M755.8 272V295.1L773.7 315.9V357.4" stroke="#2B5931" stroke-width="0.75" stroke-miterlimit="10"/>
<path d="M788.3 440L806.2 452.7V460" stroke="#2B5931" stroke-width="0.75" stroke-miterlimit="10"/>
<path d="M822.3 460.001V386.801" stroke="#2B5931" stroke-width="0.75" stroke-miterlimit="10"/>
<path d="M802.1 414.201V366.801L825 344.601V325.601" stroke="#2B5931" stroke-width="0.75" stroke-miterlimit="10"/>
<path d="M850.7 296.5V332.9" stroke="#2B5931" stroke-width="0.75" stroke-miterlimit="10"/>
<path d="M840.6 460.001L856.2 445.701V386.801L868.6 362.601V274.301" stroke="#2B5931" stroke-width="0.75" stroke-miterlimit="10"/>
<path d="M874.5 460L886 446.6V408.4" stroke="#2B5931" stroke-width="0.75" stroke-miterlimit="10"/>
<path d="M9.09999 75.8C10.9225 75.8 12.4 74.2778 12.4 72.4C12.4 70.5222 10.9225 69 9.09999 69C7.27745 69 5.79999 70.5222 5.79999 72.4C5.79999 74.2778 7.27745 75.8 9.09999 75.8Z" fill="#2B5931"/>
<path d="M56.6 30.4006C58.4225 30.4006 59.9 28.8784 59.9 27.0006C59.9 25.1228 58.4225 23.6006 56.6 23.6006C54.7774 23.6006 53.3 25.1228 53.3 27.0006C53.3 28.8784 54.7774 30.4006 56.6 30.4006Z" fill="#2B5931"/>
<path d="M41.6 71.8C43.4225 71.8 44.9 70.2778 44.9 68.4C44.9 66.5222 43.4225 65 41.6 65C39.7774 65 38.3 66.5222 38.3 68.4C38.3 70.2778 39.7774 71.8 41.6 71.8Z" fill="#2B5931"/>
<path d="M25.2 88.0002C27.0225 88.0002 28.5 86.478 28.5 84.6002C28.5 82.7224 27.0225 81.2002 25.2 81.2002C23.3775 81.2002 21.9 82.7224 21.9 84.6002C21.9 86.478 23.3775 88.0002 25.2 88.0002Z" fill="white" stroke="#2B5931" stroke-miterlimit="10"/>
<path d="M9.59999 352C11.4225 352 12.9 350.478 12.9 348.6C12.9 346.722 11.4225 345.2 9.59999 345.2C7.77745 345.2 6.29999 346.722 6.29999 348.6C6.29999 350.478 7.77745 352 9.59999 352Z" fill="white" stroke="#2B5931" stroke-miterlimit="10"/>
<path d="M14.8 376C16.6225 376 18.1 374.478 18.1 372.6C18.1 370.722 16.6225 369.2 14.8 369.2C12.9775 369.2 11.5 370.722 11.5 372.6C11.5 374.478 12.9775 376 14.8 376Z" fill="white" stroke="#2B5931" stroke-miterlimit="10"/>
<path d="M45.4 332.401C47.2225 332.401 48.7 330.878 48.7 329.001C48.7 327.123 47.2225 325.601 45.4 325.601C43.5774 325.601 42.1 327.123 42.1 329.001C42.1 330.878 43.5774 332.401 45.4 332.401Z" fill="white" stroke="#2B5931" stroke-miterlimit="10"/>
<path d="M75.6 272.1C77.4225 272.1 78.9 270.578 78.9 268.7C78.9 266.822 77.4225 265.3 75.6 265.3C73.7774 265.3 72.3 266.822 72.3 268.7C72.3 270.578 73.7774 272.1 75.6 272.1Z" fill="white" stroke="#2B5931" stroke-miterlimit="10"/>
<path d="M93.3 370.401C95.1225 370.401 96.6 368.878 96.6 367.001C96.6 365.123 95.1225 363.601 93.3 363.601C91.4775 363.601 90 365.123 90 367.001C90 368.878 91.4775 370.401 93.3 370.401Z" fill="white" stroke="#2B5931" stroke-miterlimit="10"/>
<path d="M93.3 428.8C95.1225 428.8 96.6 427.278 96.6 425.4C96.6 423.522 95.1225 422 93.3 422C91.4775 422 90 423.522 90 425.4C90 427.278 91.4775 428.8 93.3 428.8Z" fill="white" stroke="#2B5931" stroke-miterlimit="10"/>
<path d="M122.8 275.401C124.623 275.401 126.1 273.878 126.1 272.001C126.1 270.123 124.623 268.601 122.8 268.601C120.977 268.601 119.5 270.123 119.5 272.001C119.5 273.878 120.977 275.401 122.8 275.401Z" fill="white" stroke="#2B5931" stroke-miterlimit="10"/>
<path d="M121.3 404.401C123.123 404.401 124.6 402.878 124.6 401.001C124.6 399.123 123.123 397.601 121.3 397.601C119.477 397.601 118 399.123 118 401.001C118 402.878 119.477 404.401 121.3 404.401Z" fill="white" stroke="#2B5931" stroke-miterlimit="10"/>
<path d="M152.1 451.5C153.923 451.5 155.4 449.978 155.4 448.1C155.4 446.222 153.923 444.7 152.1 444.7C150.277 444.7 148.8 446.222 148.8 448.1C148.8 449.978 150.277 451.5 152.1 451.5Z" fill="white" stroke="#2B5931" stroke-miterlimit="10"/>
<path d="M189.5 278.8C191.323 278.8 192.8 277.278 192.8 275.4C192.8 273.522 191.323 272 189.5 272C187.677 272 186.2 273.522 186.2 275.4C186.2 277.278 187.677 278.8 189.5 278.8Z" fill="white" stroke="#2B5931" stroke-miterlimit="10"/>
<path d="M228.3 430.901C230.123 430.901 231.6 429.378 231.6 427.501C231.6 425.623 230.123 424.101 228.3 424.101C226.477 424.101 225 425.623 225 427.501C225 429.378 226.477 430.901 228.3 430.901Z" fill="white" stroke="#2B5931" stroke-miterlimit="10"/>
<path d="M258.9 321.3C260.723 321.3 262.2 319.778 262.2 317.9C262.2 316.022 260.723 314.5 258.9 314.5C257.077 314.5 255.6 316.022 255.6 317.9C255.6 319.778 257.077 321.3 258.9 321.3Z" fill="white" stroke="#2B5931" stroke-miterlimit="10"/>
<path d="M265.4 359.5C267.223 359.5 268.7 357.978 268.7 356.1C268.7 354.222 267.223 352.7 265.4 352.7C263.577 352.7 262.1 354.222 262.1 356.1C262.1 357.978 263.577 359.5 265.4 359.5Z" fill="white" stroke="#2B5931" stroke-miterlimit="10"/>
<path d="M310.5 331.6C312.323 331.6 313.8 330.078 313.8 328.2C313.8 326.322 312.323 324.8 310.5 324.8C308.677 324.8 307.2 326.322 307.2 328.2C307.2 330.078 308.677 331.6 310.5 331.6Z" fill="white" stroke="#2B5931" stroke-miterlimit="10"/>
<path d="M315 437.6C316.823 437.6 318.3 436.078 318.3 434.2C318.3 432.322 316.823 430.8 315 430.8C313.177 430.8 311.7 432.322 311.7 434.2C311.7 436.078 313.177 437.6 315 437.6Z" fill="white" stroke="#2B5931" stroke-miterlimit="10"/>
<path d="M317.6 356.2C319.423 356.2 320.9 354.678 320.9 352.8C320.9 350.923 319.423 349.4 317.6 349.4C315.777 349.4 314.3 350.923 314.3 352.8C314.3 354.678 315.777 356.2 317.6 356.2Z" fill="white" stroke="#2B5931" stroke-miterlimit="10"/>
<path d="M331.8 387.1C333.623 387.1 335.1 385.578 335.1 383.7C335.1 381.822 333.623 380.3 331.8 380.3C329.977 380.3 328.5 381.822 328.5 383.7C328.5 385.578 329.977 387.1 331.8 387.1Z" fill="white" stroke="#2B5931" stroke-miterlimit="10"/>
<path d="M369.3 421.3C371.123 421.3 372.6 419.778 372.6 417.9C372.6 416.022 371.123 414.5 369.3 414.5C367.477 414.5 366 416.022 366 417.9C366 419.778 367.477 421.3 369.3 421.3Z" fill="white" stroke="#2B5931" stroke-miterlimit="10"/>
<path d="M393 374.7C394.823 374.7 396.3 373.178 396.3 371.3C396.3 369.423 394.823 367.9 393 367.9C391.177 367.9 389.7 369.423 389.7 371.3C389.7 373.178 391.177 374.7 393 374.7Z" fill="white" stroke="#2B5931" stroke-miterlimit="10"/>
<path d="M397.1 329.401C398.923 329.401 400.4 327.878 400.4 326.001C400.4 324.123 398.923 322.601 397.1 322.601C395.277 322.601 393.8 324.123 393.8 326.001C393.8 327.878 395.277 329.401 397.1 329.401Z" fill="white" stroke="#2B5931" stroke-miterlimit="10"/>
<path d="M428.3 445.5C430.123 445.5 431.6 443.978 431.6 442.1C431.6 440.222 430.123 438.7 428.3 438.7C426.477 438.7 425 440.222 425 442.1C425 443.978 426.477 445.5 428.3 445.5Z" fill="white" stroke="#2B5931" stroke-miterlimit="10"/>
<path d="M463.2 370.6C465.023 370.6 466.5 369.078 466.5 367.2C466.5 365.322 465.023 363.8 463.2 363.8C461.377 363.8 459.9 365.322 459.9 367.2C459.9 369.078 461.377 370.6 463.2 370.6Z" fill="white" stroke="#2B5931" stroke-miterlimit="10"/>
<path d="M478 322.901C479.823 322.901 481.3 321.378 481.3 319.501C481.3 317.623 479.823 316.101 478 316.101C476.177 316.101 474.7 317.623 474.7 319.501C474.7 321.378 476.177 322.901 478 322.901Z" fill="white" stroke="#2B5931" stroke-miterlimit="10"/>
<path d="M533.5 357.6C535.323 357.6 536.8 356.078 536.8 354.2C536.8 352.322 535.323 350.8 533.5 350.8C531.677 350.8 530.2 352.322 530.2 354.2C530.2 356.078 531.677 357.6 533.5 357.6Z" fill="white" stroke="#2B5931" stroke-miterlimit="10"/>
<path d="M585.7 383.7C587.523 383.7 589 382.178 589 380.3C589 378.423 587.523 376.9 585.7 376.9C583.877 376.9 582.4 378.423 582.4 380.3C582.4 382.178 583.877 383.7 585.7 383.7Z" fill="white" stroke="#2B5931" stroke-miterlimit="10"/>
<path d="M598.8 346C600.623 346 602.1 344.478 602.1 342.6C602.1 340.722 600.623 339.2 598.8 339.2C596.977 339.2 595.5 340.722 595.5 342.6C595.5 344.478 596.977 346 598.8 346Z" fill="white" stroke="#2B5931" stroke-miterlimit="10"/>
<path d="M598.8 382.5C600.623 382.5 602.1 380.978 602.1 379.1C602.1 377.222 600.623 375.7 598.8 375.7C596.977 375.7 595.5 377.222 595.5 379.1C595.5 380.978 596.977 382.5 598.8 382.5Z" fill="white" stroke="#2B5931" stroke-miterlimit="10"/>
<path d="M613.3 333.6C615.123 333.6 616.6 332.078 616.6 330.2C616.6 328.322 615.123 326.8 613.3 326.8C611.477 326.8 610 328.322 610 330.2C610 332.078 611.477 333.6 613.3 333.6Z" fill="white" stroke="#2B5931" stroke-miterlimit="10"/>
<path d="M630.4 286.2C632.223 286.2 633.7 284.678 633.7 282.8C633.7 280.923 632.223 279.4 630.4 279.4C628.577 279.4 627.1 280.923 627.1 282.8C627.1 284.678 628.577 286.2 630.4 286.2Z" fill="white" stroke="#2B5931" stroke-miterlimit="10"/>
<path d="M664.8 409.901C666.623 409.901 668.1 408.378 668.1 406.501C668.1 404.623 666.623 403.101 664.8 403.101C662.977 403.101 661.5 404.623 661.5 406.501C661.5 408.378 662.977 409.901 664.8 409.901Z" fill="white" stroke="#2B5931" stroke-miterlimit="10"/>
<path d="M656.3 427.5C658.123 427.5 659.6 425.978 659.6 424.1C659.6 422.222 658.123 420.7 656.3 420.7C654.477 420.7 653 422.222 653 424.1C653 425.978 654.477 427.5 656.3 427.5Z" fill="white" stroke="#2B5931" stroke-miterlimit="10"/>
<path d="M689.8 312.2C691.623 312.2 693.1 310.678 693.1 308.8C693.1 306.923 691.623 305.4 689.8 305.4C687.977 305.4 686.5 306.923 686.5 308.8C686.5 310.678 687.977 312.2 689.8 312.2Z" fill="white" stroke="#2B5931" stroke-miterlimit="10"/>
<path d="M717.7 320.3C719.523 320.3 721 318.778 721 316.9C721 315.022 719.523 313.5 717.7 313.5C715.877 313.5 714.4 315.022 714.4 316.9C714.4 318.778 715.877 320.3 717.7 320.3Z" fill="white" stroke="#2B5931" stroke-miterlimit="10"/>
<path d="M755.8 431.2C757.623 431.2 759.1 429.678 759.1 427.8C759.1 425.923 757.623 424.4 755.8 424.4C753.977 424.4 752.5 425.923 752.5 427.8C752.5 429.678 753.977 431.2 755.8 431.2Z" fill="white" stroke="#2B5931" stroke-miterlimit="10"/>
<path d="M766.3 424.401C768.123 424.401 769.6 422.878 769.6 421.001C769.6 419.123 768.123 417.601 766.3 417.601C764.477 417.601 763 419.123 763 421.001C763 422.878 764.477 424.401 766.3 424.401Z" fill="white" stroke="#2B5931" stroke-miterlimit="10"/>
<path d="M802.1 279.1C803.923 279.1 805.4 277.578 805.4 275.7C805.4 273.822 803.923 272.3 802.1 272.3C800.277 272.3 798.8 273.822 798.8 275.7C798.8 277.578 800.277 279.1 802.1 279.1Z" fill="white" stroke="#2B5931" stroke-miterlimit="10"/>
<path d="M784.7 409.901C786.523 409.901 788 408.378 788 406.501C788 404.623 786.523 403.101 784.7 403.101C782.877 403.101 781.4 404.623 781.4 406.501C781.4 408.378 782.877 409.901 784.7 409.901Z" fill="white" stroke="#2B5931" stroke-miterlimit="10"/>
<path d="M822.3 390.2C824.123 390.2 825.6 388.678 825.6 386.8C825.6 384.923 824.123 383.4 822.3 383.4C820.477 383.4 819 384.923 819 386.8C819 388.678 820.477 390.2 822.3 390.2Z" fill="white" stroke="#2B5931" stroke-miterlimit="10"/>
<path d="M580 427.5C581.823 427.5 583.3 425.978 583.3 424.1C583.3 422.222 581.823 420.7 580 420.7C578.177 420.7 576.7 422.222 576.7 424.1C576.7 425.978 578.177 427.5 580 427.5Z" fill="white" stroke="#2B5931" stroke-miterlimit="10"/>
<path d="M397.1 262.7C398.923 262.7 400.4 261.178 400.4 259.3C400.4 257.423 398.923 255.9 397.1 255.9C395.277 255.9 393.8 257.423 393.8 259.3C393.8 261.178 395.277 262.7 397.1 262.7Z" fill="white" stroke="#2B5931" stroke-miterlimit="10"/>
<path d="M106.6 55.0002C108.423 55.0002 109.9 53.478 109.9 51.6002C109.9 49.7224 108.423 48.2002 106.6 48.2002C104.777 48.2002 103.3 49.7224 103.3 51.6002C103.3 53.478 104.777 55.0002 106.6 55.0002Z" fill="white" stroke="#2B5931" stroke-miterlimit="10"/>
<path d="M170.5 25.0002C172.323 25.0002 173.8 23.478 173.8 21.6002C173.8 19.7224 172.323 18.2002 170.5 18.2002C168.677 18.2002 167.2 19.7224 167.2 21.6002C167.2 23.478 168.677 25.0002 170.5 25.0002Z" fill="white" stroke="#2B5931" stroke-miterlimit="10"/>
<path d="M203.2 74.5002C205.023 74.5002 206.5 72.978 206.5 71.1002C206.5 69.2224 205.023 67.7002 203.2 67.7002C201.377 67.7002 199.9 69.2224 199.9 71.1002C199.9 72.978 201.377 74.5002 203.2 74.5002Z" fill="white" stroke="#2B5931" stroke-miterlimit="10"/>
<path d="M186.3 87.8C188.123 87.8 189.6 86.2778 189.6 84.4C189.6 82.5222 188.123 81 186.3 81C184.477 81 183 82.5222 183 84.4C183 86.2778 184.477 87.8 186.3 87.8Z" fill="white" stroke="#2B5931" stroke-miterlimit="10"/>
<path d="M240.4 103.7C242.223 103.7 243.7 102.178 243.7 100.3C243.7 98.4226 242.223 96.9004 240.4 96.9004C238.577 96.9004 237.1 98.4226 237.1 100.3C237.1 102.178 238.577 103.7 240.4 103.7Z" fill="white" stroke="#2B5931" stroke-miterlimit="10"/>
<path d="M263.4 73.9006C265.223 73.9006 266.7 72.3784 266.7 70.5006C266.7 68.6228 265.223 67.1006 263.4 67.1006C261.577 67.1006 260.1 68.6228 260.1 70.5006C260.1 72.3784 261.577 73.9006 263.4 73.9006Z" fill="white" stroke="#2B5931" stroke-miterlimit="10"/>
<path d="M296.1 25.0002C297.923 25.0002 299.4 23.478 299.4 21.6002C299.4 19.7224 297.923 18.2002 296.1 18.2002C294.277 18.2002 292.8 19.7224 292.8 21.6002C292.8 23.478 294.277 25.0002 296.1 25.0002Z" fill="white" stroke="#2B5931" stroke-miterlimit="10"/>
<path d="M312.3 99.2004C314.123 99.2004 315.6 97.6782 315.6 95.8004C315.6 93.9226 314.123 92.4004 312.3 92.4004C310.477 92.4004 309 93.9226 309 95.8004C309 97.6782 310.477 99.2004 312.3 99.2004Z" fill="white" stroke="#2B5931" stroke-miterlimit="10"/>
<path d="M328.8 53.5002C330.623 53.5002 332.1 51.978 332.1 50.1002C332.1 48.2224 330.623 46.7002 328.8 46.7002C326.977 46.7002 325.5 48.2224 325.5 50.1002C325.5 51.978 326.977 53.5002 328.8 53.5002Z" fill="white" stroke="#2B5931" stroke-miterlimit="10"/>
<path d="M344.5 86.9006C346.323 86.9006 347.8 85.3784 347.8 83.5006C347.8 81.6228 346.323 80.1006 344.5 80.1006C342.677 80.1006 341.2 81.6228 341.2 83.5006C341.2 85.3784 342.677 86.9006 344.5 86.9006Z" fill="white" stroke="#2B5931" stroke-miterlimit="10"/>
<path d="M416.2 33.3C418.023 33.3 419.5 31.7778 419.5 29.9C419.5 28.0222 418.023 26.5 416.2 26.5C414.377 26.5 412.9 28.0222 412.9 29.9C412.9 31.7778 414.377 33.3 416.2 33.3Z" fill="white" stroke="#2B5931" stroke-miterlimit="10"/>
<path d="M443.2 68.4006C445.023 68.4006 446.5 66.8784 446.5 65.0006C446.5 63.1228 445.023 61.6006 443.2 61.6006C441.377 61.6006 439.9 63.1228 439.9 65.0006C439.9 66.8784 441.377 68.4006 443.2 68.4006Z" fill="white" stroke="#2B5931" stroke-miterlimit="10"/>
<path d="M480.6 86.9006C482.423 86.9006 483.9 85.3784 483.9 83.5006C483.9 81.6228 482.423 80.1006 480.6 80.1006C478.777 80.1006 477.3 81.6228 477.3 83.5006C477.3 85.3784 478.777 86.9006 480.6 86.9006Z" fill="white" stroke="#2B5931" stroke-miterlimit="10"/>
<path d="M507.8 46.0002C509.623 46.0002 511.1 44.478 511.1 42.6002C511.1 40.7224 509.623 39.2002 507.8 39.2002C505.977 39.2002 504.5 40.7224 504.5 42.6002C504.5 44.478 505.977 46.0002 507.8 46.0002Z" fill="white" stroke="#2B5931" stroke-miterlimit="10"/>
<path d="M541.9 58.4006C543.723 58.4006 545.2 56.8784 545.2 55.0006C545.2 53.1228 543.723 51.6006 541.9 51.6006C540.077 51.6006 538.6 53.1228 538.6 55.0006C538.6 56.8784 540.077 58.4006 541.9 58.4006Z" fill="white" stroke="#2B5931" stroke-miterlimit="10"/>
<path d="M541.9 119C543.723 119 545.2 117.478 545.2 115.6C545.2 113.722 543.723 112.2 541.9 112.2C540.077 112.2 538.6 113.722 538.6 115.6C538.6 117.478 540.077 119 541.9 119Z" fill="white" stroke="#2B5931" stroke-miterlimit="10"/>
<path d="M573.5 34.0998C575.323 34.0998 576.8 32.5776 576.8 30.6998C576.8 28.822 575.323 27.2998 573.5 27.2998C571.677 27.2998 570.2 28.822 570.2 30.6998C570.2 32.5776 571.677 34.0998 573.5 34.0998Z" fill="white" stroke="#2B5931" stroke-miterlimit="10"/>
<path d="M589.6 44.0002C591.423 44.0002 592.9 42.478 592.9 40.6002C592.9 38.7224 591.423 37.2002 589.6 37.2002C587.777 37.2002 586.3 38.7224 586.3 40.6002C586.3 42.478 587.777 44.0002 589.6 44.0002Z" fill="white" stroke="#2B5931" stroke-miterlimit="10"/>
<path d="M620.5 24.5998C622.323 24.5998 623.8 23.0776 623.8 21.1998C623.8 19.322 622.323 17.7998 620.5 17.7998C618.677 17.7998 617.2 19.322 617.2 21.1998C617.2 23.0776 618.677 24.5998 620.5 24.5998Z" fill="white" stroke="#2B5931" stroke-miterlimit="10"/>
<path d="M666.7 74.5998C668.523 74.5998 670 73.0776 670 71.1998C670 69.322 668.523 67.7998 666.7 67.7998C664.877 67.7998 663.4 69.322 663.4 71.1998C663.4 73.0776 664.877 74.5998 666.7 74.5998Z" fill="white" stroke="#2B5931" stroke-miterlimit="10"/>
<path d="M699 28.0002C700.823 28.0002 702.3 26.478 702.3 24.6002C702.3 22.7224 700.823 21.2002 699 21.2002C697.177 21.2002 695.7 22.7224 695.7 24.6002C695.7 26.478 697.177 28.0002 699 28.0002Z" fill="white" stroke="#2B5931" stroke-miterlimit="10"/>
<path d="M699 90.9006C700.823 90.9006 702.3 89.3784 702.3 87.5006C702.3 85.6228 700.823 84.1006 699 84.1006C697.177 84.1006 695.7 85.6228 695.7 87.5006C695.7 89.3784 697.177 90.9006 699 90.9006Z" fill="white" stroke="#2B5931" stroke-miterlimit="10"/>
<path d="M732.3 116.5C734.123 116.5 735.6 114.978 735.6 113.1C735.6 111.222 734.123 109.7 732.3 109.7C730.477 109.7 729 111.222 729 113.1C729 114.978 730.477 116.5 732.3 116.5Z" fill="white" stroke="#2B5931" stroke-miterlimit="10"/>
<path d="M764.2 71.8C766.023 71.8 767.5 70.2778 767.5 68.4C767.5 66.5222 766.023 65 764.2 65C762.377 65 760.9 66.5222 760.9 68.4C760.9 70.2778 762.377 71.8 764.2 71.8Z" fill="white" stroke="#2B5931" stroke-miterlimit="10"/>
<path d="M764.2 52.5998C766.023 52.5998 767.5 51.0776 767.5 49.1998C767.5 47.322 766.023 45.7998 764.2 45.7998C762.377 45.7998 760.9 47.322 760.9 49.1998C760.9 51.0776 762.377 52.5998 764.2 52.5998Z" fill="white" stroke="#2B5931" stroke-miterlimit="10"/>
<path d="M804.8 29.5002C806.623 29.5002 808.1 27.978 808.1 26.1002C808.1 24.2224 806.623 22.7002 804.8 22.7002C802.977 22.7002 801.5 24.2224 801.5 26.1002C801.5 27.978 802.977 29.5002 804.8 29.5002Z" fill="white" stroke="#2B5931" stroke-miterlimit="10"/>
<path d="M833.2 74.5998C835.023 74.5998 836.5 73.0776 836.5 71.1998C836.5 69.322 835.023 67.7998 833.2 67.7998C831.377 67.7998 829.9 69.322 829.9 71.1998C829.9 73.0776 831.377 74.5998 833.2 74.5998Z" fill="white" stroke="#2B5931" stroke-miterlimit="10"/>
<path d="M887.5 61.2004C889.323 61.2004 890.8 59.6782 890.8 57.8004C890.8 55.9226 889.323 54.4004 887.5 54.4004C885.677 54.4004 884.2 55.9226 884.2 57.8004C884.2 59.6782 885.677 61.2004 887.5 61.2004Z" fill="white" stroke="#2B5931" stroke-miterlimit="10"/>
<path d="M106.6 107.1C108.423 107.1 109.9 105.578 109.9 103.7C109.9 101.822 108.423 100.3 106.6 100.3C104.777 100.3 103.3 101.822 103.3 103.7C103.3 105.578 104.777 107.1 106.6 107.1Z" fill="white" stroke="#2B5931" stroke-miterlimit="10"/>
<path d="M9.59999 309.8C11.4225 309.8 12.9 308.278 12.9 306.4C12.9 304.522 11.4225 303 9.59999 303C7.77745 303 6.29999 304.522 6.29999 306.4C6.29999 308.278 7.77745 309.8 9.59999 309.8Z" fill="#2B5931"/>
<path d="M27.7 417.3C29.5225 417.3 31 415.778 31 413.9C31 412.022 29.5225 410.5 27.7 410.5C25.8775 410.5 24.4 412.022 24.4 413.9C24.4 415.778 25.8775 417.3 27.7 417.3Z" fill="#2B5931"/>
<path d="M75.6 334.3C77.4225 334.3 78.9 332.778 78.9 330.9C78.9 329.022 77.4225 327.5 75.6 327.5C73.7774 327.5 72.3 329.022 72.3 330.9C72.3 332.778 73.7774 334.3 75.6 334.3Z" fill="#2B5931"/>
<path d="M59.6 417.3C61.4225 417.3 62.9 415.778 62.9 413.9C62.9 412.022 61.4225 410.5 59.6 410.5C57.7774 410.5 56.3 412.022 56.3 413.9C56.3 415.778 57.7774 417.3 59.6 417.3Z" fill="#2B5931"/>
<path d="M117.4 429.1C119.223 429.1 120.7 427.578 120.7 425.7C120.7 423.822 119.223 422.3 117.4 422.3C115.577 422.3 114.1 423.822 114.1 425.7C114.1 427.578 115.577 429.1 117.4 429.1Z" fill="#2B5931"/>
<path d="M104.9 406.7C106.723 406.7 108.2 405.178 108.2 403.3C108.2 401.423 106.723 399.9 104.9 399.9C103.077 399.9 101.6 401.423 101.6 403.3C101.6 405.178 103.077 406.7 104.9 406.7Z" fill="#2B5931"/>
<path d="M155.4 356.2C157.223 356.2 158.7 354.678 158.7 352.8C158.7 350.923 157.223 349.4 155.4 349.4C153.577 349.4 152.1 350.923 152.1 352.8C152.1 354.678 153.577 356.2 155.4 356.2Z" fill="#2B5931"/>
<path d="M140.3 389.2C142.123 389.2 143.6 387.678 143.6 385.8C143.6 383.923 142.123 382.4 140.3 382.4C138.477 382.4 137 383.923 137 385.8C137 387.678 138.477 389.2 140.3 389.2Z" fill="#2B5931"/>
<path d="M170.9 295.2C172.723 295.2 174.2 293.678 174.2 291.8C174.2 289.923 172.723 288.4 170.9 288.4C169.077 288.4 167.6 289.923 167.6 291.8C167.6 293.678 169.077 295.2 170.9 295.2Z" fill="#2B5931"/>
<path d="M170.9 320.6C172.723 320.6 174.2 319.078 174.2 317.2C174.2 315.322 172.723 313.8 170.9 313.8C169.077 313.8 167.6 315.322 167.6 317.2C167.6 319.078 169.077 320.6 170.9 320.6Z" fill="#2B5931"/>
<path d="M202 309.401C203.823 309.401 205.3 307.878 205.3 306.001C205.3 304.123 203.823 302.601 202 302.601C200.177 302.601 198.7 304.123 198.7 306.001C198.7 307.878 200.177 309.401 202 309.401Z" fill="#2B5931"/>
<path d="M228.3 255.6C230.123 255.6 231.6 254.078 231.6 252.2C231.6 250.322 230.123 248.8 228.3 248.8C226.477 248.8 225 250.322 225 252.2C225 254.078 226.477 255.6 228.3 255.6Z" fill="#2B5931"/>
<path d="M245.3 370.401C247.123 370.401 248.6 368.878 248.6 367.001C248.6 365.123 247.123 363.601 245.3 363.601C243.477 363.601 242 365.123 242 367.001C242 368.878 243.477 370.401 245.3 370.401Z" fill="#2B5931"/>
<path d="M278.3 309.401C280.123 309.401 281.6 307.878 281.6 306.001C281.6 304.123 280.123 302.601 278.3 302.601C276.477 302.601 275 304.123 275 306.001C275 307.878 276.477 309.401 278.3 309.401Z" fill="#2B5931"/>
<path d="M354.2 404.401C356.023 404.401 357.5 402.878 357.5 401.001C357.5 399.123 356.023 397.601 354.2 397.601C352.377 397.601 350.9 399.123 350.9 401.001C350.9 402.878 352.377 404.401 354.2 404.401Z" fill="#2B5931"/>
<path d="M352.1 427.5C353.923 427.5 355.4 425.978 355.4 424.1C355.4 422.222 353.923 420.7 352.1 420.7C350.277 420.7 348.8 422.222 348.8 424.1C348.8 425.978 350.277 427.5 352.1 427.5Z" fill="#2B5931"/>
<path d="M381 349.3C382.823 349.3 384.3 347.778 384.3 345.9C384.3 344.022 382.823 342.5 381 342.5C379.177 342.5 377.7 344.022 377.7 345.9C377.7 347.778 379.177 349.3 381 349.3Z" fill="#2B5931"/>
<path d="M437 354.2C438.823 354.2 440.3 352.678 440.3 350.8C440.3 348.923 438.823 347.4 437 347.4C435.177 347.4 433.7 348.923 433.7 350.8C433.7 352.678 435.177 354.2 437 354.2Z" fill="#2B5931"/>
<path d="M446.5 423.5C448.323 423.5 449.8 421.978 449.8 420.1C449.8 418.222 448.323 416.7 446.5 416.7C444.677 416.7 443.2 418.222 443.2 420.1C443.2 421.978 444.677 423.5 446.5 423.5Z" fill="#2B5931"/>
<path d="M484.8 359.5C486.623 359.5 488.1 357.978 488.1 356.1C488.1 354.222 486.623 352.7 484.8 352.7C482.977 352.7 481.5 354.222 481.5 356.1C481.5 357.978 482.977 359.5 484.8 359.5Z" fill="#2B5931"/>
<path d="M516.1 309.401C517.923 309.401 519.4 307.878 519.4 306.001C519.4 304.123 517.923 302.601 516.1 302.601C514.277 302.601 512.8 304.123 512.8 306.001C512.8 307.878 514.277 309.401 516.1 309.401Z" fill="#2B5931"/>
<path d="M568.9 400.1C570.723 400.1 572.2 398.578 572.2 396.7C572.2 394.822 570.723 393.3 568.9 393.3C567.077 393.3 565.6 394.822 565.6 396.7C565.6 398.578 567.077 400.1 568.9 400.1Z" fill="#2B5931"/>
<path d="M544.3 383.7C546.123 383.7 547.6 382.178 547.6 380.3C547.6 378.423 546.123 376.9 544.3 376.9C542.477 376.9 541 378.423 541 380.3C541 382.178 542.477 383.7 544.3 383.7Z" fill="#2B5931"/>
<path d="M567.2 324.6C569.023 324.6 570.5 323.078 570.5 321.2C570.5 319.322 569.023 317.8 567.2 317.8C565.377 317.8 563.9 319.322 563.9 321.2C563.9 323.078 565.377 324.6 567.2 324.6Z" fill="#2B5931"/>
<path d="M613.3 265.1C615.123 265.1 616.6 263.578 616.6 261.7C616.6 259.822 615.123 258.3 613.3 258.3C611.477 258.3 610 259.822 610 261.7C610 263.578 611.477 265.1 613.3 265.1Z" fill="#2B5931"/>
<path d="M626.4 391.8C628.223 391.8 629.7 390.278 629.7 388.4C629.7 386.522 628.223 385 626.4 385C624.577 385 623.1 386.522 623.1 388.4C623.1 390.278 624.577 391.8 626.4 391.8Z" fill="#2B5931"/>
<path d="M647.6 330.2C649.423 330.2 650.9 328.678 650.9 326.8C650.9 324.923 649.423 323.4 647.6 323.4C645.777 323.4 644.3 324.923 644.3 326.8C644.3 328.678 645.777 330.2 647.6 330.2Z" fill="#2B5931"/>
<path d="M689.8 346C691.623 346 693.1 344.478 693.1 342.6C693.1 340.722 691.623 339.2 689.8 339.2C687.977 339.2 686.5 340.722 686.5 342.6C686.5 344.478 687.977 346 689.8 346Z" fill="#2B5931"/>
<path d="M720.9 437.6C722.723 437.6 724.2 436.078 724.2 434.2C724.2 432.322 722.723 430.8 720.9 430.8C719.077 430.8 717.6 432.322 717.6 434.2C717.6 436.078 719.077 437.6 720.9 437.6Z" fill="#2B5931"/>
<path d="M734.7 294.7C736.523 294.7 738 293.178 738 291.3C738 289.423 736.523 287.9 734.7 287.9C732.877 287.9 731.4 289.423 731.4 291.3C731.4 293.178 732.877 294.7 734.7 294.7Z" fill="#2B5931"/>
<path d="M755.8 275.401C757.623 275.401 759.1 273.878 759.1 272.001C759.1 270.123 757.623 268.601 755.8 268.601C753.977 268.601 752.5 270.123 752.5 272.001C752.5 273.878 753.977 275.401 755.8 275.401Z" fill="#2B5931"/>
<path d="M773.7 360.8C775.523 360.8 777 359.278 777 357.4C777 355.522 775.523 354 773.7 354C771.877 354 770.4 355.522 770.4 357.4C770.4 359.278 771.877 360.8 773.7 360.8Z" fill="#2B5931"/>
<path d="M825 330.2C826.823 330.2 828.3 328.678 828.3 326.8C828.3 324.923 826.823 323.4 825 323.4C823.177 323.4 821.7 324.923 821.7 326.8C821.7 328.678 823.177 330.2 825 330.2Z" fill="#2B5931"/>
<path d="M802.1 417.6C803.923 417.6 805.4 416.078 805.4 414.2C805.4 412.322 803.923 410.8 802.1 410.8C800.277 410.8 798.8 412.322 798.8 414.2C798.8 416.078 800.277 417.6 802.1 417.6Z" fill="#2B5931"/>
<path d="M850.7 299.901C852.523 299.901 854 298.378 854 296.501C854 294.623 852.523 293.101 850.7 293.101C848.877 293.101 847.4 294.623 847.4 296.501C847.4 298.378 848.877 299.901 850.7 299.901Z" fill="#2B5931"/>
<path d="M850.7 336.3C852.523 336.3 854 334.778 854 332.9C854 331.022 852.523 329.5 850.7 329.5C848.877 329.5 847.4 331.022 847.4 332.9C847.4 334.778 848.877 336.3 850.7 336.3Z" fill="#2B5931"/>
<path d="M868.6 278.7C870.423 278.7 871.9 277.178 871.9 275.3C871.9 273.423 870.423 271.9 868.6 271.9C866.777 271.9 865.3 273.423 865.3 275.3C865.3 277.178 866.777 278.7 868.6 278.7Z" fill="#2B5931"/>
<path d="M886 411.8C887.823 411.8 889.3 410.278 889.3 408.4C889.3 406.522 887.823 405 886 405C884.177 405 882.7 406.522 882.7 408.4C882.7 410.278 884.177 411.8 886 411.8Z" fill="#2B5931"/>
<path d="M788.3 443.5C790.123 443.5 791.6 441.978 791.6 440.1C791.6 438.222 790.123 436.7 788.3 436.7C786.477 436.7 785 438.222 785 440.1C785 441.978 786.477 443.5 788.3 443.5Z" fill="#2B5931"/>
<path d="M640.5 443.401C642.323 443.401 643.8 441.878 643.8 440.001C643.8 438.123 642.323 436.601 640.5 436.601C638.677 436.601 637.2 438.123 637.2 440.001C637.2 441.878 638.677 443.401 640.5 443.401Z" fill="#2B5931"/>
<path d="M412.7 421.3C414.523 421.3 416 419.778 416 417.9C416 416.022 414.523 414.5 412.7 414.5C410.877 414.5 409.4 416.022 409.4 417.9C409.4 419.778 410.877 421.3 412.7 421.3Z" fill="#2B5931"/>
<path d="M437 265.1C438.823 265.1 440.3 263.578 440.3 261.7C440.3 259.822 438.823 258.3 437 258.3C435.177 258.3 433.7 259.822 433.7 261.7C433.7 263.578 435.177 265.1 437 265.1Z" fill="#2B5931"/>
<path d="M350.3 321.8C352.123 321.8 353.6 320.278 353.6 318.4C353.6 316.522 352.123 315 350.3 315C348.477 315 347 316.522 347 318.4C347 320.278 348.477 321.8 350.3 321.8Z" fill="#2B5931"/>
<path d="M59.6 301.901C61.4225 301.901 62.9 300.378 62.9 298.501C62.9 296.623 61.4225 295.101 59.6 295.101C57.7774 295.101 56.3 296.623 56.3 298.501C56.3 300.378 57.7774 301.901 59.6 301.901Z" fill="#2B5931"/>
<path d="M122.6 46.5998C124.423 46.5998 125.9 45.0776 125.9 43.1998C125.9 41.322 124.423 39.7998 122.6 39.7998C120.777 39.7998 119.3 41.322 119.3 43.1998C119.3 45.0776 120.777 46.5998 122.6 46.5998Z" fill="#2B5931"/>
<path d="M154.3 90.7004C156.123 90.7004 157.6 89.1782 157.6 87.3004C157.6 85.4226 156.123 83.9004 154.3 83.9004C152.477 83.9004 151 85.4226 151 87.3004C151 89.1782 152.477 90.7004 154.3 90.7004Z" fill="#2B5931"/>
<path d="M218.4 23.5002C220.223 23.5002 221.7 21.978 221.7 20.1002C221.7 18.2224 220.223 16.7002 218.4 16.7002C216.577 16.7002 215.1 18.2224 215.1 20.1002C215.1 21.978 216.577 23.5002 218.4 23.5002Z" fill="#2B5931"/>
<path d="M170.5 63.0998C172.323 63.0998 173.8 61.5776 173.8 59.6998C173.8 57.822 172.323 56.2998 170.5 56.2998C168.677 56.2998 167.2 57.822 167.2 59.6998C167.2 61.5776 168.677 63.0998 170.5 63.0998Z" fill="#2B5931"/>
<path d="M279.9 64.0998C281.723 64.0998 283.2 62.5776 283.2 60.6998C283.2 58.822 281.723 57.2998 279.9 57.2998C278.077 57.2998 276.6 58.822 276.6 60.6998C276.6 62.5776 278.077 64.0998 279.9 64.0998Z" fill="#2B5931"/>
<path d="M255.3 105.8C257.123 105.8 258.6 104.278 258.6 102.4C258.6 100.522 257.123 99 255.3 99C253.477 99 252 100.522 252 102.4C252 104.278 253.477 105.8 255.3 105.8Z" fill="#2B5931"/>
<path d="M289.3 118.8C291.123 118.8 292.6 117.278 292.6 115.4C292.6 113.522 291.123 112 289.3 112C287.477 112 286 113.522 286 115.4C286 117.278 287.477 118.8 289.3 118.8Z" fill="#2B5931"/>
<path d="M328.8 114.8C330.623 114.8 332.1 113.278 332.1 111.4C332.1 109.522 330.623 108 328.8 108C326.977 108 325.5 109.522 325.5 111.4C325.5 113.278 326.977 114.8 328.8 114.8Z" fill="#2B5931"/>
<path d="M401.8 27.4006C403.623 27.4006 405.1 25.8784 405.1 24.0006C405.1 22.1228 403.623 20.6006 401.8 20.6006C399.977 20.6006 398.5 22.1228 398.5 24.0006C398.5 25.8784 399.977 27.4006 401.8 27.4006Z" fill="#2B5931"/>
<path d="M465.5 30.8C467.323 30.8 468.8 29.2778 468.8 27.4C468.8 25.5222 467.323 24 465.5 24C463.677 24 462.2 25.5222 462.2 27.4C462.2 29.2778 463.677 30.8 465.5 30.8Z" fill="#2B5931"/>
<path d="M507.8 110.6C509.623 110.6 511.1 109.078 511.1 107.2C511.1 105.322 509.623 103.8 507.8 103.8C505.977 103.8 504.5 105.322 504.5 107.2C504.5 109.078 505.977 110.6 507.8 110.6Z" fill="#2B5931"/>
<path d="M557.4 40.7004C559.223 40.7004 560.7 39.1782 560.7 37.3004C560.7 35.4226 559.223 33.9004 557.4 33.9004C555.577 33.9004 554.1 35.4226 554.1 37.3004C554.1 39.1782 555.577 40.7004 557.4 40.7004Z" fill="#2B5931"/>
<path d="M573.5 66.0002C575.323 66.0002 576.8 64.478 576.8 62.6002C576.8 60.7224 575.323 59.2002 573.5 59.2002C571.677 59.2002 570.2 60.7224 570.2 62.6002C570.2 64.478 571.677 66.0002 573.5 66.0002Z" fill="#2B5931"/>
<path d="M606.8 78.3C608.623 78.3 610.1 76.7778 610.1 74.9C610.1 73.0222 608.623 71.5 606.8 71.5C604.977 71.5 603.5 73.0222 603.5 74.9C603.5 76.7778 604.977 78.3 606.8 78.3Z" fill="#2B5931"/>
<path d="M643.9 102.5C645.723 102.5 647.2 100.978 647.2 99.1002C647.2 97.2224 645.723 95.7002 643.9 95.7002C642.077 95.7002 640.6 97.2224 640.6 99.1002C640.6 100.978 642.077 102.5 643.9 102.5Z" fill="#2B5931"/>
<path d="M683.2 66.0002C685.023 66.0002 686.5 64.478 686.5 62.6002C686.5 60.7224 685.023 59.2002 683.2 59.2002C681.377 59.2002 679.9 60.7224 679.9 62.6002C679.9 64.478 681.377 66.0002 683.2 66.0002Z" fill="#2B5931"/>
<path d="M716.1 100.2C717.923 100.2 719.4 98.6782 719.4 96.8004C719.4 94.9226 717.923 93.4004 716.1 93.4004C714.277 93.4004 712.8 94.9226 712.8 96.8004C712.8 98.6782 714.277 100.2 716.1 100.2Z" fill="#2B5931"/>
<path d="M732.3 52.9006C734.123 52.9006 735.6 51.3784 735.6 49.5006C735.6 47.6228 734.123 46.1006 732.3 46.1006C730.477 46.1006 729 47.6228 729 49.5006C729 51.3784 730.477 52.9006 732.3 52.9006Z" fill="#2B5931"/>
<path d="M747 86.9006C748.823 86.9006 750.3 85.3784 750.3 83.5006C750.3 81.6228 748.823 80.1006 747 80.1006C745.177 80.1006 743.7 81.6228 743.7 83.5006C743.7 85.3784 745.177 86.9006 747 86.9006Z" fill="#2B5931"/>
<path d="M804.8 81.0998C806.623 81.0998 808.1 79.5776 808.1 77.6998C808.1 75.822 806.623 74.2998 804.8 74.2998C802.977 74.2998 801.5 75.822 801.5 77.6998C801.5 79.5776 802.977 81.0998 804.8 81.0998Z" fill="#2B5931"/>
<path d="M874.7 90.7004C876.523 90.7004 878 89.1782 878 87.3004C878 85.4226 876.523 83.9004 874.7 83.9004C872.877 83.9004 871.4 85.4226 871.4 87.3004C871.4 89.1782 872.877 90.7004 874.7 90.7004Z" fill="#2B5931"/>
<path d="M784.8 103.6C786.623 103.6 788.1 102.078 788.1 100.2C788.1 98.322 786.623 96.7998 784.8 96.7998C782.977 96.7998 781.5 98.322 781.5 100.2C781.5 102.078 782.977 103.6 784.8 103.6Z" fill="#2B5931"/>
<path d="M526.3 48.4006C528.123 48.4006 529.6 46.8784 529.6 45.0006C529.6 43.1228 528.123 41.6006 526.3 41.6006C524.477 41.6006 523 43.1228 523 45.0006C523 46.8784 524.477 48.4006 526.3 48.4006Z" fill="#2B5931"/>
<path d="M425.6 101.8C427.423 101.8 428.9 100.278 428.9 98.4C428.9 96.5222 427.423 95 425.6 95C423.777 95 422.3 96.5222 422.3 98.4C422.3 100.278 423.777 101.8 425.6 101.8Z" fill="#2B5931"/>
<path d="M850.7 80.1006V113.101L867 129.501V192.401" stroke="#145B2C" stroke-width="0.75" stroke-miterlimit="10"/>
<path d="M819 96.3008V127.001" stroke="#145B2C" stroke-width="0.75" stroke-miterlimit="10"/>
<path d="M840.6 141.801V174.301L830 192.401V265.301" stroke="#145B2C" stroke-width="0.75" stroke-miterlimit="10"/>
<path d="M850.7 208.4L858.9 224.4V248.8" stroke="#145B2C" stroke-width="0.75" stroke-miterlimit="10"/>
<path d="M891.3 271.9L876.7 252.2V208.4" stroke="#145B2C" stroke-width="0.75" stroke-miterlimit="10"/>
<path d="M891.4 108L879 113.1V160L893 166.3" stroke="#145B2C" stroke-width="0.75" stroke-miterlimit="10"/>
<path d="M795.7 131.301L777 144.001V180.301L795.7 193.401" stroke="#145B2C" stroke-width="0.75" stroke-miterlimit="10"/>
<path d="M809.7 154V224.4L781.5 265.3" stroke="#145B2C" stroke-width="0.75" stroke-miterlimit="10"/>
<path d="M755.8 111.7V127L745.2 154V209.7" stroke="#145B2C" stroke-width="0.75" stroke-miterlimit="10"/>
<path d="M766.3 203.5V240.1" stroke="#145B2C" stroke-width="0.75" stroke-miterlimit="10"/>
<path d="M712.8 275.701L729 248.801V141.801" stroke="#145B2C" stroke-width="0.75" stroke-miterlimit="10"/>
<path d="M695.7 116.5V166.3L707.5 175.9V228.6" stroke="#145B2C" stroke-width="0.75" stroke-miterlimit="10"/>
<path d="M683.2 193.4L670 215.1V258.3V287.9" stroke="#145B2C" stroke-width="0.75" stroke-miterlimit="10"/>
<path d="M689.8 221.801V268.601" stroke="#145B2C" stroke-width="0.75" stroke-miterlimit="10"/>
<path d="M670 101.801L656.3 124.801V166.301L640.6 192.401V233.801" stroke="#145B2C" stroke-width="0.75" stroke-miterlimit="10"/>
<path d="M620.5 102.5L595.5 127V178.9" stroke="#145B2C" stroke-width="0.75" stroke-miterlimit="10"/>
<path d="M623.1 136.2V218.4" stroke="#145B2C" stroke-width="0.75" stroke-miterlimit="10"/>
<path d="M676.6 121.5V166.3" stroke="#145B2C" stroke-width="0.75" stroke-miterlimit="10"/>
<path d="M563.9 97.3008L576.8 107.101L576.4 137.101L563.9 143.901V182.501L576.8 192.401" stroke="#145B2C" stroke-width="0.75" stroke-miterlimit="10"/>
<path d="M595.5 209.7L580 228.6V275.7" stroke="#145B2C" stroke-width="0.75" stroke-miterlimit="10"/>
<path d="M521.3 140.7V166.3H490.4" stroke="#145B2C" stroke-width="0.75" stroke-miterlimit="10"/>
<path d="M541.9 167.801V203.501L557.4 218.401V288.401" stroke="#145B2C" stroke-width="0.75" stroke-miterlimit="10"/>
<path d="M521.8 228.101V275.701" stroke="#145B2C" stroke-width="0.75" stroke-miterlimit="10"/>
<path d="M512.8 192.4L493.4 208.7V282.8" stroke="#145B2C" stroke-width="0.75" stroke-miterlimit="10"/>
<path d="M463.2 270.9L449.8 242.7V208.4L431.6 183.9" stroke="#145B2C" stroke-width="0.75" stroke-miterlimit="10"/>
<path d="M449.8 95L463.2 114.8V166.3" stroke="#145B2C" stroke-width="0.75" stroke-miterlimit="10"/>
<path d="M471.3 189V237.6" stroke="#145B2C" stroke-width="0.75" stroke-miterlimit="10"/>
<path d="M377.8 71.2002L377.7 100.2H400.4V149.5" stroke="#145B2C" stroke-width="0.75" stroke-miterlimit="10"/>
<path d="M359.8 121.5L341.2 140.7V162.3L355.4 183.9V252.2" stroke="#145B2C" stroke-width="0.75" stroke-miterlimit="10"/>
<path d="M369.3 162.3L381 154L404.9 192.4V227.4" stroke="#145B2C" stroke-width="0.75" stroke-miterlimit="10"/>
<path d="M428.9 121.5V162.3" stroke="#145B2C" stroke-width="0.75" stroke-miterlimit="10"/>
<path d="M325.5 309.401V280.901L315.6 261.701V228.601" stroke="#145B2C" stroke-width="0.75" stroke-miterlimit="10"/>
<path d="M283.2 268.7V199.9" stroke="#145B2C" stroke-width="0.75" stroke-miterlimit="10"/>
<path d="M377.8 199.9V233.8" stroke="#145B2C" stroke-width="0.75" stroke-miterlimit="10"/>
<path d="M289.5 116.5L296.6 136.2V160.7L307.2 174.3V197.5" stroke="#145B2C" stroke-width="0.75" stroke-miterlimit="10"/>
<path d="M320.5 131.301V162.301" stroke="#145B2C" stroke-width="0.75" stroke-miterlimit="10"/>
<path d="M328.5 197.5L341.2 213.3V280.9" stroke="#145B2C" stroke-width="0.75" stroke-miterlimit="10"/>
<path d="M245.3 288.401L258.9 270.901V237.601" stroke="#145B2C" stroke-width="0.75" stroke-miterlimit="10"/>
<path d="M255.6 103.801V157.001" stroke="#145B2C" stroke-width="0.75" stroke-miterlimit="10"/>
<path d="M186.2 88V123.9H205.3V183.9" stroke="#145B2C" stroke-width="0.75" stroke-miterlimit="10"/>
<path d="M231.6 136.2L225 157V203.5" stroke="#145B2C" stroke-width="0.75" stroke-miterlimit="10"/>
<path d="M243.7 177.301V199.901H266.7" stroke="#145B2C" stroke-width="0.75" stroke-miterlimit="10"/>
<path d="M67.6 84.1006V160.001" stroke="#145B2C" stroke-width="0.75" stroke-miterlimit="10"/>
<path d="M14.8 111.7L34.6 136V160L12.4 177.3L12.9 227.4" stroke="#145B2C" stroke-width="0.75" stroke-miterlimit="10"/>
<path d="M30.8 290.4V262.7H48.7V224.4H62.9V190.7" stroke="#145B2C" stroke-width="0.75" stroke-miterlimit="10"/>
<path d="M96.6 278.7V221.8L109.9 199.9L108.2 157" stroke="#145B2C" stroke-width="0.75" stroke-miterlimit="10"/>
<path d="M143.6 252.2V190.7" stroke="#145B2C" stroke-width="0.75" stroke-miterlimit="10"/>
<path d="M124.6 136L140.3 127L162.4 160V197.5" stroke="#145B2C" stroke-width="0.75" stroke-miterlimit="10"/>
<path d="M186.2 160V233.8" stroke="#145B2C" stroke-width="0.75" stroke-miterlimit="10"/>
<path d="M12.9 230C14.7225 230 16.2 228.478 16.2 226.6C16.2 224.722 14.7225 223.2 12.9 223.2C11.0775 223.2 9.60001 224.722 9.60001 226.6C9.60001 228.478 11.0775 230 12.9 230Z" fill="#2B5931"/>
<path d="M62.9 195.8C64.7225 195.8 66.2 194.278 66.2 192.4C66.2 190.522 64.7225 189 62.9 189C61.0775 189 59.6 190.522 59.6 192.4C59.6 194.278 61.0775 195.8 62.9 195.8Z" fill="#2B5931"/>
<path d="M30.8 293.8C32.6225 293.8 34.1 292.278 34.1 290.4C34.1 288.522 32.6225 287 30.8 287C28.9775 287 27.5 288.522 27.5 290.4C27.5 292.278 28.9775 293.8 30.8 293.8Z" fill="#2B5931"/>
<path d="M96.6 282.101C98.4225 282.101 99.9 280.579 99.9 278.701C99.9 276.823 98.4225 275.301 96.6 275.301C94.7774 275.301 93.3 276.823 93.3 278.701C93.3 280.579 94.7774 282.101 96.6 282.101Z" fill="#2B5931"/>
<path d="M124.6 139.401C126.423 139.401 127.9 137.878 127.9 136.001C127.9 134.123 126.423 132.601 124.6 132.601C122.777 132.601 121.3 134.123 121.3 136.001C121.3 137.878 122.777 139.401 124.6 139.401Z" fill="#2B5931"/>
<path d="M162.4 200.901C164.223 200.901 165.7 199.378 165.7 197.501C165.7 195.623 164.223 194.101 162.4 194.101C160.577 194.101 159.1 195.623 159.1 197.501C159.1 199.378 160.577 200.901 162.4 200.901Z" fill="#2B5931"/>
<path d="M186.2 163.401C188.023 163.401 189.5 161.878 189.5 160.001C189.5 158.123 188.023 156.601 186.2 156.601C184.377 156.601 182.9 158.123 182.9 160.001C182.9 161.878 184.377 163.401 186.2 163.401Z" fill="#2B5931"/>
<path d="M186.2 237.2C188.023 237.2 189.5 235.678 189.5 233.8C189.5 231.923 188.023 230.4 186.2 230.4C184.377 230.4 182.9 231.923 182.9 233.8C182.9 235.678 184.377 237.2 186.2 237.2Z" fill="#2B5931"/>
<path d="M231.6 139.601C233.423 139.601 234.9 138.079 234.9 136.201C234.9 134.323 233.423 132.801 231.6 132.801C229.777 132.801 228.3 134.323 228.3 136.201C228.3 138.079 229.777 139.601 231.6 139.601Z" fill="#2B5931"/>
<path d="M225 205.2C226.823 205.2 228.3 203.678 228.3 201.8C228.3 199.923 226.823 198.4 225 198.4C223.177 198.4 221.7 199.923 221.7 201.8C221.7 203.678 223.177 205.2 225 205.2Z" fill="#2B5931"/>
<path d="M243.7 180.8C245.523 180.8 247 179.278 247 177.4C247 175.522 245.523 174 243.7 174C241.877 174 240.4 175.522 240.4 177.4C240.4 179.278 241.877 180.8 243.7 180.8Z" fill="#2B5931"/>
<path d="M266.7 203.401C268.523 203.401 270 201.878 270 200.001C270 198.123 268.523 196.601 266.7 196.601C264.877 196.601 263.4 198.123 263.4 200.001C263.4 201.878 264.877 203.401 266.7 203.401Z" fill="#2B5931"/>
<path d="M283.2 203.401C285.023 203.401 286.5 201.878 286.5 200.001C286.5 198.123 285.023 196.601 283.2 196.601C281.377 196.601 279.9 198.123 279.9 200.001C279.9 201.878 281.377 203.401 283.2 203.401Z" fill="#2B5931"/>
<path d="M307.2 201C309.023 201 310.5 199.478 310.5 197.6C310.5 195.722 309.023 194.2 307.2 194.2C305.377 194.2 303.9 195.722 303.9 197.6C303.9 199.478 305.377 201 307.2 201Z" fill="#2B5931"/>
<path d="M315.6 232.101C317.423 232.101 318.9 230.579 318.9 228.701C318.9 226.823 317.423 225.301 315.6 225.301C313.777 225.301 312.3 226.823 312.3 228.701C312.3 230.579 313.777 232.101 315.6 232.101Z" fill="#2B5931"/>
<path d="M325.5 312.901C327.323 312.901 328.8 311.378 328.8 309.501C328.8 307.623 327.323 306.101 325.5 306.101C323.677 306.101 322.2 307.623 322.2 309.501C322.2 311.378 323.677 312.901 325.5 312.901Z" fill="#2B5931"/>
<path d="M355.4 255.8C357.223 255.8 358.7 254.278 358.7 252.4C358.7 250.522 357.223 249 355.4 249C353.577 249 352.1 250.522 352.1 252.4C352.1 254.278 353.577 255.8 355.4 255.8Z" fill="#2B5931"/>
<path d="M378.3 235.8C380.123 235.8 381.6 234.278 381.6 232.4C381.6 230.522 380.123 229 378.3 229C376.477 229 375 230.522 375 232.4C375 234.278 376.477 235.8 378.3 235.8Z" fill="#2B5931"/>
<path d="M405.3 230.8C407.123 230.8 408.6 229.278 408.6 227.4C408.6 225.522 407.123 224 405.3 224C403.477 224 402 225.522 402 227.4C402 229.278 403.477 230.8 405.3 230.8Z" fill="#2B5931"/>
<path d="M359.8 125C361.623 125 363.1 123.478 363.1 121.6C363.1 119.722 361.623 118.2 359.8 118.2C357.977 118.2 356.5 119.722 356.5 121.6C356.5 123.478 357.977 125 359.8 125Z" fill="#2B5931"/>
<path d="M378.3 202.8C380.123 202.8 381.6 201.278 381.6 199.4C381.6 197.522 380.123 196 378.3 196C376.477 196 375 197.522 375 199.4C375 201.278 376.477 202.8 378.3 202.8Z" fill="#2B5931"/>
<path d="M377.8 75.0002C379.623 75.0002 381.1 73.478 381.1 71.6002C381.1 69.7224 379.623 68.2002 377.8 68.2002C375.977 68.2002 374.5 69.7224 374.5 71.6002C374.5 73.478 375.977 75.0002 377.8 75.0002Z" fill="#2B5931"/>
<path d="M428.9 125.8C430.723 125.8 432.2 124.278 432.2 122.4C432.2 120.522 430.723 119 428.9 119C427.077 119 425.6 120.522 425.6 122.4C425.6 124.278 427.077 125.8 428.9 125.8Z" fill="#2B5931"/>
<path d="M428.9 165.7C430.723 165.7 432.2 164.178 432.2 162.3C432.2 160.423 430.723 158.9 428.9 158.9C427.077 158.9 425.6 160.423 425.6 162.3C425.6 164.178 427.077 165.7 428.9 165.7Z" fill="#2B5931"/>
<path d="M431.6 187.3C433.423 187.3 434.9 185.778 434.9 183.9C434.9 182.022 433.423 180.5 431.6 180.5C429.777 180.5 428.3 182.022 428.3 183.9C428.3 185.778 429.777 187.3 431.6 187.3Z" fill="#2B5931"/>
<path d="M449.8 98.4006C451.623 98.4006 453.1 96.8784 453.1 95.0006C453.1 93.1228 451.623 91.6006 449.8 91.6006C447.977 91.6006 446.5 93.1228 446.5 95.0006C446.5 96.8784 447.977 98.4006 449.8 98.4006Z" fill="#2B5931"/>
<path d="M463.2 169.7C465.023 169.7 466.5 168.178 466.5 166.3C466.5 164.423 465.023 162.9 463.2 162.9C461.377 162.9 459.9 164.423 459.9 166.3C459.9 168.178 461.377 169.7 463.2 169.7Z" fill="#2B5931"/>
<path d="M521.3 145.3C523.123 145.3 524.6 143.778 524.6 141.9C524.6 140.022 523.123 138.5 521.3 138.5C519.477 138.5 518 140.022 518 141.9C518 143.778 519.477 145.3 521.3 145.3Z" fill="#2B5931"/>
<path d="M512.8 196.901C514.623 196.901 516.1 195.378 516.1 193.501C516.1 191.623 514.623 190.101 512.8 190.101C510.977 190.101 509.5 191.623 509.5 193.501C509.5 195.378 510.977 196.901 512.8 196.901Z" fill="#2B5931"/>
<path d="M493.4 286.2C495.223 286.2 496.7 284.678 496.7 282.8C496.7 280.923 495.223 279.4 493.4 279.4C491.577 279.4 490.1 280.923 490.1 282.8C490.1 284.678 491.577 286.2 493.4 286.2Z" fill="#2B5931"/>
<path d="M557.4 291.8C559.223 291.8 560.7 290.278 560.7 288.4C560.7 286.522 559.223 285 557.4 285C555.577 285 554.1 286.522 554.1 288.4C554.1 290.278 555.577 291.8 557.4 291.8Z" fill="#2B5931"/>
<path d="M541.9 172.401C543.723 172.401 545.2 170.878 545.2 169.001C545.2 167.123 543.723 165.601 541.9 165.601C540.077 165.601 538.6 167.123 538.6 169.001C538.6 170.878 540.077 172.401 541.9 172.401Z" fill="#2B5931"/>
<path d="M576.8 195.8C578.623 195.8 580.1 194.278 580.1 192.4C580.1 190.522 578.623 189 576.8 189C574.977 189 573.5 190.522 573.5 192.4C573.5 194.278 574.977 195.8 576.8 195.8Z" fill="#2B5931"/>
<path d="M595.5 182.3C597.323 182.3 598.8 180.778 598.8 178.9C598.8 177.022 597.323 175.5 595.5 175.5C593.677 175.5 592.2 177.022 592.2 178.9C592.2 180.778 593.677 182.3 595.5 182.3Z" fill="#2B5931"/>
<path d="M622.3 104.8C624.123 104.8 625.6 103.278 625.6 101.4C625.6 99.5222 624.123 98 622.3 98C620.477 98 619 99.5222 619 101.4C619 103.278 620.477 104.8 622.3 104.8Z" fill="#2B5931"/>
<path d="M623.1 220.401C624.923 220.401 626.4 218.878 626.4 217.001C626.4 215.123 624.923 213.601 623.1 213.601C621.277 213.601 619.8 215.123 619.8 217.001C619.8 218.878 621.277 220.401 623.1 220.401Z" fill="#2B5931"/>
<path d="M695.7 119.901C697.523 119.901 699 118.378 699 116.501C699 114.623 697.523 113.101 695.7 113.101C693.877 113.101 692.4 114.623 692.4 116.501C692.4 118.378 693.877 119.901 695.7 119.901Z" fill="#2B5931"/>
<path d="M640.6 237.2C642.423 237.2 643.9 235.678 643.9 233.8C643.9 231.923 642.423 230.4 640.6 230.4C638.777 230.4 637.3 231.923 637.3 233.8C637.3 235.678 638.777 237.2 640.6 237.2Z" fill="#2B5931"/>
<path d="M683.2 196.8C685.023 196.8 686.5 195.278 686.5 193.4C686.5 191.522 685.023 190 683.2 190C681.377 190 679.9 191.522 679.9 193.4C679.9 195.278 681.377 196.8 683.2 196.8Z" fill="#2B5931"/>
<path d="M729 147.3C730.823 147.3 732.3 145.778 732.3 143.9C732.3 142.022 730.823 140.5 729 140.5C727.177 140.5 725.7 142.022 725.7 143.9C725.7 145.778 727.177 147.3 729 147.3Z" fill="#2B5931"/>
<path d="M795.6 196.8C797.423 196.8 798.9 195.278 798.9 193.4C798.9 191.522 797.423 190 795.6 190C793.777 190 792.3 191.522 792.3 193.4C792.3 195.278 793.777 196.8 795.6 196.8Z" fill="#2B5931"/>
<path d="M819 130.401C820.823 130.401 822.3 128.878 822.3 127.001C822.3 125.123 820.823 123.601 819 123.601C817.177 123.601 815.7 125.123 815.7 127.001C815.7 128.878 817.177 130.401 819 130.401Z" fill="#2B5931"/>
<path d="M819.3 99.8C821.123 99.8 822.6 98.2778 822.6 96.4C822.6 94.5222 821.123 93 819.3 93C817.477 93 816 94.5222 816 96.4C816 98.2778 817.477 99.8 819.3 99.8Z" fill="#2B5931"/>
<path d="M850.7 86.9006C852.523 86.9006 854 85.3784 854 83.5006C854 81.6228 852.523 80.1006 850.7 80.1006C848.877 80.1006 847.4 81.6228 847.4 83.5006C847.4 85.3784 848.877 86.9006 850.7 86.9006Z" fill="#2B5931"/>
<path d="M809.6 157.401C811.423 157.401 812.9 155.878 812.9 154.001C812.9 152.123 811.423 150.601 809.6 150.601C807.777 150.601 806.3 152.123 806.3 154.001C806.3 155.878 807.777 157.401 809.6 157.401Z" fill="#2B5931"/>
<path d="M830 267.401C831.823 267.401 833.3 265.878 833.3 264.001C833.3 262.123 831.823 260.601 830 260.601C828.177 260.601 826.7 262.123 826.7 264.001C826.7 265.878 828.177 267.401 830 267.401Z" fill="#2B5931"/>
<path d="M850.7 212.101C852.523 212.101 854 210.579 854 208.701C854 206.823 852.523 205.301 850.7 205.301C848.877 205.301 847.4 206.823 847.4 208.701C847.4 210.579 848.877 212.101 850.7 212.101Z" fill="#2B5931"/>
<path d="M876.7 213.101C878.523 213.101 880 211.579 880 209.701C880 207.823 878.523 206.301 876.7 206.301C874.877 206.301 873.4 207.823 873.4 209.701C873.4 211.579 874.877 213.101 876.7 213.101Z" fill="#2B5931"/>
<path d="M745.2 213.101C747.023 213.101 748.5 211.579 748.5 209.701C748.5 207.823 747.023 206.301 745.2 206.301C743.377 206.301 741.9 207.823 741.9 209.701C741.9 211.579 743.377 213.101 745.2 213.101Z" fill="#2B5931"/>
<path d="M707.3 232.8C709.123 232.8 710.6 231.278 710.6 229.4C710.6 227.522 709.123 226 707.3 226C705.477 226 704 227.522 704 229.4C704 231.278 705.477 232.8 707.3 232.8Z" fill="#2B5931"/>
<path d="M670 291.3C671.823 291.3 673.3 289.778 673.3 287.9C673.3 286.022 671.823 284.5 670 284.5C668.177 284.5 666.7 286.022 666.7 287.9C666.7 289.778 668.177 291.3 670 291.3Z" fill="#2B5931"/>
<path d="M67.6 163.401C69.4225 163.401 70.9 161.878 70.9 160.001C70.9 158.123 69.4225 156.601 67.6 156.601C65.7774 156.601 64.3 158.123 64.3 160.001C64.3 161.878 65.7774 163.401 67.6 163.401Z" fill="white" stroke="#2B5931" stroke-miterlimit="10"/>
<path d="M67.3 85.8C69.1225 85.8 70.6 84.2778 70.6 82.4C70.6 80.5222 69.1225 79 67.3 79C65.4775 79 64 80.5222 64 82.4C64 84.2778 65.4775 85.8 67.3 85.8Z" fill="white" stroke="#2B5931" stroke-miterlimit="10"/>
<path d="M108.2 160.401C110.023 160.401 111.5 158.878 111.5 157.001C111.5 155.123 110.023 153.601 108.2 153.601C106.377 153.601 104.9 155.123 104.9 157.001C104.9 158.878 106.377 160.401 108.2 160.401Z" fill="white" stroke="#2B5931" stroke-miterlimit="10"/>
<path d="M143.6 194.101C145.423 194.101 146.9 192.579 146.9 190.701C146.9 188.823 145.423 187.301 143.6 187.301C141.777 187.301 140.3 188.823 140.3 190.701C140.3 192.579 141.777 194.101 143.6 194.101Z" fill="white" stroke="#2B5931" stroke-miterlimit="10"/>
<path d="M143.6 255.601C145.423 255.601 146.9 254.079 146.9 252.201C146.9 250.323 145.423 248.801 143.6 248.801C141.777 248.801 140.3 250.323 140.3 252.201C140.3 254.079 141.777 255.601 143.6 255.601Z" fill="white" stroke="#2B5931" stroke-miterlimit="10"/>
<path d="M205.6 185.5C207.423 185.5 208.9 183.978 208.9 182.1C208.9 180.222 207.423 178.7 205.6 178.7C203.777 178.7 202.3 180.222 202.3 182.1C202.3 183.978 203.777 185.5 205.6 185.5Z" fill="white" stroke="#2B5931" stroke-miterlimit="10"/>
<path d="M255.2 160C257.023 160 258.5 158.478 258.5 156.6C258.5 154.722 257.023 153.2 255.2 153.2C253.377 153.2 251.9 154.722 251.9 156.6C251.9 158.478 253.377 160 255.2 160Z" fill="white" stroke="#2B5931" stroke-miterlimit="10"/>
<path d="M320.5 133.8C322.323 133.8 323.8 132.278 323.8 130.4C323.8 128.522 322.323 127 320.5 127C318.677 127 317.2 128.522 317.2 130.4C317.2 132.278 318.677 133.8 320.5 133.8Z" fill="white" stroke="#2B5931" stroke-miterlimit="10"/>
<path d="M320.5 166.8C322.323 166.8 323.8 165.278 323.8 163.4C323.8 161.522 322.323 160 320.5 160C318.677 160 317.2 161.522 317.2 163.4C317.2 165.278 318.677 166.8 320.5 166.8Z" fill="white" stroke="#2B5931" stroke-miterlimit="10"/>
<path d="M328.8 200.3C330.623 200.3 332.1 198.778 332.1 196.9C332.1 195.022 330.623 193.5 328.8 193.5C326.977 193.5 325.5 195.022 325.5 196.9C325.5 198.778 326.977 200.3 328.8 200.3Z" fill="white" stroke="#2B5931" stroke-miterlimit="10"/>
<path d="M245.3 291.8C247.123 291.8 248.6 290.278 248.6 288.4C248.6 286.522 247.123 285 245.3 285C243.477 285 242 286.522 242 288.4C242 290.278 243.477 291.8 245.3 291.8Z" fill="white" stroke="#2B5931" stroke-miterlimit="10"/>
<path d="M258.9 241C260.723 241 262.2 239.478 262.2 237.6C262.2 235.722 260.723 234.2 258.9 234.2C257.077 234.2 255.6 235.722 255.6 237.6C255.6 239.478 257.077 241 258.9 241Z" fill="white" stroke="#2B5931" stroke-miterlimit="10"/>
<path d="M283.2 272.401C285.023 272.401 286.5 270.878 286.5 269.001C286.5 267.123 285.023 265.601 283.2 265.601C281.377 265.601 279.9 267.123 279.9 269.001C279.9 270.878 281.377 272.401 283.2 272.401Z" fill="white" stroke="#2B5931" stroke-miterlimit="10"/>
<path d="M341.2 284.3C343.023 284.3 344.5 282.778 344.5 280.9C344.5 279.022 343.023 277.5 341.2 277.5C339.377 277.5 337.9 279.022 337.9 280.9C337.9 282.778 339.377 284.3 341.2 284.3Z" fill="white" stroke="#2B5931" stroke-miterlimit="10"/>
<path d="M463.2 274.3C465.023 274.3 466.5 272.778 466.5 270.9C466.5 269.022 465.023 267.5 463.2 267.5C461.377 267.5 459.9 269.022 459.9 270.9C459.9 272.778 461.377 274.3 463.2 274.3Z" fill="white" stroke="#2B5931" stroke-miterlimit="10"/>
<path d="M400.4 152.901C402.223 152.901 403.7 151.378 403.7 149.501C403.7 147.623 402.223 146.101 400.4 146.101C398.577 146.101 397.1 147.623 397.1 149.501C397.1 151.378 398.577 152.901 400.4 152.901Z" fill="white" stroke="#2B5931" stroke-miterlimit="10"/>
<path d="M369.3 165.7C371.123 165.7 372.6 164.178 372.6 162.3C372.6 160.423 371.123 158.9 369.3 158.9C367.477 158.9 366 160.423 366 162.3C366 164.178 367.477 165.7 369.3 165.7Z" fill="white" stroke="#2B5931" stroke-miterlimit="10"/>
<path d="M490.4 169.7C492.223 169.7 493.7 168.178 493.7 166.3C493.7 164.423 492.223 162.9 490.4 162.9C488.577 162.9 487.1 164.423 487.1 166.3C487.1 168.178 488.577 169.7 490.4 169.7Z" fill="white" stroke="#2B5931" stroke-miterlimit="10"/>
<path d="M471.3 192.401C473.123 192.401 474.6 190.878 474.6 189.001C474.6 187.123 473.123 185.601 471.3 185.601C469.477 185.601 468 187.123 468 189.001C468 190.878 469.477 192.401 471.3 192.401Z" fill="white" stroke="#2B5931" stroke-miterlimit="10"/>
<path d="M471.3 241.8C473.123 241.8 474.6 240.278 474.6 238.4C474.6 236.522 473.123 235 471.3 235C469.477 235 468 236.522 468 238.4C468 240.278 469.477 241.8 471.3 241.8Z" fill="white" stroke="#2B5931" stroke-miterlimit="10"/>
<path d="M521.3 279.101C523.123 279.101 524.6 277.579 524.6 275.701C524.6 273.823 523.123 272.301 521.3 272.301C519.477 272.301 518 273.823 518 275.701C518 277.579 519.477 279.101 521.3 279.101Z" fill="white" stroke="#2B5931" stroke-miterlimit="10"/>
<path d="M520.3 231.8C522.123 231.8 523.6 230.278 523.6 228.4C523.6 226.522 522.123 225 520.3 225C518.477 225 517 226.522 517 228.4C517 230.278 518.477 231.8 520.3 231.8Z" fill="white" stroke="#2B5931" stroke-miterlimit="10"/>
<path d="M563.4 100.7C565.223 100.7 566.7 99.1782 566.7 97.3004C566.7 95.4226 565.223 93.9004 563.4 93.9004C561.577 93.9004 560.1 95.4226 560.1 97.3004C560.1 99.1782 561.577 100.7 563.4 100.7Z" fill="white" stroke="#2B5931" stroke-miterlimit="10"/>
<path d="M595.5 213.101C597.323 213.101 598.8 211.579 598.8 209.701C598.8 207.823 597.323 206.301 595.5 206.301C593.677 206.301 592.2 207.823 592.2 209.701C592.2 211.579 593.677 213.101 595.5 213.101Z" fill="white" stroke="#2B5931" stroke-miterlimit="10"/>
<path d="M580 278.8C581.823 278.8 583.3 277.278 583.3 275.4C583.3 273.522 581.823 272 580 272C578.177 272 576.7 273.522 576.7 275.4C576.7 277.278 578.177 278.8 580 278.8Z" fill="white" stroke="#2B5931" stroke-miterlimit="10"/>
<path d="M623.1 139.3C624.923 139.3 626.4 137.778 626.4 135.9C626.4 134.022 624.923 132.5 623.1 132.5C621.277 132.5 619.8 134.022 619.8 135.9C619.8 137.778 621.277 139.3 623.1 139.3Z" fill="white" stroke="#2B5931" stroke-miterlimit="10"/>
<path d="M676.6 169.7C678.423 169.7 679.9 168.178 679.9 166.3C679.9 164.423 678.423 162.9 676.6 162.9C674.777 162.9 673.3 164.423 673.3 166.3C673.3 168.178 674.777 169.7 676.6 169.7Z" fill="white" stroke="#2B5931" stroke-miterlimit="10"/>
<path d="M676.6 124.901C678.423 124.901 679.9 123.378 679.9 121.501C679.9 119.623 678.423 118.101 676.6 118.101C674.777 118.101 673.3 119.623 673.3 121.501C673.3 123.378 674.777 124.901 676.6 124.901Z" fill="white" stroke="#2B5931" stroke-miterlimit="10"/>
<path d="M671.3 104.8C673.123 104.8 674.6 103.278 674.6 101.4C674.6 99.5222 673.123 98 671.3 98C669.477 98 668 99.5222 668 101.4C668 103.278 669.477 104.8 671.3 104.8Z" fill="white" stroke="#2B5931" stroke-miterlimit="10"/>
<path d="M689.4 225.2C691.223 225.2 692.7 223.678 692.7 221.8C692.7 219.923 691.223 218.4 689.4 218.4C687.577 218.4 686.1 219.923 686.1 221.8C686.1 223.678 687.577 225.2 689.4 225.2Z" fill="white" stroke="#2B5931" stroke-miterlimit="10"/>
<path d="M765.9 206.901C767.723 206.901 769.2 205.378 769.2 203.501C769.2 201.623 767.723 200.101 765.9 200.101C764.077 200.101 762.6 201.623 762.6 203.501C762.6 205.378 764.077 206.901 765.9 206.901Z" fill="white" stroke="#2B5931" stroke-miterlimit="10"/>
<path d="M712.4 279.101C714.223 279.101 715.7 277.579 715.7 275.701C715.7 273.823 714.223 272.301 712.4 272.301C710.577 272.301 709.1 273.823 709.1 275.701C709.1 277.579 710.577 279.101 712.4 279.101Z" fill="white" stroke="#2B5931" stroke-miterlimit="10"/>
<path d="M690.3 272.8C692.123 272.8 693.6 271.278 693.6 269.4C693.6 267.522 692.123 266 690.3 266C688.478 266 687 267.522 687 269.4C687 271.278 688.478 272.8 690.3 272.8Z" fill="white" stroke="#2B5931" stroke-miterlimit="10"/>
<path d="M755.8 116.5C757.623 116.5 759.1 114.978 759.1 113.1C759.1 111.222 757.623 109.7 755.8 109.7C753.977 109.7 752.5 111.222 752.5 113.1C752.5 114.978 753.977 116.5 755.8 116.5Z" fill="white" stroke="#2B5931" stroke-miterlimit="10"/>
<path d="M795.7 134.401C797.523 134.401 799 132.878 799 131.001C799 129.123 797.523 127.601 795.7 127.601C793.877 127.601 792.4 129.123 792.4 131.001C792.4 132.878 793.877 134.401 795.7 134.401Z" fill="white" stroke="#2B5931" stroke-miterlimit="10"/>
<path d="M867 195.5C868.823 195.5 870.3 193.978 870.3 192.1C870.3 190.222 868.823 188.7 867 188.7C865.177 188.7 863.7 190.222 863.7 192.1C863.7 193.978 865.177 195.5 867 195.5Z" fill="white" stroke="#2B5931" stroke-miterlimit="10"/>
<path d="M858.9 252C860.723 252 862.2 250.478 862.2 248.6C862.2 246.722 860.723 245.2 858.9 245.2C857.077 245.2 855.6 246.722 855.6 248.6C855.6 250.478 857.077 252 858.9 252Z" fill="white" stroke="#2B5931" stroke-miterlimit="10"/>
<path d="M840.6 144.901C842.423 144.901 843.9 143.378 843.9 141.501C843.9 139.623 842.423 138.101 840.6 138.101C838.777 138.101 837.3 139.623 837.3 141.501C837.3 143.378 838.777 144.901 840.6 144.901Z" fill="white" stroke="#2B5931" stroke-miterlimit="10"/>
<path d="M782.2 268.5C784.023 268.5 785.5 266.978 785.5 265.1C785.5 263.222 784.023 261.7 782.2 261.7C780.377 261.7 778.9 263.222 778.9 265.1C778.9 266.978 780.377 268.5 782.2 268.5Z" fill="white" stroke="#2B5931" stroke-miterlimit="10"/>
<path d="M765.9 243.5C767.723 243.5 769.2 241.978 769.2 240.1C769.2 238.222 767.723 236.7 765.9 236.7C764.077 236.7 762.6 238.222 762.6 240.1C762.6 241.978 764.077 243.5 765.9 243.5Z" fill="white" stroke="#2B5931" stroke-miterlimit="10"/>
<path d="M15 115.101C16.8226 115.101 18.3 113.579 18.3 111.701C18.3 109.823 16.8226 108.301 15 108.301C13.1775 108.301 11.7 109.823 11.7 111.701C11.7 113.579 13.1775 115.101 15 115.101Z" fill="white" stroke="#2B5931" stroke-miterlimit="10"/>
</svg>
