<svg width="289" height="35" viewBox="0 0 289 35" fill="none" xmlns="http://www.w3.org/2000/svg">
<path d="M29.0195 23.7715L33.3262 1.00781L39.896 1.00781L32.7988 33H26.1631L20.9556 11.5986L15.748 33H9.1123L2.01514 1.00781L8.58496 1.00781L12.9136 23.7275L18.187 1.00781L23.7681 1.00781L29.0195 23.7715Z" stroke="#FF572B" stroke-width="1.9"/>
<path d="M50.4868 33H43.895L43.895 1.00781L50.4868 1.00781L50.4868 33Z" stroke="#FF572B" stroke-width="1.9"/>
<path d="M82.6328 33H76.041L63.209 11.9502L63.209 33L56.6172 33L56.6172 1.00781L63.209 1.00781L76.063 22.1016V1.00781L82.6328 1.00781V33Z" stroke="#FF572B" stroke-width="1.9"/>
<path d="M111.812 6.34717L102.013 6.34717V33H95.4209V6.34717L85.7529 6.34717V1.00781L111.812 1.00781V6.34717Z" stroke="#FF572B" stroke-width="1.9"/>
<path d="M134.84 19.1353L122.184 19.1353V27.7046L137.037 27.7046V33L115.592 33V1.00781L136.993 1.00781V6.34717L122.184 6.34717V13.9717L134.84 13.9717V19.1353Z" stroke="#FF572B" stroke-width="1.9"/>
<path d="M152.748 21.2886H147.496V33L140.904 33V1.00781L152.792 1.00781C156.571 1.00781 159.486 1.8501 161.537 3.53467C163.587 5.21924 164.613 7.59961 164.613 10.6758C164.613 12.8584 164.137 14.6821 163.185 16.147C162.247 17.5972 160.819 18.7544 158.9 19.6187L165.821 32.6924V33H158.746L152.748 21.2886ZM147.496 15.9492L152.813 15.9492C154.469 15.9492 155.75 15.5317 156.659 14.6968C157.567 13.8472 158.021 12.6826 158.021 11.2031C158.021 9.69434 157.589 8.50781 156.725 7.64355C155.875 6.7793 154.564 6.34717 152.792 6.34717L147.496 6.34717V15.9492Z" stroke="#FF572B" stroke-width="1.9"/>
<path d="M178.258 1.00781L186.476 24.2109L194.649 1.00781L203.307 1.00781V33H196.693V24.2549L197.352 9.15967L188.717 33H184.19L175.577 9.18164L176.236 24.2549V33H169.645V1.00781L178.258 1.00781Z" stroke="#FF572B" stroke-width="1.9"/>
<path d="M233.277 1.00781V22.0796C233.277 25.5806 232.179 28.3491 229.981 30.3853C227.799 32.4214 224.811 33.4395 221.017 33.4395C217.281 33.4395 214.315 32.4507 212.118 30.4731C209.92 28.4956 208.8 25.7783 208.756 22.3213V1.00781L215.348 1.00781V22.1235C215.348 24.2183 215.846 25.749 216.842 26.7158C217.853 27.668 219.244 28.144 221.017 28.144C224.723 28.144 226.605 26.1958 226.664 22.2993V1.00781L233.277 1.00781Z" stroke="#FF572B" stroke-width="1.9"/>
<path d="M262.765 6.34717L252.965 6.34717V33H246.373V6.34717L236.705 6.34717V1.00781L262.765 1.00781V6.34717Z" stroke="#FF572B" stroke-width="1.9"/>
<path d="M285.792 19.1353L273.136 19.1353V27.7046L287.989 27.7046V33H266.544V1.00781L287.945 1.00781V6.34717L273.136 6.34717V13.9717L285.792 13.9717V19.1353Z" stroke="#FF572B" stroke-width="1.9"/>
</svg>
