<svg width="289" height="35" viewBox="0 0 289 35" fill="none" xmlns="http://www.w3.org/2000/svg">
<mask id="path-1-inside-1" fill="white">
<path fill-rule="evenodd" clip-rule="evenodd" d="M8.58496 1.00781L12.9136 23.7275L18.187 1.00781L23.7681 1.00781L29.0195 23.7715L33.3262 1.00781L39.896 1.00781L32.7988 33H26.1631L20.9556 11.5986L15.748 33H9.1123L2.01513 1.00781L8.58496 1.00781ZM20.9556 15.8283L25.3772 34H33.6013L41.1421 0.0078125L32.4976 0.0078125L28.9228 18.9035L24.5636 0.0078125L17.3925 0.0078125L13.0099 18.8898L9.41242 0.0078125L0.768982 0.0078125L8.30983 34H16.5339L20.9556 15.8283ZM51.4868 34H42.895L42.895 0.0078125L51.4868 0.0078125L51.4868 34ZM83.6328 34H75.4795L64.209 15.5118V34H55.6172L55.6172 0.0078125L63.7706 0.0078125L75.063 18.5388V0.0078125L83.6328 0.0078125V34ZM76.063 22.1016L63.209 1.00781L56.6172 1.00781L56.6172 33H63.209L63.209 11.9502L76.041 33H82.6328V1.00781L76.063 1.00781V22.1016ZM112.812 7.34717L103.013 7.34717V34H94.4209V7.34717L84.7529 7.34717V0.0078125L112.812 0.0078125V7.34717ZM95.4209 6.34717V33H102.013V6.34717L111.812 6.34717V1.00781L85.7529 1.00781V6.34717L95.4209 6.34717ZM135.84 20.1353H123.184V26.7046H138.037V34H114.592V0.0078125L137.993 0.0078125V7.34717L123.184 7.34717V12.9717L135.84 12.9717V20.1353ZM122.184 13.9717V6.34717L136.993 6.34717V1.00781L115.592 1.00781V33H137.037V27.7046L122.184 27.7046V19.1353L134.84 19.1353V13.9717L122.184 13.9717ZM158.746 33L152.748 21.2886H147.496V33H140.904V1.00781L152.792 1.00781C156.571 1.00781 159.486 1.8501 161.537 3.53467C163.587 5.21924 164.613 7.59961 164.613 10.6758C164.613 12.8584 164.137 14.6821 163.185 16.147C162.399 17.3616 161.27 18.3707 159.796 19.1743C159.51 19.3302 159.212 19.4783 158.9 19.6187L165.821 32.6924V33H158.746ZM160.264 20.0581L166.821 32.444V34H158.135L152.136 22.2886H148.496V34H139.904V0.0078125L152.792 0.0078125C156.706 0.0078125 159.879 0.87914 162.171 2.76194C164.492 4.66784 165.613 7.35358 165.613 10.6758C165.613 13.0027 165.105 15.027 164.024 16.6899M160.264 20.0581C161.864 19.1877 163.131 18.0714 164.023 16.692ZM156.018 8.35066L156.011 8.34462C155.422 7.74492 154.42 7.34717 152.792 7.34717L148.496 7.34717V14.9492L152.813 14.9492C154.303 14.9492 155.311 14.5759 155.979 13.9631C156.645 13.3385 157.021 12.4605 157.021 11.2031C157.021 9.89361 156.652 8.9854 156.018 8.35066ZM156.659 14.6968C155.75 15.5317 154.469 15.9492 152.813 15.9492L147.496 15.9492V6.34717L152.792 6.34717C154.564 6.34717 155.875 6.7793 156.725 7.64355C157.589 8.50781 158.021 9.69434 158.021 11.2031C158.021 12.6826 157.567 13.8472 156.659 14.6968ZM178.965 0.0078125L186.473 21.2084L193.941 0.0078125L204.307 0.0078125V34L195.693 34V24.2331L196.068 15.6408L189.418 34H183.489L176.862 15.6754L177.236 24.233V34H168.645V0.0078125L178.965 0.0078125ZM175.577 9.18164L184.19 33H188.717L197.352 9.15967L196.693 24.2549V33L203.307 33V1.00781L194.649 1.00781L186.476 24.2109L178.258 1.00781L169.645 1.00781V33H176.236V24.2549L175.577 9.18164ZM234.277 0.0078125V22.0796C234.277 25.8072 233.098 28.8603 230.662 31.1178C228.248 33.3689 224.992 34.4395 221.017 34.4395C217.102 34.4395 213.874 33.3994 211.449 31.2164C209.008 29.0202 207.803 26.0184 207.756 22.334L207.756 22.3213L207.756 0.0078125L216.348 0.0078125V22.1235C216.348 24.0792 216.814 25.2911 217.533 25.9929C218.311 26.7227 219.429 27.144 221.017 27.144C222.701 27.144 223.797 26.7039 224.489 25.988C225.188 25.2641 225.635 24.0923 225.664 22.2912V0.0078125L234.277 0.0078125ZM226.664 22.2993C226.605 26.1958 224.723 28.144 221.017 28.144C219.244 28.144 217.853 27.668 216.842 26.7158C215.846 25.749 215.348 24.2183 215.348 22.1235V1.00781L208.756 1.00781V22.3213C208.8 25.7783 209.92 28.4956 212.118 30.4731C214.315 32.4507 217.281 33.4395 221.017 33.4395C224.811 33.4395 227.799 32.4214 229.981 30.3853C232.179 28.3491 233.277 25.5806 233.277 22.0796V1.00781L226.664 1.00781V22.2993ZM263.765 7.34717L253.965 7.34717V34H245.373V7.34717L235.705 7.34717V0.0078125L263.765 0.0078125V7.34717ZM246.373 6.34717V33H252.965V6.34717L262.765 6.34717V1.00781L236.705 1.00781V6.34717L246.373 6.34717ZM286.792 20.1353L274.136 20.1353V26.7046L288.989 26.7046V34L265.544 34V0.0078125L288.945 0.0078125V7.34717L274.136 7.34717V12.9717L286.792 12.9717V20.1353ZM273.136 13.9717V6.34717L287.945 6.34717V1.00781L266.544 1.00781V33L287.989 33V27.7046L273.136 27.7046V19.1353L285.792 19.1353V13.9717L273.136 13.9717ZM50.4868 33L50.4868 1.00781L43.895 1.00781L43.895 33H50.4868Z"/>
</mask>
<path d="M160.264 20.0581L159.93 19.6857L160.598 20.4306L160.264 20.0581ZM163.691 16.3174L159.93 19.6857L160.598 20.4306L164.358 17.0623L163.691 16.3174ZM163.689 16.3195L159.931 19.6857L160.598 20.4306L164.357 17.0644L163.689 16.3195ZM8.58496 1.00781L9.56729 0.820657L9.41242 0.0078125L8.58496 0.0078125V1.00781ZM12.9136 23.7275L11.9312 23.9147L13.8877 23.9536L12.9136 23.7275ZM18.187 1.00781V0.0078125L17.3925 0.0078125L17.2129 0.781715L18.187 1.00781ZM23.7681 1.00781L24.7425 0.783022L24.5636 0.0078125L23.7681 0.0078125V1.00781ZM29.0195 23.7715L28.0451 23.9963L30.0021 23.9574L29.0195 23.7715ZM33.3262 1.00781V0.0078125L32.4976 0.0078125L32.3436 0.821921L33.3262 1.00781ZM39.896 1.00781L40.8723 1.22439L41.1421 0.0078125L39.896 0.0078125V1.00781ZM32.7988 33V34H33.6013L33.7751 33.2166L32.7988 33ZM26.1631 33L25.1914 33.2364L25.3772 34H26.1631L26.1631 33ZM20.9556 11.5986L21.9272 11.3622L19.9839 11.3622L20.9556 11.5986ZM15.748 33V34H16.5339L16.7197 33.2364L15.748 33ZM9.1123 33L8.13604 33.2166L8.30983 34H9.1123V33ZM2.01513 1.00781V0.0078125L0.768982 0.0078125L1.03887 1.22439L2.01513 1.00781ZM20.9556 15.8283L21.9272 15.5918L19.9839 15.5918L20.9556 15.8283ZM25.3772 34L24.4056 34.2364L24.5914 35H25.3772V34ZM33.6013 34V35H34.4038L34.5776 34.2166L33.6013 34ZM41.1421 0.0078125L42.1184 0.224388L42.3883 -0.992187L41.1421 -0.992187V0.0078125ZM32.4976 0.0078125V-0.992187L31.6691 -0.992187L31.515 -0.178079L32.4976 0.0078125ZM28.9228 18.9035L27.9484 19.1283L29.9053 19.0894L28.9228 18.9035ZM24.5636 0.0078125L25.538 -0.216978L25.3592 -0.992187L24.5636 -0.992187V0.0078125ZM17.3925 0.0078125V-0.992187L16.5981 -0.992187L16.4184 -0.218285L17.3925 0.0078125ZM13.0099 18.8898L12.0275 19.077L13.984 19.1159L13.0099 18.8898ZM9.41242 0.0078125L10.3948 -0.179343L10.2399 -0.992187L9.41242 -0.992187V0.0078125ZM0.768982 0.0078125L0.768982 -0.992188L-0.47717 -0.992188L-0.207284 0.224388L0.768982 0.0078125ZM8.30983 34L7.33357 34.2166L7.50736 35H8.30983V34ZM16.5339 34V35H17.3197L17.5055 34.2364L16.5339 34ZM51.4868 34V35H52.4868V34H51.4868ZM42.895 34H41.895V35H42.895V34ZM42.895 0.0078125V-0.992187L41.895 -0.992187V0.0078125L42.895 0.0078125ZM51.4868 0.0078125L52.4868 0.0078125V-0.992187L51.4868 -0.992187V0.0078125ZM83.6328 34V35H84.6328V34H83.6328ZM75.4795 34L74.6256 34.5205L74.9179 35H75.4795V34ZM64.209 15.5118L65.0628 14.9913L63.209 11.9502V15.5118H64.209ZM64.209 34V35H65.209V34H64.209ZM55.6172 34H54.6172V35H55.6172V34ZM55.6172 0.0078125V-0.992187L54.6172 -0.992187V0.0078125L55.6172 0.0078125ZM63.7706 0.0078125L64.6246 -0.512558L64.3323 -0.992187L63.7706 -0.992187V0.0078125ZM75.063 18.5388L74.209 19.0592L76.063 22.1016V18.5388H75.063ZM75.063 0.0078125V-0.992187L74.063 -0.992187V0.0078125L75.063 0.0078125ZM83.6328 0.0078125L84.6328 0.0078125V-0.992187L83.6328 -0.992187V0.0078125ZM76.063 22.1016L75.209 22.6219L77.063 25.6643V22.1016H76.063ZM63.209 1.00781L64.0629 0.487442L63.7706 0.0078125L63.209 0.0078125V1.00781ZM56.6172 1.00781V0.0078125L55.6172 0.0078125V1.00781H56.6172ZM56.6172 33H55.6172V34H56.6172V33ZM63.209 33V34H64.209V33H63.209ZM63.209 11.9502L64.0628 11.4297L62.209 8.3886V11.9502H63.209ZM76.041 33L75.1872 33.5205L75.4795 34H76.041V33ZM82.6328 33V34H83.6328V33H82.6328ZM82.6328 1.00781L83.6328 1.00781V0.0078125L82.6328 0.0078125V1.00781ZM76.063 1.00781V0.0078125L75.063 0.0078125V1.00781L76.063 1.00781ZM112.812 7.34717V8.34717H113.812V7.34717H112.812ZM103.013 7.34717V6.34717L102.013 6.34717V7.34717L103.013 7.34717ZM103.013 34V35H104.013V34H103.013ZM94.4209 34H93.4209V35H94.4209V34ZM94.4209 7.34717H95.4209V6.34717H94.4209V7.34717ZM84.7529 7.34717H83.7529V8.34717H84.7529V7.34717ZM84.7529 0.0078125V-0.992187L83.7529 -0.992187V0.0078125L84.7529 0.0078125ZM112.812 0.0078125L113.812 0.0078125V-0.992187L112.812 -0.992187V0.0078125ZM95.4209 6.34717H96.4209V5.34717H95.4209V6.34717ZM95.4209 33H94.4209V34H95.4209V33ZM102.013 33V34H103.013V33H102.013ZM102.013 6.34717V5.34717H101.013V6.34717H102.013ZM111.812 6.34717V7.34717H112.812V6.34717H111.812ZM111.812 1.00781L112.812 1.00781V0.0078125L111.812 0.0078125V1.00781ZM85.7529 1.00781V0.0078125L84.7529 0.0078125V1.00781L85.7529 1.00781ZM85.7529 6.34717H84.7529V7.34717H85.7529V6.34717ZM135.84 20.1353V21.1353H136.84V20.1353H135.84ZM123.184 20.1353V19.1353L122.184 19.1353V20.1353L123.184 20.1353ZM123.184 26.7046L122.184 26.7046V27.7046L123.184 27.7046V26.7046ZM138.037 26.7046H139.037V25.7046H138.037V26.7046ZM138.037 34V35H139.037V34H138.037ZM114.592 34H113.592V35H114.592V34ZM114.592 0.0078125V-0.992187L113.592 -0.992187V0.0078125L114.592 0.0078125ZM137.993 0.0078125L138.993 0.0078125V-0.992187L137.993 -0.992187V0.0078125ZM137.993 7.34717V8.34717L138.993 8.34717V7.34717H137.993ZM123.184 7.34717V6.34717H122.184V7.34717H123.184ZM123.184 12.9717H122.184V13.9717H123.184V12.9717ZM135.84 12.9717H136.84V11.9717H135.84V12.9717ZM122.184 13.9717H121.184V14.9717H122.184V13.9717ZM122.184 6.34717V5.34717H121.184V6.34717H122.184ZM136.993 6.34717V7.34717H137.993V6.34717H136.993ZM136.993 1.00781H137.993V0.0078125L136.993 0.0078125V1.00781ZM115.592 1.00781V0.0078125L114.592 0.0078125V1.00781L115.592 1.00781ZM115.592 33H114.592V34H115.592V33ZM137.037 33V34H138.037V33H137.037ZM137.037 27.7046H138.037V26.7046H137.037V27.7046ZM122.184 27.7046H121.184V28.7046H122.184V27.7046ZM122.184 19.1353V18.1353H121.184V19.1353H122.184ZM134.84 19.1353V20.1353H135.84V19.1353H134.84ZM134.84 13.9717H135.84V12.9717H134.84V13.9717ZM158.746 33L157.856 33.4559L158.135 34H158.746V33ZM152.748 21.2886L153.638 20.8327L153.359 20.2886H152.748V21.2886ZM147.496 21.2886V20.2886H146.496V21.2886H147.496ZM147.496 33V34H148.496V33H147.496ZM140.904 33H139.904V34H140.904V33ZM140.904 1.00781V0.0078125L139.904 0.0078125V1.00781H140.904ZM163.185 16.147L162.346 15.602L162.345 15.6041L163.185 16.147ZM159.796 19.1743L159.317 18.2964L159.317 18.2964L159.796 19.1743ZM158.9 19.6187L158.489 18.7069L157.517 19.1445L158.016 20.0865L158.9 19.6187ZM165.821 32.6924H166.821V32.444L166.705 32.2245L165.821 32.6924ZM165.821 33V34H166.821V33H165.821ZM160.264 20.0581L159.786 19.1797L158.918 19.6523L159.38 20.526L160.264 20.0581ZM166.821 32.444H167.821V32.1956L167.705 31.9761L166.821 32.444ZM166.821 34V35H167.821V34H166.821ZM158.135 34L157.245 34.4559L157.523 35H158.135V34ZM152.136 22.2886L153.026 21.8327L152.748 21.2886H152.136V22.2886ZM148.496 22.2886V21.2886H147.496V22.2886H148.496ZM148.496 34V35H149.496V34H148.496ZM139.904 34H138.904V35H139.904V34ZM139.904 0.0078125V-0.992187L138.904 -0.992187V0.0078125L139.904 0.0078125ZM162.171 2.76194L161.537 3.53467L161.537 3.53467L162.171 2.76194ZM156.011 8.34462L155.298 9.04565L155.304 9.05167L156.011 8.34462ZM156.018 8.35066L155.31 9.05771L155.31 9.05777L156.018 8.35066ZM148.496 7.34717V6.34717H147.496V7.34717H148.496ZM148.496 14.9492H147.496V15.9492H148.496V14.9492ZM155.979 13.9631L156.655 14.7001L156.663 14.6923L155.979 13.9631ZM156.659 14.6968L157.336 15.433L157.342 15.427L156.659 14.6968ZM147.496 15.9492H146.496V16.9492H147.496V15.9492ZM147.496 6.34717V5.34717L146.496 5.34717V6.34717L147.496 6.34717ZM156.725 7.64355L156.011 8.34462L156.018 8.35066L156.725 7.64355ZM178.965 0.0078125L179.907 -0.326035L179.671 -0.992187L178.965 -0.992187V0.0078125ZM186.473 21.2084L185.53 21.5423L186.476 24.2109L187.416 21.5407L186.473 21.2084ZM193.941 0.0078125V-0.992187L193.233 -0.992187L192.998 -0.324447L193.941 0.0078125ZM204.307 0.0078125L205.307 0.0078125V-0.992187L204.307 -0.992187V0.0078125ZM204.307 34V35H205.307V34H204.307ZM195.693 34H194.693V35H195.693V34ZM195.693 24.2331L194.694 24.1894L194.693 24.2112V24.2331H195.693ZM196.068 15.6408L197.067 15.6844L195.128 15.3003L196.068 15.6408ZM189.418 34V35H190.12L190.358 34.3406L189.418 34ZM183.489 34L182.548 34.3401L182.787 35H183.489V34ZM176.862 15.6754L177.802 15.3354L175.863 15.7191L176.862 15.6754ZM177.236 24.233H178.236V24.2112L178.235 24.1893L177.236 24.233ZM177.236 34V35H178.236V34H177.236ZM168.645 34H167.645V35H168.645V34ZM168.645 0.0078125V-0.992187L167.645 -0.992187V0.0078125L168.645 0.0078125ZM175.577 9.18164L176.518 8.84157L174.578 9.22533L175.577 9.18164ZM184.19 33L183.25 33.3401L183.489 34H184.19V33ZM188.717 33V34H189.418L189.657 33.3406L188.717 33ZM197.352 9.15967L198.351 9.20329L196.412 8.81911L197.352 9.15967ZM196.693 24.2549L195.694 24.2113L195.693 24.2331V24.2549H196.693ZM196.693 33H195.693V34H196.693V33ZM203.307 33V34H204.307V33H203.307ZM203.307 1.00781H204.307V0.0078125L203.307 0.0078125V1.00781ZM194.649 1.00781V0.0078125L193.941 0.0078125L193.706 0.675553L194.649 1.00781ZM186.476 24.2109L185.533 24.5448L186.478 27.2135L187.419 24.5432L186.476 24.2109ZM178.258 1.00781L179.2 0.673965L178.965 0.0078125L178.258 0.0078125V1.00781ZM169.645 1.00781V0.0078125L168.645 0.0078125V1.00781H169.645ZM169.645 33H168.645V34H169.645V33ZM176.236 33V34H177.236V33H176.236ZM176.236 24.2549H177.236V24.233L177.235 24.2112L176.236 24.2549ZM234.277 0.0078125L235.277 0.0078125V-0.992187L234.277 -0.992187V0.0078125ZM230.662 31.1178L229.982 30.3844L229.98 30.3865L230.662 31.1178ZM211.449 31.2164L210.78 31.9597L210.78 31.9597L211.449 31.2164ZM207.756 22.334L206.756 22.346L206.756 22.3467L207.756 22.334ZM207.756 22.3213L206.756 22.3213L206.756 22.3333L207.756 22.3213ZM207.756 0.0078125V-0.992187L206.756 -0.992187L206.756 0.00780908L207.756 0.0078125ZM216.348 0.0078125L217.348 0.0078125V-0.992187L216.348 -0.992187V0.0078125ZM217.533 25.9929L216.834 26.7086L216.841 26.7154L216.849 26.7221L217.533 25.9929ZM224.489 25.988L225.208 26.6829L225.208 26.6829L224.489 25.988ZM225.664 22.2912L226.663 22.3069L226.664 22.2991V22.2912H225.664ZM225.664 0.0078125V-0.992187L224.664 -0.992187V0.0078125L225.664 0.0078125ZM226.664 22.2993L227.663 22.3144L227.664 22.3068V22.2993H226.664ZM216.842 26.7158L216.145 27.4334L216.151 27.4386L216.156 27.4437L216.842 26.7158ZM215.348 1.00781L216.348 1.00781V0.0078125L215.348 0.0078125V1.00781ZM208.756 1.00781V0.0078125L207.756 0.0078125V1.00781L208.756 1.00781ZM208.756 22.3213L207.756 22.3213L207.756 22.334L208.756 22.3213ZM229.981 30.3853L229.302 29.6518L229.299 29.654L229.981 30.3853ZM233.277 1.00781L234.277 1.00781V0.0078125L233.277 0.0078125V1.00781ZM226.664 1.00781V0.0078125L225.664 0.0078125V1.00781L226.664 1.00781ZM263.765 7.34717V8.34717H264.765V7.34717H263.765ZM253.965 7.34717V6.34717H252.965V7.34717H253.965ZM253.965 34V35H254.965V34H253.965ZM245.373 34H244.373V35H245.373V34ZM245.373 7.34717H246.373V6.34717H245.373V7.34717ZM235.705 7.34717L234.705 7.34717V8.34717H235.705V7.34717ZM235.705 0.0078125V-0.992187L234.705 -0.992187V0.0078125L235.705 0.0078125ZM263.765 0.0078125L264.765 0.0078125V-0.992187L263.765 -0.992187V0.0078125ZM246.373 6.34717L247.373 6.34717V5.34717L246.373 5.34717V6.34717ZM246.373 33H245.373V34H246.373V33ZM252.965 33V34H253.965V33H252.965ZM252.965 6.34717V5.34717L251.965 5.34717V6.34717L252.965 6.34717ZM262.765 6.34717V7.34717L263.765 7.34717V6.34717L262.765 6.34717ZM262.765 1.00781H263.765V0.0078125L262.765 0.0078125V1.00781ZM236.705 1.00781V0.0078125L235.705 0.0078125V1.00781L236.705 1.00781ZM236.705 6.34717H235.705V7.34717H236.705V6.34717ZM286.792 20.1353V21.1353H287.792V20.1353H286.792ZM274.136 20.1353V19.1353H273.136V20.1353H274.136ZM274.136 26.7046H273.136V27.7046H274.136V26.7046ZM288.989 26.7046H289.989V25.7046H288.989V26.7046ZM288.989 34V35H289.989V34H288.989ZM265.544 34H264.544V35H265.544V34ZM265.544 0.0078125V-0.992187L264.544 -0.992187V0.0078125L265.544 0.0078125ZM288.945 0.0078125L289.945 0.0078125V-0.992187L288.945 -0.992187V0.0078125ZM288.945 7.34717V8.34717H289.945V7.34717H288.945ZM274.136 7.34717V6.34717H273.136V7.34717H274.136ZM274.136 12.9717H273.136V13.9717H274.136V12.9717ZM286.792 12.9717H287.792V11.9717H286.792V12.9717ZM273.136 13.9717H272.136V14.9717H273.136V13.9717ZM273.136 6.34717V5.34717H272.136V6.34717H273.136ZM287.945 6.34717V7.34717H288.945V6.34717H287.945ZM287.945 1.00781L288.945 1.00781V0.0078125L287.945 0.0078125V1.00781ZM266.544 1.00781V0.0078125L265.544 0.0078125V1.00781H266.544ZM266.544 33H265.544V34H266.544V33ZM287.989 33V34H288.989V33H287.989ZM287.989 27.7046H288.989V26.7046H287.989V27.7046ZM273.136 27.7046H272.136V28.7046H273.136V27.7046ZM273.136 19.1353V18.1353H272.136V19.1353H273.136ZM285.792 19.1353V20.1353H286.792V19.1353H285.792ZM285.792 13.9717H286.792V12.9717H285.792V13.9717ZM50.4868 33V34H51.4868V33H50.4868ZM50.4868 1.00781L51.4868 1.00781V0.0078125L50.4868 0.0078125V1.00781ZM43.895 1.00781V0.0078125L42.895 0.0078125V1.00781H43.895ZM43.895 33H42.895V34H43.895V33ZM18.187 2.00781L23.7681 2.00781V0.0078125L18.187 0.0078125V2.00781ZM32.7988 32H26.1631L26.1631 34H32.7988V32ZM15.748 32H9.1123V34H15.748V32ZM124.184 26.7046V20.1353L122.184 20.1353V26.7046L124.184 26.7046ZM124.184 12.9717V7.34717H122.184V12.9717H124.184ZM159.636 32.5441L153.638 20.8327L151.858 21.7445L157.856 33.4559L159.636 32.5441ZM152.792 2.00781C156.436 2.00781 159.092 2.82106 160.902 4.30739L162.171 2.76194C159.879 0.87914 156.706 0.0078125 152.792 0.0078125V2.00781ZM160.902 4.30739C162.683 5.77063 163.613 7.84564 163.613 10.6758H165.613C165.613 7.35358 164.492 4.66784 162.171 2.76194L160.902 4.30739ZM163.613 10.6758C163.613 12.7131 163.169 14.3355 162.346 15.602L164.023 16.692C165.104 15.0287 165.613 13.0037 165.613 10.6758H163.613ZM162.345 15.6041C161.664 16.6577 160.668 17.5597 159.317 18.2964L160.275 20.0523C161.871 19.1817 163.135 18.0656 164.024 16.6899L162.345 15.6041ZM159.317 18.2964C159.055 18.4395 158.779 18.5764 158.489 18.7069L159.311 20.5304C159.644 20.3802 159.966 20.2208 160.275 20.0523L159.317 18.2964ZM164.821 32.6924V33H166.821V32.6924H164.821ZM148.496 23.2886H152.136V21.2886H148.496V23.2886ZM162.806 1.98922C160.273 -0.0919097 156.841 -0.992187 152.792 -0.992187V1.00781C156.571 1.00781 159.486 1.85019 161.537 3.53467L162.806 1.98922ZM166.613 10.6758C166.613 7.10798 165.396 4.11668 162.806 1.98921L161.537 3.53467C163.587 5.21901 164.613 7.59919 164.613 10.6758H166.613ZM164.863 17.2346C166.072 15.3734 166.613 13.1478 166.613 10.6758H164.613C164.613 12.8576 164.137 14.6807 163.186 16.1451L164.863 17.2346ZM160.742 20.9365C162.464 19.9994 163.866 18.7761 164.863 17.2351L163.183 16.1488C162.396 17.3668 161.263 18.3761 159.786 19.1797L160.742 20.9365ZM155.304 9.05167L155.31 9.05771L156.725 7.64361L156.719 7.63757L155.304 9.05167ZM152.792 8.34717C154.275 8.34717 154.968 8.70992 155.298 9.04562L156.725 7.64361C155.876 6.77993 154.565 6.34717 152.792 6.34717V8.34717ZM148.496 8.34717L152.792 8.34717V6.34717L148.496 6.34717V8.34717ZM149.496 14.9492V7.34717H147.496V14.9492H149.496ZM152.813 13.9492L148.496 13.9492V15.9492L152.813 15.9492V13.9492ZM155.303 13.2261C154.874 13.6194 154.139 13.9492 152.813 13.9492V15.9492C154.467 15.9492 155.747 15.5325 156.655 14.7001L155.303 13.2261ZM156.021 11.2031C156.021 12.2402 155.722 12.8334 155.295 13.2339L156.663 14.6923C157.568 13.8435 158.021 12.6808 158.021 11.2031H156.021ZM155.31 9.05777C155.716 9.46355 156.021 10.0939 156.021 11.2031H158.021C158.021 9.69335 157.588 8.50725 156.725 7.64356L155.31 9.05777ZM152.813 16.9492C154.632 16.9492 156.187 16.4886 157.335 15.4329L155.982 13.9606C155.314 14.5749 154.305 14.9492 152.813 14.9492V16.9492ZM157.438 6.94252C156.328 5.81367 154.708 5.34717 152.792 5.34717V7.34717C154.42 7.34717 155.422 7.74492 156.011 8.34459L157.438 6.94252ZM159.021 11.2031C159.021 9.49507 158.525 8.03023 157.432 6.93645L156.018 8.35066C156.652 8.9854 157.021 9.89361 157.021 11.2031H159.021ZM157.342 15.427C158.49 14.3527 159.021 12.9025 159.021 11.2031H157.021C157.021 12.4628 156.643 13.3417 155.976 13.9665L157.342 15.427ZM188.717 32H184.19V34H188.717V32ZM231.342 31.8513C234.017 29.372 235.277 26.034 235.277 22.0796H233.277C233.277 25.5804 232.179 28.3486 229.982 30.3844L231.342 31.8513ZM221.017 35.4395C225.173 35.4395 228.699 34.3162 231.344 31.8492L229.98 30.3865C227.798 32.4216 224.81 33.4395 221.017 33.4395V35.4395ZM210.78 31.9597C213.434 34.3483 216.922 35.4395 221.017 35.4395V33.4395C217.281 33.4395 214.315 32.4506 212.118 30.4731L210.78 31.9597ZM206.756 22.3467C206.806 26.2581 208.096 29.5447 210.78 31.9597L212.118 30.4731C209.921 28.4958 208.8 25.7786 208.756 22.3213L206.756 22.3467ZM206.756 22.3333L206.756 22.346L208.756 22.322L208.756 22.3093L206.756 22.3333ZM218.231 25.2772C217.784 24.8404 217.348 23.9443 217.348 22.1235H215.348C215.348 24.2141 215.844 25.7418 216.834 26.7086L218.231 25.2772ZM221.017 26.144C219.611 26.144 218.763 25.7757 218.217 25.2637L216.849 26.7221C217.858 27.6698 219.248 28.144 221.017 28.144V26.144ZM223.77 25.2932C223.327 25.7514 222.531 26.144 221.017 26.144V28.144C222.871 28.144 224.267 27.6564 225.208 26.6829L223.77 25.2932ZM224.664 22.2756C224.638 23.9325 224.229 24.8178 223.77 25.2932L225.208 26.6829C226.147 25.7104 226.633 24.2521 226.663 22.3069L224.664 22.2756ZM221.017 29.144C223.038 29.144 224.736 28.6101 225.927 27.3777C227.109 26.1543 227.632 24.4058 227.663 22.3144L225.664 22.2843C225.637 24.0893 225.189 25.2632 224.489 25.988C223.797 26.7039 222.701 27.144 221.017 27.144V29.144ZM216.156 27.4437C217.4 28.6151 219.062 29.144 221.017 29.144V27.144C219.426 27.144 218.305 26.7208 217.527 25.9879L216.156 27.4437ZM214.348 22.1235C214.348 24.3523 214.875 26.2008 216.145 27.4334L217.538 25.9982C216.816 25.2972 216.348 24.0842 216.348 22.1235H214.348ZM212.787 29.7299C210.832 27.971 209.797 25.5383 209.756 22.3086L207.756 22.334C207.803 26.0184 209.008 29.0202 211.449 31.2164L212.787 29.7299ZM221.017 32.4395C217.461 32.4395 214.756 31.502 212.787 29.7299L211.449 31.2164C213.874 33.3994 217.102 34.4395 221.017 34.4395V32.4395ZM229.299 29.654C227.348 31.4743 224.629 32.4395 221.017 32.4395V34.4395C224.992 34.4395 228.25 33.3685 230.664 31.1165L229.299 29.654ZM232.277 22.0796C232.277 25.3535 231.26 27.8371 229.302 29.6518L230.661 31.1187C233.097 28.8611 234.277 25.8077 234.277 22.0796L232.277 22.0796ZM275.136 26.7046V20.1353H273.136V26.7046H275.136ZM275.136 12.9717V7.34717L273.136 7.34717V12.9717H275.136ZM2.01513 2.00781L8.58496 2.00781V0.0078125L2.01513 0.0078125V2.00781ZM7.60263 1.19497L11.9312 23.9147L13.8959 23.5404L9.56729 0.820657L7.60263 1.19497ZM13.8877 23.9536L19.1611 1.23391L17.2129 0.781715L11.9395 23.5014L13.8877 23.9536ZM22.7937 1.2326L28.0451 23.9963L29.9939 23.5467L24.7425 0.783022L22.7937 1.2326ZM30.0021 23.9574L34.3087 1.1937L32.3436 0.821921L28.037 23.5856L30.0021 23.9574ZM33.3262 2.00781L39.896 2.00781V0.0078125L33.3262 0.0078125V2.00781ZM38.9197 0.791237L31.8226 32.7834L33.7751 33.2166L40.8723 1.22439L38.9197 0.791237ZM27.1347 32.7636L21.9272 11.3622L19.9839 11.8351L25.1914 33.2364L27.1347 32.7636ZM19.9839 11.3622L14.7764 32.7636L16.7197 33.2364L21.9272 11.8351L19.9839 11.3622ZM10.0886 32.7834L2.9914 0.791237L1.03887 1.22439L8.13604 33.2166L10.0886 32.7834ZM19.9839 16.0647L24.4056 34.2364L26.3489 33.7636L21.9272 15.5918L19.9839 16.0647ZM25.3772 35H33.6013V33H25.3772L25.3772 35ZM34.5776 34.2166L42.1184 0.224388L40.1659 -0.208763L32.625 33.7834L34.5776 34.2166ZM41.1421 -0.992187L32.4976 -0.992187V1.00781L41.1421 1.00781V-0.992187ZM31.515 -0.178079L27.9402 18.7176L29.9053 19.0894L33.4802 0.193704L31.515 -0.178079ZM29.8972 18.6787L25.538 -0.216978L23.5892 0.232603L27.9484 19.1283L29.8972 18.6787ZM24.5636 -0.992187L17.3925 -0.992187V1.00781L24.5636 1.00781V-0.992187ZM16.4184 -0.218285L12.0358 18.6637L13.984 19.1159L18.3666 0.23391L16.4184 -0.218285ZM13.9922 18.7027L10.3948 -0.179343L8.43009 0.194968L12.0275 19.077L13.9922 18.7027ZM9.41242 -0.992187L0.768982 -0.992188L0.768982 1.00781L9.41242 1.00781V-0.992187ZM-0.207284 0.224388L7.33357 34.2166L9.2861 33.7834L1.74525 -0.208763L-0.207284 0.224388ZM8.30983 35H16.5339V33H8.30983V35ZM17.5055 34.2364L21.9272 16.0647L19.9839 15.5918L15.5622 33.7636L17.5055 34.2364ZM42.895 35H51.4868V33H42.895V35ZM41.895 0.0078125L41.895 34H43.895L43.895 0.0078125L41.895 0.0078125ZM51.4868 -0.992187L42.895 -0.992187V1.00781L51.4868 1.00781V-0.992187ZM52.4868 34L52.4868 0.0078125L50.4868 0.0078125L50.4868 34H52.4868ZM75.4795 35H83.6328V33H75.4795V35ZM63.3551 16.0323L74.6256 34.5205L76.3333 33.4795L65.0628 14.9913L63.3551 16.0323ZM65.209 34V15.5118H63.209L63.209 34H65.209ZM55.6172 35H64.209V33H55.6172V35ZM54.6172 0.0078125L54.6172 34H56.6172L56.6172 0.0078125L54.6172 0.0078125ZM63.7706 -0.992187L55.6172 -0.992187V1.00781L63.7706 1.00781V-0.992187ZM75.9169 18.0185L64.6246 -0.512558L62.9167 0.528183L74.209 19.0592L75.9169 18.0185ZM74.063 0.0078125V18.5388H76.063V0.0078125L74.063 0.0078125ZM83.6328 -0.992187L75.063 -0.992187V1.00781L83.6328 1.00781V-0.992187ZM84.6328 34V0.0078125L82.6328 0.0078125V34H84.6328ZM77.063 22.1016V1.00781L75.063 1.00781V22.1016H77.063ZM62.355 1.52818L75.209 22.6219L76.9169 21.5812L64.0629 0.487442L62.355 1.52818ZM56.6172 2.00781L63.209 2.00781V0.0078125L56.6172 0.0078125V2.00781ZM57.6172 33L57.6172 1.00781L55.6172 1.00781L55.6172 33H57.6172ZM63.209 32H56.6172V34H63.209V32ZM62.209 11.9502L62.209 33H64.209V11.9502H62.209ZM76.8949 32.4795L64.0628 11.4297L62.3551 12.4707L75.1872 33.5205L76.8949 32.4795ZM82.6328 32H76.041V34H82.6328V32ZM81.6328 1.00781V33H83.6328V1.00781L81.6328 1.00781ZM76.063 2.00781L82.6328 2.00781V0.0078125L76.063 0.0078125V2.00781ZM103.013 8.34717L112.812 8.34717V6.34717L103.013 6.34717V8.34717ZM104.013 34V7.34717L102.013 7.34717V34H104.013ZM94.4209 35H103.013V33H94.4209V35ZM93.4209 7.34717V34H95.4209V7.34717H93.4209ZM84.7529 8.34717H94.4209V6.34717L84.7529 6.34717V8.34717ZM83.7529 0.0078125V7.34717H85.7529V0.0078125L83.7529 0.0078125ZM112.812 -0.992187L84.7529 -0.992187V1.00781L112.812 1.00781V-0.992187ZM113.812 7.34717V0.0078125L111.812 0.0078125V7.34717H113.812ZM95.4209 5.34717L85.7529 5.34717V7.34717L95.4209 7.34717V5.34717ZM96.4209 33V6.34717H94.4209V33H96.4209ZM102.013 32H95.4209V34H102.013V32ZM101.013 6.34717V33H103.013V6.34717L101.013 6.34717ZM111.812 5.34717L102.013 5.34717V7.34717L111.812 7.34717V5.34717ZM110.812 1.00781V6.34717H112.812V1.00781L110.812 1.00781ZM85.7529 2.00781L111.812 2.00781V0.0078125L85.7529 0.0078125V2.00781ZM86.7529 6.34717V1.00781L84.7529 1.00781V6.34717L86.7529 6.34717ZM123.184 21.1353H135.84V19.1353H123.184V21.1353ZM138.037 25.7046H123.184V27.7046H138.037V25.7046ZM139.037 34V26.7046H137.037V34H139.037ZM114.592 35H138.037V33H114.592V35ZM113.592 0.0078125V34H115.592V0.0078125L113.592 0.0078125ZM137.993 -0.992187L114.592 -0.992187V1.00781L137.993 1.00781V-0.992187ZM138.993 7.34717V0.0078125L136.993 0.0078125V7.34717H138.993ZM123.184 8.34717L137.993 8.34717V6.34717L123.184 6.34717V8.34717ZM135.84 11.9717L123.184 11.9717V13.9717L135.84 13.9717V11.9717ZM136.84 20.1353V12.9717H134.84V20.1353H136.84ZM122.184 14.9717L134.84 14.9717V12.9717L122.184 12.9717V14.9717ZM121.184 6.34717V13.9717H123.184V6.34717H121.184ZM136.993 5.34717L122.184 5.34717V7.34717L136.993 7.34717V5.34717ZM135.993 1.00781V6.34717L137.993 6.34717V1.00781L135.993 1.00781ZM115.592 2.00781L136.993 2.00781V0.0078125L115.592 0.0078125V2.00781ZM116.592 33V1.00781L114.592 1.00781V33H116.592ZM137.037 32L115.592 32V34H137.037V32ZM136.037 27.7046V33H138.037V27.7046H136.037ZM122.184 28.7046L137.037 28.7046V26.7046L122.184 26.7046V28.7046ZM121.184 19.1353V27.7046L123.184 27.7046V19.1353L121.184 19.1353ZM134.84 18.1353L122.184 18.1353V20.1353L134.84 20.1353V18.1353ZM133.84 13.9717V19.1353H135.84V13.9717H133.84ZM165.821 32H158.746V34H165.821V32ZM152.748 20.2886H147.496V22.2886H152.748V20.2886ZM146.496 21.2886V33H148.496V21.2886H146.496ZM147.496 32L140.904 32V34H147.496V32ZM141.904 33V1.00781L139.904 1.00781V33H141.904ZM140.904 2.00781L152.792 2.00781V0.0078125L140.904 0.0078125V2.00781ZM158.016 20.0865L164.938 33.1603L166.705 32.2245L159.784 19.1508L158.016 20.0865ZM167.705 31.9761L161.148 19.5902L159.38 20.526L165.938 32.9119L167.705 31.9761ZM167.821 34V32.444H165.821V34H167.821ZM158.135 35H166.821V33H158.135V35ZM151.246 22.7445L157.245 34.4559L159.025 33.5441L153.026 21.8327L151.246 22.7445ZM149.496 34V22.2886H147.496V34H149.496ZM139.904 35H148.496V33H139.904V35ZM138.904 0.0078125V34H140.904V0.0078125L138.904 0.0078125ZM152.792 -0.992187L139.904 -0.992187V1.00781L152.792 1.00781V-0.992187ZM147.496 16.9492H152.813V14.9492L147.496 14.9492V16.9492ZM146.496 6.34717V15.9492H148.496V6.34717L146.496 6.34717ZM152.792 5.34717L147.496 5.34717V7.34717L152.792 7.34717V5.34717ZM187.416 20.8746L179.907 -0.326035L178.022 0.34166L185.53 21.5423L187.416 20.8746ZM192.998 -0.324447L185.53 20.8762L187.416 21.5407L194.885 0.340072L192.998 -0.324447ZM204.307 -0.992187L193.941 -0.992187V1.00781L204.307 1.00781V-0.992187ZM205.307 34V0.0078125L203.307 0.0078125V34H205.307ZM195.693 35L204.307 35V33L195.693 33V35ZM194.693 24.2331V34H196.693V24.2331H194.693ZM195.069 15.5972L194.694 24.1894L196.692 24.2767L197.067 15.6844L195.069 15.5972ZM190.358 34.3406L197.008 15.9814L195.128 15.3003L188.478 33.6594L190.358 34.3406ZM183.489 35H189.418V33H183.489V35ZM175.922 16.0155L182.548 34.3401L184.429 33.6599L177.802 15.3354L175.922 16.0155ZM178.235 24.1893L177.861 15.6318L175.863 15.7191L176.237 24.2767L178.235 24.1893ZM178.236 34V24.233H176.236V34H178.236ZM168.645 35H177.236V33H168.645V35ZM167.645 0.0078125V34H169.645V0.0078125L167.645 0.0078125ZM178.965 -0.992187L168.645 -0.992187V1.00781L178.965 1.00781V-0.992187ZM174.578 9.22533L175.237 24.2986L177.235 24.2112L176.576 9.13795L174.578 9.22533ZM185.131 32.6599L176.518 8.84157L174.637 9.52171L183.25 33.3401L185.131 32.6599ZM196.412 8.81911L187.777 32.6594L189.657 33.3406L198.292 9.50023L196.412 8.81911ZM197.692 24.2985L198.351 9.20329L196.353 9.11604L195.694 24.2113L197.692 24.2985ZM197.693 33V24.2549H195.693V33H197.693ZM203.307 32H196.693V34L203.307 34V32ZM202.307 1.00781V33H204.307V1.00781L202.307 1.00781ZM194.649 2.00781L203.307 2.00781V0.0078125L194.649 0.0078125V2.00781ZM187.419 24.5432L195.593 1.34007L193.706 0.675553L185.532 23.8787L187.419 24.5432ZM177.315 1.34166L185.533 24.5448L187.418 23.8771L179.2 0.673965L177.315 1.34166ZM169.645 2.00781L178.258 2.00781V0.0078125L169.645 0.0078125V2.00781ZM170.645 33V1.00781L168.645 1.00781V33H170.645ZM176.236 32H169.645V34H176.236V32ZM175.236 24.2549V33H177.236V24.2549H175.236ZM235.277 22.0796V0.0078125L233.277 0.0078125V22.0796H235.277ZM206.756 0.00780908L206.756 22.3213L208.756 22.3213L208.756 0.00781592L206.756 0.00780908ZM216.348 -0.992187L207.756 -0.992187V1.00781L216.348 1.00781V-0.992187ZM217.348 22.1235V0.0078125L215.348 0.0078125V22.1235H217.348ZM224.664 0.0078125V22.2912H226.664V0.0078125L224.664 0.0078125ZM234.277 -0.992187L225.664 -0.992187V1.00781L234.277 1.00781V-0.992187ZM214.348 1.00781V22.1235H216.348V1.00781L214.348 1.00781ZM208.756 2.00781L215.348 2.00781V0.0078125L208.756 0.0078125V2.00781ZM209.756 22.3213V1.00781L207.756 1.00781V22.3213H209.756ZM232.277 1.00781V22.0796L234.277 22.0796V1.00781L232.277 1.00781ZM226.664 2.00781L233.277 2.00781V0.0078125L226.664 0.0078125V2.00781ZM227.664 22.2993V1.00781L225.664 1.00781V22.2993H227.664ZM253.965 8.34717L263.765 8.34717V6.34717L253.965 6.34717V8.34717ZM254.965 34V7.34717H252.965V34H254.965ZM245.373 35H253.965V33H245.373V35ZM244.373 7.34717V34H246.373V7.34717H244.373ZM235.705 8.34717L245.373 8.34717V6.34717L235.705 6.34717V8.34717ZM234.705 0.0078125V7.34717L236.705 7.34717V0.0078125L234.705 0.0078125ZM263.765 -0.992187L235.705 -0.992187V1.00781L263.765 1.00781V-0.992187ZM264.765 7.34717V0.0078125L262.765 0.0078125V7.34717L264.765 7.34717ZM246.373 5.34717L236.705 5.34717V7.34717L246.373 7.34717V5.34717ZM247.373 33V6.34717L245.373 6.34717V33H247.373ZM252.965 32H246.373V34H252.965V32ZM251.965 6.34717V33H253.965V6.34717L251.965 6.34717ZM262.765 5.34717L252.965 5.34717V7.34717L262.765 7.34717V5.34717ZM261.765 1.00781V6.34717L263.765 6.34717V1.00781L261.765 1.00781ZM236.705 2.00781L262.765 2.00781V0.0078125L236.705 0.0078125V2.00781ZM237.705 6.34717V1.00781L235.705 1.00781V6.34717H237.705ZM274.136 21.1353L286.792 21.1353V19.1353L274.136 19.1353V21.1353ZM288.989 25.7046L274.136 25.7046V27.7046L288.989 27.7046V25.7046ZM289.989 34V26.7046H287.989V34H289.989ZM265.544 35L288.989 35V33L265.544 33V35ZM264.544 0.0078125V34H266.544V0.0078125L264.544 0.0078125ZM288.945 -0.992187L265.544 -0.992187V1.00781L288.945 1.00781V-0.992187ZM289.945 7.34717V0.0078125L287.945 0.0078125V7.34717H289.945ZM274.136 8.34717L288.945 8.34717V6.34717L274.136 6.34717V8.34717ZM286.792 11.9717L274.136 11.9717V13.9717L286.792 13.9717V11.9717ZM287.792 20.1353V12.9717H285.792V20.1353H287.792ZM273.136 14.9717L285.792 14.9717V12.9717L273.136 12.9717V14.9717ZM272.136 6.34717V13.9717H274.136V6.34717H272.136ZM287.945 5.34717L273.136 5.34717V7.34717L287.945 7.34717V5.34717ZM286.945 1.00781V6.34717H288.945V1.00781L286.945 1.00781ZM266.544 2.00781L287.945 2.00781V0.0078125L266.544 0.0078125V2.00781ZM267.544 33V1.00781L265.544 1.00781V33H267.544ZM287.989 32H266.544V34L287.989 34V32ZM286.989 27.7046V33L288.989 33V27.7046H286.989ZM273.136 28.7046L287.989 28.7046V26.7046L273.136 26.7046V28.7046ZM272.136 19.1353V27.7046H274.136V19.1353H272.136ZM285.792 18.1353L273.136 18.1353V20.1353L285.792 20.1353V18.1353ZM284.792 13.9717V19.1353H286.792V13.9717H284.792ZM50.4868 32H43.895V34H50.4868V32ZM49.4868 1.00781L49.4868 33H51.4868L51.4868 1.00781L49.4868 1.00781ZM43.895 2.00781L50.4868 2.00781V0.0078125L43.895 0.0078125V2.00781ZM44.895 33L44.895 1.00781L42.895 1.00781L42.895 33H44.895Z" fill="#FF572B" mask="url(#path-1-inside-1)"/>
</svg>
