<svg width="183" height="127" viewBox="0 0 183 127" fill="none" xmlns="http://www.w3.org/2000/svg">
<path d="M174.784 125.301H8.21623C4.22608 125.301 1 122.073 1 118.079V8.22188C1 4.22861 4.22608 1 8.21623 1H174.784C178.774 1 182 4.22861 182 8.22188V118.079C181.915 122.073 178.774 125.301 174.784 125.301Z" stroke="#FF572B" stroke-width="2" stroke-miterlimit="10"/>
<path d="M168.671 121.137H13.9043C9.91416 121.137 6.68808 117.909 6.68808 113.916V12.2146C6.68808 8.22128 9.91416 4.99268 13.9043 4.99268H168.671C172.661 4.99268 175.887 8.22128 175.887 12.2146V114.001C175.803 117.909 172.661 121.137 168.671 121.137Z" fill="#68FFBB" stroke="#145B2C" stroke-miterlimit="10"/>
<path d="M29.4404 30.8219H32.4118L44.5521 20.0315V9.32617" stroke="#145B2C" stroke-miterlimit="10"/>
<path d="M29.4404 34.6449H35.6379L48.3724 22.4951V4.73779" stroke="#145B2C" stroke-miterlimit="10"/>
<path d="M29.4404 38.2982H38.864L53.2964 25.2988" stroke="#145B2C" stroke-miterlimit="10"/>
<path d="M29.4404 42.0366H38.864L53.2964 55.6308" stroke="#145B2C" stroke-miterlimit="10"/>
<path d="M29.4404 45.6899H35.7228L48.3724 58.0946V75.0872" stroke="#145B2C" stroke-miterlimit="10"/>
<path d="M29.4404 49.4287H32.7514L45.0614 60.8138V71.6041" stroke="#145B2C" stroke-miterlimit="10"/>
<path d="M56.0981 12.4692L80.6332 35.8341" stroke="#145B2C" stroke-miterlimit="10"/>
<path d="M56.6073 4.99268L83.2649 30.8215" stroke="#145B2C" stroke-miterlimit="10"/>
<path d="M64.7575 4.99268L88.6984 28.6974" stroke="#145B2C" stroke-miterlimit="10"/>
<path d="M7.79175 61.4937V70.7546L22.394 84.2638" stroke="#145B2C" stroke-miterlimit="10"/>
<path d="M11.7819 61.4937V68.2058L24.3467 79.6758H43.2786" stroke="#145B2C" stroke-miterlimit="10"/>
<path d="M15.6871 61.4937V65.317L27.5727 76.3622H39.3733" stroke="#145B2C" stroke-miterlimit="10"/>
<path d="M12.2913 108.393L37.2509 86.1328" stroke="#145B2C" stroke-miterlimit="10"/>
<path d="M13.5648 113.746L83.1801 50.873" stroke="#145B2C" stroke-miterlimit="10"/>
<path d="M19.6773 115.785L44.637 93.4395" stroke="#145B2C" stroke-miterlimit="10"/>
<path d="M46.0802 106.354L61.022 119.183H71.5492" stroke="#145B2C" stroke-miterlimit="10"/>
<path d="M71.5492 115.784H63.8236L50.5797 103.89V86.9819" stroke="#145B2C" stroke-miterlimit="10"/>
<path d="M54.5699 90.8057V101.426L67.0498 112.726H71.5493" stroke="#145B2C" stroke-miterlimit="10"/>
<path d="M56.3528 82.394H74.7754L88.3588 95.1385V101.426" stroke="#145B2C" stroke-miterlimit="10"/>
<path d="M60.258 86.1328H71.5492L84.5384 97.263V101.426" stroke="#145B2C" stroke-miterlimit="10"/>
<path d="M77.0676 78.146L92.5189 91.9101V101.426" stroke="#145B2C" stroke-miterlimit="10"/>
<path d="M96.5938 101.426V91.9101L111.111 78.146" stroke="#145B2C" stroke-miterlimit="10"/>
<path d="M100.584 101.426V94.7987L113.149 82.9038H132.166" stroke="#145B2C" stroke-miterlimit="10"/>
<path d="M104.574 101.426V97.263L116.969 86.1328H127.411" stroke="#145B2C" stroke-miterlimit="10"/>
<path d="M56.0981 68.9699L80.6332 46.3696" stroke="#145B2C" stroke-miterlimit="10"/>
<path d="M63.8237 76.362L88.6984 53.4219" stroke="#145B2C" stroke-miterlimit="10"/>
<path d="M24.4315 59.7944V65.9118" stroke="#145B2C" stroke-miterlimit="10"/>
<path d="M26.8935 59.7944V65.9118" stroke="#145B2C" stroke-miterlimit="10"/>
<path d="M29.4404 59.7944V65.9118" stroke="#145B2C" stroke-miterlimit="10"/>
<path d="M31.9024 59.7944V65.9118" stroke="#145B2C" stroke-miterlimit="10"/>
<path d="M34.4494 59.7944V65.9118" stroke="#145B2C" stroke-miterlimit="10"/>
<path d="M36.9962 59.7944V65.9118" stroke="#145B2C" stroke-miterlimit="10"/>
<path d="M151.862 59.7944V65.9118" stroke="#145B2C" stroke-miterlimit="10"/>
<path d="M154.324 59.7944V65.9118" stroke="#145B2C" stroke-miterlimit="10"/>
<path d="M156.87 59.7944V65.9118" stroke="#145B2C" stroke-miterlimit="10"/>
<path d="M159.332 59.7944V65.9118" stroke="#145B2C" stroke-miterlimit="10"/>
<path d="M161.879 59.7944V65.9118" stroke="#145B2C" stroke-miterlimit="10"/>
<path d="M164.426 59.7944V65.9118" stroke="#145B2C" stroke-miterlimit="10"/>
<path d="M160.182 10.5151H153.984" stroke="#145B2C" stroke-miterlimit="10"/>
<path d="M160.182 13.064H153.984" stroke="#145B2C" stroke-miterlimit="10"/>
<path d="M160.182 15.6128H153.984" stroke="#145B2C" stroke-miterlimit="10"/>
<path d="M160.182 18.0767H153.984" stroke="#145B2C" stroke-miterlimit="10"/>
<path d="M160.182 20.6255H153.984" stroke="#145B2C" stroke-miterlimit="10"/>
<path d="M160.182 23.0898H153.984" stroke="#145B2C" stroke-miterlimit="10"/>
<path d="M33.8551 11.79H27.7425" stroke="#145B2C" stroke-miterlimit="10"/>
<path d="M33.8551 14.3394H27.7425" stroke="#145B2C" stroke-miterlimit="10"/>
<path d="M33.8551 16.8027H27.7425" stroke="#145B2C" stroke-miterlimit="10"/>
<path d="M33.8551 19.3521H27.7425" stroke="#145B2C" stroke-miterlimit="10"/>
<path d="M33.8551 21.9009H27.7425" stroke="#145B2C" stroke-miterlimit="10"/>
<path d="M33.8551 24.3647H27.7425" stroke="#145B2C" stroke-miterlimit="10"/>
<path d="M62.0407 95.6489V101.766" stroke="#145B2C" stroke-miterlimit="10"/>
<path d="M64.5876 95.6484V101.766" stroke="#145B2C" stroke-miterlimit="10"/>
<path d="M67.1345 95.6484V101.766" stroke="#145B2C" stroke-miterlimit="10"/>
<path d="M69.5964 95.6484V101.766" stroke="#145B2C" stroke-miterlimit="10"/>
<path d="M72.1433 95.6484V101.766" stroke="#145B2C" stroke-miterlimit="10"/>
<path d="M74.6054 95.6484V101.766" stroke="#145B2C" stroke-miterlimit="10"/>
<path d="M122.063 91.3154L115.865 91.4004" stroke="#145B2C" stroke-miterlimit="10"/>
<path d="M122.063 93.8643H115.95" stroke="#145B2C" stroke-miterlimit="10"/>
<path d="M122.063 96.4131H115.95" stroke="#145B2C" stroke-miterlimit="10"/>
<path d="M122.063 98.877L115.95 98.9619" stroke="#145B2C" stroke-miterlimit="10"/>
<path d="M122.148 101.426H115.95" stroke="#145B2C" stroke-miterlimit="10"/>
<path d="M122.148 103.89L115.95 103.975" stroke="#145B2C" stroke-miterlimit="10"/>
<path d="M100.075 28.6974L124.185 4.99268" stroke="#145B2C" stroke-miterlimit="10"/>
<path d="M104.574 30.8215L131.401 4.90771" stroke="#145B2C" stroke-miterlimit="10"/>
<path d="M107.885 35.8342L133.099 11.8745" stroke="#145B2C" stroke-miterlimit="10"/>
<path d="M100.075 53.4219L125.544 76.362" stroke="#145B2C" stroke-miterlimit="10"/>
<path d="M146.428 94.1191L171.897 117.059" stroke="#145B2C" stroke-miterlimit="10"/>
<path d="M107.885 46.3696L133.099 68.9699" stroke="#145B2C" stroke-miterlimit="10"/>
<path d="M175.803 103.295L155.512 85.2832" stroke="#145B2C" stroke-miterlimit="10"/>
<path d="M116.884 112.726H121.299L134.373 100.152L134.713 89.7861" stroke="#145B2C" stroke-miterlimit="10"/>
<path d="M117.309 115.784H124.015L140.231 98.8768V86.9819" stroke="#145B2C" stroke-miterlimit="10"/>
<path d="M117.309 119.184H127.411L140.825 104.655" stroke="#145B2C" stroke-miterlimit="10"/>
<path d="M15.6871 61.4928V57.1597" stroke="#145B2C" stroke-width="3.5" stroke-miterlimit="10"/>
<path d="M84.5384 105.589V101.256" stroke="#145B2C" stroke-width="3.5" stroke-miterlimit="10"/>
<path d="M88.3588 105.759V101.341" stroke="#145B2C" stroke-width="3.5" stroke-miterlimit="10"/>
<path d="M92.5187 105.759V101.341" stroke="#145B2C" stroke-width="3.5" stroke-miterlimit="10"/>
<path d="M96.5089 105.759V101.341" stroke="#145B2C" stroke-width="3.5" stroke-miterlimit="10"/>
<path d="M100.584 105.589V101.256" stroke="#145B2C" stroke-width="3.5" stroke-miterlimit="10"/>
<path d="M104.574 105.504V101.086" stroke="#145B2C" stroke-width="3.5" stroke-miterlimit="10"/>
<path d="M23.4128 49.4287H29.4405" stroke="#145B2C" stroke-width="3.5" stroke-miterlimit="10"/>
<path d="M71.0399 112.726H77.0675" stroke="#145B2C" stroke-width="3" stroke-miterlimit="10"/>
<path d="M111.621 112.726H117.648" stroke="#145B2C" stroke-width="3" stroke-miterlimit="10"/>
<path d="M111.621 115.785H117.648" stroke="#145B2C" stroke-width="3" stroke-miterlimit="10"/>
<path d="M111.621 119.183H117.648" stroke="#145B2C" stroke-width="3" stroke-miterlimit="10"/>
<path d="M71.0399 115.785H77.0675" stroke="#145B2C" stroke-width="3" stroke-miterlimit="10"/>
<path d="M71.0399 119.183H77.0675" stroke="#145B2C" stroke-width="3" stroke-miterlimit="10"/>
<path d="M23.4128 45.6899H29.4405" stroke="#145B2C" stroke-width="3.5" stroke-miterlimit="10"/>
<path d="M23.4128 41.8667H29.4405" stroke="#145B2C" stroke-width="3.5" stroke-miterlimit="10"/>
<path d="M23.4128 34.5601H29.4405" stroke="#145B2C" stroke-width="3.5" stroke-miterlimit="10"/>
<path d="M23.4128 30.8213H29.4405" stroke="#145B2C" stroke-width="3.5" stroke-miterlimit="10"/>
<path d="M23.4128 38.2134H29.4405" stroke="#145B2C" stroke-width="3.5" stroke-miterlimit="10"/>
<path d="M159.078 30.9913H156.022L143.881 20.2859V9.49561" stroke="#145B2C" stroke-miterlimit="10"/>
<path d="M159.078 34.8152H152.795L140.061 23.3452V6.52246" stroke="#145B2C" stroke-miterlimit="10"/>
<path d="M159.078 38.5531H149.569L135.137 25.4688" stroke="#145B2C" stroke-miterlimit="10"/>
<path d="M159.078 42.2915H149.569L135.137 55.8007" stroke="#145B2C" stroke-miterlimit="10"/>
<path d="M159.078 45.8604H152.711L140.061 58.265V75.2576" stroke="#145B2C" stroke-miterlimit="10"/>
<path d="M159.078 49.6836H155.682L143.372 60.9837V71.7741" stroke="#145B2C" stroke-miterlimit="10"/>
<path d="M165.021 49.6836H159.078" stroke="#145B2C" stroke-width="3.5" stroke-miterlimit="10"/>
<path d="M165.021 45.8604H159.078" stroke="#145B2C" stroke-width="3.5" stroke-miterlimit="10"/>
<path d="M165.021 42.0366H159.078" stroke="#145B2C" stroke-width="3.5" stroke-miterlimit="10"/>
<path d="M165.021 34.8145H159.078" stroke="#145B2C" stroke-width="3.5" stroke-miterlimit="10"/>
<path d="M165.021 30.9912H159.078" stroke="#145B2C" stroke-width="3.5" stroke-miterlimit="10"/>
<path d="M165.021 38.3833H159.078" stroke="#145B2C" stroke-width="3.5" stroke-miterlimit="10"/>
<path d="M11.7819 61.4928V57.1597" stroke="#145B2C" stroke-width="3.5" stroke-miterlimit="10"/>
<path d="M8.21628 61.4928V57.1597" stroke="#145B2C" stroke-width="3" stroke-miterlimit="10"/>
<path d="M165.19 83.5833L175.972 73.6426" stroke="#145B2C" stroke-miterlimit="10"/>
<path d="M175.802 60.8989V67.5261L163.238 78.9961H144.306" stroke="#145B2C" stroke-miterlimit="10"/>
<path d="M171.897 60.8989V64.6373L160.012 75.6825H148.211" stroke="#145B2C" stroke-miterlimit="10"/>
<path d="M171.897 60.8991V56.481" stroke="#145B2C" stroke-width="3.5" stroke-miterlimit="10"/>
<path d="M174.954 60.8991V56.481" stroke="#145B2C" stroke-width="2" stroke-miterlimit="10"/>
<path d="M12.7158 5.07764L7.79175 10.0055V18.8417" stroke="#145B2C" stroke-miterlimit="10"/>
<path d="M11.782 18.8417V11.7897L19.3378 4.90771" stroke="#145B2C" stroke-miterlimit="10"/>
<path d="M26.2144 4.99268L15.6023 15.1883V18.8417" stroke="#145B2C" stroke-miterlimit="10"/>
<path d="M15.6023 23.1749V18.8418" stroke="#145B2C" stroke-width="3.5" stroke-miterlimit="10"/>
<path d="M11.782 23.1749V18.8418" stroke="#145B2C" stroke-width="3.5" stroke-miterlimit="10"/>
<path d="M8.13138 23.1749V18.8418" stroke="#145B2C" stroke-width="3" stroke-miterlimit="10"/>
<path d="M167.143 4.99268L175.803 12.2995V19.6064" stroke="#145B2C" stroke-miterlimit="10"/>
<path d="M160.436 4.99316L171.982 15.8685V19.6069" stroke="#145B2C" stroke-miterlimit="10"/>
<path d="M171.982 24.0245V19.6064" stroke="#145B2C" stroke-width="3.5" stroke-miterlimit="10"/>
<path d="M175.123 24.0245V19.6064" stroke="#145B2C" stroke-width="2" stroke-miterlimit="10"/>
<path d="M8.21627 86.1329C8.8258 86.1329 9.31993 85.6384 9.31993 85.0284C9.31993 84.4183 8.8258 83.9238 8.21627 83.9238C7.60673 83.9238 7.11261 84.4183 7.11261 85.0284C7.11261 85.6384 7.60673 86.1329 8.21627 86.1329Z" fill="#145B2C"/>
<path d="M8.21627 81.3746C8.8258 81.3746 9.31993 80.8801 9.31993 80.27C9.31993 79.66 8.8258 79.1655 8.21627 79.1655C7.60673 79.1655 7.11261 79.66 7.11261 80.27C7.11261 80.8801 7.60673 81.3746 8.21627 81.3746Z" fill="#145B2C"/>
<path d="M10.6783 83.754C11.2878 83.754 11.7819 83.2595 11.7819 82.6494C11.7819 82.0394 11.2878 81.5449 10.6783 81.5449C10.0687 81.5449 9.57462 82.0394 9.57462 82.6494C9.57462 83.2595 10.0687 83.754 10.6783 83.754Z" fill="#145B2C"/>
<path d="M16.1966 88.4263C16.8061 88.4263 17.3002 87.9318 17.3002 87.3218C17.3002 86.7118 16.8061 86.2173 16.1966 86.2173C15.587 86.2173 15.0929 86.7118 15.0929 87.3218C15.0929 87.9318 15.587 88.4263 16.1966 88.4263Z" fill="#145B2C"/>
<path d="M13.5647 86.1329C14.1743 86.1329 14.6684 85.6384 14.6684 85.0284C14.6684 84.4183 14.1743 83.9238 13.5647 83.9238C12.9552 83.9238 12.4611 84.4183 12.4611 85.0284C12.4611 85.6384 12.9552 86.1329 13.5647 86.1329Z" fill="#145B2C"/>
<path d="M18.7435 90.6353C19.353 90.6353 19.8471 90.1408 19.8471 89.5308C19.8471 88.9208 19.353 88.4263 18.7435 88.4263C18.1339 88.4263 17.6398 88.9208 17.6398 89.5308C17.6398 90.1408 18.1339 90.6353 18.7435 90.6353Z" fill="#145B2C"/>
<path d="M13.5647 90.8057C14.1743 90.8057 14.6684 90.3112 14.6684 89.7012C14.6684 89.0912 14.1743 88.5967 13.5647 88.5967C12.9552 88.5967 12.4611 89.0912 12.4611 89.7012C12.4611 90.3112 12.9552 90.8057 13.5647 90.8057Z" fill="#145B2C"/>
<path d="M16.1116 93.0147C16.7212 93.0147 17.2153 92.5202 17.2153 91.9102C17.2153 91.3002 16.7212 90.8057 16.1116 90.8057C15.5021 90.8057 15.008 91.3002 15.008 91.9102C15.008 92.5202 15.5021 93.0147 16.1116 93.0147Z" fill="#145B2C"/>
<path d="M11.0178 93.0147C11.6274 93.0147 12.1215 92.5202 12.1215 91.9102C12.1215 91.3002 11.6274 90.8057 11.0178 90.8057C10.4083 90.8057 9.91418 91.3002 9.91418 91.9102C9.91418 92.5202 10.4083 93.0147 11.0178 93.0147Z" fill="#145B2C"/>
<path d="M13.5647 95.1387C14.1743 95.1387 14.6684 94.6442 14.6684 94.0342C14.6684 93.4242 14.1743 92.9297 13.5647 92.9297C12.9552 92.9297 12.4611 93.4242 12.4611 94.0342C12.4611 94.6442 12.9552 95.1387 13.5647 95.1387Z" fill="#145B2C"/>
<path d="M8.30114 95.6485C8.91067 95.6485 9.4048 95.154 9.4048 94.544C9.4048 93.934 8.91067 93.4395 8.30114 93.4395C7.6916 93.4395 7.19748 93.934 7.19748 94.544C7.19748 95.154 7.6916 95.6485 8.30114 95.6485Z" fill="#145B2C"/>
<path d="M10.9329 97.7725C11.5424 97.7725 12.0366 97.278 12.0366 96.668C12.0366 96.058 11.5424 95.5635 10.9329 95.5635C10.3234 95.5635 9.82925 96.058 9.82925 96.668C9.82925 97.278 10.3234 97.7725 10.9329 97.7725Z" fill="#145B2C"/>
<path d="M8.55584 99.8116C9.16537 99.8116 9.65949 99.3171 9.65949 98.7071C9.65949 98.097 9.16537 97.6025 8.55584 97.6025C7.9463 97.6025 7.45218 98.097 7.45218 98.7071C7.45218 99.3171 7.9463 99.8116 8.55584 99.8116Z" fill="#145B2C"/>
<path d="M29.6952 119.183C30.3047 119.183 30.7988 118.689 30.7988 118.079C30.7988 117.469 30.3047 116.974 29.6952 116.974C29.0856 116.974 28.5915 117.469 28.5915 118.079C28.5915 118.689 29.0856 119.183 29.6952 119.183Z" fill="#145B2C"/>
<path d="M32.1571 116.889C32.7667 116.889 33.2608 116.395 33.2608 115.785C33.2608 115.175 32.7667 114.68 32.1571 114.68C31.5476 114.68 31.0535 115.175 31.0535 115.785C31.0535 116.395 31.5476 116.889 32.1571 116.889Z" fill="#145B2C"/>
<path d="M32.1571 121.562C32.7667 121.562 33.2608 121.068 33.2608 120.458C33.2608 119.848 32.7667 119.353 32.1571 119.353C31.5476 119.353 31.0535 119.848 31.0535 120.458C31.0535 121.068 31.5476 121.562 32.1571 121.562Z" fill="#145B2C"/>
<path d="M37.4207 112.386C38.0302 112.386 38.5244 111.892 38.5244 111.282C38.5244 110.672 38.0302 110.177 37.4207 110.177C36.8112 110.177 36.317 110.672 36.317 111.282C36.317 111.892 36.8112 112.386 37.4207 112.386Z" fill="#145B2C"/>
<path d="M37.2509 117.06C37.8605 117.06 38.3546 116.565 38.3546 115.955C38.3546 115.345 37.8605 114.851 37.2509 114.851C36.6414 114.851 36.1473 115.345 36.1473 115.955C36.1473 116.565 36.6414 117.06 37.2509 117.06Z" fill="#145B2C"/>
<path d="M34.8738 114.765C35.4834 114.765 35.9775 114.271 35.9775 113.661C35.9775 113.051 35.4834 112.556 34.8738 112.556C34.2643 112.556 33.7702 113.051 33.7702 113.661C33.7702 114.271 34.2643 114.765 34.8738 114.765Z" fill="#145B2C"/>
<path d="M34.8738 119.269C35.4834 119.269 35.9775 118.774 35.9775 118.164C35.9775 117.554 35.4834 117.06 34.8738 117.06C34.2643 117.06 33.7702 117.554 33.7702 118.164C33.7702 118.774 34.2643 119.269 34.8738 119.269Z" fill="#145B2C"/>
<path d="M39.9676 110.262C40.5772 110.262 41.0713 109.768 41.0713 109.158C41.0713 108.548 40.5772 108.053 39.9676 108.053C39.3581 108.053 38.864 108.548 38.864 109.158C38.864 109.768 39.3581 110.262 39.9676 110.262Z" fill="#145B2C"/>
<path d="M42.5145 112.556C43.1241 112.556 43.6182 112.062 43.6182 111.452C43.6182 110.842 43.1241 110.347 42.5145 110.347C41.905 110.347 41.4109 110.842 41.4109 111.452C41.4109 112.062 41.905 112.556 42.5145 112.556Z" fill="#145B2C"/>
<path d="M44.9765 114.935C45.5861 114.935 46.0802 114.441 46.0802 113.831C46.0802 113.221 45.5861 112.726 44.9765 112.726C44.367 112.726 43.8729 113.221 43.8729 113.831C43.8729 114.441 44.367 114.935 44.9765 114.935Z" fill="#145B2C"/>
<path d="M47.8631 121.562C48.4726 121.562 48.9668 121.068 48.9668 120.458C48.9668 119.848 48.4726 119.353 47.8631 119.353C47.2536 119.353 46.7594 119.848 46.7594 120.458C46.7594 121.068 47.2536 121.562 47.8631 121.562Z" fill="#145B2C"/>
<path d="M47.6933 117.315C48.3028 117.315 48.7969 116.82 48.7969 116.21C48.7969 115.6 48.3028 115.105 47.6933 115.105C47.0837 115.105 46.5896 115.6 46.5896 116.21C46.5896 116.82 47.0837 117.315 47.6933 117.315Z" fill="#145B2C"/>
<path d="M53.1266 121.562C53.7361 121.562 54.2303 121.068 54.2303 120.458C54.2303 119.848 53.7361 119.353 53.1266 119.353C52.5171 119.353 52.0229 119.848 52.0229 120.458C52.0229 121.068 52.5171 121.562 53.1266 121.562Z" fill="#145B2C"/>
<path d="M50.325 119.608C50.9346 119.608 51.4287 119.113 51.4287 118.503C51.4287 117.893 50.9346 117.399 50.325 117.399C49.7155 117.399 49.2214 117.893 49.2214 118.503C49.2214 119.113 49.7155 119.608 50.325 119.608Z" fill="#145B2C"/>
<path d="M39.9676 114.935C40.5772 114.935 41.0713 114.441 41.0713 113.831C41.0713 113.221 40.5772 112.726 39.9676 112.726C39.3581 112.726 38.864 113.221 38.864 113.831C38.864 114.441 39.3581 114.935 39.9676 114.935Z" fill="#145B2C"/>
<path d="M42.5145 117.315C43.1241 117.315 43.6182 116.82 43.6182 116.21C43.6182 115.6 43.1241 115.105 42.5145 115.105C41.905 115.105 41.4109 115.6 41.4109 116.21C41.4109 116.82 41.905 117.315 42.5145 117.315Z" fill="#145B2C"/>
<path d="M45.1464 119.438C45.7559 119.438 46.25 118.944 46.25 118.334C46.25 117.724 45.7559 117.229 45.1464 117.229C44.5368 117.229 44.0427 117.724 44.0427 118.334C44.0427 118.944 44.5368 119.438 45.1464 119.438Z" fill="#145B2C"/>
<path d="M27.2331 121.562C27.8427 121.562 28.3368 121.068 28.3368 120.458C28.3368 119.848 27.8427 119.353 27.2331 119.353C26.6236 119.353 26.1295 119.848 26.1295 120.458C26.1295 121.068 26.6236 121.562 27.2331 121.562Z" fill="#145B2C"/>
<path d="M10.9329 88.2569C11.5424 88.2569 12.0366 87.7624 12.0366 87.1524C12.0366 86.5424 11.5424 86.0479 10.9329 86.0479C10.3234 86.0479 9.82925 86.5424 9.82925 87.1524C9.82925 87.7624 10.3234 88.2569 10.9329 88.2569Z" fill="#145B2C"/>
<path d="M62.8048 37.3633C63.4144 37.3633 63.9085 36.8688 63.9085 36.2588C63.9085 35.6488 63.4144 35.1543 62.8048 35.1543C62.1953 35.1543 61.7012 35.6488 61.7012 36.2588C61.7012 36.8688 62.1953 37.3633 62.8048 37.3633Z" fill="#145B2C"/>
<path d="M60.1731 34.6446C60.7827 34.6446 61.2768 34.1501 61.2768 33.5401C61.2768 32.9301 60.7827 32.4355 60.1731 32.4355C59.5636 32.4355 59.0695 32.9301 59.0695 33.5401C59.0695 34.1501 59.5636 34.6446 60.1731 34.6446Z" fill="#145B2C"/>
<path d="M62.8048 32.3506C63.4144 32.3506 63.9085 31.8561 63.9085 31.2461C63.9085 30.6361 63.4144 30.1416 62.8048 30.1416C62.1953 30.1416 61.7012 30.6361 61.7012 31.2461C61.7012 31.8561 62.1953 32.3506 62.8048 32.3506Z" fill="#145B2C"/>
<path d="M57.6261 32.3506C58.2357 32.3506 58.7298 31.8561 58.7298 31.2461C58.7298 30.6361 58.2357 30.1416 57.6261 30.1416C57.0166 30.1416 56.5225 30.6361 56.5225 31.2461C56.5225 31.8561 57.0166 32.3506 57.6261 32.3506Z" fill="#145B2C"/>
<path d="M57.4564 36.8541C58.0659 36.8541 58.56 36.3596 58.56 35.7495C58.56 35.1395 58.0659 34.645 57.4564 34.645C56.8468 34.645 56.3527 35.1395 56.3527 35.7495C56.3527 36.3596 56.8468 36.8541 57.4564 36.8541Z" fill="#145B2C"/>
<path d="M54.9094 34.5596C55.519 34.5596 56.0131 34.0651 56.0131 33.4551C56.0131 32.8451 55.519 32.3506 54.9094 32.3506C54.2999 32.3506 53.8058 32.8451 53.8058 33.4551C53.8058 34.0651 54.2999 34.5596 54.9094 34.5596Z" fill="#145B2C"/>
<path d="M55.0792 39.1475C55.6887 39.1475 56.1828 38.653 56.1828 38.043C56.1828 37.433 55.6887 36.9385 55.0792 36.9385C54.4697 36.9385 53.9755 37.433 53.9755 38.043C53.9755 38.653 54.4697 39.1475 55.0792 39.1475Z" fill="#145B2C"/>
<path d="M52.6172 36.8541C53.2268 36.8541 53.7209 36.3596 53.7209 35.7495C53.7209 35.1395 53.2268 34.645 52.6172 34.645C52.0077 34.645 51.5136 35.1395 51.5136 35.7495C51.5136 36.3596 52.0077 36.8541 52.6172 36.8541Z" fill="#145B2C"/>
<path d="M52.6172 41.6119C53.2268 41.6119 53.7209 41.1174 53.7209 40.5074C53.7209 39.8973 53.2268 39.4028 52.6172 39.4028C52.0077 39.4028 51.5136 39.8973 51.5136 40.5074C51.5136 41.1174 52.0077 41.6119 52.6172 41.6119Z" fill="#145B2C"/>
<path d="M50.0704 39.3179C50.6799 39.3179 51.1741 38.8234 51.1741 38.2134C51.1741 37.6034 50.6799 37.1089 50.0704 37.1089C49.4609 37.1089 48.9667 37.6034 48.9667 38.2134C48.9667 38.8234 49.4609 39.3179 50.0704 39.3179Z" fill="#145B2C"/>
<path d="M49.5609 43.8209C50.1705 43.8209 50.6646 43.3264 50.6646 42.7163C50.6646 42.1063 50.1705 41.6118 49.5609 41.6118C48.9514 41.6118 48.4573 42.1063 48.4573 42.7163C48.4573 43.3264 48.9514 43.8209 49.5609 43.8209Z" fill="#145B2C"/>
<path d="M47.0989 41.5269C47.7085 41.5269 48.2026 41.0324 48.2026 40.4224C48.2026 39.8124 47.7085 39.3179 47.0989 39.3179C46.4894 39.3179 45.9953 39.8124 45.9953 40.4224C45.9953 41.0324 46.4894 41.5269 47.0989 41.5269Z" fill="#145B2C"/>
<path d="M54.7396 48.6636C55.3492 48.6636 55.8433 48.1691 55.8433 47.5591C55.8433 46.9491 55.3492 46.4546 54.7396 46.4546C54.1301 46.4546 53.636 46.9491 53.636 47.5591C53.636 48.1691 54.1301 48.6636 54.7396 48.6636Z" fill="#145B2C"/>
<path d="M52.1927 46.3697C52.8022 46.3697 53.2964 45.8752 53.2964 45.2652C53.2964 44.6552 52.8022 44.1606 52.1927 44.1606C51.5832 44.1606 51.0891 44.6552 51.0891 45.2652C51.0891 45.8752 51.5832 46.3697 52.1927 46.3697Z" fill="#145B2C"/>
<path d="M57.4564 46.5396C58.0659 46.5396 58.56 46.0451 58.56 45.4351C58.56 44.8251 58.0659 44.3306 57.4564 44.3306C56.8468 44.3306 56.3527 44.8251 56.3527 45.4351C56.3527 46.0451 56.8468 46.5396 57.4564 46.5396Z" fill="#145B2C"/>
<path d="M54.9094 44.2457C55.519 44.2457 56.0131 43.7512 56.0131 43.1411C56.0131 42.5311 55.519 42.0366 54.9094 42.0366C54.2999 42.0366 53.8058 42.5311 53.8058 43.1411C53.8058 43.7512 54.2999 44.2457 54.9094 44.2457Z" fill="#145B2C"/>
<path d="M59.7486 53.5919C60.3581 53.5919 60.8522 53.0973 60.8522 52.4873C60.8522 51.8773 60.3581 51.3828 59.7486 51.3828C59.139 51.3828 58.6449 51.8773 58.6449 52.4873C58.6449 53.0973 59.139 53.5919 59.7486 53.5919Z" fill="#145B2C"/>
<path d="M57.2865 51.2974C57.896 51.2974 58.3901 50.8029 58.3901 50.1929C58.3901 49.5829 57.896 49.0884 57.2865 49.0884C56.677 49.0884 56.1828 49.5829 56.1828 50.1929C56.1828 50.8029 56.677 51.2974 57.2865 51.2974Z" fill="#145B2C"/>
<path d="M62.3804 51.2974C62.9899 51.2974 63.484 50.8029 63.484 50.1929C63.484 49.5829 62.9899 49.0884 62.3804 49.0884C61.7708 49.0884 61.2767 49.5829 61.2767 50.1929C61.2767 50.8029 61.7708 51.2974 62.3804 51.2974Z" fill="#145B2C"/>
<path d="M59.8335 49.0035C60.443 49.0035 60.9371 48.509 60.9371 47.899C60.9371 47.2889 60.443 46.7944 59.8335 46.7944C59.2239 46.7944 58.7298 47.2889 58.7298 47.899C58.7298 48.509 59.2239 49.0035 59.8335 49.0035Z" fill="#145B2C"/>
<path d="M60.1731 29.8018C60.7827 29.8018 61.2768 29.3073 61.2768 28.6973C61.2768 28.0873 60.7827 27.5928 60.1731 27.5928C59.5636 27.5928 59.0695 28.0873 59.0695 28.6973C59.0695 29.3073 59.5636 29.8018 60.1731 29.8018Z" fill="#145B2C"/>
<path d="M65.3517 34.6446C65.9613 34.6446 66.4554 34.1501 66.4554 33.5401C66.4554 32.9301 65.9613 32.4355 65.3517 32.4355C64.7422 32.4355 64.2481 32.9301 64.2481 33.5401C64.2481 34.1501 64.7422 34.6446 65.3517 34.6446Z" fill="#145B2C"/>
<path d="M70.1908 39.7423C70.8004 39.7423 71.2945 39.2477 71.2945 38.6377C71.2945 38.0277 70.8004 37.5332 70.1908 37.5332C69.5813 37.5332 69.0872 38.0277 69.0872 38.6377C69.0872 39.2477 69.5813 39.7423 70.1908 39.7423Z" fill="#145B2C"/>
<path d="M68.0685 37.3633C68.678 37.3633 69.1722 36.8688 69.1722 36.2588C69.1722 35.6488 68.678 35.1543 68.0685 35.1543C67.459 35.1543 66.9648 35.6488 66.9648 36.2588C66.9648 36.8688 67.459 37.3633 68.0685 37.3633Z" fill="#145B2C"/>
<path d="M72.7378 41.9512C73.3473 41.9512 73.8415 41.4567 73.8415 40.8467C73.8415 40.2367 73.3473 39.7422 72.7378 39.7422C72.1283 39.7422 71.6342 40.2367 71.6342 40.8467C71.6342 41.4567 72.1283 41.9512 72.7378 41.9512Z" fill="#145B2C"/>
<path d="M67.5591 42.1216C68.1686 42.1216 68.6627 41.6271 68.6627 41.0171C68.6627 40.4071 68.1686 39.9126 67.5591 39.9126C66.9496 39.9126 66.4554 40.4071 66.4554 41.0171C66.4554 41.6271 66.9496 42.1216 67.5591 42.1216Z" fill="#145B2C"/>
<path d="M70.106 44.3306C70.7155 44.3306 71.2096 43.8361 71.2096 43.2261C71.2096 42.6161 70.7155 42.1216 70.106 42.1216C69.4964 42.1216 69.0023 42.6161 69.0023 43.2261C69.0023 43.8361 69.4964 44.3306 70.106 44.3306Z" fill="#145B2C"/>
<path d="M65.0122 44.3306C65.6217 44.3306 66.1159 43.8361 66.1159 43.2261C66.1159 42.6161 65.6217 42.1216 65.0122 42.1216C64.4027 42.1216 63.9085 42.6161 63.9085 43.2261C63.9085 43.8361 64.4027 44.3306 65.0122 44.3306Z" fill="#145B2C"/>
<path d="M67.5591 46.4546C68.1686 46.4546 68.6627 45.9601 68.6627 45.3501C68.6627 44.7401 68.1686 44.2456 67.5591 44.2456C66.9496 44.2456 66.4554 44.7401 66.4554 45.3501C66.4554 45.9601 66.9496 46.4546 67.5591 46.4546Z" fill="#145B2C"/>
<path d="M62.2954 46.4546C62.905 46.4546 63.3991 45.9601 63.3991 45.3501C63.3991 44.7401 62.905 44.2456 62.2954 44.2456C61.6859 44.2456 61.1918 44.7401 61.1918 45.3501C61.1918 45.9601 61.6859 46.4546 62.2954 46.4546Z" fill="#145B2C"/>
<path d="M64.9273 49.0884C65.5368 49.0884 66.0309 48.5939 66.0309 47.9839C66.0309 47.3739 65.5368 46.8794 64.9273 46.8794C64.3177 46.8794 63.8236 47.3739 63.8236 47.9839C63.8236 48.5939 64.3177 49.0884 64.9273 49.0884Z" fill="#145B2C"/>
<path d="M65.5215 39.4024C66.131 39.4024 66.6251 38.9079 66.6251 38.2979C66.6251 37.6879 66.131 37.1934 65.5215 37.1934C64.9119 37.1934 64.4178 37.6879 64.4178 38.2979C64.4178 38.9079 64.9119 39.4024 65.5215 39.4024Z" fill="#145B2C"/>
<path d="M150.758 117.059C151.368 117.059 151.862 116.565 151.862 115.955C151.862 115.345 151.368 114.85 150.758 114.85C150.149 114.85 149.654 115.345 149.654 115.955C149.654 116.565 150.149 117.059 150.758 117.059Z" fill="#145B2C"/>
<path d="M148.126 114.34C148.736 114.34 149.23 113.846 149.23 113.236C149.23 112.626 148.736 112.131 148.126 112.131C147.517 112.131 147.023 112.626 147.023 113.236C147.023 113.846 147.517 114.34 148.126 114.34Z" fill="#145B2C"/>
<path d="M150.758 112.046C151.368 112.046 151.862 111.552 151.862 110.942C151.862 110.332 151.368 109.837 150.758 109.837C150.149 109.837 149.654 110.332 149.654 110.942C149.654 111.552 150.149 112.046 150.758 112.046Z" fill="#145B2C"/>
<path d="M145.664 112.046C146.274 112.046 146.768 111.552 146.768 110.942C146.768 110.332 146.274 109.837 145.664 109.837C145.055 109.837 144.561 110.332 144.561 110.942C144.561 111.552 145.055 112.046 145.664 112.046Z" fill="#145B2C"/>
<path d="M145.41 116.634C146.019 116.634 146.513 116.14 146.513 115.53C146.513 114.92 146.019 114.425 145.41 114.425C144.8 114.425 144.306 114.92 144.306 115.53C144.306 116.14 144.8 116.634 145.41 116.634Z" fill="#145B2C"/>
<path d="M142.948 114.34C143.557 114.34 144.051 113.846 144.051 113.236C144.051 112.626 143.557 112.131 142.948 112.131C142.338 112.131 141.844 112.626 141.844 113.236C141.844 113.846 142.338 114.34 142.948 114.34Z" fill="#145B2C"/>
<path d="M143.117 118.844C143.727 118.844 144.221 118.349 144.221 117.739C144.221 117.129 143.727 116.635 143.117 116.635C142.508 116.635 142.014 117.129 142.014 117.739C142.014 118.349 142.508 118.844 143.117 118.844Z" fill="#145B2C"/>
<path d="M140.57 116.549C141.18 116.549 141.674 116.055 141.674 115.445C141.674 114.835 141.18 114.34 140.57 114.34C139.961 114.34 139.467 114.835 139.467 115.445C139.467 116.055 139.961 116.549 140.57 116.549Z" fill="#145B2C"/>
<path d="M140.57 121.308C141.18 121.308 141.674 120.813 141.674 120.203C141.674 119.593 141.18 119.099 140.57 119.099C139.961 119.099 139.467 119.593 139.467 120.203C139.467 120.813 139.961 121.308 140.57 121.308Z" fill="#145B2C"/>
<path d="M138.024 119.014C138.633 119.014 139.127 118.519 139.127 117.909C139.127 117.299 138.633 116.805 138.024 116.805C137.414 116.805 136.92 117.299 136.92 117.909C136.92 118.519 137.414 119.014 138.024 119.014Z" fill="#145B2C"/>
<path d="M135.052 121.223C135.662 121.223 136.156 120.728 136.156 120.118C136.156 119.508 135.662 119.014 135.052 119.014C134.443 119.014 133.948 119.508 133.948 120.118C133.948 120.728 134.443 121.223 135.052 121.223Z" fill="#145B2C"/>
<path d="M148.126 109.498C148.736 109.498 149.23 109.003 149.23 108.393C149.23 107.783 148.736 107.289 148.126 107.289C147.517 107.289 147.023 107.783 147.023 108.393C147.023 109.003 147.517 109.498 148.126 109.498Z" fill="#145B2C"/>
<path d="M153.39 114.34C153.999 114.34 154.494 113.846 154.494 113.236C154.494 112.626 153.999 112.131 153.39 112.131C152.78 112.131 152.286 112.626 152.286 113.236C152.286 113.846 152.78 114.34 153.39 114.34Z" fill="#145B2C"/>
<path d="M158.144 119.438C158.754 119.438 159.248 118.944 159.248 118.334C159.248 117.724 158.754 117.229 158.144 117.229C157.535 117.229 157.04 117.724 157.04 118.334C157.04 118.944 157.535 119.438 158.144 119.438Z" fill="#145B2C"/>
<path d="M156.022 117.059C156.631 117.059 157.125 116.565 157.125 115.955C157.125 115.345 156.631 114.85 156.022 114.85C155.412 114.85 154.918 115.345 154.918 115.955C154.918 116.565 155.412 117.059 156.022 117.059Z" fill="#145B2C"/>
<path d="M161.795 120.543C161.795 121.137 161.285 121.392 160.691 121.392C160.097 121.392 159.587 121.137 159.587 120.543C159.587 119.948 160.097 119.438 160.691 119.438C161.37 119.438 161.795 119.948 161.795 120.543Z" fill="#145B2C"/>
<path d="M156.616 120.713C156.616 121.308 156.107 121.308 155.512 121.308C154.918 121.308 154.409 121.308 154.409 120.713C154.409 120.118 154.918 119.608 155.512 119.608C156.107 119.693 156.616 120.118 156.616 120.713Z" fill="#145B2C"/>
<path d="M153.56 119.099C154.169 119.099 154.663 118.604 154.663 117.994C154.663 117.384 154.169 116.89 153.56 116.89C152.95 116.89 152.456 117.384 152.456 117.994C152.456 118.604 152.95 119.099 153.56 119.099Z" fill="#145B2C"/>
<path d="M96.5088 69.0548C97.1184 69.0548 97.6125 68.5602 97.6125 67.9502C97.6125 67.3402 97.1184 66.8457 96.5088 66.8457C95.8993 66.8457 95.4052 67.3402 95.4052 67.9502C95.4052 68.5602 95.8993 69.0548 96.5088 69.0548Z" fill="#145B2C"/>
<path d="M93.8771 66.421C94.4866 66.421 94.9808 65.9264 94.9808 65.3164C94.9808 64.7064 94.4866 64.2119 93.8771 64.2119C93.2676 64.2119 92.7735 64.7064 92.7735 65.3164C92.7735 65.9264 93.2676 66.421 93.8771 66.421Z" fill="#145B2C"/>
<path d="M96.5088 64.127C97.1184 64.127 97.6125 63.6325 97.6125 63.0225C97.6125 62.4125 97.1184 61.918 96.5088 61.918C95.8993 61.918 95.4052 62.4125 95.4052 63.0225C95.4052 63.6325 95.8993 64.127 96.5088 64.127Z" fill="#145B2C"/>
<path d="M91.3301 64.127C91.9397 64.127 92.4338 63.6325 92.4338 63.0225C92.4338 62.4125 91.9397 61.918 91.3301 61.918C90.7206 61.918 90.2265 62.4125 90.2265 63.0225C90.2265 63.6325 90.7206 64.127 91.3301 64.127Z" fill="#145B2C"/>
<path d="M91.1604 68.6299C91.7699 68.6299 92.264 68.1354 92.264 67.5254C92.264 66.9154 91.7699 66.4209 91.1604 66.4209C90.5508 66.4209 90.0567 66.9154 90.0567 67.5254C90.0567 68.1354 90.5508 68.6299 91.1604 68.6299Z" fill="#145B2C"/>
<path d="M88.6135 66.336C89.223 66.336 89.7172 65.8415 89.7172 65.2315C89.7172 64.6215 89.223 64.127 88.6135 64.127C88.004 64.127 87.5098 64.6215 87.5098 65.2315C87.5098 65.8415 88.004 66.336 88.6135 66.336Z" fill="#145B2C"/>
<path d="M88.7833 70.8394C89.3928 70.8394 89.8869 70.3449 89.8869 69.7349C89.8869 69.1249 89.3928 68.6304 88.7833 68.6304C88.1737 68.6304 87.6796 69.1249 87.6796 69.7349C87.6796 70.3449 88.1737 70.8394 88.7833 70.8394Z" fill="#145B2C"/>
<path d="M86.3212 68.5455C86.9307 68.5455 87.4249 68.051 87.4249 67.4409C87.4249 66.8309 86.9307 66.3364 86.3212 66.3364C85.7117 66.3364 85.2175 66.8309 85.2175 67.4409C85.2175 68.051 85.7117 68.5455 86.3212 68.5455Z" fill="#145B2C"/>
<path d="M86.3212 73.3878C86.9307 73.3878 87.4249 72.8933 87.4249 72.2832C87.4249 71.6732 86.9307 71.1787 86.3212 71.1787C85.7117 71.1787 85.2175 71.6732 85.2175 72.2832C85.2175 72.8933 85.7117 73.3878 86.3212 73.3878Z" fill="#145B2C"/>
<path d="M83.7743 71.0943C84.3838 71.0943 84.8779 70.5998 84.8779 69.9898C84.8779 69.3798 84.3838 68.8853 83.7743 68.8853C83.1648 68.8853 82.6706 69.3798 82.6706 69.9898C82.6706 70.5998 83.1648 71.0943 83.7743 71.0943Z" fill="#145B2C"/>
<path d="M83.2649 75.5972C83.8744 75.5972 84.3685 75.1027 84.3685 74.4927C84.3685 73.8827 83.8744 73.3882 83.2649 73.3882C82.6553 73.3882 82.1612 73.8827 82.1612 74.4927C82.1612 75.1027 82.6553 75.5972 83.2649 75.5972Z" fill="#145B2C"/>
<path d="M80.8029 73.3033C81.4125 73.3033 81.9066 72.8088 81.9066 72.1988C81.9066 71.5888 81.4125 71.0942 80.8029 71.0942C80.1934 71.0942 79.6993 71.5888 79.6993 72.1988C79.6993 72.8088 80.1934 73.3033 80.8029 73.3033Z" fill="#145B2C"/>
<path d="M88.4437 80.44C89.0532 80.44 89.5474 79.9455 89.5474 79.3355C89.5474 78.7255 89.0532 78.231 88.4437 78.231C87.8342 78.231 87.3401 78.7255 87.3401 79.3355C87.3401 79.9455 87.8342 80.44 88.4437 80.44Z" fill="#145B2C"/>
<path d="M85.8967 78.1461C86.5063 78.1461 87.0004 77.6515 87.0004 77.0415C87.0004 76.4315 86.5063 75.937 85.8967 75.937C85.2872 75.937 84.7931 76.4315 84.7931 77.0415C84.7931 77.6515 85.2872 78.1461 85.8967 78.1461Z" fill="#145B2C"/>
<path d="M91.1604 78.231C91.7699 78.231 92.264 77.7365 92.264 77.1265C92.264 76.5165 91.7699 76.022 91.1604 76.022C90.5508 76.022 90.0567 76.5165 90.0567 77.1265C90.0567 77.7365 90.5508 78.231 91.1604 78.231Z" fill="#145B2C"/>
<path d="M88.6135 75.9371C89.223 75.9371 89.7172 75.4426 89.7172 74.8326C89.7172 74.2225 89.223 73.728 88.6135 73.728C88.004 73.728 87.5098 74.2225 87.5098 74.8326C87.5098 75.4426 88.004 75.9371 88.6135 75.9371Z" fill="#145B2C"/>
<path d="M93.4526 85.2833C94.0621 85.2833 94.5562 84.7888 94.5562 84.1787C94.5562 83.5687 94.0621 83.0742 93.4526 83.0742C92.843 83.0742 92.3489 83.5687 92.3489 84.1787C92.3489 84.7888 92.843 85.2833 93.4526 85.2833Z" fill="#145B2C"/>
<path d="M90.9905 82.9888C91.6 82.9888 92.0942 82.4943 92.0942 81.8843C92.0942 81.2743 91.6 80.7798 90.9905 80.7798C90.381 80.7798 89.8868 81.2743 89.8868 81.8843C89.8868 82.4943 90.381 82.9888 90.9905 82.9888Z" fill="#145B2C"/>
<path d="M96.0844 83.0743C96.6939 83.0743 97.188 82.5798 97.188 81.9698C97.188 81.3597 96.6939 80.8652 96.0844 80.8652C95.4748 80.8652 94.9807 81.3597 94.9807 81.9698C94.9807 82.5798 95.4748 83.0743 96.0844 83.0743Z" fill="#145B2C"/>
<path d="M93.5375 80.7798C94.147 80.7798 94.6412 80.2853 94.6412 79.6753C94.6412 79.0653 94.147 78.5708 93.5375 78.5708C92.928 78.5708 92.4338 79.0653 92.4338 79.6753C92.4338 80.2853 92.928 80.7798 93.5375 80.7798Z" fill="#145B2C"/>
<path d="M93.8771 61.4932C94.4866 61.4932 94.9808 60.9987 94.9808 60.3887C94.9808 59.7787 94.4866 59.2842 93.8771 59.2842C93.2676 59.2842 92.7735 59.7787 92.7735 60.3887C92.7735 60.9987 93.2676 61.4932 93.8771 61.4932Z" fill="#145B2C"/>
<path d="M99.0558 66.421C99.6653 66.421 100.159 65.9264 100.159 65.3164C100.159 64.7064 99.6653 64.2119 99.0558 64.2119C98.4462 64.2119 97.9521 64.7064 97.9521 65.3164C97.9521 65.9264 98.4462 66.421 99.0558 66.421Z" fill="#145B2C"/>
<path d="M103.895 71.5191C104.504 71.5191 104.998 71.0246 104.998 70.4146C104.998 69.8046 104.504 69.3101 103.895 69.3101C103.285 69.3101 102.791 69.8046 102.791 70.4146C102.791 71.0246 103.285 71.5191 103.895 71.5191Z" fill="#145B2C"/>
<path d="M101.688 69.0548C102.297 69.0548 102.791 68.5602 102.791 67.9502C102.791 67.3402 102.297 66.8457 101.688 66.8457C101.078 66.8457 100.584 67.3402 100.584 67.9502C100.584 68.5602 101.078 69.0548 101.688 69.0548Z" fill="#145B2C"/>
<path d="M106.442 73.6426C107.051 73.6426 107.545 73.1481 107.545 72.5381C107.545 71.9281 107.051 71.4336 106.442 71.4336C105.832 71.4336 105.338 71.9281 105.338 72.5381C105.338 73.1481 105.832 73.6426 106.442 73.6426Z" fill="#145B2C"/>
<path d="M101.263 73.898C101.873 73.898 102.367 73.4035 102.367 72.7935C102.367 72.1835 101.873 71.689 101.263 71.689C100.653 71.689 100.159 72.1835 100.159 72.7935C100.159 73.4035 100.653 73.898 101.263 73.898Z" fill="#145B2C"/>
<path d="M103.81 76.022C104.42 76.022 104.914 75.5275 104.914 74.9175C104.914 74.3075 104.42 73.813 103.81 73.813C103.2 73.813 102.706 74.3075 102.706 74.9175C102.706 75.5275 103.2 76.022 103.81 76.022Z" fill="#145B2C"/>
<path d="M98.7162 76.022C99.3257 76.022 99.8198 75.5275 99.8198 74.9175C99.8198 74.3075 99.3257 73.813 98.7162 73.813C98.1067 73.813 97.6125 74.3075 97.6125 74.9175C97.6125 75.5275 98.1067 76.022 98.7162 76.022Z" fill="#145B2C"/>
<path d="M101.263 78.1461C101.873 78.1461 102.367 77.6515 102.367 77.0415C102.367 76.4315 101.873 75.937 101.263 75.937C100.653 75.937 100.159 76.4315 100.159 77.0415C100.159 77.6515 100.653 78.1461 101.263 78.1461Z" fill="#145B2C"/>
<path d="M95.9994 78.1461C96.609 78.1461 97.1031 77.6515 97.1031 77.0415C97.1031 76.4315 96.609 75.937 95.9994 75.937C95.3899 75.937 94.8958 76.4315 94.8958 77.0415C94.8958 77.6515 95.3899 78.1461 95.9994 78.1461Z" fill="#145B2C"/>
<path d="M98.6313 80.8653C99.2408 80.8653 99.7349 80.3708 99.7349 79.7608C99.7349 79.1508 99.2408 78.6562 98.6313 78.6562C98.0217 78.6562 97.5276 79.1508 97.5276 79.7608C97.5276 80.3708 98.0217 80.8653 98.6313 80.8653Z" fill="#145B2C"/>
<path d="M99.2255 71.0943C99.835 71.0943 100.329 70.5998 100.329 69.9898C100.329 69.3798 99.835 68.8853 99.2255 68.8853C98.616 68.8853 98.1218 69.3798 98.1218 69.9898C98.1218 70.5998 98.616 71.0943 99.2255 71.0943Z" fill="#145B2C"/>
<path d="M131.401 36.7686C132.011 36.7686 132.505 36.2741 132.505 35.6641C132.505 35.0541 132.011 34.5596 131.401 34.5596C130.792 34.5596 130.298 35.0541 130.298 35.6641C130.298 36.2741 130.792 36.7686 131.401 36.7686Z" fill="#145B2C"/>
<path d="M128.855 34.0499C129.464 34.0499 129.958 33.5554 129.958 32.9453C129.958 32.3353 129.464 31.8408 128.855 31.8408C128.245 31.8408 127.751 32.3353 127.751 32.9453C127.751 33.5554 128.245 34.0499 128.855 34.0499Z" fill="#145B2C"/>
<path d="M131.401 31.7559C132.011 31.7559 132.505 31.2614 132.505 30.6514C132.505 30.0414 132.011 29.5469 131.401 29.5469C130.792 29.5469 130.298 30.0414 130.298 30.6514C130.298 31.2614 130.792 31.7559 131.401 31.7559Z" fill="#145B2C"/>
<path d="M126.308 31.7559C126.917 31.7559 127.411 31.2614 127.411 30.6514C127.411 30.0414 126.917 29.5469 126.308 29.5469C125.698 29.5469 125.204 30.0414 125.204 30.6514C125.204 31.2614 125.698 31.7559 126.308 31.7559Z" fill="#145B2C"/>
<path d="M126.053 36.2593C126.662 36.2593 127.157 35.7648 127.157 35.1548C127.157 34.5448 126.662 34.0503 126.053 34.0503C125.443 34.0503 124.949 34.5448 124.949 35.1548C124.949 35.7648 125.443 36.2593 126.053 36.2593Z" fill="#145B2C"/>
<path d="M123.591 33.9649C124.2 33.9649 124.695 33.4704 124.695 32.8604C124.695 32.2504 124.2 31.7559 123.591 31.7559C122.981 31.7559 122.487 32.2504 122.487 32.8604C122.487 33.4704 122.981 33.9649 123.591 33.9649Z" fill="#145B2C"/>
<path d="M123.761 38.5528C124.37 38.5528 124.864 38.0583 124.864 37.4483C124.864 36.8383 124.37 36.3438 123.761 36.3438C123.151 36.3438 122.657 36.8383 122.657 37.4483C122.657 38.0583 123.151 38.5528 123.761 38.5528Z" fill="#145B2C"/>
<path d="M121.214 36.2593C121.823 36.2593 122.317 35.7648 122.317 35.1548C122.317 34.5448 121.823 34.0503 121.214 34.0503C120.604 34.0503 120.11 34.5448 120.11 35.1548C120.11 35.7648 120.604 36.2593 121.214 36.2593Z" fill="#145B2C"/>
<path d="M121.214 41.0171C121.823 41.0171 122.317 40.5226 122.317 39.9126C122.317 39.3026 121.823 38.8081 121.214 38.8081C120.604 38.8081 120.11 39.3026 120.11 39.9126C120.11 40.5226 120.604 41.0171 121.214 41.0171Z" fill="#145B2C"/>
<path d="M118.752 38.7232C119.361 38.7232 119.855 38.2287 119.855 37.6187C119.855 37.0087 119.361 36.5142 118.752 36.5142C118.142 36.5142 117.648 37.0087 117.648 37.6187C117.648 38.2287 118.142 38.7232 118.752 38.7232Z" fill="#145B2C"/>
<path d="M118.243 43.2261C118.852 43.2261 119.346 42.7316 119.346 42.1216C119.346 41.5116 118.852 41.0171 118.243 41.0171C117.633 41.0171 117.139 41.5116 117.139 42.1216C117.139 42.7316 117.633 43.2261 118.243 43.2261Z" fill="#145B2C"/>
<path d="M115.696 40.9322C116.305 40.9322 116.799 40.4377 116.799 39.8277C116.799 39.2177 116.305 38.7231 115.696 38.7231C115.086 38.7231 114.592 39.2177 114.592 39.8277C114.592 40.4377 115.086 40.9322 115.696 40.9322Z" fill="#145B2C"/>
<path d="M123.421 48.0689C124.031 48.0689 124.525 47.5744 124.525 46.9644C124.525 46.3544 124.031 45.8599 123.421 45.8599C122.812 45.8599 122.317 46.3544 122.317 46.9644C122.317 47.5744 122.812 48.0689 123.421 48.0689Z" fill="#145B2C"/>
<path d="M120.874 45.775C121.484 45.775 121.978 45.2805 121.978 44.6704C121.978 44.0604 121.484 43.5659 120.874 43.5659C120.265 43.5659 119.771 44.0604 119.771 44.6704C119.771 45.2805 120.265 45.775 120.874 45.775Z" fill="#145B2C"/>
<path d="M126.053 45.9449C126.662 45.9449 127.157 45.4504 127.157 44.8404C127.157 44.2304 126.662 43.7358 126.053 43.7358C125.443 43.7358 124.949 44.2304 124.949 44.8404C124.949 45.4504 125.443 45.9449 126.053 45.9449Z" fill="#145B2C"/>
<path d="M123.591 43.6509C124.2 43.6509 124.695 43.1564 124.695 42.5464C124.695 41.9364 124.2 41.4419 123.591 41.4419C122.981 41.4419 122.487 41.9364 122.487 42.5464C122.487 43.1564 122.981 43.6509 123.591 43.6509Z" fill="#145B2C"/>
<path d="M128.43 52.9971C129.04 52.9971 129.534 52.5026 129.534 51.8926C129.534 51.2826 129.04 50.7881 128.43 50.7881C127.821 50.7881 127.326 51.2826 127.326 51.8926C127.326 52.5026 127.821 52.9971 128.43 52.9971Z" fill="#145B2C"/>
<path d="M125.883 50.6177C126.493 50.6177 126.987 50.1232 126.987 49.5132C126.987 48.9032 126.493 48.4087 125.883 48.4087C125.274 48.4087 124.779 48.9032 124.779 49.5132C124.779 50.1232 125.274 50.6177 125.883 50.6177Z" fill="#145B2C"/>
<path d="M130.977 50.7027C131.586 50.7027 132.081 50.2082 132.081 49.5982C132.081 48.9882 131.586 48.4937 130.977 48.4937C130.367 48.4937 129.873 48.9882 129.873 49.5982C129.873 50.2082 130.367 50.7027 130.977 50.7027Z" fill="#145B2C"/>
<path d="M128.43 48.4088C129.04 48.4088 129.534 47.9142 129.534 47.3042C129.534 46.6942 129.04 46.1997 128.43 46.1997C127.821 46.1997 127.326 46.6942 127.326 47.3042C127.326 47.9142 127.821 48.4088 128.43 48.4088Z" fill="#145B2C"/>
<path d="M128.855 29.2071C129.464 29.2071 129.958 28.7126 129.958 28.1026C129.958 27.4926 129.464 26.998 128.855 26.998C128.245 26.998 127.751 27.4926 127.751 28.1026C127.751 28.7126 128.245 29.2071 128.855 29.2071Z" fill="#145B2C"/>
<path d="M134.033 34.0499C134.643 34.0499 135.137 33.5554 135.137 32.9453C135.137 32.3353 134.643 31.8408 134.033 31.8408C133.424 31.8408 132.93 32.3353 132.93 32.9453C132.93 33.5554 133.424 34.0499 134.033 34.0499Z" fill="#145B2C"/>
<path d="M138.787 39.1475C139.397 39.1475 139.891 38.653 139.891 38.043C139.891 37.433 139.397 36.9385 138.787 36.9385C138.178 36.9385 137.684 37.433 137.684 38.043C137.684 38.653 138.178 39.1475 138.787 39.1475Z" fill="#145B2C"/>
<path d="M136.665 36.7686C137.275 36.7686 137.769 36.2741 137.769 35.6641C137.769 35.0541 137.275 34.5596 136.665 34.5596C136.056 34.5596 135.561 35.0541 135.561 35.6641C135.561 36.2741 136.056 36.7686 136.665 36.7686Z" fill="#145B2C"/>
<path d="M141.419 41.272C142.029 41.272 142.523 40.7775 142.523 40.1675C142.523 39.5575 142.029 39.063 141.419 39.063C140.81 39.063 140.316 39.5575 140.316 40.1675C140.316 40.7775 140.81 41.272 141.419 41.272Z" fill="#145B2C"/>
<path d="M136.156 41.5269C136.765 41.5269 137.259 41.0324 137.259 40.4224C137.259 39.8124 136.765 39.3179 136.156 39.3179C135.546 39.3179 135.052 39.8124 135.052 40.4224C135.052 41.0324 135.546 41.5269 136.156 41.5269Z" fill="#145B2C"/>
<path d="M138.787 43.6509C139.397 43.6509 139.891 43.1564 139.891 42.5464C139.891 41.9364 139.397 41.4419 138.787 41.4419C138.178 41.4419 137.684 41.9364 137.684 42.5464C137.684 43.1564 138.178 43.6509 138.787 43.6509Z" fill="#145B2C"/>
<path d="M133.609 43.6509C134.218 43.6509 134.712 43.1564 134.712 42.5464C134.712 41.9364 134.218 41.4419 133.609 41.4419C132.999 41.4419 132.505 41.9364 132.505 42.5464C132.505 43.1564 132.999 43.6509 133.609 43.6509Z" fill="#145B2C"/>
<path d="M136.241 45.8599C136.85 45.8599 137.344 45.3654 137.344 44.7554C137.344 44.1454 136.85 43.6509 136.241 43.6509C135.631 43.6509 135.137 44.1454 135.137 44.7554C135.137 45.3654 135.631 45.8599 136.241 45.8599Z" fill="#145B2C"/>
<path d="M130.977 45.8599C131.586 45.8599 132.081 45.3654 132.081 44.7554C132.081 44.1454 131.586 43.6509 130.977 43.6509C130.367 43.6509 129.873 44.1454 129.873 44.7554C129.873 45.3654 130.367 45.8599 130.977 45.8599Z" fill="#145B2C"/>
<path d="M133.524 48.4937C134.133 48.4937 134.627 47.9992 134.627 47.3892C134.627 46.7792 134.133 46.2847 133.524 46.2847C132.914 46.2847 132.42 46.7792 132.42 47.3892C132.42 47.9992 132.914 48.4937 133.524 48.4937Z" fill="#145B2C"/>
<path d="M134.203 38.8082C134.813 38.8082 135.307 38.3137 135.307 37.7036C135.307 37.0936 134.813 36.5991 134.203 36.5991C133.593 36.5991 133.099 37.0936 133.099 37.7036C133.099 38.3137 133.593 38.8082 134.203 38.8082Z" fill="#145B2C"/>
<path d="M89.3775 7.20172C89.987 7.20172 90.4811 6.70721 90.4811 6.0972C90.4811 5.48719 89.987 4.99268 89.3775 4.99268C88.7679 4.99268 88.2738 5.48719 88.2738 6.0972C88.2738 6.70721 88.7679 7.20172 89.3775 7.20172Z" fill="#145B2C"/>
<path d="M86.9155 9.6651C87.525 9.6651 88.0192 9.17059 88.0192 8.56058C88.0192 7.95057 87.525 7.45605 86.9155 7.45605C86.306 7.45605 85.8119 7.95057 85.8119 8.56058C85.8119 9.17059 86.306 9.6651 86.9155 9.6651Z" fill="#145B2C"/>
<path d="M84.3686 7.37116C84.9782 7.37116 85.4723 6.87664 85.4723 6.26663C85.4723 5.65662 84.9782 5.16211 84.3686 5.16211C83.7591 5.16211 83.265 5.65662 83.265 6.26663C83.265 6.87664 83.7591 7.37116 84.3686 7.37116Z" fill="#145B2C"/>
<path d="M83.8593 11.8746C84.4689 11.8746 84.963 11.3801 84.963 10.7701C84.963 10.16 84.4689 9.66553 83.8593 9.66553C83.2498 9.66553 82.7557 10.16 82.7557 10.7701C82.7557 11.3801 83.2498 11.8746 83.8593 11.8746Z" fill="#145B2C"/>
<path d="M81.3973 9.58063C82.0068 9.58063 82.5009 9.08612 82.5009 8.4761C82.5009 7.86609 82.0068 7.37158 81.3973 7.37158C80.7877 7.37158 80.2936 7.86609 80.2936 8.4761C80.2936 9.08612 80.7877 9.58063 81.3973 9.58063Z" fill="#145B2C"/>
<path d="M89.0381 16.7173C89.6476 16.7173 90.1417 16.2228 90.1417 15.6128C90.1417 15.0028 89.6476 14.5083 89.0381 14.5083C88.4285 14.5083 87.9344 15.0028 87.9344 15.6128C87.9344 16.2228 88.4285 16.7173 89.0381 16.7173Z" fill="#145B2C"/>
<path d="M86.491 14.4234C87.1006 14.4234 87.5947 13.9289 87.5947 13.3189C87.5947 12.7089 87.1006 12.2144 86.491 12.2144C85.8815 12.2144 85.3874 12.7089 85.3874 13.3189C85.3874 13.9289 85.8815 14.4234 86.491 14.4234Z" fill="#145B2C"/>
<path d="M91.7547 14.5933C92.3642 14.5933 92.8583 14.0988 92.8583 13.4888C92.8583 12.8788 92.3642 12.3843 91.7547 12.3843C91.1452 12.3843 90.651 12.8788 90.651 13.4888C90.651 14.0988 91.1452 14.5933 91.7547 14.5933Z" fill="#145B2C"/>
<path d="M89.2078 12.2994C89.8173 12.2994 90.3115 11.8049 90.3115 11.1949C90.3115 10.5848 89.8173 10.0903 89.2078 10.0903C88.5983 10.0903 88.1042 10.5848 88.1042 11.1949C88.1042 11.8049 88.5983 12.2994 89.2078 12.2994Z" fill="#145B2C"/>
<path d="M94.0469 21.6451C94.6564 21.6451 95.1505 21.1506 95.1505 20.5406C95.1505 19.9305 94.6564 19.436 94.0469 19.436C93.4374 19.436 92.9432 19.9305 92.9432 20.5406C92.9432 21.1506 93.4374 21.6451 94.0469 21.6451Z" fill="#145B2C"/>
<path d="M91.5848 19.3511C92.1944 19.3511 92.6885 18.8566 92.6885 18.2466C92.6885 17.6366 92.1944 17.1421 91.5848 17.1421C90.9753 17.1421 90.4812 17.6366 90.4812 18.2466C90.4812 18.8566 90.9753 19.3511 91.5848 19.3511Z" fill="#145B2C"/>
<path d="M96.6786 19.4361C97.2881 19.4361 97.7823 18.9416 97.7823 18.3316C97.7823 17.7216 97.2881 17.2271 96.6786 17.2271C96.0691 17.2271 95.575 17.7216 95.575 18.3316C95.575 18.9416 96.0691 19.4361 96.6786 19.4361Z" fill="#145B2C"/>
<path d="M94.1318 17.1422C94.7414 17.1422 95.2355 16.6476 95.2355 16.0376C95.2355 15.4276 94.7414 14.9331 94.1318 14.9331C93.5223 14.9331 93.0282 15.4276 93.0282 16.0376C93.0282 16.6476 93.5223 17.1422 94.1318 17.1422Z" fill="#145B2C"/>
<path d="M104.489 7.79645C105.099 7.79645 105.593 7.30194 105.593 6.69193C105.593 6.08191 105.099 5.5874 104.489 5.5874C103.88 5.5874 103.385 6.08191 103.385 6.69193C103.385 7.30194 103.88 7.79645 104.489 7.79645Z" fill="#145B2C"/>
<path d="M107.036 10.0054C107.646 10.0054 108.14 9.51092 108.14 8.90091C108.14 8.2909 107.646 7.79639 107.036 7.79639C106.427 7.79639 105.932 8.2909 105.932 8.90091C105.932 9.51092 106.427 10.0054 107.036 10.0054Z" fill="#145B2C"/>
<path d="M101.857 10.1749C102.467 10.1749 102.961 9.68035 102.961 9.07034C102.961 8.46033 102.467 7.96582 101.857 7.96582C101.248 7.96582 100.754 8.46033 100.754 9.07034C100.754 9.68035 101.248 10.1749 101.857 10.1749Z" fill="#145B2C"/>
<path d="M104.404 12.3843C105.014 12.3843 105.508 11.8898 105.508 11.2798C105.508 10.6698 105.014 10.1753 104.404 10.1753C103.795 10.1753 103.301 10.6698 103.301 11.2798C103.301 11.8898 103.795 12.3843 104.404 12.3843Z" fill="#145B2C"/>
<path d="M99.3104 12.3843C99.9199 12.3843 100.414 11.8898 100.414 11.2798C100.414 10.6698 99.9199 10.1753 99.3104 10.1753C98.7009 10.1753 98.2068 10.6698 98.2068 11.2798C98.2068 11.8898 98.7009 12.3843 99.3104 12.3843Z" fill="#145B2C"/>
<path d="M101.857 14.5084C102.467 14.5084 102.961 14.0139 102.961 13.4038C102.961 12.7938 102.467 12.2993 101.857 12.2993C101.248 12.2993 100.754 12.7938 100.754 13.4038C100.754 14.0139 101.248 14.5084 101.857 14.5084Z" fill="#145B2C"/>
<path d="M96.6786 14.5084C97.2881 14.5084 97.7823 14.0139 97.7823 13.4038C97.7823 12.7938 97.2881 12.2993 96.6786 12.2993C96.0691 12.2993 95.575 12.7938 95.575 13.4038C95.575 14.0139 96.0691 14.5084 96.6786 14.5084Z" fill="#145B2C"/>
<path d="M99.2256 17.1422C99.8351 17.1422 100.329 16.6476 100.329 16.0376C100.329 15.4276 99.8351 14.9331 99.2256 14.9331C98.6161 14.9331 98.1219 15.4276 98.1219 16.0376C98.1219 16.6476 98.6161 17.1422 99.2256 17.1422Z" fill="#145B2C"/>
<path d="M99.8198 7.45611C100.429 7.45611 100.923 6.9616 100.923 6.35159C100.923 5.74158 100.429 5.24707 99.8198 5.24707C99.2103 5.24707 98.7162 5.74158 98.7162 6.35159C98.7162 6.9616 99.2103 7.45611 99.8198 7.45611Z" fill="#145B2C"/>
<path d="M103.64 113.491C104.25 113.491 104.744 112.996 104.744 112.386C104.744 111.776 104.25 111.282 103.64 111.282C103.031 111.282 102.536 111.776 102.536 112.386C102.536 112.996 103.031 113.491 103.64 113.491Z" fill="#145B2C"/>
<path d="M96.1694 113.491C96.7789 113.491 97.273 112.996 97.273 112.386C97.273 111.776 96.7789 111.282 96.1694 111.282C95.5598 111.282 95.0657 111.776 95.0657 112.386C95.0657 112.996 95.5598 113.491 96.1694 113.491Z" fill="#145B2C"/>
<path d="M99.9047 113.491C100.514 113.491 101.008 112.996 101.008 112.386C101.008 111.776 100.514 111.282 99.9047 111.282C99.2952 111.282 98.8011 111.776 98.8011 112.386C98.8011 112.996 99.2952 113.491 99.9047 113.491Z" fill="#145B2C"/>
<path d="M92.5188 113.491C93.1283 113.491 93.6224 112.996 93.6224 112.386C93.6224 111.776 93.1283 111.282 92.5188 111.282C91.9092 111.282 91.4151 111.776 91.4151 112.386C91.4151 112.996 91.9092 113.491 92.5188 113.491Z" fill="#145B2C"/>
<path d="M85.0478 113.491C85.6574 113.491 86.1515 112.996 86.1515 112.386C86.1515 111.776 85.6574 111.282 85.0478 111.282C84.4383 111.282 83.9442 111.776 83.9442 112.386C83.9442 112.996 84.4383 113.491 85.0478 113.491Z" fill="#145B2C"/>
<path d="M88.7833 113.491C89.3928 113.491 89.8869 112.996 89.8869 112.386C89.8869 111.776 89.3928 111.282 88.7833 111.282C88.1737 111.282 87.6796 111.776 87.6796 112.386C87.6796 112.996 88.1737 113.491 88.7833 113.491Z" fill="#145B2C"/>
<path d="M103.64 116.889C104.25 116.889 104.744 116.395 104.744 115.785C104.744 115.175 104.25 114.68 103.64 114.68C103.031 114.68 102.536 115.175 102.536 115.785C102.536 116.395 103.031 116.889 103.64 116.889Z" fill="#145B2C"/>
<path d="M96.1694 116.889C96.7789 116.889 97.273 116.395 97.273 115.785C97.273 115.175 96.7789 114.68 96.1694 114.68C95.5598 114.68 95.0657 115.175 95.0657 115.785C95.0657 116.395 95.5598 116.889 96.1694 116.889Z" fill="#145B2C"/>
<path d="M99.9047 116.889C100.514 116.889 101.008 116.395 101.008 115.785C101.008 115.175 100.514 114.68 99.9047 114.68C99.2952 114.68 98.8011 115.175 98.8011 115.785C98.8011 116.395 99.2952 116.889 99.9047 116.889Z" fill="#145B2C"/>
<path d="M92.5188 116.889C93.1283 116.889 93.6224 116.395 93.6224 115.785C93.6224 115.175 93.1283 114.68 92.5188 114.68C91.9092 114.68 91.4151 115.175 91.4151 115.785C91.4151 116.395 91.9092 116.889 92.5188 116.889Z" fill="#145B2C"/>
<path d="M85.0478 116.889C85.6574 116.889 86.1515 116.395 86.1515 115.785C86.1515 115.175 85.6574 114.68 85.0478 114.68C84.4383 114.68 83.9442 115.175 83.9442 115.785C83.9442 116.395 84.4383 116.889 85.0478 116.889Z" fill="#145B2C"/>
<path d="M88.7833 116.889C89.3928 116.889 89.8869 116.395 89.8869 115.785C89.8869 115.175 89.3928 114.68 88.7833 114.68C88.1737 114.68 87.6796 115.175 87.6796 115.785C87.6796 116.395 88.1737 116.889 88.7833 116.889Z" fill="#145B2C"/>
<path d="M103.64 120.288C104.25 120.288 104.744 119.793 104.744 119.183C104.744 118.573 104.25 118.079 103.64 118.079C103.031 118.079 102.536 118.573 102.536 119.183C102.536 119.793 103.031 120.288 103.64 120.288Z" fill="#145B2C"/>
<path d="M96.1694 120.288C96.7789 120.288 97.273 119.793 97.273 119.183C97.273 118.573 96.7789 118.079 96.1694 118.079C95.5598 118.079 95.0657 118.573 95.0657 119.183C95.0657 119.793 95.5598 120.288 96.1694 120.288Z" fill="#145B2C"/>
<path d="M99.9047 120.288C100.514 120.288 101.008 119.793 101.008 119.183C101.008 118.573 100.514 118.079 99.9047 118.079C99.2952 118.079 98.8011 118.573 98.8011 119.183C98.8011 119.793 99.2952 120.288 99.9047 120.288Z" fill="#145B2C"/>
<path d="M92.5188 120.288C93.1283 120.288 93.6224 119.793 93.6224 119.183C93.6224 118.573 93.1283 118.079 92.5188 118.079C91.9092 118.079 91.4151 118.573 91.4151 119.183C91.4151 119.793 91.9092 120.288 92.5188 120.288Z" fill="#145B2C"/>
<path d="M85.0478 120.288C85.6574 120.288 86.1515 119.793 86.1515 119.183C86.1515 118.573 85.6574 118.079 85.0478 118.079C84.4383 118.079 83.9442 118.573 83.9442 119.183C83.9442 119.793 84.4383 120.288 85.0478 120.288Z" fill="#145B2C"/>
<path d="M88.7833 120.288C89.3928 120.288 89.8869 119.793 89.8869 119.183C89.8869 118.573 89.3928 118.079 88.7833 118.079C88.1737 118.079 87.6796 118.573 87.6796 119.183C87.6796 119.793 88.1737 120.288 88.7833 120.288Z" fill="#145B2C"/>
<path d="M15.7721 31.9258C16.3816 31.9258 16.8757 31.4313 16.8757 30.8213C16.8757 30.2113 16.3816 29.7168 15.7721 29.7168C15.1625 29.7168 14.6684 30.2113 14.6684 30.8213C14.6684 31.4313 15.1625 31.9258 15.7721 31.9258Z" fill="#145B2C"/>
<path d="M15.7721 39.4024C16.3816 39.4024 16.8757 38.9079 16.8757 38.2979C16.8757 37.6879 16.3816 37.1934 15.7721 37.1934C15.1625 37.1934 14.6684 37.6879 14.6684 38.2979C14.6684 38.9079 15.1625 39.4024 15.7721 39.4024Z" fill="#145B2C"/>
<path d="M15.7721 35.6641C16.3816 35.6641 16.8757 35.1696 16.8757 34.5596C16.8757 33.9496 16.3816 33.4551 15.7721 33.4551C15.1625 33.4551 14.6684 33.9496 14.6684 34.5596C14.6684 35.1696 15.1625 35.6641 15.7721 35.6641Z" fill="#145B2C"/>
<path d="M15.7721 42.9708C16.3816 42.9708 16.8757 42.4763 16.8757 41.8662C16.8757 41.2562 16.3816 40.7617 15.7721 40.7617C15.1625 40.7617 14.6684 41.2562 14.6684 41.8662C14.6684 42.4763 15.1625 42.9708 15.7721 42.9708Z" fill="#145B2C"/>
<path d="M15.7721 50.5328C16.3816 50.5328 16.8757 50.0383 16.8757 49.4283C16.8757 48.8182 16.3816 48.3237 15.7721 48.3237C15.1625 48.3237 14.6684 48.8182 14.6684 49.4283C14.6684 50.0383 15.1625 50.5328 15.7721 50.5328Z" fill="#145B2C"/>
<path d="M15.7721 46.7945C16.3816 46.7945 16.8757 46.3 16.8757 45.69C16.8757 45.08 16.3816 44.5854 15.7721 44.5854C15.1625 44.5854 14.6684 45.08 14.6684 45.69C14.6684 46.3 15.1625 46.7945 15.7721 46.7945Z" fill="#145B2C"/>
<path d="M11.7819 42.9708C12.3914 42.9708 12.8855 42.4763 12.8855 41.8662C12.8855 41.2562 12.3914 40.7617 11.7819 40.7617C11.1723 40.7617 10.6782 41.2562 10.6782 41.8662C10.6782 42.4763 11.1723 42.9708 11.7819 42.9708Z" fill="#145B2C"/>
<path d="M11.7819 50.5328C12.3914 50.5328 12.8855 50.0383 12.8855 49.4283C12.8855 48.8182 12.3914 48.3237 11.7819 48.3237C11.1723 48.3237 10.6782 48.8182 10.6782 49.4283C10.6782 50.0383 11.1723 50.5328 11.7819 50.5328Z" fill="#145B2C"/>
<path d="M11.7819 46.7945C12.3914 46.7945 12.8855 46.3 12.8855 45.69C12.8855 45.08 12.3914 44.5854 11.7819 44.5854C11.1723 44.5854 10.6782 45.08 10.6782 45.69C10.6782 46.3 11.1723 46.7945 11.7819 46.7945Z" fill="#145B2C"/>
<path d="M7.79174 42.9708C8.40127 42.9708 8.8954 42.4763 8.8954 41.8662C8.8954 41.2562 8.40127 40.7617 7.79174 40.7617C7.1822 40.7617 6.68808 41.2562 6.68808 41.8662C6.68808 42.4763 7.1822 42.9708 7.79174 42.9708Z" fill="#145B2C"/>
<path d="M7.79174 50.5328C8.40127 50.5328 8.8954 50.0383 8.8954 49.4283C8.8954 48.8182 8.40127 48.3237 7.79174 48.3237C7.1822 48.3237 6.68808 48.8182 6.68808 49.4283C6.68808 50.0383 7.1822 50.5328 7.79174 50.5328Z" fill="#145B2C"/>
<path d="M7.79174 46.7945C8.40127 46.7945 8.8954 46.3 8.8954 45.69C8.8954 45.08 8.40127 44.5854 7.79174 44.5854C7.1822 44.5854 6.68808 45.08 6.68808 45.69C6.68808 46.3 7.1822 46.7945 7.79174 46.7945Z" fill="#145B2C"/>
<path d="M11.7819 31.9258C12.3914 31.9258 12.8855 31.4313 12.8855 30.8213C12.8855 30.2113 12.3914 29.7168 11.7819 29.7168C11.1723 29.7168 10.6782 30.2113 10.6782 30.8213C10.6782 31.4313 11.1723 31.9258 11.7819 31.9258Z" fill="#145B2C"/>
<path d="M11.7819 39.4024C12.3914 39.4024 12.8855 38.9079 12.8855 38.2979C12.8855 37.6879 12.3914 37.1934 11.7819 37.1934C11.1723 37.1934 10.6782 37.6879 10.6782 38.2979C10.6782 38.9079 11.1723 39.4024 11.7819 39.4024Z" fill="#145B2C"/>
<path d="M11.7819 35.6641C12.3914 35.6641 12.8855 35.1696 12.8855 34.5596C12.8855 33.9496 12.3914 33.4551 11.7819 33.4551C11.1723 33.4551 10.6782 33.9496 10.6782 34.5596C10.6782 35.1696 11.1723 35.6641 11.7819 35.6641Z" fill="#145B2C"/>
<path d="M7.79174 31.9258C8.40127 31.9258 8.8954 31.4313 8.8954 30.8213C8.8954 30.2113 8.40127 29.7168 7.79174 29.7168C7.1822 29.7168 6.68808 30.2113 6.68808 30.8213C6.68808 31.4313 7.1822 31.9258 7.79174 31.9258Z" fill="#145B2C"/>
<path d="M7.79174 39.4024C8.40127 39.4024 8.8954 38.9079 8.8954 38.2979C8.8954 37.6879 8.40127 37.1934 7.79174 37.1934C7.1822 37.1934 6.68808 37.6879 6.68808 38.2979C6.68808 38.9079 7.1822 39.4024 7.79174 39.4024Z" fill="#145B2C"/>
<path d="M7.79174 35.6641C8.40127 35.6641 8.8954 35.1696 8.8954 34.5596C8.8954 33.9496 8.40127 33.4551 7.79174 33.4551C7.1822 33.4551 6.68808 33.9496 6.68808 34.5596C6.68808 35.1696 7.1822 35.6641 7.79174 35.6641Z" fill="#145B2C"/>
<path d="M171.897 42.8868C172.507 42.8868 173.001 42.3923 173.001 41.7823C173.001 41.1722 172.507 40.6777 171.897 40.6777C171.288 40.6777 170.794 41.1722 170.794 41.7823C170.794 42.3923 171.288 42.8868 171.897 42.8868Z" fill="#145B2C"/>
<path d="M171.897 50.3633C172.507 50.3633 173.001 49.8688 173.001 49.2588C173.001 48.6488 172.507 48.1543 171.897 48.1543C171.288 48.1543 170.794 48.6488 170.794 49.2588C170.794 49.8688 171.288 50.3633 171.897 50.3633Z" fill="#145B2C"/>
<path d="M171.897 46.6251C172.507 46.6251 173.001 46.1305 173.001 45.5205C173.001 44.9105 172.507 44.416 171.897 44.416C171.288 44.416 170.794 44.9105 170.794 45.5205C170.794 46.1305 171.288 46.6251 171.897 46.6251Z" fill="#145B2C"/>
<path d="M175.802 31.7564C175.208 31.7564 174.699 31.2466 174.699 30.6519C174.699 30.0571 175.208 29.5474 175.802 29.5474C176.397 29.6323 176.397 31.7564 175.802 31.7564Z" fill="#145B2C"/>
<path d="M175.802 35.4947C175.208 35.4947 174.699 34.9849 174.699 34.3902C174.699 33.7954 175.208 33.2856 175.802 33.2856C176.397 33.3706 176.397 35.4947 175.802 35.4947Z" fill="#145B2C"/>
<path d="M175.802 39.233C175.208 39.233 174.699 38.7232 174.699 38.1284C174.699 37.5337 175.208 37.0239 175.802 37.0239C176.397 37.1089 176.397 39.233 175.802 39.233Z" fill="#145B2C"/>
<path d="M175.802 42.8013C175.208 42.8013 174.699 42.2916 174.699 41.6968C174.699 41.1021 175.208 40.5923 175.802 40.5923C176.397 40.6772 176.397 42.8013 175.802 42.8013Z" fill="#145B2C"/>
<path d="M175.802 46.5401C175.208 46.5401 174.699 46.0303 174.699 45.4356C174.699 44.8408 175.208 44.3311 175.802 44.3311C176.397 44.416 176.397 46.5401 175.802 46.5401Z" fill="#145B2C"/>
<path d="M175.802 50.3633C175.208 50.3633 174.699 49.8536 174.699 49.2588C174.699 48.6641 175.208 48.1543 175.802 48.1543C176.397 48.1543 176.397 50.3633 175.802 50.3633Z" fill="#145B2C"/>
<path d="M171.897 31.7564C172.507 31.7564 173.001 31.2619 173.001 30.6519C173.001 30.0419 172.507 29.5474 171.897 29.5474C171.288 29.5474 170.794 30.0419 170.794 30.6519C170.794 31.2619 171.288 31.7564 171.897 31.7564Z" fill="#145B2C"/>
<path d="M171.897 39.233C172.507 39.233 173.001 38.7385 173.001 38.1284C173.001 37.5184 172.507 37.0239 171.897 37.0239C171.288 37.0239 170.794 37.5184 170.794 38.1284C170.794 38.7385 171.288 39.233 171.897 39.233Z" fill="#145B2C"/>
<path d="M171.897 35.4947C172.507 35.4947 173.001 35.0002 173.001 34.3902C173.001 33.7802 172.507 33.2856 171.897 33.2856C171.288 33.2856 170.794 33.7802 170.794 34.3902C170.794 35.0002 171.288 35.4947 171.897 35.4947Z" fill="#145B2C"/>
<path d="M104.659 50.7026L175.803 111.876" stroke="#145B2C" stroke-miterlimit="10"/>
<path d="M93.8771 37.3638C95.9995 37.3638 97.6126 39.0631 97.6126 41.1022C97.6126 43.1413 95.9146 44.8406 93.8771 44.8406C91.8396 44.8406 90.1417 43.1413 90.1417 41.1022C90.1417 39.0631 91.8396 37.3638 93.8771 37.3638ZM93.8771 35.6646C90.8208 35.6646 88.4437 38.1285 88.4437 41.1022C88.4437 44.0759 90.9057 46.5399 93.8771 46.5399C96.9334 46.5399 99.3105 44.0759 99.3105 41.1022C99.3105 38.1285 96.9334 35.6646 93.8771 35.6646Z" fill="#145B2C"/>
<path d="M10.9329 120.458C10.7631 116.635 7.02765 115.955 7.02765 115.955" stroke="#145B2C" stroke-width="2" stroke-miterlimit="10"/>
<path d="M44.5521 9.15585C45.4429 9.15585 46.1651 8.43311 46.1651 7.54155C46.1651 6.64999 45.4429 5.92725 44.5521 5.92725C43.6612 5.92725 42.939 6.64999 42.939 7.54155C42.939 8.43311 43.6612 9.15585 44.5521 9.15585Z" stroke="#145B2C" stroke-miterlimit="10"/>
<path d="M54.6549 25.8087C55.5457 25.8087 56.2679 25.0859 56.2679 24.1944C56.2679 23.3028 55.5457 22.5801 54.6549 22.5801C53.764 22.5801 53.0418 23.3028 53.0418 24.1944C53.0418 25.0859 53.764 25.8087 54.6549 25.8087Z" stroke="#145B2C" stroke-miterlimit="10"/>
<path d="M45.0614 74.4928C45.9523 74.4928 46.6744 73.77 46.6744 72.8785C46.6744 71.9869 45.9523 71.2642 45.0614 71.2642C44.1705 71.2642 43.4484 71.9869 43.4484 72.8785C43.4484 73.77 44.1705 74.4928 45.0614 74.4928Z" stroke="#145B2C" stroke-miterlimit="10"/>
<path d="M48.3725 78.316C49.2633 78.316 49.9855 77.5933 49.9855 76.7017C49.9855 75.8101 49.2633 75.0874 48.3725 75.0874C47.4816 75.0874 46.7594 75.8101 46.7594 76.7017C46.7594 77.5933 47.4816 78.316 48.3725 78.316Z" stroke="#145B2C" stroke-miterlimit="10"/>
<path d="M103.64 51.1275C104.531 51.1275 105.253 50.4048 105.253 49.5132C105.253 48.6217 104.531 47.8989 103.64 47.8989C102.749 47.8989 102.027 48.6217 102.027 49.5132C102.027 50.4048 102.749 51.1275 103.64 51.1275Z" stroke="#145B2C" stroke-miterlimit="10"/>
<path d="M164.426 86.1324C165.317 86.1324 166.039 85.4097 166.039 84.5181C166.039 83.6266 165.317 82.9038 164.426 82.9038C163.536 82.9038 162.813 83.6266 162.813 84.5181C162.813 85.4097 163.536 86.1324 164.426 86.1324Z" stroke="#145B2C" stroke-miterlimit="10"/>
<path d="M134.712 90.2105C135.603 90.2105 136.325 89.4878 136.325 88.5962C136.325 87.7047 135.603 86.9819 134.712 86.9819C133.822 86.9819 133.099 87.7047 133.099 88.5962C133.099 89.4878 133.822 90.2105 134.712 90.2105Z" stroke="#145B2C" stroke-miterlimit="10"/>
<path d="M141.674 105.165C142.565 105.165 143.287 104.442 143.287 103.55C143.287 102.659 142.565 101.936 141.674 101.936C140.783 101.936 140.061 102.659 140.061 103.55C140.061 104.442 140.783 105.165 141.674 105.165Z" stroke="#145B2C" stroke-miterlimit="10"/>
<path d="M143.881 9.9205C144.772 9.9205 145.494 9.19775 145.494 8.3062C145.494 7.41464 144.772 6.69189 143.881 6.69189C142.99 6.69189 142.268 7.41464 142.268 8.3062C142.268 9.19775 142.99 9.9205 143.881 9.9205Z" stroke="#145B2C" stroke-miterlimit="10"/>
<path d="M134.203 26.3184C135.094 26.3184 135.816 25.5957 135.816 24.7041C135.816 23.8126 135.094 23.0898 134.203 23.0898C133.312 23.0898 132.59 23.8126 132.59 24.7041C132.59 25.5957 133.312 26.3184 134.203 26.3184Z" stroke="#145B2C" stroke-miterlimit="10"/>
<path d="M143.372 75.0025C144.263 75.0025 144.985 74.2798 144.985 73.3882C144.985 72.4967 144.263 71.7739 143.372 71.7739C142.481 71.7739 141.759 72.4967 141.759 73.3882C141.759 74.2798 142.481 75.0025 143.372 75.0025Z" stroke="#145B2C" stroke-miterlimit="10"/>
<path d="M140.061 78.1461C140.952 78.1461 141.674 77.4233 141.674 76.5318C141.674 75.6402 140.952 74.9175 140.061 74.9175C139.17 74.9175 138.448 75.6402 138.448 76.5318C138.448 77.4233 139.17 78.1461 140.061 78.1461Z" stroke="#145B2C" stroke-miterlimit="10"/>
<path d="M140.231 87.0675C141.122 87.0675 141.844 86.3447 141.844 85.4532C141.844 84.5616 141.122 83.8389 140.231 83.8389C139.34 83.8389 138.618 84.5616 138.618 85.4532C138.618 86.3447 139.34 87.0675 140.231 87.0675Z" stroke="#145B2C" stroke-miterlimit="10"/>
<path d="M141.674 5.33286C141.674 6.18249 140.995 6.94716 140.061 6.94716C139.127 6.94716 138.533 6.26746 138.448 5.33286C138.448 4.82308 139.127 4.99301 140.486 4.99301C140.995 4.99301 141.419 4.99301 141.674 5.07797C141.929 5.16293 141.674 4.99301 141.674 5.33286Z" stroke="#145B2C" stroke-miterlimit="10"/>
<path d="M84.5385 51.2979C85.4294 51.2979 86.1516 50.5752 86.1516 49.6836C86.1516 48.7921 85.4294 48.0693 84.5385 48.0693C83.6477 48.0693 82.9255 48.7921 82.9255 49.6836C82.9255 50.5752 83.6477 51.2979 84.5385 51.2979Z" stroke="#145B2C" stroke-miterlimit="10"/>
<path d="M84.5385 33.9654C85.4294 33.9654 86.1516 33.2427 86.1516 32.3511C86.1516 31.4596 85.4294 30.7368 84.5385 30.7368C83.6477 30.7368 82.9255 31.4596 82.9255 32.3511C82.9255 33.2427 83.6477 33.9654 84.5385 33.9654Z" stroke="#145B2C" stroke-miterlimit="10"/>
<path d="M103.64 33.6251C104.531 33.6251 105.253 32.9023 105.253 32.0108C105.253 31.1192 104.531 30.3965 103.64 30.3965C102.749 30.3965 102.027 31.1192 102.027 32.0108C102.027 32.9023 102.749 33.6251 103.64 33.6251Z" stroke="#145B2C" stroke-miterlimit="10"/>
<path d="M23.5826 86.897C24.4734 86.897 25.1956 86.1743 25.1956 85.2828C25.1956 84.3912 24.4734 83.6685 23.5826 83.6685C22.6917 83.6685 21.9695 84.3912 21.9695 85.2828C21.9695 86.1743 22.6917 86.897 23.5826 86.897Z" stroke="#145B2C" stroke-miterlimit="10"/>
<path d="M54.8246 84.0084C55.7155 84.0084 56.4376 83.2856 56.4376 82.3941C56.4376 81.5025 55.7155 80.7798 54.8246 80.7798C53.9338 80.7798 53.2116 81.5025 53.2116 82.3941C53.2116 83.2856 53.9338 84.0084 54.8246 84.0084Z" stroke="#145B2C" stroke-miterlimit="10"/>
<path d="M12.2913 116.719C13.1822 116.719 13.9044 115.997 13.9044 115.105C13.9044 114.213 13.1822 113.491 12.2913 113.491C11.4005 113.491 10.6783 114.213 10.6783 115.105C10.6783 115.997 11.4005 116.719 12.2913 116.719Z" stroke="#145B2C" stroke-miterlimit="10"/>
<path d="M58.645 87.7467C59.5358 87.7467 60.258 87.0239 60.258 86.1324C60.258 85.2408 59.5358 84.5181 58.645 84.5181C57.7541 84.5181 57.0319 85.2408 57.0319 86.1324C57.0319 87.0239 57.7541 87.7467 58.645 87.7467Z" stroke="#145B2C" stroke-miterlimit="10"/>
<path d="M76.3035 78.7408C77.1944 78.7408 77.9166 78.0181 77.9166 77.1265C77.9166 76.235 77.1944 75.5122 76.3035 75.5122C75.4127 75.5122 74.6905 76.235 74.6905 77.1265C74.6905 78.0181 75.4127 78.7408 76.3035 78.7408Z" stroke="#145B2C" stroke-miterlimit="10"/>
<path d="M54.9943 12.9791C55.8852 12.9791 56.6074 12.2563 56.6074 11.3648C56.6074 10.4732 55.8852 9.75049 54.9943 9.75049C54.1035 9.75049 53.3813 10.4732 53.3813 11.3648C53.3813 12.2563 54.1035 12.9791 54.9943 12.9791Z" fill="#145B2C"/>
<path d="M54.0605 58.0948C54.9513 58.0948 55.6735 57.3721 55.6735 56.4805C55.6735 55.589 54.9513 54.8662 54.0605 54.8662C53.1696 54.8662 52.4474 55.589 52.4474 56.4805C52.4474 57.3721 53.1696 58.0948 54.0605 58.0948Z" fill="#145B2C"/>
<path d="M62.8049 78.7408C63.6957 78.7408 64.4179 78.0181 64.4179 77.1265C64.4179 76.235 63.6957 75.5122 62.8049 75.5122C61.914 75.5122 61.1918 76.235 61.1918 77.1265C61.1918 78.0181 61.914 78.7408 62.8049 78.7408Z" fill="#145B2C"/>
<path d="M38.0999 86.897C38.9908 86.897 39.713 86.1743 39.713 85.2828C39.713 84.3912 38.9908 83.6685 38.0999 83.6685C37.2091 83.6685 36.4869 84.3912 36.4869 85.2828C36.4869 86.1743 37.2091 86.897 38.0999 86.897Z" fill="#145B2C"/>
<path d="M44.2125 81.2896C45.1033 81.2896 45.8255 80.5669 45.8255 79.6753C45.8255 78.7838 45.1033 78.061 44.2125 78.061C43.3216 78.061 42.5995 78.7838 42.5995 79.6753C42.5995 80.5669 43.3216 81.2896 44.2125 81.2896Z" fill="#145B2C"/>
<path d="M55.2491 71.3487C56.1399 71.3487 56.8621 70.626 56.8621 69.7344C56.8621 68.8429 56.1399 68.1201 55.2491 68.1201C54.3582 68.1201 53.636 68.8429 53.636 69.7344C53.636 70.626 54.3582 71.3487 55.2491 71.3487Z" fill="#145B2C"/>
<path d="M50.5798 87.4068C51.4706 87.4068 52.1928 86.6841 52.1928 85.7925C52.1928 84.901 51.4706 84.1782 50.5798 84.1782C49.6889 84.1782 48.9667 84.901 48.9667 85.7925C48.9667 86.6841 49.6889 87.4068 50.5798 87.4068Z" fill="#145B2C"/>
<path d="M54.5699 91.0601C55.4607 91.0601 56.1829 90.3374 56.1829 89.4458C56.1829 88.5543 55.4607 87.8315 54.5699 87.8315C53.679 87.8315 52.9568 88.5543 52.9568 89.4458C52.9568 90.3374 53.679 91.0601 54.5699 91.0601Z" fill="#145B2C"/>
<path d="M111.621 78.7408C112.511 78.7408 113.234 78.0181 113.234 77.1265C113.234 76.235 112.511 75.5122 111.621 75.5122C110.73 75.5122 110.008 76.235 110.008 77.1265C110.008 78.0181 110.73 78.7408 111.621 78.7408Z" fill="#145B2C"/>
<path d="M133.1 84.6031C133.99 84.6031 134.713 83.8804 134.713 82.9888C134.713 82.0973 133.99 81.3745 133.1 81.3745C132.209 81.3745 131.486 82.0973 131.486 82.9888C131.486 83.8804 132.209 84.6031 133.1 84.6031Z" fill="#145B2C"/>
<path d="M128.345 87.7467C129.236 87.7467 129.958 87.0239 129.958 86.1324C129.958 85.2408 129.236 84.5181 128.345 84.5181C127.454 84.5181 126.732 85.2408 126.732 86.1324C126.732 87.0239 127.454 87.7467 128.345 87.7467Z" fill="#145B2C"/>
<path d="M154.918 86.2174C155.809 86.2174 156.531 85.4946 156.531 84.6031C156.531 83.7115 155.809 82.9888 154.918 82.9888C154.027 82.9888 153.305 83.7115 153.305 84.6031C153.305 85.4946 154.027 86.2174 154.918 86.2174Z" fill="#145B2C"/>
<path d="M134.628 58.2647C135.518 58.2647 136.241 57.542 136.241 56.6504C136.241 55.7589 135.518 55.0361 134.628 55.0361C133.737 55.0361 133.015 55.7589 133.015 56.6504C133.015 57.542 133.737 58.2647 134.628 58.2647Z" fill="#145B2C"/>
<path d="M133.524 12.9791C134.415 12.9791 135.137 12.2563 135.137 11.3648C135.137 10.4732 134.415 9.75049 133.524 9.75049C132.633 9.75049 131.911 10.4732 131.911 11.3648C131.911 12.2563 132.633 12.9791 133.524 12.9791Z" fill="#145B2C"/>
<path d="M146.428 95.3941C147.319 95.3941 148.041 94.6714 148.041 93.7798C148.041 92.8883 147.319 92.1655 146.428 92.1655C145.537 92.1655 144.815 92.8883 144.815 93.7798C144.815 94.6714 145.537 95.3941 146.428 95.3941Z" fill="#145B2C"/>
<path d="M172.237 118.929C173.128 118.929 173.85 118.206 173.85 117.314C173.85 116.423 173.128 115.7 172.237 115.7C171.346 115.7 170.624 116.423 170.624 117.314C170.624 118.206 171.346 118.929 172.237 118.929Z" fill="#145B2C"/>
<path d="M126.393 78.7408C127.283 78.7408 128.006 78.0181 128.006 77.1265C128.006 76.235 127.283 75.5122 126.393 75.5122C125.502 75.5122 124.78 76.235 124.78 77.1265C124.78 78.0181 125.502 78.7408 126.393 78.7408Z" fill="#145B2C"/>
<path d="M45.1464 107.119C46.0372 107.119 46.7594 106.396 46.7594 105.504C46.7594 104.613 46.0372 103.89 45.1464 103.89C44.2555 103.89 43.5333 104.613 43.5333 105.504C43.5333 106.396 44.2555 107.119 45.1464 107.119Z" fill="#145B2C"/>
<path d="M45.5708 94.2896C46.4617 94.2896 47.1838 93.5669 47.1838 92.6753C47.1838 91.7838 46.4617 91.061 45.5708 91.061C44.6799 91.061 43.9578 91.7838 43.9578 92.6753C43.9578 93.5669 44.6799 94.2896 45.5708 94.2896Z" fill="#145B2C"/>
<path d="M40.8166 77.9757C41.7075 77.9757 42.4297 77.2529 42.4297 76.3614C42.4297 75.4698 41.7075 74.7471 40.8166 74.7471C39.9258 74.7471 39.2036 75.4698 39.2036 76.3614C39.2036 77.2529 39.9258 77.9757 40.8166 77.9757Z" fill="#145B2C"/>
<path d="M83.5197 43.7358H80.2937V46.9645H83.5197V43.7358Z" fill="#145B2C"/>
<path d="M20.0169 115.105H16.7908V118.334H20.0169V115.105Z" fill="#145B2C"/>
<path d="M12.5459 108.053H9.31985V111.282H12.5459V108.053Z" fill="#145B2C"/>
<path d="M83.5197 35.4946H80.2937V38.7232H83.5197V35.4946Z" fill="#145B2C"/>
<path d="M91.4999 28.1025H88.2739V31.3312H91.4999V28.1025Z" fill="#145B2C"/>
<path d="M100.244 28.1025H97.0182V31.3312H100.244V28.1025Z" fill="#145B2C"/>
<path d="M108.14 35.3242H104.914V38.5528H108.14V35.3242Z" fill="#145B2C"/>
<path d="M108.14 43.5659H104.914V46.7945H108.14V43.5659Z" fill="#145B2C"/>
<path d="M100.329 50.6182H97.1031V53.8468H100.329V50.6182Z" fill="#145B2C"/>
<path d="M91.6698 50.6182H88.4437V53.8468H91.6698V50.6182Z" fill="#145B2C"/>
</svg>
