<svg width="27" height="24" viewBox="0 0 27 24" fill="none" xmlns="http://www.w3.org/2000/svg">
<path d="M25.192 3.0484H4.35486L6.96776 14.8065H22.4323C22.8587 14.8065 23.2792 14.7072 23.6606 14.5165C24.3962 14.1487 24.9283 13.4706 25.1105 12.6686L26.8669 4.94058C26.953 4.56185 26.9051 4.16499 26.7314 3.8176C26.6231 3.60098 26.4474 3.42534 26.2308 3.31702L26.1422 3.27272C25.8472 3.1252 25.5218 3.0484 25.192 3.0484Z" fill="#E2001A"/>
<path d="M23.9404 19.1613H7.86101L6.96771 14.8065H9.58062L10.0943 16.5484H23.358C23.4473 16.5484 23.5355 16.5687 23.6158 16.6079L23.6843 16.6413C24.1143 16.8509 24.3871 17.2874 24.3871 17.7657C24.3871 17.8247 24.3773 17.8833 24.3582 17.9392L23.9404 19.1613Z" fill="#E2001A"/>
<circle cx="9.01451" cy="20.9032" r="2.6129" fill="#E2001A"/>
<circle cx="22.4709" cy="20.9032" r="2.6129" fill="#E2001A"/>
<path d="M5.38519 0H1.48684C1.0925 0 0.71432 0.156648 0.435484 0.435484L0.392292 0.478675C0.141112 0.729856 0 1.07053 0 1.42575V1.47279C0 1.64979 0.0412094 1.82435 0.120365 1.98267C0.313491 2.36892 0.708269 2.6129 1.14011 2.6129H3.50757C3.77123 2.6129 4.0241 2.71764 4.21053 2.90408L4.35484 3.04839H7.40323L7.06975 1.38101C7.00324 1.04844 6.83977 0.742992 6.59994 0.503169C6.27777 0.180995 5.84081 0 5.38519 0Z" fill="#E2001A"/>
</svg>
