<svg width="27" height="23" viewBox="0 0 27 23" fill="none" xmlns="http://www.w3.org/2000/svg">
<path d="M23.3493 18.6882H7.6669L6.79565 14.4409H9.34404L9.84501 16.1398H22.7812C22.8684 16.1398 22.9544 16.1596 23.0327 16.1978L23.0995 16.2304C23.5188 16.4348 23.7849 16.8605 23.7849 17.3271C23.7849 17.3846 23.7754 17.4418 23.7568 17.4962L23.3493 18.6882Z" fill="#FDFEFC"/>
<circle cx="21.3174" cy="20.0635" r="2.50794" fill="#FDFEFC"/>
<circle cx="8.77771" cy="20.0635" r="2.50794" fill="#FDFEFC"/>
<path d="M24.5699 2.97312H4.24731L6.7957 14.4409H21.8784C22.2943 14.4409 22.7044 14.344 23.0764 14.1581C23.7938 13.7993 24.3127 13.138 24.4905 12.3558L26.2035 4.81857C26.2875 4.4492 26.2408 4.06214 26.0713 3.72333C25.9657 3.51206 25.7944 3.34075 25.5831 3.23511L25.4967 3.1919C25.209 3.04802 24.8917 2.97312 24.5699 2.97312Z" fill="#FDFEFC"/>
<path d="M5.25222 0H1.45012C1.06553 0 0.696682 0.15278 0.424731 0.424731L0.382606 0.466856C0.137628 0.711835 0 1.0441 0 1.39055V1.43643C0 1.60905 0.0401919 1.77931 0.117393 1.93371C0.30575 2.31043 0.690781 2.54839 1.11196 2.54839H3.42096C3.67811 2.54839 3.92474 2.65054 4.10657 2.83238L4.24731 2.97312H7.22043L6.89519 1.34691C6.83032 1.02255 6.67088 0.724647 6.43698 0.490745C6.12276 0.176526 5.69659 0 5.25222 0Z" fill="#FDFEFC"/>
</svg>
