<svg width="90" height="355" viewBox="0 0 90 355" fill="none" xmlns="http://www.w3.org/2000/svg">
<path d="M1.6875 329.978L63.5625 308.064L1.6875 286.267L1.6875 263.181L87 263.181L87 280.818L63.6797 280.818L23.4258 279.06L87 302.087L87 314.158L23.4844 337.127L63.6797 335.369L87 335.369L87 352.947L1.6875 352.947L1.6875 329.978Z" stroke="#17AC38" stroke-width="3"/>
<path d="M50.0273 186.902L50.0273 220.652L72.8789 220.652L72.8789 181.042L87 181.042L87 238.23L1.68749 238.23L1.68749 181.159L15.9258 181.159L15.9258 220.652L36.2578 220.652L36.2578 186.902L50.0273 186.902Z" stroke="#17AC38" stroke-width="3"/>
<path d="M87 91.7547L87 109.333L30.8672 143.552L87 143.552L87 161.13L1.68749 161.13L1.68749 143.552L57.9375 109.274L1.68749 109.274L1.68749 91.7547L87 91.7547Z" stroke="#17AC38" stroke-width="3"/>
<path d="M1.68748 2.23276L57.8789 2.23276C67.2148 2.23275 74.5976 5.16244 80.0273 11.0218C85.457 16.8421 88.1719 24.8109 88.1719 34.9281C88.1719 44.889 85.5351 52.7992 80.2617 58.6585C74.9883 64.5179 67.7422 67.5062 58.5234 67.6234L1.68749 67.6234L1.68749 50.0453L57.9961 50.0453C63.582 50.0453 67.664 48.7171 70.2422 46.0609C72.7812 43.3656 74.0508 39.6546 74.0508 34.9281C74.0508 25.0453 68.8555 20.0257 58.4648 19.8695L1.68749 19.8695L1.68748 2.23276Z" stroke="#17AC38" stroke-width="3"/>
</svg>
