<svg width="94" height="541" viewBox="0 0 94 541" fill="none" xmlns="http://www.w3.org/2000/svg">
<mask id="path-1-inside-1" fill="white">
<path fill-rule="evenodd" clip-rule="evenodd" d="M89.4844 475.393L71.9063 481.311L71.9062 512.131L89.4844 517.991L89.4844 536.682L4.17188 504.924L4.17188 488.635L89.4844 456.702L89.4844 475.393ZM74.9062 509.969L92.4844 515.828L92.4844 541L1.17188 507.009L1.17188 486.555L92.4844 452.375L92.4844 477.548L74.9063 483.466L74.9062 509.969ZM57.668 486.057L25.7344 496.78L57.668 507.385L57.668 486.057ZM54.668 503.228L54.668 490.229L35.2056 496.764L54.668 503.228ZM4.17187 429.524L64.7578 417.981L4.17187 403.918L4.17187 389.035L64.875 375.031L4.17187 363.547L4.17187 346.027L89.4844 364.953L89.4844 382.649L32.4141 396.535L89.4844 410.422L89.4844 428.117L4.17188 447.043L4.17187 429.524ZM45.1029 396.535L92.4844 385.006L92.4844 362.546L1.17187 342.289L1.17187 366.033L50.2709 375.322L1.17187 386.649L1.17187 406.301L50.2447 417.692L1.17188 427.041L1.17188 450.782L92.4844 430.525L92.4844 408.064L45.1029 396.535ZM89.4844 275.373L71.9063 281.291L71.9063 312.111L89.4844 317.97L89.4844 336.662L4.17187 304.904L4.17187 288.615L89.4844 256.681L89.4844 275.373ZM74.9063 309.949L92.4844 315.808L92.4844 340.98L1.17187 306.988L1.17187 286.535L92.4844 252.355L92.4844 277.528L74.9063 283.446L74.9063 309.949ZM57.668 286.037L25.7344 296.759L57.668 307.365L57.668 286.037ZM54.668 303.207L54.668 290.209L35.2056 296.744L54.668 303.207ZM89.4844 191.534L58.2539 207.531L58.2539 221.534L89.4844 221.534L89.4844 239.113L4.17187 239.113L4.17187 207.413C4.17186 197.335 6.41795 189.562 10.9102 184.093C15.4023 178.624 21.75 175.89 29.9531 175.89C35.7734 175.89 40.6367 177.159 44.543 179.699C47.7013 181.74 50.3386 184.655 52.4548 188.442C52.9297 189.292 53.3784 190.186 53.8008 191.124L88.6641 172.667L89.4844 172.667L89.4844 191.534ZM55.1066 187.039L87.9189 169.667L92.4844 169.667L92.4844 193.369L61.2539 209.365L61.2539 218.534L92.4844 218.534L92.4844 242.113L1.17187 242.113L1.17187 207.413C1.17186 196.93 3.50508 188.382 8.59196 182.189C13.7482 175.912 21.0119 172.89 29.9531 172.89C36.2063 172.89 41.6715 174.256 46.1717 177.179C49.8233 179.54 52.7855 182.866 55.1066 187.039ZM23.9794 199.055L23.9703 199.064C22.4594 200.55 21.4102 203.119 21.4102 207.413L21.4102 218.534L41.0156 218.534L41.0156 207.355C41.0156 203.439 40.0355 200.843 38.476 199.141C36.8852 197.446 34.639 196.468 31.3594 196.468C27.9337 196.468 25.6046 197.43 23.9885 199.046L23.9794 199.055ZM44.0156 221.534L18.4102 221.534L18.4102 207.413C18.4102 202.687 19.5625 199.191 21.8672 196.925C24.1719 194.62 27.3359 193.468 31.3594 193.468C35.3047 193.468 38.4102 194.679 40.6758 197.101C42.9023 199.523 44.0156 202.941 44.0156 207.355L44.0156 221.534ZM61.8749 26.315L61.8652 26.328C60.4068 28.23 58.6578 32.017 56.7162 38.074L56.7136 38.083L56.7109 38.091C54.6915 44.268 52.6741 49.279 50.6414 53.054L50.6394 53.057C45.0308 63.437 37.0998 69.163 26.8477 69.163C21.6391 69.163 16.9202 67.693 12.7942 64.733L12.7894 64.729C8.63527 61.737 5.48783 57.528 3.28027 52.264L3.27696 52.256C1.07339 46.959 -2.18517e-05 41.091 -2.21312e-05 34.698C-2.24135e-05 28.238 1.18091 22.367 3.61759 17.148C6.01747 11.923 9.47588 7.77801 14.012 4.82501C18.5546 1.82901 23.7037 0.349975 29.3672 0.349974L32.3672 0.349974L32.3672 23.928L29.3672 23.928C26.1414 23.928 24.0121 24.912 22.5451 26.593L22.5363 26.603L22.5274 26.613C20.9776 28.356 20.0039 31.011 20.0039 34.991C20.0039 38.901 20.8437 41.504 22.1342 43.179L22.1437 43.192L22.1531 43.204C23.3866 44.84 24.8848 45.584 26.9063 45.584C28.4667 45.584 29.9406 44.889 31.388 42.752C33.024 40.296 34.6776 36.499 36.2806 31.193C39.3488 20.994 43.2566 13.18 48.1951 8.112C53.2381 2.936 59.5715 0.349973 66.9844 0.349973C75.2479 0.349972 81.9598 3.53802 86.7807 9.92102L86.7888 9.932C91.4736 16.193 93.6563 24.414 93.6563 34.288C93.6563 41.22 92.3958 47.616 89.8259 53.43L89.8223 53.438L89.8185 53.447C87.2086 59.256 83.5793 63.846 78.8704 67.059L78.8625 67.064L78.8545 67.07C74.1337 70.246 68.6948 71.799 62.6484 71.799L59.6484 71.799L59.6484 48.163L62.6484 48.163C66.7387 48.163 69.3089 46.966 70.9385 45.019C72.6538 42.969 73.7695 39.568 73.7695 34.288C73.7695 30.475 72.9995 27.916 71.8213 26.264C70.7003 24.742 69.2409 23.987 67.1016 23.987C64.5815 23.987 62.9944 24.822 61.8844 26.302L61.8749 26.315ZM74.25 24.502C75.9297 26.846 76.7695 30.108 76.7695 34.288C76.7695 45.538 72.0625 51.163 62.6484 51.163L62.6484 68.799C63.6713 68.799 64.6713 68.751 65.6484 68.654C69.9325 68.228 73.7762 66.871 77.1797 64.581C81.3594 61.729 84.6602 57.608 87.082 52.217C89.4648 46.827 90.6563 40.85 90.6563 34.288C90.6563 24.834 88.5664 17.315 84.3867 11.729C80.168 6.143 74.3672 3.34997 66.9844 3.34997C60.3438 3.34997 54.7969 5.63499 50.3438 10.206C45.8906 14.776 42.1602 22.061 39.1523 32.061C37.5117 37.491 35.7539 41.612 33.8789 44.424C32.0039 47.198 29.6797 48.584 26.9063 48.584C23.9375 48.584 21.5547 47.393 19.7578 45.01C17.9219 42.627 17.0039 39.288 17.0039 34.991C17.0039 30.538 18.0977 27.081 20.2852 24.62C22.4336 22.159 25.4609 20.928 29.3672 20.928L29.3672 3.34997C28.3454 3.34997 27.3454 3.40297 26.3672 3.50897C22.4466 3.93297 18.8763 5.20898 15.6563 7.33398C11.6328 9.95198 8.52732 13.643 6.33982 18.409C4.11326 23.174 2.99998 28.604 2.99998 34.698C2.99998 40.752 4.01561 46.221 6.04686 51.104C8.07811 55.948 10.9102 59.678 14.543 62.295C18.1367 64.874 22.2383 66.163 26.8477 66.163C35.7148 66.163 42.7656 61.319 48 51.631C49.9141 48.077 51.8672 43.252 53.8594 37.159C55.8125 31.065 57.6875 26.846 59.4844 24.502C61.2422 22.159 63.7813 20.987 67.1016 20.987C70.1484 20.987 72.5313 22.159 74.25 24.502Z"/>
</mask>
<path fill-rule="evenodd" clip-rule="evenodd" d="M89.4844 475.393L71.9063 481.311L71.9062 512.131L89.4844 517.991L89.4844 536.682L4.17188 504.924L4.17188 488.635L89.4844 456.702L89.4844 475.393ZM74.9062 509.969L92.4844 515.828L92.4844 541L1.17188 507.009L1.17188 486.555L92.4844 452.375L92.4844 477.548L74.9063 483.466L74.9062 509.969ZM57.668 486.057L25.7344 496.78L57.668 507.385L57.668 486.057ZM54.668 503.228L54.668 490.229L35.2056 496.764L54.668 503.228ZM4.17187 429.524L64.7578 417.981L4.17187 403.918L4.17187 389.035L64.875 375.031L4.17187 363.547L4.17187 346.027L89.4844 364.953L89.4844 382.649L32.4141 396.535L89.4844 410.422L89.4844 428.117L4.17188 447.043L4.17187 429.524ZM45.1029 396.535L92.4844 385.006L92.4844 362.546L1.17187 342.289L1.17187 366.033L50.2709 375.322L1.17187 386.649L1.17187 406.301L50.2447 417.692L1.17188 427.041L1.17188 450.782L92.4844 430.525L92.4844 408.064L45.1029 396.535ZM89.4844 275.373L71.9063 281.291L71.9063 312.111L89.4844 317.97L89.4844 336.662L4.17187 304.904L4.17187 288.615L89.4844 256.681L89.4844 275.373ZM74.9063 309.949L92.4844 315.808L92.4844 340.98L1.17187 306.988L1.17187 286.535L92.4844 252.355L92.4844 277.528L74.9063 283.446L74.9063 309.949ZM57.668 286.037L25.7344 296.759L57.668 307.365L57.668 286.037ZM54.668 303.207L54.668 290.209L35.2056 296.744L54.668 303.207ZM89.4844 191.534L58.2539 207.531L58.2539 221.534L89.4844 221.534L89.4844 239.113L4.17187 239.113L4.17187 207.413C4.17186 197.335 6.41795 189.562 10.9102 184.093C15.4023 178.624 21.75 175.89 29.9531 175.89C35.7734 175.89 40.6367 177.159 44.543 179.699C47.7013 181.74 50.3386 184.655 52.4548 188.442C52.9297 189.292 53.3784 190.186 53.8008 191.124L88.6641 172.667L89.4844 172.667L89.4844 191.534ZM55.1066 187.039L87.9189 169.667L92.4844 169.667L92.4844 193.369L61.2539 209.365L61.2539 218.534L92.4844 218.534L92.4844 242.113L1.17187 242.113L1.17187 207.413C1.17186 196.93 3.50508 188.382 8.59196 182.189C13.7482 175.912 21.0119 172.89 29.9531 172.89C36.2063 172.89 41.6715 174.256 46.1717 177.179C49.8233 179.54 52.7855 182.866 55.1066 187.039ZM23.9794 199.055L23.9703 199.064C22.4594 200.55 21.4102 203.119 21.4102 207.413L21.4102 218.534L41.0156 218.534L41.0156 207.355C41.0156 203.439 40.0355 200.843 38.476 199.141C36.8852 197.446 34.639 196.468 31.3594 196.468C27.9337 196.468 25.6046 197.43 23.9885 199.046L23.9794 199.055ZM44.0156 221.534L18.4102 221.534L18.4102 207.413C18.4102 202.687 19.5625 199.191 21.8672 196.925C24.1719 194.62 27.3359 193.468 31.3594 193.468C35.3047 193.468 38.4102 194.679 40.6758 197.101C42.9023 199.523 44.0156 202.941 44.0156 207.355L44.0156 221.534ZM61.8749 26.315L61.8652 26.328C60.4068 28.23 58.6578 32.017 56.7162 38.074L56.7136 38.083L56.7109 38.091C54.6915 44.268 52.6741 49.279 50.6414 53.054L50.6394 53.057C45.0308 63.437 37.0998 69.163 26.8477 69.163C21.6391 69.163 16.9202 67.693 12.7942 64.733L12.7894 64.729C8.63527 61.737 5.48783 57.528 3.28027 52.264L3.27696 52.256C1.07339 46.959 -2.18517e-05 41.091 -2.21312e-05 34.698C-2.24135e-05 28.238 1.18091 22.367 3.61759 17.148C6.01747 11.923 9.47588 7.77801 14.012 4.82501C18.5546 1.82901 23.7037 0.349975 29.3672 0.349974L32.3672 0.349974L32.3672 23.928L29.3672 23.928C26.1414 23.928 24.0121 24.912 22.5451 26.593L22.5363 26.603L22.5274 26.613C20.9776 28.356 20.0039 31.011 20.0039 34.991C20.0039 38.901 20.8437 41.504 22.1342 43.179L22.1437 43.192L22.1531 43.204C23.3866 44.84 24.8848 45.584 26.9063 45.584C28.4667 45.584 29.9406 44.889 31.388 42.752C33.024 40.296 34.6776 36.499 36.2806 31.193C39.3488 20.994 43.2566 13.18 48.1951 8.112C53.2381 2.936 59.5715 0.349973 66.9844 0.349973C75.2479 0.349972 81.9598 3.53802 86.7807 9.92102L86.7888 9.932C91.4736 16.193 93.6563 24.414 93.6563 34.288C93.6563 41.22 92.3958 47.616 89.8259 53.43L89.8223 53.438L89.8185 53.447C87.2086 59.256 83.5793 63.846 78.8704 67.059L78.8625 67.064L78.8545 67.07C74.1337 70.246 68.6948 71.799 62.6484 71.799L59.6484 71.799L59.6484 48.163L62.6484 48.163C66.7387 48.163 69.3089 46.966 70.9385 45.019C72.6538 42.969 73.7695 39.568 73.7695 34.288C73.7695 30.475 72.9995 27.916 71.8213 26.264C70.7003 24.742 69.2409 23.987 67.1016 23.987C64.5815 23.987 62.9944 24.822 61.8844 26.302L61.8749 26.315ZM74.25 24.502C75.9297 26.846 76.7695 30.108 76.7695 34.288C76.7695 45.538 72.0625 51.163 62.6484 51.163L62.6484 68.799C63.6713 68.799 64.6713 68.751 65.6484 68.654C69.9325 68.228 73.7762 66.871 77.1797 64.581C81.3594 61.729 84.6602 57.608 87.082 52.217C89.4648 46.827 90.6563 40.85 90.6563 34.288C90.6563 24.834 88.5664 17.315 84.3867 11.729C80.168 6.143 74.3672 3.34997 66.9844 3.34997C60.3438 3.34997 54.7969 5.63499 50.3438 10.206C45.8906 14.776 42.1602 22.061 39.1523 32.061C37.5117 37.491 35.7539 41.612 33.8789 44.424C32.0039 47.198 29.6797 48.584 26.9063 48.584C23.9375 48.584 21.5547 47.393 19.7578 45.01C17.9219 42.627 17.0039 39.288 17.0039 34.991C17.0039 30.538 18.0977 27.081 20.2852 24.62C22.4336 22.159 25.4609 20.928 29.3672 20.928L29.3672 3.34997C28.3454 3.34997 27.3454 3.40297 26.3672 3.50897C22.4466 3.93297 18.8763 5.20898 15.6563 7.33398C11.6328 9.95198 8.52732 13.643 6.33982 18.409C4.11326 23.174 2.99998 28.604 2.99998 34.698C2.99998 40.752 4.01561 46.221 6.04686 51.104C8.07811 55.948 10.9102 59.678 14.543 62.295C18.1367 64.874 22.2383 66.163 26.8477 66.163C35.7148 66.163 42.7656 61.319 48 51.631C49.9141 48.077 51.8672 43.252 53.8594 37.159C55.8125 31.065 57.6875 26.846 59.4844 24.502C61.2422 22.159 63.7813 20.987 67.1016 20.987C70.1484 20.987 72.5313 22.159 74.25 24.502Z" stroke="#145B2C" stroke-width="6" mask="url(#path-1-inside-1)"/>
<path d="M74.5 132.5L74.5 122.411C74.5 121.702 74.425 120.963 74.2295 120.229C73.3862 117.062 72.0988 114.411 70.7544 112.391C69.4336 110.406 67.986 108.922 66.7558 108.204L66.7077 108.176L66.6576 108.152C49.7052 99.882 33.0778 104.685 26.7715 108.189L26.682 108.239L26.6 108.3C21.329 112.253 19.6872 118.642 19.5033 121.4L19.5 121.45L19.5 132.5L74.5 132.5Z" stroke="#145B2C" stroke-width="3"/>
<path d="M2.00659 122.393L2.00659 153L91 153L91 121.891C91 109.848 81.8984 96.803 75.8306 92.287C51.0476 77.234 27.6259 86.098 18.1872 92.287C4.83821 101.921 1.83805 116.371 2.00659 122.393Z" stroke="#145B2C" stroke-width="3"/>
</svg>
