<svg width="98" height="565" viewBox="0 0 98 565" fill="none" xmlns="http://www.w3.org/2000/svg">
<path fill-rule="evenodd" clip-rule="evenodd" d="M24.9258 489.409L24.9258 515.542L96 515.542L96 539.12L24.9258 539.12L24.9258 564.901L4.6875 564.901L4.6875 489.409L24.9258 489.409ZM21.9258 536.12L93 536.12L93 518.542L21.9258 518.542L21.9258 492.409L7.6875 492.409L7.6875 561.901L21.9258 561.901L21.9258 536.12ZM96 400.297L96 423.876L59.4375 423.876L59.4375 452.153L96 452.153L96 475.731L4.6875 475.731L4.6875 452.153L39.2578 452.153L39.2578 423.876L4.68749 423.876L4.68749 400.297L96 400.297ZM42.2578 420.876L42.2578 455.153L7.6875 455.153L7.6875 472.731L93 472.731L93 455.153L56.4375 455.153L56.4375 420.876L93 420.876L93 403.297L7.68749 403.297L7.68749 420.876L42.2578 420.876ZM59.0273 323.959L59.0273 357.709L75.8789 357.709L75.8789 318.1L96 318.1L96 381.287L4.68749 381.287L4.68749 318.217L24.9258 318.217L24.9258 357.709L39.2578 357.709L39.2578 323.959L59.0273 323.959ZM42.2578 360.709L21.9258 360.709L21.9258 321.217L7.68749 321.217L7.68749 378.287L93 378.287L93 321.1L78.8789 321.1L78.8789 360.709L56.0273 360.709L56.0273 326.959L42.2578 326.959L42.2578 360.709ZM4.68749 276.098L60.5549 256.312L4.68749 236.632L4.68748 208.422L96 208.422L96 232.058L69.6142 232.058L48.8692 231.152L96 248.224L96 264.504L48.9658 281.512L69.6141 280.609L96 280.609L96 304.187L4.68749 304.187L4.68749 276.098ZM29.4844 285.367L93 262.398L93 250.328L29.4258 227.301L69.6797 229.058L93 229.058L93 211.422L7.68748 211.422L7.68749 234.508L69.5625 256.305L7.68749 278.219L7.68749 301.187L93 301.187L93 283.609L69.6797 283.609L29.4844 285.367ZM93 131.333L75.4219 137.251L75.4219 168.072L93 173.931L93 192.622L7.68748 160.865L7.68748 144.576L93 112.642L93 131.333ZM78.4219 165.909L96 171.769L96 196.94L4.68748 162.949L4.68748 142.495L96 108.316L96 133.489L78.4219 139.407L78.4219 165.909ZM61.1836 141.997L29.25 152.72L61.1836 163.326L61.1836 141.997ZM58.1836 159.168L58.1836 146.169L38.7212 152.705L58.1836 159.168ZM37.5497 98.0079L30.2742 110.533L27.6381 108.853C22.7854 105.762 17.8759 104.219 12.8712 104.108L-2.01419e-05 104.108L-2.09932e-05 84.6318L12.082 84.6318C16.1544 84.6318 20.4065 85.762 24.7976 87.853C29.2501 89.9732 33.0461 92.8162 36.1451 96.3887L37.5497 98.0079ZM12.9023 101.108C17.6111 101.206 22.1967 102.441 26.6591 104.811C27.5274 105.272 28.391 105.776 29.25 106.323L33.8789 98.3545C31.0664 95.1123 27.6094 92.5146 23.5078 90.5615C19.4062 88.6084 15.5976 87.6318 12.082 87.6318L2.99998 87.6318L2.99998 101.108L12.9023 101.108ZM65.3905 26.0554L65.3808 26.0681C63.9224 27.9703 62.1734 31.7569 60.2318 37.8146L60.2292 37.8229L60.2265 37.8312C58.2071 44.0081 56.1897 49.0189 54.157 52.7939L54.155 52.7977C48.5464 63.1777 40.6154 68.9029 30.3633 68.9029C25.1547 68.9029 20.4358 67.4332 16.3098 64.4733L16.305 64.4698C12.1509 61.4771 9.00345 57.2687 6.7959 52.0045L6.79258 51.9966C4.58901 46.6995 3.5156 40.8314 3.5156 34.438C3.5156 27.9785 4.69654 22.1074 7.13321 16.8882C9.53309 11.6638 12.9915 7.51855 17.5276 4.56549C22.0702 1.56891 27.2193 0.0903919 32.8828 0.0903916L35.8828 0.0903915L35.8828 23.6685L32.8828 23.6685C29.657 23.6685 27.5277 24.6525 26.0607 26.3329L26.0519 26.343L26.043 26.353C24.4932 28.0965 23.5195 30.751 23.5195 34.731C23.5195 38.6412 24.3593 41.2446 25.6498 42.9196L25.6593 42.9319L25.6687 42.9443C26.9022 44.58 28.4005 45.3248 30.4219 45.3248C31.9823 45.3248 33.4562 44.6298 34.9036 42.4927C36.5396 40.0358 38.1932 36.2389 39.7962 30.9336C42.8644 20.734 46.7722 12.9207 51.7107 7.85229C56.7537 2.67651 63.0871 0.0903903 70.5 0.09039C78.7635 0.0903896 85.4754 3.27801 90.2963 9.66125L90.3044 9.67199C94.9892 15.933 97.1719 24.1539 97.1719 34.0279C97.1719 40.9605 95.9114 47.3565 93.3415 53.1705L93.3379 53.1788L93.3341 53.187C90.7242 58.9963 87.0949 63.5864 82.386 66.7991L82.3781 66.8044L82.3701 66.8098C77.6493 69.9864 72.2104 71.5396 66.164 71.5396L63.164 71.5396L63.164 47.9029L66.164 47.9029C70.2543 47.9029 72.8245 46.7064 74.4541 44.7588C76.1694 42.709 77.2851 39.3078 77.2851 34.0279C77.2851 30.2156 76.5151 27.6561 75.3369 26.004C74.2159 24.4824 72.7565 23.7271 70.6172 23.7271C68.0971 23.7271 66.51 24.5627 65.4 26.0427L65.3905 26.0554ZM77.7656 24.2427C79.4453 26.5865 80.2851 29.8482 80.2851 34.0279C80.2851 45.2779 75.5781 50.9029 66.164 50.9029L66.164 68.5396C67.1869 68.5396 68.1869 68.4911 69.164 68.3941C73.4481 67.9687 77.2918 66.611 80.6953 64.3209C84.875 61.4693 88.1758 57.3482 90.5976 51.9576C92.9804 46.567 94.1719 40.5904 94.1719 34.0279C94.1719 24.5748 92.082 17.0552 87.9023 11.4693C83.6836 5.88336 77.8828 3.09039 70.5 3.09039C63.8594 3.09039 58.3125 5.37555 53.8594 9.94586C49.4062 14.5162 45.6758 21.8013 42.6679 31.8013C41.0273 37.231 39.2695 41.3521 37.3945 44.1646C35.5195 46.938 33.1953 48.3248 30.4219 48.3248C27.4531 48.3248 25.0703 47.1334 23.2734 44.7505C21.4375 42.3677 20.5195 39.0279 20.5195 34.731C20.5195 30.2779 21.6133 26.8209 23.8008 24.3599C25.9492 21.899 28.9765 20.6685 32.8828 20.6685L32.8828 3.09039C31.861 3.09039 30.861 3.14337 29.8828 3.24927C25.9622 3.67377 22.3919 4.94891 19.1719 7.07477C15.1484 9.69195 12.0429 13.3834 9.85544 18.149C7.62888 22.9146 6.5156 28.3443 6.5156 34.438C6.5156 40.4927 7.53123 45.9615 9.56248 50.8443C11.5937 55.688 14.4258 59.4185 18.0586 62.0357C21.6523 64.6138 25.7539 65.9029 30.3633 65.9029C39.2304 65.9029 46.2812 61.0591 51.5156 51.3716C53.4297 47.817 55.3828 42.9927 57.375 36.899C59.3281 30.8052 61.2031 26.5865 63 24.2427C64.7578 21.899 67.2969 20.7271 70.6172 20.7271C73.664 20.7271 76.0469 21.899 77.7656 24.2427Z" fill="#145B2C"/>
</svg>
