<svg width="95" height="826" viewBox="0 0 95 826" fill="none" xmlns="http://www.w3.org/2000/svg">
<path fill-rule="evenodd" clip-rule="evenodd" d="M58.582 749.288L61.7985 749.52C71.6523 750.233 79.6642 753.926 85.5312 760.746C91.3816 767.507 94.1719 776.308 94.1719 786.848C94.1719 798.534 90.2087 808.029 82.1076 814.967L82.1011 814.972L82.0946 814.978C74.014 821.819 63.1306 825.063 49.8047 825.063L44.5898 825.063C36.0339 825.063 28.3638 823.555 21.6508 820.45C14.9213 817.338 9.66524 812.843 6.00705 806.948C2.31763 801.027 0.515624 794.214 0.515623 786.614C0.515623 776.217 3.31298 767.529 9.16987 760.847C15.0417 754.149 23.2081 750.406 33.3391 749.41L36.6328 749.086L36.6328 772.748L33.8661 772.964C28.7269 773.365 25.6163 774.767 23.8804 776.641L23.8648 776.658L23.849 776.674C22.0931 778.513 20.9297 781.623 20.9297 786.614C20.9297 791.65 22.6801 795.049 25.9668 797.332C29.4054 799.709 35.1735 801.173 43.7833 801.251L50.2148 801.251C59.2538 801.251 65.2682 799.868 68.784 797.582C72.0358 795.431 73.8164 792.061 73.8164 786.848C73.8164 781.807 72.6666 778.64 70.9255 776.76C69.1206 774.814 66.1123 773.44 61.3571 773.082L58.582 772.873L58.582 749.288ZM73.125 774.719C75.5859 777.376 76.8164 781.419 76.8164 786.848C76.8164 792.864 74.6875 797.278 70.4297 800.091C66.1719 802.864 59.4336 804.251 50.2148 804.251L43.7695 804.251C34.9414 804.173 28.4375 802.688 24.2578 799.798C20.0391 796.868 17.9297 792.473 17.9297 786.614C17.9297 781.223 19.1797 777.219 21.6797 774.602C24.1406 771.946 28.125 770.403 33.6328 769.973L33.6328 752.395C32.6082 752.496 31.6082 752.626 30.6328 752.786C22.5347 754.11 16.1323 757.456 11.4258 762.825C6.15234 768.841 3.51562 776.77 3.51562 786.614C3.51562 793.723 5.19531 799.973 8.55469 805.364C11.875 810.716 16.6602 814.837 22.9102 817.727C29.1602 820.618 36.3867 822.063 44.5898 822.063L49.8047 822.063C62.6562 822.063 72.7734 818.938 80.1562 812.688C87.5 806.399 91.1719 797.786 91.1719 786.848C91.1719 776.848 88.5352 768.802 83.2617 762.708C78.5767 757.259 72.3502 753.969 64.582 752.837C63.6064 752.695 62.6064 752.587 61.582 752.512L61.582 770.091C66.7773 770.481 70.625 772.024 73.125 774.719ZM59.0625 692.991L90 692.991L90 710.862L59.0625 710.862L4.6875 738.869L4.6875 719.592L43.125 701.955L4.68749 684.202L4.68749 664.983L59.0625 692.991ZM35.951 701.946L1.6875 717.668L1.6875 743.789L59.7897 713.862L93 713.862L93 689.991L59.7897 689.991L1.68749 660.063L1.68749 686.12L35.951 701.946ZM93 650.59L1.68749 650.59L1.68749 617.707C1.68749 607.048 3.72594 598.452 8.25256 592.368C12.8545 586.128 19.6241 583.125 28.0664 583.125C32.7891 583.125 37.0728 584.348 40.8117 586.856L40.8188 586.861L40.8259 586.866C42.708 588.144 44.3285 589.674 45.6887 591.441C47.0286 589.184 48.7712 587.23 50.9218 585.609C54.8396 582.617 59.5658 581.191 64.9219 581.191C73.812 581.191 80.9769 584.064 85.8905 590.16C90.6857 596.11 92.9187 604.327 92.9999 614.402L93 614.414L93 650.59ZM52.7344 588C50.5057 589.678 48.7786 591.778 47.5531 594.301C46.9528 595.537 46.4729 596.874 46.1133 598.312C45.5796 596.936 44.9374 595.669 44.1867 594.509C42.8492 592.444 41.1672 590.724 39.1406 589.348C35.9375 587.199 32.2461 586.125 28.0664 586.125C20.4101 586.125 14.6094 588.801 10.6641 594.152C6.67968 599.504 4.68749 607.355 4.68749 617.707L4.68749 647.59L90 647.59L90 614.426C89.9219 604.738 87.7734 597.277 83.5547 592.043C79.3359 586.809 73.125 584.191 64.9219 584.191C60.1172 584.191 56.0547 585.461 52.7344 588ZM23.8965 608.912L23.8787 608.935C22.7672 610.375 21.9258 613.095 21.9258 617.707L21.9258 627.012L37.4297 627.012L37.4297 617.031C37.3539 612.924 36.4934 610.376 35.3155 608.899C34.2422 607.553 32.5897 606.703 29.8242 606.703C26.5278 606.703 24.8345 607.646 23.9138 608.888L23.8965 608.912ZM40.4297 617.004L40.4297 630.012L18.9258 630.012L18.9258 617.707C18.9258 612.863 19.7851 609.328 21.5039 607.102C23.1836 604.836 25.957 603.703 29.8242 603.703C36.7383 603.703 40.2734 608.137 40.4297 617.004ZM75.8789 630.012L52.8516 630.012L52.8516 613.898C52.9687 605.812 56.9336 601.769 64.7461 601.769C68.2226 601.769 70.957 602.941 72.9492 605.285C74.9023 607.59 75.8789 610.812 75.8789 614.953L75.8789 630.012ZM70.6634 607.228C69.3194 605.647 67.4709 604.769 64.7461 604.769C61.3325 604.769 59.2863 605.647 58.055 606.902C56.808 608.174 55.9069 610.331 55.8516 613.921L55.8516 627.012L72.8789 627.012L72.8789 614.953C72.8789 611.263 72.0102 608.819 70.6634 607.228ZM56.0273 507.021L56.0273 540.771L72.8789 540.771L72.8789 501.162L93 501.162L93 564.349L1.68749 564.349L1.68749 501.279L21.9258 501.279L21.9258 540.771L36.2578 540.771L36.2578 507.021L56.0273 507.021ZM39.2578 543.771L18.9258 543.771L18.9258 504.279L4.68749 504.279L4.68749 561.349L90 561.349L90 504.162L75.8789 504.162L75.8789 543.771L53.0273 543.771L53.0273 510.021L39.2578 510.021L39.2578 543.771ZM90 436.671L58.7695 452.667L58.7695 466.671L90 466.671L90 484.249L4.68749 484.249L4.68748 452.55C4.68748 442.472 6.93358 434.698 11.4258 429.23C15.918 423.761 22.2656 421.027 30.4687 421.027C36.289 421.027 41.1523 422.296 45.0586 424.835C48.2169 426.877 50.8542 429.792 52.9704 433.579C53.4453 434.429 53.894 435.323 54.3164 436.261L89.1797 417.804L90 417.804L90 436.671ZM55.6223 432.175L88.4345 414.804L93 414.804L93 438.505L61.7695 454.501L61.7695 463.671L93 463.671L93 487.249L1.68749 487.249L1.68748 452.55C1.68748 442.066 4.0207 433.518 9.10758 427.325C14.2638 421.048 21.5275 418.027 30.4687 418.027C36.7236 418.027 42.19 419.393 46.6909 422.318C50.3409 424.679 53.3019 428.004 55.6223 432.175ZM24.4951 444.192L24.4859 444.201C22.975 445.686 21.9258 448.256 21.9258 452.55L21.9258 463.671L41.5312 463.671L41.5312 452.491C41.5312 448.575 40.5511 445.979 38.9916 444.277C37.4008 442.582 35.1546 441.605 31.875 441.605C28.4494 441.605 26.1202 442.567 24.5041 444.183L24.4951 444.192ZM41.1914 442.237C43.418 444.659 44.5312 448.077 44.5312 452.491L44.5312 466.671L18.9258 466.671L18.9258 452.55C18.9258 447.823 20.0781 444.327 22.3828 442.062C24.6875 439.757 27.8515 438.605 31.875 438.605C35.8203 438.605 38.9258 439.816 41.1914 442.237ZM62.3905 359.099L62.3808 359.111C60.9224 361.013 59.1734 364.8 57.2318 370.858L57.2292 370.866L57.2265 370.874C55.2071 377.051 53.1897 382.062 51.157 385.837L51.155 385.841C45.5464 396.221 37.6154 401.946 27.3633 401.946C22.1547 401.946 17.4358 400.476 13.3099 397.516L13.305 397.513C9.15089 394.52 6.00346 390.312 3.7959 385.048L3.79258 385.04C1.58902 379.743 0.515605 373.875 0.515605 367.481C0.515605 361.022 1.69654 355.151 4.13321 349.931C6.53309 344.707 9.9915 340.562 14.5276 337.609C19.0702 334.612 24.2193 333.134 29.8828 333.134L32.8828 333.134L32.8828 356.712L29.8828 356.712C26.657 356.712 24.5277 357.696 23.0607 359.376L23.0519 359.386L23.043 359.396C21.4932 361.14 20.5195 363.794 20.5195 367.774C20.5195 371.684 21.3593 374.288 22.6498 375.963L22.6593 375.975L22.6687 375.987C23.9022 377.623 25.4005 378.368 27.4219 378.368C28.9823 378.368 30.4562 377.673 31.9036 375.536C33.5396 373.079 35.1932 369.282 36.7962 363.977C39.8644 353.777 43.7722 345.964 48.7107 340.895C53.7537 335.72 60.0871 333.134 67.5 333.134C75.7635 333.134 82.4754 336.321 87.2963 342.704L87.3044 342.715C91.9892 348.976 94.1719 357.197 94.1719 367.071C94.1719 374.004 92.9114 380.4 90.3415 386.214L90.3379 386.222L90.3341 386.23C87.7242 392.039 84.0949 396.63 79.386 399.842L79.3781 399.848L79.3701 399.853C74.6493 403.03 69.2104 404.583 63.164 404.583L60.164 404.583L60.164 380.946L63.164 380.946C67.2544 380.946 69.8245 379.75 71.4541 377.802C73.1695 375.752 74.2851 372.351 74.2851 367.071C74.2851 363.259 73.5151 360.699 72.3369 359.047C71.2159 357.526 69.7565 356.77 67.6172 356.77C65.0971 356.77 63.51 357.606 62.4 359.086L62.3905 359.099ZM74.7656 357.286C76.4453 359.63 77.2851 362.891 77.2851 367.071C77.2851 378.321 72.5781 383.946 63.164 383.946L63.164 401.583C64.1869 401.583 65.1869 401.534 66.164 401.437C70.4481 401.012 74.2919 399.654 77.6953 397.364C81.875 394.512 85.1758 390.391 87.5976 385.001C89.9804 379.61 91.1719 373.634 91.1719 367.071C91.1719 357.618 89.082 350.098 84.9023 344.512C80.6836 338.927 74.8828 336.134 67.5 336.134C60.8594 336.134 55.3125 338.419 50.8594 342.989C46.4062 347.559 42.6758 354.844 39.6679 364.844C38.0273 370.274 36.2695 374.395 34.3945 377.208C32.5195 379.981 30.1953 381.368 27.4219 381.368C24.4531 381.368 22.0703 380.177 20.2734 377.794C18.4375 375.411 17.5195 372.071 17.5195 367.774C17.5195 363.321 18.6133 359.864 20.8008 357.403C22.9492 354.942 25.9765 353.712 29.8828 353.712L29.8828 336.134C28.861 336.134 27.861 336.187 26.8828 336.292C22.9622 336.717 19.3919 337.992 16.1719 340.118C12.1484 342.735 9.04295 346.427 6.85545 351.192C4.62889 355.958 3.5156 361.387 3.5156 367.481C3.51561 373.536 4.53123 379.005 6.56248 383.887C8.59373 388.731 11.4258 392.462 15.0586 395.079C18.6523 397.657 22.7539 398.946 27.3633 398.946C36.2305 398.946 43.2812 394.102 48.5156 384.415C50.4297 380.86 52.3828 376.036 54.375 369.942C56.3281 363.848 58.2031 359.63 60 357.286C61.7578 354.942 64.2969 353.77 67.6172 353.77C70.664 353.77 73.0469 354.942 74.7656 357.286ZM93 294.002L93 317.58L1.68748 317.58L1.68748 281.299C1.68748 274.528 2.92689 268.443 5.50022 263.122C8.07692 257.756 11.7979 253.55 16.6642 250.611C21.4747 247.681 26.9261 246.248 32.9297 246.248C42.0608 246.248 49.5451 249.428 55.0275 255.927L55.0287 255.929C60.429 262.339 62.9414 271.02 62.9414 281.592L62.9414 294.002L93 294.002ZM59.9414 297.002L59.9414 281.592C59.9414 271.475 57.539 263.565 52.7344 257.862C47.8906 252.119 41.289 249.248 32.9297 249.248C27.4218 249.248 22.5195 250.557 18.2226 253.174C13.8867 255.791 10.5469 259.541 8.2031 264.424C5.85935 269.268 4.68748 274.893 4.68748 281.299L4.68748 314.58L90 314.58L90 297.002L59.9414 297.002ZM40.1875 272.696L40.1796 272.687C38.6911 271.012 36.4691 270.002 33.0469 270.002C29.496 270.002 26.9063 271.026 24.9816 272.864C23.1089 274.651 21.9975 277.211 21.9258 280.917L21.9258 294.002L42.7031 294.002L42.7031 281.299C42.7031 277.081 41.7089 274.38 40.1955 272.705L40.1875 272.696ZM45.7031 297.002L18.9258 297.002L18.9258 280.889C19.0039 276.553 20.332 273.155 22.9101 270.694C25.4883 268.233 28.8672 267.002 33.0469 267.002C37.1094 267.002 40.2344 268.233 42.4219 270.694C44.6094 273.116 45.7031 276.651 45.7031 281.299L45.7031 297.002ZM90 183.867L72.4218 189.785L72.4218 220.605L90 226.465L90 245.156L4.68747 213.398L4.68747 197.109L90 165.176L90 183.867ZM75.4218 218.443L93 224.302L93 249.474L1.68747 215.483L1.68747 195.029L93 160.849L93 186.023L75.4218 191.941L75.4218 218.443ZM58.1836 194.531L26.25 205.254L58.1836 215.859L58.1836 194.531ZM55.1836 211.702L55.1836 198.703L35.7212 205.238L55.1836 211.702ZM58.582 78.6985L61.7985 78.9312C71.6517 79.644 79.6632 83.3364 85.5302 90.1556C91.3812 96.9168 94.1718 105.718 94.1718 116.259C94.1718 127.945 90.2087 137.44 82.1076 144.378L82.1011 144.383L82.0946 144.389C74.014 151.23 63.1305 154.474 49.8047 154.474L44.5898 154.474C36.0339 154.474 28.3638 152.966 21.6508 149.861C14.9222 146.749 9.66671 142.255 6.00859 136.362C2.31811 130.44 0.515594 123.626 0.515594 116.025C0.515594 105.628 3.31295 96.9395 9.16984 90.2583C15.0416 83.5601 23.2081 79.8171 33.3391 78.8206L36.6328 78.4966L36.6328 102.159L33.8661 102.375C28.7269 102.776 25.6163 104.178 23.8803 106.052L23.8648 106.069L23.849 106.085C22.093 107.924 20.9297 111.034 20.9297 116.025C20.9297 121.061 22.68 124.459 25.9668 126.743C29.4053 129.12 35.1731 130.584 43.7824 130.662L50.2148 130.662C59.2543 130.662 65.2689 129.279 68.7845 126.993C72.0359 124.841 73.8164 121.471 73.8164 116.259C73.8164 111.217 72.6661 108.049 70.9243 106.169C69.1192 104.224 66.1113 102.851 61.3571 102.493L58.582 102.284L58.582 78.6985ZM73.125 104.13C75.5859 106.787 76.8164 110.83 76.8164 116.259C76.8164 122.275 74.6875 126.689 70.4297 129.502C66.1718 132.275 59.4336 133.662 50.2148 133.662L43.7695 133.662C34.9414 133.584 28.4375 132.099 24.2578 129.209C20.039 126.279 17.9297 121.884 17.9297 116.025C17.9297 110.634 19.1797 106.63 21.6797 104.013C24.1406 101.357 28.125 99.814 33.6328 99.3843L33.6328 81.8062C32.6082 81.907 31.6082 82.0371 30.6328 82.1966C22.5346 83.5205 16.1323 86.8669 11.4257 92.2359C6.15231 98.2515 3.51559 106.181 3.51559 116.025C3.51559 123.134 5.19528 129.384 8.55466 134.775C11.875 140.127 16.6601 144.248 22.9101 147.138C29.1601 150.029 36.3867 151.474 44.5898 151.474L49.8047 151.474C62.6562 151.474 72.7734 148.349 80.1562 142.099C87.5 135.81 91.1718 127.197 91.1718 116.259C91.1718 106.259 88.5351 98.2125 83.2617 92.1187C78.5767 86.6702 72.3501 83.3799 64.582 82.2479C63.6063 82.1056 62.6063 81.9975 61.582 81.9234L61.582 99.5015C66.7773 99.8921 70.625 101.435 73.125 104.13ZM56.0273 6.45227L56.0273 40.2023L72.8789 40.2023L72.8789 0.592892L93 0.592891L93 63.7804L1.68747 63.7804L1.68746 0.710083L21.9257 0.710082L21.9257 40.2023L36.2578 40.2023L36.2578 6.45227L56.0273 6.45227ZM39.2578 43.2023L18.9257 43.2023L18.9257 3.71008L4.68746 3.71008L4.68747 60.7804L90 60.7804L90 3.59289L75.8789 3.59289L75.8789 43.2023L53.0273 43.2023L53.0273 9.45227L39.2578 9.45227L39.2578 43.2023Z" fill="#17AC38"/>
</svg>
