<svg width="95" height="335" viewBox="0 0 95 335" fill="none" xmlns="http://www.w3.org/2000/svg">
<path fill-rule="evenodd" clip-rule="evenodd" d="M93 334.865L1.6875 334.865L1.6875 301.982C1.6875 291.321 3.72634 282.725 8.25388 276.641C12.8558 270.403 19.6249 267.4 28.0664 267.4C32.7891 267.4 37.0728 268.623 40.8117 271.131L40.8188 271.136L40.8259 271.141C42.708 272.419 44.3285 273.949 45.6887 275.716C47.0283 273.459 48.7704 271.506 50.9203 269.886C54.8384 266.892 59.5651 265.466 64.9219 265.466C73.812 265.466 80.9769 268.339 85.8905 274.435C90.6857 280.385 92.9187 288.602 92.9999 298.676L93 298.689L93 334.865ZM52.7344 272.275C50.5057 273.953 48.7786 276.053 47.5531 278.576C46.9528 279.812 46.4729 281.149 46.1133 282.587C45.5796 281.211 44.9374 279.943 44.1867 278.784C42.8492 276.719 41.1672 274.999 39.1406 273.623C35.9375 271.474 32.2461 270.4 28.0664 270.4C20.4102 270.4 14.6094 273.076 10.6641 278.427C6.67969 283.779 4.6875 291.63 4.6875 301.982L4.6875 331.865L90 331.865L90 298.701C89.9219 289.013 87.7734 281.552 83.5547 276.318C79.3359 271.083 73.125 268.466 64.9219 268.466C60.1172 268.466 56.0547 269.736 52.7344 272.275ZM23.8965 293.187L23.8787 293.21C22.7672 294.65 21.9258 297.37 21.9258 301.982L21.9258 311.287L37.4297 311.287L37.4297 301.306C37.3539 297.199 36.4934 294.651 35.3155 293.174C34.2422 291.827 32.5897 290.978 29.8242 290.978C26.5278 290.978 24.8345 291.921 23.9138 293.163L23.8965 293.187ZM40.4297 301.279L40.4297 314.287L18.9258 314.287L18.9258 301.982C18.9258 297.138 19.7852 293.603 21.5039 291.376C23.1836 289.111 25.957 287.978 29.8242 287.978C36.7383 287.978 40.2734 292.412 40.4297 301.279ZM75.8789 314.287L52.8516 314.287L52.8516 298.173C52.9687 290.087 56.9336 286.044 64.7461 286.044C68.2227 286.044 70.957 287.216 72.9492 289.56C74.9023 291.865 75.8789 295.087 75.8789 299.228L75.8789 314.287ZM70.6634 291.503C69.3194 289.922 67.4709 289.044 64.7461 289.044C61.3325 289.044 59.2863 289.922 58.055 291.177C56.808 292.449 55.907 294.606 55.8516 298.196L55.8516 311.287L72.8789 311.287L72.8789 299.228C72.8789 295.537 72.0103 293.094 70.6634 291.503ZM49.7461 248.202L45.5273 248.202C37.1289 248.202 29.7461 246.698 23.3789 243.691C16.9727 240.644 12.0703 236.366 8.67187 230.858C5.23437 225.312 3.51562 218.983 3.51562 211.874C3.51562 204.765 5.23437 198.456 8.67187 192.948C12.0703 187.401 16.9726 183.124 23.3789 180.116C29.7461 177.069 37.1094 175.546 45.4687 175.546L49.2773 175.546C57.6758 175.546 65.0391 177.03 71.3672 179.999C77.6953 182.968 82.5781 187.226 86.0156 192.773C89.4531 198.28 91.1719 204.608 91.1719 211.757C91.1719 218.827 89.4727 225.136 86.0742 230.683C82.6758 236.23 77.832 240.526 71.543 243.573C65.2148 246.62 57.9492 248.163 49.7461 248.202ZM88.5617 191.186C92.3254 197.217 94.1719 204.106 94.1719 211.757C94.1719 219.331 92.3447 226.191 88.6323 232.25C84.9116 238.323 79.6164 242.996 72.851 246.273L72.8444 246.276C66.0525 249.547 58.3348 251.161 49.7604 251.202L49.7532 251.202L45.5273 251.202C36.7701 251.202 28.9352 249.633 22.0975 246.403L22.0904 246.4C15.2149 243.13 9.85054 238.481 6.11969 232.435C2.36337 226.372 0.51562 219.489 0.51562 211.874C0.515619 204.263 2.36196 197.397 6.12049 191.37C9.85012 185.288 15.2147 180.637 22.0941 177.405C28.931 174.136 36.7473 172.546 45.4687 172.546L49.2773 172.546C58.0288 172.546 65.8423 174.093 72.6413 177.283C79.4542 180.479 84.7961 185.112 88.5617 191.186ZM26.6729 223.063L26.6827 223.07C30.535 225.77 36.54 227.351 45.1235 227.39C45.1258 227.39 45.1281 227.39 45.1304 227.39L49.2773 227.39C57.678 227.39 63.7663 225.836 67.8867 223.089C71.8159 220.469 73.7578 216.82 73.7578 211.757C73.7578 206.785 71.8899 203.208 68.1506 200.64C64.2067 197.957 58.1436 196.397 49.5639 196.358C49.5617 196.358 49.5594 196.358 49.5571 196.358L45.4102 196.358C36.7455 196.358 30.6547 197.923 26.7218 200.633C22.9345 203.243 21.0469 206.863 21.0469 211.874C21.0469 216.849 22.9178 220.453 26.6729 223.063ZM69.8437 198.163C74.4531 201.327 76.7578 205.858 76.7578 211.757C76.7578 217.773 74.3555 222.382 69.5508 225.585C64.7461 228.788 57.9883 230.39 49.2773 230.39L45.1172 230.39C36.25 230.351 29.5312 228.73 24.9609 225.526C20.3516 222.323 18.0469 217.773 18.0469 211.874C18.0469 205.937 20.3711 201.366 25.0195 198.163C29.668 194.96 36.4648 193.358 45.4102 193.358L49.5703 193.358C58.4375 193.398 65.1953 194.999 69.8437 198.163ZM56.0273 98.8444L56.0273 132.594L72.8789 132.594L72.8789 92.9851L93 92.9851L93 156.173L1.68749 156.173L1.68749 93.1023L21.9258 93.1023L21.9258 132.594L36.2578 132.594L36.2578 98.8445L56.0273 98.8444ZM39.2578 135.594L18.9258 135.594L18.9258 96.1023L4.68749 96.1023L4.68749 153.173L90 153.173L90 95.9851L75.8789 95.9851L75.8789 135.594L53.0273 135.594L53.0273 101.844L39.2578 101.844L39.2578 135.594ZM90 27.4397L55.7812 49.3538L65.625 58.4944L90 58.4944L90 76.0725L4.68749 76.0725L4.68749 58.4944L43.3594 58.4944L32.7539 50.76L4.68749 29.0218L4.68749 7.40067L42.5976 37.6936L90 6.52176L90 27.4397ZM42.769 33.9904L93 0.9584L93 29.081L60.6611 49.7911L66.8031 55.4944L93 55.4944L93 79.0725L1.68749 79.0725L1.68749 55.4944L34.1544 55.4944L30.9512 53.1584L1.68749 30.4928L1.68749 1.1633L42.769 33.9904Z" fill="#145B2C"/>
</svg>
