<svg width="62" height="458" viewBox="0 0 62 458" fill="none" xmlns="http://www.w3.org/2000/svg">
<path fill-rule="evenodd" clip-rule="evenodd" d="M40.9609 427.531L40.9545 427.539C39.989 428.798 38.8312 431.305 37.5459 435.315L37.5441 435.321L37.5423 435.326C36.2055 439.415 34.87 442.732 33.5244 445.231L33.523 445.234C29.8102 452.105 24.5599 455.895 17.773 455.895C14.325 455.895 11.2011 454.923 8.46973 452.963L8.4665 452.961C5.71652 450.98 3.63293 448.194 2.17154 444.709L2.16934 444.704C0.710592 441.197 -8.88597e-07 437.312 -1.0736e-06 433.08C-1.26052e-06 428.804 0.781758 424.917 2.39479 421.462C3.98348 418.004 6.27298 415.259 9.2758 413.304C12.2829 411.321 15.6918 410.342 19.4409 410.342L21.4269 410.342L21.4269 425.951L19.4409 425.951C17.3055 425.951 15.8959 426.602 14.9248 427.714L14.9189 427.721L14.913 427.728C13.8871 428.882 13.2425 430.639 13.2425 433.274C13.2425 435.862 13.7984 437.586 14.6528 438.695L14.659 438.703L14.6652 438.711C15.4818 439.794 16.4737 440.287 17.8118 440.287C18.8451 440.287 19.821 439.827 20.7795 438.411C21.8623 436.784 22.9566 434.271 24.0176 430.76C26.0487 424.008 28.6357 418.836 31.9049 415.48C35.2434 412.054 39.436 410.342 44.3433 410.342C49.8138 410.342 54.257 412.452 57.4484 416.678L57.4538 416.685C60.5551 420.83 62 426.272 62 432.808C62 437.398 61.1656 441.632 59.4643 445.481L59.4619 445.486L59.4595 445.492C57.7317 449.337 55.3291 452.376 52.2118 454.503L52.2066 454.506L52.2013 454.51C49.0761 456.613 45.4756 457.641 41.473 457.641L39.487 457.641L39.487 441.994L41.473 441.994C44.1807 441.994 45.8822 441.201 46.961 439.912C48.0965 438.555 48.8351 436.304 48.8351 432.808C48.8351 430.284 48.3251 428.59 47.5449 427.496C46.8028 426.489 45.8369 425.989 44.4209 425.989C42.7526 425.989 41.702 426.542 40.9672 427.522L40.9609 427.531ZM49.1532 426.331C50.2651 427.882 50.8211 430.041 50.8211 432.808C50.8211 440.256 47.705 443.98 41.473 443.98L41.473 455.655C42.1501 455.655 42.8121 455.623 43.459 455.559C46.295 455.277 48.8395 454.378 51.0926 452.862C53.8595 450.974 56.0446 448.246 57.6479 444.678C59.2253 441.109 60.014 437.153 60.014 432.808C60.014 426.55 58.6305 421.573 55.8636 417.875C53.0708 414.177 49.2307 412.328 44.3433 412.328C39.9473 412.328 36.2753 413.841 33.3273 416.866C30.3794 419.892 27.9098 424.714 25.9187 431.334C24.8326 434.929 23.6689 437.657 22.4277 439.519C21.1864 441.355 19.6478 442.273 17.8118 442.273C15.8465 442.273 14.2691 441.484 13.0796 439.907C11.8642 438.329 11.2565 436.118 11.2565 433.274C11.2565 430.326 11.9806 428.037 13.4287 426.408C14.8509 424.779 16.855 423.965 19.4409 423.965L19.4409 412.328C18.7645 412.328 18.1025 412.363 17.455 412.433C14.8595 412.714 12.496 413.558 10.3644 414.966C7.70087 416.698 5.64506 419.142 4.19695 422.297C2.72297 425.451 1.98598 429.046 1.98598 433.08C1.98599 437.088 2.65832 440.708 4.003 443.941C5.34768 447.147 7.22247 449.617 9.62738 451.349C12.0064 453.056 14.7216 453.91 17.773 453.91C23.6431 453.91 28.3106 450.703 31.7758 444.29C33.0429 441.937 34.3358 438.743 35.6547 434.709C36.9476 430.675 38.1889 427.882 39.3784 426.331C40.542 424.779 42.2229 424.003 44.4209 424.003C46.4379 424.003 48.0153 424.779 49.1532 426.331ZM38.7578 372.653L59.2382 372.653L59.2382 384.484L38.7578 384.484L2.76176 403.025L2.76176 390.263L28.2072 378.588L2.76176 366.835L2.76176 354.112L38.7578 372.653ZM23.4581 378.582L0.775773 388.989L0.775774 406.282L39.2392 386.47L61.2242 386.47L61.2242 370.667L39.2392 370.667L0.775771 350.855L0.775772 368.105L23.4581 378.582ZM0.77577 325.989L37.7597 312.891L0.775769 299.862L0.775768 281.188L61.2242 281.188L61.2242 296.835L43.757 296.835L30.0239 296.235L61.2242 307.537L61.2242 318.314L30.0879 329.573L43.7569 328.975L61.2242 328.975L61.2242 344.584L0.775771 344.584L0.77577 325.989ZM17.1912 332.125L59.2382 316.92L59.2382 308.929L17.1524 293.685L43.8003 294.849L59.2382 294.849L59.2382 283.174L2.76175 283.174L2.76175 298.456L43.7227 312.886L2.76176 327.393L2.76176 342.598L59.2382 342.598L59.2382 330.961L43.8003 330.961L17.1912 332.125ZM61.2242 268.642L0.775768 268.642L0.775767 246.874C0.775766 239.817 2.12521 234.127 5.12181 230.099C8.1683 225.969 12.6497 223.98 18.2385 223.98C21.3649 223.98 24.2006 224.79 26.6758 226.45L26.6805 226.454L26.6852 226.457C27.9311 227.303 29.0039 228.316 29.9043 229.485C30.7914 227.991 31.945 226.698 33.3687 225.625C35.9623 223.644 39.0909 222.7 42.6366 222.7C48.5218 222.7 53.265 224.602 56.5177 228.638C59.6922 232.576 61.1704 238.016 61.2242 244.685L61.2242 244.693L61.2242 268.642ZM34.5686 227.208C33.0932 228.319 31.9499 229.709 31.1386 231.379C30.7412 232.197 30.4235 233.082 30.1854 234.035C29.8322 233.123 29.407 232.284 28.91 231.517C28.0246 230.15 26.9111 229.011 25.5696 228.1C23.4491 226.678 21.0054 225.966 18.2385 225.966C13.1701 225.966 9.32999 227.738 6.71821 231.281C4.08057 234.823 2.76175 240.021 2.76175 246.874L2.76175 266.656L59.2382 266.656L59.2382 244.701C59.1865 238.288 57.7643 233.349 54.9715 229.884C52.1787 226.419 48.0671 224.686 42.6366 224.686C39.4559 224.686 36.7666 225.527 34.5686 227.208ZM15.478 241.051L15.4662 241.066C14.7304 242.02 14.1734 243.821 14.1734 246.874L14.1734 253.033L24.4369 253.033L24.4369 246.426C24.3868 243.707 23.8171 242.02 23.0373 241.042C22.3269 240.151 21.2329 239.589 19.4021 239.589C17.2199 239.589 16.099 240.214 15.4895 241.036L15.478 241.051ZM26.4229 246.408L26.4229 255.019L12.1874 255.019L12.1874 246.874C12.1874 243.667 12.7563 241.327 13.8941 239.853C15.0061 238.353 16.8421 237.603 19.4021 237.603C23.9792 237.603 26.3195 240.538 26.4229 246.408ZM49.8901 255.019L34.6461 255.019L34.6461 244.352C34.7237 238.999 37.3484 236.323 42.5203 236.323C44.8217 236.323 46.6319 237.099 47.9507 238.65C49.2437 240.176 49.8901 242.309 49.8901 245.051L49.8901 255.019ZM46.4356 239.934C45.546 238.889 44.3228 238.309 42.5203 238.309C40.2605 238.309 38.9059 238.89 38.0908 239.721C37.2653 240.563 36.6688 241.991 36.6321 244.367L36.6321 253.033L47.9041 253.033L47.9041 245.051C47.9041 242.606 47.3283 240.988 46.4356 239.934ZM32.5951 213.258L29.7975 213.258C24.0003 213.258 18.8136 212.219 14.2871 210.081L14.2824 210.078C9.73171 207.914 6.18103 204.838 3.71128 200.836C1.22366 196.822 -1.16e-05 192.264 -1.18204e-05 187.223C-1.20406e-05 182.184 1.22228 177.639 3.71045 173.649C6.17948 169.622 9.7307 166.544 14.285 164.404C18.811 162.24 23.9852 161.188 29.7587 161.188L32.28 161.188C38.0734 161.188 43.2459 162.212 47.7469 164.324C52.2582 166.44 55.7951 169.508 58.288 173.53C60.7783 177.522 62 182.082 62 187.145C62 192.159 60.7904 196.7 58.3328 200.711C55.8697 204.732 52.3643 207.825 47.8856 209.995L47.8813 209.997C43.3851 212.162 38.276 213.231 32.5998 213.258L32.5951 213.258ZM56.6006 174.577C54.325 170.905 51.0926 168.087 46.9034 166.122C42.7142 164.156 37.8397 163.174 32.28 163.174L29.7587 163.174C24.2249 163.174 19.3504 164.182 15.1354 166.199C10.8945 168.19 7.64914 171.022 5.39939 174.694C3.12378 178.34 1.98597 182.516 1.98597 187.223C1.98597 191.929 3.12378 196.118 5.39939 199.79C7.64914 203.436 10.8945 206.268 15.1354 208.285C19.3504 210.276 24.2378 211.272 29.7975 211.272L32.5903 211.272C38.0208 211.246 42.8306 210.224 47.0198 208.207C51.1831 206.19 54.3896 203.346 56.6394 199.674C58.8891 196.002 60.014 191.826 60.014 187.145C60.014 182.413 58.8762 178.224 56.6006 174.577ZM17.316 194.63L17.3225 194.634C19.8734 196.422 23.8501 197.469 29.5348 197.494L32.28 197.494C37.8412 197.494 41.8716 196.465 44.5993 194.647C47.2004 192.913 48.486 190.497 48.486 187.145C48.486 183.853 47.2495 181.486 44.774 179.785C42.1625 178.009 38.1473 176.976 32.4652 176.951L29.72 176.951C23.984 176.951 19.9519 177.987 17.3483 179.781C14.8412 181.509 13.5916 183.905 13.5916 187.223C13.5916 190.516 14.8302 192.902 17.316 194.63ZM45.8949 178.146C48.9463 180.241 50.472 183.24 50.472 187.145C50.472 191.127 48.8816 194.179 45.7009 196.299C42.5203 198.42 38.0466 199.48 32.28 199.48L29.526 199.48C23.656 199.454 19.2082 198.381 16.1827 196.26C13.1313 194.14 11.6056 191.127 11.6056 187.223C11.6056 183.292 13.1442 180.266 16.2215 178.146C19.2987 176.026 23.7982 174.965 29.72 174.965L32.474 174.965C38.344 174.991 42.8176 176.051 45.8949 178.146ZM47.9041 110.031L61.2242 110.031L61.2242 150.348L0.775762 150.348L0.775762 134.74L47.9041 134.74L47.9041 110.031ZM49.8901 136.726L2.76175 136.726L2.76175 148.362L59.2382 148.362L59.2382 112.017L49.8901 112.017L49.8901 136.726ZM36.7485 62.9868L36.7485 85.3291L47.9041 85.3291L47.9041 59.1079L61.2242 59.1079L61.2242 100.938L0.77576 100.938L0.775758 59.1855L14.1734 59.1855L14.1734 85.3291L23.6611 85.3291L23.6611 62.9868L36.7485 62.9868ZM25.6471 87.3151L12.1874 87.3151L12.1874 61.1715L2.76174 61.1715L2.76175 98.9518L59.2382 98.9518L59.2382 61.0939L49.8901 61.0939L49.8901 87.3151L34.7625 87.3151L34.7625 64.9728L25.6471 64.9728L25.6471 87.3151ZM61.2242 1.42079e-05L61.2242 14.7379L29.1518 34.2893L61.2242 34.2893L61.2242 49.8979L0.775758 49.8979L0.775757 35.1598L32.9235 15.5698L0.775756 15.5698L0.775756 1.68502e-05L61.2242 1.42079e-05ZM39.999 13.5838L2.76174 36.2753L2.76174 47.9119L59.2382 47.9119L59.2382 36.2753L22.0786 36.2753L59.2382 13.6226L59.2382 1.986L2.76174 1.986L2.76174 13.5839L39.999 13.5838Z" fill="#145B2C"/>
</svg>
