<svg width="95" height="692" viewBox="0 0 95 692" fill="none" xmlns="http://www.w3.org/2000/svg">
<path fill-rule="evenodd" clip-rule="evenodd" d="M62.3905 646.514L62.3808 646.526C60.9224 648.429 59.1734 652.215 57.2318 658.273L57.2292 658.281L57.2265 658.29C55.2071 664.467 53.1897 669.477 51.157 673.252L51.155 673.256C45.5465 683.636 37.6154 689.361 27.3633 689.361C22.1547 689.361 17.4358 687.892 13.3099 684.932L13.305 684.928C9.15091 681.936 6.00348 677.727 3.79592 672.463L3.7926 672.455C1.58903 667.158 0.515624 661.29 0.515623 654.896C0.515623 648.437 1.69654 642.566 4.13316 637.347C6.53302 632.122 9.99149 627.977 14.5275 625.024C19.07 622.027 24.2194 620.549 29.8828 620.549L32.8828 620.549L32.8828 644.127L29.8828 644.127C26.6571 644.127 24.5277 645.111 23.0607 646.791L23.0519 646.801L23.043 646.811C21.4932 648.555 20.5195 651.209 20.5195 655.189C20.5195 659.1 21.3593 661.703 22.6499 663.378L22.6594 663.39L22.6687 663.403C23.9022 665.038 25.4005 665.783 27.4219 665.783C28.9827 665.783 30.457 665.088 31.9048 662.949C33.5405 660.492 35.1936 656.696 36.7962 651.392C39.8644 641.192 43.7723 633.379 48.7107 628.311C53.7537 623.135 60.0871 620.549 67.5 620.549C75.7636 620.549 82.4754 623.736 87.2963 630.12L87.3044 630.13C91.9892 636.392 94.1719 644.612 94.1719 654.486C94.1719 661.419 92.9115 667.815 90.3415 673.629L90.3379 673.637L90.3342 673.645C87.7242 679.455 84.0949 684.045 79.386 687.257L79.3781 687.263L79.3701 687.268C74.6493 690.445 69.2104 691.998 63.1641 691.998L60.1641 691.998L60.1641 668.361L63.1641 668.361C67.2544 668.361 69.8245 667.165 71.4542 665.217C73.1695 663.167 74.2852 659.766 74.2852 654.486C74.2852 650.673 73.5148 648.113 72.3362 646.461C71.2153 644.94 69.7562 644.186 67.6172 644.186C65.0971 644.186 63.5101 645.021 62.4 646.501L62.3905 646.514ZM74.7656 644.701C76.4453 647.045 77.2852 650.307 77.2852 654.486C77.2852 665.736 72.5781 671.361 63.1641 671.361L63.1641 688.998C64.187 688.998 65.187 688.95 66.1641 688.853C70.4481 688.427 74.2919 687.069 77.6953 684.779C81.875 681.928 85.1758 677.807 87.5977 672.416C89.9805 667.025 91.1719 661.049 91.1719 654.486C91.1719 645.033 89.082 637.514 84.9023 631.928C80.6836 626.342 74.8828 623.549 67.5 623.549C60.8594 623.549 55.3125 625.834 50.8594 630.404C46.4062 634.975 42.6758 642.26 39.668 652.26C38.0273 657.689 36.2695 661.811 34.3945 664.623C32.5195 667.396 30.1953 668.783 27.4219 668.783C24.4531 668.783 22.0703 667.592 20.2734 665.209C18.4375 662.826 17.5195 659.486 17.5195 655.189C17.5195 650.736 18.6133 647.279 20.8008 644.818C22.9492 642.357 25.9766 641.127 29.8828 641.127L29.8828 623.549C28.861 623.549 27.861 623.602 26.8828 623.708C22.9622 624.132 19.3919 625.407 16.1719 627.533C12.1484 630.15 9.04297 633.842 6.85547 638.607C4.6289 643.373 3.51562 648.803 3.51562 654.896C3.51562 660.951 4.53125 666.42 6.5625 671.303C8.59375 676.146 11.4258 679.877 15.0586 682.494C18.6523 685.072 22.7539 686.361 27.3633 686.361C36.2305 686.361 43.2812 681.518 48.5156 671.83C50.4297 668.275 52.3828 663.451 54.375 657.357C56.3281 651.264 58.2031 647.045 60 644.701C61.7578 642.357 64.2969 641.186 67.6172 641.186C70.6641 641.186 73.0469 642.357 74.7656 644.701ZM59.0625 563.617L90 563.617L90 581.488L59.0625 581.488L4.6875 609.496L4.6875 590.218L43.125 572.582L4.68749 554.828L4.68749 535.609L59.0625 563.617ZM35.951 572.573L1.6875 588.294L1.6875 614.416L59.7897 584.488L93 584.488L93 560.617L59.7897 560.617L1.68749 530.689L1.68749 556.747L35.951 572.573ZM1.68749 493.127L57.5549 473.341L1.68749 453.66L1.68749 425.45L93 425.45L93 449.087L66.6142 449.087L45.8692 448.181L93 465.253L93 481.532L45.9659 498.541L66.6141 497.638L93 497.638L93 521.216L1.68749 521.216L1.68749 493.127ZM26.4844 502.396L90 479.427L90 467.357L26.4258 444.329L66.6797 446.087L90 446.087L90 428.45L4.68749 428.45L4.68749 451.536L66.5625 473.333L4.68749 495.247L4.68749 518.216L90 518.216L90 500.638L66.6797 500.638L26.4844 502.396ZM93 406.499L1.68749 406.499L1.68749 373.616C1.68749 362.957 3.72594 354.361 8.25256 348.277C12.8545 342.037 19.6241 339.034 28.0664 339.034C32.7891 339.034 37.0727 340.257 40.8117 342.765L40.8188 342.77L40.8259 342.775C42.708 344.053 44.3285 345.583 45.6887 347.35C47.0286 345.093 48.7712 343.139 50.9219 341.518C54.8397 338.526 59.5657 337.1 64.9219 337.1C73.812 337.1 80.9769 339.973 85.8905 346.069C90.6857 352.019 92.9186 360.236 92.9999 370.311L93 370.323L93 406.499ZM52.7344 343.909C50.5057 345.587 48.7786 347.688 47.5531 350.21C46.9528 351.446 46.4729 352.783 46.1133 354.222C45.5796 352.845 44.9374 351.578 44.1867 350.418C42.8492 348.353 41.1672 346.633 39.1406 345.257C35.9375 343.108 32.2461 342.034 28.0664 342.034C20.4101 342.034 14.6094 344.71 10.664 350.061C6.67967 355.413 4.68749 363.264 4.68749 373.616L4.68749 403.499L90 403.499L90 370.335C89.9219 360.647 87.7734 353.186 83.5547 347.952C79.3359 342.718 73.125 340.1 64.9219 340.1C60.1172 340.1 56.0547 341.37 52.7344 343.909ZM23.8965 364.821L23.8787 364.844C22.7672 366.284 21.9258 369.004 21.9258 373.616L21.9258 382.921L37.4297 382.921L37.4297 372.94C37.3539 368.833 36.4934 366.285 35.3155 364.808C34.2422 363.462 32.5897 362.612 29.8242 362.612C26.5278 362.612 24.8345 363.555 23.9138 364.797L23.8965 364.821ZM40.4297 372.913L40.4297 385.921L18.9258 385.921L18.9258 373.616C18.9258 368.772 19.7851 365.237 21.5039 363.011C23.1836 360.745 25.957 359.612 29.8242 359.612C36.7383 359.612 40.2734 364.046 40.4297 372.913ZM75.8789 385.921L52.8515 385.921L52.8515 369.807C52.9687 361.722 56.9336 357.679 64.7461 357.679C68.2226 357.679 70.957 358.85 72.9492 361.194C74.9023 363.499 75.8789 366.722 75.8789 370.862L75.8789 385.921ZM70.6605 363.134C69.3168 361.555 67.4689 360.679 64.7461 360.679C61.3325 360.679 59.2863 361.556 58.055 362.811C56.808 364.083 55.9069 366.24 55.8515 369.83L55.8515 382.921L72.8789 382.921L72.8789 370.862C72.8789 367.169 72.009 364.725 70.6605 363.134ZM49.7532 322.836L45.5273 322.836C36.7701 322.836 28.9352 321.267 22.0975 318.037L22.0904 318.034C15.2162 314.764 9.85259 310.117 6.12183 304.073C2.36406 298.009 0.515607 291.124 0.515607 283.508C0.515607 275.897 2.36198 269.031 6.12058 263.004C9.85025 256.921 15.2147 252.271 22.0943 249.039C28.9312 245.77 36.7472 244.18 45.4687 244.18L49.2773 244.18C58.0288 244.18 65.8423 245.728 72.6413 248.917C79.456 252.114 84.7989 256.749 88.5646 262.825C92.3264 268.855 94.1719 275.742 94.1719 283.391C94.1719 290.965 92.3446 297.825 88.6323 303.884C84.9116 309.957 79.6164 314.63 72.851 317.907L72.8444 317.91C66.0525 321.181 58.3348 322.795 49.7604 322.836L49.7532 322.836ZM86.0156 264.407C82.5781 258.86 77.6953 254.602 71.3672 251.633C65.039 248.664 57.6758 247.18 49.2773 247.18L45.4687 247.18C37.1094 247.18 29.7461 248.704 23.3789 251.75C16.9726 254.758 12.0703 259.036 8.67186 264.582C5.23436 270.09 3.51561 276.399 3.51561 283.508C3.51561 290.618 5.23436 296.946 8.67186 302.493C12.0703 308 16.9726 312.278 23.3789 315.325C29.7461 318.332 37.1289 319.836 45.5273 319.836L49.7461 319.836C57.9492 319.797 65.2148 318.254 71.543 315.207C77.832 312.161 82.6758 307.864 86.0742 302.317C89.4726 296.77 91.1719 290.461 91.1719 283.391C91.1719 276.243 89.4531 269.914 86.0156 264.407ZM26.6729 294.697L26.6827 294.704C30.5361 297.404 36.5432 298.986 45.1304 299.024L49.2773 299.024C57.6779 299.024 63.7662 297.47 67.8867 294.723C71.8159 292.104 73.7578 288.454 73.7578 283.391C73.7578 278.419 71.8899 274.842 68.1506 272.274C64.2057 269.591 58.1404 268.03 49.5571 267.993L45.4101 267.993C36.7455 267.993 30.6547 269.557 26.7217 272.268C22.9345 274.877 21.0469 278.497 21.0469 283.508C21.0469 288.483 22.9178 292.088 26.6729 294.697ZM69.8437 269.797C74.4531 272.961 76.7578 277.493 76.7578 283.391C76.7578 289.407 74.3555 294.016 69.5508 297.219C64.7461 300.422 57.9883 302.024 49.2773 302.024L45.1172 302.024C36.25 301.985 29.5312 300.364 24.9609 297.161C20.3515 293.957 18.0469 289.407 18.0469 283.508C18.0469 277.571 20.3711 273 25.0195 269.797C29.668 266.594 36.4648 264.993 45.4101 264.993L49.5703 264.993C58.4375 265.032 65.1953 266.633 69.8437 269.797ZM72.8789 166.904L93 166.904L93 227.807L1.68748 227.807L1.68748 204.228L72.8789 204.228L72.8789 166.904ZM75.8789 207.228L4.68748 207.228L4.68748 224.807L90 224.807L90 169.904L75.8789 169.904L75.8789 207.228ZM56.0273 95.8395L56.0273 129.589L72.8789 129.589L72.8789 89.9801L93 89.9801L93 153.168L1.68748 153.168L1.68747 90.0973L21.9258 90.0973L21.9258 129.589L36.2578 129.589L36.2578 95.8395L56.0273 95.8395ZM39.2578 132.589L18.9258 132.589L18.9258 93.0973L4.68747 93.0973L4.68748 150.168L90 150.168L90 92.9801L75.8789 92.9801L75.8789 132.589L53.0273 132.589L53.0273 98.8395L39.2578 98.8395L39.2578 132.589ZM93 0.692623L93 22.9554L44.5519 52.4895L93 52.4895L93 76.0676L1.68747 76.0676L1.68747 53.8044L50.2494 24.2122L1.68747 24.2122L1.68747 0.692627L93 0.692623ZM60.9375 21.2122L4.68747 55.4895L4.68747 73.0676L90 73.0676L90 55.4895L33.8672 55.4895L90 21.2707L90 3.69262L4.68747 3.69263L4.68747 21.2122L60.9375 21.2122Z" fill="#145B2C"/>
</svg>
