<svg width="62" height="361" viewBox="0 0 62 361" fill="none" xmlns="http://www.w3.org/2000/svg">
<path fill-rule="evenodd" clip-rule="evenodd" d="M15.9038 312.207L15.9038 328.881L61.2523 328.881L61.2523 343.925L15.9038 343.925L15.9038 360.375L2.99083 360.375L2.99083 312.207L15.9038 312.207ZM13.9896 342.011L59.3382 342.011L59.3382 330.795L13.9896 330.795L13.9896 314.121L4.90497 314.121L4.90497 358.46L13.9896 358.46L13.9896 342.011ZM61.2523 255.35L61.2523 270.394L37.9238 270.394L37.9238 288.436L61.2523 288.436L61.2523 303.48L2.99083 303.48L2.99083 288.436L25.0482 288.436L25.0482 270.394L2.99083 270.394L2.99083 255.35L61.2523 255.35ZM26.9624 268.48L26.9624 290.35L4.90497 290.35L4.90497 301.566L59.3382 301.566L59.3382 290.35L36.0096 290.35L36.0096 268.48L59.3382 268.48L59.3382 257.264L4.90496 257.264L4.90496 268.48L26.9624 268.48ZM37.6621 206.643L37.6621 228.177L48.4141 228.177L48.4141 202.904L61.2523 202.904L61.2523 243.221L2.99083 243.221L2.99083 202.979L15.9038 202.979L15.9038 228.177L25.0482 228.177L25.0482 206.643L37.6621 206.643ZM26.9624 230.091L13.9896 230.091L13.9896 204.893L4.90496 204.893L4.90496 241.307L59.3382 241.307L59.3382 204.818L50.3283 204.818L50.3283 230.091L35.7479 230.091L35.7479 208.557L26.9624 208.557L26.9624 230.091ZM2.99083 176.105L38.6368 163.481L2.99083 150.924L2.99082 132.925L61.2523 132.925L61.2523 148.006L44.417 148.006L31.1807 147.428L61.2523 158.32L61.2523 168.707L31.2424 179.56L44.4169 178.984L61.2523 178.984L61.2523 194.027L2.99083 194.027L2.99083 176.105ZM18.8123 182.019L59.3382 167.364L59.3381 159.663L18.775 144.97L44.4587 146.092L59.3381 146.092L59.3381 134.839L4.90496 134.839L4.90496 149.569L44.384 163.476L4.90496 177.458L4.90496 192.113L59.3382 192.113L59.3382 180.898L44.4587 180.898L18.8123 182.019ZM59.3381 83.7389L48.1225 87.5148L48.1225 107.18L59.3381 110.918L59.3381 122.844L4.90496 102.581L4.90496 92.188L59.3381 71.813L59.3381 83.7389ZM50.0367 105.8L61.2523 109.538L61.2523 125.599L2.99082 103.911L2.99082 90.8607L61.2523 69.0526L61.2523 85.1142L50.0367 88.8901L50.0367 105.8ZM39.0379 90.5431L18.6628 97.3846L39.0379 104.151L39.0379 90.5431ZM37.1237 101.499L37.1237 93.2049L24.7058 97.3746L37.1237 101.499ZM23.9584 62.4757L19.3163 70.4671L17.6344 69.3957C14.5381 67.4232 11.4056 66.4384 8.21238 66.3681L-1.28514e-05 66.3681L-1.33946e-05 53.9412L7.70886 53.9412C10.3072 53.9412 13.0203 54.6623 15.822 55.9964C18.6629 57.3492 21.0849 59.1632 23.0622 61.4426L23.9584 62.4757ZM8.23226 64.454C11.2367 64.5166 14.1625 65.304 17.0097 66.8162C17.5637 67.1105 18.1147 67.4322 18.6628 67.7813L21.6162 62.6969C19.8217 60.6282 17.616 58.9708 14.999 57.7246C12.382 56.4784 9.95199 55.8553 7.70886 55.8553L1.91412 55.8553L1.91412 64.454L8.23226 64.454ZM41.722 16.5668L41.7159 16.5749C40.7853 17.7886 39.6694 20.2046 38.4306 24.0697L38.4289 24.075L38.4272 24.0803C37.1387 28.0214 35.8515 31.2186 34.5546 33.6272L34.5533 33.6296C30.9748 40.2525 25.9144 43.9054 19.3731 43.9054C16.0498 43.9054 13.039 42.9677 10.4064 41.0792L10.4033 41.0769C7.75281 39.1674 5.74461 36.4823 4.33608 33.1235L4.33397 33.1184C2.928 29.7387 2.24311 25.9945 2.24311 21.9153C2.24311 17.7938 2.9966 14.0478 4.55131 10.7177C6.08254 7.3843 8.28916 4.73948 11.1834 2.85529C14.0818 0.943335 17.3671 -2.39412e-05 20.9807 -2.40991e-05L22.8948 -2.41828e-05L22.8948 15.0439L20.9807 15.0439C18.9225 15.0439 17.5639 15.6717 16.6279 16.7439L16.6223 16.7503L16.6166 16.7567C15.6278 17.8691 15.0065 19.5628 15.0065 22.1022C15.0065 24.5971 15.5423 26.2582 16.3657 27.3269L16.3718 27.3348L16.3778 27.3427C17.1648 28.3863 18.1208 28.8615 19.4105 28.8615C20.4061 28.8615 21.3465 28.4181 22.27 27.0545C23.3139 25.4869 24.3689 23.0643 25.3917 19.6793C27.3494 13.1715 29.8428 8.18626 32.9937 4.95242C36.2114 1.65004 40.2524 -2.49415e-05 44.9821 -2.51483e-05C50.2547 -2.53788e-05 54.5371 2.03382 57.6131 6.10661L57.6182 6.11347C60.6074 10.1083 62 15.3535 62 21.6536C62 26.0769 61.1958 30.1579 59.5561 33.8674L59.5537 33.8727L59.5514 33.878C57.8861 37.5846 55.5704 40.5133 52.566 42.5631L52.5609 42.5665L52.5558 42.5699C49.5437 44.5968 46.0735 45.5878 42.2156 45.5878L40.3015 45.5878L40.3015 30.5065L42.2156 30.5065C44.8254 30.5065 46.4653 29.743 47.5051 28.5004C48.5995 27.1926 49.3114 25.0224 49.3114 21.6536C49.3114 19.2212 48.82 17.5881 48.0683 16.534C47.3531 15.5631 46.4219 15.0813 45.0569 15.0813C43.449 15.0813 42.4364 15.6144 41.7281 16.5587L41.722 16.5668ZM49.6179 15.4102C50.6896 16.9057 51.2255 18.9868 51.2255 21.6536C51.2255 28.8316 48.2222 32.4206 42.2156 32.4206L42.2156 43.6736C42.8683 43.6736 43.5063 43.6427 44.1298 43.5808C46.8632 43.3094 49.3157 42.4431 51.4872 40.9819C54.154 39.1625 56.2601 36.533 57.8053 33.0936C59.3257 29.6541 60.0859 25.8408 60.0859 21.6536C60.0859 15.6221 58.7524 10.8243 56.0856 7.26023C53.3939 3.69615 49.6927 1.91411 44.9821 1.91411C40.7451 1.91411 37.206 3.37214 34.3647 6.28821C31.5234 9.20427 29.1432 13.8525 27.2241 20.233C26.1773 23.6974 25.0557 26.3268 23.8594 28.1213C22.663 29.8909 21.1801 30.7757 19.4105 30.7757C17.5163 30.7757 15.996 30.0155 14.8495 28.4952C13.6781 26.9748 13.0924 24.8438 13.0924 22.1022C13.0924 19.261 13.7902 17.0552 15.1859 15.485C16.5567 13.9148 18.4883 13.1297 20.9807 13.1297L20.9807 1.91411C20.3287 1.91411 19.6907 1.94791 19.0666 2.01548C16.565 2.28633 14.287 3.09993 12.2325 4.45632C9.66537 6.1262 7.68394 8.48148 6.28821 11.5222C4.86757 14.5628 4.15725 18.0272 4.15725 21.9153C4.15725 25.7785 4.80526 29.2678 6.10129 32.3832C7.39732 35.4738 9.20428 37.854 11.5222 39.5239C13.8151 41.1688 16.4321 41.9913 19.3731 41.9913C25.0308 41.9913 29.5295 38.9008 32.8693 32.7197C34.0905 30.4517 35.3367 27.3736 36.6078 23.4855C37.854 19.5974 39.0503 16.9057 40.1968 15.4103C41.3184 13.9148 42.9384 13.1671 45.0569 13.1671C47.001 13.1671 48.5213 13.9148 49.6179 15.4102Z" fill="#145B2C"/>
</svg>
