<svg width="62" height="222" viewBox="0 0 62 222" fill="none" xmlns="http://www.w3.org/2000/svg">
<path fill-rule="evenodd" clip-rule="evenodd" d="M61.2242 221.044L0.775776 221.044L0.775775 199.276C0.775775 192.219 2.12548 186.528 5.12269 182.501C8.16915 178.371 12.6503 176.383 18.2385 176.383C21.3649 176.383 24.2007 177.193 26.6758 178.853L26.6805 178.856L26.6852 178.859C27.9311 179.705 29.0039 180.718 29.9043 181.888C30.7912 180.394 31.9444 179.101 33.3677 178.028C35.9614 176.047 39.0905 175.103 42.6366 175.103C48.5218 175.103 53.265 177.005 56.5178 181.04C59.6922 184.979 61.1704 190.419 61.2242 197.088L61.2242 197.096L61.2242 221.044ZM34.5686 179.61C33.0932 180.721 31.9499 182.112 31.1386 183.782C30.7412 184.6 30.4235 185.485 30.1854 186.437C29.8322 185.526 29.407 184.687 28.9101 183.919C28.0246 182.552 26.9111 181.413 25.5696 180.502C23.4491 179.08 21.0054 178.369 18.2385 178.369C13.1701 178.369 9.33 180.14 6.71822 183.683C4.08058 187.226 2.76176 192.423 2.76176 199.276L2.76176 219.058L59.2382 219.058L59.2382 197.104C59.1865 190.691 57.7643 185.752 54.9715 182.287C52.1787 178.822 48.0671 177.089 42.6366 177.089C39.456 177.089 36.7666 177.929 34.5686 179.61ZM15.478 193.454L15.4662 193.469C14.7304 194.422 14.1734 196.223 14.1734 199.276L14.1734 205.436L24.4369 205.436L24.4369 198.829C24.3868 196.11 23.8171 194.423 23.0374 193.445C22.3269 192.554 21.2329 191.992 19.4022 191.992C17.2199 191.992 16.099 192.616 15.4895 193.438L15.478 193.454ZM26.4229 198.811L26.4229 207.422L12.1874 207.422L12.1874 199.276C12.1874 196.07 12.7563 193.729 13.8941 192.255C15.0061 190.756 16.8421 190.006 19.4022 190.006C23.9792 190.006 26.3195 192.941 26.4229 198.811ZM49.8901 207.422L34.6461 207.422L34.6461 196.755C34.7237 191.402 37.3484 188.726 42.5203 188.726C44.8217 188.726 46.6319 189.501 47.9507 191.053C49.2437 192.579 49.8901 194.712 49.8901 197.453L49.8901 207.422ZM46.4375 192.339C45.5478 191.292 44.3241 190.712 42.5203 190.712C40.2605 190.712 38.9059 191.292 38.0908 192.123C37.2653 192.965 36.6688 194.393 36.6321 196.77L36.6321 205.436L47.9042 205.436L47.9042 197.453C47.9042 195.01 47.3291 193.393 46.4375 192.339ZM32.5903 163.674L29.7975 163.674C24.2378 163.674 19.3504 162.679 15.1354 160.688C10.8945 158.671 7.64915 155.839 5.3994 152.193C3.12379 148.521 1.98598 144.332 1.98598 139.625C1.98598 134.919 3.12379 130.743 5.3994 127.096C7.64915 123.424 10.8945 120.593 15.1354 118.602C19.3504 116.585 24.2249 115.576 29.7588 115.576L32.28 115.576C37.8398 115.576 42.7142 116.559 46.9034 118.524C51.0926 120.489 54.325 123.308 56.6006 126.98C58.8762 130.626 60.014 134.815 60.014 139.548C60.014 144.228 58.8891 148.404 56.6394 152.076C54.3896 155.748 51.1831 158.593 47.0198 160.61C42.8306 162.627 38.0208 163.648 32.5903 163.674ZM58.2861 125.93C60.7777 129.922 62 134.483 62 139.548C62 144.561 60.7904 149.103 58.3328 153.114C55.8698 157.134 52.3644 160.227 47.8857 162.397L47.8813 162.399C43.3851 164.564 38.276 165.633 32.5998 165.66L32.5951 165.66L29.7975 165.66C24.0003 165.66 18.8136 164.622 14.2871 162.483L14.2824 162.481C9.73084 160.316 6.17967 157.239 3.70986 153.237C1.2232 149.223 -3.33861e-06 144.666 -3.55895e-06 139.625C-3.7792e-06 134.587 1.22226 130.041 3.71039 126.052C6.17939 122.025 9.73069 118.947 14.2849 116.807C18.8108 114.643 23.9852 113.59 29.7588 113.59L32.28 113.59C38.0734 113.59 43.2459 114.615 47.7469 116.726C52.257 118.842 55.7933 121.909 58.2861 125.93ZM17.316 147.032L17.3225 147.037C19.8727 148.824 23.848 149.871 29.5302 149.896C29.5317 149.896 29.5333 149.897 29.5348 149.897L32.28 149.896C37.8412 149.896 41.8716 148.868 44.5993 147.049C47.2004 145.315 48.486 142.899 48.486 139.548C48.486 136.256 47.2495 133.889 44.774 132.188C42.1632 130.412 38.1495 129.38 32.4698 129.354C32.4682 129.354 32.4667 129.354 32.4652 129.354L29.72 129.354C23.984 129.354 19.9519 130.39 17.3483 132.184C14.8412 133.912 13.5916 136.308 13.5916 139.625C13.5916 142.919 14.8302 145.305 17.316 147.032ZM45.8949 130.549C48.9463 132.643 50.472 135.643 50.472 139.548C50.472 143.53 48.8816 146.581 45.7009 148.702C42.5203 150.822 38.0466 151.882 32.28 151.882L29.526 151.882C23.656 151.857 19.2082 150.783 16.1827 148.663C13.1313 146.543 11.6056 143.53 11.6056 139.625C11.6056 135.695 13.1442 132.669 16.2215 130.549C19.2987 128.428 23.7982 127.368 29.72 127.368L32.474 127.368C38.344 127.394 42.8176 128.454 45.8949 130.549ZM36.7485 64.8001L36.7485 87.1424L47.9041 87.1424L47.9041 60.9212L61.2242 60.9212L61.2242 102.751L0.775771 102.751L0.775769 60.9988L14.1734 60.9988L14.1734 87.1425L23.6612 87.1425L23.6612 64.8001L36.7485 64.8001ZM25.6471 89.1284L12.1874 89.1284L12.1874 62.9848L2.76175 62.9848L2.76176 100.765L59.2382 100.765L59.2382 62.9072L49.8901 62.9072L49.8901 89.1284L34.7625 89.1284L34.7625 66.7861L25.6471 66.7861L25.6471 89.1284ZM59.2382 17.5305L36.5856 32.0375L43.1021 38.0886L59.2382 38.0886L59.2382 49.7252L2.76175 49.7252L2.76175 38.0886L28.3624 38.0886L21.3416 32.9685L2.76175 18.5778L2.76175 4.26475L27.8581 24.3186L59.2382 3.68292L59.2382 17.5305ZM27.9715 21.867L61.2242 4.93757e-06L61.2242 18.617L39.816 32.327L43.882 36.1026L61.2242 36.1026L61.2242 51.7112L0.775768 51.7112L0.775768 36.1026L22.2687 36.1026L20.1482 34.5561L0.775767 19.5516L0.775766 0.135647L27.9715 21.867Z" fill="#145B2C"/>
</svg>
