<svg width="62" height="357" viewBox="0 0 62 357" fill="none" xmlns="http://www.w3.org/2000/svg">
<mask id="path-1-inside-1" fill="white">
<path fill-rule="evenodd" clip-rule="evenodd" d="M59.0216 313.557L47.4276 317.46L47.4275 337.789L59.0216 341.653L59.0216 353.982L2.75166 333.035L2.75166 322.291L59.0216 301.229L59.0216 313.557ZM49.4062 336.363L61.0004 340.227L61.0004 356.83L0.772941 334.41L0.772941 320.919L61.0003 298.375L61.0003 314.979L49.4063 318.882L49.4062 336.363ZM38.0363 320.591L16.9738 327.663L38.0363 334.658L38.0363 320.591ZM36.0576 331.916L36.0576 323.343L23.2207 327.653L36.0576 331.916ZM2.75166 283.303L42.7126 275.69L2.75166 266.414L2.75166 256.598L42.7899 247.361L2.75166 239.786L2.75166 228.231L59.0216 240.714L59.0216 252.386L21.3795 261.544L59.0216 270.704L59.0216 282.375L2.75166 294.858L2.75166 283.303ZM29.7487 261.544L61.0003 253.94L61.0003 239.126L0.772936 225.765L0.772937 241.426L33.1574 247.553L0.772938 255.024L0.772938 267.986L33.1401 275.499L0.772939 281.665L0.77294 297.324L61.0003 283.963L61.0003 269.149L29.7487 261.544ZM59.0216 181.629L47.4276 185.532L47.4276 205.86L59.0216 209.725L59.0216 222.054L2.75166 201.107L2.75166 190.363L59.0216 169.3L59.0216 181.629ZM49.4063 204.434L61.0003 208.299L61.0003 224.902L0.772935 202.482L0.772935 188.991L61.0003 166.447L61.0003 183.05L49.4063 186.954L49.4063 204.434ZM38.0363 188.663L16.9737 195.735L38.0363 202.73L38.0363 188.663ZM36.0576 199.988L36.0576 191.414L23.2207 195.725L36.0576 199.988ZM59.0216 126.331L38.4228 136.882L38.4228 146.118L59.0216 146.118L59.0216 157.713L2.75166 157.713L2.75166 136.804C2.75166 130.157 4.23312 125.03 7.19608 121.423C10.159 117.816 14.3457 116.013 19.7563 116.013C23.5952 116.013 26.8029 116.85 29.3794 118.525C31.4626 119.871 33.202 121.794 34.5978 124.292C34.9111 124.852 35.207 125.442 35.4856 126.061L58.4806 113.887L59.0216 113.887L59.0216 126.331ZM36.3469 123.366L57.9891 111.908L61.0003 111.908L61.0003 127.541L40.4015 138.092L40.4015 144.139L61.0003 144.139L61.0003 159.692L0.772934 159.692L0.772933 136.804C0.772932 129.89 2.31186 124.252 5.66704 120.167C9.06795 116.027 13.8589 114.034 19.7563 114.034C23.8807 114.034 27.4854 114.935 30.4537 116.863C32.8622 118.42 34.816 120.614 36.3469 123.366ZM15.8162 131.292L15.8102 131.298C14.8136 132.278 14.1216 133.972 14.1216 136.804L14.1216 144.139L27.0528 144.139L27.0528 136.766C27.0528 134.183 26.4064 132.471 25.3778 131.348C24.3285 130.23 22.847 129.585 20.6839 129.585C18.4243 129.585 16.8881 130.22 15.8222 131.286L15.8162 131.292ZM29.0316 146.118L12.1429 146.118L12.1429 136.804C12.1429 133.687 12.9029 131.381 14.423 129.887C15.9432 128.366 18.0301 127.607 20.6839 127.607C23.2861 127.607 25.3344 128.405 26.8287 130.003C28.2973 131.6 29.0316 133.855 29.0316 136.766L29.0316 146.118ZM40.8111 17.3568L40.8047 17.3653C39.8428 18.6198 38.6892 21.1177 37.4085 25.1127L37.4068 25.1186L37.405 25.1239C36.0731 29.1981 34.7425 32.5032 33.4018 34.9931L33.4004 34.9951C29.7012 41.8415 24.4701 45.6182 17.708 45.6182C14.2726 45.6182 11.1601 44.6486 8.43871 42.6963L8.43555 42.6937C5.6956 40.7202 3.61963 37.9441 2.16358 34.4721L2.1614 34.4668C0.70798 30.973 -1.44128e-05 27.1026 -1.45971e-05 22.886C-1.47834e-05 18.6251 0.778896 14.7528 2.38607 11.3104C3.96897 7.86417 6.25005 5.13023 9.24194 3.18251C12.2381 1.20643 15.6343 0.230891 19.3698 0.230891L21.3486 0.230891L21.3486 15.7823L19.3698 15.7823C17.2422 15.7823 15.8378 16.4314 14.8702 17.5401L14.8644 17.5467L14.8585 17.5533C13.8363 18.7029 13.194 20.4541 13.194 23.0792C13.194 25.6582 13.748 27.375 14.5991 28.4798L14.6054 28.4884L14.6116 28.4963C15.4252 29.5754 16.4134 30.0661 17.7467 30.0661C18.7759 30.0661 19.748 29.6077 20.7027 28.1982C21.7818 26.5783 22.8724 24.0739 23.9297 20.5742C25.9535 13.8472 28.5309 8.69325 31.7882 5.35052C35.1145 1.93657 39.2918 0.23089 44.1812 0.23089C49.6316 0.23089 54.0586 2.33364 57.2383 6.54371L57.2437 6.55095C60.3336 10.6805 61.7733 16.1029 61.7733 22.6155C61.7733 27.1877 60.9419 31.4063 59.2469 35.2411L59.2445 35.2464L59.242 35.2523C57.5206 39.0838 55.1268 42.1112 52.0209 44.2305L52.0157 44.2338L52.0104 44.2377C48.8967 46.3325 45.3093 47.3568 41.3213 47.3568L39.3426 47.3568L39.3425 31.7671L41.3213 31.7671C44.0191 31.7671 45.7144 30.9776 46.7892 29.6934C47.9206 28.3413 48.6565 26.0981 48.6565 22.6155C48.6565 20.1006 48.1486 18.4127 47.3715 17.3231C46.6321 16.3192 45.6695 15.8213 44.2585 15.8213C42.5963 15.8213 41.5495 16.372 40.8174 17.3482L40.8111 17.3568ZM48.9734 16.161C50.0813 17.707 50.6352 19.8585 50.6352 22.6155C50.6352 30.0358 47.5306 33.7459 41.3213 33.7459L41.3213 45.3781C41.996 45.3781 42.6555 45.3465 43.3 45.2825C46.1257 45.0015 48.6609 44.1065 50.9058 42.596C53.6626 40.7149 55.8397 37.9968 57.4371 34.4411C59.0087 30.886 59.7946 26.9437 59.7946 22.6155C59.7946 16.3799 58.4161 11.4206 55.6593 7.73621C52.8768 4.05182 49.0507 2.20961 44.1812 2.20961C39.8012 2.20961 36.1426 3.71675 33.2055 6.73167C30.2683 9.74592 27.8078 14.5509 25.8238 21.1467C24.7417 24.7282 23.5823 27.4463 22.3456 29.301C21.1089 31.1307 19.576 32.0448 17.7467 32.0448C15.7886 32.0448 14.2169 31.2593 13.0317 29.6875C11.8208 28.1157 11.2153 25.9134 11.2153 23.0792C11.2153 20.1421 11.9368 17.862 13.3796 16.2388C14.7966 14.6156 16.7933 13.8036 19.3698 13.8036L19.3698 2.20961C18.6959 2.20961 18.0363 2.24457 17.3911 2.31448C14.8052 2.59414 12.4503 3.43577 10.3265 4.83737C7.67268 6.56413 5.6244 8.99863 4.18158 12.1422C2.713 15.285 1.97871 18.8665 1.97871 22.886C1.97871 26.879 2.64859 30.4863 3.98835 33.707C5.32811 36.9019 7.19608 39.3621 9.59218 41.0883C11.9625 42.7893 14.6678 43.6395 17.708 43.6395C23.5566 43.6395 28.2071 40.4445 31.6596 34.0546C32.9221 31.7104 34.2103 28.528 35.5243 24.5092C36.8125 20.4897 38.0492 17.707 39.2344 16.161C40.3938 14.6156 42.0685 13.8425 44.2585 13.8425C46.2681 13.8425 47.8398 14.6156 48.9734 16.161Z"/>
</mask>
<path fill-rule="evenodd" clip-rule="evenodd" d="M59.0216 313.557L47.4276 317.46L47.4275 337.789L59.0216 341.653L59.0216 353.982L2.75166 333.035L2.75166 322.291L59.0216 301.229L59.0216 313.557ZM49.4062 336.363L61.0004 340.227L61.0004 356.83L0.772941 334.41L0.772941 320.919L61.0003 298.375L61.0003 314.979L49.4063 318.882L49.4062 336.363ZM38.0363 320.591L16.9738 327.663L38.0363 334.658L38.0363 320.591ZM36.0576 331.916L36.0576 323.343L23.2207 327.653L36.0576 331.916ZM2.75166 283.303L42.7126 275.69L2.75166 266.414L2.75166 256.598L42.7899 247.361L2.75166 239.786L2.75166 228.231L59.0216 240.714L59.0216 252.386L21.3795 261.544L59.0216 270.704L59.0216 282.375L2.75166 294.858L2.75166 283.303ZM29.7487 261.544L61.0003 253.94L61.0003 239.126L0.772936 225.765L0.772937 241.426L33.1574 247.553L0.772938 255.024L0.772938 267.986L33.1401 275.499L0.772939 281.665L0.77294 297.324L61.0003 283.963L61.0003 269.149L29.7487 261.544ZM59.0216 181.629L47.4276 185.532L47.4276 205.86L59.0216 209.725L59.0216 222.054L2.75166 201.107L2.75166 190.363L59.0216 169.3L59.0216 181.629ZM49.4063 204.434L61.0003 208.299L61.0003 224.902L0.772935 202.482L0.772935 188.991L61.0003 166.447L61.0003 183.05L49.4063 186.954L49.4063 204.434ZM38.0363 188.663L16.9737 195.735L38.0363 202.73L38.0363 188.663ZM36.0576 199.988L36.0576 191.414L23.2207 195.725L36.0576 199.988ZM59.0216 126.331L38.4228 136.882L38.4228 146.118L59.0216 146.118L59.0216 157.713L2.75166 157.713L2.75166 136.804C2.75166 130.157 4.23312 125.03 7.19608 121.423C10.159 117.816 14.3457 116.013 19.7563 116.013C23.5952 116.013 26.8029 116.85 29.3794 118.525C31.4626 119.871 33.202 121.794 34.5978 124.292C34.9111 124.852 35.207 125.442 35.4856 126.061L58.4806 113.887L59.0216 113.887L59.0216 126.331ZM36.3469 123.366L57.9891 111.908L61.0003 111.908L61.0003 127.541L40.4015 138.092L40.4015 144.139L61.0003 144.139L61.0003 159.692L0.772934 159.692L0.772933 136.804C0.772932 129.89 2.31186 124.252 5.66704 120.167C9.06795 116.027 13.8589 114.034 19.7563 114.034C23.8807 114.034 27.4854 114.935 30.4537 116.863C32.8622 118.42 34.816 120.614 36.3469 123.366ZM15.8162 131.292L15.8102 131.298C14.8136 132.278 14.1216 133.972 14.1216 136.804L14.1216 144.139L27.0528 144.139L27.0528 136.766C27.0528 134.183 26.4064 132.471 25.3778 131.348C24.3285 130.23 22.847 129.585 20.6839 129.585C18.4243 129.585 16.8881 130.22 15.8222 131.286L15.8162 131.292ZM29.0316 146.118L12.1429 146.118L12.1429 136.804C12.1429 133.687 12.9029 131.381 14.423 129.887C15.9432 128.366 18.0301 127.607 20.6839 127.607C23.2861 127.607 25.3344 128.405 26.8287 130.003C28.2973 131.6 29.0316 133.855 29.0316 136.766L29.0316 146.118ZM40.8111 17.3568L40.8047 17.3653C39.8428 18.6198 38.6892 21.1177 37.4085 25.1127L37.4068 25.1186L37.405 25.1239C36.0731 29.1981 34.7425 32.5032 33.4018 34.9931L33.4004 34.9951C29.7012 41.8415 24.4701 45.6182 17.708 45.6182C14.2726 45.6182 11.1601 44.6486 8.43871 42.6963L8.43555 42.6937C5.6956 40.7202 3.61963 37.9441 2.16358 34.4721L2.1614 34.4668C0.70798 30.973 -1.44128e-05 27.1026 -1.45971e-05 22.886C-1.47834e-05 18.6251 0.778896 14.7528 2.38607 11.3104C3.96897 7.86417 6.25005 5.13023 9.24194 3.18251C12.2381 1.20643 15.6343 0.230891 19.3698 0.230891L21.3486 0.230891L21.3486 15.7823L19.3698 15.7823C17.2422 15.7823 15.8378 16.4314 14.8702 17.5401L14.8644 17.5467L14.8585 17.5533C13.8363 18.7029 13.194 20.4541 13.194 23.0792C13.194 25.6582 13.748 27.375 14.5991 28.4798L14.6054 28.4884L14.6116 28.4963C15.4252 29.5754 16.4134 30.0661 17.7467 30.0661C18.7759 30.0661 19.748 29.6077 20.7027 28.1982C21.7818 26.5783 22.8724 24.0739 23.9297 20.5742C25.9535 13.8472 28.5309 8.69325 31.7882 5.35052C35.1145 1.93657 39.2918 0.23089 44.1812 0.23089C49.6316 0.23089 54.0586 2.33364 57.2383 6.54371L57.2437 6.55095C60.3336 10.6805 61.7733 16.1029 61.7733 22.6155C61.7733 27.1877 60.9419 31.4063 59.2469 35.2411L59.2445 35.2464L59.242 35.2523C57.5206 39.0838 55.1268 42.1112 52.0209 44.2305L52.0157 44.2338L52.0104 44.2377C48.8967 46.3325 45.3093 47.3568 41.3213 47.3568L39.3426 47.3568L39.3425 31.7671L41.3213 31.7671C44.0191 31.7671 45.7144 30.9776 46.7892 29.6934C47.9206 28.3413 48.6565 26.0981 48.6565 22.6155C48.6565 20.1006 48.1486 18.4127 47.3715 17.3231C46.6321 16.3192 45.6695 15.8213 44.2585 15.8213C42.5963 15.8213 41.5495 16.372 40.8174 17.3482L40.8111 17.3568ZM48.9734 16.161C50.0813 17.707 50.6352 19.8585 50.6352 22.6155C50.6352 30.0358 47.5306 33.7459 41.3213 33.7459L41.3213 45.3781C41.996 45.3781 42.6555 45.3465 43.3 45.2825C46.1257 45.0015 48.6609 44.1065 50.9058 42.596C53.6626 40.7149 55.8397 37.9968 57.4371 34.4411C59.0087 30.886 59.7946 26.9437 59.7946 22.6155C59.7946 16.3799 58.4161 11.4206 55.6593 7.73621C52.8768 4.05182 49.0507 2.20961 44.1812 2.20961C39.8012 2.20961 36.1426 3.71675 33.2055 6.73167C30.2683 9.74592 27.8078 14.5509 25.8238 21.1467C24.7417 24.7282 23.5823 27.4463 22.3456 29.301C21.1089 31.1307 19.576 32.0448 17.7467 32.0448C15.7886 32.0448 14.2169 31.2593 13.0317 29.6875C11.8208 28.1157 11.2153 25.9134 11.2153 23.0792C11.2153 20.1421 11.9368 17.862 13.3796 16.2388C14.7966 14.6156 16.7933 13.8036 19.3698 13.8036L19.3698 2.20961C18.6959 2.20961 18.0363 2.24457 17.3911 2.31448C14.8052 2.59414 12.4503 3.43577 10.3265 4.83737C7.67268 6.56413 5.6244 8.99863 4.18158 12.1422C2.713 15.285 1.97871 18.8665 1.97871 22.886C1.97871 26.879 2.64859 30.4863 3.98835 33.707C5.32811 36.9019 7.19608 39.3621 9.59218 41.0883C11.9625 42.7893 14.6678 43.6395 17.708 43.6395C23.5566 43.6395 28.2071 40.4445 31.6596 34.0546C32.9221 31.7104 34.2103 28.528 35.5243 24.5092C36.8125 20.4897 38.0492 17.707 39.2344 16.161C40.3938 14.6156 42.0685 13.8425 44.2585 13.8425C46.2681 13.8425 47.8398 14.6156 48.9734 16.161Z" stroke="#145B2C" stroke-width="6" mask="url(#path-1-inside-1)"/>
<path d="M49.1382 87.3936L49.1382 80.7392C49.1382 80.2716 49.0888 79.7841 48.9598 79.3C48.4036 77.2111 47.5545 75.4626 46.6677 74.1302C45.7966 72.821 44.8418 71.8422 44.0304 71.3686L43.9986 71.3501L43.9656 71.3343C32.7842 65.8796 21.8172 69.0476 17.6577 71.3587L17.5987 71.3917L17.5446 71.4319C14.068 74.0392 12.9851 78.2533 12.8638 80.0724L12.8616 80.1053L12.8616 87.3936L49.1382 87.3936Z" stroke="#145B2C" stroke-width="2"/>
<path d="M1.32344 80.7273L1.32344 100.915L60.0212 100.915L60.0212 80.3962C60.0212 72.4529 54.018 63.8488 50.0159 60.8702C33.6696 50.9416 18.2213 56.7881 11.9958 60.8702C3.1911 67.2245 1.21228 76.7554 1.32344 80.7273Z" stroke="#145B2C" stroke-width="2"/>
</svg>
