<svg width="92" height="564" viewBox="0 0 92 564" fill="none" xmlns="http://www.w3.org/2000/svg">
<path fill-rule="evenodd" clip-rule="evenodd" d="M92 539.433L92 563.011L0.6875 563.011L0.687498 526.73C0.687498 519.958 1.92724 513.872 4.50124 508.551C7.07845 503.184 10.8001 498.979 15.6673 496.039C20.477 493.111 25.9274 491.679 31.9297 491.679C41.0608 491.679 48.5451 494.859 54.0275 501.358L54.0287 501.359C59.429 507.77 61.9414 516.451 61.9414 527.023L61.9414 539.433L92 539.433ZM58.9414 542.433L58.9414 527.023C58.9414 516.906 56.5391 508.995 51.7344 503.292C46.8906 497.55 40.2891 494.679 31.9297 494.679C26.4219 494.679 21.5195 495.988 17.2227 498.605C12.8867 501.222 9.54687 504.972 7.20312 509.855C4.85937 514.698 3.6875 520.323 3.6875 526.73L3.6875 560.011L89 560.011L89 542.433L58.9414 542.433ZM39.1876 518.126L39.1796 518.117C37.6911 516.443 35.4691 515.433 32.0469 515.433C28.4961 515.433 25.9064 516.457 23.9816 518.294C22.1089 520.082 20.9975 522.641 20.9258 526.348L20.9258 539.433L41.7031 539.433L41.7031 526.73C41.7031 522.511 40.7089 519.811 39.1956 518.135L39.1876 518.126ZM44.7031 542.433L17.9258 542.433L17.9258 526.32C18.0039 521.984 19.332 518.585 21.9102 516.124C24.4883 513.663 27.8672 512.433 32.0469 512.433C36.1094 512.433 39.2344 513.663 41.4219 516.124C43.6094 518.546 44.7031 522.081 44.7031 526.73L44.7031 542.433ZM89 425.372L57.7695 441.368L57.7695 455.372L89 455.372L89 472.95L3.6875 472.95L3.68749 441.251C3.68749 431.173 5.93359 423.399 10.4258 417.931C14.918 412.462 21.2656 409.727 29.4687 409.727C35.2891 409.727 40.1523 410.997 44.0586 413.536C47.217 415.578 49.8542 418.492 51.9704 422.28C52.4453 423.13 52.894 424.024 53.3164 424.962L88.1797 406.505L89 406.505L89 425.372ZM54.6223 420.876L87.4346 403.505L92 403.505L92 427.206L60.7695 443.202L60.7695 452.372L92 452.372L92 475.95L0.687496 475.95L0.687495 441.251C0.687494 430.767 3.02072 422.219 8.10759 416.026C13.2638 409.749 20.5275 406.727 29.4687 406.727C35.7236 406.727 41.19 408.094 45.6909 411.019C49.3409 413.379 52.3019 416.705 54.6223 420.876ZM23.4951 432.893L23.4859 432.902C21.975 434.387 20.9258 436.956 20.9258 441.251L20.9258 452.372L40.5312 452.372L40.5312 441.192C40.5312 437.276 39.5511 434.68 37.9917 432.978C36.4008 431.283 34.1546 430.306 30.875 430.306C27.4494 430.306 25.1202 431.268 23.5041 432.884L23.4951 432.893ZM40.1914 430.938C42.418 433.36 43.5312 436.778 43.5312 441.192L43.5312 455.372L17.9258 455.372L17.9258 441.251C17.9258 436.524 19.0781 433.028 21.3828 430.763C23.6875 428.458 26.8516 427.306 30.875 427.306C34.8203 427.306 37.9258 428.516 40.1914 430.938ZM55.0273 332.381L55.0273 366.131L71.8789 366.131L71.8789 326.522L92 326.522L92 389.709L0.687492 389.709L0.68749 326.639L20.9258 326.639L20.9258 366.131L35.2578 366.131L35.2578 332.381L55.0273 332.381ZM38.2578 369.131L17.9258 369.131L17.9258 329.639L3.68749 329.639L3.68749 386.709L89 386.709L89 329.522L74.8789 329.522L74.8789 369.131L52.0273 369.131L52.0273 335.381L38.2578 335.381L38.2578 369.131ZM89 268.887L89 287.227L3.68749 316.816L3.68749 297.305L67.8476 278.086L3.68749 258.75L3.68749 239.18L89 268.887ZM57.4219 278.077L0.687487 260.979L0.687486 234.958L92 266.755L92 289.361L0.687489 321.032L0.687488 295.072L57.4219 278.077ZM92 199.802L92 223.381L0.687485 223.381L0.687484 199.802L92 199.802ZM55.0273 122.527L55.0273 156.277L71.8789 156.277L71.8789 116.667L92 116.667L92 179.855L0.687483 179.855L0.68748 116.784L20.9258 116.784L20.9258 156.277L35.2578 156.277L35.2578 122.527L55.0273 122.527ZM38.2578 159.277L17.9258 159.277L17.9258 119.784L3.68748 119.784L3.68748 176.855L89 176.855L89 119.667L74.8789 119.667L74.8789 159.277L52.0273 159.277L52.0273 125.527L38.2578 125.527L38.2578 159.277ZM3.68748 87.8016L64.2734 76.2586L3.68748 62.1961L3.68748 47.3133L64.3906 33.3094L3.68748 21.825L3.68748 4.30548L89 23.2313L89 40.9266L31.9297 54.8133L89 68.7L89 86.3953L3.68748 105.321L3.68748 87.8016ZM44.6184 54.8133L92 43.2841L92 20.8238L0.687475 0.567017L0.687476 24.3107L49.7866 33.5997L0.687477 44.9266L0.687478 64.5795L49.7603 75.9697L0.687479 85.3192L0.68748 109.06L92 88.8027L92 66.3425L44.6184 54.8133ZM89 202.802L3.68748 202.802L3.68749 220.381L89 220.381L89 202.802Z" fill="#145B2C"/>
</svg>
