<svg width="62" height="464" viewBox="0 0 62 464" fill="none" xmlns="http://www.w3.org/2000/svg">
<path fill-rule="evenodd" clip-rule="evenodd" d="M59.2382 430.32L38.5638 440.909L38.5638 450.18L59.2382 450.18L59.2382 461.816L2.76176 461.816L2.76176 440.832C2.76176 434.16 4.24866 429.014 7.22247 425.394C10.1963 421.773 14.3984 419.963 19.8288 419.963C23.6818 419.963 26.9013 420.804 29.4872 422.484C31.5781 423.836 33.3239 425.766 34.7248 428.273C35.0392 428.836 35.3362 429.427 35.6159 430.048L58.6952 417.83L59.2382 417.83L59.2382 430.32ZM36.4803 427.343L58.2019 415.844L61.2242 415.844L61.2242 431.534L40.5498 442.123L40.5498 448.194L61.2242 448.194L61.2242 463.802L0.775776 463.802L0.775775 440.832C0.775774 433.891 2.32036 428.233 5.68785 424.133C9.10122 419.978 13.9098 417.977 19.8288 417.977C23.9688 417.977 27.5869 418.882 30.5662 420.817C32.9832 422.38 34.9439 424.581 36.4803 427.343ZM15.8743 435.299L15.8682 435.305C14.868 436.288 14.1734 437.989 14.1734 440.832L14.1734 448.194L27.1522 448.194L27.1522 440.793C27.1522 438.2 26.5033 436.482 25.4709 435.355C24.4178 434.233 22.9309 433.586 20.7598 433.586C18.492 433.586 16.9501 434.223 15.8803 435.293L15.8743 435.299ZM29.1381 450.18L12.1874 450.18L12.1874 440.832C12.1874 437.703 12.9503 435.388 14.476 433.888C16.0017 432.363 18.0963 431.6 20.7598 431.6C23.3715 431.6 25.4273 432.401 26.9272 434.005C28.4012 435.608 29.1381 437.871 29.1381 440.793L29.1381 450.18ZM36.7485 368.76L36.7485 391.103L47.9042 391.103L47.9042 364.882L61.2242 364.882L61.2242 406.711L0.775773 406.711L0.775771 364.959L14.1734 364.959L14.1734 391.103L23.6612 391.103L23.6612 368.76L36.7485 368.76ZM25.6471 393.089L12.1874 393.089L12.1874 366.945L2.76176 366.945L2.76176 404.725L59.2382 404.725L59.2382 366.868L49.8901 366.868L49.8901 393.089L34.7625 393.089L34.7625 370.746L25.6471 370.746L25.6471 393.089ZM38.4397 307.215L40.569 307.369C47.093 307.841 52.3973 310.286 56.2814 314.802C60.1533 319.278 62 325.103 62 332.08C62 339.816 59.3764 346.102 54.0135 350.694L54.0092 350.698L54.0049 350.702C48.6556 355.23 41.4508 357.378 32.6291 357.378L29.1769 357.378C23.5129 357.378 18.4354 356.38 13.9914 354.324C9.53713 352.264 6.05799 349.289 3.63633 345.388C1.19325 341.468 -5.54458e-06 336.957 -5.76454e-06 331.925C-6.06539e-06 325.042 1.85183 319.291 5.72906 314.868C9.61616 310.433 15.0223 307.956 21.729 307.296L23.9094 307.081L23.9094 322.746L22.0779 322.889C18.6758 323.154 16.6165 324.083 15.4673 325.323L15.4571 325.334L15.4466 325.345C14.2842 326.562 13.514 328.621 13.514 331.925C13.514 335.259 14.6728 337.509 16.8486 339.02C19.1248 340.594 22.9431 341.563 28.6424 341.614L32.9006 341.614C38.8848 341.614 42.8664 340.699 45.1938 339.186C47.3462 337.761 48.5248 335.531 48.5248 332.08C48.5248 328.743 47.7636 326.646 46.611 325.401C45.4161 324.113 43.4247 323.204 40.2768 322.967L38.4397 322.829L38.4397 307.215ZM48.0671 324.051C49.6962 325.809 50.5108 328.486 50.5108 332.08C50.5108 336.062 49.1014 338.985 46.2828 340.846C43.4641 342.682 39.0034 343.6 32.9006 343.6L28.6339 343.6C22.7897 343.549 18.4841 342.566 15.7172 340.652C12.9244 338.713 11.528 335.804 11.528 331.925C11.528 328.356 12.3555 325.706 14.0105 323.973C15.6396 322.215 18.2773 321.193 21.9234 320.909L21.9234 309.272C21.2451 309.339 20.5831 309.425 19.9374 309.531C14.5765 310.407 10.3382 312.623 7.22247 316.177C3.73148 320.159 1.98598 325.408 1.98598 331.925C1.98598 336.631 3.09793 340.769 5.32182 344.337C7.51985 347.88 10.6876 350.608 14.8251 352.522C18.9625 354.435 23.7465 355.392 29.1769 355.392L32.6291 355.392C41.1368 355.392 47.8343 353.323 52.7217 349.186C57.5832 345.023 60.014 339.321 60.014 332.08C60.014 325.46 58.2685 320.133 54.7775 316.099C51.6761 312.492 47.5541 310.314 42.4117 309.565C41.7658 309.471 41.1038 309.399 40.4257 309.35L40.4257 320.987C43.8649 321.245 46.4121 322.267 48.0671 324.051ZM36.7485 259.388L36.7485 281.731L47.9041 281.731L47.9041 255.51L61.2242 255.51L61.2242 297.339L0.775769 297.339L0.775767 255.587L14.1734 255.587L14.1734 281.731L23.6612 281.731L23.6612 259.388L36.7485 259.388ZM25.6471 283.717L12.1874 283.717L12.1874 257.573L2.76175 257.573L2.76175 295.353L59.2382 295.353L59.2382 257.496L49.8901 257.496L49.8901 283.717L34.7625 283.717L34.7625 261.374L25.6471 261.374L25.6471 283.717ZM61.2242 196.402L61.2242 211.139L29.1518 230.691L61.2242 230.691L61.2242 246.3L0.775766 246.3L0.775766 231.561L32.9234 211.971L0.775765 211.971L0.775764 196.402L61.2242 196.402ZM39.999 209.985L2.76175 232.677L2.76175 244.314L59.2382 244.314L59.2382 232.677L22.0786 232.677L59.2382 210.024L59.2382 198.388L2.76175 198.388L2.76175 209.985L39.999 209.985ZM38.4397 135.399L40.569 135.553C47.0941 136.025 52.3991 138.471 56.2834 142.989C60.1539 147.464 62 153.289 62 160.264C62 168 59.3764 174.286 54.0135 178.879L54.0092 178.882L54.0049 178.886C48.6556 183.415 41.4508 185.562 32.6291 185.562L29.1769 185.562C23.5129 185.562 18.4354 184.564 13.9914 182.509C9.53585 180.448 6.05599 177.472 3.63425 173.569C1.19257 169.649 -1.30549e-05 165.14 -1.32748e-05 160.109C-1.35757e-05 153.227 1.85182 147.475 5.72905 143.052C9.61615 138.618 15.0223 136.14 21.729 135.48L23.9094 135.266L23.9094 150.93L22.0779 151.073C18.6757 151.339 16.6165 152.267 15.4673 153.507L15.457 153.518L15.4466 153.529C14.2842 154.746 13.514 156.806 13.514 160.109C13.514 163.443 14.6728 165.693 16.8486 167.205C19.1248 168.778 22.9431 169.747 28.6424 169.799L32.9006 169.799C38.8848 169.799 42.8663 168.883 45.1937 167.37C47.3461 165.946 48.5248 163.715 48.5248 160.264C48.5248 156.926 47.7633 154.829 46.6102 153.585C45.4153 152.297 43.424 151.388 40.2768 151.151L38.4397 151.013L38.4397 135.399ZM48.0671 152.235C49.6962 153.994 50.5107 156.67 50.5107 160.264C50.5107 164.247 49.1014 167.169 46.2828 169.031C43.4641 170.867 39.0034 171.785 32.9006 171.785L28.6339 171.785C22.7897 171.733 18.4841 170.75 15.7172 168.837C12.9244 166.897 11.528 163.988 11.528 160.109C11.528 156.541 12.3555 153.89 14.0105 152.158C15.6396 150.399 18.2773 149.378 21.9234 149.093L21.9234 137.457C21.2451 137.523 20.5831 137.61 19.9374 137.715C14.5765 138.592 10.3382 140.807 7.22246 144.361C3.73147 148.343 1.98597 153.593 1.98597 160.109C1.98597 164.816 3.09792 168.953 5.32181 172.522C7.51984 176.064 10.6876 178.793 14.8251 180.706C18.9625 182.62 23.7465 183.577 29.1769 183.577L32.6291 183.577C41.1368 183.577 47.8343 181.508 52.7217 177.37C57.5832 173.207 60.014 167.505 60.014 160.264C60.014 153.644 58.2685 148.317 54.7775 144.283C51.6761 140.677 47.5541 138.498 42.4116 137.749C41.7658 137.655 41.1038 137.583 40.4257 137.534L40.4257 149.171C43.8649 149.429 46.4121 150.451 48.0671 152.235ZM61.2242 109.178L61.2242 124.787L0.775761 124.787L0.77576 109.178L61.2242 109.178ZM36.7485 58.0218L36.7485 80.3641L47.9041 80.3641L47.9041 54.1429L61.2242 54.1429L61.2242 95.9728L0.77576 95.9728L0.775758 54.2205L14.1734 54.2205L14.1734 80.3641L23.6611 80.3641L23.6611 58.0218L36.7485 58.0218ZM25.6471 82.3501L12.1874 82.3501L12.1874 56.2065L2.76174 56.2065L2.76175 93.9868L59.2382 93.9868L59.2382 56.1289L49.8901 56.1289L49.8901 82.3501L34.7625 82.3501L34.7625 60.0078L25.6471 60.0078L25.6471 82.3501ZM40.9608 17.1888L40.9545 17.1971C39.989 18.4563 38.8312 20.9631 37.5459 24.9733L37.5441 24.9788L37.5423 24.9843C36.2055 29.0733 34.87 32.3905 33.5244 34.8895L33.523 34.892C29.8102 41.7636 24.5598 45.5535 17.773 45.5536C14.325 45.5536 11.2011 44.5806 8.46971 42.6212L8.46648 42.6189C5.7165 40.6377 3.63291 37.8518 2.17152 34.3669L2.16933 34.3617C0.710574 30.8551 -1.90945e-05 26.9703 -1.92795e-05 22.738C-1.94665e-05 18.4618 0.781754 14.5752 2.39482 11.1201C3.98353 7.66155 6.27298 4.9174 9.27587 2.96249C12.283 0.978766 15.6917 -4.98901e-06 19.4409 -5.15289e-06L21.4269 -5.2397e-06L21.4269 15.6086L19.4409 15.6086C17.3055 15.6086 15.8959 16.2601 14.9247 17.3724L14.9189 17.3792L14.913 17.3858C13.8871 18.5399 13.2425 20.2972 13.2425 22.9319C13.2425 25.5205 13.7984 27.2439 14.6527 28.3527L14.659 28.3609L14.6652 28.3691C15.4818 29.4519 16.4736 29.9449 17.8118 29.9449C18.8448 29.9449 19.8205 29.4849 20.7787 28.0701C21.8617 26.4437 22.9564 23.9302 24.0176 20.4181C26.0487 13.666 28.6357 8.49361 31.9049 5.13838C35.2433 1.71203 39.436 -6.02691e-06 44.3433 -6.24141e-06C49.8138 -6.48053e-06 54.257 2.11022 57.4484 6.3359L57.4537 6.34301C60.5551 10.4878 62 15.9299 62 22.4665C62 27.0558 61.1656 31.2899 59.4643 35.1388L59.4619 35.1443L59.4594 35.1497C57.7316 38.9955 55.3291 42.0341 52.2118 44.1609L52.2066 44.1644L52.2013 44.168C49.0761 46.2709 45.4756 47.299 41.473 47.299L39.487 47.299L39.487 31.6516L41.473 31.6516C44.1807 31.6516 45.8821 30.8595 46.961 29.5703C48.0965 28.2133 48.8351 25.9617 48.8351 22.4665C48.8351 19.9428 48.3253 18.2484 47.5454 17.1547C46.8033 16.1474 45.8372 15.6474 44.4209 15.6474C42.7526 15.6474 41.702 16.2006 40.9672 17.1804L40.9608 17.1888ZM49.1531 15.9887C50.2651 17.5403 50.8211 19.6995 50.8211 22.4665C50.8211 29.9139 47.705 33.6376 41.473 33.6376L41.473 45.3131C42.1501 45.3131 42.8121 45.2809 43.4589 45.2167C46.295 44.9352 48.8395 44.0363 51.0926 42.5203C53.8595 40.6325 56.0446 37.9044 57.6479 34.3358C59.2253 30.7673 60.014 26.8108 60.014 22.4665C60.014 16.2085 58.6305 11.2306 55.8636 7.53278C53.0708 3.83491 49.2307 1.98598 44.3433 1.98598C39.9473 1.98598 36.2753 3.49874 33.3273 6.52427C30.3794 9.54979 27.9098 14.3725 25.9187 20.9925C24.8326 24.5869 23.6689 27.3151 22.4277 29.1769C21.1864 31.0129 19.6478 31.9309 17.8118 31.9309C15.8465 31.9309 14.2691 31.1422 13.0796 29.5648C11.8642 27.9874 11.2565 25.7764 11.2565 22.9319C11.2565 19.984 11.9805 17.6954 13.4287 16.0663C14.8509 14.4372 16.855 13.6226 19.4409 13.6226L19.4409 1.98598C18.7645 1.98598 18.1025 2.02109 17.4549 2.0912C14.8595 2.37221 12.496 3.21631 10.3643 4.62362C7.70085 6.35619 5.64504 8.79988 4.19693 11.9547C2.72295 15.1095 1.98597 18.704 1.98597 22.738C1.98597 26.7462 2.65831 30.3664 4.00298 33.5988C5.34766 36.8054 7.22245 39.2749 9.62736 41.0075C12.0064 42.7142 14.7216 43.5676 17.773 43.5676C23.643 43.5676 28.3106 40.361 31.7758 33.9479C33.0429 31.5948 34.3358 28.4011 35.6546 24.3671C36.9476 20.3331 38.1888 17.5403 39.3784 15.9887C40.542 14.4372 42.2229 13.6614 44.4209 13.6614C46.4379 13.6614 48.0153 14.4372 49.1531 15.9887ZM59.2382 111.164L2.76175 111.164L2.76175 122.801L59.2382 122.801L59.2382 111.164Z" fill="white"/>
</svg>
