<svg width="62" height="382" viewBox="0 0 62 382" fill="none" xmlns="http://www.w3.org/2000/svg">
<path fill-rule="evenodd" clip-rule="evenodd" d="M62 365.883L62 381.892L0 381.892L-1.07681e-06 357.258C-1.2778e-06 352.659 0.841766 348.527 2.58948 344.915C4.33937 341.271 6.86632 338.415 10.1711 336.419C13.4368 334.431 17.1376 333.459 21.213 333.459C27.413 333.459 32.4947 335.618 36.2172 340.031L36.218 340.032C39.8847 344.384 41.5906 350.279 41.5906 357.457L41.5906 365.883L62 365.883ZM39.5536 367.92L39.5536 357.457C39.5536 350.587 37.9225 345.216 34.6602 341.344C31.3713 337.445 26.8889 335.496 21.213 335.496C17.4733 335.496 14.1447 336.384 11.2272 338.161C8.28311 339.938 6.0154 342.484 4.42402 345.8C2.83265 349.089 2.03696 352.908 2.03696 357.258L2.03696 379.855L59.963 379.855L59.963 367.92L39.5536 367.92ZM26.141 351.416L26.1357 351.41C25.1249 350.273 23.6163 349.587 21.2926 349.587C18.8817 349.587 17.1233 350.283 15.8164 351.53C14.5449 352.744 13.7903 354.482 13.7415 356.998L13.7415 365.883L27.8491 365.883L27.8491 357.258C27.8491 354.393 27.174 352.56 26.1465 351.422L26.141 351.416ZM29.886 367.92L11.7046 367.92L11.7046 356.979C11.7576 354.035 12.6594 351.728 14.4099 350.057C16.1604 348.386 18.4547 347.55 21.2926 347.55C24.051 347.55 26.1728 348.386 27.6581 350.057C29.1434 351.701 29.886 354.101 29.886 357.258L29.886 367.92ZM59.963 288.437L38.758 299.298L38.758 308.807L59.963 308.807L59.963 320.742L2.03696 320.742L2.03696 299.219C2.03696 292.376 3.56203 287.098 6.61216 283.384C9.6623 279.671 13.9723 277.815 19.5421 277.815C23.494 277.815 26.7961 278.677 29.4484 280.401C31.5929 281.787 33.3836 283.766 34.8204 286.338C35.1429 286.915 35.4475 287.522 35.7343 288.159L59.4061 275.626L59.963 275.626L59.963 288.437ZM36.621 285.384L58.9001 273.59L62 273.59L62 289.682L40.7949 300.544L40.7949 306.77L62 306.77L62 322.779L-2.58392e-06 322.779L-3.61378e-06 299.219C-3.92493e-06 292.1 1.58422 286.296 5.03815 282.092C8.53913 277.829 13.4711 275.778 19.5421 275.778C23.7891 275.778 27.5007 276.706 30.5567 278.692C33.035 280.294 35.0455 282.552 36.621 285.384ZM15.486 293.544L15.4798 293.55C14.4539 294.558 13.7415 296.303 13.7415 299.219L13.7415 306.77L27.0534 306.77L27.0534 299.179C27.0534 296.52 26.3879 294.757 25.329 293.602C24.2489 292.451 22.7237 291.787 20.4969 291.787C18.171 291.787 16.5895 292.44 15.4922 293.538L15.486 293.544ZM26.8226 292.217C28.3344 293.861 29.0903 296.182 29.0903 299.179L29.0903 308.807L11.7046 308.807L11.7046 299.219C11.7046 296.009 12.487 293.636 14.0518 292.097C15.6167 290.532 17.7651 289.75 20.4969 289.75C23.1757 289.75 25.2843 290.572 26.8226 292.217ZM36.896 225.298L36.896 248.213L48.338 248.213L48.338 221.319L62 221.319L62 264.223L-5.1435e-06 264.223L-7.01539e-06 221.399L13.7415 221.399L13.7415 248.213L23.4728 248.213L23.4728 225.298L36.896 225.298ZM25.5097 250.25L11.7046 250.25L11.7046 223.436L2.03695 223.436L2.03696 262.186L59.963 262.186L59.963 223.356L50.375 223.356L50.375 250.25L34.8591 250.25L34.8591 227.335L25.5097 227.335L25.5097 250.25ZM59.963 182.186L59.963 194.638L2.03695 214.729L2.03695 201.481L45.6009 188.432L2.03695 175.303L2.03695 162.015L59.963 182.186ZM38.5219 188.426L-8.96414e-06 176.817L-9.73643e-06 159.149L62 180.738L62 196.088L-7.1818e-06 217.592L-7.9523e-06 199.965L38.5219 188.426ZM62 135.278L62 151.288L-1.00801e-05 151.288L-1.07798e-05 135.278L62 135.278ZM36.896 82.809L36.896 105.725L48.338 105.725L48.338 78.8306L62 78.8306L62 121.734L-1.13719e-05 121.734L-1.32438e-05 78.9102L13.7415 78.9102L13.7415 105.725L23.4728 105.725L23.4728 82.809L36.896 82.809ZM25.5097 107.762L11.7046 107.762L11.7046 80.9471L2.03695 80.9471L2.03695 119.697L59.963 119.697L59.963 80.8676L50.375 80.8676L50.375 107.762L34.8591 107.762L34.8591 84.846L25.5097 84.846L25.5097 107.762ZM2.03695 59.2312L43.174 51.3937L2.03695 41.8454L2.03695 31.7402L43.2536 22.2317L2.03694 14.434L2.03694 2.53842L59.963 15.3888L59.963 27.4037L21.213 36.8326L59.963 46.2615L59.963 58.2764L2.03695 71.1267L2.03695 59.2312ZM29.8285 36.8326L62 29.0044L62 13.7542L-1.6693e-05 5.34971e-05L-1.59883e-05 16.1217L33.3376 22.4288L-1.53765e-05 30.1196L-1.47932e-05 43.4637L33.3198 51.1975L-1.41776e-05 57.5457L-1.3473e-05 73.6651L62 59.911L62 44.6607L29.8285 36.8326ZM59.963 137.315L2.03695 137.315L2.03695 149.251L59.963 149.251L59.963 137.315Z" fill="#145B2C"/>
</svg>
