<svg width="94" height="509" viewBox="0 0 94 509" fill="none" xmlns="http://www.w3.org/2000/svg">
<path fill-rule="evenodd" clip-rule="evenodd" d="M89 443.348L71.4219 449.266L71.4219 480.086L89 485.945L89 504.637L3.6875 472.879L3.6875 456.59L89 424.656L89 443.348ZM74.4219 477.924L92 483.783L92 508.955L0.687499 474.963L0.687498 454.51L92 420.33L92 445.503L74.4219 451.421L74.4219 477.924ZM57.1836 454.012L25.25 464.734L57.1836 475.34L57.1836 454.012ZM54.1836 471.182L54.1836 458.184L34.7212 464.719L54.1836 471.182ZM0.687493 340.572L59.8789 340.572C69.8946 340.572 78.131 343.744 84.2249 350.319C90.2996 356.833 93.1719 365.607 93.1719 376.267C93.1719 386.767 90.3813 395.46 84.4916 402.005C78.5621 408.593 70.4623 411.836 60.5616 411.962L60.5425 411.962L0.687496 411.962L0.687495 388.384L59.9961 388.384C65.165 388.384 68.2909 387.152 70.0742 385.326C71.946 383.33 73.0508 380.437 73.0508 376.267C73.0508 371.831 71.8927 369.009 70.0698 367.248C68.2228 365.463 65.1947 364.284 60.4415 364.209L0.687494 364.209L0.687493 340.572ZM60.4648 361.209C70.8555 361.365 76.0508 366.384 76.0508 376.267C76.0508 380.994 74.7812 384.705 72.2422 387.4C69.6641 390.056 65.582 391.384 59.9961 391.384L3.68749 391.384L3.6875 408.962L60.5234 408.962C69.7422 408.845 76.9883 405.857 82.2617 399.998C87.5352 394.138 90.1719 386.228 90.1719 376.267C90.1719 366.15 87.457 358.181 82.0273 352.361C76.5976 346.502 69.2148 343.572 59.8789 343.572L3.68749 343.572L3.68749 361.209L60.4648 361.209ZM20.9258 252.339L20.9258 278.472L92 278.472L92 302.05L20.9258 302.05L20.9258 327.831L0.687492 327.831L0.687489 252.339L20.9258 252.339ZM17.9258 299.05L89 299.05L89 281.472L17.9258 281.472L17.9258 255.339L3.68749 255.339L3.68749 324.831L17.9258 324.831L17.9258 299.05ZM55.0273 181.333L55.0273 215.083L71.8789 215.083L71.8789 175.473L92 175.473L92 238.661L0.687488 238.661L0.687485 175.591L20.9258 175.591L20.9258 215.083L35.2578 215.083L35.2578 181.333L55.0273 181.333ZM38.2578 218.083L17.9258 218.083L17.9258 178.591L3.68749 178.591L3.68749 235.661L89 235.661L89 178.473L74.8789 178.473L74.8789 218.083L52.0273 218.083L52.0273 184.333L38.2578 184.333L38.2578 218.083ZM0.687482 90.9906L59.8789 90.9906C69.8946 90.9906 78.131 94.1631 84.2249 100.737C90.2996 107.252 93.1719 116.025 93.1719 126.686C93.1719 137.186 90.3813 145.879 84.4916 152.423C78.5621 159.012 70.4623 162.255 60.5616 162.381L60.5425 162.381L0.687485 162.381L0.687484 138.803L59.9961 138.803C65.165 138.803 68.2909 137.571 70.0742 135.745C71.946 133.748 73.0508 130.856 73.0508 126.686C73.0508 122.25 71.8927 119.428 70.0698 117.667C68.2228 115.882 65.1947 114.702 60.4415 114.627L0.687483 114.627L0.687482 90.9906ZM60.4648 111.627C70.8555 111.784 76.0508 116.803 76.0508 126.686C76.0508 131.413 74.7812 135.123 72.2422 137.819C69.664 140.475 65.582 141.803 59.9961 141.803L3.68748 141.803L3.68748 159.381L60.5234 159.381C69.7422 159.264 76.9883 156.276 82.2617 150.416C87.5351 144.557 90.1719 136.647 90.1719 126.686C90.1719 116.569 87.457 108.6 82.0273 102.78C76.5976 96.9203 69.2148 93.9906 59.8789 93.9906L3.68748 93.9906L3.68748 111.627L60.4648 111.627ZM89 22.3984L57.7695 38.3945L57.7695 52.3984L89 52.3984L89 69.9766L3.68748 69.9766L3.68748 38.2773C3.68748 28.1992 5.93357 20.4258 10.4258 14.957C14.9179 9.48828 21.2656 6.75391 29.4687 6.7539C35.289 6.7539 40.1523 8.02344 44.0586 10.5625C47.2169 12.6042 49.8542 15.5189 51.9704 19.3064C52.4453 20.1564 52.894 21.0504 53.3164 21.9883L88.1797 3.53125L89 3.53125L89 22.3984ZM54.6222 17.9025L87.4345 0.531246L92 0.531246L92 24.2325L60.7695 40.2285L60.7695 49.3984L92 49.3984L92 72.9766L0.687481 72.9766L0.687479 38.2773C0.687479 27.7935 3.0207 19.2455 8.10758 13.0528C13.2638 6.7757 20.5275 3.75391 29.4687 3.7539C35.7219 3.7539 41.1871 5.11999 45.6873 8.04309C49.3389 10.4037 52.3011 13.7297 54.6222 17.9025ZM23.495 29.9194L23.4859 29.9284C21.975 31.4138 20.9258 33.9829 20.9258 38.2773L20.9258 49.3984L40.5312 49.3984L40.5312 38.2187C40.5312 34.3035 39.5516 31.7081 37.9929 30.0062C36.402 28.3102 34.1554 27.332 30.875 27.332C27.4494 27.332 25.1202 28.2942 23.5041 29.9104L23.495 29.9194ZM40.1914 27.9648C42.4179 30.3867 43.5312 33.8047 43.5312 38.2187L43.5312 52.3984L17.9258 52.3984L17.9258 38.2773C17.9258 33.5508 19.0781 30.0547 21.3828 27.7891C23.6875 25.4844 26.8515 24.332 30.875 24.332C34.8203 24.332 37.9258 25.543 40.1914 27.9648Z" fill="#145B2C"/>
</svg>
