<svg width="62" height="561" viewBox="0 0 62 561" fill="none" xmlns="http://www.w3.org/2000/svg">
<path fill-rule="evenodd" clip-rule="evenodd" d="M61.2242 545.159L61.2242 560.768L0.775776 560.768L0.775775 536.75C0.775775 532.267 1.59632 528.239 3.29996 524.717C5.00608 521.164 7.46995 518.379 10.6923 516.433C13.8764 514.495 17.4845 513.547 21.458 513.547C27.5027 513.547 32.4573 515.652 36.0866 519.954L36.0874 519.955C39.6624 524.198 41.3256 529.945 41.3256 536.944L41.3256 545.159L61.2242 545.159ZM39.3396 547.145L39.3396 536.944C39.3396 530.246 37.7492 525.01 34.5686 521.235C31.362 517.433 26.9918 515.533 21.458 515.533C17.8118 515.533 14.5665 516.399 11.722 518.131C8.8516 519.864 6.64064 522.346 5.08909 525.579C3.53754 528.785 2.76176 532.509 2.76176 536.75L2.76176 558.782L59.2382 558.782L59.2382 547.145L39.3396 547.145ZM26.2626 531.055L26.2574 531.049C25.272 529.94 23.801 529.272 21.5355 529.272C19.1849 529.272 17.4705 529.95 16.1963 531.166C14.9566 532.349 14.2209 534.044 14.1734 536.497L14.1734 545.159L27.9279 545.159L27.9279 536.75C27.9279 533.957 27.2698 532.17 26.2679 531.06L26.2626 531.055ZM29.9139 547.145L12.1874 547.145L12.1874 536.479C12.2392 533.608 13.1184 531.358 14.8251 529.729C16.5318 528.1 18.7686 527.286 21.5355 527.286C24.2249 527.286 26.2936 528.1 27.7417 529.729C29.1899 531.333 29.9139 533.673 29.9139 536.75L29.9139 547.145ZM36.7485 465.183L36.7485 487.526L47.9042 487.526L47.9042 461.304L61.2242 461.304L61.2242 503.134L0.775773 503.134L0.775771 461.382L14.1734 461.382L14.1734 487.526L23.6612 487.526L23.6612 465.183L36.7485 465.183ZM25.6471 489.512L12.1874 489.512L12.1874 463.368L2.76176 463.368L2.76176 501.148L59.2382 501.148L59.2382 463.29L49.8901 463.29L49.8901 489.512L34.7625 489.512L34.7625 467.169L25.6471 467.169L25.6471 489.512ZM59.2382 418.612L38.5638 429.201L38.5638 438.472L59.2382 438.472L59.2382 450.108L2.76176 450.108L2.76176 429.124C2.76176 422.452 4.24866 417.306 7.22247 413.686C10.1963 410.065 14.3984 408.255 19.8288 408.255C23.6818 408.255 26.9013 409.096 29.4872 410.776C31.5781 412.128 33.3239 414.058 34.7248 416.565C35.0392 417.128 35.3362 417.719 35.6159 418.34L58.6952 406.122L59.2382 406.122L59.2382 418.612ZM36.4803 415.635L58.2019 404.136L61.2242 404.136L61.2242 419.826L40.5498 430.415L40.5498 436.486L61.2242 436.486L61.2242 452.094L0.775771 452.094L0.77577 429.124C0.77577 422.183 2.32035 416.525 5.68784 412.425C9.10121 408.27 13.9098 406.269 19.8288 406.269C23.9695 406.269 27.5883 407.174 30.5678 409.11C32.9841 410.673 34.9443 412.874 36.4803 415.635ZM15.8743 423.591L15.8682 423.597C14.868 424.58 14.1734 426.281 14.1734 429.124L14.1734 436.486L27.1521 436.486L27.1521 429.085C27.1521 426.492 26.5033 424.774 25.471 423.647C24.4178 422.525 22.9308 421.878 20.7598 421.878C18.492 421.878 16.9501 422.515 15.8803 423.585L15.8743 423.591ZM29.1381 438.472L12.1874 438.472L12.1874 429.124C12.1874 425.995 12.9503 423.68 14.476 422.18C16.0017 420.655 18.0963 419.892 20.7598 419.892C23.3715 419.892 25.4273 420.693 26.9272 422.297C28.4011 423.9 29.1381 426.163 29.1381 429.085L29.1381 438.472ZM40.9609 367.259L40.9545 367.268C39.989 368.527 38.8312 371.034 37.5459 375.044L37.5441 375.049L37.5423 375.055C36.2055 379.144 34.87 382.461 33.5244 384.96L33.523 384.962C29.8102 391.834 24.5599 395.624 17.773 395.624C14.325 395.624 11.2011 394.651 8.46972 392.692L8.46649 392.689C5.71651 390.708 3.63293 387.922 2.17153 384.437L2.16934 384.432C0.710585 380.925 -8.03097e-06 377.041 -8.21598e-06 372.808C-8.40289e-06 368.532 0.781751 364.646 2.39479 361.191C3.98348 357.732 6.27297 354.988 9.27579 353.033C12.2829 351.049 15.6918 350.07 19.4409 350.07L21.4269 350.07L21.4269 365.679L19.4409 365.679C17.3055 365.679 15.8959 366.33 14.9247 367.443L14.9189 367.45L14.913 367.456C13.8871 368.61 13.2425 370.368 13.2425 373.002C13.2425 375.591 13.7984 377.314 14.6528 378.423L14.659 378.431L14.6652 378.44C15.4818 379.522 16.4736 380.015 17.8118 380.015C18.8448 380.015 19.8205 379.555 20.7787 378.141C21.8617 376.514 22.9564 374.001 24.0176 370.489C26.0487 363.736 28.6357 358.564 31.9049 355.209C35.2434 351.782 39.436 350.07 44.3433 350.07C49.8138 350.07 54.257 352.181 57.4484 356.406L57.4537 356.413C60.5551 360.558 62 366 62 372.537C62 377.126 61.1656 381.36 59.4643 385.209L59.4619 385.215L59.4594 385.22C57.7317 389.066 55.3291 392.105 52.2118 394.231L52.2066 394.235L52.2013 394.238C49.0761 396.341 45.4756 397.37 41.473 397.37L39.487 397.37L39.487 381.722L41.473 381.722C44.1807 381.722 45.8822 380.93 46.961 379.641C48.0965 378.284 48.8351 376.032 48.8351 372.537C48.8351 370.013 48.3253 368.319 47.5453 367.225C46.8032 366.218 45.8372 365.718 44.4209 365.718C42.7526 365.718 41.702 366.271 40.9672 367.251L40.9609 367.259ZM49.1531 366.059C50.2651 367.611 50.8211 369.77 50.8211 372.537C50.8211 379.984 47.705 383.708 41.473 383.708L41.473 395.384C42.1501 395.384 42.8121 395.351 43.459 395.287C46.295 395.006 48.8395 394.107 51.0926 392.591C53.8595 390.703 56.0446 387.975 57.6479 384.406C59.2253 380.838 60.014 376.881 60.014 372.537C60.014 366.279 58.6305 361.301 55.8636 357.603C53.0708 353.905 49.2307 352.056 44.3433 352.056C39.9473 352.056 36.2753 353.569 33.3273 356.595C30.3794 359.62 27.9098 364.443 25.9187 371.063C24.8326 374.657 23.6689 377.386 22.4277 379.247C21.1864 381.083 19.6478 382.001 17.8118 382.001C15.8465 382.001 14.2691 381.213 13.0796 379.635C11.8642 378.058 11.2565 375.847 11.2565 373.002C11.2565 370.054 11.9806 367.766 13.4287 366.137C14.8509 364.508 16.855 363.693 19.4409 363.693L19.4409 352.056C18.7645 352.056 18.1025 352.092 17.4549 352.162C14.8595 352.443 12.496 353.287 10.3644 354.694C7.70086 356.427 5.64505 358.87 4.19694 362.025C2.72296 365.18 1.98598 368.774 1.98598 372.808C1.98598 376.817 2.65832 380.437 4.003 383.669C5.34767 386.876 7.22247 389.345 9.62737 391.078C12.0064 392.785 14.7216 393.638 17.773 393.638C23.6431 393.638 28.3106 390.431 31.7758 384.018C33.0429 381.665 34.3358 378.472 35.6546 374.438C36.9476 370.404 38.1888 367.611 39.3784 366.059C40.542 364.508 42.2229 363.732 44.4209 363.732C46.4379 363.732 48.0153 364.508 49.1531 366.059ZM32.5903 339.495L29.7975 339.495C24.2378 339.495 19.3504 338.5 15.1354 336.508C10.8945 334.491 7.64914 331.66 5.39939 328.014C3.12378 324.342 1.98598 320.152 1.98598 315.446C1.98598 310.74 3.12378 306.563 5.39939 302.917C7.64914 299.245 10.8945 296.414 15.1354 294.423C19.3504 292.405 24.2249 291.397 29.7587 291.397L32.28 291.397C37.8397 291.397 42.7142 292.38 46.9034 294.345C51.0926 296.31 54.325 299.129 56.6006 302.801C58.8762 306.447 60.014 310.636 60.014 315.368C60.014 320.049 58.8891 324.225 56.6394 327.897C54.3896 331.569 51.1831 334.414 47.0198 336.431C42.8306 338.448 38.0208 339.469 32.5903 339.495ZM58.2861 301.751C60.7777 305.743 62 310.304 62 315.368C62 320.382 60.7904 324.924 58.3328 328.935C55.8697 332.955 52.3643 336.048 47.8857 338.218L47.8813 338.22C43.3851 340.385 38.276 341.454 32.5998 341.481L32.5951 341.481L29.7975 341.481C24.0003 341.481 18.8136 340.442 14.2871 338.304L14.2824 338.302C9.73083 336.137 6.17967 333.06 3.70985 329.057C1.22319 325.044 -1.0503e-05 320.487 -1.07234e-05 315.446C-1.09436e-05 310.407 1.22226 305.862 3.71039 301.873C6.17938 297.846 9.73068 294.767 14.2848 292.628C18.8108 290.463 23.9852 289.411 29.7587 289.411L32.28 289.411C38.0734 289.411 43.2459 290.435 47.7469 292.547C52.257 294.663 55.7933 297.73 58.2861 301.751ZM17.316 322.853L17.3225 322.857C19.8727 324.645 23.848 325.692 29.5302 325.717C29.5317 325.717 29.5333 325.717 29.5348 325.717L32.28 325.717C37.8412 325.717 41.8716 324.689 44.5993 322.87C47.2004 321.136 48.486 318.72 48.486 315.368C48.486 312.077 47.2495 309.709 44.774 308.009C42.1632 306.233 38.1495 305.2 32.4698 305.175C32.4682 305.175 32.4667 305.175 32.4652 305.175L29.72 305.175C23.984 305.175 19.9519 306.211 17.3483 308.005C14.8412 309.732 13.5916 312.129 13.5916 315.446C13.5916 318.74 14.8302 321.126 17.316 322.853ZM45.8949 306.369C48.9463 308.464 50.472 311.464 50.472 315.368C50.472 319.351 48.8816 322.402 45.7009 324.523C42.5203 326.643 38.0466 327.703 32.28 327.703L29.526 327.703C23.656 327.677 19.2082 326.604 16.1827 324.484C13.1313 322.363 11.6056 319.351 11.6056 315.446C11.6056 311.515 13.1442 308.49 16.2215 306.369C19.2987 304.249 23.7982 303.189 29.72 303.189L32.474 303.189C38.344 303.215 42.8176 304.275 45.8949 306.369ZM61.2242 228.674L61.2242 243.412L29.1518 262.963L61.2242 262.963L61.2242 278.572L0.775763 278.572L0.775763 263.834L32.9234 244.244L0.775762 244.244L0.775761 228.674L61.2242 228.674ZM39.999 242.258L2.76175 264.949L2.76175 276.586L59.2382 276.586L59.2382 264.949L22.0786 264.949L59.2382 242.297L59.2382 230.66L2.76175 230.66L2.76175 242.258L39.999 242.258ZM59.2382 177.642L47.6016 181.56L47.6016 201.962L59.2382 205.841L59.2382 218.215L2.76175 197.191L2.76175 186.408L59.2382 165.268L59.2382 177.642ZM49.5876 200.531L61.2242 204.41L61.2242 221.073L0.77576 198.571L0.775759 185.031L61.2242 162.404L61.2242 179.069L49.5876 182.986L49.5876 200.531ZM38.1759 184.701L17.036 191.8L38.1759 198.821L38.1759 184.701ZM36.1899 196.068L36.1899 187.463L23.3059 191.789L36.1899 196.068ZM52.8212 107.82L53.374 108.282C56.2095 110.65 58.3369 113.933 59.8239 118.008L59.8259 118.014L59.8279 118.02C61.2857 122.09 62 126.562 62 131.412C62 136.594 60.873 141.237 58.5562 145.278L58.552 145.285L58.5479 145.292C56.1931 149.321 52.7903 152.424 48.4076 154.602L48.4031 154.604L48.3985 154.606C44.0215 156.753 38.9466 157.82 33.2297 157.873L33.2203 157.874L29.3709 157.874C23.5159 157.874 18.3461 156.893 13.9188 154.861L13.9138 154.859C9.45413 152.796 5.98433 149.803 3.58871 145.869C1.17411 141.92 -1.85082e-05 137.349 -1.87322e-05 132.226C-1.90382e-05 125.226 1.67729 119.477 5.28023 115.233C8.86252 110.984 14.0197 108.574 20.4952 107.833L22.7069 107.58L22.7069 122.826L21.0347 123.094C18.0844 123.566 16.2315 124.568 15.1428 125.863L15.1382 125.868L15.1336 125.874C14.0317 127.166 13.3588 129.084 13.3588 131.877C13.3588 135.254 14.5828 137.626 16.9677 139.285C19.4636 141.021 23.4127 142.046 29.1081 142.071L32.7067 142.071C38.4286 142.071 42.4055 140.975 44.9426 139.089C47.3827 137.274 48.6799 134.617 48.6799 130.791C48.6799 127.171 48.0001 124.838 46.966 123.429L40.1231 123.429L40.1231 134.018L27.5788 134.018L27.5788 107.82L52.8212 107.82ZM38.1371 121.443L47.8731 121.443C49.735 123.305 50.6659 126.421 50.6659 130.791C50.6659 135.136 49.1531 138.433 46.1276 140.682C43.1021 142.932 38.6284 144.057 32.7067 144.057L29.0993 144.057C23.2293 144.031 18.8074 142.984 15.8336 140.915C12.8598 138.846 11.3729 135.834 11.3729 131.877C11.3729 128.774 12.1228 126.343 13.6226 124.585C15.1224 122.801 17.4886 121.65 20.721 121.133L20.721 109.806C20.0408 109.884 19.3788 109.981 18.735 110.097C13.6017 111.022 9.62198 113.162 6.79578 116.517C3.58924 120.292 1.98597 125.529 1.98597 132.226C1.98597 137.036 3.08498 141.238 5.28302 144.833C7.45519 148.401 10.61 151.142 14.7475 153.056C18.8591 154.944 23.7336 155.888 29.3709 155.888L33.2109 155.888C38.6931 155.836 43.4641 154.814 47.524 152.823C51.5839 150.806 54.687 147.962 56.8333 144.29C58.9538 140.592 60.014 136.299 60.014 131.412C60.014 126.757 59.3287 122.516 57.9582 118.689C56.5618 114.862 54.6094 111.901 52.1011 109.806L29.5648 109.806L29.5648 132.032L38.1371 132.032L38.1371 121.443ZM36.7485 58.0219L36.7485 80.3643L47.9041 80.3643L47.9041 54.143L61.2242 54.143L61.2242 95.9729L0.775755 95.9729L0.775754 54.2206L14.1734 54.2206L14.1734 80.3643L23.6611 80.3643L23.6611 58.0219L36.7485 58.0219ZM25.6471 82.3502L12.1874 82.3502L12.1874 56.2066L2.76174 56.2066L2.76174 93.9869L59.2382 93.9869L59.2382 56.129L49.8901 56.129L49.8901 82.3502L34.7625 82.3502L34.7625 60.0079L25.6471 60.0079L25.6471 82.3502ZM40.9608 17.1888L40.9544 17.1972C39.989 18.4564 38.8312 20.9631 37.5459 24.9733L37.5441 24.9788L37.5423 24.9843C36.2055 29.0734 34.87 32.3905 33.5244 34.8896L33.523 34.8921C29.8102 41.7636 24.5598 45.5536 17.773 45.5536C14.325 45.5536 11.2011 44.5807 8.46971 42.6213L8.46647 42.6189C5.7165 40.6378 3.63291 37.8518 2.17152 34.3669L2.16932 34.3617C0.710569 30.8551 -2.3333e-05 26.9704 -2.3518e-05 22.7381C-2.3705e-05 18.4619 0.78175 14.5752 2.39482 11.1201C3.98352 7.66158 6.27298 4.91747 9.27587 2.96256C12.283 0.978833 15.6917 6.24017e-05 19.4409 6.22378e-05L21.4269 6.2151e-05L21.4269 15.6087L19.4409 15.6087C17.3055 15.6087 15.8959 16.2601 14.9247 17.3725L14.9189 17.3792L14.913 17.3858C13.8871 18.54 13.2425 20.2973 13.2425 22.932C13.2425 25.5205 13.7984 27.2439 14.6527 28.3528L14.659 28.3609L14.6652 28.3691C15.4818 29.452 16.4736 29.945 17.8118 29.945C18.8448 29.945 19.8205 29.4849 20.7787 28.0702C21.8617 26.4438 22.9564 23.9302 24.0175 20.4181C26.0487 13.666 28.6357 8.49364 31.9049 5.1384C35.2433 1.71206 39.436 6.13638e-05 44.3433 6.11493e-05C49.8138 6.09102e-05 54.257 2.11025 57.4484 6.33593L57.4537 6.34304C60.5551 10.4878 62 15.93 62 22.4665C62 27.0559 61.1656 31.29 59.4643 35.1388L59.4619 35.1443L59.4594 35.1498C57.7316 38.9955 55.3291 42.0341 52.2118 44.1609L52.2066 44.1645L52.2013 44.168C49.0761 46.2709 45.4756 47.2991 41.473 47.2991L39.487 47.2991L39.487 31.6517L41.473 31.6517C44.1807 31.6517 45.8821 30.8596 46.961 29.5704C48.0965 28.2134 48.8351 25.9618 48.8351 22.4665C48.8351 19.9428 48.3253 18.2484 47.5454 17.1548C46.8033 16.1474 45.8371 15.6475 44.4209 15.6475C42.7526 15.6475 41.702 16.2006 40.9671 17.1804L40.9608 17.1888ZM49.1531 15.9888C50.2651 17.5404 50.821 19.6996 50.821 22.4665C50.821 29.914 47.705 33.6377 41.473 33.6377L41.473 45.3131C42.1501 45.3131 42.8121 45.281 43.4589 45.2168C46.295 44.9352 48.8395 44.0364 51.0926 42.5203C53.8595 40.6326 56.0446 37.9045 57.6479 34.3359C59.2253 30.7673 60.014 26.8109 60.014 22.4665C60.014 16.2086 58.6305 11.2307 55.8636 7.53284C53.0708 3.83498 49.2307 1.98605 44.3433 1.98605C39.9473 1.98605 36.2753 3.49881 33.3273 6.52434C30.3794 9.54986 27.9098 14.3726 25.9186 20.9926C24.8326 24.587 23.6689 27.3151 22.4277 29.177C21.1864 31.013 19.6478 31.931 17.8118 31.931C15.8465 31.931 14.2691 31.1423 13.0796 29.5649C11.8642 27.9875 11.2565 25.7765 11.2565 22.932C11.2565 19.984 11.9805 17.6955 13.4287 16.0664C14.8509 14.4373 16.855 13.6227 19.4409 13.6227L19.4409 1.98605C18.7645 1.98605 18.1025 2.02112 17.4549 2.09122C14.8595 2.37224 12.496 3.21638 10.3643 4.62369C7.70084 6.35625 5.64504 8.79995 4.19692 11.9548C2.72295 15.1096 1.98596 18.704 1.98596 22.7381C1.98596 26.7462 2.6583 30.3665 4.00298 33.5989C5.34766 36.8055 7.22245 39.275 9.62735 41.0076C12.0064 42.7143 14.7216 43.5676 17.773 43.5676C23.643 43.5676 28.3106 40.3611 31.7758 33.948C33.0429 31.5948 34.3358 28.4012 35.6546 24.3672C36.9476 20.3331 38.1888 17.5404 39.3784 15.9888C40.542 14.4372 42.2229 13.6615 44.4209 13.6615C46.4379 13.6615 48.0153 14.4372 49.1531 15.9888Z" fill="#145B2C"/>
</svg>
