<svg width="95" height="702" viewBox="0 0 95 702" fill="none" xmlns="http://www.w3.org/2000/svg">
<path fill-rule="evenodd" clip-rule="evenodd" d="M89.8986 650.587L58.6681 666.583L58.6681 680.587L89.8986 680.587L89.8986 698.166L4.58606 698.166L4.58606 666.466C4.58606 656.388 6.83215 648.615 11.3243 643.146C15.8165 637.677 22.1642 634.943 30.3673 634.943C36.1876 634.943 41.0509 636.212 44.9572 638.751C48.1155 640.793 50.7528 643.708 52.869 647.495C53.3439 648.345 53.7925 649.239 54.215 650.177L89.0782 631.72L89.8986 631.72L89.8986 650.587ZM55.5208 646.091L88.3331 628.72L92.8986 628.72L92.8986 652.421L61.6681 668.418L61.6681 677.587L92.8986 677.587L92.8986 701.166L1.58606 701.166L1.58606 666.466C1.58606 655.982 3.91928 647.435 9.00616 641.242C14.1623 634.965 21.4261 631.943 30.3673 631.943C36.6211 631.943 42.0866 633.309 46.587 636.233C50.2381 638.593 53.1999 641.919 55.5208 646.091ZM24.3936 658.108L24.3845 658.117C22.8736 659.603 21.8243 662.172 21.8243 666.466L21.8243 677.587L41.4298 677.587L41.4298 666.408C41.4298 662.491 40.4497 659.896 38.8902 658.194C37.2994 656.499 35.0532 655.521 31.7736 655.521C28.3479 655.521 26.0188 656.483 24.4027 658.099L24.3936 658.108ZM44.4298 680.587L18.8243 680.587L18.8243 666.466C18.8243 661.74 19.9767 658.244 22.2814 655.978C24.5861 653.673 27.7501 652.521 31.7736 652.521C35.7189 652.521 38.8243 653.732 41.09 656.154C43.3165 658.576 44.4298 661.994 44.4298 666.408L44.4298 680.587ZM55.9259 557.597L55.9259 591.347L72.7775 591.347L72.7775 551.737L92.8986 551.737L92.8986 614.925L1.58606 614.925L1.58605 551.855L21.8243 551.855L21.8243 591.347L36.1564 591.347L36.1564 557.597L55.9259 557.597ZM39.1564 594.347L18.8243 594.347L18.8243 554.855L4.58605 554.855L4.58606 611.925L89.8986 611.925L89.8986 554.737L75.7775 554.737L75.7775 594.347L52.9259 594.347L52.9259 560.597L39.1564 560.597L39.1564 594.347ZM58.4806 464.627L61.697 464.86C71.5521 465.573 79.5648 469.267 85.4321 476.088C91.2809 482.849 94.0704 491.649 94.0704 502.188C94.0704 513.873 90.1073 523.369 82.0062 530.307L81.9997 530.312L81.9932 530.318C73.9125 537.158 63.0291 540.403 49.7032 540.403L44.4884 540.403C35.9325 540.403 28.2624 538.895 21.5494 535.79C14.8208 532.678 9.5653 528.184 5.90717 522.29C2.2167 516.369 0.414176 509.555 0.414176 501.954C0.414175 491.557 3.21153 482.868 9.06842 476.187C14.9402 469.489 23.1067 465.746 33.2377 464.749L36.5314 464.426L36.5314 488.088L33.7647 488.304C28.6255 488.705 25.5149 490.107 23.7789 491.981L23.7634 491.998L23.7476 492.014C21.9916 493.853 20.8282 496.963 20.8282 501.954C20.8282 506.989 22.5786 510.388 25.8654 512.672C29.3038 515.049 35.0717 516.513 43.681 516.591L50.1134 516.591C59.153 516.591 65.1675 515.208 68.6832 512.922C71.9346 510.77 73.715 507.4 73.715 502.188C73.715 497.147 72.5652 493.98 70.824 492.099C69.0191 490.153 66.0108 488.779 61.2557 488.422L58.4806 488.213L58.4806 464.627ZM73.0236 490.059C75.4845 492.716 76.715 496.758 76.715 502.188C76.715 508.204 74.5861 512.618 70.3282 515.43C66.0704 518.204 59.3321 519.591 50.1134 519.591L43.6681 519.591C34.84 519.512 28.3361 518.028 24.1564 515.137C19.9376 512.208 17.8282 507.813 17.8282 501.954C17.8282 496.563 19.0782 492.559 21.5782 489.942C24.0392 487.286 28.0236 485.743 33.5314 485.313L33.5314 467.735C32.5068 467.836 31.5068 467.966 30.5314 468.125C22.4332 469.449 16.0309 472.796 11.3243 478.165C6.05089 484.18 3.41418 492.11 3.41418 501.954C3.41418 509.063 5.09386 515.313 8.45324 520.704C11.7736 526.055 16.5587 530.176 22.8087 533.067C29.0587 535.958 36.2853 537.403 44.4884 537.403L49.7032 537.403C62.5548 537.403 72.672 534.278 80.0548 528.028C87.3986 521.739 91.0704 513.126 91.0704 502.188C91.0704 492.188 88.4337 484.141 83.1603 478.048C78.4753 472.599 72.2487 469.309 64.4806 468.177C63.5049 468.035 62.5049 467.926 61.4806 467.852L61.4806 485.43C66.6759 485.821 70.5236 487.364 73.0236 490.059ZM55.9259 392.381L55.9259 426.131L72.7775 426.131L72.7775 386.522L92.8985 386.522L92.8985 449.709L1.58605 449.709L1.58605 386.639L21.8243 386.639L21.8243 426.131L36.1564 426.131L36.1564 392.381L55.9259 392.381ZM39.1564 429.131L18.8243 429.131L18.8243 389.639L4.58605 389.639L4.58605 446.709L89.8985 446.709L89.8985 389.522L75.7775 389.522L75.7775 429.131L52.9259 429.131L52.9259 395.381L39.1564 395.381L39.1564 429.131ZM92.8985 297.234L92.8985 319.497L44.4505 349.031L92.8985 349.031L92.8985 372.609L1.58605 372.609L1.58604 350.346L50.1478 320.754L1.58604 320.754L1.58604 297.234L92.8985 297.234ZM60.836 317.754L4.58604 352.031L4.58605 369.609L89.8985 369.609L89.8985 352.031L33.7657 352.031L89.8985 317.812L89.8985 300.234L4.58604 300.234L4.58604 317.754L60.836 317.754ZM58.4806 205.085L61.697 205.318C71.5538 206.031 79.5674 209.726 85.435 216.549C91.2818 223.31 94.0704 232.109 94.0704 242.646C94.0704 254.331 90.1073 263.827 82.0062 270.764L81.9997 270.77L81.9932 270.776C73.9125 277.616 63.0291 280.861 49.7032 280.861L44.4884 280.861C35.9324 280.861 28.2624 279.353 21.5494 276.248C14.8189 273.135 9.56228 268.639 5.90402 262.743C2.21566 256.822 0.414165 250.011 0.414165 242.412C0.414164 232.015 3.21152 223.326 9.06841 216.645C14.9402 209.947 23.1067 206.204 33.2377 205.207L36.5314 204.883L36.5314 228.546L33.7647 228.762C28.6255 229.163 25.5149 230.565 23.7789 232.439L23.7634 232.456L23.7476 232.472C21.9916 234.31 20.8282 237.421 20.8282 242.412C20.8282 247.447 22.5786 250.846 25.8654 253.13C29.3038 255.506 35.0717 256.971 43.681 257.048L50.1134 257.048C59.1529 257.048 65.1674 255.666 68.6831 253.379C71.9344 251.228 73.7149 247.858 73.7149 242.646C73.7149 237.603 72.5646 234.436 70.8229 232.556C69.0178 230.611 66.0098 229.237 61.2556 228.88L58.4806 228.671L58.4806 205.085ZM73.0235 230.517C75.4845 233.173 76.7149 237.216 76.7149 242.646C76.7149 248.662 74.586 253.076 70.3282 255.888C66.0704 258.662 59.3321 260.048 50.1134 260.048L43.6681 260.048C34.8399 259.97 28.336 258.486 24.1564 255.595C19.9376 252.666 17.8282 248.271 17.8282 242.412C17.8282 237.021 19.0782 233.017 21.5782 230.4C24.0392 227.744 28.0235 226.201 33.5314 225.771L33.5314 208.193C32.5067 208.294 31.5067 208.424 30.5314 208.583C22.4332 209.907 16.0309 213.254 11.3243 218.623C6.05088 224.638 3.41416 232.568 3.41416 242.412C3.41416 249.521 5.09385 255.771 8.45323 261.162C11.7735 266.513 16.5587 270.634 22.8087 273.525C29.0587 276.416 36.2853 277.861 44.4884 277.861L49.7032 277.861C62.5548 277.861 72.672 274.736 80.0548 268.486C87.3985 262.197 91.0704 253.583 91.0704 242.646C91.0704 232.646 88.4337 224.599 83.1603 218.505C78.4753 213.057 72.2487 209.767 64.4806 208.635C63.5049 208.492 62.5049 208.384 61.4806 208.31L61.4806 225.888C66.6759 226.279 70.5235 227.822 73.0235 230.517ZM92.8985 165.476L92.8985 189.054L1.58604 189.054L1.58604 165.476L92.8985 165.476ZM55.9259 88.1998L55.9259 121.95L72.7774 121.95L72.7774 82.3405L92.8985 82.3405L92.8985 145.528L1.58604 145.528L1.58603 82.4576L21.8243 82.4576L21.8243 121.95L36.1563 121.95L36.1563 88.1998L55.9259 88.1998ZM39.1563 124.95L18.8243 124.95L18.8243 85.4576L4.58603 85.4576L4.58604 142.528L89.8985 142.528L89.8985 85.3405L75.7774 85.3405L75.7774 124.95L52.9259 124.95L52.9259 91.1998L39.1563 91.1998L39.1563 124.95ZM62.289 26.5181L62.2794 26.5306C60.8209 28.4329 59.072 32.2195 57.1304 38.2772L57.1277 38.2855L57.125 38.2938C55.1057 44.4707 53.0883 49.4816 51.0556 53.2566L51.0535 53.2604C45.445 63.6404 37.5139 69.3655 27.2618 69.3655C22.0533 69.3655 17.3344 67.8958 13.2084 64.9359L13.2035 64.9324C9.04944 61.9397 5.90201 57.7313 3.69445 52.467L3.69113 52.4592C1.48757 47.1622 0.414156 41.2939 0.414155 34.9006C0.414155 28.4411 1.59509 22.5701 4.03176 17.3508C6.43164 12.1264 9.89005 7.98114 14.4262 5.02808C18.9687 2.03149 24.1179 0.552977 29.7813 0.552977L32.7813 0.552977L32.7813 24.1311L29.7813 24.1311C26.5556 24.1311 24.4262 25.1152 22.9593 26.7955L22.9504 26.8057L22.9415 26.8157C21.3918 28.5591 20.4181 31.2136 20.4181 35.1936C20.4181 39.1038 21.2578 41.7072 22.5484 43.3822L22.5579 43.3945L22.5672 43.4069C23.8008 45.0426 25.299 45.7874 27.3204 45.7874C28.8808 45.7874 30.3547 45.0924 31.8021 42.9553C33.4382 40.4985 35.0917 36.7015 36.6947 31.3962C39.7629 21.1967 43.6708 13.3833 48.6092 8.31494C53.6522 3.13916 59.9856 0.552976 67.3985 0.552976C75.6621 0.552975 82.3739 3.74066 87.1948 10.1239L87.2029 10.1346C91.8877 16.3957 94.0704 24.6165 94.0704 34.4905C94.0704 41.4231 92.81 47.8191 90.2401 53.6331L90.2364 53.6414L90.2327 53.6497C87.6227 59.459 83.9934 64.0491 79.2846 67.2617L79.2766 67.2671L79.2687 67.2725C74.5478 70.4491 69.109 72.0022 63.0626 72.0022L60.0626 72.0022L60.0626 48.3655L63.0626 48.3655C67.1529 48.3655 69.723 47.1689 71.3527 45.2214C73.068 43.1716 74.1837 39.7704 74.1837 34.4905C74.1837 30.6782 73.4136 28.1188 72.2355 26.4667C71.1145 24.945 69.6551 24.1897 67.5157 24.1897C64.9956 24.1897 63.4086 25.0253 62.2985 26.5054L62.289 26.5181ZM74.6642 24.7053C76.3438 27.0491 77.1837 30.3108 77.1837 34.4905C77.1837 45.7405 72.4767 51.3655 63.0626 51.3655L63.0626 69.0022C64.0855 69.0022 65.0855 68.9537 66.0626 68.8567C70.3467 68.4313 74.1904 67.0736 77.5938 64.7834C81.7735 61.9319 85.0743 57.8108 87.4962 52.4202C89.879 47.0295 91.0704 41.053 91.0704 34.4905C91.0704 25.0373 88.9806 17.5178 84.8009 11.9319C80.5821 6.34594 74.7813 3.55298 67.3985 3.55298C60.7579 3.55298 55.211 5.83813 50.7579 10.4084C46.3048 14.9788 42.5743 22.2639 39.5665 32.2639C37.9259 37.6936 36.1681 41.8147 34.2931 44.6272C32.4181 47.4006 30.0938 48.7874 27.3204 48.7874C24.3517 48.7874 21.9688 47.5959 20.172 45.2131C18.336 42.8303 17.4181 39.4905 17.4181 35.1936C17.4181 30.7405 18.5118 27.2834 20.6993 24.8225C22.8477 22.3616 25.8751 21.1311 29.7813 21.1311L29.7813 3.55298C28.7595 3.55298 27.7595 3.60602 26.7813 3.71191C22.8607 4.13641 19.2904 5.4115 16.0704 7.53735C12.047 10.1545 8.9415 13.8459 6.754 18.6116C4.52744 23.3772 3.41416 28.8069 3.41416 34.9006C3.41416 40.9553 4.42978 46.4241 6.46103 51.3069C8.49228 56.1506 11.3243 59.8811 14.9571 62.4983C18.5509 65.0764 22.6524 66.3655 27.2618 66.3655C36.129 66.3655 43.1798 61.5217 48.4142 51.8342C50.3282 48.2795 52.2813 43.4553 54.2735 37.3616C56.2267 31.2678 58.1017 27.0491 59.8985 24.7053C61.6563 22.3616 64.1954 21.1897 67.5157 21.1897C70.5626 21.1897 72.9454 22.3616 74.6642 24.7053ZM89.8985 168.476L4.58604 168.476L4.58604 186.054L89.8985 186.054L89.8985 168.476Z" fill="white"/>
</svg>
