<svg width="62" height="342" viewBox="0 0 62 342" fill="none" xmlns="http://www.w3.org/2000/svg">
<path fill-rule="evenodd" clip-rule="evenodd" d="M59.2033 297.868L47.4192 301.849L47.4192 322.581L59.2033 326.522L59.2033 339.096L2.01115 317.733L2.01115 306.776L59.2033 285.295L59.2033 297.868ZM49.4303 321.126L61.2144 325.068L61.2144 342L-9.99455e-07 319.135L-1.60086e-06 305.377L61.2144 282.385L61.2144 299.318L49.4303 303.299L49.4303 321.126ZM37.8741 305.042L16.4663 312.254L37.8741 319.388L37.8741 305.042ZM35.8629 316.592L35.8629 307.848L22.8156 312.244L35.8629 316.592ZM-4.951e-06 228.734L39.6809 228.734C46.3953 228.734 51.9169 230.868 56.0021 235.291C60.0745 239.673 62 245.574 62 252.745C62 259.808 60.1293 265.656 56.1809 270.058C52.2059 274.49 46.7759 276.672 40.1386 276.756L40.1258 276.757L-2.85188e-06 276.757L-3.54516e-06 260.896L39.7595 260.896C43.2247 260.896 45.3202 260.068 46.5157 258.839C47.7705 257.496 48.5112 255.55 48.5112 252.745C48.5112 249.762 47.7348 247.863 46.5127 246.678C45.2746 245.478 43.2446 244.684 40.0581 244.634L-4.256e-06 244.634L-4.951e-06 228.734ZM40.0738 242.616C47.0395 242.721 50.5223 246.098 50.5223 252.745C50.5223 255.925 49.6712 258.421 47.9691 260.234C46.2408 262.021 43.5042 262.914 39.7595 262.914L2.01115 262.914L2.01115 274.739L40.113 274.739C46.2931 274.66 51.1508 272.65 54.686 268.708C58.2212 264.767 59.9889 259.446 59.9889 252.745C59.9889 245.94 58.1689 240.58 54.5289 236.664C50.8889 232.723 45.9396 230.752 39.6809 230.752L2.01115 230.752L2.01115 242.616L40.0738 242.616ZM13.5674 169.383L13.5674 186.962L61.2144 186.962L61.2144 202.822L13.5674 202.822L13.5674 220.164L-5.32561e-06 220.164L-7.54533e-06 169.383L13.5674 169.383ZM11.5563 200.804L59.2033 200.804L59.2033 188.98L11.5563 188.98L11.5563 171.401L2.01114 171.401L2.01115 218.146L11.5563 218.146L11.5563 200.804ZM36.4285 121.619L36.4285 144.322L47.7255 144.322L47.7255 117.678L61.2144 117.678L61.2144 160.182L-7.94751e-06 160.182L-9.80198e-06 117.757L13.5674 117.757L13.5674 144.322L23.1754 144.322L23.1754 121.619L36.4285 121.619ZM25.1865 146.34L11.5563 146.34L11.5563 119.775L2.01114 119.775L2.01114 158.164L59.2033 158.164L59.2033 119.696L49.7367 119.696L49.7367 146.34L34.4174 146.34L34.4174 123.637L25.1865 123.637L25.1865 146.34ZM-1.22895e-05 60.8491L39.6809 60.8491C46.3953 60.8491 51.9169 62.9831 56.0021 67.4055C60.0745 71.7874 62 77.6892 62 84.8602C62 91.923 60.1293 97.7708 56.1809 102.173C52.2059 106.605 46.7759 108.786 40.1386 108.871L40.1258 108.871L-1.01904e-05 108.871L-1.08837e-05 93.011L39.7595 93.011C43.2247 93.011 45.3202 92.1823 46.5157 90.9539C47.7705 89.6109 48.5112 87.6652 48.5112 84.8602C48.5112 81.8762 47.7348 79.9779 46.5127 78.7932C45.2746 77.5929 43.2445 76.7992 40.0581 76.7488L-1.15945e-05 76.7488L-1.22895e-05 60.8491ZM40.0737 74.7308C47.0395 74.8359 50.5223 78.2123 50.5223 84.8602C50.5223 88.0396 49.6712 90.5358 47.9691 92.3489C46.2408 94.1356 43.5042 95.029 39.7595 95.029L2.01114 95.029L2.01114 106.853L40.113 106.853C46.2931 106.774 51.1508 104.764 54.686 100.823C58.2212 96.8815 59.9889 91.5606 59.9889 84.8602C59.9889 78.0547 58.1689 72.6944 54.5289 68.7792C50.8889 64.8378 45.9396 62.8671 39.6809 62.8671L2.01114 62.8671L2.01114 74.7308L40.0737 74.7308ZM59.2032 14.7093L38.2668 25.4694L38.2668 34.8894L59.2032 34.8894L59.2032 46.7136L2.01114 46.7136L2.01114 25.3906C2.01114 18.6113 3.51688 13.3824 6.52837 9.70375C9.53986 6.0251 13.7952 4.18577 19.2945 4.18577C23.1963 4.18577 26.4566 5.03974 29.0753 6.74769C31.1926 8.12111 32.9606 10.0817 34.3792 12.6294C34.6976 13.2012 34.9984 13.8025 35.2815 14.4334L58.6533 2.01799L59.2032 2.01799L59.2032 14.7093ZM36.157 11.685L58.1538 -1.2725e-05L61.2144 -1.28588e-05L61.2144 15.943L40.278 26.7031L40.278 32.8714L61.2144 32.8714L61.2144 48.7316L-1.28192e-05 48.7316L-1.38394e-05 25.3906C-1.41477e-05 18.3384 1.56414 12.5885 4.9743 8.42283C8.43092 4.20043 13.3004 2.16777 19.2945 2.16777C23.4865 2.16777 27.1503 3.08669 30.1671 5.05296C32.6151 6.6409 34.6009 8.87814 36.157 11.685ZM15.2898 19.7685L15.2837 19.7745C14.2708 20.7737 13.5674 22.5018 13.5674 25.3906L13.5674 32.8714L26.7106 32.8714L26.7106 25.3512C26.7106 22.7175 26.0539 20.9717 25.0089 19.8268C23.9424 18.686 22.4363 18.028 20.2372 18.028C17.9407 18.028 16.3793 18.6753 15.2959 19.7624L15.2898 19.7685ZM26.4828 18.4537C27.9754 20.0828 28.7217 22.382 28.7217 25.3512L28.7217 34.8894L11.5562 34.8894L11.5562 25.3906C11.5562 22.2112 12.3288 19.8595 13.8738 18.3354C15.4188 16.7852 17.5399 16.01 20.2372 16.01C22.8821 16.01 24.9639 16.8246 26.4828 18.4537Z" fill="#145B2C"/>
</svg>
