<svg width="95" height="848" viewBox="0 0 95 848" fill="none" xmlns="http://www.w3.org/2000/svg">
<path fill-rule="evenodd" clip-rule="evenodd" d="M93 824.325L93 847.903L1.6875 847.903L1.6875 811.622C1.6875 804.85 2.927 798.765 5.50049 793.445C8.07773 788.077 11.7996 783.871 16.6673 780.932C21.477 778.004 26.9274 776.571 32.9297 776.571C42.0608 776.571 49.5451 779.751 55.0275 786.25L55.0287 786.252C60.429 792.662 62.9414 801.343 62.9414 811.915L62.9414 824.325L93 824.325ZM59.9414 827.325L59.9414 811.915C59.9414 801.798 57.5391 793.888 52.7344 788.185C47.8906 782.442 41.2891 779.571 32.9297 779.571C27.4219 779.571 22.5195 780.88 18.2227 783.497C13.8867 786.114 10.5469 789.864 8.20312 794.747C5.85937 799.591 4.6875 805.216 4.6875 811.622L4.6875 844.903L90 844.903L90 827.325L59.9414 827.325ZM40.1876 803.019L40.1796 803.01C38.6911 801.335 36.4691 800.325 33.0469 800.325C29.4961 800.325 26.9064 801.349 24.9816 803.187C23.1089 804.974 21.9975 807.534 21.9258 811.24L21.9258 824.325L42.7031 824.325L42.7031 811.622C42.7031 807.403 41.7089 804.703 40.1956 803.027L40.1876 803.019ZM45.7031 827.325L18.9258 827.325L18.9258 811.212C19.0039 806.876 20.332 803.478 22.9102 801.017C25.4883 798.556 28.8672 797.325 33.0469 797.325C37.1094 797.325 40.2344 798.556 42.4219 801.017C44.6094 803.438 45.7031 806.974 45.7031 811.622L45.7031 827.325ZM56.0273 703.514L56.0273 737.264L72.8789 737.264L72.8789 697.655L93 697.655L93 760.842L1.6875 760.842L1.68749 697.772L21.9258 697.772L21.9258 737.264L36.2578 737.264L36.2578 703.514L56.0273 703.514ZM39.2578 740.264L18.9258 740.264L18.9258 700.772L4.68749 700.772L4.6875 757.842L90 757.842L90 700.655L75.8789 700.655L75.8789 740.264L53.0273 740.264L53.0273 706.514L39.2578 706.514L39.2578 740.264ZM90 633.164L58.7695 649.16L58.7695 663.164L90 663.164L90 680.742L4.68749 680.742L4.68749 649.043C4.68749 638.965 6.93358 631.192 11.4258 625.723C15.918 620.254 22.2656 617.52 30.4687 617.52C36.2891 617.52 41.1523 618.789 45.0586 621.328C48.217 623.37 50.8542 626.285 52.9704 630.072C53.4453 630.922 53.894 631.816 54.3164 632.754L89.1797 614.297L90 614.297L90 633.164ZM55.6223 628.668L88.4346 611.297L93 611.297L93 634.998L61.7695 650.994L61.7695 660.164L93 660.164L93 683.742L1.68749 683.742L1.68749 649.043C1.68749 638.559 4.02071 630.011 9.10759 623.819C14.2638 617.542 21.5275 614.52 30.4687 614.52C36.7236 614.52 42.19 615.887 46.6909 618.811C50.3409 621.172 53.3019 624.497 55.6223 628.668ZM24.4951 640.685L24.4859 640.694C22.975 642.18 21.9258 644.749 21.9258 649.043L21.9258 660.164L41.5312 660.164L41.5312 648.985C41.5312 645.068 40.5511 642.473 38.9917 640.771C37.4008 639.075 35.1546 638.098 31.875 638.098C28.4494 638.098 26.1202 639.06 24.5041 640.676L24.4951 640.685ZM44.5312 663.164L18.9258 663.164L18.9258 649.043C18.9258 644.317 20.0781 640.821 22.3828 638.555C24.6875 636.25 27.8516 635.098 31.875 635.098C35.8203 635.098 38.9258 636.309 41.1914 638.731C43.418 641.153 44.5312 644.571 44.5312 648.985L44.5312 663.164ZM62.3905 555.592L62.3808 555.604C60.9224 557.507 59.1734 561.293 57.2318 567.351L57.2292 567.359L57.2265 567.368C55.2071 573.544 53.1897 578.555 51.157 582.33L51.155 582.334C45.5464 592.714 37.6154 598.439 27.3633 598.439C22.1547 598.439 17.4358 596.97 13.3099 594.01L13.305 594.006C9.1509 591.013 6.00347 586.805 3.79591 581.541L3.79259 581.533C1.58902 576.236 0.515613 570.368 0.515613 563.974C0.515612 557.515 1.69653 551.644 4.13315 546.425C6.533 541.2 9.99148 537.055 14.5275 534.102C19.07 531.105 24.2194 529.627 29.8828 529.627L32.8828 529.627L32.8828 553.205L29.8828 553.205C26.657 553.205 24.5277 554.189 23.0607 555.869L23.0519 555.879L23.043 555.889C21.4932 557.633 20.5195 560.287 20.5195 564.267C20.5195 568.178 21.3593 570.781 22.6498 572.456L22.6593 572.468L22.6687 572.481C23.9022 574.116 25.4005 574.861 27.4219 574.861C28.9823 574.861 30.4562 574.166 31.9036 572.029C33.5396 569.572 35.1932 565.775 36.7962 560.47C39.8644 550.27 43.7722 542.457 48.7107 537.389C53.7537 532.213 60.0871 529.627 67.5 529.627C75.7635 529.627 82.4754 532.814 87.2963 539.198L87.3044 539.208C91.9892 545.469 94.1719 553.69 94.1719 563.564C94.1719 570.497 92.9115 576.893 90.3415 582.707L90.3379 582.715L90.3341 582.723C87.7242 588.533 84.0949 593.123 79.386 596.335L79.3781 596.341L79.3701 596.346C74.6493 599.523 69.2104 601.076 63.1641 601.076L60.1641 601.076L60.1641 577.439L63.1641 577.439C67.2544 577.439 69.8245 576.243 71.4541 574.295C73.1695 572.245 74.2851 568.844 74.2851 563.564C74.2851 559.752 73.515 557.192 72.3369 555.54C71.2158 554.019 69.7566 553.263 67.6172 553.263C65.0971 553.263 63.51 554.099 62.4 555.579L62.3905 555.592ZM74.7656 553.779C76.4453 556.123 77.2851 559.385 77.2851 563.564C77.2851 574.814 72.5781 580.439 63.1641 580.439L63.1641 598.076C64.187 598.076 65.187 598.027 66.1641 597.93C70.4481 597.505 74.2919 596.147 77.6953 593.857C81.875 591.006 85.1758 586.885 87.5976 581.494C89.9805 576.103 91.1719 570.127 91.1719 563.564C91.1719 554.111 89.082 546.592 84.9023 541.006C80.6836 535.42 74.8828 532.627 67.5 532.627C60.8594 532.627 55.3125 534.912 50.8594 539.482C46.4062 544.053 42.6758 551.338 39.668 561.338C38.0273 566.767 36.2695 570.888 34.3945 573.701C32.5195 576.474 30.1953 577.861 27.4219 577.861C24.4531 577.861 22.0703 576.67 20.2734 574.287C18.4375 571.904 17.5195 568.564 17.5195 564.267C17.5195 559.814 18.6133 556.357 20.8008 553.896C22.9492 551.435 25.9765 550.205 29.8828 550.205L29.8828 532.627C28.861 532.627 27.861 532.68 26.8828 532.786C22.9622 533.21 19.3919 534.485 16.1719 536.611C12.1484 539.228 9.04296 542.92 6.85546 547.685C4.62889 552.451 3.51561 557.881 3.51561 563.974C3.51561 570.029 4.53124 575.498 6.56249 580.381C8.59374 585.224 11.4258 588.955 15.0586 591.572C18.6523 594.15 22.7539 595.439 27.3633 595.439C36.2305 595.439 43.2812 590.596 48.5156 580.908C50.4297 577.353 52.3828 572.529 54.375 566.435C56.3281 560.342 58.2031 556.123 60 553.779C61.7578 551.435 64.2969 550.263 67.6172 550.263C70.664 550.263 73.0469 551.435 74.7656 553.779ZM49.7461 513.652L45.5273 513.652C37.1289 513.652 29.7461 512.148 23.3789 509.14C16.9726 506.093 12.0703 501.816 8.67186 496.308C5.23436 490.761 3.51561 484.433 3.51561 477.324C3.51561 470.214 5.23436 463.906 8.67186 458.398C12.0703 452.851 16.9726 448.574 23.3789 445.566C29.7461 442.519 37.1094 440.996 45.4687 440.996L49.2773 440.996C57.6758 440.996 65.039 442.48 71.3672 445.449C77.6953 448.417 82.5781 452.675 86.0156 458.222C89.4531 463.73 91.1719 470.058 91.1719 477.206C91.1719 484.277 89.4726 490.585 86.0742 496.132C82.6758 501.679 77.832 505.976 71.543 509.023C65.2148 512.07 57.9492 513.613 49.7461 513.652ZM88.5617 456.635C92.3254 462.667 94.1719 469.556 94.1719 477.206C94.1719 484.78 92.3446 491.64 88.6323 497.699C84.9116 503.772 79.6164 508.445 72.851 511.723L72.8444 511.726C66.0525 514.996 58.3348 516.611 49.7604 516.652L49.7532 516.652L45.5273 516.652C36.7701 516.652 28.9352 515.083 22.0975 511.853L22.0904 511.849C15.2149 508.579 9.85053 503.931 6.11967 497.885C2.36336 491.822 0.515609 484.938 0.515609 477.324C0.515608 469.712 2.36195 462.846 6.12048 456.82C9.85011 450.737 15.2146 446.087 22.0941 442.855C28.931 439.585 36.7473 437.996 45.4687 437.996L49.2773 437.996C58.0288 437.996 65.8423 439.543 72.6413 442.733C79.4542 445.929 84.7961 450.562 88.5617 456.635ZM26.6729 488.512L26.6827 488.519C30.535 491.219 36.54 492.801 45.1235 492.839C45.1258 492.839 45.1281 492.839 45.1304 492.839L49.2773 492.839C57.6779 492.839 63.7662 491.285 67.8867 488.538C71.8159 485.919 73.7578 482.269 73.7578 477.206C73.7578 472.234 71.8899 468.658 68.1505 466.089C64.2067 463.407 58.1436 461.847 49.5639 461.808C49.5617 461.808 49.5594 461.808 49.5571 461.808L45.4101 461.808C36.7455 461.808 30.6547 463.373 26.7217 466.083C22.9345 468.693 21.0469 472.312 21.0469 477.324C21.0469 482.299 22.9178 485.903 26.6729 488.512ZM69.8437 463.613C74.4531 466.777 76.7578 471.308 76.7578 477.206C76.7578 483.222 74.3555 487.831 69.5508 491.035C64.7461 494.238 57.9883 495.839 49.2773 495.839L45.1172 495.839C36.25 495.8 29.5312 494.179 24.9609 490.976C20.3515 487.773 18.0469 483.222 18.0469 477.324C18.0469 471.386 20.3711 466.816 25.0195 463.613C29.668 460.41 36.4648 458.808 45.4101 458.808L49.5703 458.808C58.4375 458.847 65.1953 460.449 69.8437 463.613ZM93 346.247L93 368.51L44.5519 398.044L93 398.044L93 421.622L1.68748 421.622L1.68748 399.359L50.2493 369.767L1.68748 369.767L1.68748 346.247L93 346.247ZM60.9375 366.767L4.68748 401.044L4.68748 418.622L90 418.622L90 401.044L33.8672 401.044L90 366.825L90 349.247L4.68748 349.247L4.68748 366.767L60.9375 366.767ZM90 269.159L72.4218 275.077L72.4219 305.897L90 311.756L90 330.448L4.68748 298.69L4.68748 282.401L90 250.467L90 269.159ZM75.4219 303.735L93 309.594L93 334.766L1.68748 300.774L1.68748 280.321L93 246.141L93 271.314L75.4219 277.232L75.4219 303.735ZM58.1836 279.823L26.25 290.546L58.1836 301.151L58.1836 279.823ZM55.1836 296.994L55.1836 283.995L35.7212 290.53L55.1836 296.994ZM80.3066 163.688L81.1416 164.385C85.4248 167.962 88.6384 172.921 90.8846 179.077L90.8877 179.086L90.8907 179.094C93.0928 185.243 94.1718 191.998 94.1718 199.324C94.1718 207.153 92.4694 214.167 88.9696 220.27L88.9635 220.281L88.9572 220.291C85.4001 226.377 80.2599 231.066 73.6395 234.355L73.6326 234.358L73.6257 234.362C67.0139 237.604 59.3478 239.215 50.7119 239.297L50.6977 239.297L44.8828 239.297C36.0385 239.297 28.229 237.817 21.5412 234.746L21.5336 234.743C14.7969 231.627 9.55547 227.106 5.93668 221.163C2.28921 215.198 0.515597 208.293 0.515597 200.555C0.515596 189.979 3.04932 181.296 8.49186 174.886C13.9032 168.466 21.6936 164.826 31.4754 163.707L34.8164 163.325L34.8164 186.355L32.2903 186.759C27.8336 187.472 25.0347 188.986 23.3902 190.942L23.3832 190.95L23.3762 190.959C21.7117 192.91 20.6953 195.807 20.6953 200.028C20.6953 205.128 22.5441 208.711 26.1468 211.217C29.917 213.84 35.8825 215.388 44.4858 215.426L49.9218 215.426C58.5653 215.426 64.5727 213.771 68.4052 210.921C72.0911 208.18 74.0508 204.165 74.0508 198.387C74.0508 192.918 73.0238 189.394 71.4617 187.266L61.125 187.266L61.125 203.262L42.1758 203.262L42.1758 163.688L80.3066 163.688ZM58.125 184.266L72.832 184.266C75.6445 187.078 77.0508 191.785 77.0508 198.387C77.0508 204.949 74.7656 209.93 70.1953 213.328C65.625 216.727 58.8672 218.426 49.9218 218.426L44.4726 218.426C35.6054 218.387 28.9258 216.805 24.4336 213.68C19.9414 210.555 17.6953 206.004 17.6953 200.028C17.6953 195.34 18.8281 191.668 21.0937 189.012C23.3593 186.317 26.9336 184.578 31.8164 183.797L31.8164 166.688C30.789 166.805 29.789 166.952 28.8164 167.127C21.0622 168.524 15.0504 171.757 10.7812 176.824C5.93747 182.528 3.5156 190.438 3.5156 200.555C3.5156 207.82 5.17575 214.168 8.49607 219.598C11.7773 224.988 16.5429 229.129 22.7929 232.02C29.0039 234.871 36.3672 236.297 44.8828 236.297L50.6836 236.297C58.9648 236.219 66.1718 234.676 72.3047 231.668C78.4375 228.621 83.125 224.324 86.3672 218.778C89.5703 213.192 91.1718 206.707 91.1718 199.324C91.1718 192.293 90.1367 185.887 88.0664 180.106C85.957 174.324 83.0078 169.852 79.2187 166.688L45.1758 166.688L45.1758 200.262L58.125 200.262L58.125 184.266ZM56.0273 88.4627L56.0273 122.213L72.8789 122.213L72.8789 82.6033L93 82.6033L93 145.791L1.68747 145.791L1.68747 82.7205L21.9257 82.7205L21.9257 122.213L36.2578 122.213L36.2578 88.4627L56.0273 88.4627ZM39.2578 125.213L18.9257 125.213L18.9257 85.7205L4.68747 85.7205L4.68747 142.791L90 142.791L90 85.6033L75.8789 85.6033L75.8789 125.213L53.0273 125.213L53.0273 91.4627L39.2578 91.4627L39.2578 125.213ZM62.3904 26.7808L62.3808 26.7935C60.9224 28.6957 59.1734 32.4823 57.2318 38.54L57.2292 38.5483L57.2265 38.5566C55.2071 44.7335 53.1897 49.7443 51.157 53.5193L51.155 53.5231C45.5464 63.9031 37.6153 69.6283 27.3632 69.6283C22.1547 69.6283 17.4358 68.1586 13.3098 65.1987L13.305 65.1952C9.15088 62.2025 6.00344 57.9941 3.79588 52.7299L3.79257 52.722C1.589 47.4249 0.51559 41.5568 0.515589 35.1635C0.515589 28.7039 1.69652 22.8328 4.1332 17.6136C6.53308 12.3892 9.99149 8.24396 14.5276 5.29089C19.0702 2.29431 24.2193 0.815795 29.8828 0.815795L32.8828 0.815794L32.8828 24.3939L29.8828 24.3939C26.657 24.3939 24.5277 25.3779 23.0607 27.0583L23.0519 27.0684L23.043 27.0784C21.4932 28.8219 20.5195 31.4764 20.5195 35.4564C20.5195 39.3666 21.3593 41.97 22.6498 43.645L22.6593 43.6573L22.6687 43.6697C23.9022 45.3054 25.4004 46.0502 27.4218 46.0502C28.9823 46.0502 30.4561 45.3552 31.9036 43.2181C33.5396 40.7612 35.1931 36.9643 36.7962 31.659C39.8644 21.4594 43.7722 13.6461 48.7106 8.5777C53.7537 3.40191 60.087 0.815793 67.5 0.815793C75.7635 0.815793 82.4754 4.00341 87.2963 10.3867L87.3043 10.3974C91.9892 16.6584 94.1718 24.8793 94.1718 34.7533C94.1718 41.6859 92.9114 48.0819 90.3415 53.8959L90.3378 53.9042L90.3341 53.9124C87.7241 59.7217 84.0949 64.3118 79.386 67.5245L79.3781 67.5298L79.3701 67.5352C74.6493 70.7118 69.2104 72.265 63.164 72.265L60.164 72.265L60.164 48.6283L63.164 48.6283C67.2543 48.6283 69.8245 47.4318 71.4541 45.4842C73.1694 43.4344 74.2851 40.0332 74.2851 34.7533C74.2851 30.941 73.5151 28.3815 72.3369 26.7294C71.2159 25.2078 69.7565 24.4525 67.6172 24.4525C65.0971 24.4525 63.51 25.2881 62.4 26.7681L62.3904 26.7808ZM74.7656 24.9681C76.4453 27.3119 77.2851 30.5736 77.2851 34.7533C77.2851 46.0033 72.5781 51.6283 63.164 51.6283L63.164 69.265C64.1869 69.265 65.1869 69.2165 66.164 69.1195C70.4481 68.6941 74.2918 67.3364 77.6953 65.0463C81.875 62.1947 85.1757 58.0736 87.5976 52.683C89.9804 47.2924 91.1718 41.3158 91.1718 34.7533C91.1718 25.3002 89.082 17.7806 84.9023 12.1947C80.6836 6.60876 74.8828 3.81579 67.5 3.81579C60.8593 3.81579 55.3125 6.10095 50.8593 10.6713C46.4062 15.2416 42.6757 22.5267 39.6679 32.5267C38.0273 37.9564 36.2695 42.0775 34.3945 44.89C32.5195 47.6635 30.1953 49.0502 27.4218 49.0502C24.4531 49.0502 22.0703 47.8588 20.2734 45.476C18.4375 43.0931 17.5195 39.7533 17.5195 35.4564C17.5195 31.0033 18.6132 27.5463 20.8007 25.0853C22.9492 22.6244 25.9765 21.3939 29.8828 21.3939L29.8828 3.81579C28.861 3.81579 27.861 3.86877 26.8828 3.97467C22.9622 4.39917 19.3919 5.67432 16.1718 7.80017C12.1484 10.4174 9.04293 14.1088 6.85543 18.8744C4.62887 23.64 3.51559 29.0697 3.51559 35.1635C3.51559 41.2181 4.53121 46.6869 6.56247 51.5697C8.59372 56.4135 11.4257 60.1439 15.0586 62.7611C18.6523 65.3392 22.7539 66.6283 27.3632 66.6283C36.2304 66.6283 43.2812 61.7845 48.5156 52.097C50.4297 48.5424 52.3828 43.7181 54.375 37.6244C56.3281 31.5306 58.2031 27.3119 60 24.9681C61.7578 22.6244 64.2968 21.4525 67.6172 21.4525C70.664 21.4525 73.0468 22.6244 74.7656 24.9681Z" fill="#145B2C"/>
</svg>
