<svg width="62" height="546" viewBox="0 0 62 546" fill="none" xmlns="http://www.w3.org/2000/svg">
<path fill-rule="evenodd" clip-rule="evenodd" d="M38.4397 495.632L40.569 495.786C47.0922 496.258 52.396 498.703 56.2799 503.218C60.1528 507.693 62 513.52 62 520.497C62 528.233 59.3764 534.519 54.0135 539.112L54.0092 539.115L54.0049 539.119C48.6556 543.648 41.4508 545.796 32.6291 545.796L29.1769 545.796C23.5129 545.796 18.4354 544.797 13.9914 542.742C9.5365 540.681 6.057 537.706 3.6353 533.803C1.19292 529.884 -8.92666e-07 525.374 -1.11259e-06 520.342C-1.41344e-06 513.46 1.85183 507.708 5.72907 503.285C9.61617 498.851 15.0223 496.373 21.729 495.713L23.9094 495.499L23.9094 511.163L22.0779 511.306C18.6758 511.572 16.6165 512.5 15.4674 513.74L15.4571 513.751L15.4466 513.762C14.2842 514.979 13.514 517.039 13.514 520.342C13.514 523.676 14.6728 525.926 16.8486 527.438C19.1249 529.011 22.9434 529.98 28.643 530.032L32.9007 530.032C38.8844 530.032 42.8659 529.117 45.1933 527.603C47.346 526.179 48.5248 523.948 48.5248 520.497C48.5248 517.16 47.7636 515.063 46.611 513.819C45.4162 512.531 43.4247 511.621 40.2768 511.384L38.4397 511.246L38.4397 495.632ZM48.0671 512.468C49.6962 514.227 50.5108 516.903 50.5108 520.497C50.5108 524.48 49.1014 527.402 46.2828 529.264C43.4641 531.1 39.0034 532.018 32.9007 532.018L28.6339 532.018C22.7897 531.966 18.4842 530.983 15.7172 529.07C12.9244 527.13 11.528 524.221 11.528 520.342C11.528 516.774 12.3555 514.123 14.0105 512.391C15.6396 510.632 18.2773 509.611 21.9234 509.326L21.9234 497.69C21.2451 497.756 20.5831 497.843 19.9374 497.948C14.5765 498.825 10.3382 501.04 7.22247 504.594C3.73148 508.576 1.98598 513.826 1.98598 520.342C1.98599 525.049 3.09793 529.186 5.32182 532.755C7.51985 536.297 10.6876 539.026 14.8251 540.939C18.9625 542.853 23.7465 543.81 29.1769 543.81L32.6291 543.81C41.1368 543.81 47.8343 541.741 52.7217 537.603C57.5833 533.44 60.014 527.738 60.014 520.497C60.014 513.878 58.2685 508.551 54.7775 504.517C51.6761 500.91 47.5541 498.731 42.4117 497.982C41.7658 497.888 41.1038 497.816 40.4257 497.767L40.4257 509.404C43.8649 509.662 46.4121 510.684 48.0671 512.468ZM38.7578 458.364L59.2382 458.364L59.2382 470.195L38.7578 470.195L2.76176 488.736L2.76176 475.974L28.2072 464.299L2.76176 452.546L2.76176 439.823L38.7578 458.364ZM23.4581 464.293L0.775773 474.7L0.775773 491.993L39.2392 472.181L61.2242 472.181L61.2242 456.378L39.2392 456.378L0.775771 436.566L0.775772 453.816L23.4581 464.293ZM61.2242 430.295L0.775771 430.295L0.77577 408.527C0.775769 401.47 2.12522 395.78 5.12182 391.752C8.1683 387.622 12.6497 385.634 18.2385 385.634C21.3649 385.634 24.2006 386.443 26.6758 388.104L26.6805 388.107L26.6852 388.11C27.9311 388.956 29.0039 389.969 29.9043 391.139C30.7914 389.644 31.945 388.351 33.3686 387.278C35.9622 385.297 39.0909 384.353 42.6366 384.353C48.5218 384.353 53.265 386.255 56.5177 390.291C59.6922 394.23 61.1704 399.669 61.2242 406.338L61.2242 406.346L61.2242 430.295ZM34.5686 388.861C33.0932 389.972 31.9498 391.362 31.1386 393.032C30.7412 393.85 30.4235 394.735 30.1854 395.688C29.8322 394.777 29.407 393.937 28.9101 393.17C28.0246 391.803 26.9111 390.664 25.5696 389.753C23.4491 388.331 21.0054 387.62 18.2385 387.62C13.1701 387.62 9.32999 389.391 6.71821 392.934C4.08057 396.476 2.76176 401.674 2.76176 408.527L2.76176 428.309L59.2382 428.309L59.2382 406.354C59.1865 399.941 57.7643 395.002 54.9715 391.537C52.1787 388.072 48.0671 386.339 42.6366 386.339C39.456 386.339 36.7666 387.18 34.5686 388.861ZM15.478 402.704L15.4662 402.719C14.7304 403.673 14.1734 405.474 14.1734 408.527L14.1734 414.686L24.4369 414.686L24.4369 408.079C24.3868 405.36 23.8171 403.673 23.0374 402.696C22.3269 401.804 21.2329 401.242 19.4021 401.242C17.2199 401.242 16.099 401.867 15.4895 402.689L15.478 402.704ZM26.4229 408.061L26.4229 416.672L12.1874 416.672L12.1874 408.527C12.1874 405.32 12.7563 402.98 13.8941 401.506C15.0061 400.006 16.8421 399.256 19.4021 399.256C23.9792 399.256 26.3195 402.191 26.4229 408.061ZM49.8901 416.672L34.6461 416.672L34.6461 406.005C34.7237 400.653 37.3484 397.976 42.5203 397.976C44.8217 397.976 46.6319 398.752 47.9507 400.303C49.2437 401.829 49.8901 403.963 49.8901 406.704L49.8901 416.672ZM46.4375 401.59C45.5478 400.543 44.3241 399.962 42.5203 399.962C40.2605 399.962 38.9059 400.543 38.0908 401.374C37.2653 402.216 36.6688 403.644 36.6321 406.02L36.6321 414.686L47.9042 414.686L47.9041 406.704C47.9041 404.26 47.3291 402.643 46.4375 401.59ZM36.7485 335.253L36.7485 357.595L47.9041 357.595L47.9041 331.374L61.2242 331.374L61.2242 373.204L0.775768 373.204L0.775766 331.452L14.1734 331.452L14.1734 357.595L23.6612 357.595L23.6612 335.253L36.7485 335.253ZM25.6471 359.581L12.1874 359.581L12.1874 333.438L2.76175 333.438L2.76175 371.218L59.2382 371.218L59.2382 333.36L49.8901 333.36L49.8901 359.581L34.7625 359.581L34.7625 337.239L25.6471 337.239L25.6471 359.581ZM59.2382 288.682L38.5638 299.271L38.5638 308.542L59.2382 308.542L59.2382 320.178L2.76175 320.178L2.76175 299.193C2.76175 292.522 4.24865 287.376 7.22246 283.756C10.1963 280.135 14.3984 278.325 19.8288 278.325C23.6818 278.325 26.9013 279.166 29.4872 280.846C31.5781 282.198 33.3239 284.128 34.7248 286.635C35.0392 287.198 35.3362 287.789 35.6159 288.41L58.6952 276.192L59.2382 276.192L59.2382 288.682ZM36.4803 285.705L58.2019 274.206L61.2242 274.206L61.2242 289.896L40.5498 300.485L40.5498 306.556L61.2242 306.556L61.2242 322.164L0.775766 322.164L0.775765 299.193C0.775765 292.253 2.32035 286.595 5.68784 282.495C9.10121 278.34 13.9098 276.339 19.8288 276.339C23.9695 276.339 27.5883 277.244 30.5678 279.18C32.9841 280.743 34.9443 282.944 36.4803 285.705ZM15.8743 293.661L15.8682 293.667C14.868 294.65 14.1734 296.351 14.1734 299.193L14.1734 306.556L27.1521 306.556L27.1521 299.155C27.1521 296.562 26.5033 294.844 25.4709 293.717C24.4178 292.595 22.9308 291.948 20.7597 291.948C18.492 291.948 16.9501 292.585 15.8803 293.655L15.8743 293.661ZM26.9272 292.367C28.4011 293.97 29.1381 296.233 29.1381 299.155L29.1381 308.542L12.1874 308.542L12.1874 299.193C12.1874 296.065 12.9503 293.75 14.476 292.25C16.0017 290.725 18.0963 289.962 20.7597 289.962C23.3715 289.962 25.4273 290.763 26.9272 292.367ZM40.9609 237.329L40.9545 237.337C39.989 238.597 38.8312 241.103 37.5459 245.114L37.5441 245.119L37.5423 245.125C36.2055 249.214 34.87 252.531 33.5244 255.03L33.523 255.032C29.8102 261.904 24.5599 265.694 17.773 265.694C14.325 265.694 11.2011 264.721 8.46972 262.762L8.46648 262.759C5.71651 260.778 3.63292 257.992 2.17153 254.507L2.16933 254.502C0.71058 250.995 -1.30559e-05 247.111 -1.32409e-05 242.878C-1.34278e-05 238.602 0.78176 234.716 2.39483 231.26C3.98353 227.802 6.27299 225.058 9.27588 223.103C12.283 221.119 15.6917 220.14 19.4409 220.14L21.4269 220.14L21.4269 235.749L19.4409 235.749C17.3055 235.749 15.8959 236.4 14.9247 237.513L14.9189 237.52L14.913 237.526C13.8871 238.68 13.2425 240.438 13.2425 243.072C13.2425 245.661 13.7984 247.384 14.6527 248.493L14.659 248.501L14.6652 248.509C15.4818 249.592 16.4736 250.085 17.8118 250.085C18.8448 250.085 19.8205 249.625 20.7787 248.211C21.8617 246.584 22.9564 244.071 24.0176 240.558C26.0487 233.806 28.6357 228.634 31.9049 225.279C35.2434 221.852 39.436 220.14 44.3433 220.14C49.8138 220.14 54.257 222.251 57.4484 226.476L57.4537 226.483C60.5551 230.628 62 236.07 62 242.607C62 247.196 61.1656 251.43 59.4643 255.279L59.4619 255.285L59.4594 255.29C57.7316 259.136 55.3291 262.174 52.2118 264.301L52.2066 264.305L52.2013 264.308C49.0761 266.411 45.4756 267.439 41.473 267.439L39.487 267.439L39.487 251.792L41.473 251.792C44.1807 251.792 45.8821 251 46.961 249.711C48.0965 248.354 48.8351 246.102 48.8351 242.607C48.8351 240.083 48.3253 238.389 47.5454 237.295C46.8033 236.288 45.8372 235.788 44.4209 235.788C42.7526 235.788 41.702 236.341 40.9672 237.321L40.9609 237.329ZM49.1531 236.129C50.2651 237.681 50.8211 239.84 50.8211 242.607C50.8211 250.054 47.705 253.778 41.473 253.778L41.473 265.453C42.1501 265.453 42.8121 265.421 43.4589 265.357C46.295 265.076 48.8395 264.177 51.0926 262.661C53.8595 260.773 56.0446 258.045 57.6479 254.476C59.2253 250.908 60.014 246.951 60.014 242.607C60.014 236.349 58.6305 231.371 55.8636 227.673C53.0708 223.975 49.2307 222.126 44.3433 222.126C39.9473 222.126 36.2753 223.639 33.3273 226.665C30.3794 229.69 27.9098 234.513 25.9187 241.133C24.8326 244.727 23.6689 247.455 22.4277 249.317C21.1864 251.153 19.6478 252.071 17.8118 252.071C15.8465 252.071 14.2691 251.283 13.0796 249.705C11.8642 248.128 11.2565 245.917 11.2565 243.072C11.2565 240.124 11.9806 237.836 13.4287 236.207C14.8509 234.578 16.855 233.763 19.4409 233.763L19.4409 222.126C18.7645 222.126 18.1025 222.161 17.4549 222.232C14.8595 222.513 12.496 223.357 10.3644 224.764C7.70085 226.497 5.64505 228.94 4.19693 232.095C2.72296 235.25 1.98597 238.844 1.98597 242.878C1.98597 246.887 2.65831 250.507 4.00299 253.739C5.34767 256.946 7.22246 259.415 9.62737 261.148C12.0064 262.855 14.7216 263.708 17.773 263.708C23.643 263.708 28.3106 260.501 31.7758 254.088C33.0429 251.735 34.3358 248.542 35.6546 244.508C36.9476 240.473 38.1888 237.681 39.3784 236.129C40.542 234.578 42.2229 233.802 44.4209 233.802C46.4379 233.802 48.0153 234.578 49.1531 236.129ZM61.2242 194.236L61.2242 209.844L0.775761 209.844L0.77576 185.826C0.77576 181.344 1.59625 177.315 3.29978 173.793C5.00554 170.241 7.46879 167.457 10.6903 165.511C13.8748 163.571 17.4836 162.623 21.4579 162.623C27.5027 162.623 32.4573 164.728 36.0866 169.03L36.0874 169.031C39.6624 173.275 41.3256 179.022 41.3256 186.02L41.3256 194.236L61.2242 194.236ZM39.3396 196.222L39.3396 186.02C39.3396 179.323 37.7492 174.086 34.5686 170.311C31.362 166.509 26.9918 164.609 21.4579 164.609C17.8118 164.609 14.5665 165.475 11.722 167.208C8.85159 168.94 6.64062 171.423 5.08907 174.655C3.53752 177.862 2.76175 181.585 2.76175 185.826L2.76175 207.858L59.2382 207.858L59.2382 196.222L39.3396 196.222ZM26.2626 180.131L26.2574 180.125C25.272 179.016 23.801 178.348 21.5355 178.348C19.1849 178.348 17.4705 179.026 16.1963 180.242C14.9566 181.425 14.2209 183.12 14.1734 185.573L14.1734 194.236L27.9279 194.236L27.9279 185.826C27.9279 183.034 27.2697 181.246 26.2679 180.137L26.2626 180.131ZM29.9139 196.222L12.1874 196.222L12.1874 185.555C12.2391 182.684 13.1184 180.435 14.8251 178.805C16.5318 177.176 18.7686 176.362 21.5355 176.362C24.2249 176.362 26.2936 177.176 27.7417 178.805C29.1898 180.409 29.9139 182.749 29.9139 185.826L29.9139 196.222ZM59.2382 121.327L47.6016 125.244L47.6016 145.647L59.2382 149.526L59.2382 161.9L2.76174 140.876L2.76174 130.093L59.2382 108.953L59.2382 121.327ZM49.5876 144.216L61.2242 148.095L61.2242 164.758L0.775758 142.256L0.775758 128.716L61.2242 106.089L61.2242 122.754L49.5876 126.671L49.5876 144.216ZM38.1759 128.386L17.036 135.485L38.1759 142.505L38.1759 128.386ZM36.1899 139.753L36.1899 131.148L23.3059 135.474L36.1899 139.753ZM38.4397 51.7056L40.5689 51.8596C47.0918 52.3315 52.3953 54.7759 56.2793 59.2901C60.1526 63.766 62 69.5926 62 76.5707C62 84.3062 59.3764 90.5923 54.0135 95.185L54.0092 95.1887L54.0049 95.1923C48.6556 99.7208 41.4508 101.869 32.6291 101.869L29.1769 101.869C23.5129 101.869 18.4354 100.87 13.9914 98.8149C9.53712 96.7548 6.05798 93.7799 3.63632 89.8783C1.19324 85.958 -2.02973e-05 81.4477 -2.05173e-05 76.4155C-2.08181e-05 69.533 1.85182 63.7811 5.72905 59.3581C9.61615 54.924 15.0223 52.4461 21.729 51.7864L23.9094 51.572L23.9094 67.2366L22.0779 67.3795C18.6757 67.6449 16.6165 68.5732 15.4673 69.8136L15.457 69.8247L15.4466 69.8356C14.2842 71.0525 13.514 73.1118 13.514 76.4155C13.514 79.7491 14.6727 81.9991 16.8486 83.5108C19.1248 85.0841 22.9431 86.0535 28.6424 86.105L32.9006 86.105C38.8847 86.105 42.8663 85.1897 45.1937 83.6762C47.3461 82.2519 48.5248 80.0211 48.5248 76.5707C48.5248 73.2325 47.7633 71.1357 46.6102 69.8911C45.4153 68.6034 43.424 67.6941 40.2768 67.4575L38.4397 67.3194L38.4397 51.7056ZM48.067 68.5414C49.6962 70.2998 50.5107 72.9763 50.5107 76.5707C50.5107 80.553 49.1014 83.4751 46.2828 85.337C43.4641 87.173 39.0034 88.091 32.9006 88.091L28.6339 88.091C22.7897 88.0392 18.4841 87.0566 15.7172 85.143C12.9244 83.2036 11.528 80.2944 11.528 76.4155C11.528 72.847 12.3555 70.1964 14.0105 68.4638C15.6396 66.7054 18.2773 65.684 21.9234 65.3995L21.9234 53.7629C21.2451 53.8296 20.5831 53.9157 19.9374 54.0213C14.5765 54.8977 10.3382 57.1131 7.22245 60.6673C3.73146 64.6496 1.98597 69.899 1.98597 76.4155C1.98597 81.1219 3.09791 85.2594 5.3218 88.8279C7.51983 92.3707 10.6876 95.0988 14.8251 97.0124C18.9625 98.926 23.7465 99.8828 29.1769 99.8828L32.6291 99.8828C41.1368 99.8828 47.8343 97.814 52.7217 93.6765C57.5832 89.5132 60.014 83.8113 60.014 76.5707C60.014 69.9507 58.2685 64.6237 54.7775 60.5897C51.6761 56.9828 47.5541 54.8047 42.4116 54.0553C41.7657 53.9611 41.1038 53.8895 40.4257 53.8405L40.4257 65.4771C43.8649 65.7357 46.4121 66.7571 48.067 68.5414ZM36.7485 3.87893L36.7485 26.2213L47.9041 26.2213L47.9041 4.8941e-05L61.2242 4.83588e-05L61.2242 41.8299L0.775754 41.8299L0.775752 0.0776286L14.1734 0.077628L14.1734 26.2213L23.6611 26.2213L23.6611 3.87893L36.7485 3.87893ZM25.6471 28.2073L12.1874 28.2073L12.1874 2.06361L2.76174 2.06361L2.76174 39.8439L59.2382 39.8439L59.2382 1.98603L49.8901 1.98603L49.8901 28.2073L34.7625 28.2073L34.7625 5.86491L25.6471 5.86491L25.6471 28.2073Z" fill="#17AC38"/>
</svg>
